<svg width="933" height="40" viewBox="0 0 933 40" fill="none" xmlns="http://www.w3.org/2000/svg">
<rect x="1" y="1" width="931" height="38" rx="19" stroke="#3D1F1A" stroke-width="2"/>
<path d="M181.83 30H179.614L186.023 12.5455H188.205L194.614 30H192.398L187.182 15.3068H187.045L181.83 30ZM182.648 23.1818H191.58V25.0568H182.648V23.1818ZM209.639 16.9091V18.6136H202.582V16.9091H209.639ZM204.696 30V15.1023C204.696 14.3523 204.872 13.7273 205.224 13.2273C205.577 12.7273 206.034 12.3523 206.597 12.1023C207.159 11.8523 207.753 11.7273 208.378 11.7273C208.872 11.7273 209.276 11.767 209.588 11.8466C209.901 11.9261 210.134 12 210.287 12.0682L209.707 13.8068C209.605 13.7727 209.463 13.7301 209.281 13.679C209.105 13.6278 208.872 13.6023 208.582 13.6023C207.918 13.6023 207.438 13.7699 207.142 14.1051C206.852 14.4403 206.707 14.9318 206.707 15.5795V30H204.696ZM212.458 30V16.9091H214.469V30H212.458ZM213.481 14.7273C213.089 14.7273 212.751 14.5938 212.467 14.3267C212.188 14.0597 212.049 13.7386 212.049 13.3636C212.049 12.9886 212.188 12.6676 212.467 12.4006C212.751 12.1335 213.089 12 213.481 12C213.873 12 214.208 12.1335 214.487 12.4006C214.771 12.6676 214.913 12.9886 214.913 13.3636C214.913 13.7386 214.771 14.0597 214.487 14.3267C214.208 14.5938 213.873 14.7273 213.481 14.7273ZM217.778 30V28.4659L225.21 18.9205V18.7841H218.017V16.9091H227.801V18.5114L220.574 27.9886V28.125H228.04V30H217.778ZM230.763 30V28.4659L238.195 18.9205V18.7841H231.001V16.9091H240.786V18.5114L233.558 27.9886V28.125H241.024V30H230.763ZM245.418 34.9091C245.077 34.9091 244.773 34.8807 244.506 34.8239C244.239 34.7727 244.054 34.7216 243.952 34.6705L244.463 32.8977C244.952 33.0227 245.384 33.0682 245.759 33.0341C246.134 33 246.466 32.8324 246.756 32.5312C247.051 32.2358 247.321 31.7557 247.565 31.0909L247.94 30.0682L243.099 16.9091H245.281L248.895 27.3409H249.031L252.645 16.9091H254.827L249.27 31.9091C249.02 32.5852 248.71 33.1449 248.341 33.5881C247.972 34.0369 247.543 34.3693 247.054 34.5852C246.571 34.8011 246.026 34.9091 245.418 34.9091ZM269.72 30.2727C268.459 30.2727 267.371 29.9943 266.456 29.4375C265.547 28.875 264.845 28.0909 264.351 27.0852C263.862 26.0739 263.618 24.8977 263.618 23.5568C263.618 22.2159 263.862 21.0341 264.351 20.0114C264.845 18.983 265.533 18.1818 266.413 17.608C267.3 17.0284 268.334 16.7386 269.516 16.7386C270.197 16.7386 270.871 16.8523 271.536 17.0795C272.2 17.3068 272.805 17.6761 273.351 18.1875C273.896 18.6932 274.331 19.3636 274.655 20.1989C274.979 21.0341 275.141 22.0625 275.141 23.2841V24.1364H265.05V22.3977H273.095C273.095 21.6591 272.947 21 272.652 20.4205C272.362 19.8409 271.947 19.3835 271.408 19.0483C270.874 18.7131 270.243 18.5455 269.516 18.5455C268.714 18.5455 268.021 18.7443 267.436 19.142C266.857 19.5341 266.411 20.0455 266.098 20.6761C265.786 21.3068 265.629 21.983 265.629 22.7045V23.8636C265.629 24.8523 265.8 25.6903 266.141 26.3778C266.487 27.0597 266.967 27.5795 267.581 27.9375C268.195 28.2898 268.908 28.4659 269.72 28.4659C270.249 28.4659 270.726 28.392 271.152 28.2443C271.584 28.0909 271.956 27.8636 272.268 27.5625C272.581 27.2557 272.822 26.875 272.993 26.4205L274.936 26.9659C274.732 27.625 274.388 28.2045 273.905 28.7045C273.422 29.1989 272.825 29.5852 272.115 29.8636C271.405 30.1364 270.607 30.2727 269.72 30.2727ZM280.212 22.125V30H278.2V16.9091H280.143V18.9545H280.314C280.621 18.2898 281.087 17.7557 281.712 17.3523C282.337 16.9432 283.143 16.7386 284.132 16.7386C285.018 16.7386 285.794 16.9205 286.459 17.2841C287.124 17.642 287.641 18.1875 288.01 18.9205C288.379 19.6477 288.564 20.5682 288.564 21.6818V30H286.553V21.8182C286.553 20.7898 286.286 19.9886 285.751 19.4148C285.217 18.8352 284.484 18.5455 283.553 18.5455C282.911 18.5455 282.337 18.6847 281.831 18.9631C281.331 19.2415 280.936 19.6477 280.646 20.1818C280.357 20.7159 280.212 21.3636 280.212 22.125ZM297.728 30.2727C296.467 30.2727 295.379 29.9943 294.464 29.4375C293.555 28.875 292.853 28.0909 292.359 27.0852C291.87 26.0739 291.626 24.8977 291.626 23.5568C291.626 22.2159 291.87 21.0341 292.359 20.0114C292.853 18.983 293.54 18.1818 294.421 17.608C295.308 17.0284 296.342 16.7386 297.523 16.7386C298.205 16.7386 298.879 16.8523 299.543 17.0795C300.208 17.3068 300.813 17.6761 301.359 18.1875C301.904 18.6932 302.339 19.3636 302.663 20.1989C302.987 21.0341 303.148 22.0625 303.148 23.2841V24.1364H293.058V22.3977H301.103C301.103 21.6591 300.955 21 300.66 20.4205C300.37 19.8409 299.955 19.3835 299.415 19.0483C298.881 18.7131 298.251 18.5455 297.523 18.5455C296.722 18.5455 296.029 18.7443 295.444 19.142C294.864 19.5341 294.418 20.0455 294.106 20.6761C293.793 21.3068 293.637 21.983 293.637 22.7045V23.8636C293.637 24.8523 293.808 25.6903 294.148 26.3778C294.495 27.0597 294.975 27.5795 295.589 27.9375C296.202 28.2898 296.915 28.4659 297.728 28.4659C298.256 28.4659 298.734 28.392 299.16 28.2443C299.592 28.0909 299.964 27.8636 300.276 27.5625C300.589 27.2557 300.83 26.875 301.001 26.4205L302.944 26.9659C302.739 27.625 302.396 28.2045 301.913 28.7045C301.43 29.1989 300.833 29.5852 300.123 29.8636C299.413 30.1364 298.614 30.2727 297.728 30.2727ZM306.208 30V16.9091H308.151V18.8864H308.288C308.526 18.2386 308.958 17.7131 309.583 17.3097C310.208 16.9062 310.913 16.7045 311.697 16.7045C311.844 16.7045 312.029 16.7074 312.251 16.7131C312.472 16.7187 312.64 16.7273 312.754 16.7386V18.7841C312.685 18.767 312.529 18.7415 312.285 18.7074C312.046 18.6676 311.793 18.6477 311.526 18.6477C310.89 18.6477 310.322 18.7812 309.822 19.0483C309.327 19.3097 308.935 19.6733 308.646 20.1392C308.362 20.5994 308.219 21.125 308.219 21.7159V30H306.208ZM320.023 35.1818C319.052 35.1818 318.217 35.0568 317.518 34.8068C316.819 34.5625 316.237 34.2386 315.771 33.8352C315.31 33.4375 314.944 33.0114 314.671 32.5568L316.273 31.4318C316.455 31.6705 316.685 31.9432 316.964 32.25C317.242 32.5625 317.623 32.8324 318.106 33.0597C318.594 33.2926 319.234 33.4091 320.023 33.4091C321.08 33.4091 321.952 33.1534 322.64 32.642C323.327 32.1307 323.671 31.3295 323.671 30.2386V27.5795H323.501C323.353 27.8182 323.143 28.1136 322.87 28.4659C322.603 28.8125 322.217 29.1222 321.711 29.3949C321.211 29.6619 320.535 29.7955 319.683 29.7955C318.626 29.7955 317.677 29.5455 316.836 29.0455C316.001 28.5455 315.339 27.8182 314.85 26.8636C314.367 25.9091 314.126 24.75 314.126 23.3864C314.126 22.0455 314.362 20.8778 314.833 19.8835C315.305 18.8835 315.961 18.1108 316.802 17.5653C317.643 17.0142 318.614 16.7386 319.717 16.7386C320.569 16.7386 321.245 16.8807 321.745 17.1648C322.251 17.4432 322.637 17.7614 322.904 18.1193C323.177 18.4716 323.387 18.7614 323.535 18.9886H323.739V16.9091H325.683V30.375C325.683 31.5 325.427 32.4148 324.915 33.1193C324.41 33.8295 323.728 34.3494 322.87 34.679C322.018 35.0142 321.069 35.1818 320.023 35.1818ZM319.955 27.9886C320.762 27.9886 321.444 27.804 322.001 27.4347C322.558 27.0653 322.981 26.5341 323.271 25.8409C323.56 25.1477 323.705 24.3182 323.705 23.3523C323.705 22.4091 323.563 21.5767 323.279 20.8551C322.995 20.1335 322.575 19.5682 322.018 19.1591C321.461 18.75 320.773 18.5455 319.955 18.5455C319.103 18.5455 318.393 18.7614 317.825 19.1932C317.262 19.625 316.839 20.2045 316.555 20.9318C316.276 21.6591 316.137 22.4659 316.137 23.3523C316.137 24.2614 316.279 25.0653 316.563 25.7642C316.853 26.4574 317.279 27.0028 317.842 27.4006C318.41 27.7926 319.114 27.9886 319.955 27.9886ZM330.66 34.9091C330.319 34.9091 330.015 34.8807 329.748 34.8239C329.481 34.7727 329.296 34.7216 329.194 34.6705L329.705 32.8977C330.194 33.0227 330.626 33.0682 331.001 33.0341C331.376 33 331.708 32.8324 331.998 32.5312C332.293 32.2358 332.563 31.7557 332.808 31.0909L333.183 30.0682L328.342 16.9091H330.523L334.137 27.3409H334.273L337.887 16.9091H340.069L334.512 31.9091C334.262 32.5852 333.952 33.1449 333.583 33.5881C333.214 34.0369 332.785 34.3693 332.296 34.5852C331.813 34.8011 331.268 34.9091 330.66 34.9091ZM354.417 30.2727C353.326 30.2727 352.363 29.9972 351.528 29.446C350.692 28.8892 350.039 28.1051 349.567 27.0938C349.096 26.0767 348.86 24.875 348.86 23.4886C348.86 22.1136 349.096 20.9205 349.567 19.9091C350.039 18.8977 350.695 18.1165 351.536 17.5653C352.377 17.0142 353.349 16.7386 354.451 16.7386C355.303 16.7386 355.977 16.8807 356.471 17.1648C356.971 17.4432 357.352 17.7614 357.613 18.1193C357.88 18.4716 358.087 18.7614 358.235 18.9886H358.406V12.5455H360.417V30H358.474V27.9886H358.235C358.087 28.2273 357.877 28.5284 357.604 28.892C357.332 29.25 356.942 29.571 356.437 29.8551C355.931 30.1335 355.258 30.2727 354.417 30.2727ZM354.69 28.4659C355.496 28.4659 356.178 28.2557 356.735 27.8352C357.292 27.4091 357.715 26.821 358.005 26.071C358.295 25.3153 358.44 24.4432 358.44 23.4545C358.44 22.4773 358.298 21.6222 358.013 20.8892C357.729 20.1506 357.309 19.5767 356.752 19.1676C356.195 18.7528 355.508 18.5455 354.69 18.5455C353.837 18.5455 353.127 18.7642 352.559 19.2017C351.996 19.6335 351.573 20.2216 351.289 20.9659C351.011 21.7045 350.871 22.5341 350.871 23.4545C350.871 24.3864 351.013 25.233 351.298 25.9943C351.587 26.75 352.013 27.3523 352.576 27.8011C353.144 28.2443 353.849 28.4659 354.69 28.4659ZM364.38 30V16.9091H366.323V18.8864H366.46C366.698 18.2386 367.13 17.7131 367.755 17.3097C368.38 16.9062 369.085 16.7045 369.869 16.7045C370.016 16.7045 370.201 16.7074 370.423 16.7131C370.644 16.7187 370.812 16.7273 370.925 16.7386V18.7841C370.857 18.767 370.701 18.7415 370.457 18.7074C370.218 18.6676 369.965 18.6477 369.698 18.6477C369.062 18.6477 368.494 18.7812 367.994 19.0483C367.499 19.3097 367.107 19.6733 366.817 20.1392C366.533 20.5994 366.391 21.125 366.391 21.7159V30H364.38ZM373.31 30V16.9091H375.321V30H373.31ZM374.332 14.7273C373.94 14.7273 373.602 14.5938 373.318 14.3267C373.04 14.0597 372.901 13.7386 372.901 13.3636C372.901 12.9886 373.04 12.6676 373.318 12.4006C373.602 12.1335 373.94 12 374.332 12C374.724 12 375.06 12.1335 375.338 12.4006C375.622 12.6676 375.764 12.9886 375.764 13.3636C375.764 13.7386 375.622 14.0597 375.338 14.3267C375.06 14.5938 374.724 14.7273 374.332 14.7273ZM381.016 22.125V30H379.005V16.9091H380.948V18.9545H381.119C381.425 18.2898 381.891 17.7557 382.516 17.3523C383.141 16.9432 383.948 16.7386 384.937 16.7386C385.823 16.7386 386.599 16.9205 387.263 17.2841C387.928 17.642 388.445 18.1875 388.815 18.9205C389.184 19.6477 389.369 20.5682 389.369 21.6818V30H387.357V21.8182C387.357 20.7898 387.09 19.9886 386.556 19.4148C386.022 18.8352 385.289 18.5455 384.357 18.5455C383.715 18.5455 383.141 18.6847 382.636 18.9631C382.136 19.2415 381.741 19.6477 381.451 20.1818C381.161 20.7159 381.016 21.3636 381.016 22.125ZM394.919 25.2273L394.885 22.7386H395.294L401.021 16.9091H403.51L397.408 23.0795H397.237L394.919 25.2273ZM393.044 30V12.5455H395.055V30H393.044ZM401.362 30L396.249 23.5227L397.68 22.125L403.919 30H401.362ZM407.565 30.1364C407.144 30.1364 406.783 29.9858 406.482 29.6847C406.181 29.3835 406.031 29.0227 406.031 28.6023C406.031 28.1818 406.181 27.821 406.482 27.5199C406.783 27.2187 407.144 27.0682 407.565 27.0682C407.985 27.0682 408.346 27.2187 408.647 27.5199C408.948 27.821 409.099 28.1818 409.099 28.6023C409.099 28.8807 409.028 29.1364 408.886 29.3693C408.749 29.6023 408.565 29.7898 408.332 29.9318C408.104 30.0682 407.849 30.1364 407.565 30.1364ZM407.565 20.4205C407.144 20.4205 406.783 20.2699 406.482 19.9688C406.181 19.6676 406.031 19.3068 406.031 18.8864C406.031 18.4659 406.181 18.1051 406.482 17.804C406.783 17.5028 407.144 17.3523 407.565 17.3523C407.985 17.3523 408.346 17.5028 408.647 17.804C408.948 18.1051 409.099 18.4659 409.099 18.8864C409.099 19.1648 409.028 19.4205 408.886 19.6534C408.749 19.8864 408.565 20.0739 408.332 20.2159C408.104 20.3523 407.849 20.4205 407.565 20.4205ZM428.731 19.8409L426.924 20.3523C426.81 20.0511 426.643 19.7585 426.421 19.4744C426.205 19.1847 425.91 18.946 425.535 18.7585C425.16 18.571 424.68 18.4773 424.094 18.4773C423.293 18.4773 422.626 18.6619 422.092 19.0312C421.563 19.3949 421.299 19.858 421.299 20.4205C421.299 20.9205 421.481 21.3153 421.844 21.6051C422.208 21.8949 422.776 22.1364 423.549 22.3295L425.492 22.8068C426.663 23.0909 427.535 23.5256 428.109 24.1108C428.683 24.6903 428.969 25.4375 428.969 26.3523C428.969 27.1023 428.754 27.7727 428.322 28.3636C427.896 28.9545 427.299 29.4205 426.532 29.7614C425.765 30.1023 424.873 30.2727 423.856 30.2727C422.521 30.2727 421.415 29.983 420.54 29.4034C419.665 28.8239 419.112 27.9773 418.879 26.8636L420.788 26.3864C420.969 27.0909 421.313 27.6193 421.819 27.9716C422.33 28.3239 422.998 28.5 423.822 28.5C424.759 28.5 425.504 28.3011 426.055 27.9034C426.612 27.5 426.89 27.017 426.89 26.4545C426.89 26 426.731 25.6193 426.413 25.3125C426.094 25 425.606 24.767 424.947 24.6136L422.765 24.1023C421.566 23.8182 420.685 23.3778 420.123 22.7812C419.566 22.179 419.288 21.4261 419.288 20.5227C419.288 19.7841 419.495 19.1307 419.91 18.5625C420.33 17.9943 420.901 17.5483 421.623 17.2244C422.35 16.9006 423.174 16.7386 424.094 16.7386C425.39 16.7386 426.407 17.0227 427.146 17.5909C427.89 18.1591 428.418 18.9091 428.731 19.8409ZM434.963 30L430.974 16.9091H433.088L435.918 26.9318H436.054L438.849 16.9091H440.997L443.759 26.8977H443.895L446.724 16.9091H448.838L444.849 30H442.872L440.009 19.9432H439.804L436.94 30H434.963ZM456.54 30.2727C455.279 30.2727 454.191 29.9943 453.276 29.4375C452.367 28.875 451.665 28.0909 451.171 27.0852C450.683 26.0739 450.438 24.8977 450.438 23.5568C450.438 22.2159 450.683 21.0341 451.171 20.0114C451.665 18.983 452.353 18.1818 453.234 17.608C454.12 17.0284 455.154 16.7386 456.336 16.7386C457.018 16.7386 457.691 16.8523 458.356 17.0795C459.021 17.3068 459.626 17.6761 460.171 18.1875C460.717 18.6932 461.151 19.3636 461.475 20.1989C461.799 21.0341 461.961 22.0625 461.961 23.2841V24.1364H451.87V22.3977H459.915C459.915 21.6591 459.768 21 459.472 20.4205C459.183 19.8409 458.768 19.3835 458.228 19.0483C457.694 18.7131 457.063 18.5455 456.336 18.5455C455.535 18.5455 454.842 18.7443 454.256 19.142C453.677 19.5341 453.231 20.0455 452.918 20.6761C452.606 21.3068 452.45 21.983 452.45 22.7045V23.8636C452.45 24.8523 452.62 25.6903 452.961 26.3778C453.308 27.0597 453.788 27.5795 454.401 27.9375C455.015 28.2898 455.728 28.4659 456.54 28.4659C457.069 28.4659 457.546 28.392 457.972 28.2443C458.404 28.0909 458.776 27.8636 459.089 27.5625C459.401 27.2557 459.643 26.875 459.813 26.4205L461.756 26.9659C461.552 27.625 461.208 28.2045 460.725 28.7045C460.242 29.1989 459.646 29.5852 458.935 29.8636C458.225 30.1364 457.427 30.2727 456.54 30.2727ZM470.509 30.2727C469.248 30.2727 468.16 29.9943 467.245 29.4375C466.336 28.875 465.634 28.0909 465.14 27.0852C464.651 26.0739 464.407 24.8977 464.407 23.5568C464.407 22.2159 464.651 21.0341 465.14 20.0114C465.634 18.983 466.322 18.1818 467.202 17.608C468.089 17.0284 469.123 16.7386 470.305 16.7386C470.987 16.7386 471.66 16.8523 472.325 17.0795C472.989 17.3068 473.594 17.6761 474.14 18.1875C474.685 18.6932 475.12 19.3636 475.444 20.1989C475.768 21.0341 475.93 22.0625 475.93 23.2841V24.1364H465.839V22.3977H473.884C473.884 21.6591 473.737 21 473.441 20.4205C473.151 19.8409 472.737 19.3835 472.197 19.0483C471.663 18.7131 471.032 18.5455 470.305 18.5455C469.504 18.5455 468.81 18.7443 468.225 19.142C467.646 19.5341 467.2 20.0455 466.887 20.6761C466.575 21.3068 466.418 21.983 466.418 22.7045V23.8636C466.418 24.8523 466.589 25.6903 466.93 26.3778C467.276 27.0597 467.756 27.5795 468.37 27.9375C468.984 28.2898 469.697 28.4659 470.509 28.4659C471.038 28.4659 471.515 28.392 471.941 28.2443C472.373 28.0909 472.745 27.8636 473.058 27.5625C473.37 27.2557 473.612 26.875 473.782 26.4205L475.725 26.9659C475.521 27.625 475.177 28.2045 474.694 28.7045C474.211 29.1989 473.614 29.5852 472.904 29.8636C472.194 30.1364 471.396 30.2727 470.509 30.2727ZM484.683 16.9091V18.6136H477.898V16.9091H484.683ZM479.876 13.7727H481.887V26.25C481.887 26.8182 481.969 27.2443 482.134 27.5284C482.305 27.8068 482.521 27.9943 482.782 28.0909C483.049 28.1818 483.33 28.2273 483.626 28.2273C483.847 28.2273 484.029 28.2159 484.171 28.1932C484.313 28.1648 484.427 28.142 484.512 28.125L484.921 29.9318C484.785 29.983 484.594 30.0341 484.35 30.0852C484.106 30.142 483.796 30.1705 483.421 30.1705C482.853 30.1705 482.296 30.0483 481.751 29.804C481.211 29.5597 480.762 29.1875 480.404 28.6875C480.052 28.1875 479.876 27.5568 479.876 26.7955V13.7727ZM490.708 27.6136L490.572 28.5341C490.475 29.1818 490.327 29.875 490.129 30.6136C489.935 31.3523 489.734 32.0483 489.523 32.7017C489.313 33.3551 489.14 33.875 489.004 34.2614H487.469C487.543 33.8977 487.64 33.4176 487.759 32.821C487.879 32.2244 487.998 31.5568 488.117 30.8182C488.242 30.0852 488.344 29.3352 488.424 28.5682L488.526 27.6136H490.708ZM501.185 30V16.9091H503.128V18.8864H503.264C503.503 18.2386 503.935 17.7131 504.56 17.3097C505.185 16.9062 505.889 16.7045 506.673 16.7045C506.821 16.7045 507.006 16.7074 507.227 16.7131C507.449 16.7187 507.616 16.7273 507.73 16.7386V18.7841C507.662 18.767 507.506 18.7415 507.261 18.7074C507.023 18.6676 506.77 18.6477 506.503 18.6477C505.866 18.6477 505.298 18.7812 504.798 19.0483C504.304 19.3097 503.912 19.6733 503.622 20.1392C503.338 20.5994 503.196 21.125 503.196 21.7159V30H501.185ZM515.205 30.2727C513.943 30.2727 512.855 29.9943 511.94 29.4375C511.031 28.875 510.33 28.0909 509.835 27.0852C509.347 26.0739 509.102 24.8977 509.102 23.5568C509.102 22.2159 509.347 21.0341 509.835 20.0114C510.33 18.983 511.017 18.1818 511.898 17.608C512.784 17.0284 513.818 16.7386 515 16.7386C515.682 16.7386 516.355 16.8523 517.02 17.0795C517.685 17.3068 518.29 17.6761 518.835 18.1875C519.381 18.6932 519.815 19.3636 520.139 20.1989C520.463 21.0341 520.625 22.0625 520.625 23.2841V24.1364H510.534V22.3977H518.58C518.58 21.6591 518.432 21 518.136 20.4205C517.847 19.8409 517.432 19.3835 516.892 19.0483C516.358 18.7131 515.727 18.5455 515 18.5455C514.199 18.5455 513.506 18.7443 512.92 19.142C512.341 19.5341 511.895 20.0455 511.582 20.6761C511.27 21.3068 511.114 21.983 511.114 22.7045V23.8636C511.114 24.8523 511.284 25.6903 511.625 26.3778C511.972 27.0597 512.452 27.5795 513.065 27.9375C513.679 28.2898 514.392 28.4659 515.205 28.4659C515.733 28.4659 516.21 28.392 516.636 28.2443C517.068 28.0909 517.44 27.8636 517.753 27.5625C518.065 27.2557 518.307 26.875 518.477 26.4205L520.42 26.9659C520.216 27.625 519.872 28.2045 519.389 28.7045C518.906 29.1989 518.31 29.5852 517.599 29.8636C516.889 30.1364 516.091 30.2727 515.205 30.2727ZM532.957 19.8409L531.151 20.3523C531.037 20.0511 530.869 19.7585 530.648 19.4744C530.432 19.1847 530.136 18.946 529.761 18.7585C529.386 18.571 528.906 18.4773 528.321 18.4773C527.52 18.4773 526.852 18.6619 526.318 19.0312C525.79 19.3949 525.526 19.858 525.526 20.4205C525.526 20.9205 525.707 21.3153 526.071 21.6051C526.435 21.8949 527.003 22.1364 527.776 22.3295L529.719 22.8068C530.889 23.0909 531.761 23.5256 532.335 24.1108C532.909 24.6903 533.196 25.4375 533.196 26.3523C533.196 27.1023 532.98 27.7727 532.548 28.3636C532.122 28.9545 531.526 29.4205 530.759 29.7614C529.991 30.1023 529.099 30.2727 528.082 30.2727C526.747 30.2727 525.642 29.983 524.767 29.4034C523.892 28.8239 523.338 27.9773 523.105 26.8636L525.014 26.3864C525.196 27.0909 525.54 27.6193 526.045 27.9716C526.557 28.3239 527.224 28.5 528.048 28.5C528.986 28.5 529.73 28.3011 530.281 27.9034C530.838 27.5 531.116 27.017 531.116 26.4545C531.116 26 530.957 25.6193 530.639 25.3125C530.321 25 529.832 24.767 529.173 24.6136L526.991 24.1023C525.793 23.8182 524.912 23.3778 524.349 22.7812C523.793 22.179 523.514 21.4261 523.514 20.5227C523.514 19.7841 523.722 19.1307 524.136 18.5625C524.557 17.9943 525.128 17.5483 525.849 17.2244C526.577 16.9006 527.401 16.7386 528.321 16.7386C529.616 16.7386 530.634 17.0227 531.372 17.5909C532.116 18.1591 532.645 18.9091 532.957 19.8409ZM541.917 16.9091V18.6136H535.133V16.9091H541.917ZM537.11 13.7727H539.121V26.25C539.121 26.8182 539.204 27.2443 539.369 27.5284C539.539 27.8068 539.755 27.9943 540.016 28.0909C540.283 28.1818 540.565 28.2273 540.86 28.2273C541.082 28.2273 541.263 28.2159 541.406 28.1932C541.548 28.1648 541.661 28.142 541.746 28.125L542.156 29.9318C542.019 29.983 541.829 30.0341 541.585 30.0852C541.34 30.142 541.031 30.1705 540.656 30.1705C540.087 30.1705 539.531 30.0483 538.985 29.804C538.445 29.5597 537.996 29.1875 537.638 28.6875C537.286 28.1875 537.11 27.5568 537.11 26.7955V13.7727ZM547.235 12.5455V30H545.224V12.5455H547.235ZM556.408 30.2727C555.146 30.2727 554.058 29.9943 553.143 29.4375C552.234 28.875 551.533 28.0909 551.038 27.0852C550.55 26.0739 550.305 24.8977 550.305 23.5568C550.305 22.2159 550.55 21.0341 551.038 20.0114C551.533 18.983 552.22 18.1818 553.101 17.608C553.987 17.0284 555.021 16.7386 556.203 16.7386C556.885 16.7386 557.558 16.8523 558.223 17.0795C558.888 17.3068 559.493 17.6761 560.038 18.1875C560.584 18.6932 561.018 19.3636 561.342 20.1989C561.666 21.0341 561.828 22.0625 561.828 23.2841V24.1364H551.737V22.3977H559.783C559.783 21.6591 559.635 21 559.339 20.4205C559.05 19.8409 558.635 19.3835 558.095 19.0483C557.561 18.7131 556.93 18.5455 556.203 18.5455C555.402 18.5455 554.709 18.7443 554.124 19.142C553.544 19.5341 553.098 20.0455 552.786 20.6761C552.473 21.3068 552.317 21.983 552.317 22.7045V23.8636C552.317 24.8523 552.487 25.6903 552.828 26.3778C553.175 27.0597 553.655 27.5795 554.268 27.9375C554.882 28.2898 555.595 28.4659 556.408 28.4659C556.936 28.4659 557.413 28.392 557.839 28.2443C558.271 28.0909 558.643 27.8636 558.956 27.5625C559.268 27.2557 559.51 26.875 559.68 26.4205L561.624 26.9659C561.419 27.625 561.075 28.2045 560.592 28.7045C560.109 29.1989 559.513 29.5852 558.803 29.8636C558.092 30.1364 557.294 30.2727 556.408 30.2727ZM574.161 19.8409L572.354 20.3523C572.24 20.0511 572.072 19.7585 571.851 19.4744C571.635 19.1847 571.339 18.946 570.964 18.7585C570.589 18.571 570.109 18.4773 569.524 18.4773C568.723 18.4773 568.055 18.6619 567.521 19.0312C566.993 19.3949 566.729 19.858 566.729 20.4205C566.729 20.9205 566.911 21.3153 567.274 21.6051C567.638 21.8949 568.206 22.1364 568.979 22.3295L570.922 22.8068C572.092 23.0909 572.964 23.5256 573.538 24.1108C574.112 24.6903 574.399 25.4375 574.399 26.3523C574.399 27.1023 574.183 27.7727 573.751 28.3636C573.325 28.9545 572.729 29.4205 571.962 29.7614C571.195 30.1023 570.303 30.2727 569.286 30.2727C567.95 30.2727 566.845 29.983 565.97 29.4034C565.095 28.8239 564.541 27.9773 564.308 26.8636L566.217 26.3864C566.399 27.0909 566.743 27.6193 567.249 27.9716C567.76 28.3239 568.428 28.5 569.251 28.5C570.189 28.5 570.933 28.3011 571.484 27.9034C572.041 27.5 572.32 27.017 572.32 26.4545C572.32 26 572.161 25.6193 571.842 25.3125C571.524 25 571.036 24.767 570.376 24.6136L568.195 24.1023C566.996 23.8182 566.115 23.3778 565.553 22.7812C564.996 22.179 564.717 21.4261 564.717 20.5227C564.717 19.7841 564.925 19.1307 565.339 18.5625C565.76 17.9943 566.331 17.5483 567.053 17.2244C567.78 16.9006 568.604 16.7386 569.524 16.7386C570.82 16.7386 571.837 17.0227 572.575 17.5909C573.32 18.1591 573.848 18.9091 574.161 19.8409ZM586.7 19.8409L584.893 20.3523C584.779 20.0511 584.612 19.7585 584.39 19.4744C584.174 19.1847 583.879 18.946 583.504 18.7585C583.129 18.571 582.648 18.4773 582.063 18.4773C581.262 18.4773 580.594 18.6619 580.06 19.0312C579.532 19.3949 579.268 19.858 579.268 20.4205C579.268 20.9205 579.45 21.3153 579.813 21.6051C580.177 21.8949 580.745 22.1364 581.518 22.3295L583.461 22.8068C584.631 23.0909 585.504 23.5256 586.077 24.1108C586.651 24.6903 586.938 25.4375 586.938 26.3523C586.938 27.1023 586.722 27.7727 586.29 28.3636C585.864 28.9545 585.268 29.4205 584.501 29.7614C583.734 30.1023 582.842 30.2727 581.825 30.2727C580.489 30.2727 579.384 29.983 578.509 29.4034C577.634 28.8239 577.08 27.9773 576.847 26.8636L578.756 26.3864C578.938 27.0909 579.282 27.6193 579.788 27.9716C580.299 28.3239 580.967 28.5 581.79 28.5C582.728 28.5 583.472 28.3011 584.023 27.9034C584.58 27.5 584.859 27.017 584.859 26.4545C584.859 26 584.7 25.6193 584.381 25.3125C584.063 25 583.575 24.767 582.915 24.6136L580.734 24.1023C579.535 23.8182 578.654 23.3778 578.092 22.7812C577.535 22.179 577.256 21.4261 577.256 20.5227C577.256 19.7841 577.464 19.1307 577.879 18.5625C578.299 17.9943 578.87 17.5483 579.592 17.2244C580.319 16.9006 581.143 16.7386 582.063 16.7386C583.359 16.7386 584.376 17.0227 585.114 17.5909C585.859 18.1591 586.387 18.9091 586.7 19.8409ZM592.966 27.6136L592.83 28.5341C592.733 29.1818 592.585 29.875 592.386 30.6136C592.193 31.3523 591.991 32.0483 591.781 32.7017C591.571 33.3551 591.398 33.875 591.261 34.2614H589.727C589.801 33.8977 589.898 33.4176 590.017 32.821C590.136 32.2244 590.256 31.5568 590.375 30.8182C590.5 30.0852 590.602 29.3352 590.682 28.5682L590.784 27.6136H592.966ZM609.272 16.9091V18.6136H602.215V16.9091H609.272ZM604.329 30V15.1023C604.329 14.3523 604.505 13.7273 604.857 13.2273C605.21 12.7273 605.667 12.3523 606.229 12.1023C606.792 11.8523 607.386 11.7273 608.011 11.7273C608.505 11.7273 608.908 11.767 609.221 11.8466C609.533 11.9261 609.766 12 609.92 12.0682L609.34 13.8068C609.238 13.7727 609.096 13.7301 608.914 13.679C608.738 13.6278 608.505 13.6023 608.215 13.6023C607.55 13.6023 607.07 13.7699 606.775 14.1051C606.485 14.4403 606.34 14.9318 606.34 15.5795V30H604.329ZM620.341 24.6477V16.9091H622.352V30H620.341V27.7841H620.205C619.898 28.4489 619.42 29.0142 618.773 29.4801C618.125 29.9403 617.307 30.1705 616.318 30.1705C615.5 30.1705 614.773 29.9915 614.136 29.6335C613.5 29.2699 613 28.7244 612.636 27.9972C612.273 27.2642 612.091 26.3409 612.091 25.2273V16.9091H614.102V25.0909C614.102 26.0455 614.369 26.8068 614.903 27.375C615.443 27.9432 616.131 28.2273 616.966 28.2273C617.466 28.2273 617.974 28.0994 618.491 27.8438C619.014 27.5881 619.452 27.196 619.804 26.6676C620.162 26.1392 620.341 25.4659 620.341 24.6477ZM628.048 12.5455V30H626.036V12.5455H628.048ZM633.743 12.5455V30H631.732V12.5455H633.743ZM649.495 30.2727C648.313 30.2727 647.276 29.9915 646.384 29.429C645.498 28.8665 644.805 28.0795 644.305 27.0682C643.81 26.0568 643.563 24.875 643.563 23.5227C643.563 22.1591 643.81 20.9687 644.305 19.9517C644.805 18.9347 645.498 18.1449 646.384 17.5824C647.276 17.0199 648.313 16.7386 649.495 16.7386C650.677 16.7386 651.711 17.0199 652.597 17.5824C653.489 18.1449 654.183 18.9347 654.677 19.9517C655.177 20.9687 655.427 22.1591 655.427 23.5227C655.427 24.875 655.177 26.0568 654.677 27.0682C654.183 28.0795 653.489 28.8665 652.597 29.429C651.711 29.9915 650.677 30.2727 649.495 30.2727ZM649.495 28.4659C650.393 28.4659 651.131 28.2358 651.711 27.7756C652.29 27.3153 652.719 26.7102 652.998 25.9602C653.276 25.2102 653.415 24.3977 653.415 23.5227C653.415 22.6477 653.276 21.8324 652.998 21.0767C652.719 20.321 652.29 19.7102 651.711 19.2443C651.131 18.7784 650.393 18.5455 649.495 18.5455C648.597 18.5455 647.859 18.7784 647.279 19.2443C646.7 19.7102 646.271 20.321 645.992 21.0767C645.714 21.8324 645.575 22.6477 645.575 23.5227C645.575 24.3977 645.714 25.2102 645.992 25.9602C646.271 26.7102 646.7 27.3153 647.279 27.7756C647.859 28.2358 648.597 28.4659 649.495 28.4659ZM664.327 16.9091V18.6136H657.27V16.9091H664.327ZM659.384 30V15.1023C659.384 14.3523 659.56 13.7273 659.912 13.2273C660.264 12.7273 660.722 12.3523 661.284 12.1023C661.847 11.8523 662.44 11.7273 663.065 11.7273C663.56 11.7273 663.963 11.767 664.276 11.8466C664.588 11.9261 664.821 12 664.974 12.0682L664.395 13.8068C664.293 13.7727 664.151 13.7301 663.969 13.679C663.793 13.6278 663.56 13.6023 663.27 13.6023C662.605 13.6023 662.125 13.7699 661.83 14.1051C661.54 14.4403 661.395 14.9318 661.395 15.5795V30H659.384ZM683.168 19.8409L681.362 20.3523C681.248 20.0511 681.08 19.7585 680.859 19.4744C680.643 19.1847 680.347 18.946 679.972 18.7585C679.597 18.571 679.117 18.4773 678.532 18.4773C677.731 18.4773 677.063 18.6619 676.529 19.0312C676.001 19.3949 675.737 19.858 675.737 20.4205C675.737 20.9205 675.918 21.3153 676.282 21.6051C676.646 21.8949 677.214 22.1364 677.987 22.3295L679.93 22.8068C681.1 23.0909 681.972 23.5256 682.546 24.1108C683.12 24.6903 683.407 25.4375 683.407 26.3523C683.407 27.1023 683.191 27.7727 682.759 28.3636C682.333 28.9545 681.737 29.4205 680.969 29.7614C680.202 30.1023 679.31 30.2727 678.293 30.2727C676.958 30.2727 675.853 29.983 674.978 29.4034C674.103 28.8239 673.549 27.9773 673.316 26.8636L675.225 26.3864C675.407 27.0909 675.751 27.6193 676.256 27.9716C676.768 28.3239 677.435 28.5 678.259 28.5C679.197 28.5 679.941 28.3011 680.492 27.9034C681.049 27.5 681.327 27.017 681.327 26.4545C681.327 26 681.168 25.6193 680.85 25.3125C680.532 25 680.043 24.767 679.384 24.6136L677.202 24.1023C676.004 23.8182 675.123 23.3778 674.56 22.7812C674.004 22.179 673.725 21.4261 673.725 20.5227C673.725 19.7841 673.933 19.1307 674.347 18.5625C674.768 17.9943 675.339 17.5483 676.06 17.2244C676.788 16.9006 677.612 16.7386 678.532 16.7386C679.827 16.7386 680.844 17.0227 681.583 17.5909C682.327 18.1591 682.856 18.9091 683.168 19.8409ZM686.435 34.9091V16.9091H688.378V18.9886H688.616C688.764 18.7614 688.969 18.4716 689.23 18.1193C689.497 17.7614 689.878 17.4432 690.372 17.1648C690.872 16.8807 691.548 16.7386 692.401 16.7386C693.503 16.7386 694.474 17.0142 695.315 17.5653C696.156 18.1165 696.813 18.8977 697.284 19.9091C697.756 20.9205 697.991 22.1136 697.991 23.4886C697.991 24.875 697.756 26.0767 697.284 27.0938C696.813 28.1051 696.159 28.8892 695.324 29.446C694.489 29.9972 693.526 30.2727 692.435 30.2727C691.594 30.2727 690.92 30.1335 690.415 29.8551C689.909 29.571 689.52 29.25 689.247 28.892C688.974 28.5284 688.764 28.2273 688.616 27.9886H688.446V34.9091H686.435ZM688.412 23.4545C688.412 24.4432 688.557 25.3153 688.847 26.071C689.136 26.821 689.56 27.4091 690.116 27.8352C690.673 28.2557 691.355 28.4659 692.162 28.4659C693.003 28.4659 693.705 28.2443 694.267 27.8011C694.835 27.3523 695.261 26.75 695.545 25.9943C695.835 25.233 695.98 24.3864 695.98 23.4545C695.98 22.5341 695.838 21.7045 695.554 20.9659C695.276 20.2216 694.852 19.6335 694.284 19.2017C693.722 18.7642 693.014 18.5455 692.162 18.5455C691.344 18.5455 690.656 18.7528 690.099 19.1676C689.543 19.5767 689.122 20.1506 688.838 20.8892C688.554 21.6222 688.412 22.4773 688.412 23.4545ZM704.912 30.3068C704.082 30.3068 703.33 30.1506 702.653 29.8381C701.977 29.5199 701.44 29.0625 701.043 28.4659C700.645 27.8636 700.446 27.1364 700.446 26.2841C700.446 25.5341 700.594 24.9261 700.889 24.4602C701.185 23.9886 701.58 23.6193 702.074 23.3523C702.568 23.0852 703.114 22.8864 703.71 22.7557C704.313 22.6193 704.918 22.5114 705.526 22.4318C706.321 22.3295 706.966 22.2528 707.46 22.2017C707.96 22.1449 708.324 22.0511 708.551 21.9205C708.784 21.7898 708.901 21.5625 708.901 21.2386V21.1705C708.901 20.3295 708.67 19.6761 708.21 19.2102C707.756 18.7443 707.065 18.5114 706.139 18.5114C705.179 18.5114 704.426 18.7216 703.881 19.142C703.335 19.5625 702.952 20.0114 702.73 20.4886L700.821 19.8068C701.162 19.0114 701.616 18.392 702.185 17.9489C702.759 17.5 703.384 17.1875 704.06 17.0114C704.741 16.8295 705.412 16.7386 706.071 16.7386C706.491 16.7386 706.974 16.7898 707.52 16.892C708.071 16.9886 708.602 17.1903 709.114 17.4972C709.631 17.804 710.06 18.267 710.401 18.8864C710.741 19.5057 710.912 20.3352 710.912 21.375V30H708.901V28.2273H708.798C708.662 28.5114 708.435 28.8153 708.116 29.1392C707.798 29.4631 707.375 29.7386 706.847 29.9659C706.318 30.1932 705.673 30.3068 704.912 30.3068ZM705.219 28.5C706.014 28.5 706.685 28.3438 707.23 28.0312C707.781 27.7188 708.196 27.3153 708.474 26.821C708.759 26.3267 708.901 25.8068 708.901 25.2614V23.4205C708.815 23.5227 708.628 23.6165 708.338 23.7017C708.054 23.7812 707.724 23.8523 707.349 23.9148C706.98 23.9716 706.619 24.0227 706.267 24.0682C705.92 24.108 705.639 24.142 705.423 24.1705C704.901 24.2386 704.412 24.3494 703.957 24.5028C703.509 24.6506 703.145 24.875 702.866 25.1761C702.594 25.4716 702.457 25.875 702.457 26.3864C702.457 27.0852 702.716 27.6136 703.233 27.9716C703.756 28.3239 704.418 28.5 705.219 28.5ZM714.583 30V16.9091H716.526V18.8864H716.663C716.901 18.2386 717.333 17.7131 717.958 17.3097C718.583 16.9062 719.288 16.7045 720.072 16.7045C720.219 16.7045 720.404 16.7074 720.626 16.7131C720.847 16.7187 721.015 16.7273 721.129 16.7386V18.7841C721.06 18.767 720.904 18.7415 720.66 18.7074C720.421 18.6676 720.168 18.6477 719.901 18.6477C719.265 18.6477 718.697 18.7812 718.197 19.0483C717.702 19.3097 717.31 19.6733 717.021 20.1392C716.737 20.5994 716.594 21.125 716.594 21.7159V30H714.583ZM725.388 25.2273L725.354 22.7386H725.763L731.49 16.9091H733.979L727.876 23.0795H727.706L725.388 25.2273ZM723.513 30V12.5455H725.524V30H723.513ZM731.831 30L726.717 23.5227L728.149 22.125L734.388 30H731.831ZM745.84 19.8409L744.033 20.3523C743.92 20.0511 743.752 19.7585 743.531 19.4744C743.315 19.1847 743.019 18.946 742.644 18.7585C742.269 18.571 741.789 18.4773 741.204 18.4773C740.403 18.4773 739.735 18.6619 739.201 19.0312C738.673 19.3949 738.408 19.858 738.408 20.4205C738.408 20.9205 738.59 21.3153 738.954 21.6051C739.317 21.8949 739.886 22.1364 740.658 22.3295L742.602 22.8068C743.772 23.0909 744.644 23.5256 745.218 24.1108C745.792 24.6903 746.079 25.4375 746.079 26.3523C746.079 27.1023 745.863 27.7727 745.431 28.3636C745.005 28.9545 744.408 29.4205 743.641 29.7614C742.874 30.1023 741.982 30.2727 740.965 30.2727C739.63 30.2727 738.525 29.983 737.65 29.4034C736.775 28.8239 736.221 27.9773 735.988 26.8636L737.897 26.3864C738.079 27.0909 738.423 27.6193 738.928 27.9716C739.44 28.3239 740.107 28.5 740.931 28.5C741.869 28.5 742.613 28.3011 743.164 27.9034C743.721 27.5 743.999 27.017 743.999 26.4545C743.999 26 743.84 25.6193 743.522 25.3125C743.204 25 742.715 24.767 742.056 24.6136L739.874 24.1023C738.675 23.8182 737.795 23.3778 737.232 22.7812C736.675 22.179 736.397 21.4261 736.397 20.5227C736.397 19.7841 736.604 19.1307 737.019 18.5625C737.44 17.9943 738.011 17.5483 738.732 17.2244C739.46 16.9006 740.283 16.7386 741.204 16.7386C742.499 16.7386 743.516 17.0227 744.255 17.5909C744.999 18.1591 745.528 18.9091 745.84 19.8409ZM750.572 30.1364C750.152 30.1364 749.791 29.9858 749.49 29.6847C749.189 29.3835 749.038 29.0227 749.038 28.6023C749.038 28.1818 749.189 27.821 749.49 27.5199C749.791 27.2187 750.152 27.0682 750.572 27.0682C750.993 27.0682 751.354 27.2187 751.655 27.5199C751.956 27.821 752.107 28.1818 752.107 28.6023C752.107 28.8807 752.036 29.1364 751.893 29.3693C751.757 29.6023 751.572 29.7898 751.339 29.9318C751.112 30.0682 750.857 30.1364 750.572 30.1364Z" fill="#3E2522"/>
</svg>
