<svg width="933" height="40" viewBox="0 0 933 40" fill="none" xmlns="http://www.w3.org/2000/svg">
<rect x="1" y="1" width="931" height="38" rx="19" stroke="#3D1F1A" stroke-width="2"/>
<path d="M139.83 30H137.614L144.023 12.5455H146.205L152.614 30H150.398L145.182 15.3068H145.045L139.83 30ZM140.648 23.1818H149.58V25.0568H140.648V23.1818ZM162.082 30V12.5455H164.094V18.9886H164.264C164.412 18.7614 164.616 18.4716 164.878 18.1193C165.145 17.7614 165.526 17.4432 166.02 17.1648C166.52 16.8807 167.196 16.7386 168.048 16.7386C169.151 16.7386 170.122 17.0142 170.963 17.5653C171.804 18.1165 172.46 18.8977 172.932 19.9091C173.403 20.9205 173.639 22.1136 173.639 23.4886C173.639 24.875 173.403 26.0767 172.932 27.0938C172.46 28.1051 171.807 28.8892 170.972 29.446C170.136 29.9972 169.173 30.2727 168.082 30.2727C167.241 30.2727 166.568 30.1335 166.062 29.8551C165.557 29.571 165.168 29.25 164.895 28.892C164.622 28.5284 164.412 28.2273 164.264 27.9886H164.026V30H162.082ZM164.06 23.4545C164.06 24.4432 164.205 25.3153 164.494 26.071C164.784 26.821 165.207 27.4091 165.764 27.8352C166.321 28.2557 167.003 28.4659 167.81 28.4659C168.651 28.4659 169.352 28.2443 169.915 27.8011C170.483 27.3523 170.909 26.75 171.193 25.9943C171.483 25.233 171.628 24.3864 171.628 23.4545C171.628 22.5341 171.486 21.7045 171.202 20.9659C170.923 20.2216 170.5 19.6335 169.932 19.2017C169.369 18.7642 168.662 18.5455 167.81 18.5455C166.991 18.5455 166.304 18.7528 165.747 19.1676C165.19 19.5767 164.77 20.1506 164.486 20.8892C164.202 21.6222 164.06 22.4773 164.06 23.4545ZM182.034 30.2727C180.852 30.2727 179.815 29.9915 178.923 29.429C178.037 28.8665 177.344 28.0795 176.844 27.0682C176.349 26.0568 176.102 24.875 176.102 23.5227C176.102 22.1591 176.349 20.9687 176.844 19.9517C177.344 18.9347 178.037 18.1449 178.923 17.5824C179.815 17.0199 180.852 16.7386 182.034 16.7386C183.216 16.7386 184.25 17.0199 185.136 17.5824C186.028 18.1449 186.722 18.9347 187.216 19.9517C187.716 20.9687 187.966 22.1591 187.966 23.5227C187.966 24.875 187.716 26.0568 187.216 27.0682C186.722 28.0795 186.028 28.8665 185.136 29.429C184.25 29.9915 183.216 30.2727 182.034 30.2727ZM182.034 28.4659C182.932 28.4659 183.67 28.2358 184.25 27.7756C184.83 27.3153 185.259 26.7102 185.537 25.9602C185.815 25.2102 185.955 24.3977 185.955 23.5227C185.955 22.6477 185.815 21.8324 185.537 21.0767C185.259 20.321 184.83 19.7102 184.25 19.2443C183.67 18.7784 182.932 18.5455 182.034 18.5455C181.136 18.5455 180.398 18.7784 179.818 19.2443C179.239 19.7102 178.81 20.321 178.531 21.0767C178.253 21.8324 178.114 22.6477 178.114 23.5227C178.114 24.3977 178.253 25.2102 178.531 25.9602C178.81 26.7102 179.239 27.3153 179.818 27.7756C180.398 28.2358 181.136 28.4659 182.034 28.4659ZM193.048 12.5455V30H191.036V12.5455H193.048ZM201.675 30.2727C200.584 30.2727 199.621 29.9972 198.786 29.446C197.95 28.8892 197.297 28.1051 196.825 27.0938C196.354 26.0767 196.118 24.875 196.118 23.4886C196.118 22.1136 196.354 20.9205 196.825 19.9091C197.297 18.8977 197.953 18.1165 198.794 17.5653C199.635 17.0142 200.607 16.7386 201.709 16.7386C202.561 16.7386 203.234 16.8807 203.729 17.1648C204.229 17.4432 204.609 17.7614 204.871 18.1193C205.138 18.4716 205.345 18.7614 205.493 18.9886H205.663V12.5455H207.675V30H205.732V27.9886H205.493C205.345 28.2273 205.135 28.5284 204.862 28.892C204.589 29.25 204.2 29.571 203.695 29.8551C203.189 30.1335 202.516 30.2727 201.675 30.2727ZM201.947 28.4659C202.754 28.4659 203.436 28.2557 203.993 27.8352C204.55 27.4091 204.973 26.821 205.263 26.071C205.553 25.3153 205.697 24.4432 205.697 23.4545C205.697 22.4773 205.555 21.6222 205.271 20.8892C204.987 20.1506 204.567 19.5767 204.01 19.1676C203.453 18.7528 202.766 18.5455 201.947 18.5455C201.095 18.5455 200.385 18.7642 199.817 19.2017C199.254 19.6335 198.831 20.2216 198.547 20.9659C198.268 21.7045 198.129 22.5341 198.129 23.4545C198.129 24.3864 198.271 25.233 198.555 25.9943C198.845 26.75 199.271 27.3523 199.834 27.8011C200.402 28.2443 201.107 28.4659 201.947 28.4659ZM223.706 30.2727C222.479 30.2727 221.422 29.983 220.536 29.4034C219.649 28.8239 218.967 28.0256 218.49 27.0085C218.013 25.9915 217.774 24.8295 217.774 23.5227C217.774 22.1932 218.018 21.0199 218.507 20.0028C219.001 18.9801 219.689 18.1818 220.57 17.608C221.456 17.0284 222.49 16.7386 223.672 16.7386C224.592 16.7386 225.422 16.9091 226.161 17.25C226.899 17.5909 227.504 18.0682 227.976 18.6818C228.447 19.2955 228.74 20.0114 228.854 20.8295H226.842C226.689 20.233 226.348 19.7045 225.82 19.2443C225.297 18.7784 224.592 18.5455 223.706 18.5455C222.922 18.5455 222.234 18.75 221.643 19.1591C221.058 19.5625 220.601 20.1335 220.271 20.8722C219.947 21.6051 219.786 22.4659 219.786 23.4545C219.786 24.4659 219.945 25.3466 220.263 26.0966C220.587 26.8466 221.041 27.429 221.626 27.8438C222.217 28.2585 222.911 28.4659 223.706 28.4659C224.229 28.4659 224.703 28.375 225.129 28.1932C225.555 28.0114 225.916 27.75 226.212 27.4091C226.507 27.0682 226.717 26.6591 226.842 26.1818H228.854C228.74 26.9545 228.459 27.6506 228.01 28.2699C227.567 28.8835 226.979 29.3722 226.246 29.7358C225.518 30.0938 224.672 30.2727 223.706 30.2727ZM237.112 30.2727C235.93 30.2727 234.893 29.9915 234.001 29.429C233.115 28.8665 232.422 28.0795 231.922 27.0682C231.428 26.0568 231.18 24.875 231.18 23.5227C231.18 22.1591 231.428 20.9687 231.922 19.9517C232.422 18.9347 233.115 18.1449 234.001 17.5824C234.893 17.0199 235.93 16.7386 237.112 16.7386C238.294 16.7386 239.328 17.0199 240.214 17.5824C241.107 18.1449 241.8 18.9347 242.294 19.9517C242.794 20.9687 243.044 22.1591 243.044 23.5227C243.044 24.875 242.794 26.0568 242.294 27.0682C241.8 28.0795 241.107 28.8665 240.214 29.429C239.328 29.9915 238.294 30.2727 237.112 30.2727ZM237.112 28.4659C238.01 28.4659 238.749 28.2358 239.328 27.7756C239.908 27.3153 240.337 26.7102 240.615 25.9602C240.893 25.2102 241.033 24.3977 241.033 23.5227C241.033 22.6477 240.893 21.8324 240.615 21.0767C240.337 20.321 239.908 19.7102 239.328 19.2443C238.749 18.7784 238.01 18.5455 237.112 18.5455C236.214 18.5455 235.476 18.7784 234.896 19.2443C234.317 19.7102 233.888 20.321 233.609 21.0767C233.331 21.8324 233.192 22.6477 233.192 23.5227C233.192 24.3977 233.331 25.2102 233.609 25.9602C233.888 26.7102 234.317 27.3153 234.896 27.7756C235.476 28.2358 236.214 28.4659 237.112 28.4659ZM251.433 30.2727C250.205 30.2727 249.148 29.983 248.262 29.4034C247.376 28.8239 246.694 28.0256 246.217 27.0085C245.739 25.9915 245.501 24.8295 245.501 23.5227C245.501 22.1932 245.745 21.0199 246.234 20.0028C246.728 18.9801 247.415 18.1818 248.296 17.608C249.183 17.0284 250.217 16.7386 251.398 16.7386C252.319 16.7386 253.148 16.9091 253.887 17.25C254.626 17.5909 255.231 18.0682 255.702 18.6818C256.174 19.2955 256.467 20.0114 256.58 20.8295H254.569C254.415 20.233 254.075 19.7045 253.546 19.2443C253.023 18.7784 252.319 18.5455 251.433 18.5455C250.648 18.5455 249.961 18.75 249.37 19.1591C248.785 19.5625 248.327 20.1335 247.998 20.8722C247.674 21.6051 247.512 22.4659 247.512 23.4545C247.512 24.4659 247.671 25.3466 247.989 26.0966C248.313 26.8466 248.768 27.429 249.353 27.8438C249.944 28.2585 250.637 28.4659 251.433 28.4659C251.955 28.4659 252.43 28.375 252.856 28.1932C253.282 28.0114 253.643 27.75 253.938 27.4091C254.234 27.0682 254.444 26.6591 254.569 26.1818H256.58C256.467 26.9545 256.185 27.6506 255.737 28.2699C255.293 28.8835 254.705 29.3722 253.972 29.7358C253.245 30.0938 252.398 30.2727 251.433 30.2727ZM261.396 25.2273L261.362 22.7386H261.771L267.498 16.9091H269.987L263.884 23.0795H263.714L261.396 25.2273ZM259.521 30V12.5455H261.532V30H259.521ZM267.839 30L262.725 23.5227L264.157 22.125L270.396 30H267.839ZM278.268 16.9091V18.6136H271.484V16.9091H278.268ZM273.462 13.7727H275.473V26.25C275.473 26.8182 275.555 27.2443 275.72 27.5284C275.891 27.8068 276.107 27.9943 276.368 28.0909C276.635 28.1818 276.916 28.2273 277.212 28.2273C277.433 28.2273 277.615 28.2159 277.757 28.1932C277.899 28.1648 278.013 28.142 278.098 28.125L278.507 29.9318C278.371 29.983 278.18 30.0341 277.936 30.0852C277.692 30.142 277.382 30.1705 277.007 30.1705C276.439 30.1705 275.882 30.0483 275.337 29.804C274.797 29.5597 274.348 29.1875 273.99 28.6875C273.638 28.1875 273.462 27.5568 273.462 26.7955V13.7727ZM285.146 30.3068C284.317 30.3068 283.564 30.1506 282.888 29.8381C282.212 29.5199 281.675 29.0625 281.277 28.4659C280.879 27.8636 280.68 27.1364 280.68 26.2841C280.68 25.5341 280.828 24.9261 281.124 24.4602C281.419 23.9886 281.814 23.6193 282.308 23.3523C282.803 23.0852 283.348 22.8864 283.945 22.7557C284.547 22.6193 285.152 22.5114 285.76 22.4318C286.555 22.3295 287.2 22.2528 287.695 22.2017C288.195 22.1449 288.558 22.0511 288.786 21.9205C289.018 21.7898 289.135 21.5625 289.135 21.2386V21.1705C289.135 20.3295 288.905 19.6761 288.445 19.2102C287.99 18.7443 287.3 18.5114 286.374 18.5114C285.413 18.5114 284.661 18.7216 284.115 19.142C283.57 19.5625 283.186 20.0114 282.964 20.4886L281.055 19.8068C281.396 19.0114 281.851 18.392 282.419 17.9489C282.993 17.5 283.618 17.1875 284.294 17.0114C284.976 16.8295 285.646 16.7386 286.305 16.7386C286.726 16.7386 287.209 16.7898 287.754 16.892C288.305 16.9886 288.837 17.1903 289.348 17.4972C289.865 17.804 290.294 18.267 290.635 18.8864C290.976 19.5057 291.146 20.3352 291.146 21.375V30H289.135V28.2273H289.033C288.896 28.5114 288.669 28.8153 288.351 29.1392C288.033 29.4631 287.609 29.7386 287.081 29.9659C286.553 30.1932 285.908 30.3068 285.146 30.3068ZM285.453 28.5C286.249 28.5 286.919 28.3438 287.464 28.0312C288.016 27.7188 288.43 27.3153 288.709 26.821C288.993 26.3267 289.135 25.8068 289.135 25.2614V23.4205C289.05 23.5227 288.862 23.6165 288.572 23.7017C288.288 23.7812 287.959 23.8523 287.584 23.9148C287.214 23.9716 286.854 24.0227 286.501 24.0682C286.155 24.108 285.874 24.142 285.658 24.1705C285.135 24.2386 284.646 24.3494 284.192 24.5028C283.743 24.6506 283.379 24.875 283.101 25.1761C282.828 25.4716 282.692 25.875 282.692 26.3864C282.692 27.0852 282.95 27.6136 283.467 27.9716C283.99 28.3239 284.652 28.5 285.453 28.5ZM294.817 30V16.9091H296.829V30H294.817ZM295.84 14.7273C295.448 14.7273 295.11 14.5938 294.826 14.3267C294.548 14.0597 294.408 13.7386 294.408 13.3636C294.408 12.9886 294.548 12.6676 294.826 12.4006C295.11 12.1335 295.448 12 295.84 12C296.232 12 296.567 12.1335 296.846 12.4006C297.13 12.6676 297.272 12.9886 297.272 13.3636C297.272 13.7386 297.13 14.0597 296.846 14.3267C296.567 14.5938 296.232 14.7273 295.84 14.7273ZM302.524 12.5455V30H300.513V12.5455H302.524ZM307.674 30.1364C307.254 30.1364 306.893 29.9858 306.592 29.6847C306.29 29.3835 306.14 29.0227 306.14 28.6023C306.14 28.1818 306.29 27.821 306.592 27.5199C306.893 27.2187 307.254 27.0682 307.674 27.0682C308.094 27.0682 308.455 27.2187 308.756 27.5199C309.058 27.821 309.208 28.1818 309.208 28.6023C309.208 28.8807 309.137 29.1364 308.995 29.3693C308.859 29.6023 308.674 29.7898 308.441 29.9318C308.214 30.0682 307.958 30.1364 307.674 30.1364ZM307.674 20.4205C307.254 20.4205 306.893 20.2699 306.592 19.9688C306.29 19.6676 306.14 19.3068 306.14 18.8864C306.14 18.4659 306.29 18.1051 306.592 17.804C306.893 17.5028 307.254 17.3523 307.674 17.3523C308.094 17.3523 308.455 17.5028 308.756 17.804C309.058 18.1051 309.208 18.4659 309.208 18.8864C309.208 19.1648 309.137 19.4205 308.995 19.6534C308.859 19.8864 308.674 20.0739 308.441 20.2159C308.214 20.3523 307.958 20.4205 307.674 20.4205ZM328.84 19.8409L327.033 20.3523C326.92 20.0511 326.752 19.7585 326.531 19.4744C326.315 19.1847 326.019 18.946 325.644 18.7585C325.269 18.571 324.789 18.4773 324.204 18.4773C323.403 18.4773 322.735 18.6619 322.201 19.0312C321.673 19.3949 321.408 19.858 321.408 20.4205C321.408 20.9205 321.59 21.3153 321.954 21.6051C322.317 21.8949 322.886 22.1364 323.658 22.3295L325.602 22.8068C326.772 23.0909 327.644 23.5256 328.218 24.1108C328.792 24.6903 329.079 25.4375 329.079 26.3523C329.079 27.1023 328.863 27.7727 328.431 28.3636C328.005 28.9545 327.408 29.4205 326.641 29.7614C325.874 30.1023 324.982 30.2727 323.965 30.2727C322.63 30.2727 321.525 29.983 320.65 29.4034C319.775 28.8239 319.221 27.9773 318.988 26.8636L320.897 26.3864C321.079 27.0909 321.423 27.6193 321.928 27.9716C322.44 28.3239 323.107 28.5 323.931 28.5C324.869 28.5 325.613 28.3011 326.164 27.9034C326.721 27.5 326.999 27.017 326.999 26.4545C326.999 26 326.84 25.6193 326.522 25.3125C326.204 25 325.715 24.767 325.056 24.6136L322.874 24.1023C321.675 23.8182 320.795 23.3778 320.232 22.7812C319.675 22.179 319.397 21.4261 319.397 20.5227C319.397 19.7841 319.604 19.1307 320.019 18.5625C320.44 17.9943 321.011 17.5483 321.732 17.2244C322.46 16.9006 323.283 16.7386 324.204 16.7386C325.499 16.7386 326.516 17.0227 327.255 17.5909C327.999 18.1591 328.528 18.9091 328.84 19.8409ZM334.118 22.125V30H332.107V12.5455H334.118V18.9545H334.288C334.595 18.2784 335.055 17.7415 335.669 17.3438C336.288 16.9403 337.112 16.7386 338.141 16.7386C339.033 16.7386 339.814 16.9176 340.484 17.2756C341.155 17.6278 341.675 18.1705 342.044 18.9034C342.419 19.6307 342.607 20.5568 342.607 21.6818V30H340.595V21.8182C340.595 20.7784 340.325 19.9744 339.786 19.4062C339.251 18.8324 338.51 18.5455 337.561 18.5455C336.902 18.5455 336.311 18.6847 335.788 18.9631C335.271 19.2415 334.862 19.6477 334.561 20.1818C334.266 20.7159 334.118 21.3636 334.118 22.125ZM350.138 30.3068C349.309 30.3068 348.556 30.1506 347.88 29.8381C347.204 29.5199 346.667 29.0625 346.269 28.4659C345.871 27.8636 345.673 27.1364 345.673 26.2841C345.673 25.5341 345.82 24.9261 346.116 24.4602C346.411 23.9886 346.806 23.6193 347.3 23.3523C347.795 23.0852 348.34 22.8864 348.937 22.7557C349.539 22.6193 350.144 22.5114 350.752 22.4318C351.548 22.3295 352.192 22.2528 352.687 22.2017C353.187 22.1449 353.55 22.0511 353.778 21.9205C354.011 21.7898 354.127 21.5625 354.127 21.2386V21.1705C354.127 20.3295 353.897 19.6761 353.437 19.2102C352.982 18.7443 352.292 18.5114 351.366 18.5114C350.406 18.5114 349.653 18.7216 349.107 19.142C348.562 19.5625 348.178 20.0114 347.957 20.4886L346.048 19.8068C346.388 19.0114 346.843 18.392 347.411 17.9489C347.985 17.5 348.61 17.1875 349.286 17.0114C349.968 16.8295 350.638 16.7386 351.298 16.7386C351.718 16.7386 352.201 16.7898 352.746 16.892C353.298 16.9886 353.829 17.1903 354.34 17.4972C354.857 17.804 355.286 18.267 355.627 18.8864C355.968 19.5057 356.138 20.3352 356.138 21.375V30H354.127V28.2273H354.025C353.888 28.5114 353.661 28.8153 353.343 29.1392C353.025 29.4631 352.602 29.7386 352.073 29.9659C351.545 30.1932 350.9 30.3068 350.138 30.3068ZM350.445 28.5C351.241 28.5 351.911 28.3438 352.457 28.0312C353.008 27.7188 353.423 27.3153 353.701 26.821C353.985 26.3267 354.127 25.8068 354.127 25.2614V23.4205C354.042 23.5227 353.854 23.6165 353.565 23.7017C353.281 23.7812 352.951 23.8523 352.576 23.9148C352.207 23.9716 351.846 24.0227 351.494 24.0682C351.147 24.108 350.866 24.142 350.65 24.1705C350.127 24.2386 349.638 24.3494 349.184 24.5028C348.735 24.6506 348.371 24.875 348.093 25.1761C347.82 25.4716 347.684 25.875 347.684 26.3864C347.684 27.0852 347.942 27.6136 348.46 27.9716C348.982 28.3239 349.644 28.5 350.445 28.5ZM361.685 25.2273L361.651 22.7386H362.06L367.787 16.9091H370.276L364.173 23.0795H364.003L361.685 25.2273ZM359.81 30V12.5455H361.821V30H359.81ZM368.128 30L363.014 23.5227L364.446 22.125L370.685 30H368.128ZM377.814 30.2727C376.553 30.2727 375.464 29.9943 374.55 29.4375C373.641 28.875 372.939 28.0909 372.445 27.0852C371.956 26.0739 371.712 24.8977 371.712 23.5568C371.712 22.2159 371.956 21.0341 372.445 20.0114C372.939 18.983 373.626 18.1818 374.507 17.608C375.393 17.0284 376.428 16.7386 377.609 16.7386C378.291 16.7386 378.964 16.8523 379.629 17.0795C380.294 17.3068 380.899 17.6761 381.445 18.1875C381.99 18.6932 382.425 19.3636 382.749 20.1989C383.072 21.0341 383.234 22.0625 383.234 23.2841V24.1364H373.143V22.3977H381.189C381.189 21.6591 381.041 21 380.746 20.4205C380.456 19.8409 380.041 19.3835 379.501 19.0483C378.967 18.7131 378.337 18.5455 377.609 18.5455C376.808 18.5455 376.115 18.7443 375.53 19.142C374.95 19.5341 374.504 20.0455 374.192 20.6761C373.879 21.3068 373.723 21.983 373.723 22.7045V23.8636C373.723 24.8523 373.893 25.6903 374.234 26.3778C374.581 27.0597 375.061 27.5795 375.675 27.9375C376.288 28.2898 377.001 28.4659 377.814 28.4659C378.342 28.4659 378.82 28.392 379.246 28.2443C379.678 28.0909 380.05 27.8636 380.362 27.5625C380.675 27.2557 380.916 26.875 381.087 26.4205L383.03 26.9659C382.825 27.625 382.482 28.2045 381.999 28.7045C381.516 29.1989 380.919 29.5852 380.209 29.8636C379.499 30.1364 378.7 30.2727 377.814 30.2727ZM388.305 22.125V30H386.294V16.9091H388.237V18.9545H388.408C388.714 18.2898 389.18 17.7557 389.805 17.3523C390.43 16.9432 391.237 16.7386 392.226 16.7386C393.112 16.7386 393.888 16.9205 394.553 17.2841C395.217 17.642 395.734 18.1875 396.104 18.9205C396.473 19.6477 396.658 20.5682 396.658 21.6818V30H394.646V21.8182C394.646 20.7898 394.379 19.9886 393.845 19.4148C393.311 18.8352 392.578 18.5455 391.646 18.5455C391.004 18.5455 390.43 18.6847 389.925 18.9631C389.425 19.2415 389.03 19.6477 388.74 20.1818C388.45 20.7159 388.305 21.3636 388.305 22.125ZM403.333 27.6136L403.197 28.5341C403.1 29.1818 402.952 29.875 402.754 30.6136C402.56 31.3523 402.359 32.0483 402.148 32.7017C401.938 33.3551 401.765 33.875 401.629 34.2614H400.094C400.168 33.8977 400.265 33.4176 400.384 32.821C400.504 32.2244 400.623 31.5568 400.742 30.8182C400.867 30.0852 400.969 29.3352 401.049 28.5682L401.151 27.6136H403.333ZM415.821 12.5455V30H413.81V12.5455H415.821ZM423.357 30.3068C422.528 30.3068 421.775 30.1506 421.099 29.8381C420.423 29.5199 419.886 29.0625 419.488 28.4659C419.09 27.8636 418.891 27.1364 418.891 26.2841C418.891 25.5341 419.039 24.9261 419.335 24.4602C419.63 23.9886 420.025 23.6193 420.519 23.3523C421.013 23.0852 421.559 22.8864 422.156 22.7557C422.758 22.6193 423.363 22.5114 423.971 22.4318C424.766 22.3295 425.411 22.2528 425.906 22.2017C426.406 22.1449 426.769 22.0511 426.996 21.9205C427.229 21.7898 427.346 21.5625 427.346 21.2386V21.1705C427.346 20.3295 427.116 19.6761 426.656 19.2102C426.201 18.7443 425.511 18.5114 424.585 18.5114C423.624 18.5114 422.871 18.7216 422.326 19.142C421.781 19.5625 421.397 20.0114 421.175 20.4886L419.266 19.8068C419.607 19.0114 420.062 18.392 420.63 17.9489C421.204 17.5 421.829 17.1875 422.505 17.0114C423.187 16.8295 423.857 16.7386 424.516 16.7386C424.937 16.7386 425.42 16.7898 425.965 16.892C426.516 16.9886 427.048 17.1903 427.559 17.4972C428.076 17.804 428.505 18.267 428.846 18.8864C429.187 19.5057 429.357 20.3352 429.357 21.375V30H427.346V28.2273H427.244C427.107 28.5114 426.88 28.8153 426.562 29.1392C426.244 29.4631 425.82 29.7386 425.292 29.9659C424.763 30.1932 424.119 30.3068 423.357 30.3068ZM423.664 28.5C424.46 28.5 425.13 28.3438 425.675 28.0312C426.227 27.7188 426.641 27.3153 426.92 26.821C427.204 26.3267 427.346 25.8068 427.346 25.2614V23.4205C427.261 23.5227 427.073 23.6165 426.783 23.7017C426.499 23.7812 426.17 23.8523 425.795 23.9148C425.425 23.9716 425.065 24.0227 424.712 24.0682C424.366 24.108 424.085 24.142 423.869 24.1705C423.346 24.2386 422.857 24.3494 422.403 24.5028C421.954 24.6506 421.59 24.875 421.312 25.1761C421.039 25.4716 420.903 25.875 420.903 26.3864C420.903 27.0852 421.161 27.6136 421.678 27.9716C422.201 28.3239 422.863 28.5 423.664 28.5ZM433.855 34.9091C433.514 34.9091 433.21 34.8807 432.943 34.8239C432.676 34.7727 432.491 34.7216 432.389 34.6705L432.901 32.8977C433.389 33.0227 433.821 33.0682 434.196 33.0341C434.571 33 434.903 32.8324 435.193 32.5312C435.489 32.2358 435.759 31.7557 436.003 31.0909L436.378 30.0682L431.537 16.9091H433.719L437.332 27.3409H437.469L441.082 16.9091H443.264L437.707 31.9091C437.457 32.5852 437.148 33.1449 436.778 33.5881C436.409 34.0369 435.98 34.3693 435.491 34.5852C435.009 34.8011 434.463 34.9091 433.855 34.9091ZM450.939 30.2727C449.678 30.2727 448.589 29.9943 447.675 29.4375C446.766 28.875 446.064 28.0909 445.57 27.0852C445.081 26.0739 444.837 24.8977 444.837 23.5568C444.837 22.2159 445.081 21.0341 445.57 20.0114C446.064 18.983 446.751 18.1818 447.632 17.608C448.518 17.0284 449.553 16.7386 450.734 16.7386C451.416 16.7386 452.089 16.8523 452.754 17.0795C453.419 17.3068 454.024 17.6761 454.57 18.1875C455.115 18.6932 455.55 19.3636 455.874 20.1989C456.197 21.0341 456.359 22.0625 456.359 23.2841V24.1364H446.268V22.3977H454.314C454.314 21.6591 454.166 21 453.871 20.4205C453.581 19.8409 453.166 19.3835 452.626 19.0483C452.092 18.7131 451.462 18.5455 450.734 18.5455C449.933 18.5455 449.24 18.7443 448.655 19.142C448.075 19.5341 447.629 20.0455 447.317 20.6761C447.004 21.3068 446.848 21.983 446.848 22.7045V23.8636C446.848 24.8523 447.018 25.6903 447.359 26.3778C447.706 27.0597 448.186 27.5795 448.8 27.9375C449.413 28.2898 450.126 28.4659 450.939 28.4659C451.467 28.4659 451.945 28.392 452.371 28.2443C452.803 28.0909 453.175 27.8636 453.487 27.5625C453.8 27.2557 454.041 26.875 454.212 26.4205L456.155 26.9659C455.95 27.625 455.607 28.2045 455.124 28.7045C454.641 29.1989 454.044 29.5852 453.334 29.8636C452.624 30.1364 451.825 30.2727 450.939 30.2727ZM459.419 30V16.9091H461.362V18.8864H461.499C461.737 18.2386 462.169 17.7131 462.794 17.3097C463.419 16.9062 464.124 16.7045 464.908 16.7045C465.055 16.7045 465.24 16.7074 465.462 16.7131C465.683 16.7187 465.851 16.7273 465.964 16.7386V18.7841C465.896 18.767 465.74 18.7415 465.496 18.7074C465.257 18.6676 465.004 18.6477 464.737 18.6477C464.101 18.6477 463.533 18.7812 463.033 19.0483C462.538 19.3097 462.146 19.6733 461.857 20.1392C461.572 20.5994 461.43 21.125 461.43 21.7159V30H459.419ZM473.439 30.2727C472.178 30.2727 471.089 29.9943 470.175 29.4375C469.266 28.875 468.564 28.0909 468.07 27.0852C467.581 26.0739 467.337 24.8977 467.337 23.5568C467.337 22.2159 467.581 21.0341 468.07 20.0114C468.564 18.983 469.251 18.1818 470.132 17.608C471.018 17.0284 472.053 16.7386 473.234 16.7386C473.916 16.7386 474.589 16.8523 475.254 17.0795C475.919 17.3068 476.524 17.6761 477.07 18.1875C477.615 18.6932 478.05 19.3636 478.374 20.1989C478.697 21.0341 478.859 22.0625 478.859 23.2841V24.1364H468.768V22.3977H476.814C476.814 21.6591 476.666 21 476.371 20.4205C476.081 19.8409 475.666 19.3835 475.126 19.0483C474.592 18.7131 473.962 18.5455 473.234 18.5455C472.433 18.5455 471.74 18.7443 471.155 19.142C470.575 19.5341 470.129 20.0455 469.817 20.6761C469.504 21.3068 469.348 21.983 469.348 22.7045V23.8636C469.348 24.8523 469.518 25.6903 469.859 26.3778C470.206 27.0597 470.686 27.5795 471.3 27.9375C471.913 28.2898 472.626 28.4659 473.439 28.4659C473.967 28.4659 474.445 28.392 474.871 28.2443C475.303 28.0909 475.675 27.8636 475.987 27.5625C476.3 27.2557 476.541 26.875 476.712 26.4205L478.655 26.9659C478.45 27.625 478.107 28.2045 477.624 28.7045C477.141 29.1989 476.544 29.5852 475.834 29.8636C475.124 30.1364 474.325 30.2727 473.439 30.2727ZM486.862 30.2727C485.771 30.2727 484.808 29.9972 483.973 29.446C483.138 28.8892 482.484 28.1051 482.013 27.0938C481.541 26.0767 481.305 24.875 481.305 23.4886C481.305 22.1136 481.541 20.9205 482.013 19.9091C482.484 18.8977 483.141 18.1165 483.982 17.5653C484.822 17.0142 485.794 16.7386 486.896 16.7386C487.749 16.7386 488.422 16.8807 488.916 17.1648C489.416 17.4432 489.797 17.7614 490.058 18.1193C490.325 18.4716 490.533 18.7614 490.68 18.9886H490.851V12.5455H492.862V30H490.919V27.9886H490.68C490.533 28.2273 490.322 28.5284 490.05 28.892C489.777 29.25 489.388 29.571 488.882 29.8551C488.376 30.1335 487.703 30.2727 486.862 30.2727ZM487.135 28.4659C487.942 28.4659 488.624 28.2557 489.18 27.8352C489.737 27.4091 490.161 26.821 490.45 26.071C490.74 25.3153 490.885 24.4432 490.885 23.4545C490.885 22.4773 490.743 21.6222 490.459 20.8892C490.175 20.1506 489.754 19.5767 489.197 19.1676C488.641 18.7528 487.953 18.5455 487.135 18.5455C486.283 18.5455 485.572 18.7642 485.004 19.2017C484.442 19.6335 484.018 20.2216 483.734 20.9659C483.456 21.7045 483.317 22.5341 483.317 23.4545C483.317 24.3864 483.459 25.233 483.743 25.9943C484.033 26.75 484.459 27.3523 485.021 27.8011C485.589 28.2443 486.294 28.4659 487.135 28.4659ZM499.825 27.6136L499.689 28.5341C499.592 29.1818 499.445 29.875 499.246 30.6136C499.053 31.3523 498.851 32.0483 498.641 32.7017C498.43 33.3551 498.257 33.875 498.121 34.2614H496.587C496.661 33.8977 496.757 33.4176 496.876 32.821C496.996 32.2244 497.115 31.5568 497.234 30.8182C497.359 30.0852 497.462 29.3352 497.541 28.5682L497.643 27.6136H499.825ZM514.154 30.3068C513.325 30.3068 512.572 30.1506 511.896 29.8381C511.219 29.5199 510.683 29.0625 510.285 28.4659C509.887 27.8636 509.688 27.1364 509.688 26.2841C509.688 25.5341 509.836 24.9261 510.131 24.4602C510.427 23.9886 510.822 23.6193 511.316 23.3523C511.81 23.0852 512.356 22.8864 512.952 22.7557C513.555 22.6193 514.16 22.5114 514.768 22.4318C515.563 22.3295 516.208 22.2528 516.702 22.2017C517.202 22.1449 517.566 22.0511 517.793 21.9205C518.026 21.7898 518.143 21.5625 518.143 21.2386V21.1705C518.143 20.3295 517.913 19.6761 517.452 19.2102C516.998 18.7443 516.308 18.5114 515.381 18.5114C514.421 18.5114 513.668 18.7216 513.123 19.142C512.577 19.5625 512.194 20.0114 511.972 20.4886L510.063 19.8068C510.404 19.0114 510.859 18.392 511.427 17.9489C512.001 17.5 512.626 17.1875 513.302 17.0114C513.984 16.8295 514.654 16.7386 515.313 16.7386C515.734 16.7386 516.217 16.7898 516.762 16.892C517.313 16.9886 517.844 17.1903 518.356 17.4972C518.873 17.804 519.302 18.267 519.643 18.8864C519.984 19.5057 520.154 20.3352 520.154 21.375V30H518.143V28.2273H518.04C517.904 28.5114 517.677 28.8153 517.359 29.1392C517.04 29.4631 516.617 29.7386 516.089 29.9659C515.56 30.1932 514.915 30.3068 514.154 30.3068ZM514.461 28.5C515.256 28.5 515.927 28.3438 516.472 28.0312C517.023 27.7188 517.438 27.3153 517.717 26.821C518.001 26.3267 518.143 25.8068 518.143 25.2614V23.4205C518.058 23.5227 517.87 23.6165 517.58 23.7017C517.296 23.7812 516.967 23.8523 516.592 23.9148C516.222 23.9716 515.862 24.0227 515.509 24.0682C515.163 24.108 514.881 24.142 514.665 24.1705C514.143 24.2386 513.654 24.3494 513.2 24.5028C512.751 24.6506 512.387 24.875 512.109 25.1761C511.836 25.4716 511.7 25.875 511.7 26.3864C511.7 27.0852 511.958 27.6136 512.475 27.9716C512.998 28.3239 513.66 28.5 514.461 28.5ZM525.837 22.125V30H523.825V16.9091H525.768V18.9545H525.939C526.246 18.2898 526.712 17.7557 527.337 17.3523C527.962 16.9432 528.768 16.7386 529.757 16.7386C530.643 16.7386 531.419 16.9205 532.084 17.2841C532.749 17.642 533.266 18.1875 533.635 18.9205C534.004 19.6477 534.189 20.5682 534.189 21.6818V30H532.178V21.8182C532.178 20.7898 531.911 19.9886 531.376 19.4148C530.842 18.8352 530.109 18.5455 529.178 18.5455C528.536 18.5455 527.962 18.6847 527.456 18.9631C526.956 19.2415 526.561 19.6477 526.271 20.1818C525.982 20.7159 525.837 21.3636 525.837 22.125ZM542.808 30.2727C541.717 30.2727 540.754 29.9972 539.918 29.446C539.083 28.8892 538.43 28.1051 537.958 27.0938C537.487 26.0767 537.251 24.875 537.251 23.4886C537.251 22.1136 537.487 20.9205 537.958 19.9091C538.43 18.8977 539.086 18.1165 539.927 17.5653C540.768 17.0142 541.739 16.7386 542.842 16.7386C543.694 16.7386 544.367 16.8807 544.862 17.1648C545.362 17.4432 545.742 17.7614 546.004 18.1193C546.271 18.4716 546.478 18.7614 546.626 18.9886H546.796V12.5455H548.808V30H546.864V27.9886H546.626C546.478 28.2273 546.268 28.5284 545.995 28.892C545.722 29.25 545.333 29.571 544.827 29.8551C544.322 30.1335 543.648 30.2727 542.808 30.2727ZM543.08 28.4659C543.887 28.4659 544.569 28.2557 545.126 27.8352C545.683 27.4091 546.106 26.821 546.396 26.071C546.685 25.3153 546.83 24.4432 546.83 23.4545C546.83 22.4773 546.688 21.6222 546.404 20.8892C546.12 20.1506 545.7 19.5767 545.143 19.1676C544.586 18.7528 543.898 18.5455 543.08 18.5455C542.228 18.5455 541.518 18.7642 540.95 19.2017C540.387 19.6335 539.964 20.2216 539.68 20.9659C539.401 21.7045 539.262 22.5341 539.262 23.4545C539.262 24.3864 539.404 25.233 539.688 25.9943C539.978 26.75 540.404 27.3523 540.967 27.8011C541.535 28.2443 542.239 28.4659 543.08 28.4659ZM565.35 16.9091V18.6136H558.293V16.9091H565.35ZM560.407 30V15.1023C560.407 14.3523 560.583 13.7273 560.935 13.2273C561.288 12.7273 561.745 12.3523 562.308 12.1023C562.87 11.8523 563.464 11.7273 564.089 11.7273C564.583 11.7273 564.987 11.767 565.299 11.8466C565.612 11.9261 565.844 12 565.998 12.0682L565.418 13.8068C565.316 13.7727 565.174 13.7301 564.992 13.679C564.816 13.6278 564.583 13.6023 564.293 13.6023C563.629 13.6023 563.148 13.7699 562.853 14.1051C562.563 14.4403 562.418 14.9318 562.418 15.5795V30H560.407ZM568.169 30V16.9091H570.18V30H568.169ZM569.192 14.7273C568.8 14.7273 568.462 14.5938 568.178 14.3267C567.899 14.0597 567.76 13.7386 567.76 13.3636C567.76 12.9886 567.899 12.6676 568.178 12.4006C568.462 12.1335 568.8 12 569.192 12C569.584 12 569.919 12.1335 570.197 12.4006C570.482 12.6676 570.624 12.9886 570.624 13.3636C570.624 13.7386 570.482 14.0597 570.197 14.3267C569.919 14.5938 569.584 14.7273 569.192 14.7273ZM579.148 35.1818C578.177 35.1818 577.342 35.0568 576.643 34.8068C575.944 34.5625 575.362 34.2386 574.896 33.8352C574.435 33.4375 574.069 33.0114 573.796 32.5568L575.398 31.4318C575.58 31.6705 575.81 31.9432 576.089 32.25C576.367 32.5625 576.748 32.8324 577.231 33.0597C577.719 33.2926 578.359 33.4091 579.148 33.4091C580.205 33.4091 581.077 33.1534 581.765 32.642C582.452 32.1307 582.796 31.3295 582.796 30.2386V27.5795H582.626C582.478 27.8182 582.268 28.1136 581.995 28.4659C581.728 28.8125 581.342 29.1222 580.836 29.3949C580.336 29.6619 579.66 29.7955 578.808 29.7955C577.751 29.7955 576.802 29.5455 575.961 29.0455C575.126 28.5455 574.464 27.8182 573.975 26.8636C573.492 25.9091 573.251 24.75 573.251 23.3864C573.251 22.0455 573.487 20.8778 573.958 19.8835C574.43 18.8835 575.086 18.1108 575.927 17.5653C576.768 17.0142 577.739 16.7386 578.842 16.7386C579.694 16.7386 580.37 16.8807 580.87 17.1648C581.376 17.4432 581.762 17.7614 582.029 18.1193C582.302 18.4716 582.512 18.7614 582.66 18.9886H582.864V16.9091H584.808V30.375C584.808 31.5 584.552 32.4148 584.04 33.1193C583.535 33.8295 582.853 34.3494 581.995 34.679C581.143 35.0142 580.194 35.1818 579.148 35.1818ZM579.08 27.9886C579.887 27.9886 580.569 27.804 581.126 27.4347C581.683 27.0653 582.106 26.5341 582.396 25.8409C582.685 25.1477 582.83 24.3182 582.83 23.3523C582.83 22.4091 582.688 21.5767 582.404 20.8551C582.12 20.1335 581.7 19.5682 581.143 19.1591C580.586 18.75 579.898 18.5455 579.08 18.5455C578.228 18.5455 577.518 18.7614 576.95 19.1932C576.387 19.625 575.964 20.2045 575.68 20.9318C575.401 21.6591 575.262 22.4659 575.262 23.3523C575.262 24.2614 575.404 25.0653 575.688 25.7642C575.978 26.4574 576.404 27.0028 576.967 27.4006C577.535 27.7926 578.239 27.9886 579.08 27.9886ZM596.739 24.6477V16.9091H598.751V30H596.739V27.7841H596.603C596.296 28.4489 595.819 29.0142 595.171 29.4801C594.523 29.9403 593.705 30.1705 592.717 30.1705C591.898 30.1705 591.171 29.9915 590.535 29.6335C589.898 29.2699 589.398 28.7244 589.035 27.9972C588.671 27.2642 588.489 26.3409 588.489 25.2273V16.9091H590.501V25.0909C590.501 26.0455 590.768 26.8068 591.302 27.375C591.842 27.9432 592.529 28.2273 593.364 28.2273C593.864 28.2273 594.373 28.0994 594.89 27.8438C595.413 27.5881 595.85 27.196 596.202 26.6676C596.56 26.1392 596.739 25.4659 596.739 24.6477ZM602.435 30V16.9091H604.378V18.8864H604.514C604.753 18.2386 605.185 17.7131 605.81 17.3097C606.435 16.9062 607.139 16.7045 607.923 16.7045C608.071 16.7045 608.256 16.7074 608.477 16.7131C608.699 16.7187 608.866 16.7273 608.98 16.7386V18.7841C608.912 18.767 608.756 18.7415 608.511 18.7074C608.273 18.6676 608.02 18.6477 607.753 18.6477C607.116 18.6477 606.548 18.7812 606.048 19.0483C605.554 19.3097 605.162 19.6733 604.872 20.1392C604.588 20.5994 604.446 21.125 604.446 21.7159V30H602.435ZM611.364 30V16.9091H613.376V30H611.364ZM612.387 14.7273C611.995 14.7273 611.657 14.5938 611.373 14.3267C611.094 14.0597 610.955 13.7386 610.955 13.3636C610.955 12.9886 611.094 12.6676 611.373 12.4006C611.657 12.1335 611.995 12 612.387 12C612.779 12 613.114 12.1335 613.393 12.4006C613.677 12.6676 613.819 12.9886 613.819 13.3636C613.819 13.7386 613.677 14.0597 613.393 14.3267C613.114 14.5938 612.779 14.7273 612.387 14.7273ZM619.071 22.125V30H617.06V16.9091H619.003V18.9545H619.173C619.48 18.2898 619.946 17.7557 620.571 17.3523C621.196 16.9432 622.003 16.7386 622.991 16.7386C623.878 16.7386 624.653 16.9205 625.318 17.2841C625.983 17.642 626.5 18.1875 626.869 18.9205C627.239 19.6477 627.423 20.5682 627.423 21.6818V30H625.412V21.8182C625.412 20.7898 625.145 19.9886 624.611 19.4148C624.077 18.8352 623.344 18.5455 622.412 18.5455C621.77 18.5455 621.196 18.6847 620.69 18.9631C620.19 19.2415 619.795 19.6477 619.506 20.1818C619.216 20.7159 619.071 21.3636 619.071 22.125ZM636.383 35.1818C635.411 35.1818 634.576 35.0568 633.877 34.8068C633.178 34.5625 632.596 34.2386 632.13 33.8352C631.67 33.4375 631.303 33.0114 631.031 32.5568L632.633 31.4318C632.815 31.6705 633.045 31.9432 633.323 32.25C633.602 32.5625 633.982 32.8324 634.465 33.0597C634.954 33.2926 635.593 33.4091 636.383 33.4091C637.44 33.4091 638.312 33.1534 638.999 32.642C639.687 32.1307 640.031 31.3295 640.031 30.2386V27.5795H639.86C639.712 27.8182 639.502 28.1136 639.229 28.4659C638.962 28.8125 638.576 29.1222 638.07 29.3949C637.57 29.6619 636.894 29.7955 636.042 29.7955C634.985 29.7955 634.036 29.5455 633.195 29.0455C632.36 28.5455 631.698 27.8182 631.21 26.8636C630.727 25.9091 630.485 24.75 630.485 23.3864C630.485 22.0455 630.721 20.8778 631.192 19.8835C631.664 18.8835 632.32 18.1108 633.161 17.5653C634.002 17.0142 634.974 16.7386 636.076 16.7386C636.928 16.7386 637.604 16.8807 638.104 17.1648C638.61 17.4432 638.996 17.7614 639.263 18.1193C639.536 18.4716 639.746 18.7614 639.894 18.9886H640.099V16.9091H642.042V30.375C642.042 31.5 641.786 32.4148 641.275 33.1193C640.769 33.8295 640.087 34.3494 639.229 34.679C638.377 35.0142 637.428 35.1818 636.383 35.1818ZM636.315 27.9886C637.121 27.9886 637.803 27.804 638.36 27.4347C638.917 27.0653 639.34 26.5341 639.63 25.8409C639.92 25.1477 640.065 24.3182 640.065 23.3523C640.065 22.4091 639.923 21.5767 639.638 20.8551C639.354 20.1335 638.934 19.5682 638.377 19.1591C637.82 18.75 637.133 18.5455 636.315 18.5455C635.462 18.5455 634.752 18.7614 634.184 19.1932C633.621 19.625 633.198 20.2045 632.914 20.9318C632.636 21.6591 632.496 22.4659 632.496 23.3523C632.496 24.2614 632.638 25.0653 632.923 25.7642C633.212 26.4574 633.638 27.0028 634.201 27.4006C634.769 27.7926 635.474 27.9886 636.315 27.9886ZM657.792 30.2727C656.61 30.2727 655.573 29.9915 654.681 29.429C653.795 28.8665 653.102 28.0795 652.602 27.0682C652.107 26.0568 651.86 24.875 651.86 23.5227C651.86 22.1591 652.107 20.9687 652.602 19.9517C653.102 18.9347 653.795 18.1449 654.681 17.5824C655.573 17.0199 656.61 16.7386 657.792 16.7386C658.974 16.7386 660.008 17.0199 660.894 17.5824C661.786 18.1449 662.479 18.9347 662.974 19.9517C663.474 20.9687 663.724 22.1591 663.724 23.5227C663.724 24.875 663.474 26.0568 662.974 27.0682C662.479 28.0795 661.786 28.8665 660.894 29.429C660.008 29.9915 658.974 30.2727 657.792 30.2727ZM657.792 28.4659C658.69 28.4659 659.428 28.2358 660.008 27.7756C660.587 27.3153 661.016 26.7102 661.295 25.9602C661.573 25.2102 661.712 24.3977 661.712 23.5227C661.712 22.6477 661.573 21.8324 661.295 21.0767C661.016 20.321 660.587 19.7102 660.008 19.2443C659.428 18.7784 658.69 18.5455 657.792 18.5455C656.894 18.5455 656.156 18.7784 655.576 19.2443C654.996 19.7102 654.567 20.321 654.289 21.0767C654.011 21.8324 653.871 22.6477 653.871 23.5227C653.871 24.3977 654.011 25.2102 654.289 25.9602C654.567 26.7102 654.996 27.3153 655.576 27.7756C656.156 28.2358 656.894 28.4659 657.792 28.4659ZM675.044 24.6477V16.9091H677.055V30H675.044V27.7841H674.908C674.601 28.4489 674.124 29.0142 673.476 29.4801C672.828 29.9403 672.01 30.1705 671.021 30.1705C670.203 30.1705 669.476 29.9915 668.839 29.6335C668.203 29.2699 667.703 28.7244 667.339 27.9972C666.976 27.2642 666.794 26.3409 666.794 25.2273V16.9091H668.805V25.0909C668.805 26.0455 669.072 26.8068 669.607 27.375C670.146 27.9432 670.834 28.2273 671.669 28.2273C672.169 28.2273 672.678 28.0994 673.195 27.8438C673.717 27.5881 674.155 27.196 674.507 26.6676C674.865 26.1392 675.044 25.4659 675.044 24.6477ZM686.433 16.9091V18.6136H679.648V16.9091H686.433ZM681.626 13.7727H683.637V26.25C683.637 26.8182 683.719 27.2443 683.884 27.5284C684.055 27.8068 684.271 27.9943 684.532 28.0909C684.799 28.1818 685.08 28.2273 685.376 28.2273C685.597 28.2273 685.779 28.2159 685.921 28.1932C686.063 28.1648 686.177 28.142 686.262 28.125L686.671 29.9318C686.535 29.983 686.344 30.0341 686.1 30.0852C685.856 30.142 685.546 30.1705 685.171 30.1705C684.603 30.1705 684.046 30.0483 683.501 29.804C682.961 29.5597 682.512 29.1875 682.154 28.6875C681.802 28.1875 681.626 27.5568 681.626 26.7955V13.7727ZM696.208 30V16.9091H698.219V30H696.208ZM697.231 14.7273C696.839 14.7273 696.501 14.5938 696.217 14.3267C695.938 14.0597 695.799 13.7386 695.799 13.3636C695.799 12.9886 695.938 12.6676 696.217 12.4006C696.501 12.1335 696.839 12 697.231 12C697.623 12 697.958 12.1335 698.237 12.4006C698.521 12.6676 698.663 12.9886 698.663 13.3636C698.663 13.7386 698.521 14.0597 698.237 14.3267C697.958 14.5938 697.623 14.7273 697.231 14.7273ZM707.597 16.9091V18.6136H700.812V16.9091H707.597ZM702.79 13.7727H704.801V26.25C704.801 26.8182 704.884 27.2443 705.048 27.5284C705.219 27.8068 705.435 27.9943 705.696 28.0909C705.963 28.1818 706.244 28.2273 706.54 28.2273C706.761 28.2273 706.943 28.2159 707.085 28.1932C707.227 28.1648 707.341 28.142 707.426 28.125L707.835 29.9318C707.699 29.983 707.509 30.0341 707.264 30.0852C707.02 30.142 706.71 30.1705 706.335 30.1705C705.767 30.1705 705.21 30.0483 704.665 29.804C704.125 29.5597 703.676 29.1875 703.318 28.6875C702.966 28.1875 702.79 27.5568 702.79 26.7955V13.7727ZM719.661 19.8409L717.854 20.3523C717.74 20.0511 717.572 19.7585 717.351 19.4744C717.135 19.1847 716.839 18.946 716.464 18.7585C716.089 18.571 715.609 18.4773 715.024 18.4773C714.223 18.4773 713.555 18.6619 713.021 19.0312C712.493 19.3949 712.229 19.858 712.229 20.4205C712.229 20.9205 712.411 21.3153 712.774 21.6051C713.138 21.8949 713.706 22.1364 714.479 22.3295L716.422 22.8068C717.592 23.0909 718.464 23.5256 719.038 24.1108C719.612 24.6903 719.899 25.4375 719.899 26.3523C719.899 27.1023 719.683 27.7727 719.251 28.3636C718.825 28.9545 718.229 29.4205 717.462 29.7614C716.695 30.1023 715.803 30.2727 714.786 30.2727C713.45 30.2727 712.345 29.983 711.47 29.4034C710.595 28.8239 710.041 27.9773 709.808 26.8636L711.717 26.3864C711.899 27.0909 712.243 27.6193 712.749 27.9716C713.26 28.3239 713.928 28.5 714.751 28.5C715.689 28.5 716.433 28.3011 716.984 27.9034C717.541 27.5 717.82 27.017 717.82 26.4545C717.82 26 717.661 25.6193 717.342 25.3125C717.024 25 716.536 24.767 715.876 24.6136L713.695 24.1023C712.496 23.8182 711.615 23.3778 711.053 22.7812C710.496 22.179 710.217 21.4261 710.217 20.5227C710.217 19.7841 710.425 19.1307 710.839 18.5625C711.26 17.9943 711.831 17.5483 712.553 17.2244C713.28 16.9006 714.104 16.7386 715.024 16.7386C716.32 16.7386 717.337 17.0227 718.075 17.5909C718.82 18.1591 719.348 18.9091 719.661 19.8409ZM735.506 16.9091V18.6136H728.45V16.9091H735.506ZM730.563 30V15.1023C730.563 14.3523 730.739 13.7273 731.092 13.2273C731.444 12.7273 731.901 12.3523 732.464 12.1023C733.026 11.8523 733.62 11.7273 734.245 11.7273C734.739 11.7273 735.143 11.767 735.455 11.8466C735.768 11.9261 736.001 12 736.154 12.0682L735.575 13.8068C735.472 13.7727 735.33 13.7301 735.148 13.679C734.972 13.6278 734.739 13.6023 734.45 13.6023C733.785 13.6023 733.305 13.7699 733.009 14.1051C732.719 14.4403 732.575 14.9318 732.575 15.5795V30H730.563ZM740.337 12.5455V30H738.325V12.5455H740.337ZM747.873 30.3068C747.043 30.3068 746.29 30.1506 745.614 29.8381C744.938 29.5199 744.401 29.0625 744.004 28.4659C743.606 27.8636 743.407 27.1364 743.407 26.2841C743.407 25.5341 743.555 24.9261 743.85 24.4602C744.146 23.9886 744.54 23.6193 745.035 23.3523C745.529 23.0852 746.075 22.8864 746.671 22.7557C747.273 22.6193 747.879 22.5114 748.487 22.4318C749.282 22.3295 749.927 22.2528 750.421 22.2017C750.921 22.1449 751.285 22.0511 751.512 21.9205C751.745 21.7898 751.862 21.5625 751.862 21.2386V21.1705C751.862 20.3295 751.631 19.6761 751.171 19.2102C750.717 18.7443 750.026 18.5114 749.1 18.5114C748.14 18.5114 747.387 18.7216 746.842 19.142C746.296 19.5625 745.913 20.0114 745.691 20.4886L743.782 19.8068C744.123 19.0114 744.577 18.392 745.146 17.9489C745.719 17.5 746.344 17.1875 747.021 17.0114C747.702 16.8295 748.373 16.7386 749.032 16.7386C749.452 16.7386 749.935 16.7898 750.481 16.892C751.032 16.9886 751.563 17.1903 752.075 17.4972C752.592 17.804 753.021 18.267 753.362 18.8864C753.702 19.5057 753.873 20.3352 753.873 21.375V30H751.862V28.2273H751.759C751.623 28.5114 751.396 28.8153 751.077 29.1392C750.759 29.4631 750.336 29.7386 749.808 29.9659C749.279 30.1932 748.634 30.3068 747.873 30.3068ZM748.18 28.5C748.975 28.5 749.646 28.3438 750.191 28.0312C750.742 27.7188 751.157 27.3153 751.435 26.821C751.719 26.3267 751.862 25.8068 751.862 25.2614V23.4205C751.776 23.5227 751.589 23.6165 751.299 23.7017C751.015 23.7812 750.685 23.8523 750.31 23.9148C749.941 23.9716 749.58 24.0227 749.228 24.0682C748.881 24.108 748.6 24.142 748.384 24.1705C747.862 24.2386 747.373 24.3494 746.918 24.5028C746.469 24.6506 746.106 24.875 745.827 25.1761C745.555 25.4716 745.418 25.875 745.418 26.3864C745.418 27.0852 745.677 27.6136 746.194 27.9716C746.717 28.3239 747.379 28.5 748.18 28.5ZM767.78 16.9091L762.939 30H760.893L756.053 16.9091H758.234L761.848 27.3409H761.984L765.598 16.9091H767.78ZM775.284 30.2727C774.102 30.2727 773.065 29.9915 772.173 29.429C771.287 28.8665 770.594 28.0795 770.094 27.0682C769.599 26.0568 769.352 24.875 769.352 23.5227C769.352 22.1591 769.599 20.9687 770.094 19.9517C770.594 18.9347 771.287 18.1449 772.173 17.5824C773.065 17.0199 774.102 16.7386 775.284 16.7386C776.466 16.7386 777.5 17.0199 778.386 17.5824C779.278 18.1449 779.972 18.9347 780.466 19.9517C780.966 20.9687 781.216 22.1591 781.216 23.5227C781.216 24.875 780.966 26.0568 780.466 27.0682C779.972 28.0795 779.278 28.8665 778.386 29.429C777.5 29.9915 776.466 30.2727 775.284 30.2727ZM775.284 28.4659C776.182 28.4659 776.92 28.2358 777.5 27.7756C778.08 27.3153 778.509 26.7102 778.787 25.9602C779.065 25.2102 779.205 24.3977 779.205 23.5227C779.205 22.6477 779.065 21.8324 778.787 21.0767C778.509 20.321 778.08 19.7102 777.5 19.2443C776.92 18.7784 776.182 18.5455 775.284 18.5455C774.386 18.5455 773.648 18.7784 773.068 19.2443C772.489 19.7102 772.06 20.321 771.781 21.0767C771.503 21.8324 771.364 22.6477 771.364 23.5227C771.364 24.3977 771.503 25.2102 771.781 25.9602C772.06 26.7102 772.489 27.3153 773.068 27.7756C773.648 28.2358 774.386 28.4659 775.284 28.4659ZM784.286 30V16.9091H786.229V18.8864H786.366C786.604 18.2386 787.036 17.7131 787.661 17.3097C788.286 16.9062 788.991 16.7045 789.775 16.7045C789.923 16.7045 790.107 16.7074 790.329 16.7131C790.55 16.7187 790.718 16.7273 790.832 16.7386V18.7841C790.763 18.767 790.607 18.7415 790.363 18.7074C790.124 18.6676 789.871 18.6477 789.604 18.6477C788.968 18.6477 788.4 18.7812 787.9 19.0483C787.406 19.3097 787.013 19.6733 786.724 20.1392C786.44 20.5994 786.298 21.125 786.298 21.7159V30H784.286ZM793.182 30.1364C792.761 30.1364 792.401 29.9858 792.099 29.6847C791.798 29.3835 791.648 29.0227 791.648 28.6023C791.648 28.1818 791.798 27.821 792.099 27.5199C792.401 27.2187 792.761 27.0682 793.182 27.0682C793.602 27.0682 793.963 27.2187 794.264 27.5199C794.565 27.821 794.716 28.1818 794.716 28.6023C794.716 28.8807 794.645 29.1364 794.503 29.3693C794.366 29.6023 794.182 29.7898 793.949 29.9318C793.722 30.0682 793.466 30.1364 793.182 30.1364Z" fill="#3E2522"/>
</svg>
