<svg width="933" height="40" viewBox="0 0 933 40" fill="none" xmlns="http://www.w3.org/2000/svg">
<rect x="1" y="1" width="931" height="38" rx="19" stroke="#3D1F1A" stroke-width="2"/>
<path d="M35.8295 30H33.6136L40.0227 12.5455H42.2045L48.6136 30H46.3977L41.1818 15.3068H41.0455L35.8295 30ZM36.6477 23.1818H45.5795V25.0568H36.6477V23.1818ZM62.7528 30.2727C61.6619 30.2727 60.6989 29.9972 59.8636 29.446C59.0284 28.8892 58.375 28.1051 57.9034 27.0938C57.4318 26.0767 57.196 24.875 57.196 23.4886C57.196 22.1136 57.4318 20.9205 57.9034 19.9091C58.375 18.8977 59.0313 18.1165 59.8722 17.5653C60.7131 17.0142 61.6847 16.7386 62.7869 16.7386C63.6392 16.7386 64.3125 16.8807 64.8068 17.1648C65.3068 17.4432 65.6875 17.7614 65.9489 18.1193C66.2159 18.4716 66.4233 18.7614 66.571 18.9886H66.7415V12.5455H68.7528V30H66.8097V27.9886H66.571C66.4233 28.2273 66.2131 28.5284 65.9403 28.892C65.6676 29.25 65.2784 29.571 64.7727 29.8551C64.267 30.1335 63.5938 30.2727 62.7528 30.2727ZM63.0256 28.4659C63.8324 28.4659 64.5142 28.2557 65.071 27.8352C65.6278 27.4091 66.0511 26.821 66.3409 26.071C66.6307 25.3153 66.7756 24.4432 66.7756 23.4545C66.7756 22.4773 66.6335 21.6222 66.3494 20.8892C66.0653 20.1506 65.6449 19.5767 65.0881 19.1676C64.5313 18.7528 63.8438 18.5455 63.0256 18.5455C62.1733 18.5455 61.4631 18.7642 60.8949 19.2017C60.3324 19.6335 59.9091 20.2216 59.625 20.9659C59.3466 21.7045 59.2074 22.5341 59.2074 23.4545C59.2074 24.3864 59.3494 25.233 59.6335 25.9943C59.9233 26.75 60.3494 27.3523 60.9119 27.8011C61.4801 28.2443 62.1847 28.4659 63.0256 28.4659ZM76.5682 30.3068C75.7386 30.3068 74.9858 30.1506 74.3097 29.8381C73.6335 29.5199 73.0966 29.0625 72.6989 28.4659C72.3011 27.8636 72.1023 27.1364 72.1023 26.2841C72.1023 25.5341 72.25 24.9261 72.5455 24.4602C72.8409 23.9886 73.2358 23.6193 73.7301 23.3523C74.2244 23.0852 74.7699 22.8864 75.3665 22.7557C75.9688 22.6193 76.5739 22.5114 77.1818 22.4318C77.9773 22.3295 78.6222 22.2528 79.1165 22.2017C79.6165 22.1449 79.9801 22.0511 80.2074 21.9205C80.4403 21.7898 80.5568 21.5625 80.5568 21.2386V21.1705C80.5568 20.3295 80.3267 19.6761 79.8665 19.2102C79.4119 18.7443 78.7216 18.5114 77.7955 18.5114C76.8352 18.5114 76.0824 18.7216 75.5369 19.142C74.9915 19.5625 74.608 20.0114 74.3864 20.4886L72.4773 19.8068C72.8182 19.0114 73.2727 18.392 73.8409 17.9489C74.4148 17.5 75.0398 17.1875 75.7159 17.0114C76.3977 16.8295 77.0682 16.7386 77.7273 16.7386C78.1477 16.7386 78.6307 16.7898 79.1761 16.892C79.7273 16.9886 80.2585 17.1903 80.7699 17.4972C81.2869 17.804 81.7159 18.267 82.0568 18.8864C82.3977 19.5057 82.5682 20.3352 82.5682 21.375V30H80.5568V28.2273H80.4545C80.3182 28.5114 80.0909 28.8153 79.7727 29.1392C79.4545 29.4631 79.0313 29.7386 78.5028 29.9659C77.9744 30.1932 77.3295 30.3068 76.5682 30.3068ZM76.875 28.5C77.6705 28.5 78.3409 28.3438 78.8864 28.0312C79.4375 27.7188 79.8523 27.3153 80.1307 26.821C80.4148 26.3267 80.5568 25.8068 80.5568 25.2614V23.4205C80.4716 23.5227 80.2841 23.6165 79.9943 23.7017C79.7102 23.7812 79.3807 23.8523 79.0057 23.9148C78.6364 23.9716 78.2756 24.0227 77.9233 24.0682C77.5767 24.108 77.2955 24.142 77.0795 24.1705C76.5568 24.2386 76.0682 24.3494 75.6136 24.5028C75.1648 24.6506 74.8011 24.875 74.5227 25.1761C74.25 25.4716 74.1136 25.875 74.1136 26.3864C74.1136 27.0852 74.3722 27.6136 74.8892 27.9716C75.4119 28.3239 76.0739 28.5 76.875 28.5ZM86.2393 30V16.9091H88.1825V18.8864H88.3189C88.5575 18.2386 88.9893 17.7131 89.6143 17.3097C90.2393 16.9062 90.9439 16.7045 91.728 16.7045C91.8757 16.7045 92.0604 16.7074 92.282 16.7131C92.5036 16.7187 92.6712 16.7273 92.7848 16.7386V18.7841C92.7166 18.767 92.5604 18.7415 92.3161 18.7074C92.0774 18.6676 91.8246 18.6477 91.5575 18.6477C90.9212 18.6477 90.353 18.7812 89.853 19.0483C89.3587 19.3097 88.9666 19.6733 88.6768 20.1392C88.3928 20.5994 88.2507 21.125 88.2507 21.7159V30H86.2393ZM97.044 25.2273L97.0099 22.7386H97.419L103.146 16.9091H105.635L99.5327 23.0795H99.3622L97.044 25.2273ZM95.169 30V12.5455H97.1804V30H95.169ZM103.487 30L98.3736 23.5227L99.8054 22.125L106.044 30H103.487ZM114.974 30V16.9091H116.917V18.8864H117.053C117.292 18.2386 117.724 17.7131 118.349 17.3097C118.974 16.9062 119.678 16.7045 120.462 16.7045C120.61 16.7045 120.795 16.7074 121.016 16.7131C121.238 16.7187 121.406 16.7273 121.519 16.7386V18.7841C121.451 18.767 121.295 18.7415 121.05 18.7074C120.812 18.6676 120.559 18.6477 120.292 18.6477C119.656 18.6477 119.087 18.7812 118.587 19.0483C118.093 19.3097 117.701 19.6733 117.411 20.1392C117.127 20.5994 116.985 21.125 116.985 21.7159V30H114.974ZM128.823 30.2727C127.641 30.2727 126.604 29.9915 125.712 29.429C124.826 28.8665 124.133 28.0795 123.633 27.0682C123.138 26.0568 122.891 24.875 122.891 23.5227C122.891 22.1591 123.138 20.9687 123.633 19.9517C124.133 18.9347 124.826 18.1449 125.712 17.5824C126.604 17.0199 127.641 16.7386 128.823 16.7386C130.005 16.7386 131.039 17.0199 131.925 17.5824C132.817 18.1449 133.511 18.9347 134.005 19.9517C134.505 20.9687 134.755 22.1591 134.755 23.5227C134.755 24.875 134.505 26.0568 134.005 27.0682C133.511 28.0795 132.817 28.8665 131.925 29.429C131.039 29.9915 130.005 30.2727 128.823 30.2727ZM128.823 28.4659C129.721 28.4659 130.46 28.2358 131.039 27.7756C131.619 27.3153 132.048 26.7102 132.326 25.9602C132.604 25.2102 132.744 24.3977 132.744 23.5227C132.744 22.6477 132.604 21.8324 132.326 21.0767C132.048 20.321 131.619 19.7102 131.039 19.2443C130.46 18.7784 129.721 18.5455 128.823 18.5455C127.925 18.5455 127.187 18.7784 126.607 19.2443C126.028 19.7102 125.599 20.321 125.32 21.0767C125.042 21.8324 124.903 22.6477 124.903 23.5227C124.903 24.3977 125.042 25.2102 125.32 25.9602C125.599 26.7102 126.028 27.3153 126.607 27.7756C127.187 28.2358 127.925 28.4659 128.823 28.4659ZM141.678 30.3068C140.848 30.3068 140.095 30.1506 139.419 29.8381C138.743 29.5199 138.206 29.0625 137.808 28.4659C137.411 27.8636 137.212 27.1364 137.212 26.2841C137.212 25.5341 137.359 24.9261 137.655 24.4602C137.95 23.9886 138.345 23.6193 138.839 23.3523C139.334 23.0852 139.879 22.8864 140.476 22.7557C141.078 22.6193 141.683 22.5114 142.291 22.4318C143.087 22.3295 143.732 22.2528 144.226 22.2017C144.726 22.1449 145.089 22.0511 145.317 21.9205C145.55 21.7898 145.666 21.5625 145.666 21.2386V21.1705C145.666 20.3295 145.436 19.6761 144.976 19.2102C144.521 18.7443 143.831 18.5114 142.905 18.5114C141.945 18.5114 141.192 18.7216 140.646 19.142C140.101 19.5625 139.717 20.0114 139.496 20.4886L137.587 19.8068C137.928 19.0114 138.382 18.392 138.95 17.9489C139.524 17.5 140.149 17.1875 140.825 17.0114C141.507 16.8295 142.178 16.7386 142.837 16.7386C143.257 16.7386 143.74 16.7898 144.286 16.892C144.837 16.9886 145.368 17.1903 145.879 17.4972C146.396 17.804 146.825 18.267 147.166 18.8864C147.507 19.5057 147.678 20.3352 147.678 21.375V30H145.666V28.2273H145.564C145.428 28.5114 145.2 28.8153 144.882 29.1392C144.564 29.4631 144.141 29.7386 143.612 29.9659C143.084 30.1932 142.439 30.3068 141.678 30.3068ZM141.984 28.5C142.78 28.5 143.45 28.3438 143.996 28.0312C144.547 27.7188 144.962 27.3153 145.24 26.821C145.524 26.3267 145.666 25.8068 145.666 25.2614V23.4205C145.581 23.5227 145.393 23.6165 145.104 23.7017C144.82 23.7812 144.49 23.8523 144.115 23.9148C143.746 23.9716 143.385 24.0227 143.033 24.0682C142.686 24.108 142.405 24.142 142.189 24.1705C141.666 24.2386 141.178 24.3494 140.723 24.5028C140.274 24.6506 139.911 24.875 139.632 25.1761C139.359 25.4716 139.223 25.875 139.223 26.3864C139.223 27.0852 139.482 27.6136 139.999 27.9716C140.521 28.3239 141.183 28.5 141.984 28.5ZM160.621 19.8409L158.815 20.3523C158.701 20.0511 158.533 19.7585 158.312 19.4744C158.096 19.1847 157.8 18.946 157.425 18.7585C157.05 18.571 156.57 18.4773 155.985 18.4773C155.184 18.4773 154.516 18.6619 153.982 19.0312C153.454 19.3949 153.19 19.858 153.19 20.4205C153.19 20.9205 153.371 21.3153 153.735 21.6051C154.099 21.8949 154.667 22.1364 155.44 22.3295L157.383 22.8068C158.553 23.0909 159.425 23.5256 159.999 24.1108C160.573 24.6903 160.86 25.4375 160.86 26.3523C160.86 27.1023 160.644 27.7727 160.212 28.3636C159.786 28.9545 159.19 29.4205 158.423 29.7614C157.656 30.1023 156.763 30.2727 155.746 30.2727C154.411 30.2727 153.306 29.983 152.431 29.4034C151.556 28.8239 151.002 27.9773 150.769 26.8636L152.678 26.3864C152.86 27.0909 153.204 27.6193 153.71 27.9716C154.221 28.3239 154.888 28.5 155.712 28.5C156.65 28.5 157.394 28.3011 157.945 27.9034C158.502 27.5 158.781 27.017 158.781 26.4545C158.781 26 158.621 25.6193 158.303 25.3125C157.985 25 157.496 24.767 156.837 24.6136L154.656 24.1023C153.457 23.8182 152.576 23.3778 152.013 22.7812C151.457 22.179 151.178 21.4261 151.178 20.5227C151.178 19.7841 151.386 19.1307 151.8 18.5625C152.221 17.9943 152.792 17.5483 153.513 17.2244C154.241 16.9006 155.065 16.7386 155.985 16.7386C157.281 16.7386 158.298 17.0227 159.036 17.5909C159.781 18.1591 160.309 18.9091 160.621 19.8409ZM169.581 16.9091V18.6136H162.797V16.9091H169.581ZM164.774 13.7727H166.786V26.25C166.786 26.8182 166.868 27.2443 167.033 27.5284C167.203 27.8068 167.419 27.9943 167.68 28.0909C167.947 28.1818 168.229 28.2273 168.524 28.2273C168.746 28.2273 168.928 28.2159 169.07 28.1932C169.212 28.1648 169.325 28.142 169.411 28.125L169.82 29.9318C169.683 29.983 169.493 30.0341 169.249 30.0852C169.004 30.142 168.695 30.1705 168.32 30.1705C167.751 30.1705 167.195 30.0483 166.649 29.804C166.109 29.5597 165.661 29.1875 165.303 28.6875C164.95 28.1875 164.774 27.5568 164.774 26.7955V13.7727ZM184.675 30.2727C183.447 30.2727 182.391 29.983 181.504 29.4034C180.618 28.8239 179.936 28.0256 179.459 27.0085C178.982 25.9915 178.743 24.8295 178.743 23.5227C178.743 22.1932 178.987 21.0199 179.476 20.0028C179.97 18.9801 180.658 18.1818 181.538 17.608C182.425 17.0284 183.459 16.7386 184.641 16.7386C185.561 16.7386 186.391 16.9091 187.129 17.25C187.868 17.5909 188.473 18.0682 188.945 18.6818C189.416 19.2955 189.709 20.0114 189.822 20.8295H187.811C187.658 20.233 187.317 19.7045 186.788 19.2443C186.266 18.7784 185.561 18.5455 184.675 18.5455C183.891 18.5455 183.203 18.75 182.612 19.1591C182.027 19.5625 181.57 20.1335 181.24 20.8722C180.916 21.6051 180.754 22.4659 180.754 23.4545C180.754 24.4659 180.913 25.3466 181.232 26.0966C181.555 26.8466 182.01 27.429 182.595 27.8438C183.186 28.2585 183.879 28.4659 184.675 28.4659C185.197 28.4659 185.672 28.375 186.098 28.1932C186.524 28.0114 186.885 27.75 187.18 27.4091C187.476 27.0682 187.686 26.6591 187.811 26.1818H189.822C189.709 26.9545 189.428 27.6506 188.979 28.2699C188.536 28.8835 187.947 29.3722 187.214 29.7358C186.487 30.0938 185.641 30.2727 184.675 30.2727ZM198.081 30.2727C196.899 30.2727 195.862 29.9915 194.97 29.429C194.084 28.8665 193.391 28.0795 192.891 27.0682C192.396 26.0568 192.149 24.875 192.149 23.5227C192.149 22.1591 192.396 20.9687 192.891 19.9517C193.391 18.9347 194.084 18.1449 194.97 17.5824C195.862 17.0199 196.899 16.7386 198.081 16.7386C199.263 16.7386 200.297 17.0199 201.183 17.5824C202.075 18.1449 202.768 18.9347 203.263 19.9517C203.763 20.9687 204.013 22.1591 204.013 23.5227C204.013 24.875 203.763 26.0568 203.263 27.0682C202.768 28.0795 202.075 28.8665 201.183 29.429C200.297 29.9915 199.263 30.2727 198.081 30.2727ZM198.081 28.4659C198.979 28.4659 199.717 28.2358 200.297 27.7756C200.876 27.3153 201.305 26.7102 201.584 25.9602C201.862 25.2102 202.001 24.3977 202.001 23.5227C202.001 22.6477 201.862 21.8324 201.584 21.0767C201.305 20.321 200.876 19.7102 200.297 19.2443C199.717 18.7784 198.979 18.5455 198.081 18.5455C197.183 18.5455 196.445 18.7784 195.865 19.2443C195.286 19.7102 194.857 20.321 194.578 21.0767C194.3 21.8324 194.161 22.6477 194.161 23.5227C194.161 24.3977 194.3 25.2102 194.578 25.9602C194.857 26.7102 195.286 27.3153 195.865 27.7756C196.445 28.2358 197.183 28.4659 198.081 28.4659ZM212.913 16.9091V18.6136H205.856V16.9091H212.913ZM207.969 30V15.1023C207.969 14.3523 208.146 13.7273 208.498 13.2273C208.85 12.7273 209.308 12.3523 209.87 12.1023C210.433 11.8523 211.026 11.7273 211.651 11.7273C212.146 11.7273 212.549 11.767 212.862 11.8466C213.174 11.9261 213.407 12 213.56 12.0682L212.981 13.8068C212.879 13.7727 212.737 13.7301 212.555 13.679C212.379 13.6278 212.146 13.6023 211.856 13.6023C211.191 13.6023 210.711 13.7699 210.415 14.1051C210.126 14.4403 209.981 14.9318 209.981 15.5795V30H207.969ZM221.561 16.9091V18.6136H214.504V16.9091H221.561ZM216.618 30V15.1023C216.618 14.3523 216.794 13.7273 217.146 13.2273C217.499 12.7273 217.956 12.3523 218.518 12.1023C219.081 11.8523 219.675 11.7273 220.3 11.7273C220.794 11.7273 221.197 11.767 221.51 11.8466C221.822 11.9261 222.055 12 222.209 12.0682L221.629 13.8068C221.527 13.7727 221.385 13.7301 221.203 13.679C221.027 13.6278 220.794 13.6023 220.504 13.6023C219.839 13.6023 219.359 13.7699 219.064 14.1051C218.774 14.4403 218.629 14.9318 218.629 15.5795V30H216.618ZM229.33 30.2727C228.068 30.2727 226.98 29.9943 226.065 29.4375C225.156 28.875 224.455 28.0909 223.96 27.0852C223.472 26.0739 223.227 24.8977 223.227 23.5568C223.227 22.2159 223.472 21.0341 223.96 20.0114C224.455 18.983 225.142 18.1818 226.023 17.608C226.909 17.0284 227.943 16.7386 229.125 16.7386C229.807 16.7386 230.48 16.8523 231.145 17.0795C231.81 17.3068 232.415 17.6761 232.96 18.1875C233.506 18.6932 233.94 19.3636 234.264 20.1989C234.588 21.0341 234.75 22.0625 234.75 23.2841V24.1364H224.659V22.3977H232.705C232.705 21.6591 232.557 21 232.261 20.4205C231.972 19.8409 231.557 19.3835 231.017 19.0483C230.483 18.7131 229.852 18.5455 229.125 18.5455C228.324 18.5455 227.631 18.7443 227.045 19.142C226.466 19.5341 226.02 20.0455 225.707 20.6761C225.395 21.3068 225.239 21.983 225.239 22.7045V23.8636C225.239 24.8523 225.409 25.6903 225.75 26.3778C226.097 27.0597 226.577 27.5795 227.19 27.9375C227.804 28.2898 228.517 28.4659 229.33 28.4659C229.858 28.4659 230.335 28.392 230.761 28.2443C231.193 28.0909 231.565 27.8636 231.878 27.5625C232.19 27.2557 232.432 26.875 232.602 26.4205L234.545 26.9659C234.341 27.625 233.997 28.2045 233.514 28.7045C233.031 29.1989 232.435 29.5852 231.724 29.8636C231.014 30.1364 230.216 30.2727 229.33 30.2727ZM243.298 30.2727C242.037 30.2727 240.949 29.9943 240.034 29.4375C239.125 28.875 238.423 28.0909 237.929 27.0852C237.44 26.0739 237.196 24.8977 237.196 23.5568C237.196 22.2159 237.44 21.0341 237.929 20.0114C238.423 18.983 239.111 18.1818 239.991 17.608C240.878 17.0284 241.912 16.7386 243.094 16.7386C243.776 16.7386 244.449 16.8523 245.114 17.0795C245.778 17.3068 246.384 17.6761 246.929 18.1875C247.474 18.6932 247.909 19.3636 248.233 20.1989C248.557 21.0341 248.719 22.0625 248.719 23.2841V24.1364H238.628V22.3977H246.673C246.673 21.6591 246.526 21 246.23 20.4205C245.94 19.8409 245.526 19.3835 244.986 19.0483C244.452 18.7131 243.821 18.5455 243.094 18.5455C242.293 18.5455 241.599 18.7443 241.014 19.142C240.435 19.5341 239.989 20.0455 239.676 20.6761C239.364 21.3068 239.207 21.983 239.207 22.7045V23.8636C239.207 24.8523 239.378 25.6903 239.719 26.3778C240.065 27.0597 240.545 27.5795 241.159 27.9375C241.773 28.2898 242.486 28.4659 243.298 28.4659C243.827 28.4659 244.304 28.392 244.73 28.2443C245.162 28.0909 245.534 27.8636 245.847 27.5625C246.159 27.2557 246.401 26.875 246.571 26.4205L248.514 26.9659C248.31 27.625 247.966 28.2045 247.483 28.7045C247 29.1989 246.403 29.5852 245.693 29.8636C244.983 30.1364 244.185 30.2727 243.298 30.2727ZM253.244 30.1364C252.824 30.1364 252.463 29.9858 252.162 29.6847C251.861 29.3835 251.71 29.0227 251.71 28.6023C251.71 28.1818 251.861 27.821 252.162 27.5199C252.463 27.2187 252.824 27.0682 253.244 27.0682C253.665 27.0682 254.026 27.2187 254.327 27.5199C254.628 27.821 254.778 28.1818 254.778 28.6023C254.778 28.8807 254.707 29.1364 254.565 29.3693C254.429 29.6023 254.244 29.7898 254.011 29.9318C253.784 30.0682 253.528 30.1364 253.244 30.1364ZM253.244 20.4205C252.824 20.4205 252.463 20.2699 252.162 19.9688C251.861 19.6676 251.71 19.3068 251.71 18.8864C251.71 18.4659 251.861 18.1051 252.162 17.804C252.463 17.5028 252.824 17.3523 253.244 17.3523C253.665 17.3523 254.026 17.5028 254.327 17.804C254.628 18.1051 254.778 18.4659 254.778 18.8864C254.778 19.1648 254.707 19.4205 254.565 19.6534C254.429 19.8864 254.244 20.0739 254.011 20.2159C253.784 20.3523 253.528 20.4205 253.244 20.4205ZM270.422 35.1818C269.45 35.1818 268.615 35.0568 267.916 34.8068C267.217 34.5625 266.635 34.2386 266.169 33.8352C265.709 33.4375 265.342 33.0114 265.07 32.5568L266.672 31.4318C266.854 31.6705 267.084 31.9432 267.362 32.25C267.641 32.5625 268.021 32.8324 268.504 33.0597C268.993 33.2926 269.632 33.4091 270.422 33.4091C271.479 33.4091 272.351 33.1534 273.038 32.642C273.726 32.1307 274.07 31.3295 274.07 30.2386V27.5795H273.899C273.751 27.8182 273.541 28.1136 273.268 28.4659C273.001 28.8125 272.615 29.1222 272.109 29.3949C271.609 29.6619 270.933 29.7955 270.081 29.7955C269.024 29.7955 268.075 29.5455 267.234 29.0455C266.399 28.5455 265.737 27.8182 265.249 26.8636C264.766 25.9091 264.524 24.75 264.524 23.3864C264.524 22.0455 264.76 20.8778 265.232 19.8835C265.703 18.8835 266.359 18.1108 267.2 17.5653C268.041 17.0142 269.013 16.7386 270.115 16.7386C270.967 16.7386 271.643 16.8807 272.143 17.1648C272.649 17.4432 273.036 17.7614 273.303 18.1193C273.575 18.4716 273.786 18.7614 273.933 18.9886H274.138V16.9091H276.081V30.375C276.081 31.5 275.825 32.4148 275.314 33.1193C274.808 33.8295 274.126 34.3494 273.268 34.679C272.416 35.0142 271.467 35.1818 270.422 35.1818ZM270.354 27.9886C271.161 27.9886 271.842 27.804 272.399 27.4347C272.956 27.0653 273.379 26.5341 273.669 25.8409C273.959 25.1477 274.104 24.3182 274.104 23.3523C274.104 22.4091 273.962 21.5767 273.678 20.8551C273.393 20.1335 272.973 19.5682 272.416 19.1591C271.859 18.75 271.172 18.5455 270.354 18.5455C269.501 18.5455 268.791 18.7614 268.223 19.1932C267.661 19.625 267.237 20.2045 266.953 20.9318C266.675 21.6591 266.536 22.4659 266.536 23.3523C266.536 24.2614 266.678 25.0653 266.962 25.7642C267.251 26.4574 267.678 27.0028 268.24 27.4006C268.808 27.7926 269.513 27.9886 270.354 27.9886ZM279.763 30V16.9091H281.706V18.8864H281.842C282.081 18.2386 282.513 17.7131 283.138 17.3097C283.763 16.9062 284.467 16.7045 285.251 16.7045C285.399 16.7045 285.584 16.7074 285.805 16.7131C286.027 16.7187 286.195 16.7273 286.308 16.7386V18.7841C286.24 18.767 286.084 18.7415 285.839 18.7074C285.601 18.6676 285.348 18.6477 285.081 18.6477C284.445 18.6477 283.876 18.7812 283.376 19.0483C282.882 19.3097 282.49 19.6733 282.2 20.1392C281.916 20.5994 281.774 21.125 281.774 21.7159V30H279.763ZM293.612 30.2727C292.43 30.2727 291.393 29.9915 290.501 29.429C289.615 28.8665 288.922 28.0795 288.422 27.0682C287.928 26.0568 287.68 24.875 287.68 23.5227C287.68 22.1591 287.928 20.9687 288.422 19.9517C288.922 18.9347 289.615 18.1449 290.501 17.5824C291.393 17.0199 292.43 16.7386 293.612 16.7386C294.794 16.7386 295.828 17.0199 296.714 17.5824C297.607 18.1449 298.3 18.9347 298.794 19.9517C299.294 20.9687 299.544 22.1591 299.544 23.5227C299.544 24.875 299.294 26.0568 298.794 27.0682C298.3 28.0795 297.607 28.8665 296.714 29.429C295.828 29.9915 294.794 30.2727 293.612 30.2727ZM293.612 28.4659C294.51 28.4659 295.249 28.2358 295.828 27.7756C296.408 27.3153 296.837 26.7102 297.115 25.9602C297.393 25.2102 297.533 24.3977 297.533 23.5227C297.533 22.6477 297.393 21.8324 297.115 21.0767C296.837 20.321 296.408 19.7102 295.828 19.2443C295.249 18.7784 294.51 18.5455 293.612 18.5455C292.714 18.5455 291.976 18.7784 291.396 19.2443C290.817 19.7102 290.388 20.321 290.109 21.0767C289.831 21.8324 289.692 22.6477 289.692 23.5227C289.692 24.3977 289.831 25.2102 290.109 25.9602C290.388 26.7102 290.817 27.3153 291.396 27.7756C291.976 28.2358 292.714 28.4659 293.612 28.4659ZM310.864 24.6477V16.9091H312.876V30H310.864V27.7841H310.728C310.421 28.4489 309.944 29.0142 309.296 29.4801C308.648 29.9403 307.83 30.1705 306.842 30.1705C306.023 30.1705 305.296 29.9915 304.66 29.6335C304.023 29.2699 303.523 28.7244 303.16 27.9972C302.796 27.2642 302.614 26.3409 302.614 25.2273V16.9091H304.626V25.0909C304.626 26.0455 304.893 26.8068 305.427 27.375C305.967 27.9432 306.654 28.2273 307.489 28.2273C307.989 28.2273 308.498 28.0994 309.015 27.8438C309.538 27.5881 309.975 27.196 310.327 26.6676C310.685 26.1392 310.864 25.4659 310.864 24.6477ZM318.571 22.125V30H316.56V16.9091H318.503V18.9545H318.673C318.98 18.2898 319.446 17.7557 320.071 17.3523C320.696 16.9432 321.503 16.7386 322.491 16.7386C323.378 16.7386 324.153 16.9205 324.818 17.2841C325.483 17.642 326 18.1875 326.369 18.9205C326.739 19.6477 326.923 20.5682 326.923 21.6818V30H324.912V21.8182C324.912 20.7898 324.645 19.9886 324.111 19.4148C323.577 18.8352 322.844 18.5455 321.912 18.5455C321.27 18.5455 320.696 18.6847 320.19 18.9631C319.69 19.2415 319.295 19.6477 319.006 20.1818C318.716 20.7159 318.571 21.3636 318.571 22.125ZM335.542 30.2727C334.451 30.2727 333.488 29.9972 332.653 29.446C331.817 28.8892 331.164 28.1051 330.692 27.0938C330.221 26.0767 329.985 24.875 329.985 23.4886C329.985 22.1136 330.221 20.9205 330.692 19.9091C331.164 18.8977 331.82 18.1165 332.661 17.5653C333.502 17.0142 334.474 16.7386 335.576 16.7386C336.428 16.7386 337.102 16.8807 337.596 17.1648C338.096 17.4432 338.477 17.7614 338.738 18.1193C339.005 18.4716 339.212 18.7614 339.36 18.9886H339.531V12.5455H341.542V30H339.599V27.9886H339.36C339.212 28.2273 339.002 28.5284 338.729 28.892C338.457 29.25 338.067 29.571 337.562 29.8551C337.056 30.1335 336.383 30.2727 335.542 30.2727ZM335.815 28.4659C336.621 28.4659 337.303 28.2557 337.86 27.8352C338.417 27.4091 338.84 26.821 339.13 26.071C339.42 25.3153 339.565 24.4432 339.565 23.4545C339.565 22.4773 339.423 21.6222 339.138 20.8892C338.854 20.1506 338.434 19.5767 337.877 19.1676C337.32 18.7528 336.633 18.5455 335.815 18.5455C334.962 18.5455 334.252 18.7642 333.684 19.2017C333.121 19.6335 332.698 20.2216 332.414 20.9659C332.136 21.7045 331.996 22.5341 331.996 23.4545C331.996 24.3864 332.138 25.233 332.423 25.9943C332.712 26.75 333.138 27.3523 333.701 27.8011C334.269 28.2443 334.974 28.4659 335.815 28.4659ZM350.994 30.2727C349.732 30.2727 348.644 29.9943 347.729 29.4375C346.82 28.875 346.119 28.0909 345.624 27.0852C345.136 26.0739 344.891 24.8977 344.891 23.5568C344.891 22.2159 345.136 21.0341 345.624 20.0114C346.119 18.983 346.806 18.1818 347.687 17.608C348.573 17.0284 349.607 16.7386 350.789 16.7386C351.471 16.7386 352.144 16.8523 352.809 17.0795C353.474 17.3068 354.079 17.6761 354.624 18.1875C355.17 18.6932 355.604 19.3636 355.928 20.1989C356.252 21.0341 356.414 22.0625 356.414 23.2841V24.1364H346.323V22.3977H354.369C354.369 21.6591 354.221 21 353.925 20.4205C353.636 19.8409 353.221 19.3835 352.681 19.0483C352.147 18.7131 351.516 18.5455 350.789 18.5455C349.988 18.5455 349.295 18.7443 348.71 19.142C348.13 19.5341 347.684 20.0455 347.371 20.6761C347.059 21.3068 346.903 21.983 346.903 22.7045V23.8636C346.903 24.8523 347.073 25.6903 347.414 26.3778C347.761 27.0597 348.241 27.5795 348.854 27.9375C349.468 28.2898 350.181 28.4659 350.994 28.4659C351.522 28.4659 351.999 28.392 352.425 28.2443C352.857 28.0909 353.229 27.8636 353.542 27.5625C353.854 27.2557 354.096 26.875 354.266 26.4205L356.21 26.9659C356.005 27.625 355.661 28.2045 355.178 28.7045C354.695 29.1989 354.099 29.5852 353.388 29.8636C352.678 30.1364 351.88 30.2727 350.994 30.2727ZM364.417 30.2727C363.326 30.2727 362.363 29.9972 361.528 29.446C360.692 28.8892 360.039 28.1051 359.567 27.0938C359.096 26.0767 358.86 24.875 358.86 23.4886C358.86 22.1136 359.096 20.9205 359.567 19.9091C360.039 18.8977 360.695 18.1165 361.536 17.5653C362.377 17.0142 363.349 16.7386 364.451 16.7386C365.303 16.7386 365.977 16.8807 366.471 17.1648C366.971 17.4432 367.352 17.7614 367.613 18.1193C367.88 18.4716 368.087 18.7614 368.235 18.9886H368.406V12.5455H370.417V30H368.474V27.9886H368.235C368.087 28.2273 367.877 28.5284 367.604 28.892C367.332 29.25 366.942 29.571 366.437 29.8551C365.931 30.1335 365.258 30.2727 364.417 30.2727ZM364.69 28.4659C365.496 28.4659 366.178 28.2557 366.735 27.8352C367.292 27.4091 367.715 26.821 368.005 26.071C368.295 25.3153 368.44 24.4432 368.44 23.4545C368.44 22.4773 368.298 21.6222 368.013 20.8892C367.729 20.1506 367.309 19.5767 366.752 19.1676C366.195 18.7528 365.508 18.5455 364.69 18.5455C363.837 18.5455 363.127 18.7642 362.559 19.2017C361.996 19.6335 361.573 20.2216 361.289 20.9659C361.011 21.7045 360.871 22.5341 360.871 23.4545C360.871 24.3864 361.013 25.233 361.298 25.9943C361.587 26.75 362.013 27.3523 362.576 27.8011C363.144 28.2443 363.849 28.4659 364.69 28.4659ZM377.38 27.6136L377.244 28.5341C377.147 29.1818 376.999 29.875 376.8 30.6136C376.607 31.3523 376.406 32.0483 376.195 32.7017C375.985 33.3551 375.812 33.875 375.675 34.2614H374.141C374.215 33.8977 374.312 33.4176 374.431 32.821C374.55 32.2244 374.67 31.5568 374.789 30.8182C374.914 30.0852 375.016 29.3352 375.096 28.5682L375.198 27.6136H377.38ZM393.686 16.9091V18.6136H386.629V16.9091H393.686ZM388.743 30V15.1023C388.743 14.3523 388.919 13.7273 389.271 13.2273C389.624 12.7273 390.081 12.3523 390.643 12.1023C391.206 11.8523 391.8 11.7273 392.425 11.7273C392.919 11.7273 393.322 11.767 393.635 11.8466C393.947 11.9261 394.18 12 394.334 12.0682L393.754 13.8068C393.652 13.7727 393.51 13.7301 393.328 13.679C393.152 13.6278 392.919 13.6023 392.629 13.6023C391.964 13.6023 391.484 13.7699 391.189 14.1051C390.899 14.4403 390.754 14.9318 390.754 15.5795V30H388.743ZM401.284 30.2727C400.102 30.2727 399.065 29.9915 398.173 29.429C397.287 28.8665 396.594 28.0795 396.094 27.0682C395.599 26.0568 395.352 24.875 395.352 23.5227C395.352 22.1591 395.599 20.9687 396.094 19.9517C396.594 18.9347 397.287 18.1449 398.173 17.5824C399.065 17.0199 400.102 16.7386 401.284 16.7386C402.466 16.7386 403.5 17.0199 404.386 17.5824C405.278 18.1449 405.972 18.9347 406.466 19.9517C406.966 20.9687 407.216 22.1591 407.216 23.5227C407.216 24.875 406.966 26.0568 406.466 27.0682C405.972 28.0795 405.278 28.8665 404.386 29.429C403.5 29.9915 402.466 30.2727 401.284 30.2727ZM401.284 28.4659C402.182 28.4659 402.92 28.2358 403.5 27.7756C404.08 27.3153 404.509 26.7102 404.787 25.9602C405.065 25.2102 405.205 24.3977 405.205 23.5227C405.205 22.6477 405.065 21.8324 404.787 21.0767C404.509 20.321 404.08 19.7102 403.5 19.2443C402.92 18.7784 402.182 18.5455 401.284 18.5455C400.386 18.5455 399.648 18.7784 399.068 19.2443C398.489 19.7102 398.06 20.321 397.781 21.0767C397.503 21.8324 397.364 22.6477 397.364 23.5227C397.364 24.3977 397.503 25.2102 397.781 25.9602C398.06 26.7102 398.489 27.3153 399.068 27.7756C399.648 28.2358 400.386 28.4659 401.284 28.4659ZM415.604 30.2727C414.377 30.2727 413.32 29.983 412.434 29.4034C411.548 28.8239 410.866 28.0256 410.388 27.0085C409.911 25.9915 409.673 24.8295 409.673 23.5227C409.673 22.1932 409.917 21.0199 410.406 20.0028C410.9 18.9801 411.587 18.1818 412.468 17.608C413.354 17.0284 414.388 16.7386 415.57 16.7386C416.491 16.7386 417.32 16.9091 418.059 17.25C418.798 17.5909 419.403 18.0682 419.874 18.6818C420.346 19.2955 420.638 20.0114 420.752 20.8295H418.741C418.587 20.233 418.246 19.7045 417.718 19.2443C417.195 18.7784 416.491 18.5455 415.604 18.5455C414.82 18.5455 414.133 18.75 413.542 19.1591C412.957 19.5625 412.499 20.1335 412.17 20.8722C411.846 21.6051 411.684 22.4659 411.684 23.4545C411.684 24.4659 411.843 25.3466 412.161 26.0966C412.485 26.8466 412.94 27.429 413.525 27.8438C414.116 28.2585 414.809 28.4659 415.604 28.4659C416.127 28.4659 416.602 28.375 417.028 28.1932C417.454 28.0114 417.815 27.75 418.11 27.4091C418.406 27.0682 418.616 26.6591 418.741 26.1818H420.752C420.638 26.9545 420.357 27.6506 419.908 28.2699C419.465 28.8835 418.877 29.3722 418.144 29.7358C417.417 30.0938 416.57 30.2727 415.604 30.2727ZM431.942 24.6477V16.9091H433.954V30H431.942V27.7841H431.806C431.499 28.4489 431.022 29.0142 430.374 29.4801C429.727 29.9403 428.908 30.1705 427.92 30.1705C427.102 30.1705 426.374 29.9915 425.738 29.6335C425.102 29.2699 424.602 28.7244 424.238 27.9972C423.874 27.2642 423.692 26.3409 423.692 25.2273V16.9091H425.704V25.0909C425.704 26.0455 425.971 26.8068 426.505 27.375C427.045 27.9432 427.732 28.2273 428.567 28.2273C429.067 28.2273 429.576 28.0994 430.093 27.8438C430.616 27.5881 431.053 27.196 431.406 26.6676C431.763 26.1392 431.942 25.4659 431.942 24.6477ZM446.911 19.8409L445.104 20.3523C444.99 20.0511 444.822 19.7585 444.601 19.4744C444.385 19.1847 444.089 18.946 443.714 18.7585C443.339 18.571 442.859 18.4773 442.274 18.4773C441.473 18.4773 440.805 18.6619 440.271 19.0312C439.743 19.3949 439.479 19.858 439.479 20.4205C439.479 20.9205 439.661 21.3153 440.024 21.6051C440.388 21.8949 440.956 22.1364 441.729 22.3295L443.672 22.8068C444.842 23.0909 445.714 23.5256 446.288 24.1108C446.862 24.6903 447.149 25.4375 447.149 26.3523C447.149 27.1023 446.933 27.7727 446.501 28.3636C446.075 28.9545 445.479 29.4205 444.712 29.7614C443.945 30.1023 443.053 30.2727 442.036 30.2727C440.7 30.2727 439.595 29.983 438.72 29.4034C437.845 28.8239 437.291 27.9773 437.058 26.8636L438.967 26.3864C439.149 27.0909 439.493 27.6193 439.999 27.9716C440.51 28.3239 441.178 28.5 442.001 28.5C442.939 28.5 443.683 28.3011 444.234 27.9034C444.791 27.5 445.07 27.017 445.07 26.4545C445.07 26 444.911 25.6193 444.592 25.3125C444.274 25 443.786 24.767 443.126 24.6136L440.945 24.1023C439.746 23.8182 438.865 23.3778 438.303 22.7812C437.746 22.179 437.467 21.4261 437.467 20.5227C437.467 19.7841 437.675 19.1307 438.089 18.5625C438.51 17.9943 439.081 17.5483 439.803 17.2244C440.53 16.9006 441.354 16.7386 442.274 16.7386C443.57 16.7386 444.587 17.0227 445.325 17.5909C446.07 18.1591 446.598 18.9091 446.911 19.8409ZM455.665 30.2727C454.404 30.2727 453.316 29.9943 452.401 29.4375C451.492 28.875 450.79 28.0909 450.296 27.0852C449.808 26.0739 449.563 24.8977 449.563 23.5568C449.563 22.2159 449.808 21.0341 450.296 20.0114C450.79 18.983 451.478 18.1818 452.359 17.608C453.245 17.0284 454.279 16.7386 455.461 16.7386C456.143 16.7386 456.816 16.8523 457.481 17.0795C458.146 17.3068 458.751 17.6761 459.296 18.1875C459.842 18.6932 460.276 19.3636 460.6 20.1989C460.924 21.0341 461.086 22.0625 461.086 23.2841V24.1364H450.995V22.3977H459.04C459.04 21.6591 458.893 21 458.597 20.4205C458.308 19.8409 457.893 19.3835 457.353 19.0483C456.819 18.7131 456.188 18.5455 455.461 18.5455C454.66 18.5455 453.967 18.7443 453.381 19.142C452.802 19.5341 452.356 20.0455 452.043 20.6761C451.731 21.3068 451.575 21.983 451.575 22.7045V23.8636C451.575 24.8523 451.745 25.6903 452.086 26.3778C452.433 27.0597 452.913 27.5795 453.526 27.9375C454.14 28.2898 454.853 28.4659 455.665 28.4659C456.194 28.4659 456.671 28.392 457.097 28.2443C457.529 28.0909 457.901 27.8636 458.214 27.5625C458.526 27.2557 458.768 26.875 458.938 26.4205L460.881 26.9659C460.677 27.625 460.333 28.2045 459.85 28.7045C459.367 29.1989 458.771 29.5852 458.06 29.8636C457.35 30.1364 456.552 30.2727 455.665 30.2727ZM469.089 30.2727C467.998 30.2727 467.035 29.9972 466.2 29.446C465.364 28.8892 464.711 28.1051 464.239 27.0938C463.768 26.0767 463.532 24.875 463.532 23.4886C463.532 22.1136 463.768 20.9205 464.239 19.9091C464.711 18.8977 465.367 18.1165 466.208 17.5653C467.049 17.0142 468.021 16.7386 469.123 16.7386C469.975 16.7386 470.648 16.8807 471.143 17.1648C471.643 17.4432 472.023 17.7614 472.285 18.1193C472.552 18.4716 472.759 18.7614 472.907 18.9886H473.077V12.5455H475.089V30H473.146V27.9886H472.907C472.759 28.2273 472.549 28.5284 472.276 28.892C472.004 29.25 471.614 29.571 471.109 29.8551C470.603 30.1335 469.93 30.2727 469.089 30.2727ZM469.362 28.4659C470.168 28.4659 470.85 28.2557 471.407 27.8352C471.964 27.4091 472.387 26.821 472.677 26.071C472.967 25.3153 473.112 24.4432 473.112 23.4545C473.112 22.4773 472.969 21.6222 472.685 20.8892C472.401 20.1506 471.981 19.5767 471.424 19.1676C470.867 18.7528 470.18 18.5455 469.362 18.5455C468.509 18.5455 467.799 18.7642 467.231 19.2017C466.668 19.6335 466.245 20.2216 465.961 20.9659C465.683 21.7045 465.543 22.5341 465.543 23.4545C465.543 24.3864 465.685 25.233 465.969 25.9943C466.259 26.75 466.685 27.3523 467.248 27.8011C467.816 28.2443 468.521 28.4659 469.362 28.4659ZM482.052 27.6136L481.915 28.5341C481.819 29.1818 481.671 29.875 481.472 30.6136C481.279 31.3523 481.077 32.0483 480.867 32.7017C480.657 33.3551 480.484 33.875 480.347 34.2614H478.813C478.887 33.8977 478.984 33.4176 479.103 32.821C479.222 32.2244 479.342 31.5568 479.461 30.8182C479.586 30.0852 479.688 29.3352 479.768 28.5682L479.87 27.6136H482.052ZM501.801 19.8409L499.994 20.3523C499.881 20.0511 499.713 19.7585 499.491 19.4744C499.276 19.1847 498.98 18.946 498.605 18.7585C498.23 18.571 497.75 18.4773 497.165 18.4773C496.364 18.4773 495.696 18.6619 495.162 19.0312C494.634 19.3949 494.369 19.858 494.369 20.4205C494.369 20.9205 494.551 21.3153 494.915 21.6051C495.278 21.8949 495.847 22.1364 496.619 22.3295L498.562 22.8068C499.733 23.0909 500.605 23.5256 501.179 24.1108C501.753 24.6903 502.04 25.4375 502.04 26.3523C502.04 27.1023 501.824 27.7727 501.392 28.3636C500.966 28.9545 500.369 29.4205 499.602 29.7614C498.835 30.1023 497.943 30.2727 496.926 30.2727C495.591 30.2727 494.486 29.983 493.611 29.4034C492.736 28.8239 492.182 27.9773 491.949 26.8636L493.858 26.3864C494.04 27.0909 494.384 27.6193 494.889 27.9716C495.401 28.3239 496.068 28.5 496.892 28.5C497.83 28.5 498.574 28.3011 499.125 27.9034C499.682 27.5 499.96 27.017 499.96 26.4545C499.96 26 499.801 25.6193 499.483 25.3125C499.165 25 498.676 24.767 498.017 24.6136L495.835 24.1023C494.636 23.8182 493.756 23.3778 493.193 22.7812C492.636 22.179 492.358 21.4261 492.358 20.5227C492.358 19.7841 492.565 19.1307 492.98 18.5625C493.401 17.9943 493.972 17.5483 494.693 17.2244C495.42 16.9006 496.244 16.7386 497.165 16.7386C498.46 16.7386 499.477 17.0227 500.216 17.5909C500.96 18.1591 501.489 18.9091 501.801 19.8409ZM510.386 30.2727C509.204 30.2727 508.167 29.9915 507.275 29.429C506.388 28.8665 505.695 28.0795 505.195 27.0682C504.701 26.0568 504.454 24.875 504.454 23.5227C504.454 22.1591 504.701 20.9687 505.195 19.9517C505.695 18.9347 506.388 18.1449 507.275 17.5824C508.167 17.0199 509.204 16.7386 510.386 16.7386C511.567 16.7386 512.602 17.0199 513.488 17.5824C514.38 18.1449 515.073 18.9347 515.567 19.9517C516.067 20.9687 516.317 22.1591 516.317 23.5227C516.317 24.875 516.067 26.0568 515.567 27.0682C515.073 28.0795 514.38 28.8665 513.488 29.429C512.602 29.9915 511.567 30.2727 510.386 30.2727ZM510.386 28.4659C511.283 28.4659 512.022 28.2358 512.602 27.7756C513.181 27.3153 513.61 26.7102 513.888 25.9602C514.167 25.2102 514.306 24.3977 514.306 23.5227C514.306 22.6477 514.167 21.8324 513.888 21.0767C513.61 20.321 513.181 19.7102 512.602 19.2443C512.022 18.7784 511.283 18.5455 510.386 18.5455C509.488 18.5455 508.749 18.7784 508.17 19.2443C507.59 19.7102 507.161 20.321 506.883 21.0767C506.604 21.8324 506.465 22.6477 506.465 23.5227C506.465 24.3977 506.604 25.2102 506.883 25.9602C507.161 26.7102 507.59 27.3153 508.17 27.7756C508.749 28.2358 509.488 28.4659 510.386 28.4659ZM519.388 30V16.9091H521.331V18.9545H521.501C521.774 18.2557 522.214 17.7131 522.822 17.3267C523.43 16.9347 524.161 16.7386 525.013 16.7386C525.876 16.7386 526.595 16.9347 527.169 17.3267C527.749 17.7131 528.2 18.2557 528.524 18.9545H528.661C528.996 18.2784 529.499 17.7415 530.169 17.3438C530.839 16.9403 531.643 16.7386 532.581 16.7386C533.751 16.7386 534.709 17.1051 535.453 17.8381C536.197 18.5653 536.57 19.6989 536.57 21.2386V30H534.558V21.2386C534.558 20.2727 534.294 19.5824 533.766 19.1676C533.237 18.7528 532.615 18.5455 531.899 18.5455C530.979 18.5455 530.266 18.8239 529.76 19.3807C529.254 19.9318 529.001 20.6307 529.001 21.4773V30H526.956V21.0341C526.956 20.2898 526.714 19.6903 526.232 19.2358C525.749 18.7756 525.126 18.5455 524.365 18.5455C523.842 18.5455 523.354 18.6847 522.899 18.9631C522.45 19.2415 522.087 19.6278 521.808 20.1222C521.536 20.6108 521.399 21.1761 521.399 21.8182V30H519.388ZM545.736 30.2727C544.474 30.2727 543.386 29.9943 542.472 29.4375C541.562 28.875 540.861 28.0909 540.366 27.0852C539.878 26.0739 539.634 24.8977 539.634 23.5568C539.634 22.2159 539.878 21.0341 540.366 20.0114C540.861 18.983 541.548 18.1818 542.429 17.608C543.315 17.0284 544.349 16.7386 545.531 16.7386C546.213 16.7386 546.886 16.8523 547.551 17.0795C548.216 17.3068 548.821 17.6761 549.366 18.1875C549.912 18.6932 550.347 19.3636 550.67 20.1989C550.994 21.0341 551.156 22.0625 551.156 23.2841V24.1364H541.065V22.3977H549.111C549.111 21.6591 548.963 21 548.668 20.4205C548.378 19.8409 547.963 19.3835 547.423 19.0483C546.889 18.7131 546.259 18.5455 545.531 18.5455C544.73 18.5455 544.037 18.7443 543.452 19.142C542.872 19.5341 542.426 20.0455 542.114 20.6761C541.801 21.3068 541.645 21.983 541.645 22.7045V23.8636C541.645 24.8523 541.815 25.6903 542.156 26.3778C542.503 27.0597 542.983 27.5795 543.597 27.9375C544.21 28.2898 544.923 28.4659 545.736 28.4659C546.264 28.4659 546.741 28.392 547.168 28.2443C547.599 28.0909 547.972 27.8636 548.284 27.5625C548.597 27.2557 548.838 26.875 549.009 26.4205L550.952 26.9659C550.747 27.625 550.403 28.2045 549.92 28.7045C549.438 29.1989 548.841 29.5852 548.131 29.8636C547.42 30.1364 546.622 30.2727 545.736 30.2727ZM559.909 16.9091V18.6136H553.125V16.9091H559.909ZM555.102 13.7727H557.114V26.25C557.114 26.8182 557.196 27.2443 557.361 27.5284C557.531 27.8068 557.747 27.9943 558.009 28.0909C558.276 28.1818 558.557 28.2273 558.852 28.2273C559.074 28.2273 559.256 28.2159 559.398 28.1932C559.54 28.1648 559.653 28.142 559.739 28.125L560.148 29.9318C560.011 29.983 559.821 30.0341 559.577 30.0852C559.332 30.142 559.023 30.1705 558.648 30.1705C558.08 30.1705 557.523 30.0483 556.977 29.804C556.438 29.5597 555.989 29.1875 555.631 28.6875C555.278 28.1875 555.102 27.5568 555.102 26.7955V13.7727ZM562.935 30V16.9091H564.946V30H562.935ZM563.957 14.7273C563.565 14.7273 563.227 14.5938 562.943 14.3267C562.665 14.0597 562.526 13.7386 562.526 13.3636C562.526 12.9886 562.665 12.6676 562.943 12.4006C563.227 12.1335 563.565 12 563.957 12C564.349 12 564.685 12.1335 564.963 12.4006C565.247 12.6676 565.389 12.9886 565.389 13.3636C565.389 13.7386 565.247 14.0597 564.963 14.3267C564.685 14.5938 564.349 14.7273 563.957 14.7273ZM568.63 30V16.9091H570.573V18.9545H570.744C571.016 18.2557 571.457 17.7131 572.065 17.3267C572.673 16.9347 573.403 16.7386 574.255 16.7386C575.119 16.7386 575.837 16.9347 576.411 17.3267C576.991 17.7131 577.442 18.2557 577.766 18.9545H577.903C578.238 18.2784 578.741 17.7415 579.411 17.3438C580.082 16.9403 580.886 16.7386 581.823 16.7386C582.994 16.7386 583.951 17.1051 584.695 17.8381C585.44 18.5653 585.812 19.6989 585.812 21.2386V30H583.8V21.2386C583.8 20.2727 583.536 19.5824 583.008 19.1676C582.479 18.7528 581.857 18.5455 581.141 18.5455C580.221 18.5455 579.508 18.8239 579.002 19.3807C578.496 19.9318 578.244 20.6307 578.244 21.4773V30H576.198V21.0341C576.198 20.2898 575.957 19.6903 575.474 19.2358C574.991 18.7756 574.369 18.5455 573.607 18.5455C573.085 18.5455 572.596 18.6847 572.141 18.9631C571.692 19.2415 571.329 19.6278 571.05 20.1222C570.778 20.6108 570.641 21.1761 570.641 21.8182V30H568.63ZM594.978 30.2727C593.717 30.2727 592.629 29.9943 591.714 29.4375C590.805 28.875 590.103 28.0909 589.609 27.0852C589.12 26.0739 588.876 24.8977 588.876 23.5568C588.876 22.2159 589.12 21.0341 589.609 20.0114C590.103 18.983 590.79 18.1818 591.671 17.608C592.558 17.0284 593.592 16.7386 594.773 16.7386C595.455 16.7386 596.129 16.8523 596.793 17.0795C597.458 17.3068 598.063 17.6761 598.609 18.1875C599.154 18.6932 599.589 19.3636 599.913 20.1989C600.237 21.0341 600.398 22.0625 600.398 23.2841V24.1364H590.308V22.3977H598.353C598.353 21.6591 598.205 21 597.91 20.4205C597.62 19.8409 597.205 19.3835 596.665 19.0483C596.131 18.7131 595.501 18.5455 594.773 18.5455C593.972 18.5455 593.279 18.7443 592.694 19.142C592.114 19.5341 591.668 20.0455 591.356 20.6761C591.043 21.3068 590.887 21.983 590.887 22.7045V23.8636C590.887 24.8523 591.058 25.6903 591.398 26.3778C591.745 27.0597 592.225 27.5795 592.839 27.9375C593.452 28.2898 594.165 28.4659 594.978 28.4659C595.506 28.4659 595.984 28.392 596.41 28.2443C596.842 28.0909 597.214 27.8636 597.526 27.5625C597.839 27.2557 598.08 26.875 598.251 26.4205L600.194 26.9659C599.989 27.625 599.646 28.2045 599.163 28.7045C598.68 29.1989 598.083 29.5852 597.373 29.8636C596.663 30.1364 595.864 30.2727 594.978 30.2727ZM612.731 19.8409L610.924 20.3523C610.81 20.0511 610.643 19.7585 610.421 19.4744C610.205 19.1847 609.91 18.946 609.535 18.7585C609.16 18.571 608.68 18.4773 608.094 18.4773C607.293 18.4773 606.626 18.6619 606.092 19.0312C605.563 19.3949 605.299 19.858 605.299 20.4205C605.299 20.9205 605.481 21.3153 605.844 21.6051C606.208 21.8949 606.776 22.1364 607.549 22.3295L609.492 22.8068C610.663 23.0909 611.535 23.5256 612.109 24.1108C612.683 24.6903 612.969 25.4375 612.969 26.3523C612.969 27.1023 612.754 27.7727 612.322 28.3636C611.896 28.9545 611.299 29.4205 610.532 29.7614C609.765 30.1023 608.873 30.2727 607.856 30.2727C606.521 30.2727 605.415 29.983 604.54 29.4034C603.665 28.8239 603.112 27.9773 602.879 26.8636L604.788 26.3864C604.969 27.0909 605.313 27.6193 605.819 27.9716C606.33 28.3239 606.998 28.5 607.822 28.5C608.759 28.5 609.504 28.3011 610.055 27.9034C610.612 27.5 610.89 27.017 610.89 26.4545C610.89 26 610.731 25.6193 610.413 25.3125C610.094 25 609.606 24.767 608.947 24.6136L606.765 24.1023C605.566 23.8182 604.685 23.3778 604.123 22.7812C603.566 22.179 603.288 21.4261 603.288 20.5227C603.288 19.7841 603.495 19.1307 603.91 18.5625C604.33 17.9943 604.901 17.5483 605.623 17.2244C606.35 16.9006 607.174 16.7386 608.094 16.7386C609.39 16.7386 610.407 17.0227 611.146 17.5909C611.89 18.1591 612.418 18.9091 612.731 19.8409ZM623.02 30V12.5455H625.031V18.9886H625.202C625.349 18.7614 625.554 18.4716 625.815 18.1193C626.082 17.7614 626.463 17.4432 626.957 17.1648C627.457 16.8807 628.134 16.7386 628.986 16.7386C630.088 16.7386 631.06 17.0142 631.901 17.5653C632.741 18.1165 633.398 18.8977 633.869 19.9091C634.341 20.9205 634.577 22.1136 634.577 23.4886C634.577 24.875 634.341 26.0767 633.869 27.0938C633.398 28.1051 632.744 28.8892 631.909 29.446C631.074 29.9972 630.111 30.2727 629.02 30.2727C628.179 30.2727 627.506 30.1335 627 29.8551C626.494 29.571 626.105 29.25 625.832 28.892C625.56 28.5284 625.349 28.2273 625.202 27.9886H624.963V30H623.02ZM624.997 23.4545C624.997 24.4432 625.142 25.3153 625.432 26.071C625.722 26.821 626.145 27.4091 626.702 27.8352C627.259 28.2557 627.94 28.4659 628.747 28.4659C629.588 28.4659 630.29 28.2443 630.852 27.8011C631.42 27.3523 631.847 26.75 632.131 25.9943C632.42 25.233 632.565 24.3864 632.565 23.4545C632.565 22.5341 632.423 21.7045 632.139 20.9659C631.861 20.2216 631.438 19.6335 630.869 19.2017C630.307 18.7642 629.599 18.5455 628.747 18.5455C627.929 18.5455 627.241 18.7528 626.685 19.1676C626.128 19.5767 625.707 20.1506 625.423 20.8892C625.139 21.6222 624.997 22.4773 624.997 23.4545ZM637.653 30V16.9091H639.665V30H637.653ZM638.676 14.7273C638.284 14.7273 637.946 14.5938 637.662 14.3267C637.384 14.0597 637.244 13.7386 637.244 13.3636C637.244 12.9886 637.384 12.6676 637.662 12.4006C637.946 12.1335 638.284 12 638.676 12C639.068 12 639.403 12.1335 639.682 12.4006C639.966 12.6676 640.108 12.9886 640.108 13.3636C640.108 13.7386 639.966 14.0597 639.682 14.3267C639.403 14.5938 639.068 14.7273 638.676 14.7273ZM649.042 16.9091V18.6136H642.258V16.9091H649.042ZM644.235 13.7727H646.246V26.25C646.246 26.8182 646.329 27.2443 646.494 27.5284C646.664 27.8068 646.88 27.9943 647.141 28.0909C647.408 28.1818 647.69 28.2273 647.985 28.2273C648.207 28.2273 648.388 28.2159 648.531 28.1932C648.673 28.1648 648.786 28.142 648.871 28.125L649.281 29.9318C649.144 29.983 648.954 30.0341 648.71 30.0852C648.465 30.142 648.156 30.1705 647.781 30.1705C647.212 30.1705 646.656 30.0483 646.11 29.804C645.57 29.5597 645.121 29.1875 644.763 28.6875C644.411 28.1875 644.235 27.5568 644.235 26.7955V13.7727ZM657.761 16.9091V18.6136H650.977V16.9091H657.761ZM652.954 13.7727H654.965V26.25C654.965 26.8182 655.048 27.2443 655.212 27.5284C655.383 27.8068 655.599 27.9943 655.86 28.0909C656.127 28.1818 656.408 28.2273 656.704 28.2273C656.925 28.2273 657.107 28.2159 657.249 28.1932C657.391 28.1648 657.505 28.142 657.59 28.125L657.999 29.9318C657.863 29.983 657.673 30.0341 657.428 30.0852C657.184 30.142 656.874 30.1705 656.499 30.1705C655.931 30.1705 655.374 30.0483 654.829 29.804C654.289 29.5597 653.84 29.1875 653.482 28.6875C653.13 28.1875 652.954 27.5568 652.954 26.7955V13.7727ZM666.134 30.2727C664.873 30.2727 663.785 29.9943 662.87 29.4375C661.961 28.875 661.259 28.0909 660.765 27.0852C660.276 26.0739 660.032 24.8977 660.032 23.5568C660.032 22.2159 660.276 21.0341 660.765 20.0114C661.259 18.983 661.947 18.1818 662.827 17.608C663.714 17.0284 664.748 16.7386 665.93 16.7386C666.612 16.7386 667.285 16.8523 667.95 17.0795C668.614 17.3068 669.219 17.6761 669.765 18.1875C670.31 18.6932 670.745 19.3636 671.069 20.1989C671.393 21.0341 671.555 22.0625 671.555 23.2841V24.1364H661.464V22.3977H669.509C669.509 21.6591 669.362 21 669.066 20.4205C668.776 19.8409 668.362 19.3835 667.822 19.0483C667.288 18.7131 666.657 18.5455 665.93 18.5455C665.129 18.5455 664.435 18.7443 663.85 19.142C663.271 19.5341 662.825 20.0455 662.512 20.6761C662.2 21.3068 662.043 21.983 662.043 22.7045V23.8636C662.043 24.8523 662.214 25.6903 662.555 26.3778C662.901 27.0597 663.381 27.5795 663.995 27.9375C664.609 28.2898 665.322 28.4659 666.134 28.4659C666.663 28.4659 667.14 28.392 667.566 28.2443C667.998 28.0909 668.37 27.8636 668.683 27.5625C668.995 27.2557 669.237 26.875 669.407 26.4205L671.35 26.9659C671.146 27.625 670.802 28.2045 670.319 28.7045C669.836 29.1989 669.239 29.5852 668.529 29.8636C667.819 30.1364 667.021 30.2727 666.134 30.2727ZM674.614 30V16.9091H676.558V18.8864H676.694C676.933 18.2386 677.364 17.7131 677.989 17.3097C678.614 16.9062 679.319 16.7045 680.103 16.7045C680.251 16.7045 680.435 16.7074 680.657 16.7131C680.879 16.7187 681.046 16.7273 681.16 16.7386V18.7841C681.092 18.767 680.935 18.7415 680.691 18.7074C680.452 18.6676 680.2 18.6477 679.933 18.6477C679.296 18.6477 678.728 18.7812 678.228 19.0483C677.734 19.3097 677.342 19.6733 677.052 20.1392C676.768 20.5994 676.626 21.125 676.626 21.7159V30H674.614ZM685.044 27.6136L684.908 28.5341C684.811 29.1818 684.663 29.875 684.464 30.6136C684.271 31.3523 684.07 32.0483 683.859 32.7017C683.649 33.3551 683.476 33.875 683.339 34.2614H681.805C681.879 33.8977 681.976 33.4176 682.095 32.821C682.214 32.2244 682.334 31.5568 682.453 30.8182C682.578 30.0852 682.68 29.3352 682.76 28.5682L682.862 27.6136H685.044ZM699.373 30.3068C698.543 30.3068 697.79 30.1506 697.114 29.8381C696.438 29.5199 695.901 29.0625 695.504 28.4659C695.106 27.8636 694.907 27.1364 694.907 26.2841C694.907 25.5341 695.055 24.9261 695.35 24.4602C695.646 23.9886 696.04 23.6193 696.535 23.3523C697.029 23.0852 697.575 22.8864 698.171 22.7557C698.773 22.6193 699.379 22.5114 699.987 22.4318C700.782 22.3295 701.427 22.2528 701.921 22.2017C702.421 22.1449 702.785 22.0511 703.012 21.9205C703.245 21.7898 703.362 21.5625 703.362 21.2386V21.1705C703.362 20.3295 703.131 19.6761 702.671 19.2102C702.217 18.7443 701.526 18.5114 700.6 18.5114C699.64 18.5114 698.887 18.7216 698.342 19.142C697.796 19.5625 697.413 20.0114 697.191 20.4886L695.282 19.8068C695.623 19.0114 696.077 18.392 696.646 17.9489C697.219 17.5 697.844 17.1875 698.521 17.0114C699.202 16.8295 699.873 16.7386 700.532 16.7386C700.952 16.7386 701.435 16.7898 701.981 16.892C702.532 16.9886 703.063 17.1903 703.575 17.4972C704.092 17.804 704.521 18.267 704.862 18.8864C705.202 19.5057 705.373 20.3352 705.373 21.375V30H703.362V28.2273H703.259C703.123 28.5114 702.896 28.8153 702.577 29.1392C702.259 29.4631 701.836 29.7386 701.308 29.9659C700.779 30.1932 700.134 30.3068 699.373 30.3068ZM699.68 28.5C700.475 28.5 701.146 28.3438 701.691 28.0312C702.242 27.7188 702.657 27.3153 702.935 26.821C703.219 26.3267 703.362 25.8068 703.362 25.2614V23.4205C703.276 23.5227 703.089 23.6165 702.799 23.7017C702.515 23.7812 702.185 23.8523 701.81 23.9148C701.441 23.9716 701.08 24.0227 700.728 24.0682C700.381 24.108 700.1 24.142 699.884 24.1705C699.362 24.2386 698.873 24.3494 698.418 24.5028C697.969 24.6506 697.606 24.875 697.327 25.1761C697.055 25.4716 696.918 25.875 696.918 26.3864C696.918 27.0852 697.177 27.6136 697.694 27.9716C698.217 28.3239 698.879 28.5 699.68 28.5ZM711.055 12.5455V30H709.044V12.5455H711.055ZM717.705 30L713.717 16.9091H715.83L718.66 26.9318H718.796L721.592 16.9091H723.739L726.501 26.8977H726.637L729.467 16.9091H731.58L727.592 30H725.614L722.751 19.9432H722.546L719.683 30H717.705ZM738.092 30.3068C737.262 30.3068 736.509 30.1506 735.833 29.8381C735.157 29.5199 734.62 29.0625 734.222 28.4659C733.825 27.8636 733.626 27.1364 733.626 26.2841C733.626 25.5341 733.773 24.9261 734.069 24.4602C734.364 23.9886 734.759 23.6193 735.254 23.3523C735.748 23.0852 736.293 22.8864 736.89 22.7557C737.492 22.6193 738.097 22.5114 738.705 22.4318C739.501 22.3295 740.146 22.2528 740.64 22.2017C741.14 22.1449 741.504 22.0511 741.731 21.9205C741.964 21.7898 742.08 21.5625 742.08 21.2386V21.1705C742.08 20.3295 741.85 19.6761 741.39 19.2102C740.935 18.7443 740.245 18.5114 739.319 18.5114C738.359 18.5114 737.606 18.7216 737.06 19.142C736.515 19.5625 736.131 20.0114 735.91 20.4886L734.001 19.8068C734.342 19.0114 734.796 18.392 735.364 17.9489C735.938 17.5 736.563 17.1875 737.239 17.0114C737.921 16.8295 738.592 16.7386 739.251 16.7386C739.671 16.7386 740.154 16.7898 740.7 16.892C741.251 16.9886 741.782 17.1903 742.293 17.4972C742.81 17.804 743.239 18.267 743.58 18.8864C743.921 19.5057 744.092 20.3352 744.092 21.375V30H742.08V28.2273H741.978C741.842 28.5114 741.614 28.8153 741.296 29.1392C740.978 29.4631 740.555 29.7386 740.026 29.9659C739.498 30.1932 738.853 30.3068 738.092 30.3068ZM738.398 28.5C739.194 28.5 739.864 28.3438 740.41 28.0312C740.961 27.7188 741.376 27.3153 741.654 26.821C741.938 26.3267 742.08 25.8068 742.08 25.2614V23.4205C741.995 23.5227 741.808 23.6165 741.518 23.7017C741.234 23.7812 740.904 23.8523 740.529 23.9148C740.16 23.9716 739.799 24.0227 739.447 24.0682C739.1 24.108 738.819 24.142 738.603 24.1705C738.08 24.2386 737.592 24.3494 737.137 24.5028C736.688 24.6506 736.325 24.875 736.046 25.1761C735.773 25.4716 735.637 25.875 735.637 26.3864C735.637 27.0852 735.896 27.6136 736.413 27.9716C736.935 28.3239 737.597 28.5 738.398 28.5ZM748.589 34.9091C748.249 34.9091 747.945 34.8807 747.678 34.8239C747.411 34.7727 747.226 34.7216 747.124 34.6705L747.635 32.8977C748.124 33.0227 748.555 33.0682 748.93 33.0341C749.305 33 749.638 32.8324 749.928 32.5312C750.223 32.2358 750.493 31.7557 750.737 31.0909L751.112 30.0682L746.271 16.9091H748.453L752.067 27.3409H752.203L755.817 16.9091H757.999L752.442 31.9091C752.192 32.5852 751.882 33.1449 751.513 33.5881C751.143 34.0369 750.714 34.3693 750.226 34.5852C749.743 34.8011 749.197 34.9091 748.589 34.9091ZM769.926 19.8409L768.119 20.3523C768.006 20.0511 767.838 19.7585 767.616 19.4744C767.401 19.1847 767.105 18.946 766.73 18.7585C766.355 18.571 765.875 18.4773 765.29 18.4773C764.489 18.4773 763.821 18.6619 763.287 19.0312C762.759 19.3949 762.494 19.858 762.494 20.4205C762.494 20.9205 762.676 21.3153 763.04 21.6051C763.403 21.8949 763.972 22.1364 764.744 22.3295L766.688 22.8068C767.858 23.0909 768.73 23.5256 769.304 24.1108C769.878 24.6903 770.165 25.4375 770.165 26.3523C770.165 27.1023 769.949 27.7727 769.517 28.3636C769.091 28.9545 768.494 29.4205 767.727 29.7614C766.96 30.1023 766.068 30.2727 765.051 30.2727C763.716 30.2727 762.611 29.983 761.736 29.4034C760.861 28.8239 760.307 27.9773 760.074 26.8636L761.983 26.3864C762.165 27.0909 762.509 27.6193 763.014 27.9716C763.526 28.3239 764.193 28.5 765.017 28.5C765.955 28.5 766.699 28.3011 767.25 27.9034C767.807 27.5 768.085 27.017 768.085 26.4545C768.085 26 767.926 25.6193 767.608 25.3125C767.29 25 766.801 24.767 766.142 24.6136L763.96 24.1023C762.761 23.8182 761.881 23.3778 761.318 22.7812C760.761 22.179 760.483 21.4261 760.483 20.5227C760.483 19.7841 760.69 19.1307 761.105 18.5625C761.526 17.9943 762.097 17.5483 762.818 17.2244C763.545 16.9006 764.369 16.7386 765.29 16.7386C766.585 16.7386 767.602 17.0227 768.341 17.5909C769.085 18.1591 769.614 18.9091 769.926 19.8409ZM781.954 22.125V30H779.942V16.9091H781.886V18.9545H782.056C782.363 18.2898 782.829 17.7557 783.454 17.3523C784.079 16.9432 784.886 16.7386 785.874 16.7386C786.761 16.7386 787.536 16.9205 788.201 17.2841C788.866 17.642 789.383 18.1875 789.752 18.9205C790.121 19.6477 790.306 20.5682 790.306 21.6818V30H788.295V21.8182C788.295 20.7898 788.028 19.9886 787.494 19.4148C786.96 18.8352 786.227 18.5455 785.295 18.5455C784.653 18.5455 784.079 18.6847 783.573 18.9631C783.073 19.2415 782.678 19.6477 782.388 20.1818C782.099 20.7159 781.954 21.3636 781.954 22.125ZM799.47 30.2727C798.209 30.2727 797.121 29.9943 796.206 29.4375C795.297 28.875 794.595 28.0909 794.101 27.0852C793.612 26.0739 793.368 24.8977 793.368 23.5568C793.368 22.2159 793.612 21.0341 794.101 20.0114C794.595 18.983 795.283 18.1818 796.163 17.608C797.05 17.0284 798.084 16.7386 799.266 16.7386C799.947 16.7386 800.621 16.8523 801.286 17.0795C801.95 17.3068 802.555 17.6761 803.101 18.1875C803.646 18.6932 804.081 19.3636 804.405 20.1989C804.729 21.0341 804.891 22.0625 804.891 23.2841V24.1364H794.8V22.3977H802.845C802.845 21.6591 802.697 21 802.402 20.4205C802.112 19.8409 801.697 19.3835 801.158 19.0483C800.624 18.7131 799.993 18.5455 799.266 18.5455C798.464 18.5455 797.771 18.7443 797.186 19.142C796.607 19.5341 796.161 20.0455 795.848 20.6761C795.536 21.3068 795.379 21.983 795.379 22.7045V23.8636C795.379 24.8523 795.55 25.6903 795.891 26.3778C796.237 27.0597 796.717 27.5795 797.331 27.9375C797.945 28.2898 798.658 28.4659 799.47 28.4659C799.999 28.4659 800.476 28.392 800.902 28.2443C801.334 28.0909 801.706 27.8636 802.018 27.5625C802.331 27.2557 802.572 26.875 802.743 26.4205L804.686 26.9659C804.482 27.625 804.138 28.2045 803.655 28.7045C803.172 29.1989 802.575 29.5852 801.865 29.8636C801.155 30.1364 800.357 30.2727 799.47 30.2727ZM813.268 30.2727C812.041 30.2727 810.984 29.983 810.098 29.4034C809.212 28.8239 808.53 28.0256 808.053 27.0085C807.575 25.9915 807.337 24.8295 807.337 23.5227C807.337 22.1932 807.581 21.0199 808.07 20.0028C808.564 18.9801 809.251 18.1818 810.132 17.608C811.018 17.0284 812.053 16.7386 813.234 16.7386C814.155 16.7386 814.984 16.9091 815.723 17.25C816.462 17.5909 817.067 18.0682 817.538 18.6818C818.01 19.2955 818.303 20.0114 818.416 20.8295H816.405C816.251 20.233 815.911 19.7045 815.382 19.2443C814.859 18.7784 814.155 18.5455 813.268 18.5455C812.484 18.5455 811.797 18.75 811.206 19.1591C810.621 19.5625 810.163 20.1335 809.834 20.8722C809.51 21.6051 809.348 22.4659 809.348 23.4545C809.348 24.4659 809.507 25.3466 809.825 26.0966C810.149 26.8466 810.604 27.429 811.189 27.8438C811.78 28.2585 812.473 28.4659 813.268 28.4659C813.791 28.4659 814.266 28.375 814.692 28.1932C815.118 28.0114 815.479 27.75 815.774 27.4091C816.07 27.0682 816.28 26.6591 816.405 26.1818H818.416C818.303 26.9545 818.021 27.6506 817.572 28.2699C817.129 28.8835 816.541 29.3722 815.808 29.7358C815.081 30.0938 814.234 30.2727 813.268 30.2727ZM826.845 30.2727C825.584 30.2727 824.496 29.9943 823.581 29.4375C822.672 28.875 821.97 28.0909 821.476 27.0852C820.987 26.0739 820.743 24.8977 820.743 23.5568C820.743 22.2159 820.987 21.0341 821.476 20.0114C821.97 18.983 822.658 18.1818 823.538 17.608C824.425 17.0284 825.459 16.7386 826.641 16.7386C827.322 16.7386 827.996 16.8523 828.661 17.0795C829.325 17.3068 829.93 17.6761 830.476 18.1875C831.021 18.6932 831.456 19.3636 831.78 20.1989C832.104 21.0341 832.266 22.0625 832.266 23.2841V24.1364H822.175V22.3977H830.22C830.22 21.6591 830.072 21 829.777 20.4205C829.487 19.8409 829.072 19.3835 828.533 19.0483C827.999 18.7131 827.368 18.5455 826.641 18.5455C825.839 18.5455 825.146 18.7443 824.561 19.142C823.982 19.5341 823.536 20.0455 823.223 20.6761C822.911 21.3068 822.754 21.983 822.754 22.7045V23.8636C822.754 24.8523 822.925 25.6903 823.266 26.3778C823.612 27.0597 824.092 27.5795 824.706 27.9375C825.32 28.2898 826.033 28.4659 826.845 28.4659C827.374 28.4659 827.851 28.392 828.277 28.2443C828.709 28.0909 829.081 27.8636 829.393 27.5625C829.706 27.2557 829.947 26.875 830.118 26.4205L832.061 26.9659C831.857 27.625 831.513 28.2045 831.03 28.7045C830.547 29.1989 829.95 29.5852 829.24 29.8636C828.53 30.1364 827.732 30.2727 826.845 30.2727ZM844.598 19.8409L842.791 20.3523C842.678 20.0511 842.51 19.7585 842.288 19.4744C842.072 19.1847 841.777 18.946 841.402 18.7585C841.027 18.571 840.547 18.4773 839.962 18.4773C839.161 18.4773 838.493 18.6619 837.959 19.0312C837.43 19.3949 837.166 19.858 837.166 20.4205C837.166 20.9205 837.348 21.3153 837.712 21.6051C838.075 21.8949 838.643 22.1364 839.416 22.3295L841.359 22.8068C842.53 23.0909 843.402 23.5256 843.976 24.1108C844.55 24.6903 844.837 25.4375 844.837 26.3523C844.837 27.1023 844.621 27.7727 844.189 28.3636C843.763 28.9545 843.166 29.4205 842.399 29.7614C841.632 30.1023 840.74 30.2727 839.723 30.2727C838.388 30.2727 837.283 29.983 836.408 29.4034C835.533 28.8239 834.979 27.9773 834.746 26.8636L836.655 26.3864C836.837 27.0909 837.18 27.6193 837.686 27.9716C838.197 28.3239 838.865 28.5 839.689 28.5C840.626 28.5 841.371 28.3011 841.922 27.9034C842.479 27.5 842.757 27.017 842.757 26.4545C842.757 26 842.598 25.6193 842.28 25.3125C841.962 25 841.473 24.767 840.814 24.6136L838.632 24.1023C837.433 23.8182 836.553 23.3778 835.99 22.7812C835.433 22.179 835.155 21.4261 835.155 20.5227C835.155 19.7841 835.362 19.1307 835.777 18.5625C836.197 17.9943 836.768 17.5483 837.49 17.2244C838.217 16.9006 839.041 16.7386 839.962 16.7386C841.257 16.7386 842.274 17.0227 843.013 17.5909C843.757 18.1591 844.286 18.9091 844.598 19.8409ZM857.137 19.8409L855.33 20.3523C855.217 20.0511 855.049 19.7585 854.827 19.4744C854.612 19.1847 854.316 18.946 853.941 18.7585C853.566 18.571 853.086 18.4773 852.501 18.4773C851.7 18.4773 851.032 18.6619 850.498 19.0312C849.969 19.3949 849.705 19.858 849.705 20.4205C849.705 20.9205 849.887 21.3153 850.251 21.6051C850.614 21.8949 851.183 22.1364 851.955 22.3295L853.898 22.8068C855.069 23.0909 855.941 23.5256 856.515 24.1108C857.089 24.6903 857.376 25.4375 857.376 26.3523C857.376 27.1023 857.16 27.7727 856.728 28.3636C856.302 28.9545 855.705 29.4205 854.938 29.7614C854.171 30.1023 853.279 30.2727 852.262 30.2727C850.927 30.2727 849.822 29.983 848.947 29.4034C848.072 28.8239 847.518 27.9773 847.285 26.8636L849.194 26.3864C849.376 27.0909 849.719 27.6193 850.225 27.9716C850.737 28.3239 851.404 28.5 852.228 28.5C853.165 28.5 853.91 28.3011 854.461 27.9034C855.018 27.5 855.296 27.017 855.296 26.4545C855.296 26 855.137 25.6193 854.819 25.3125C854.501 25 854.012 24.767 853.353 24.6136L851.171 24.1023C849.972 23.8182 849.092 23.3778 848.529 22.7812C847.972 22.179 847.694 21.4261 847.694 20.5227C847.694 19.7841 847.901 19.1307 848.316 18.5625C848.737 17.9943 849.308 17.5483 850.029 17.2244C850.756 16.9006 851.58 16.7386 852.501 16.7386C853.796 16.7386 854.813 17.0227 855.552 17.5909C856.296 18.1591 856.825 18.9091 857.137 19.8409ZM864.256 30.3068C863.426 30.3068 862.673 30.1506 861.997 29.8381C861.321 29.5199 860.784 29.0625 860.386 28.4659C859.989 27.8636 859.79 27.1364 859.79 26.2841C859.79 25.5341 859.938 24.9261 860.233 24.4602C860.528 23.9886 860.923 23.6193 861.418 23.3523C861.912 23.0852 862.457 22.8864 863.054 22.7557C863.656 22.6193 864.261 22.5114 864.869 22.4318C865.665 22.3295 866.31 22.2528 866.804 22.2017C867.304 22.1449 867.668 22.0511 867.895 21.9205C868.128 21.7898 868.244 21.5625 868.244 21.2386V21.1705C868.244 20.3295 868.014 19.6761 867.554 19.2102C867.099 18.7443 866.409 18.5114 865.483 18.5114C864.523 18.5114 863.77 18.7216 863.224 19.142C862.679 19.5625 862.295 20.0114 862.074 20.4886L860.165 19.8068C860.506 19.0114 860.96 18.392 861.528 17.9489C862.102 17.5 862.727 17.1875 863.403 17.0114C864.085 16.8295 864.756 16.7386 865.415 16.7386C865.835 16.7386 866.318 16.7898 866.864 16.892C867.415 16.9886 867.946 17.1903 868.457 17.4972C868.974 17.804 869.403 18.267 869.744 18.8864C870.085 19.5057 870.256 20.3352 870.256 21.375V30H868.244V28.2273H868.142C868.006 28.5114 867.778 28.8153 867.46 29.1392C867.142 29.4631 866.719 29.7386 866.19 29.9659C865.662 30.1932 865.017 30.3068 864.256 30.3068ZM864.562 28.5C865.358 28.5 866.028 28.3438 866.574 28.0312C867.125 27.7188 867.54 27.3153 867.818 26.821C868.102 26.3267 868.244 25.8068 868.244 25.2614V23.4205C868.159 23.5227 867.972 23.6165 867.682 23.7017C867.398 23.7812 867.068 23.8523 866.693 23.9148C866.324 23.9716 865.963 24.0227 865.611 24.0682C865.264 24.108 864.983 24.142 864.767 24.1705C864.244 24.2386 863.756 24.3494 863.301 24.5028C862.852 24.6506 862.489 24.875 862.21 25.1761C861.938 25.4716 861.801 25.875 861.801 26.3864C861.801 27.0852 862.06 27.6136 862.577 27.9716C863.099 28.3239 863.761 28.5 864.562 28.5ZM873.927 30V16.9091H875.87V18.8864H876.006C876.245 18.2386 876.677 17.7131 877.302 17.3097C877.927 16.9062 878.631 16.7045 879.415 16.7045C879.563 16.7045 879.748 16.7074 879.969 16.7131C880.191 16.7187 880.359 16.7273 880.472 16.7386V18.7841C880.404 18.767 880.248 18.7415 880.004 18.7074C879.765 18.6676 879.512 18.6477 879.245 18.6477C878.609 18.6477 878.04 18.7812 877.54 19.0483C877.046 19.3097 876.654 19.6733 876.364 20.1392C876.08 20.5994 875.938 21.125 875.938 21.7159V30H873.927ZM884.55 34.9091C884.21 34.9091 883.906 34.8807 883.638 34.8239C883.371 34.7727 883.187 34.7216 883.085 34.6705L883.596 32.8977C884.085 33.0227 884.516 33.0682 884.891 33.0341C885.266 33 885.599 32.8324 885.888 32.5312C886.184 32.2358 886.454 31.7557 886.698 31.0909L887.073 30.0682L882.232 16.9091H884.414L888.028 27.3409H888.164L891.778 16.9091H893.96L888.403 31.9091C888.153 32.5852 887.843 33.1449 887.474 33.5881C887.104 34.0369 886.675 34.3693 886.187 34.5852C885.704 34.8011 885.158 34.9091 884.55 34.9091ZM897.26 30.1364C896.839 30.1364 896.479 29.9858 896.178 29.6847C895.876 29.3835 895.726 29.0227 895.726 28.6023C895.726 28.1818 895.876 27.821 896.178 27.5199C896.479 27.2187 896.839 27.0682 897.26 27.0682C897.68 27.0682 898.041 27.2187 898.342 27.5199C898.643 27.821 898.794 28.1818 898.794 28.6023C898.794 28.8807 898.723 29.1364 898.581 29.3693C898.445 29.6023 898.26 29.7898 898.027 29.9318C897.8 30.0682 897.544 30.1364 897.26 30.1364Z" fill="#3E2522"/>
</svg>
