<svg width="933" height="40" viewBox="0 0 933 40" fill="none" xmlns="http://www.w3.org/2000/svg">
<rect x="1" y="1" width="931" height="38" rx="19" stroke="#3D1F1A" stroke-width="2"/>
<path d="M91.8295 27H89.6136L96.0227 9.54545H98.2045L104.614 27H102.398L97.1818 12.3068H97.0455L91.8295 27ZM92.6477 20.1818H101.58V22.0568H92.6477V20.1818ZM123.082 16.8409L121.276 17.3523C121.162 17.0511 120.994 16.7585 120.773 16.4744C120.557 16.1847 120.261 15.946 119.886 15.7585C119.511 15.571 119.031 15.4773 118.446 15.4773C117.645 15.4773 116.977 15.6619 116.443 16.0312C115.915 16.3949 115.651 16.858 115.651 17.4205C115.651 17.9205 115.832 18.3153 116.196 18.6051C116.56 18.8949 117.128 19.1364 117.901 19.3295L119.844 19.8068C121.014 20.0909 121.886 20.5256 122.46 21.1108C123.034 21.6903 123.321 22.4375 123.321 23.3523C123.321 24.1023 123.105 24.7727 122.673 25.3636C122.247 25.9545 121.651 26.4205 120.884 26.7614C120.116 27.1023 119.224 27.2727 118.207 27.2727C116.872 27.2727 115.767 26.983 114.892 26.4034C114.017 25.8239 113.463 24.9773 113.23 23.8636L115.139 23.3864C115.321 24.0909 115.665 24.6193 116.17 24.9716C116.682 25.3239 117.349 25.5 118.173 25.5C119.111 25.5 119.855 25.3011 120.406 24.9034C120.963 24.5 121.241 24.017 121.241 23.4545C121.241 23 121.082 22.6193 120.764 22.3125C120.446 22 119.957 21.767 119.298 21.6136L117.116 21.1023C115.918 20.8182 115.037 20.3778 114.474 19.7812C113.918 19.179 113.639 18.4261 113.639 17.5227C113.639 16.7841 113.847 16.1307 114.261 15.5625C114.682 14.9943 115.253 14.5483 115.974 14.2244C116.702 13.9006 117.526 13.7386 118.446 13.7386C119.741 13.7386 120.759 14.0227 121.497 14.5909C122.241 15.1591 122.77 15.9091 123.082 16.8409ZM128.36 9.54545V27H126.349V9.54545H128.36ZM137.362 27.2727C136.18 27.2727 135.143 26.9915 134.251 26.429C133.365 25.8665 132.672 25.0795 132.172 24.0682C131.678 23.0568 131.43 21.875 131.43 20.5227C131.43 19.1591 131.678 17.9687 132.172 16.9517C132.672 15.9347 133.365 15.1449 134.251 14.5824C135.143 14.0199 136.18 13.7386 137.362 13.7386C138.544 13.7386 139.578 14.0199 140.464 14.5824C141.357 15.1449 142.05 15.9347 142.544 16.9517C143.044 17.9687 143.294 19.1591 143.294 20.5227C143.294 21.875 143.044 23.0568 142.544 24.0682C142.05 25.0795 141.357 25.8665 140.464 26.429C139.578 26.9915 138.544 27.2727 137.362 27.2727ZM137.362 25.4659C138.26 25.4659 138.999 25.2358 139.578 24.7756C140.158 24.3153 140.587 23.7102 140.865 22.9602C141.143 22.2102 141.283 21.3977 141.283 20.5227C141.283 19.6477 141.143 18.8324 140.865 18.0767C140.587 17.321 140.158 16.7102 139.578 16.2443C138.999 15.7784 138.26 15.5455 137.362 15.5455C136.464 15.5455 135.726 15.7784 135.146 16.2443C134.567 16.7102 134.138 17.321 133.859 18.0767C133.581 18.8324 133.442 19.6477 133.442 20.5227C133.442 21.3977 133.581 22.2102 133.859 22.9602C134.138 23.7102 134.567 24.3153 135.146 24.7756C135.726 25.2358 136.464 25.4659 137.362 25.4659ZM148.885 27L144.896 13.9091H147.01L149.839 23.9318H149.976L152.771 13.9091H154.919L157.68 23.8977H157.817L160.646 13.9091H162.76L158.771 27H156.794L153.93 16.9432H153.726L150.862 27H148.885ZM172.919 18.5795V20.4545H165.283V18.5795H172.919ZM185.731 16.8409L183.924 17.3523C183.81 17.0511 183.643 16.7585 183.421 16.4744C183.205 16.1847 182.91 15.946 182.535 15.7585C182.16 15.571 181.68 15.4773 181.094 15.4773C180.293 15.4773 179.626 15.6619 179.092 16.0312C178.563 16.3949 178.299 16.858 178.299 17.4205C178.299 17.9205 178.481 18.3153 178.844 18.6051C179.208 18.8949 179.776 19.1364 180.549 19.3295L182.492 19.8068C183.663 20.0909 184.535 20.5256 185.109 21.1108C185.683 21.6903 185.969 22.4375 185.969 23.3523C185.969 24.1023 185.754 24.7727 185.322 25.3636C184.896 25.9545 184.299 26.4205 183.532 26.7614C182.765 27.1023 181.873 27.2727 180.856 27.2727C179.521 27.2727 178.415 26.983 177.54 26.4034C176.665 25.8239 176.112 24.9773 175.879 23.8636L177.788 23.3864C177.969 24.0909 178.313 24.6193 178.819 24.9716C179.33 25.3239 179.998 25.5 180.822 25.5C181.759 25.5 182.504 25.3011 183.055 24.9034C183.612 24.5 183.89 24.017 183.89 23.4545C183.89 23 183.731 22.6193 183.413 22.3125C183.094 22 182.606 21.767 181.947 21.6136L179.765 21.1023C178.566 20.8182 177.685 20.3778 177.123 19.7812C176.566 19.179 176.288 18.4261 176.288 17.5227C176.288 16.7841 176.495 16.1307 176.91 15.5625C177.33 14.9943 177.901 14.5483 178.623 14.2244C179.35 13.9006 180.174 13.7386 181.094 13.7386C182.39 13.7386 183.407 14.0227 184.146 14.5909C184.89 15.1591 185.418 15.9091 185.731 16.8409ZM188.997 27V13.9091H191.009V27H188.997ZM190.02 11.7273C189.628 11.7273 189.29 11.5938 189.006 11.3267C188.727 11.0597 188.588 10.7386 188.588 10.3636C188.588 9.98864 188.727 9.66761 189.006 9.40057C189.29 9.13352 189.628 9 190.02 9C190.412 9 190.747 9.13352 191.026 9.40057C191.31 9.66761 191.452 9.98864 191.452 10.3636C191.452 10.7386 191.31 11.0597 191.026 11.3267C190.747 11.5938 190.412 11.7273 190.02 11.7273ZM194.692 31.9091V13.9091H196.636V15.9886H196.874C197.022 15.7614 197.227 15.4716 197.488 15.1193C197.755 14.7614 198.136 14.4432 198.63 14.1648C199.13 13.8807 199.806 13.7386 200.658 13.7386C201.761 13.7386 202.732 14.0142 203.573 14.5653C204.414 15.1165 205.07 15.8977 205.542 16.9091C206.013 17.9205 206.249 19.1136 206.249 20.4886C206.249 21.875 206.013 23.0767 205.542 24.0938C205.07 25.1051 204.417 25.8892 203.582 26.446C202.746 26.9972 201.783 27.2727 200.692 27.2727C199.852 27.2727 199.178 27.1335 198.673 26.8551C198.167 26.571 197.778 26.25 197.505 25.892C197.232 25.5284 197.022 25.2273 196.874 24.9886H196.704V31.9091H194.692ZM196.67 20.4545C196.67 21.4432 196.815 22.3153 197.104 23.071C197.394 23.821 197.817 24.4091 198.374 24.8352C198.931 25.2557 199.613 25.4659 200.42 25.4659C201.261 25.4659 201.962 25.2443 202.525 24.8011C203.093 24.3523 203.519 23.75 203.803 22.9943C204.093 22.233 204.238 21.3864 204.238 20.4545C204.238 19.5341 204.096 18.7045 203.812 17.9659C203.533 17.2216 203.11 16.6335 202.542 16.2017C201.979 15.7642 201.272 15.5455 200.42 15.5455C199.602 15.5455 198.914 15.7528 198.357 16.1676C197.8 16.5767 197.38 17.1506 197.096 17.8892C196.812 18.6222 196.67 19.4773 196.67 20.4545ZM209.317 31.9091V13.9091H211.261V15.9886H211.499C211.647 15.7614 211.852 15.4716 212.113 15.1193C212.38 14.7614 212.761 14.4432 213.255 14.1648C213.755 13.8807 214.431 13.7386 215.283 13.7386C216.386 13.7386 217.357 14.0142 218.198 14.5653C219.039 15.1165 219.695 15.8977 220.167 16.9091C220.638 17.9205 220.874 19.1136 220.874 20.4886C220.874 21.875 220.638 23.0767 220.167 24.0938C219.695 25.1051 219.042 25.8892 218.207 26.446C217.371 26.9972 216.408 27.2727 215.317 27.2727C214.477 27.2727 213.803 27.1335 213.298 26.8551C212.792 26.571 212.403 26.25 212.13 25.892C211.857 25.5284 211.647 25.2273 211.499 24.9886H211.329V31.9091H209.317ZM211.295 20.4545C211.295 21.4432 211.44 22.3153 211.729 23.071C212.019 23.821 212.442 24.4091 212.999 24.8352C213.556 25.2557 214.238 25.4659 215.045 25.4659C215.886 25.4659 216.587 25.2443 217.15 24.8011C217.718 24.3523 218.144 23.75 218.428 22.9943C218.718 22.233 218.863 21.3864 218.863 20.4545C218.863 19.5341 218.721 18.7045 218.437 17.9659C218.158 17.2216 217.735 16.6335 217.167 16.2017C216.604 15.7642 215.897 15.5455 215.045 15.5455C214.227 15.5455 213.539 15.7528 212.982 16.1676C212.425 16.5767 212.005 17.1506 211.721 17.8892C211.437 18.6222 211.295 19.4773 211.295 20.4545ZM229.431 27.2727C228.17 27.2727 227.082 26.9943 226.167 26.4375C225.258 25.875 224.556 25.0909 224.062 24.0852C223.573 23.0739 223.329 21.8977 223.329 20.5568C223.329 19.2159 223.573 18.0341 224.062 17.0114C224.556 15.983 225.244 15.1818 226.124 14.608C227.011 14.0284 228.045 13.7386 229.227 13.7386C229.908 13.7386 230.582 13.8523 231.246 14.0795C231.911 14.3068 232.516 14.6761 233.062 15.1875C233.607 15.6932 234.042 16.3636 234.366 17.1989C234.69 18.0341 234.852 19.0625 234.852 20.2841V21.1364H224.761V19.3977H232.806C232.806 18.6591 232.658 18 232.363 17.4205C232.073 16.8409 231.658 16.3835 231.119 16.0483C230.585 15.7131 229.954 15.5455 229.227 15.5455C228.425 15.5455 227.732 15.7443 227.147 16.142C226.567 16.5341 226.121 17.0455 225.809 17.6761C225.496 18.3068 225.34 18.983 225.34 19.7045V20.8636C225.34 21.8523 225.511 22.6903 225.852 23.3778C226.198 24.0597 226.678 24.5795 227.292 24.9375C227.906 25.2898 228.619 25.4659 229.431 25.4659C229.96 25.4659 230.437 25.392 230.863 25.2443C231.295 25.0909 231.667 24.8636 231.979 24.5625C232.292 24.2557 232.533 23.875 232.704 23.4205L234.647 23.9659C234.442 24.625 234.099 25.2045 233.616 25.7045C233.133 26.1989 232.536 26.5852 231.826 26.8636C231.116 27.1364 230.317 27.2727 229.431 27.2727ZM242.854 27.2727C241.763 27.2727 240.8 26.9972 239.965 26.446C239.13 25.8892 238.477 25.1051 238.005 24.0938C237.533 23.0767 237.298 21.875 237.298 20.4886C237.298 19.1136 237.533 17.9205 238.005 16.9091C238.477 15.8977 239.133 15.1165 239.974 14.5653C240.815 14.0142 241.786 13.7386 242.888 13.7386C243.741 13.7386 244.414 13.8807 244.908 14.1648C245.408 14.4432 245.789 14.7614 246.05 15.1193C246.317 15.4716 246.525 15.7614 246.673 15.9886H246.843V9.54545H248.854V27H246.911V24.9886H246.673C246.525 25.2273 246.315 25.5284 246.042 25.892C245.769 26.25 245.38 26.571 244.874 26.8551C244.369 27.1335 243.695 27.2727 242.854 27.2727ZM243.127 25.4659C243.934 25.4659 244.616 25.2557 245.173 24.8352C245.729 24.4091 246.153 23.821 246.442 23.071C246.732 22.3153 246.877 21.4432 246.877 20.4545C246.877 19.4773 246.735 18.6222 246.451 17.8892C246.167 17.1506 245.746 16.5767 245.19 16.1676C244.633 15.7528 243.945 15.5455 243.127 15.5455C242.275 15.5455 241.565 15.7642 240.996 16.2017C240.434 16.6335 240.011 17.2216 239.727 17.9659C239.448 18.7045 239.309 19.5341 239.309 20.4545C239.309 21.3864 239.451 22.233 239.735 22.9943C240.025 23.75 240.451 24.3523 241.013 24.8011C241.582 25.2443 242.286 25.4659 243.127 25.4659ZM259.567 27V13.9091H261.511V15.8864H261.647C261.886 15.2386 262.317 14.7131 262.942 14.3097C263.567 13.9062 264.272 13.7045 265.056 13.7045C265.204 13.7045 265.388 13.7074 265.61 13.7131C265.832 13.7187 265.999 13.7273 266.113 13.7386V15.7841C266.045 15.767 265.888 15.7415 265.644 15.7074C265.406 15.6676 265.153 15.6477 264.886 15.6477C264.249 15.6477 263.681 15.7812 263.181 16.0483C262.687 16.3097 262.295 16.6733 262.005 17.1392C261.721 17.5994 261.579 18.125 261.579 18.7159V27H259.567ZM273.587 27.2727C272.326 27.2727 271.238 26.9943 270.323 26.4375C269.414 25.875 268.712 25.0909 268.218 24.0852C267.729 23.0739 267.485 21.8977 267.485 20.5568C267.485 19.2159 267.729 18.0341 268.218 17.0114C268.712 15.983 269.4 15.1818 270.281 14.608C271.167 14.0284 272.201 13.7386 273.383 13.7386C274.065 13.7386 274.738 13.8523 275.403 14.0795C276.067 14.3068 276.673 14.6761 277.218 15.1875C277.763 15.6932 278.198 16.3636 278.522 17.1989C278.846 18.0341 279.008 19.0625 279.008 20.2841V21.1364H268.917V19.3977H276.962C276.962 18.6591 276.815 18 276.519 17.4205C276.229 16.8409 275.815 16.3835 275.275 16.0483C274.741 15.7131 274.11 15.5455 273.383 15.5455C272.582 15.5455 271.888 15.7443 271.303 16.142C270.724 16.5341 270.278 17.0455 269.965 17.6761C269.653 18.3068 269.496 18.983 269.496 19.7045V20.8636C269.496 21.8523 269.667 22.6903 270.008 23.3778C270.354 24.0597 270.835 24.5795 271.448 24.9375C272.062 25.2898 272.775 25.4659 273.587 25.4659C274.116 25.4659 274.593 25.392 275.019 25.2443C275.451 25.0909 275.823 24.8636 276.136 24.5625C276.448 24.2557 276.69 23.875 276.86 23.4205L278.803 23.9659C278.599 24.625 278.255 25.2045 277.772 25.7045C277.289 26.1989 276.692 26.5852 275.982 26.8636C275.272 27.1364 274.474 27.2727 273.587 27.2727ZM287.011 27.2727C285.92 27.2727 284.957 26.9972 284.121 26.446C283.286 25.8892 282.633 25.1051 282.161 24.0938C281.69 23.0767 281.454 21.875 281.454 20.4886C281.454 19.1136 281.69 17.9205 282.161 16.9091C282.633 15.8977 283.289 15.1165 284.13 14.5653C284.971 14.0142 285.942 13.7386 287.045 13.7386C287.897 13.7386 288.57 13.8807 289.065 14.1648C289.565 14.4432 289.945 14.7614 290.207 15.1193C290.474 15.4716 290.681 15.7614 290.829 15.9886H290.999V9.54545H293.011V27H291.067V24.9886H290.829C290.681 25.2273 290.471 25.5284 290.198 25.892C289.925 26.25 289.536 26.571 289.031 26.8551C288.525 27.1335 287.852 27.2727 287.011 27.2727ZM287.283 25.4659C288.09 25.4659 288.772 25.2557 289.329 24.8352C289.886 24.4091 290.309 23.821 290.599 23.071C290.888 22.3153 291.033 21.4432 291.033 20.4545C291.033 19.4773 290.891 18.6222 290.607 17.8892C290.323 17.1506 289.903 16.5767 289.346 16.1676C288.789 15.7528 288.102 15.5455 287.283 15.5455C286.431 15.5455 285.721 15.7642 285.153 16.2017C284.59 16.6335 284.167 17.2216 283.883 17.9659C283.604 18.7045 283.465 19.5341 283.465 20.4545C283.465 21.3864 283.607 22.233 283.891 22.9943C284.181 23.75 284.607 24.3523 285.17 24.8011C285.738 25.2443 286.442 25.4659 287.283 25.4659ZM306.69 27L302.701 13.9091H304.815L307.644 23.9318H307.781L310.576 13.9091H312.724L315.485 23.8977H315.621L318.451 13.9091H320.565L316.576 27H314.599L311.735 16.9432H311.531L308.667 27H306.69ZM323.224 27V13.9091H325.235V27H323.224ZM324.246 11.7273C323.854 11.7273 323.516 11.5938 323.232 11.3267C322.954 11.0597 322.815 10.7386 322.815 10.3636C322.815 9.98864 322.954 9.66761 323.232 9.40057C323.516 9.13352 323.854 9 324.246 9C324.638 9 324.974 9.13352 325.252 9.40057C325.536 9.66761 325.678 9.98864 325.678 10.3636C325.678 10.7386 325.536 11.0597 325.252 11.3267C324.974 11.5938 324.638 11.7273 324.246 11.7273ZM330.93 19.125V27H328.919V13.9091H330.862V15.9545H331.033C331.339 15.2898 331.805 14.7557 332.43 14.3523C333.055 13.9432 333.862 13.7386 334.851 13.7386C335.737 13.7386 336.513 13.9205 337.178 14.2841C337.842 14.642 338.359 15.1875 338.729 15.9205C339.098 16.6477 339.283 17.5682 339.283 18.6818V27H337.271V18.8182C337.271 17.7898 337.004 16.9886 336.47 16.4148C335.936 15.8352 335.203 15.5455 334.271 15.5455C333.629 15.5455 333.055 15.6847 332.55 15.9631C332.05 16.2415 331.655 16.6477 331.365 17.1818C331.075 17.7159 330.93 18.3636 330.93 19.125ZM348.447 27.2727C347.185 27.2727 346.097 26.9943 345.183 26.4375C344.273 25.875 343.572 25.0909 343.077 24.0852C342.589 23.0739 342.344 21.8977 342.344 20.5568C342.344 19.2159 342.589 18.0341 343.077 17.0114C343.572 15.983 344.259 15.1818 345.14 14.608C346.026 14.0284 347.06 13.7386 348.242 13.7386C348.924 13.7386 349.597 13.8523 350.262 14.0795C350.927 14.3068 351.532 14.6761 352.077 15.1875C352.623 15.6932 353.058 16.3636 353.381 17.1989C353.705 18.0341 353.867 19.0625 353.867 20.2841V21.1364H343.776V19.3977H351.822C351.822 18.6591 351.674 18 351.379 17.4205C351.089 16.8409 350.674 16.3835 350.134 16.0483C349.6 15.7131 348.969 15.5455 348.242 15.5455C347.441 15.5455 346.748 15.7443 346.163 16.142C345.583 16.5341 345.137 17.0455 344.825 17.6761C344.512 18.3068 344.356 18.983 344.356 19.7045V20.8636C344.356 21.8523 344.526 22.6903 344.867 23.3778C345.214 24.0597 345.694 24.5795 346.308 24.9375C346.921 25.2898 347.634 25.4659 348.447 25.4659C348.975 25.4659 349.452 25.392 349.879 25.2443C350.31 25.0909 350.683 24.8636 350.995 24.5625C351.308 24.2557 351.549 23.875 351.719 23.4205L353.663 23.9659C353.458 24.625 353.114 25.2045 352.631 25.7045C352.148 26.1989 351.552 26.5852 350.842 26.8636C350.131 27.1364 349.333 27.2727 348.447 27.2727ZM358.393 27.1364C357.972 27.1364 357.612 26.9858 357.31 26.6847C357.009 26.3835 356.859 26.0227 356.859 25.6023C356.859 25.1818 357.009 24.821 357.31 24.5199C357.612 24.2187 357.972 24.0682 358.393 24.0682C358.813 24.0682 359.174 24.2187 359.475 24.5199C359.776 24.821 359.927 25.1818 359.927 25.6023C359.927 25.8807 359.856 26.1364 359.714 26.3693C359.577 26.6023 359.393 26.7898 359.16 26.9318C358.933 27.0682 358.677 27.1364 358.393 27.1364ZM358.393 17.4205C357.972 17.4205 357.612 17.2699 357.31 16.9688C357.009 16.6676 356.859 16.3068 356.859 15.8864C356.859 15.4659 357.009 15.1051 357.31 14.804C357.612 14.5028 357.972 14.3523 358.393 14.3523C358.813 14.3523 359.174 14.5028 359.475 14.804C359.776 15.1051 359.927 15.4659 359.927 15.8864C359.927 16.1648 359.856 16.4205 359.714 16.6534C359.577 16.8864 359.393 17.0739 359.16 17.2159C358.933 17.3523 358.677 17.4205 358.393 17.4205ZM375.229 27.2727C374.138 27.2727 373.175 26.9972 372.34 26.446C371.505 25.8892 370.852 25.1051 370.38 24.0938C369.908 23.0767 369.673 21.875 369.673 20.4886C369.673 19.1136 369.908 17.9205 370.38 16.9091C370.852 15.8977 371.508 15.1165 372.349 14.5653C373.19 14.0142 374.161 13.7386 375.263 13.7386C376.116 13.7386 376.789 13.8807 377.283 14.1648C377.783 14.4432 378.164 14.7614 378.425 15.1193C378.692 15.4716 378.9 15.7614 379.048 15.9886H379.218V9.54545H381.229V27H379.286V24.9886H379.048C378.9 25.2273 378.69 25.5284 378.417 25.892C378.144 26.25 377.755 26.571 377.249 26.8551C376.744 27.1335 376.07 27.2727 375.229 27.2727ZM375.502 25.4659C376.309 25.4659 376.991 25.2557 377.548 24.8352C378.104 24.4091 378.528 23.821 378.817 23.071C379.107 22.3153 379.252 21.4432 379.252 20.4545C379.252 19.4773 379.11 18.6222 378.826 17.8892C378.542 17.1506 378.121 16.5767 377.565 16.1676C377.008 15.7528 376.32 15.5455 375.502 15.5455C374.65 15.5455 373.94 15.7642 373.371 16.2017C372.809 16.6335 372.386 17.2216 372.102 17.9659C371.823 18.7045 371.684 19.5341 371.684 20.4545C371.684 21.3864 371.826 22.233 372.11 22.9943C372.4 23.75 372.826 24.3523 373.388 24.8011C373.957 25.2443 374.661 25.4659 375.502 25.4659ZM390.681 27.2727C389.42 27.2727 388.332 26.9943 387.417 26.4375C386.508 25.875 385.806 25.0909 385.312 24.0852C384.823 23.0739 384.579 21.8977 384.579 20.5568C384.579 19.2159 384.823 18.0341 385.312 17.0114C385.806 15.983 386.494 15.1818 387.374 14.608C388.261 14.0284 389.295 13.7386 390.477 13.7386C391.158 13.7386 391.832 13.8523 392.496 14.0795C393.161 14.3068 393.766 14.6761 394.312 15.1875C394.857 15.6932 395.292 16.3636 395.616 17.1989C395.94 18.0341 396.102 19.0625 396.102 20.2841V21.1364H386.011V19.3977H394.056C394.056 18.6591 393.908 18 393.613 17.4205C393.323 16.8409 392.908 16.3835 392.369 16.0483C391.835 15.7131 391.204 15.5455 390.477 15.5455C389.675 15.5455 388.982 15.7443 388.397 16.142C387.817 16.5341 387.371 17.0455 387.059 17.6761C386.746 18.3068 386.59 18.983 386.59 19.7045V20.8636C386.59 21.8523 386.761 22.6903 387.102 23.3778C387.448 24.0597 387.928 24.5795 388.542 24.9375C389.156 25.2898 389.869 25.4659 390.681 25.4659C391.21 25.4659 391.687 25.392 392.113 25.2443C392.545 25.0909 392.917 24.8636 393.229 24.5625C393.542 24.2557 393.783 23.875 393.954 23.4205L395.897 23.9659C395.692 24.625 395.349 25.2045 394.866 25.7045C394.383 26.1989 393.786 26.5852 393.076 26.8636C392.366 27.1364 391.567 27.2727 390.681 27.2727ZM404.65 27.2727C403.388 27.2727 402.3 26.9943 401.386 26.4375C400.477 25.875 399.775 25.0909 399.281 24.0852C398.792 23.0739 398.548 21.8977 398.548 20.5568C398.548 19.2159 398.792 18.0341 399.281 17.0114C399.775 15.983 400.462 15.1818 401.343 14.608C402.229 14.0284 403.263 13.7386 404.445 13.7386C405.127 13.7386 405.8 13.8523 406.465 14.0795C407.13 14.3068 407.735 14.6761 408.281 15.1875C408.826 15.6932 409.261 16.3636 409.585 17.1989C409.908 18.0341 410.07 19.0625 410.07 20.2841V21.1364H399.979V19.3977H408.025C408.025 18.6591 407.877 18 407.582 17.4205C407.292 16.8409 406.877 16.3835 406.337 16.0483C405.803 15.7131 405.173 15.5455 404.445 15.5455C403.644 15.5455 402.951 15.7443 402.366 16.142C401.786 16.5341 401.34 17.0455 401.028 17.6761C400.715 18.3068 400.559 18.983 400.559 19.7045V20.8636C400.559 21.8523 400.729 22.6903 401.07 23.3778C401.417 24.0597 401.897 24.5795 402.511 24.9375C403.124 25.2898 403.837 25.4659 404.65 25.4659C405.178 25.4659 405.656 25.392 406.082 25.2443C406.513 25.0909 406.886 24.8636 407.198 24.5625C407.511 24.2557 407.752 23.875 407.923 23.4205L409.866 23.9659C409.661 24.625 409.317 25.2045 408.835 25.7045C408.352 26.1989 407.755 26.5852 407.045 26.8636C406.335 27.1364 405.536 27.2727 404.65 27.2727ZM413.13 31.9091V13.9091H415.073V15.9886H415.312C415.46 15.7614 415.664 15.4716 415.925 15.1193C416.192 14.7614 416.573 14.4432 417.067 14.1648C417.567 13.8807 418.244 13.7386 419.096 13.7386C420.198 13.7386 421.17 14.0142 422.011 14.5653C422.852 15.1165 423.508 15.8977 423.979 16.9091C424.451 17.9205 424.687 19.1136 424.687 20.4886C424.687 21.875 424.451 23.0767 423.979 24.0938C423.508 25.1051 422.854 25.8892 422.019 26.446C421.184 26.9972 420.221 27.2727 419.13 27.2727C418.289 27.2727 417.616 27.1335 417.11 26.8551C416.604 26.571 416.215 26.25 415.942 25.892C415.67 25.5284 415.46 25.2273 415.312 24.9886H415.141V31.9091H413.13ZM415.107 20.4545C415.107 21.4432 415.252 22.3153 415.542 23.071C415.832 23.821 416.255 24.4091 416.812 24.8352C417.369 25.2557 418.05 25.4659 418.857 25.4659C419.698 25.4659 420.4 25.2443 420.962 24.8011C421.531 24.3523 421.957 23.75 422.241 22.9943C422.531 22.233 422.675 21.3864 422.675 20.4545C422.675 19.5341 422.533 18.7045 422.249 17.9659C421.971 17.2216 421.548 16.6335 420.979 16.2017C420.417 15.7642 419.71 15.5455 418.857 15.5455C418.039 15.5455 417.352 15.7528 416.795 16.1676C416.238 16.5767 415.817 17.1506 415.533 17.8892C415.249 18.6222 415.107 19.4773 415.107 20.4545ZM430.755 24.6136L430.619 25.5341C430.522 26.1818 430.374 26.875 430.175 27.6136C429.982 28.3523 429.781 29.0483 429.57 29.7017C429.36 30.3551 429.187 30.875 429.05 31.2614H427.516C427.59 30.8977 427.687 30.4176 427.806 29.821C427.925 29.2244 428.045 28.5568 428.164 27.8182C428.289 27.0852 428.391 26.3352 428.471 25.5682L428.573 24.6136H430.755ZM441.232 27V13.9091H443.175V15.8864H443.311C443.55 15.2386 443.982 14.7131 444.607 14.3097C445.232 13.9062 445.936 13.7045 446.72 13.7045C446.868 13.7045 447.053 13.7074 447.274 13.7131C447.496 13.7187 447.663 13.7273 447.777 13.7386V15.7841C447.709 15.767 447.553 15.7415 447.308 15.7074C447.07 15.6676 446.817 15.6477 446.55 15.6477C445.913 15.6477 445.345 15.7812 444.845 16.0483C444.351 16.3097 443.959 16.6733 443.669 17.1392C443.385 17.5994 443.243 18.125 443.243 18.7159V27H441.232ZM455.251 27.2727C453.99 27.2727 452.902 26.9943 451.987 26.4375C451.078 25.875 450.376 25.0909 449.882 24.0852C449.393 23.0739 449.149 21.8977 449.149 20.5568C449.149 19.2159 449.393 18.0341 449.882 17.0114C450.376 15.983 451.064 15.1818 451.945 14.608C452.831 14.0284 453.865 13.7386 455.047 13.7386C455.729 13.7386 456.402 13.8523 457.067 14.0795C457.732 14.3068 458.337 14.6761 458.882 15.1875C459.428 15.6932 459.862 16.3636 460.186 17.1989C460.51 18.0341 460.672 19.0625 460.672 20.2841V21.1364H450.581V19.3977H458.626C458.626 18.6591 458.479 18 458.183 17.4205C457.893 16.8409 457.479 16.3835 456.939 16.0483C456.405 15.7131 455.774 15.5455 455.047 15.5455C454.246 15.5455 453.553 15.7443 452.967 16.142C452.388 16.5341 451.942 17.0455 451.629 17.6761C451.317 18.3068 451.161 18.983 451.161 19.7045V20.8636C451.161 21.8523 451.331 22.6903 451.672 23.3778C452.018 24.0597 452.499 24.5795 453.112 24.9375C453.726 25.2898 454.439 25.4659 455.251 25.4659C455.78 25.4659 456.257 25.392 456.683 25.2443C457.115 25.0909 457.487 24.8636 457.8 24.5625C458.112 24.2557 458.354 23.875 458.524 23.4205L460.467 23.9659C460.263 24.625 459.919 25.2045 459.436 25.7045C458.953 26.1989 458.357 26.5852 457.646 26.8636C456.936 27.1364 456.138 27.2727 455.251 27.2727ZM469.561 13.9091V15.6136H462.504V13.9091H469.561ZM464.618 27V12.1023C464.618 11.3523 464.794 10.7273 465.146 10.2273C465.499 9.72727 465.956 9.35227 466.518 9.10227C467.081 8.85227 467.675 8.72727 468.3 8.72727C468.794 8.72727 469.197 8.76704 469.51 8.84659C469.822 8.92614 470.055 9 470.209 9.06818L469.629 10.8068C469.527 10.7727 469.385 10.7301 469.203 10.679C469.027 10.6278 468.794 10.6023 468.504 10.6023C467.839 10.6023 467.359 10.7699 467.064 11.1051C466.774 11.4403 466.629 11.9318 466.629 12.5795V27H464.618ZM474.391 9.54545V27H472.38V9.54545H474.391ZM483.564 27.2727C482.303 27.2727 481.214 26.9943 480.3 26.4375C479.391 25.875 478.689 25.0909 478.195 24.0852C477.706 23.0739 477.462 21.8977 477.462 20.5568C477.462 19.2159 477.706 18.0341 478.195 17.0114C478.689 15.983 479.376 15.1818 480.257 14.608C481.143 14.0284 482.178 13.7386 483.359 13.7386C484.041 13.7386 484.714 13.8523 485.379 14.0795C486.044 14.3068 486.649 14.6761 487.195 15.1875C487.74 15.6932 488.175 16.3636 488.499 17.1989C488.822 18.0341 488.984 19.0625 488.984 20.2841V21.1364H478.893V19.3977H486.939C486.939 18.6591 486.791 18 486.496 17.4205C486.206 16.8409 485.791 16.3835 485.251 16.0483C484.717 15.7131 484.087 15.5455 483.359 15.5455C482.558 15.5455 481.865 15.7443 481.28 16.142C480.7 16.5341 480.254 17.0455 479.942 17.6761C479.629 18.3068 479.473 18.983 479.473 19.7045V20.8636C479.473 21.8523 479.643 22.6903 479.984 23.3778C480.331 24.0597 480.811 24.5795 481.425 24.9375C482.038 25.2898 482.751 25.4659 483.564 25.4659C484.092 25.4659 484.57 25.392 484.996 25.2443C485.428 25.0909 485.8 24.8636 486.112 24.5625C486.425 24.2557 486.666 23.875 486.837 23.4205L488.78 23.9659C488.575 24.625 488.232 25.2045 487.749 25.7045C487.266 26.1989 486.669 26.5852 485.959 26.8636C485.249 27.1364 484.45 27.2727 483.564 27.2727ZM497.362 27.2727C496.135 27.2727 495.078 26.983 494.192 26.4034C493.305 25.8239 492.624 25.0256 492.146 24.0085C491.669 22.9915 491.43 21.8295 491.43 20.5227C491.43 19.1932 491.675 18.0199 492.163 17.0028C492.658 15.9801 493.345 15.1818 494.226 14.608C495.112 14.0284 496.146 13.7386 497.328 13.7386C498.249 13.7386 499.078 13.9091 499.817 14.25C500.555 14.5909 501.161 15.0682 501.632 15.6818C502.104 16.2955 502.396 17.0114 502.51 17.8295H500.499C500.345 17.233 500.004 16.7045 499.476 16.2443C498.953 15.7784 498.249 15.5455 497.362 15.5455C496.578 15.5455 495.891 15.75 495.3 16.1591C494.714 16.5625 494.257 17.1335 493.928 17.8722C493.604 18.6051 493.442 19.4659 493.442 20.4545C493.442 21.4659 493.601 22.3466 493.919 23.0966C494.243 23.8466 494.697 24.429 495.283 24.8438C495.874 25.2585 496.567 25.4659 497.362 25.4659C497.885 25.4659 498.359 25.375 498.786 25.1932C499.212 25.0114 499.572 24.75 499.868 24.4091C500.163 24.0682 500.374 23.6591 500.499 23.1818H502.51C502.396 23.9545 502.115 24.6506 501.666 25.2699C501.223 25.8835 500.635 26.3722 499.902 26.7358C499.175 27.0938 498.328 27.2727 497.362 27.2727ZM511.143 13.9091V15.6136H504.359V13.9091H511.143ZM506.337 10.7727H508.348V23.25C508.348 23.8182 508.43 24.2443 508.595 24.5284C508.766 24.8068 508.982 24.9943 509.243 25.0909C509.51 25.1818 509.791 25.2273 510.087 25.2273C510.308 25.2273 510.49 25.2159 510.632 25.1932C510.774 25.1648 510.888 25.142 510.973 25.125L511.382 26.9318C511.246 26.983 511.055 27.0341 510.811 27.0852C510.567 27.142 510.257 27.1705 509.882 27.1705C509.314 27.1705 508.757 27.0483 508.212 26.804C507.672 26.5597 507.223 26.1875 506.865 25.6875C506.513 25.1875 506.337 24.5568 506.337 23.7955V10.7727ZM514.169 27V13.9091H516.18V27H514.169ZM515.192 11.7273C514.8 11.7273 514.462 11.5938 514.178 11.3267C513.899 11.0597 513.76 10.7386 513.76 10.3636C513.76 9.98864 513.899 9.66761 514.178 9.40057C514.462 9.13352 514.8 9 515.192 9C515.584 9 515.919 9.13352 516.197 9.40057C516.482 9.66761 516.624 9.98864 516.624 10.3636C516.624 10.7386 516.482 11.0597 516.197 11.3267C515.919 11.5938 515.584 11.7273 515.192 11.7273ZM530.569 13.9091L525.728 27H523.683L518.842 13.9091H521.023L524.637 24.3409H524.773L528.387 13.9091H530.569ZM538.244 27.2727C536.982 27.2727 535.894 26.9943 534.979 26.4375C534.07 25.875 533.369 25.0909 532.874 24.0852C532.386 23.0739 532.141 21.8977 532.141 20.5568C532.141 19.2159 532.386 18.0341 532.874 17.0114C533.369 15.983 534.056 15.1818 534.937 14.608C535.823 14.0284 536.857 13.7386 538.039 13.7386C538.721 13.7386 539.394 13.8523 540.059 14.0795C540.724 14.3068 541.329 14.6761 541.874 15.1875C542.42 15.6932 542.854 16.3636 543.178 17.1989C543.502 18.0341 543.664 19.0625 543.664 20.2841V21.1364H533.573V19.3977H541.619C541.619 18.6591 541.471 18 541.175 17.4205C540.886 16.8409 540.471 16.3835 539.931 16.0483C539.397 15.7131 538.766 15.5455 538.039 15.5455C537.238 15.5455 536.545 15.7443 535.96 16.142C535.38 16.5341 534.934 17.0455 534.621 17.6761C534.309 18.3068 534.153 18.983 534.153 19.7045V20.8636C534.153 21.8523 534.323 22.6903 534.664 23.3778C535.011 24.0597 535.491 24.5795 536.104 24.9375C536.718 25.2898 537.431 25.4659 538.244 25.4659C538.772 25.4659 539.249 25.392 539.675 25.2443C540.107 25.0909 540.479 24.8636 540.792 24.5625C541.104 24.2557 541.346 23.875 541.516 23.4205L543.46 23.9659C543.255 24.625 542.911 25.2045 542.428 25.7045C541.945 26.1989 541.349 26.5852 540.638 26.8636C539.928 27.1364 539.13 27.2727 538.244 27.2727ZM549.724 24.6136L549.587 25.5341C549.491 26.1818 549.343 26.875 549.144 27.6136C548.951 28.3523 548.749 29.0483 548.539 29.7017C548.329 30.3551 548.156 30.875 548.019 31.2614H546.485C546.559 30.8977 546.656 30.4176 546.775 29.821C546.894 29.2244 547.013 28.5568 547.133 27.8182C547.258 27.0852 547.36 26.3352 547.44 25.5682L547.542 24.6136H549.724ZM564.053 27.3068C563.223 27.3068 562.47 27.1506 561.794 26.8381C561.118 26.5199 560.581 26.0625 560.183 25.4659C559.786 24.8636 559.587 24.1364 559.587 23.2841C559.587 22.5341 559.734 21.9261 560.03 21.4602C560.325 20.9886 560.72 20.6193 561.214 20.3523C561.709 20.0852 562.254 19.8864 562.851 19.7557C563.453 19.6193 564.058 19.5114 564.666 19.4318C565.462 19.3295 566.107 19.2528 566.601 19.2017C567.101 19.1449 567.464 19.0511 567.692 18.9205C567.925 18.7898 568.041 18.5625 568.041 18.2386V18.1705C568.041 17.3295 567.811 16.6761 567.351 16.2102C566.896 15.7443 566.206 15.5114 565.28 15.5114C564.32 15.5114 563.567 15.7216 563.021 16.142C562.476 16.5625 562.092 17.0114 561.871 17.4886L559.962 16.8068C560.303 16.0114 560.757 15.392 561.325 14.9489C561.899 14.5 562.524 14.1875 563.2 14.0114C563.882 13.8295 564.553 13.7386 565.212 13.7386C565.632 13.7386 566.115 13.7898 566.661 13.892C567.212 13.9886 567.743 14.1903 568.254 14.4972C568.771 14.804 569.2 15.267 569.541 15.8864C569.882 16.5057 570.053 17.3352 570.053 18.375V27H568.041V25.2273H567.939C567.803 25.5114 567.575 25.8153 567.257 26.1392C566.939 26.4631 566.516 26.7386 565.987 26.9659C565.459 27.1932 564.814 27.3068 564.053 27.3068ZM564.359 25.5C565.155 25.5 565.825 25.3438 566.371 25.0312C566.922 24.7188 567.337 24.3153 567.615 23.821C567.899 23.3267 568.041 22.8068 568.041 22.2614V20.4205C567.956 20.5227 567.768 20.6165 567.479 20.7017C567.195 20.7812 566.865 20.8523 566.49 20.9148C566.121 20.9716 565.76 21.0227 565.408 21.0682C565.061 21.108 564.78 21.142 564.564 21.1705C564.041 21.2386 563.553 21.3494 563.098 21.5028C562.649 21.6506 562.286 21.875 562.007 22.1761C561.734 22.4716 561.598 22.875 561.598 23.3864C561.598 24.0852 561.857 24.6136 562.374 24.9716C562.896 25.3239 563.558 25.5 564.359 25.5ZM575.735 19.125V27H573.724V13.9091H575.667V15.9545H575.837C576.144 15.2898 576.61 14.7557 577.235 14.3523C577.86 13.9432 578.667 13.7386 579.656 13.7386C580.542 13.7386 581.317 13.9205 581.982 14.2841C582.647 14.642 583.164 15.1875 583.533 15.9205C583.903 16.6477 584.087 17.5682 584.087 18.6818V27H582.076V18.8182C582.076 17.7898 581.809 16.9886 581.275 16.4148C580.741 15.8352 580.008 15.5455 579.076 15.5455C578.434 15.5455 577.86 15.6847 577.354 15.9631C576.854 16.2415 576.46 16.6477 576.17 17.1818C575.88 17.7159 575.735 18.3636 575.735 19.125ZM592.706 27.2727C591.615 27.2727 590.652 26.9972 589.817 26.446C588.982 25.8892 588.328 25.1051 587.857 24.0938C587.385 23.0767 587.149 21.875 587.149 20.4886C587.149 19.1136 587.385 17.9205 587.857 16.9091C588.328 15.8977 588.984 15.1165 589.825 14.5653C590.666 14.0142 591.638 13.7386 592.74 13.7386C593.592 13.7386 594.266 13.8807 594.76 14.1648C595.26 14.4432 595.641 14.7614 595.902 15.1193C596.169 15.4716 596.376 15.7614 596.524 15.9886H596.695V9.54545H598.706V27H596.763V24.9886H596.524C596.376 25.2273 596.166 25.5284 595.893 25.892C595.621 26.25 595.232 26.571 594.726 26.8551C594.22 27.1335 593.547 27.2727 592.706 27.2727ZM592.979 25.4659C593.786 25.4659 594.467 25.2557 595.024 24.8352C595.581 24.4091 596.004 23.821 596.294 23.071C596.584 22.3153 596.729 21.4432 596.729 20.4545C596.729 19.4773 596.587 18.6222 596.303 17.8892C596.018 17.1506 595.598 16.5767 595.041 16.1676C594.484 15.7528 593.797 15.5455 592.979 15.5455C592.126 15.5455 591.416 15.7642 590.848 16.2017C590.286 16.6335 589.862 17.2216 589.578 17.9659C589.3 18.7045 589.161 19.5341 589.161 20.4545C589.161 21.3864 589.303 22.233 589.587 22.9943C589.876 23.75 590.303 24.3523 590.865 24.8011C591.433 25.2443 592.138 25.4659 592.979 25.4659ZM615.249 13.9091V15.6136H608.192V13.9091H615.249ZM610.305 27V12.1023C610.305 11.3523 610.482 10.7273 610.834 10.2273C611.186 9.72727 611.643 9.35227 612.206 9.10227C612.768 8.85227 613.362 8.72727 613.987 8.72727C614.482 8.72727 614.885 8.76704 615.197 8.84659C615.51 8.92614 615.743 9 615.896 9.06818L615.317 10.8068C615.214 10.7727 615.072 10.7301 614.891 10.679C614.714 10.6278 614.482 10.6023 614.192 10.6023C613.527 10.6023 613.047 10.7699 612.751 11.1051C612.462 11.4403 612.317 11.9318 612.317 12.5795V27H610.305ZM626.317 21.6477V13.9091H628.329V27H626.317V24.7841H626.181C625.874 25.4489 625.397 26.0142 624.749 26.4801C624.102 26.9403 623.283 27.1705 622.295 27.1705C621.477 27.1705 620.749 26.9915 620.113 26.6335C619.477 26.2699 618.977 25.7244 618.613 24.9972C618.249 24.2642 618.067 23.3409 618.067 22.2273V13.9091H620.079V22.0909C620.079 23.0455 620.346 23.8068 620.88 24.375C621.42 24.9432 622.107 25.2273 622.942 25.2273C623.442 25.2273 623.951 25.0994 624.468 24.8438C624.991 24.5881 625.428 24.196 625.781 23.6676C626.138 23.1392 626.317 22.4659 626.317 21.6477ZM634.024 9.54545V27H632.013V9.54545H634.024ZM639.719 9.54545V27H637.708V9.54545H639.719ZM655.472 27.2727C654.29 27.2727 653.253 26.9915 652.361 26.429C651.474 25.8665 650.781 25.0795 650.281 24.0682C649.787 23.0568 649.54 21.875 649.54 20.5227C649.54 19.1591 649.787 17.9687 650.281 16.9517C650.781 15.9347 651.474 15.1449 652.361 14.5824C653.253 14.0199 654.29 13.7386 655.472 13.7386C656.653 13.7386 657.688 14.0199 658.574 14.5824C659.466 15.1449 660.159 15.9347 660.653 16.9517C661.153 17.9687 661.403 19.1591 661.403 20.5227C661.403 21.875 661.153 23.0568 660.653 24.0682C660.159 25.0795 659.466 25.8665 658.574 26.429C657.688 26.9915 656.653 27.2727 655.472 27.2727ZM655.472 25.4659C656.369 25.4659 657.108 25.2358 657.688 24.7756C658.267 24.3153 658.696 23.7102 658.974 22.9602C659.253 22.2102 659.392 21.3977 659.392 20.5227C659.392 19.6477 659.253 18.8324 658.974 18.0767C658.696 17.321 658.267 16.7102 657.688 16.2443C657.108 15.7784 656.369 15.5455 655.472 15.5455C654.574 15.5455 653.835 15.7784 653.256 16.2443C652.676 16.7102 652.247 17.321 651.969 18.0767C651.69 18.8324 651.551 19.6477 651.551 20.5227C651.551 21.3977 651.69 22.2102 651.969 22.9602C652.247 23.7102 652.676 24.3153 653.256 24.7756C653.835 25.2358 654.574 25.4659 655.472 25.4659ZM670.303 13.9091V15.6136H663.246V13.9091H670.303ZM665.36 27V12.1023C665.36 11.3523 665.536 10.7273 665.888 10.2273C666.241 9.72727 666.698 9.35227 667.261 9.10227C667.823 8.85227 668.417 8.72727 669.042 8.72727C669.536 8.72727 669.94 8.76704 670.252 8.84659C670.565 8.92614 670.798 9 670.951 9.06818L670.371 10.8068C670.269 10.7727 670.127 10.7301 669.945 10.679C669.769 10.6278 669.536 10.6023 669.246 10.6023C668.582 10.6023 668.102 10.7699 667.806 11.1051C667.516 11.4403 667.371 11.9318 667.371 12.5795V27H665.36ZM688.804 31.9091V24.9886H688.634C688.486 25.2273 688.276 25.5284 688.003 25.892C687.73 26.25 687.341 26.571 686.835 26.8551C686.33 27.1335 685.656 27.2727 684.815 27.2727C683.724 27.2727 682.761 26.9972 681.926 26.446C681.091 25.8892 680.438 25.1051 679.966 24.0938C679.494 23.0767 679.259 21.875 679.259 20.4886C679.259 19.1136 679.494 17.9205 679.966 16.9091C680.438 15.8977 681.094 15.1165 681.935 14.5653C682.776 14.0142 683.747 13.7386 684.849 13.7386C685.702 13.7386 686.375 13.8807 686.869 14.1648C687.369 14.4432 687.75 14.7614 688.011 15.1193C688.278 15.4716 688.486 15.7614 688.634 15.9886H688.872V13.9091H690.815V31.9091H688.804ZM685.088 25.4659C685.895 25.4659 686.577 25.2557 687.134 24.8352C687.69 24.4091 688.114 23.821 688.403 23.071C688.693 22.3153 688.838 21.4432 688.838 20.4545C688.838 19.4773 688.696 18.6222 688.412 17.8892C688.128 17.1506 687.707 16.5767 687.151 16.1676C686.594 15.7528 685.906 15.5455 685.088 15.5455C684.236 15.5455 683.526 15.7642 682.957 16.2017C682.395 16.6335 681.972 17.2216 681.688 17.9659C681.409 18.7045 681.27 19.5341 681.27 20.4545C681.27 21.3864 681.412 22.233 681.696 22.9943C681.986 23.75 682.412 24.3523 682.974 24.8011C683.543 25.2443 684.247 25.4659 685.088 25.4659ZM702.747 21.6477V13.9091H704.759V27H702.747V24.7841H702.611C702.304 25.4489 701.827 26.0142 701.179 26.4801C700.531 26.9403 699.713 27.1705 698.724 27.1705C697.906 27.1705 697.179 26.9915 696.543 26.6335C695.906 26.2699 695.406 25.7244 695.043 24.9972C694.679 24.2642 694.497 23.3409 694.497 22.2273V13.9091H696.509V22.0909C696.509 23.0455 696.776 23.8068 697.31 24.375C697.849 24.9432 698.537 25.2273 699.372 25.2273C699.872 25.2273 700.381 25.0994 700.898 24.8438C701.42 24.5881 701.858 24.196 702.21 23.6676C702.568 23.1392 702.747 22.4659 702.747 21.6477ZM708.442 27V13.9091H710.454V27H708.442ZM709.465 11.7273C709.073 11.7273 708.735 11.5938 708.451 11.3267C708.173 11.0597 708.033 10.7386 708.033 10.3636C708.033 9.98864 708.173 9.66761 708.451 9.40057C708.735 9.13352 709.073 9 709.465 9C709.857 9 710.192 9.13352 710.471 9.40057C710.755 9.66761 710.897 9.98864 710.897 10.3636C710.897 10.7386 710.755 11.0597 710.471 11.3267C710.192 11.5938 709.857 11.7273 709.465 11.7273ZM719.626 27.2727C718.365 27.2727 717.277 26.9943 716.362 26.4375C715.453 25.875 714.751 25.0909 714.257 24.0852C713.768 23.0739 713.524 21.8977 713.524 20.5568C713.524 19.2159 713.768 18.0341 714.257 17.0114C714.751 15.983 715.439 15.1818 716.32 14.608C717.206 14.0284 718.24 13.7386 719.422 13.7386C720.104 13.7386 720.777 13.8523 721.442 14.0795C722.107 14.3068 722.712 14.6761 723.257 15.1875C723.803 15.6932 724.237 16.3636 724.561 17.1989C724.885 18.0341 725.047 19.0625 725.047 20.2841V21.1364H714.956V19.3977H723.001C723.001 18.6591 722.854 18 722.558 17.4205C722.268 16.8409 721.854 16.3835 721.314 16.0483C720.78 15.7131 720.149 15.5455 719.422 15.5455C718.621 15.5455 717.928 15.7443 717.342 16.142C716.763 16.5341 716.317 17.0455 716.004 17.6761C715.692 18.3068 715.536 18.983 715.536 19.7045V20.8636C715.536 21.8523 715.706 22.6903 716.047 23.3778C716.393 24.0597 716.874 24.5795 717.487 24.9375C718.101 25.2898 718.814 25.4659 719.626 25.4659C720.155 25.4659 720.632 25.392 721.058 25.2443C721.49 25.0909 721.862 24.8636 722.175 24.5625C722.487 24.2557 722.729 23.875 722.899 23.4205L724.842 23.9659C724.638 24.625 724.294 25.2045 723.811 25.7045C723.328 26.1989 722.732 26.5852 722.021 26.8636C721.311 27.1364 720.513 27.2727 719.626 27.2727ZM733.8 13.9091V15.6136H727.016V13.9091H733.8ZM728.993 10.7727H731.004V23.25C731.004 23.8182 731.087 24.2443 731.251 24.5284C731.422 24.8068 731.638 24.9943 731.899 25.0909C732.166 25.1818 732.447 25.2273 732.743 25.2273C732.964 25.2273 733.146 25.2159 733.288 25.1932C733.43 25.1648 733.544 25.142 733.629 25.125L734.038 26.9318C733.902 26.983 733.712 27.0341 733.467 27.0852C733.223 27.142 732.913 27.1705 732.538 27.1705C731.97 27.1705 731.413 27.0483 730.868 26.804C730.328 26.5597 729.879 26.1875 729.521 25.6875C729.169 25.1875 728.993 24.5568 728.993 23.7955V10.7727ZM752.848 16.8409L751.041 17.3523C750.928 17.0511 750.76 16.7585 750.538 16.4744C750.322 16.1847 750.027 15.946 749.652 15.7585C749.277 15.571 748.797 15.4773 748.212 15.4773C747.411 15.4773 746.743 15.6619 746.209 16.0312C745.68 16.3949 745.416 16.858 745.416 17.4205C745.416 17.9205 745.598 18.3153 745.962 18.6051C746.325 18.8949 746.893 19.1364 747.666 19.3295L749.609 19.8068C750.78 20.0909 751.652 20.5256 752.226 21.1108C752.8 21.6903 753.087 22.4375 753.087 23.3523C753.087 24.1023 752.871 24.7727 752.439 25.3636C752.013 25.9545 751.416 26.4205 750.649 26.7614C749.882 27.1023 748.99 27.2727 747.973 27.2727C746.638 27.2727 745.533 26.983 744.658 26.4034C743.783 25.8239 743.229 24.9773 742.996 23.8636L744.905 23.3864C745.087 24.0909 745.43 24.6193 745.936 24.9716C746.447 25.3239 747.115 25.5 747.939 25.5C748.876 25.5 749.621 25.3011 750.172 24.9034C750.729 24.5 751.007 24.017 751.007 23.4545C751.007 23 750.848 22.6193 750.53 22.3125C750.212 22 749.723 21.767 749.064 21.6136L746.882 21.1023C745.683 20.8182 744.803 20.3778 744.24 19.7812C743.683 19.179 743.405 18.4261 743.405 17.5227C743.405 16.7841 743.612 16.1307 744.027 15.5625C744.447 14.9943 745.018 14.5483 745.74 14.2244C746.467 13.9006 747.291 13.7386 748.212 13.7386C749.507 13.7386 750.524 14.0227 751.263 14.5909C752.007 15.1591 752.536 15.9091 752.848 16.8409ZM761.808 13.9091V15.6136H755.023V13.9091H761.808ZM757.001 10.7727H759.012V23.25C759.012 23.8182 759.094 24.2443 759.259 24.5284C759.43 24.8068 759.646 24.9943 759.907 25.0909C760.174 25.1818 760.455 25.2273 760.751 25.2273C760.972 25.2273 761.154 25.2159 761.296 25.1932C761.438 25.1648 761.552 25.142 761.637 25.125L762.046 26.9318C761.91 26.983 761.719 27.0341 761.475 27.0852C761.231 27.142 760.921 27.1705 760.546 27.1705C759.978 27.1705 759.421 27.0483 758.876 26.804C758.336 26.5597 757.887 26.1875 757.529 25.6875C757.177 25.1875 757.001 24.5568 757.001 23.7955V10.7727ZM764.833 27V13.9091H766.776V15.8864H766.913C767.151 15.2386 767.583 14.7131 768.208 14.3097C768.833 13.9062 769.538 13.7045 770.322 13.7045C770.469 13.7045 770.654 13.7074 770.876 13.7131C771.097 13.7187 771.265 13.7273 771.379 13.7386V15.7841C771.31 15.767 771.154 15.7415 770.91 15.7074C770.671 15.6676 770.418 15.6477 770.151 15.6477C769.515 15.6477 768.947 15.7812 768.447 16.0483C767.952 16.3097 767.56 16.6733 767.271 17.1392C766.987 17.5994 766.844 18.125 766.844 18.7159V27H764.833ZM778.853 27.2727C777.592 27.2727 776.504 26.9943 775.589 26.4375C774.68 25.875 773.978 25.0909 773.484 24.0852C772.995 23.0739 772.751 21.8977 772.751 20.5568C772.751 19.2159 772.995 18.0341 773.484 17.0114C773.978 15.983 774.665 15.1818 775.546 14.608C776.433 14.0284 777.467 13.7386 778.648 13.7386C779.33 13.7386 780.004 13.8523 780.668 14.0795C781.333 14.3068 781.938 14.6761 782.484 15.1875C783.029 15.6932 783.464 16.3636 783.788 17.1989C784.112 18.0341 784.273 19.0625 784.273 20.2841V21.1364H774.183V19.3977H782.228C782.228 18.6591 782.08 18 781.785 17.4205C781.495 16.8409 781.08 16.3835 780.54 16.0483C780.006 15.7131 779.376 15.5455 778.648 15.5455C777.847 15.5455 777.154 15.7443 776.569 16.142C775.989 16.5341 775.543 17.0455 775.231 17.6761C774.918 18.3068 774.762 18.983 774.762 19.7045V20.8636C774.762 21.8523 774.933 22.6903 775.273 23.3778C775.62 24.0597 776.1 24.5795 776.714 24.9375C777.327 25.2898 778.04 25.4659 778.853 25.4659C779.381 25.4659 779.859 25.392 780.285 25.2443C780.717 25.0909 781.089 24.8636 781.401 24.5625C781.714 24.2557 781.955 23.875 782.126 23.4205L784.069 23.9659C783.864 24.625 783.521 25.2045 783.038 25.7045C782.555 26.1989 781.958 26.5852 781.248 26.8636C780.538 27.1364 779.739 27.2727 778.853 27.2727ZM789.344 19.125V27H787.333V13.9091H789.276V15.9545H789.447C789.754 15.2898 790.219 14.7557 790.844 14.3523C791.469 13.9432 792.276 13.7386 793.265 13.7386C794.151 13.7386 794.927 13.9205 795.592 14.2841C796.256 14.642 796.773 15.1875 797.143 15.9205C797.512 16.6477 797.697 17.5682 797.697 18.6818V27H795.685V18.8182C795.685 17.7898 795.418 16.9886 794.884 16.4148C794.35 15.8352 793.617 15.5455 792.685 15.5455C792.043 15.5455 791.469 15.6847 790.964 15.9631C790.464 16.2415 790.069 16.6477 789.779 17.1818C789.489 17.7159 789.344 18.3636 789.344 19.125ZM806.656 32.1818C805.685 32.1818 804.849 32.0568 804.151 31.8068C803.452 31.5625 802.869 31.2386 802.403 30.8352C801.943 30.4375 801.577 30.0114 801.304 29.5568L802.906 28.4318C803.088 28.6705 803.318 28.9432 803.597 29.25C803.875 29.5625 804.256 29.8324 804.739 30.0597C805.227 30.2926 805.866 30.4091 806.656 30.4091C807.713 30.4091 808.585 30.1534 809.273 29.642C809.96 29.1307 810.304 28.3295 810.304 27.2386V24.5795H810.134C809.986 24.8182 809.776 25.1136 809.503 25.4659C809.236 25.8125 808.849 26.1222 808.344 26.3949C807.844 26.6619 807.168 26.7955 806.315 26.7955C805.259 26.7955 804.31 26.5455 803.469 26.0455C802.634 25.5455 801.972 24.8182 801.483 23.8636C801 22.9091 800.759 21.75 800.759 20.3864C800.759 19.0455 800.994 17.8778 801.466 16.8835C801.938 15.8835 802.594 15.1108 803.435 14.5653C804.276 14.0142 805.247 13.7386 806.349 13.7386C807.202 13.7386 807.878 13.8807 808.378 14.1648C808.884 14.4432 809.27 14.7614 809.537 15.1193C809.81 15.4716 810.02 15.7614 810.168 15.9886H810.372V13.9091H812.315V27.375C812.315 28.5 812.06 29.4148 811.548 30.1193C811.043 30.8295 810.361 31.3494 809.503 31.679C808.651 32.0142 807.702 32.1818 806.656 32.1818ZM806.588 24.9886C807.395 24.9886 808.077 24.804 808.634 24.4347C809.19 24.0653 809.614 23.5341 809.903 22.8409C810.193 22.1477 810.338 21.3182 810.338 20.3523C810.338 19.4091 810.196 18.5767 809.912 17.8551C809.628 17.1335 809.207 16.5682 808.651 16.1591C808.094 15.75 807.406 15.5455 806.588 15.5455C805.736 15.5455 805.026 15.7614 804.457 16.1932C803.895 16.625 803.472 17.2045 803.188 17.9318C802.909 18.6591 802.77 19.4659 802.77 20.3523C802.77 21.2614 802.912 22.0653 803.196 22.7642C803.486 23.4574 803.912 24.0028 804.474 24.4006C805.043 24.7926 805.747 24.9886 806.588 24.9886ZM821.69 13.9091V15.6136H814.906V13.9091H821.69ZM816.884 10.7727H818.895V23.25C818.895 23.8182 818.977 24.2443 819.142 24.5284C819.313 24.8068 819.528 24.9943 819.79 25.0909C820.057 25.1818 820.338 25.2273 820.634 25.2273C820.855 25.2273 821.037 25.2159 821.179 25.1932C821.321 25.1648 821.435 25.142 821.52 25.125L821.929 26.9318C821.793 26.983 821.602 27.0341 821.358 27.0852C821.114 27.142 820.804 27.1705 820.429 27.1705C819.861 27.1705 819.304 27.0483 818.759 26.804C818.219 26.5597 817.77 26.1875 817.412 25.6875C817.06 25.1875 816.884 24.5568 816.884 23.7955V10.7727ZM827.009 19.125V27H824.997V9.54545H827.009V15.9545H827.179C827.486 15.2784 827.946 14.7415 828.56 14.3438C829.179 13.9403 830.003 13.7386 831.031 13.7386C831.923 13.7386 832.705 13.9176 833.375 14.2756C834.045 14.6278 834.565 15.1705 834.935 15.9034C835.31 16.6307 835.497 17.5568 835.497 18.6818V27H833.486V18.8182C833.486 17.7784 833.216 16.9744 832.676 16.4062C832.142 15.8324 831.401 15.5455 830.452 15.5455C829.793 15.5455 829.202 15.6847 828.679 15.9631C828.162 16.2415 827.753 16.6477 827.452 17.1818C827.156 17.7159 827.009 18.3636 827.009 19.125ZM840.643 27.1364C840.222 27.1364 839.862 26.9858 839.56 26.6847C839.259 26.3835 839.109 26.0227 839.109 25.6023C839.109 25.1818 839.259 24.821 839.56 24.5199C839.862 24.2187 840.222 24.0682 840.643 24.0682C841.063 24.0682 841.424 24.2187 841.725 24.5199C842.026 24.821 842.177 25.1818 842.177 25.6023C842.177 25.8807 842.106 26.1364 841.964 26.3693C841.827 26.6023 841.643 26.7898 841.41 26.9318C841.183 27.0682 840.927 27.1364 840.643 27.1364Z" fill="#3E2522"/>
</svg>
