<svg width="24" height="15" viewBox="0 0 24 15" fill="none" xmlns="http://www.w3.org/2000/svg">
<path d="M0.415483 13V11.9773L4.25639 7.77273C4.70715 7.2803 5.07836 6.85227 5.37003 6.48864C5.6617 6.12121 5.8776 5.77652 6.01776 5.45455C6.1617 5.12879 6.23366 4.78788 6.23366 4.43182C6.23366 4.02273 6.13518 3.66856 5.93821 3.36932C5.74503 3.07008 5.47988 2.83901 5.14276 2.67614C4.80563 2.51326 4.42685 2.43182 4.00639 2.43182C3.55942 2.43182 3.16927 2.52462 2.83594 2.71023C2.50639 2.89205 2.25071 3.14773 2.06889 3.47727C1.89086 3.80682 1.80185 4.19318 1.80185 4.63636H0.460938C0.460938 3.95455 0.618134 3.35606 0.932528 2.84091C1.24692 2.32576 1.67495 1.92424 2.21662 1.63636C2.76207 1.34848 3.37382 1.20455 4.05185 1.20455C4.73366 1.20455 5.33783 1.34848 5.86435 1.63636C6.39086 1.92424 6.80374 2.3125 7.10298 2.80114C7.40223 3.28977 7.55185 3.83333 7.55185 4.43182C7.55185 4.85985 7.4742 5.27841 7.31889 5.6875C7.16738 6.0928 6.90223 6.54545 6.52344 7.04545C6.14844 7.54167 5.6276 8.14773 4.96094 8.86364L2.3473 11.6591V11.75H7.75639V13H0.415483ZM14.2393 0.818181L10.4893 14.75H9.26207L13.0121 0.818181H14.2393ZM19.7379 13.1591C18.9879 13.1591 18.3194 13.0303 17.7322 12.7727C17.1489 12.5152 16.6849 12.1572 16.3402 11.6989C15.9993 11.2367 15.8137 10.7008 15.7834 10.0909H17.2152C17.2455 10.4659 17.3743 10.7898 17.6016 11.0625C17.8288 11.3314 18.1262 11.5398 18.4936 11.6875C18.861 11.8352 19.2682 11.9091 19.7152 11.9091C20.2152 11.9091 20.6584 11.822 21.0447 11.6477C21.4311 11.4735 21.7341 11.2311 21.9538 10.9205C22.1735 10.6098 22.2834 10.25 22.2834 9.84091C22.2834 9.41288 22.1773 9.03598 21.9652 8.71023C21.7531 8.38068 21.4425 8.12311 21.0334 7.9375C20.6243 7.75189 20.1243 7.65909 19.5334 7.65909H18.6016V6.40909H19.5334C19.9955 6.40909 20.4008 6.32576 20.7493 6.15909C21.1016 5.99242 21.3762 5.75758 21.5732 5.45455C21.7739 5.15152 21.8743 4.79545 21.8743 4.38636C21.8743 3.99242 21.7872 3.64962 21.6129 3.35795C21.4387 3.06629 21.1925 2.83901 20.8743 2.67614C20.5599 2.51326 20.1887 2.43182 19.7607 2.43182C19.3591 2.43182 18.9804 2.50568 18.6243 2.65341C18.272 2.79735 17.9841 3.00758 17.7607 3.28409C17.5372 3.55682 17.416 3.88636 17.397 4.27273H16.0334C16.0561 3.66288 16.2398 3.12879 16.5845 2.67045C16.9292 2.20833 17.38 1.84848 17.9368 1.59091C18.4974 1.33333 19.1129 1.20455 19.7834 1.20455C20.5031 1.20455 21.1205 1.35038 21.6357 1.64205C22.1508 1.92992 22.5466 2.31061 22.8232 2.78409C23.0997 3.25758 23.2379 3.76894 23.2379 4.31818C23.2379 4.97348 23.0656 5.5322 22.7209 5.99432C22.38 6.45644 21.916 6.77652 21.3288 6.95455V7.04545C22.0637 7.16667 22.6375 7.47917 23.0504 7.98295C23.4633 8.48295 23.6697 9.10227 23.6697 9.84091C23.6697 10.4735 23.4974 11.0417 23.1527 11.5455C22.8118 12.0455 22.3459 12.4394 21.755 12.7273C21.1641 13.0152 20.4917 13.1591 19.7379 13.1591Z" fill="#3D1F1A" fill-opacity="0.75"/>
</svg>
