<svg width="676" height="100" viewBox="0 0 676 100" fill="none" xmlns="http://www.w3.org/2000/svg">
<path d="M7.40696 2.09091V37H0.0262784V2.09091H7.40696ZM27.4226 10.8182V16.2727H11.2635V10.8182H27.4226ZM14.9624 37V8.92614C14.9624 7.02841 15.3317 5.45454 16.0703 4.20454C16.8203 2.95454 17.843 2.01704 19.1385 1.39204C20.4339 0.767043 21.9055 0.454543 23.5533 0.454543C24.6669 0.454543 25.6839 0.539771 26.6044 0.710227C27.5362 0.880681 28.2294 1.03409 28.6839 1.17045L27.3885 6.625C27.1044 6.53409 26.7521 6.44886 26.3317 6.36932C25.9226 6.28977 25.5021 6.25 25.0703 6.25C24.0021 6.25 23.2578 6.5 22.8374 7C22.4169 7.48864 22.2067 8.17614 22.2067 9.0625V37H14.9624ZM47.451 46.8182C46.5305 46.8182 45.6669 46.7443 44.8601 46.5966C44.0646 46.4602 43.4055 46.2841 42.8828 46.0682L44.5192 40.6477C45.3714 40.9091 46.1385 41.0511 46.8203 41.0739C47.5135 41.0966 48.1101 40.9375 48.6101 40.5966C49.1214 40.2557 49.5362 39.6761 49.8544 38.858L50.2805 37.75L40.8885 10.8182H48.5249L53.9453 30.0455H54.218L59.6896 10.8182H67.3771L57.201 39.8295C56.7124 41.2386 56.0476 42.4659 55.2067 43.5114C54.3771 44.5682 53.326 45.3807 52.0533 45.9489C50.7805 46.5284 49.2464 46.8182 47.451 46.8182ZM82.0788 37.5114C79.4311 37.5114 77.1413 36.9489 75.2095 35.8239C73.2891 34.6875 71.8061 33.108 70.7607 31.0852C69.7152 29.0511 69.1925 26.6932 69.1925 24.0114C69.1925 21.3068 69.7152 18.9432 70.7607 16.9205C71.8061 14.8864 73.2891 13.3068 75.2095 12.1818C77.1413 11.0455 79.4311 10.4773 82.0788 10.4773C84.7266 10.4773 87.0107 11.0455 88.9311 12.1818C90.8629 13.3068 92.3516 14.8864 93.397 16.9205C94.4425 18.9432 94.9652 21.3068 94.9652 24.0114C94.9652 26.6932 94.4425 29.0511 93.397 31.0852C92.3516 33.108 90.8629 34.6875 88.9311 35.8239C87.0107 36.9489 84.7266 37.5114 82.0788 37.5114ZM82.1129 31.8864C83.3175 31.8864 84.3232 31.5455 85.13 30.8636C85.9368 30.1705 86.5447 29.2273 86.9538 28.0341C87.3743 26.8409 87.5845 25.483 87.5845 23.9602C87.5845 22.4375 87.3743 21.0795 86.9538 19.8864C86.5447 18.6932 85.9368 17.75 85.13 17.0568C84.3232 16.3636 83.3175 16.017 82.1129 16.017C80.897 16.017 79.8743 16.3636 79.0447 17.0568C78.2266 17.75 77.6072 18.6932 77.1868 19.8864C76.7777 21.0795 76.5732 22.4375 76.5732 23.9602C76.5732 25.483 76.7777 26.8409 77.1868 28.0341C77.6072 29.2273 78.2266 30.1705 79.0447 30.8636C79.8743 31.5455 80.897 31.8864 82.1129 31.8864ZM116.477 25.8523V10.8182H123.738V37H116.766V32.2443H116.494C115.903 33.7784 114.92 35.0114 113.545 35.9432C112.181 36.875 110.516 37.3409 108.55 37.3409C106.8 37.3409 105.261 36.9432 103.931 36.1477C102.602 35.3523 101.562 34.2216 100.812 32.7557C100.073 31.2898 99.6982 29.5341 99.6868 27.4886V10.8182H106.948V26.1932C106.96 27.7386 107.374 28.9602 108.192 29.858C109.011 30.7557 110.107 31.2045 111.482 31.2045C112.357 31.2045 113.175 31.0057 113.937 30.608C114.698 30.1989 115.312 29.5966 115.778 28.8011C116.255 28.0057 116.488 27.0227 116.477 25.8523ZM145.82 37L138.695 10.8182H146.042L150.099 28.4091H150.337L154.565 10.8182H161.775L166.07 28.3068H166.292L170.281 10.8182H177.61L170.502 37H162.815L158.315 20.5341H157.991L153.491 37H145.82ZM192.759 37.5114C190.066 37.5114 187.748 36.9659 185.805 35.875C183.873 34.7727 182.384 33.2159 181.339 31.2045C180.293 29.1818 179.771 26.7898 179.771 24.0284C179.771 21.3352 180.293 18.9716 181.339 16.9375C182.384 14.9034 183.856 13.3182 185.754 12.1818C187.663 11.0455 189.901 10.4773 192.469 10.4773C194.197 10.4773 195.805 10.7557 197.293 11.3125C198.793 11.858 200.1 12.6818 201.214 13.7841C202.339 14.8864 203.214 16.2727 203.839 17.9432C204.464 19.6023 204.776 21.5455 204.776 23.7727V25.767H182.668V21.267H197.941C197.941 20.2216 197.714 19.2955 197.259 18.4886C196.805 17.6818 196.174 17.0511 195.367 16.5966C194.572 16.1307 193.646 15.8977 192.589 15.8977C191.487 15.8977 190.509 16.1534 189.657 16.6648C188.816 17.1648 188.157 17.8409 187.68 18.6932C187.202 19.5341 186.958 20.4716 186.947 21.5057V25.7841C186.947 27.0795 187.185 28.1989 187.663 29.142C188.151 30.0852 188.839 30.8125 189.725 31.3239C190.612 31.8352 191.663 32.0909 192.879 32.0909C193.685 32.0909 194.424 31.9773 195.094 31.75C195.765 31.5227 196.339 31.1818 196.816 30.7273C197.293 30.2727 197.657 29.7159 197.907 29.0568L204.623 29.5C204.282 31.1136 203.583 32.5227 202.526 33.7273C201.481 34.9205 200.129 35.8523 198.469 36.5227C196.822 37.1818 194.918 37.5114 192.759 37.5114ZM209.515 37V10.8182H216.555V15.3864H216.827C217.305 13.7614 218.106 12.5341 219.231 11.7045C220.356 10.8636 221.651 10.4432 223.117 10.4432C223.481 10.4432 223.873 10.4659 224.293 10.5114C224.714 10.5568 225.083 10.6193 225.401 10.6989V17.142C225.06 17.0398 224.589 16.9489 223.987 16.8693C223.384 16.7898 222.833 16.75 222.333 16.75C221.265 16.75 220.31 16.983 219.469 17.4489C218.64 17.9034 217.981 18.5398 217.492 19.358C217.015 20.1761 216.776 21.1193 216.776 22.1875V37H209.515ZM239.869 37.5114C237.175 37.5114 234.857 36.9659 232.914 35.875C230.982 34.7727 229.494 33.2159 228.448 31.2045C227.403 29.1818 226.88 26.7898 226.88 24.0284C226.88 21.3352 227.403 18.9716 228.448 16.9375C229.494 14.9034 230.965 13.3182 232.863 12.1818C234.772 11.0455 237.011 10.4773 239.579 10.4773C241.306 10.4773 242.914 10.7557 244.403 11.3125C245.903 11.858 247.21 12.6818 248.323 13.7841C249.448 14.8864 250.323 16.2727 250.948 17.9432C251.573 19.6023 251.886 21.5455 251.886 23.7727V25.767H229.778V21.267H245.05C245.05 20.2216 244.823 19.2955 244.369 18.4886C243.914 17.6818 243.283 17.0511 242.477 16.5966C241.681 16.1307 240.755 15.8977 239.698 15.8977C238.596 15.8977 237.619 16.1534 236.766 16.6648C235.925 17.1648 235.266 17.8409 234.789 18.6932C234.312 19.5341 234.067 20.4716 234.056 21.5057V25.7841C234.056 27.0795 234.295 28.1989 234.772 29.142C235.261 30.0852 235.948 30.8125 236.835 31.3239C237.721 31.8352 238.772 32.0909 239.988 32.0909C240.795 32.0909 241.533 31.9773 242.204 31.75C242.874 31.5227 243.448 31.1818 243.925 30.7273C244.403 30.2727 244.766 29.7159 245.016 29.0568L251.732 29.5C251.391 31.1136 250.692 32.5227 249.636 33.7273C248.59 34.9205 247.238 35.8523 245.579 36.5227C243.931 37.1818 242.028 37.5114 239.869 37.5114ZM275.2 37.4943C273.529 37.4943 272.04 37.2045 270.734 36.625C269.427 36.0341 268.393 35.1648 267.631 34.017C266.881 32.858 266.506 31.4148 266.506 29.6875C266.506 28.233 266.773 27.0114 267.308 26.0227C267.842 25.0341 268.569 24.2386 269.489 23.6364C270.41 23.0341 271.455 22.5795 272.626 22.2727C273.808 21.9659 275.046 21.75 276.342 21.625C277.864 21.4659 279.092 21.3182 280.023 21.1818C280.955 21.0341 281.631 20.8182 282.052 20.5341C282.472 20.25 282.683 19.8295 282.683 19.2727V19.1705C282.683 18.0909 282.342 17.2557 281.66 16.6648C280.989 16.0739 280.035 15.7784 278.796 15.7784C277.489 15.7784 276.45 16.0682 275.677 16.6477C274.904 17.2159 274.393 17.9318 274.143 18.7955L267.427 18.25C267.768 16.6591 268.438 15.2841 269.438 14.125C270.438 12.9545 271.728 12.0568 273.308 11.4318C274.898 10.7955 276.739 10.4773 278.83 10.4773C280.285 10.4773 281.677 10.6477 283.006 10.9886C284.347 11.3295 285.535 11.858 286.569 12.5739C287.614 13.2898 288.438 14.2102 289.04 15.3352C289.643 16.4489 289.944 17.7841 289.944 19.3409V37H283.058V33.3693H282.853C282.433 34.1875 281.87 34.9091 281.165 35.5341C280.461 36.1477 279.614 36.6307 278.626 36.983C277.637 37.3239 276.495 37.4943 275.2 37.4943ZM277.279 32.483C278.347 32.483 279.29 32.2727 280.109 31.8523C280.927 31.4205 281.569 30.8409 282.035 30.1136C282.501 29.3864 282.734 28.5625 282.734 27.642V24.8636C282.506 25.0114 282.194 25.1477 281.796 25.2727C281.41 25.3864 280.972 25.4943 280.484 25.5966C279.995 25.6875 279.506 25.7727 279.018 25.8523C278.529 25.9205 278.086 25.983 277.688 26.0398C276.836 26.1648 276.092 26.3636 275.455 26.6364C274.819 26.9091 274.325 27.2784 273.972 27.7443C273.62 28.1989 273.444 28.767 273.444 29.4489C273.444 30.4375 273.802 31.1932 274.518 31.7159C275.245 32.2273 276.165 32.483 277.279 32.483ZM316.335 37.4261C314.346 37.4261 312.545 36.9148 310.931 35.892C309.329 34.858 308.056 33.3409 307.113 31.3409C306.181 29.3295 305.715 26.8636 305.715 23.9432C305.715 20.9432 306.198 18.4489 307.164 16.4602C308.13 14.4602 309.414 12.9659 311.016 11.9773C312.63 10.9773 314.397 10.4773 316.317 10.4773C317.783 10.4773 319.005 10.7273 319.982 11.2273C320.971 11.7159 321.766 12.3295 322.369 13.0682C322.982 13.7955 323.448 14.5114 323.766 15.2159H323.988V2.09091H331.232V37H324.073V32.8068H323.766C323.425 33.5341 322.942 34.2557 322.317 34.9716C321.704 35.6761 320.903 36.2614 319.914 36.7273C318.937 37.1932 317.744 37.4261 316.335 37.4261ZM318.636 31.6477C319.806 31.6477 320.795 31.3295 321.602 30.6932C322.42 30.0455 323.045 29.142 323.477 27.983C323.92 26.8239 324.141 25.4659 324.141 23.9091C324.141 22.3523 323.925 21 323.494 19.8523C323.062 18.7045 322.437 17.8182 321.619 17.1932C320.8 16.5682 319.806 16.2557 318.636 16.2557C317.442 16.2557 316.437 16.5795 315.619 17.2273C314.8 17.875 314.181 18.7727 313.761 19.9205C313.34 21.0682 313.13 22.3977 313.13 23.9091C313.13 25.4318 313.34 26.7784 313.761 27.9489C314.192 29.108 314.812 30.017 315.619 30.6761C316.437 31.3239 317.442 31.6477 318.636 31.6477ZM337.202 37V10.8182H344.242V15.3864H344.515C344.992 13.7614 345.793 12.5341 346.918 11.7045C348.043 10.8636 349.339 10.4432 350.805 10.4432C351.168 10.4432 351.56 10.4659 351.981 10.5114C352.401 10.5568 352.771 10.6193 353.089 10.6989V17.142C352.748 17.0398 352.276 16.9489 351.674 16.8693C351.072 16.7898 350.521 16.75 350.021 16.75C348.952 16.75 347.998 16.983 347.157 17.4489C346.327 17.9034 345.668 18.5398 345.18 19.358C344.702 20.1761 344.464 21.1193 344.464 22.1875V37H337.202ZM356.843 37V10.8182H364.104V37H356.843ZM360.491 7.44318C359.411 7.44318 358.485 7.08523 357.712 6.36932C356.951 5.64204 356.57 4.77273 356.57 3.76136C356.57 2.76136 356.951 1.90341 357.712 1.1875C358.485 0.460226 359.411 0.0965891 360.491 0.0965891C361.57 0.0965891 362.491 0.460226 363.252 1.1875C364.025 1.90341 364.411 2.76136 364.411 3.76136C364.411 4.77273 364.025 5.64204 363.252 6.36932C362.491 7.08523 361.57 7.44318 360.491 7.44318ZM377.183 21.8636V37H369.921V10.8182H376.842V15.4375H377.148C377.728 13.9148 378.7 12.7102 380.063 11.8239C381.427 10.9261 383.08 10.4773 385.023 10.4773C386.842 10.4773 388.427 10.875 389.779 11.6705C391.131 12.4659 392.183 13.6023 392.933 15.0795C393.683 16.5455 394.058 18.2955 394.058 20.3295V37H386.796V21.625C386.808 20.0227 386.398 18.7727 385.569 17.875C384.739 16.9659 383.597 16.5114 382.143 16.5114C381.165 16.5114 380.302 16.7216 379.552 17.142C378.813 17.5625 378.234 18.1761 377.813 18.983C377.404 19.7784 377.194 20.7386 377.183 21.8636ZM406.36 29.4659L406.377 20.7557H407.434L415.82 10.8182H424.156L412.888 23.9773H411.167L406.36 29.4659ZM399.781 37V2.09091H407.042V37H399.781ZM416.144 37L408.44 25.5966L413.281 20.4659L424.65 37H416.144ZM443.992 37L436.867 10.8182H444.214L448.271 28.4091H448.509L452.737 10.8182H459.947L464.242 28.3068H464.464L468.452 10.8182H475.782L468.674 37H460.987L456.487 20.5341H456.163L451.663 37H443.992ZM486.917 21.8636V37H479.656V2.09091H486.712V15.4375H487.019C487.61 13.892 488.565 12.6818 489.883 11.8068C491.201 10.9205 492.854 10.4773 494.843 10.4773C496.661 10.4773 498.246 10.875 499.599 11.6705C500.962 12.4545 502.019 13.5852 502.769 15.0625C503.531 16.5284 503.906 18.2841 503.894 20.3295V37H496.633V21.625C496.644 20.0114 496.235 18.7557 495.406 17.858C494.587 16.9602 493.44 16.5114 491.962 16.5114C490.974 16.5114 490.099 16.7216 489.337 17.142C488.587 17.5625 487.996 18.1761 487.565 18.983C487.144 19.7784 486.928 20.7386 486.917 21.8636ZM509.609 37V10.8182H516.87V37H509.609ZM513.256 7.44318C512.177 7.44318 511.251 7.08523 510.478 6.36932C509.717 5.64204 509.336 4.77273 509.336 3.76136C509.336 2.76136 509.717 1.90341 510.478 1.1875C511.251 0.460226 512.177 0.0965891 513.256 0.0965891C514.336 0.0965891 515.256 0.460226 516.018 1.1875C516.79 1.90341 517.177 2.76136 517.177 3.76136C517.177 4.77273 516.79 5.64204 516.018 6.36932C515.256 7.08523 514.336 7.44318 513.256 7.44318ZM534.516 37.5114C531.835 37.5114 529.528 36.9432 527.596 35.8068C525.675 34.6591 524.198 33.0682 523.164 31.0341C522.141 29 521.63 26.6591 521.63 24.0114C521.63 21.3295 522.147 18.9773 523.181 16.9545C524.227 14.9205 525.71 13.3352 527.63 12.1989C529.55 11.0511 531.835 10.4773 534.482 10.4773C536.766 10.4773 538.766 10.892 540.482 11.7216C542.198 12.5511 543.556 13.7159 544.556 15.2159C545.556 16.7159 546.107 18.4773 546.21 20.5H539.357C539.164 19.1932 538.653 18.142 537.823 17.3466C537.005 16.5398 535.931 16.1364 534.602 16.1364C533.477 16.1364 532.494 16.4432 531.653 17.0568C530.823 17.6591 530.175 18.5398 529.71 19.6989C529.244 20.858 529.011 22.2614 529.011 23.9091C529.011 25.5795 529.238 27 529.692 28.1705C530.158 29.3409 530.812 30.233 531.653 30.8466C532.494 31.4602 533.477 31.767 534.602 31.767C535.431 31.767 536.175 31.5966 536.835 31.2557C537.505 30.9148 538.056 30.4205 538.488 29.7727C538.931 29.1136 539.221 28.3239 539.357 27.4034H546.21C546.096 29.4034 545.55 31.1648 544.573 32.6875C543.607 34.1989 542.272 35.3807 540.567 36.233C538.863 37.0852 536.846 37.5114 534.516 37.5114ZM558.12 21.8636V37H550.859V2.09091H557.915V15.4375H558.222C558.813 13.892 559.768 12.6818 561.086 11.8068C562.404 10.9205 564.058 10.4773 566.046 10.4773C567.864 10.4773 569.45 10.875 570.802 11.6705C572.165 12.4545 573.222 13.5852 573.972 15.0625C574.734 16.5284 575.109 18.2841 575.097 20.3295V37H567.836V21.625C567.847 20.0114 567.438 18.7557 566.609 17.858C565.79 16.9602 564.643 16.5114 563.165 16.5114C562.177 16.5114 561.302 16.7216 560.54 17.142C559.79 17.5625 559.2 18.1761 558.768 18.983C558.347 19.7784 558.131 20.7386 558.12 21.8636ZM603.751 37.5114C601.103 37.5114 598.813 36.9489 596.881 35.8239C594.961 34.6875 593.478 33.108 592.433 31.0852C591.387 29.0511 590.864 26.6932 590.864 24.0114C590.864 21.3068 591.387 18.9432 592.433 16.9205C593.478 14.8864 594.961 13.3068 596.881 12.1818C598.813 11.0455 601.103 10.4773 603.751 10.4773C606.398 10.4773 608.683 11.0455 610.603 12.1818C612.535 13.3068 614.023 14.8864 615.069 16.9205C616.114 18.9432 616.637 21.3068 616.637 24.0114C616.637 26.6932 616.114 29.0511 615.069 31.0852C614.023 33.108 612.535 34.6875 610.603 35.8239C608.683 36.9489 606.398 37.5114 603.751 37.5114ZM603.785 31.8864C604.989 31.8864 605.995 31.5455 606.802 30.8636C607.609 30.1705 608.217 29.2273 608.626 28.0341C609.046 26.8409 609.256 25.483 609.256 23.9602C609.256 22.4375 609.046 21.0795 608.626 19.8864C608.217 18.6932 607.609 17.75 606.802 17.0568C605.995 16.3636 604.989 16.017 603.785 16.017C602.569 16.017 601.546 16.3636 600.717 17.0568C599.898 17.75 599.279 18.6932 598.859 19.8864C598.45 21.0795 598.245 22.4375 598.245 23.9602C598.245 25.483 598.45 26.8409 598.859 28.0341C599.279 29.2273 599.898 30.1705 600.717 30.8636C601.546 31.5455 602.569 31.8864 603.785 31.8864ZM628.62 21.8636V37H621.359V10.8182H628.279V15.4375H628.586C629.165 13.9148 630.137 12.7102 631.501 11.8239C632.864 10.9261 634.518 10.4773 636.461 10.4773C638.279 10.4773 639.864 10.875 641.217 11.6705C642.569 12.4659 643.62 13.6023 644.37 15.0795C645.12 16.5455 645.495 18.2955 645.495 20.3295V37H638.234V21.625C638.245 20.0227 637.836 18.7727 637.006 17.875C636.177 16.9659 635.035 16.5114 633.58 16.5114C632.603 16.5114 631.739 16.7216 630.989 17.142C630.251 17.5625 629.671 18.1761 629.251 18.983C628.842 19.7784 628.631 20.7386 628.62 21.8636ZM663.15 37.5114C660.457 37.5114 658.138 36.9659 656.195 35.875C654.263 34.7727 652.775 33.2159 651.729 31.2045C650.684 29.1818 650.161 26.7898 650.161 24.0284C650.161 21.3352 650.684 18.9716 651.729 16.9375C652.775 14.9034 654.246 13.3182 656.144 12.1818C658.053 11.0455 660.292 10.4773 662.86 10.4773C664.587 10.4773 666.195 10.7557 667.684 11.3125C669.184 11.858 670.491 12.6818 671.604 13.7841C672.729 14.8864 673.604 16.2727 674.229 17.9432C674.854 19.6023 675.167 21.5455 675.167 23.7727V25.767H653.059V21.267H668.332C668.332 20.2216 668.104 19.2955 667.65 18.4886C667.195 17.6818 666.565 17.0511 665.758 16.5966C664.962 16.1307 664.036 15.8977 662.979 15.8977C661.877 15.8977 660.9 16.1534 660.048 16.6648C659.207 17.1648 658.548 17.8409 658.07 18.6932C657.593 19.5341 657.349 20.4716 657.337 21.5057V25.7841C657.337 27.0795 657.576 28.1989 658.053 29.142C658.542 30.0852 659.229 30.8125 660.116 31.3239C661.002 31.8352 662.053 32.0909 663.269 32.0909C664.076 32.0909 664.815 31.9773 665.485 31.75C666.156 31.5227 666.729 31.1818 667.207 30.7273C667.684 30.2727 668.048 29.7159 668.298 29.0568L675.013 29.5C674.673 31.1136 673.974 32.5227 672.917 33.7273C671.871 34.9205 670.519 35.8523 668.86 36.5227C667.212 37.1818 665.309 37.5114 663.15 37.5114ZM176.031 90L168.906 63.8182H176.253L180.31 81.4091H180.548L184.776 63.8182H191.986L196.281 81.3068H196.503L200.491 63.8182H207.821L200.713 90H193.026L188.526 73.5341H188.202L183.702 90H176.031ZM222.868 90.5114C220.22 90.5114 217.93 89.9489 215.999 88.8239C214.078 87.6875 212.595 86.108 211.55 84.0852C210.504 82.0511 209.982 79.6932 209.982 77.0114C209.982 74.3068 210.504 71.9432 211.55 69.9205C212.595 67.8864 214.078 66.3068 215.999 65.1818C217.93 64.0455 220.22 63.4773 222.868 63.4773C225.516 63.4773 227.8 64.0455 229.72 65.1818C231.652 66.3068 233.141 67.8864 234.186 69.9205C235.232 71.9432 235.754 74.3068 235.754 77.0114C235.754 79.6932 235.232 82.0511 234.186 84.0852C233.141 86.108 231.652 87.6875 229.72 88.8239C227.8 89.9489 225.516 90.5114 222.868 90.5114ZM222.902 84.8864C224.107 84.8864 225.112 84.5455 225.919 83.8636C226.726 83.1705 227.334 82.2273 227.743 81.0341C228.163 79.8409 228.374 78.483 228.374 76.9602C228.374 75.4375 228.163 74.0795 227.743 72.8864C227.334 71.6932 226.726 70.75 225.919 70.0568C225.112 69.3636 224.107 69.017 222.902 69.017C221.686 69.017 220.663 69.3636 219.834 70.0568C219.016 70.75 218.396 71.6932 217.976 72.8864C217.567 74.0795 217.362 75.4375 217.362 76.9602C217.362 78.483 217.567 79.8409 217.976 81.0341C218.396 82.2273 219.016 83.1705 219.834 83.8636C220.663 84.5455 221.686 84.8864 222.902 84.8864ZM257.266 78.8523V63.8182H264.527V90H257.555V85.2443H257.283C256.692 86.7784 255.709 88.0114 254.334 88.9432C252.97 89.875 251.305 90.3409 249.339 90.3409C247.589 90.3409 246.05 89.9432 244.72 89.1477C243.391 88.3523 242.351 87.2216 241.601 85.7557C240.862 84.2898 240.487 82.5341 240.476 80.4886V63.8182H247.737V79.1932C247.749 80.7386 248.163 81.9602 248.982 82.858C249.8 83.7557 250.896 84.2045 252.271 84.2045C253.146 84.2045 253.964 84.0057 254.726 83.608C255.487 83.1989 256.101 82.5966 256.567 81.8011C257.044 81.0057 257.277 80.0227 257.266 78.8523ZM277.597 55.0909V90H270.335V55.0909H277.597ZM293.061 90.4261C291.072 90.4261 289.271 89.9148 287.658 88.892C286.055 87.858 284.783 86.3409 283.839 84.3409C282.908 82.3295 282.442 79.8636 282.442 76.9432C282.442 73.9432 282.925 71.4489 283.891 69.4602C284.857 67.4602 286.141 65.9659 287.743 64.9773C289.357 63.9773 291.124 63.4773 293.044 63.4773C294.51 63.4773 295.732 63.7273 296.709 64.2273C297.697 64.7159 298.493 65.3295 299.095 66.0682C299.709 66.7955 300.175 67.5114 300.493 68.2159H300.714V55.0909H307.959V90H300.8V85.8068H300.493C300.152 86.5341 299.669 87.2557 299.044 87.9716C298.43 88.6761 297.629 89.2614 296.641 89.7273C295.663 90.1932 294.47 90.4261 293.061 90.4261ZM295.362 84.6477C296.533 84.6477 297.521 84.3295 298.328 83.6932C299.146 83.0455 299.771 82.142 300.203 80.983C300.646 79.8239 300.868 78.4659 300.868 76.9091C300.868 75.3523 300.652 74 300.22 72.8523C299.788 71.7045 299.163 70.8182 298.345 70.1932C297.527 69.5682 296.533 69.2557 295.362 69.2557C294.169 69.2557 293.163 69.5795 292.345 70.2273C291.527 70.875 290.908 71.7727 290.487 72.9205C290.067 74.0682 289.857 75.3977 289.857 76.9091C289.857 78.4318 290.067 79.7784 290.487 80.9489C290.919 82.108 291.538 83.017 292.345 83.6761C293.163 84.3239 294.169 84.6477 295.362 84.6477ZM329.521 99.8182C328.601 99.8182 327.737 99.7443 326.93 99.5966C326.135 99.4602 325.476 99.2841 324.953 99.0682L326.589 93.6477C327.442 93.9091 328.209 94.0511 328.891 94.0739C329.584 94.0966 330.18 93.9375 330.68 93.5966C331.192 93.2557 331.607 92.6761 331.925 91.858L332.351 90.75L322.959 63.8182H330.595L336.016 83.0455H336.288L341.76 63.8182H349.447L339.271 92.8295C338.783 94.2386 338.118 95.4659 337.277 96.5114C336.447 97.5682 335.396 98.3807 334.124 98.9489C332.851 99.5284 331.317 99.8182 329.521 99.8182ZM364.149 90.5114C361.501 90.5114 359.212 89.9489 357.28 88.8239C355.359 87.6875 353.876 86.108 352.831 84.0852C351.786 82.0511 351.263 79.6932 351.263 77.0114C351.263 74.3068 351.786 71.9432 352.831 69.9205C353.876 67.8864 355.359 66.3068 357.28 65.1818C359.212 64.0455 361.501 63.4773 364.149 63.4773C366.797 63.4773 369.081 64.0455 371.001 65.1818C372.933 66.3068 374.422 67.8864 375.467 69.9205C376.513 71.9432 377.036 74.3068 377.036 77.0114C377.036 79.6932 376.513 82.0511 375.467 84.0852C374.422 86.108 372.933 87.6875 371.001 88.8239C369.081 89.9489 366.797 90.5114 364.149 90.5114ZM364.183 84.8864C365.388 84.8864 366.393 84.5455 367.2 83.8636C368.007 83.1705 368.615 82.2273 369.024 81.0341C369.445 79.8409 369.655 78.483 369.655 76.9602C369.655 75.4375 369.445 74.0795 369.024 72.8864C368.615 71.6932 368.007 70.75 367.2 70.0568C366.393 69.3636 365.388 69.017 364.183 69.017C362.967 69.017 361.945 69.3636 361.115 70.0568C360.297 70.75 359.678 71.6932 359.257 72.8864C358.848 74.0795 358.643 75.4375 358.643 76.9602C358.643 78.483 358.848 79.8409 359.257 81.0341C359.678 82.2273 360.297 83.1705 361.115 83.8636C361.945 84.5455 362.967 84.8864 364.183 84.8864ZM398.547 78.8523V63.8182H405.808V90H398.837V85.2443H398.564C397.973 86.7784 396.99 88.0114 395.615 88.9432C394.251 89.875 392.587 90.3409 390.621 90.3409C388.871 90.3409 387.331 89.9432 386.001 89.1477C384.672 88.3523 383.632 87.2216 382.882 85.7557C382.143 84.2898 381.768 82.5341 381.757 80.4886V63.8182H389.018V79.1932C389.03 80.7386 389.445 81.9602 390.263 82.858C391.081 83.7557 392.178 84.2045 393.553 84.2045C394.428 84.2045 395.246 84.0057 396.007 83.608C396.768 83.1989 397.382 82.5966 397.848 81.8011C398.325 81.0057 398.558 80.0227 398.547 78.8523ZM422.862 90V55.0909H430.124V68.2159H430.345C430.663 67.5114 431.124 66.7955 431.726 66.0682C432.339 65.3295 433.135 64.7159 434.112 64.2273C435.101 63.7273 436.328 63.4773 437.794 63.4773C439.703 63.4773 441.464 63.9773 443.078 64.9773C444.692 65.9659 445.982 67.4602 446.947 69.4602C447.913 71.4489 448.396 73.9432 448.396 76.9432C448.396 79.8636 447.925 82.3295 446.982 84.3409C446.05 86.3409 444.777 87.858 443.163 88.892C441.561 89.9148 439.766 90.4261 437.777 90.4261C436.368 90.4261 435.169 90.1932 434.18 89.7273C433.203 89.2614 432.402 88.6761 431.777 87.9716C431.152 87.2557 430.675 86.5341 430.345 85.8068H430.021V90H422.862ZM429.97 76.9091C429.97 78.4659 430.186 79.8239 430.618 80.983C431.05 82.142 431.675 83.0455 432.493 83.6932C433.311 84.3295 434.305 84.6477 435.476 84.6477C436.658 84.6477 437.658 84.3239 438.476 83.6761C439.294 83.017 439.913 82.108 440.334 80.9489C440.766 79.7784 440.982 78.4318 440.982 76.9091C440.982 75.3977 440.771 74.0682 440.351 72.9205C439.93 71.7727 439.311 70.875 438.493 70.2273C437.675 69.5795 436.669 69.2557 435.476 69.2557C434.294 69.2557 433.294 69.5682 432.476 70.1932C431.669 70.8182 431.05 71.7045 430.618 72.8523C430.186 74 429.97 75.3523 429.97 76.9091ZM465.173 90.5114C462.48 90.5114 460.162 89.9659 458.219 88.875C456.287 87.7727 454.798 86.2159 453.753 84.2045C452.707 82.1818 452.185 79.7898 452.185 77.0284C452.185 74.3352 452.707 71.9716 453.753 69.9375C454.798 67.9034 456.27 66.3182 458.168 65.1818C460.077 64.0455 462.315 63.4773 464.884 63.4773C466.611 63.4773 468.219 63.7557 469.707 64.3125C471.207 64.858 472.514 65.6818 473.628 66.7841C474.753 67.8864 475.628 69.2727 476.253 70.9432C476.878 72.6023 477.19 74.5455 477.19 76.7727V78.767H455.082V74.267H470.355C470.355 73.2216 470.128 72.2955 469.673 71.4886C469.219 70.6818 468.588 70.0511 467.781 69.5966C466.986 69.1307 466.06 68.8977 465.003 68.8977C463.901 68.8977 462.923 69.1534 462.071 69.6648C461.23 70.1648 460.571 70.8409 460.094 71.6932C459.616 72.5341 459.372 73.4716 459.361 74.5057V78.7841C459.361 80.0795 459.599 81.1989 460.077 82.142C460.565 83.0852 461.253 83.8125 462.139 84.3239C463.026 84.8352 464.077 85.0909 465.293 85.0909C466.099 85.0909 466.838 84.9773 467.509 84.75C468.179 84.5227 468.753 84.1818 469.23 83.7273C469.707 83.2727 470.071 82.7159 470.321 82.0568L477.037 82.5C476.696 84.1136 475.997 85.5227 474.94 86.7273C473.895 87.9205 472.543 88.8523 470.884 89.5227C469.236 90.1818 467.332 90.5114 465.173 90.5114ZM488.168 79.5341V78.9545C488.179 76.9659 488.355 75.3807 488.696 74.1989C489.048 73.017 489.56 72.0625 490.23 71.3352C490.901 70.608 491.707 69.9489 492.651 69.358C493.355 68.9034 493.986 68.4318 494.543 67.9432C495.099 67.4545 495.543 66.9148 495.872 66.3239C496.202 65.7216 496.366 65.0511 496.366 64.3125C496.366 63.5284 496.179 62.8409 495.804 62.25C495.429 61.6591 494.923 61.2045 494.287 60.8864C493.662 60.5682 492.969 60.4091 492.207 60.4091C491.469 60.4091 490.77 60.5739 490.111 60.9034C489.452 61.2216 488.912 61.6989 488.491 62.3352C488.071 62.9602 487.844 63.7386 487.81 64.6705H480.855C480.912 62.3977 481.457 60.5227 482.491 59.0455C483.526 57.5568 484.895 56.4489 486.599 55.7216C488.304 54.983 490.185 54.6136 492.241 54.6136C494.503 54.6136 496.503 54.9886 498.241 55.7386C499.98 56.4773 501.344 57.5511 502.332 58.9602C503.321 60.3693 503.815 62.0682 503.815 64.0568C503.815 65.3864 503.594 66.5682 503.151 67.6023C502.719 68.625 502.111 69.5341 501.327 70.3295C500.543 71.1136 499.616 71.8239 498.548 72.4602C497.651 72.9943 496.912 73.5511 496.332 74.1307C495.764 74.7102 495.338 75.3807 495.054 76.142C494.781 76.9034 494.639 77.8409 494.628 78.9545V79.5341H488.168ZM491.543 90.4432C490.406 90.4432 489.435 90.0455 488.628 89.25C487.832 88.4432 487.44 87.4773 487.452 86.3523C487.44 85.2386 487.832 84.2841 488.628 83.4886C489.435 82.6932 490.406 82.2955 491.543 82.2955C492.622 82.2955 493.571 82.6932 494.389 83.4886C495.207 84.2841 495.622 85.2386 495.634 86.3523C495.622 87.1023 495.423 87.7898 495.037 88.4148C494.662 89.0284 494.168 89.5227 493.554 89.8977C492.94 90.2614 492.27 90.4432 491.543 90.4432Z" fill="#3E2522"/>
</svg>
