<svg width="125" height="37" viewBox="0 0 125 37" fill="none" xmlns="http://www.w3.org/2000/svg">
<rect width="125" height="37" rx="18.5" fill="#3D1F1A"/>
<path d="M30.2557 13.3636V25H28.1477V13.3636H30.2557ZM34.1918 13.3636V14.5227C34.1918 14.8561 34.1274 15.2027 33.9986 15.5625C33.8736 15.9186 33.7012 16.2595 33.4815 16.5852C33.2618 16.9072 33.0118 17.1837 32.7315 17.4148L31.777 16.7955C31.9853 16.4811 32.1671 16.142 32.3224 15.7784C32.4777 15.411 32.5554 14.9962 32.5554 14.5341V13.3636H34.1918ZM35.5256 25V16.2727H37.4915V17.7557H37.5938C37.7756 17.2557 38.0767 16.8655 38.4972 16.5852C38.9176 16.3011 39.4195 16.1591 40.0028 16.1591C40.5938 16.1591 41.0919 16.303 41.4972 16.5909C41.9063 16.875 42.1941 17.2633 42.3608 17.7557H42.4517C42.6449 17.2708 42.9706 16.8845 43.429 16.5966C43.8911 16.3049 44.4384 16.1591 45.071 16.1591C45.8741 16.1591 46.5294 16.4129 47.0369 16.9205C47.5445 17.428 47.7983 18.1686 47.7983 19.142V25H45.7358V19.4602C45.7358 18.9186 45.5919 18.5227 45.304 18.2727C45.0161 18.0189 44.6638 17.892 44.2472 17.892C43.7509 17.892 43.3627 18.0473 43.0824 18.358C42.8059 18.6648 42.6676 19.0644 42.6676 19.5568V25H40.6506V19.375C40.6506 18.9242 40.5142 18.5644 40.2415 18.2955C39.9725 18.0265 39.6203 17.892 39.1847 17.892C38.8892 17.892 38.6203 17.9678 38.3778 18.1193C38.1354 18.267 37.9422 18.4773 37.7983 18.75C37.6544 19.0189 37.5824 19.3333 37.5824 19.6932V25H35.5256ZM57.0923 25.1534C56.4067 25.1534 55.7931 24.9773 55.2514 24.625C54.7098 24.2727 54.2817 23.7614 53.9673 23.0909C53.6529 22.4205 53.4957 21.6061 53.4957 20.6477C53.4957 19.678 53.6548 18.8598 53.973 18.1932C54.295 17.5227 54.7287 17.017 55.2741 16.6761C55.8196 16.3314 56.4276 16.1591 57.098 16.1591C57.6094 16.1591 58.0298 16.2462 58.3594 16.4205C58.6889 16.5909 58.9503 16.7973 59.1435 17.0398C59.3366 17.2784 59.4863 17.5038 59.5923 17.7159H59.6776V13.3636H61.7401V25H59.7173V23.625H59.5923C59.4863 23.8371 59.3329 24.0625 59.1321 24.3011C58.9313 24.536 58.6662 24.7367 58.3366 24.9034C58.0071 25.0701 57.5923 25.1534 57.0923 25.1534ZM57.6662 23.4659C58.1018 23.4659 58.473 23.3485 58.7798 23.1136C59.0866 22.875 59.3196 22.5436 59.4787 22.1193C59.6378 21.6951 59.7173 21.2008 59.7173 20.6364C59.7173 20.072 59.6378 19.5814 59.4787 19.1648C59.3234 18.7481 59.0923 18.4242 58.7855 18.1932C58.4825 17.9621 58.1094 17.8466 57.6662 17.8466C57.2079 17.8466 56.8253 17.9659 56.5185 18.2045C56.2116 18.4432 55.9806 18.7727 55.8253 19.1932C55.67 19.6136 55.5923 20.0947 55.5923 20.6364C55.5923 21.1818 55.67 21.6686 55.8253 22.0966C55.9844 22.5208 56.2173 22.8561 56.5241 23.1023C56.8348 23.3447 57.2154 23.4659 57.6662 23.4659ZM67.7386 25.1705C66.8864 25.1705 66.1477 24.983 65.5227 24.608C64.8977 24.233 64.4129 23.7083 64.0682 23.0341C63.7273 22.3598 63.5568 21.572 63.5568 20.6705C63.5568 19.7689 63.7273 18.9792 64.0682 18.3011C64.4129 17.6231 64.8977 17.0966 65.5227 16.7216C66.1477 16.3466 66.8864 16.1591 67.7386 16.1591C68.5909 16.1591 69.3295 16.3466 69.9545 16.7216C70.5795 17.0966 71.0625 17.6231 71.4034 18.3011C71.7481 18.9792 71.9205 19.7689 71.9205 20.6705C71.9205 21.572 71.7481 22.3598 71.4034 23.0341C71.0625 23.7083 70.5795 24.233 69.9545 24.608C69.3295 24.983 68.5909 25.1705 67.7386 25.1705ZM67.75 23.5227C68.2121 23.5227 68.5985 23.3958 68.9091 23.142C69.2197 22.8845 69.4508 22.5398 69.6023 22.108C69.7576 21.6761 69.8352 21.1951 69.8352 20.6648C69.8352 20.1307 69.7576 19.6477 69.6023 19.2159C69.4508 18.7803 69.2197 18.4337 68.9091 18.1761C68.5985 17.9186 68.2121 17.7898 67.75 17.7898C67.2765 17.7898 66.8826 17.9186 66.5682 18.1761C66.2576 18.4337 66.0246 18.7803 65.8693 19.2159C65.7178 19.6477 65.642 20.1307 65.642 20.6648C65.642 21.1951 65.7178 21.6761 65.8693 22.108C66.0246 22.5398 66.2576 22.8845 66.5682 23.142C66.8826 23.3958 67.2765 23.5227 67.75 23.5227ZM75.723 19.8864V25H73.6662V16.2727H75.6321V17.7557H75.7344C75.9351 17.267 76.2552 16.8788 76.6946 16.5909C77.1378 16.303 77.6851 16.1591 78.3366 16.1591C78.9389 16.1591 79.4635 16.2879 79.9105 16.5455C80.3613 16.803 80.7098 17.1761 80.956 17.6648C81.206 18.1534 81.3291 18.7462 81.3253 19.4432V25H79.2685V19.7614C79.2685 19.178 79.117 18.7216 78.8139 18.392C78.5147 18.0625 78.0999 17.8977 77.5696 17.8977C77.2098 17.8977 76.8897 17.9773 76.6094 18.1364C76.3329 18.2917 76.1151 18.517 75.956 18.8125C75.8007 19.108 75.723 19.4659 75.723 19.8864ZM87.2798 25.1705C86.4048 25.1705 85.6491 24.9886 85.0128 24.625C84.3802 24.2576 83.8935 23.7386 83.5526 23.0682C83.2116 22.3939 83.0412 21.6004 83.0412 20.6875C83.0412 19.7898 83.2116 19.0019 83.5526 18.3239C83.8973 17.642 84.3783 17.1117 84.9957 16.733C85.6132 16.3504 86.3385 16.1591 87.1719 16.1591C87.7098 16.1591 88.2173 16.2462 88.6946 16.4205C89.1757 16.5909 89.5999 16.8561 89.9673 17.2159C90.3385 17.5758 90.6302 18.0341 90.8423 18.5909C91.0545 19.1439 91.1605 19.803 91.1605 20.5682V21.1989H84.0071V19.8125H89.1889C89.1851 19.4186 89.0999 19.0682 88.9332 18.7614C88.7666 18.4508 88.5336 18.2064 88.2344 18.0284C87.9389 17.8504 87.5942 17.7614 87.2003 17.7614C86.7798 17.7614 86.4105 17.8636 86.0923 18.0682C85.7741 18.2689 85.526 18.5341 85.348 18.8636C85.1738 19.1894 85.0848 19.5473 85.081 19.9375V21.1477C85.081 21.6553 85.1738 22.0909 85.3594 22.4545C85.545 22.8144 85.8045 23.0909 86.1378 23.2841C86.4711 23.4735 86.8613 23.5682 87.3082 23.5682C87.6075 23.5682 87.8783 23.5265 88.1207 23.4432C88.3632 23.3561 88.5734 23.2292 88.7514 23.0625C88.9295 22.8958 89.0639 22.6894 89.1548 22.4432L91.0753 22.6591C90.9541 23.1667 90.723 23.6098 90.3821 23.9886C90.045 24.3636 89.6132 24.6553 89.0866 24.8636C88.5601 25.0682 87.9579 25.1705 87.2798 25.1705Z" fill="#BC8970"/>
</svg>
