<svg width="83" height="78" viewBox="0 0 83 78" fill="none" xmlns="http://www.w3.org/2000/svg">
<circle cx="42" cy="39" r="25" fill="#3D1F1A"/>
<path d="M42.2499 27.2721L45.4689 21H39.0391L42.2499 27.2721Z" fill="#BC8970"/>
<path d="M41.8479 50.728L38.6289 57.0001H45.0587L41.8479 50.728Z" fill="#BC8970"/>
<path d="M54.4297 39.1796L59.9995 42.7952V35.5547L54.4297 39.1796Z" fill="#BC8970"/>
<path d="M29.5698 39.0038L24 42.6195V35.3789L29.5698 39.0038Z" fill="#BC8970"/>
<path d="M33.396 53.2367C31.8971 53.2367 30.3981 53.2367 28.9074 53.2459C28.8746 53.2459 28.6862 53.2182 28.5552 53.0245C28.4159 52.8308 28.4487 52.6095 28.4569 52.5726L28.4405 46.485C28.4405 46.4296 28.4651 46.3466 28.506 46.2636C28.5388 46.1898 28.588 46.1345 28.6207 46.0976C30.0132 45.0184 31.4056 43.9392 32.8063 42.8693C32.8308 42.8509 32.9209 42.8047 32.9701 42.6756C33.0028 42.5926 32.9946 42.5188 32.9946 42.4819C33.0438 39.9454 33.0929 37.3997 33.1503 34.8632C33.1503 34.8171 33.1339 34.7617 33.1175 34.6972C33.0684 34.5588 32.9865 34.4758 32.9455 34.4389C31.4957 33.618 30.0459 32.7971 28.5961 31.967C28.5716 31.967 28.4651 31.9209 28.3996 31.7825C28.3422 31.6718 28.3586 31.5611 28.3586 31.5242C28.3422 28.6741 28.3914 26.5158 28.4733 25.6027C28.4897 25.409 28.5306 25.0493 28.76 24.7264C29.0794 24.2745 29.5709 24.1546 29.8412 24.1177C30.8978 24.1177 31.9462 24.1177 33.0028 24.1177C33.0438 24.1177 33.1339 24.1361 33.2322 24.2007C33.2322 24.2007 33.3141 24.256 33.3714 24.3575C33.4697 24.5235 34.1168 26.5712 34.9604 29.3844C35.0178 29.5873 35.1734 29.6519 35.1734 29.6519C35.1734 29.6519 35.2635 29.698 35.37 29.7072C35.4519 29.7164 41.2101 29.6887 49.0405 29.6426C49.0815 29.6426 49.1798 29.6334 49.2781 29.5504C49.3846 29.4674 49.4337 29.3382 49.4501 29.2921C49.532 29.0523 49.9497 27.3644 50.4903 25.0308C50.5067 24.9755 50.564 24.8556 50.6869 24.7633C50.7688 24.6988 50.8589 24.6803 50.8999 24.6711C53.1769 24.6342 54.8479 24.6342 55.3148 24.6434C55.4458 24.6434 55.7161 24.6434 55.9127 24.8648C56.0601 25.0216 56.1093 25.2061 56.1257 25.2891C56.1093 27.2445 56.0929 29.1907 56.0765 31.1461C56.0765 31.183 56.0765 31.266 56.0437 31.349C56.0028 31.4412 55.9373 31.4966 55.9209 31.515C55.798 31.6257 53.9796 33.1568 51.4978 35.2506C51.4568 35.2967 51.4159 35.3613 51.3749 35.4535C51.3422 35.5273 51.3258 35.5919 51.3176 35.6472C51.3094 37.6949 51.293 39.7425 51.2848 41.7901C51.2848 41.827 51.2848 41.8824 51.293 41.9469C51.3258 42.0668 51.3995 42.1406 51.4323 42.1683C51.5551 42.279 53.2998 43.8931 55.6997 46.0976C55.7243 46.116 55.7816 46.1621 55.8226 46.2544C55.8635 46.3466 55.8635 46.4389 55.8554 46.4757C55.8554 49.5288 55.8308 51.7701 55.8144 52.2221C55.8144 52.3235 55.798 52.5541 55.6588 52.7109C55.5195 52.8585 55.3311 52.8769 55.2492 52.8769C54.8561 52.8954 53.3899 52.9231 51.3995 52.9323C51.3668 52.9323 51.2766 52.9323 51.1865 52.8769C51.1128 52.8308 51.0719 52.7663 51.0637 52.7478C50.9736 52.6002 49.704 50.654 47.9594 47.9792C47.9512 47.9515 47.9102 47.8593 47.8119 47.8132C47.7218 47.7671 47.6481 47.7855 47.6235 47.7855L36.9263 47.8132C36.9263 47.8132 36.828 47.8132 36.7542 47.8408C36.6314 47.8962 36.5822 48.0161 36.574 48.0438C35.6485 49.6948 34.7229 51.3458 33.7973 52.9968C33.7646 53.0337 33.7236 53.0891 33.6499 53.1352C33.5598 53.1905 33.4779 53.2182 33.4288 53.2182L33.396 53.2367Z" fill="#BC8970"/>
</svg>
