<svg width="23" height="680" viewBox="0 0 23 680" fill="none" xmlns="http://www.w3.org/2000/svg">
<path d="M0.5 668.5L0.5 13.5C0.5 7.42487 5.42487 2.5 11.5 2.5C17.5751 2.5 22.5 7.42487 22.5 13.5L22.5 668.5C22.5 674.575 17.5751 679.5 11.5 679.5C5.42487 679.5 0.5 674.575 0.5 668.5Z" stroke="#3D1F1A"/>
<path d="M0.5 667.1L0.5 12.1001C0.5 6.02497 5.42487 1.1001 11.5 1.1001C17.5751 1.1001 22.5 6.02497 22.5 12.1001L22.5 667.1C22.5 673.175 17.5751 678.1 11.5 678.1C5.42487 678.1 0.5 673.175 0.5 667.1Z" fill="#3D1F1A" stroke="#3D1F1A"/>
</svg>
