<svg width="23" height="678" viewBox="0 0 23 678" fill="none" xmlns="http://www.w3.org/2000/svg">
<path d="M0.5 666.5L0.5 11.5C0.5 5.42487 5.42487 0.5 11.5 0.5C17.5751 0.5 22.5 5.42487 22.5 11.5L22.5 666.5C22.5 672.575 17.5751 677.5 11.5 677.5C5.42487 677.5 0.5 672.575 0.5 666.5Z" stroke="#3D1F1A"/>
<path d="M0.5 666.1L0.5 508.3C0.5 502.225 5.42487 497.3 11.5 497.3C17.5751 497.3 22.5 502.225 22.5 508.3L22.5 666.1C22.5 672.175 17.5751 677.1 11.5 677.1C5.42487 677.1 0.5 672.175 0.5 666.1Z" fill="#3D1F1A" stroke="#3D1F1A"/>
</svg>
