<svg width="23" height="678" viewBox="0 0 23 678" fill="none" xmlns="http://www.w3.org/2000/svg">
<path d="M0.5 666.5L0.5 11.5C0.5 5.42487 5.42487 0.5 11.5 0.5C17.5751 0.5 22.5 5.42487 22.5 11.5L22.5 666.5C22.5 672.575 17.5751 677.5 11.5 677.5C5.42487 677.5 0.5 672.575 0.5 666.5Z" stroke="#3D1F1A"/>
<path d="M0.5 665.9L0.5 462.9C0.5 456.825 5.42487 451.9 11.5 451.9C17.5751 451.9 22.5 456.825 22.5 462.9L22.5 665.9C22.5 671.975 17.5751 676.9 11.5 676.9C5.42487 676.9 0.500001 671.975 0.5 665.9Z" fill="#3D1F1A" stroke="#3D1F1A"/>
</svg>
