<svg width="23" height="678" viewBox="0 0 23 678" fill="none" xmlns="http://www.w3.org/2000/svg">
<path d="M0.5 666.5L0.5 11.5C0.5 5.42487 5.42487 0.5 11.5 0.5C17.5751 0.5 22.5 5.42487 22.5 11.5L22.5 666.5C22.5 672.575 17.5751 677.5 11.5 677.5C5.42487 677.5 0.5 672.575 0.5 666.5Z" stroke="#3D1F1A"/>
<path d="M0.5 666.4L0.5 651.47C0.5 645.395 5.42487 640.47 11.5 640.47C17.5751 640.47 22.5 645.395 22.5 651.47L22.5 666.4C22.5 672.475 17.5751 677.4 11.5 677.4C5.42487 677.4 0.500001 672.475 0.5 666.4Z" fill="#3D1F1A" stroke="#3D1F1A"/>
</svg>
