<svg width="23" height="678" viewBox="0 0 23 678" fill="none" xmlns="http://www.w3.org/2000/svg">
<path d="M0.5 666.5L0.5 11.5C0.5 5.42487 5.42487 0.5 11.5 0.5C17.5751 0.5 22.5 5.42487 22.5 11.5L22.5 666.5C22.5 672.575 17.5751 677.5 11.5 677.5C5.42487 677.5 0.5 672.575 0.5 666.5Z" stroke="#3D1F1A"/>
<path d="M0.5 665.3L0.5 349.3C0.500004 343.225 5.42487 338.3 11.5 338.3C17.5751 338.3 22.5 343.225 22.5 349.3L22.5 665.3C22.5 671.375 17.5751 676.3 11.5 676.3C5.42487 676.3 0.5 671.375 0.5 665.3Z" fill="#3D1F1A" stroke="#3D1F1A"/>
</svg>
