<svg width="23" height="678" viewBox="0 0 23 678" fill="none" xmlns="http://www.w3.org/2000/svg">
<path d="M0.5 666.5L0.5 11.5C0.5 5.42487 5.42487 0.5 11.5 0.5C17.5751 0.5 22.5 5.42487 22.5 11.5L22.5 666.5C22.5 672.575 17.5751 677.5 11.5 677.5C5.42487 677.5 0.5 672.575 0.5 666.5Z" stroke="#3D1F1A"/>
<path d="M0.5 665.3L0.5 326.7C0.5 320.625 5.42487 315.7 11.5 315.7C17.5751 315.7 22.5 320.625 22.5 326.7L22.5 665.3C22.5 671.375 17.5751 676.3 11.5 676.3C5.42487 676.3 0.500001 671.375 0.5 665.3Z" fill="#3D1F1A" stroke="#3D1F1A"/>
</svg>
