<svg width="23" height="678" viewBox="0 0 23 678" fill="none" xmlns="http://www.w3.org/2000/svg">
<path d="M0.5 666.5L0.5 11.5C0.5 5.42487 5.42487 0.5 11.5 0.5C17.5751 0.5 22.5 5.42487 22.5 11.5L22.5 666.5C22.5 672.575 17.5751 677.5 11.5 677.5C5.42487 677.5 0.5 672.575 0.5 666.5Z" stroke="#3D1F1A"/>
<path d="M0.5 665.1L0.5 190.9C0.500099 184.825 5.42493 179.9 11.5 179.9C17.5751 179.9 22.4999 184.825 22.5 190.9L22.5 665.1C22.5 671.175 17.5751 676.1 11.5 676.1C5.42487 676.1 0.5 671.175 0.5 665.1Z" fill="#3D1F1A" stroke="#3D1F1A"/>
</svg>
