<svg width="23" height="678" viewBox="0 0 23 678" fill="none" xmlns="http://www.w3.org/2000/svg">
<path d="M0.5 666.5L0.5 11.5C0.5 5.42487 5.42487 0.5 11.5 0.5C17.5751 0.5 22.5 5.42487 22.5 11.5L22.5 666.5C22.5 672.575 17.5751 677.5 11.5 677.5C5.42487 677.5 0.5 672.575 0.5 666.5Z" stroke="#3D1F1A"/>
<path d="M0.5 665.1L0.5 55.3003C0.5 49.2252 5.42487 44.3003 11.5 44.3003C17.5751 44.3003 22.5 49.2252 22.5 55.3003L22.5 665.1C22.5 671.175 17.5751 676.1 11.5 676.1C5.42487 676.1 0.500001 671.175 0.5 665.1Z" fill="#3D1F1A" stroke="#3D1F1A"/>
</svg>
