<svg width="83" height="70" viewBox="0 0 83 70" fill="none" xmlns="http://www.w3.org/2000/svg">
<circle cx="42" cy="32" r="25" fill="#3D1F1A"/>
<path d="M24 21C24.5868 21.1265 26.1102 21.5561 27.4732 23.1976C28.9756 25.009 29.3414 27.1634 29.4387 27.8826C29.3966 33.6898 29.3545 39.4936 29.3124 45.3007H46.8785C47.4758 45.4705 48.4335 45.8468 49.4308 46.7225C50.3464 47.5283 50.9306 48.434 51.27 49.05" stroke="#D59970" stroke-miterlimit="10"/>
<path d="M47.8047 21C47.1771 21.3914 46.1198 22.1665 45.2444 23.5326C43.8502 25.7063 43.8484 27.9204 43.8609 28.8202C43.8912 31.2319 44.7524 34.1463 45.683 34.1731C46.0289 34.1827 46.2357 33.7913 47.038 32.5788C47.9669 31.1782 48.771 30.0712 49.3255 29.3306C49.436 29.1924 49.6036 29.1406 49.732 29.1963C49.9049 29.2711 50.003 29.5474 49.8799 29.7891C47.4356 33.3136 44.9895 36.84 42.5451 40.3645C42.4168 40.5486 42.1333 41.0033 42.1993 41.5559C42.3152 42.5267 43.4045 42.9488 43.6523 43.0447C44.895 43.5263 46.0574 42.8164 46.2821 42.6725C49.2809 38.7221 52.2815 34.7698 55.2803 30.8194C55.4675 30.8367 55.8294 30.9019 56.0505 31.1993C56.4035 31.6713 56.293 32.5884 55.6244 33.2906C54.4299 34.342 53.4528 35.261 52.7183 35.9709C51.8286 36.8323 51.3437 37.3388 51.4721 37.6842C51.6183 38.0775 52.4865 38.064 53.0642 38.0564C53.8968 38.0449 54.5671 37.8472 55.0022 37.6842C55.685 37.2506 56.5176 36.627 57.3556 35.7483C58.4788 34.5703 59.1955 33.3673 59.6395 32.4713V21.1497C55.6939 21.0998 51.7502 21.0499 47.8047 21Z" fill="#D59970"/>
</svg>
