<svg width="189" height="64" viewBox="0 0 189 64" fill="none" xmlns="http://www.w3.org/2000/svg">
<rect x="0.5" y="0.5" width="188" height="63" rx="31.5" fill="#3D1F1A" stroke="#3D1F1A"/>
<path d="M24.0909 38H20.1477V26.3636H24.1705C25.3258 26.3636 26.3182 26.5966 27.1477 27.0625C27.9811 27.5246 28.6212 28.1894 29.0682 29.0568C29.5152 29.9242 29.7386 30.9621 29.7386 32.1705C29.7386 33.3826 29.5133 34.4242 29.0625 35.2955C28.6155 36.1667 27.9697 36.8352 27.125 37.3011C26.2841 37.767 25.2727 38 24.0909 38ZM22.2557 36.1761H23.9886C24.7992 36.1761 25.4754 36.0284 26.017 35.733C26.5587 35.4337 26.9659 34.9886 27.2386 34.3977C27.5114 33.803 27.6477 33.0606 27.6477 32.1705C27.6477 31.2803 27.5114 30.5417 27.2386 29.9545C26.9659 29.3636 26.5625 28.9223 26.0284 28.6307C25.4981 28.3352 24.839 28.1875 24.0511 28.1875H22.2557V36.1761ZM35.4574 38.1705C34.6051 38.1705 33.8665 37.983 33.2415 37.608C32.6165 37.233 32.1316 36.7083 31.7869 36.0341C31.446 35.3598 31.2756 34.572 31.2756 33.6705C31.2756 32.7689 31.446 31.9792 31.7869 31.3011C32.1316 30.6231 32.6165 30.0966 33.2415 29.7216C33.8665 29.3466 34.6051 29.1591 35.4574 29.1591C36.3097 29.1591 37.0483 29.3466 37.6733 29.7216C38.2983 30.0966 38.7813 30.6231 39.1222 31.3011C39.4669 31.9792 39.6392 32.7689 39.6392 33.6705C39.6392 34.572 39.4669 35.3598 39.1222 36.0341C38.7813 36.7083 38.2983 37.233 37.6733 37.608C37.0483 37.983 36.3097 38.1705 35.4574 38.1705ZM35.4688 36.5227C35.9309 36.5227 36.3172 36.3958 36.6278 36.142C36.9384 35.8845 37.1695 35.5398 37.321 35.108C37.4763 34.6761 37.554 34.1951 37.554 33.6648C37.554 33.1307 37.4763 32.6477 37.321 32.2159C37.1695 31.7803 36.9384 31.4337 36.6278 31.1761C36.3172 30.9186 35.9309 30.7898 35.4688 30.7898C34.9953 30.7898 34.6013 30.9186 34.2869 31.1761C33.9763 31.4337 33.7434 31.7803 33.5881 32.2159C33.4366 32.6477 33.3608 33.1307 33.3608 33.6648C33.3608 34.1951 33.4366 34.6761 33.5881 35.108C33.7434 35.5398 33.9763 35.8845 34.2869 36.142C34.6013 36.3958 34.9953 36.5227 35.4688 36.5227ZM43.4418 32.8864V38H41.3849V29.2727H43.3509V30.7557H43.4531C43.6539 30.267 43.974 29.8788 44.4134 29.5909C44.8565 29.303 45.4039 29.1591 46.0554 29.1591C46.6577 29.1591 47.1823 29.2879 47.6293 29.5455C48.08 29.803 48.4285 30.1761 48.6747 30.6648C48.9247 31.1534 49.0478 31.7462 49.044 32.4432V38H46.9872V32.7614C46.9872 32.178 46.8357 31.7216 46.5327 31.392C46.2334 31.0625 45.8187 30.8977 45.2884 30.8977C44.9285 30.8977 44.6084 30.9773 44.3281 31.1364C44.0516 31.2917 43.8338 31.517 43.6747 31.8125C43.5194 32.108 43.4418 32.4659 43.4418 32.8864ZM54.9986 38.1705C54.1236 38.1705 53.3679 37.9886 52.7315 37.625C52.099 37.2576 51.6122 36.7386 51.2713 36.0682C50.9304 35.3939 50.7599 34.6004 50.7599 33.6875C50.7599 32.7898 50.9304 32.0019 51.2713 31.3239C51.616 30.642 52.0971 30.1117 52.7145 29.733C53.3319 29.3504 54.0573 29.1591 54.8906 29.1591C55.4285 29.1591 55.9361 29.2462 56.4134 29.4205C56.8944 29.5909 57.3187 29.8561 57.6861 30.2159C58.0573 30.5758 58.349 31.0341 58.5611 31.5909C58.7732 32.1439 58.8793 32.803 58.8793 33.5682V34.1989H51.7259V32.8125H56.9077C56.9039 32.4186 56.8187 32.0682 56.652 31.7614C56.4853 31.4508 56.2524 31.2064 55.9531 31.0284C55.6577 30.8504 55.313 30.7614 54.919 30.7614C54.4986 30.7614 54.1293 30.8636 53.8111 31.0682C53.4929 31.2689 53.2448 31.5341 53.0668 31.8636C52.8925 32.1894 52.8035 32.5473 52.7997 32.9375V34.1477C52.7997 34.6553 52.8925 35.0909 53.0781 35.4545C53.2637 35.8144 53.5232 36.0909 53.8565 36.2841C54.1899 36.4735 54.58 36.5682 55.027 36.5682C55.3262 36.5682 55.5971 36.5265 55.8395 36.4432C56.0819 36.3561 56.2921 36.2292 56.4702 36.0625C56.6482 35.8958 56.7827 35.6894 56.8736 35.4432L58.794 35.6591C58.6728 36.1667 58.4418 36.6098 58.1009 36.9886C57.7637 37.3636 57.3319 37.6553 56.8054 37.8636C56.2789 38.0682 55.6766 38.1705 54.9986 38.1705ZM63.0341 36.4091L62.9602 37.0341C62.9072 37.5114 62.8125 37.9962 62.6761 38.4886C62.5436 38.9848 62.4034 39.4413 62.2557 39.858C62.108 40.2746 61.9886 40.6023 61.8977 40.8409H60.5114C60.5644 40.6098 60.6364 40.2955 60.7273 39.8977C60.822 39.5 60.9129 39.053 61 38.5568C61.0871 38.0606 61.1458 37.5568 61.1761 37.0455L61.2159 36.4091H63.0341ZM73.3054 29.2727V30.8636H68.2884V29.2727H73.3054ZM69.527 27.1818H71.5838V35.375C71.5838 35.6515 71.6255 35.8636 71.7088 36.0114C71.7959 36.1553 71.9096 36.2538 72.0497 36.3068C72.1899 36.3598 72.3452 36.3864 72.5156 36.3864C72.6444 36.3864 72.7618 36.3769 72.8679 36.358C72.9777 36.339 73.0611 36.322 73.1179 36.3068L73.4645 37.9148C73.3546 37.9527 73.1974 37.9943 72.9929 38.0398C72.7921 38.0852 72.5459 38.1117 72.2543 38.1193C71.7391 38.1345 71.2751 38.0568 70.8622 37.8864C70.4493 37.7121 70.1217 37.4432 69.8793 37.0795C69.6406 36.7159 69.5232 36.2614 69.527 35.7159V27.1818ZM78.7386 38.1705C77.8864 38.1705 77.1477 37.983 76.5227 37.608C75.8977 37.233 75.4129 36.7083 75.0682 36.0341C74.7273 35.3598 74.5568 34.572 74.5568 33.6705C74.5568 32.7689 74.7273 31.9792 75.0682 31.3011C75.4129 30.6231 75.8977 30.0966 76.5227 29.7216C77.1477 29.3466 77.8864 29.1591 78.7386 29.1591C79.5909 29.1591 80.3295 29.3466 80.9545 29.7216C81.5795 30.0966 82.0625 30.6231 82.4034 31.3011C82.7481 31.9792 82.9205 32.7689 82.9205 33.6705C82.9205 34.572 82.7481 35.3598 82.4034 36.0341C82.0625 36.7083 81.5795 37.233 80.9545 37.608C80.3295 37.983 79.5909 38.1705 78.7386 38.1705ZM78.75 36.5227C79.2121 36.5227 79.5985 36.3958 79.9091 36.142C80.2197 35.8845 80.4508 35.5398 80.6023 35.108C80.7576 34.6761 80.8352 34.1951 80.8352 33.6648C80.8352 33.1307 80.7576 32.6477 80.6023 32.2159C80.4508 31.7803 80.2197 31.4337 79.9091 31.1761C79.5985 30.9186 79.2121 30.7898 78.75 30.7898C78.2765 30.7898 77.8826 30.9186 77.5682 31.1761C77.2576 31.4337 77.0246 31.7803 76.8693 32.2159C76.7178 32.6477 76.642 33.1307 76.642 33.6648C76.642 34.1951 76.7178 34.6761 76.8693 35.108C77.0246 35.5398 77.2576 35.8845 77.5682 36.142C77.8826 36.3958 78.2765 36.5227 78.75 36.5227ZM92.9929 29.2727V30.8636H87.9759V29.2727H92.9929ZM89.2145 27.1818H91.2713V35.375C91.2713 35.6515 91.313 35.8636 91.3963 36.0114C91.4834 36.1553 91.5971 36.2538 91.7372 36.3068C91.8774 36.3598 92.0327 36.3864 92.2031 36.3864C92.3319 36.3864 92.4493 36.3769 92.5554 36.358C92.6652 36.339 92.7486 36.322 92.8054 36.3068L93.152 37.9148C93.0421 37.9527 92.8849 37.9943 92.6804 38.0398C92.4796 38.0852 92.2334 38.1117 91.9418 38.1193C91.4266 38.1345 90.9626 38.0568 90.5497 37.8864C90.1368 37.7121 89.8092 37.4432 89.5668 37.0795C89.3281 36.7159 89.2107 36.2614 89.2145 35.7159V27.1818ZM96.9574 32.8864V38H94.9006V26.3636H96.9119V30.7557H97.0142C97.2188 30.2633 97.535 29.875 97.9631 29.5909C98.3949 29.303 98.9441 29.1591 99.6108 29.1591C100.217 29.1591 100.745 29.286 101.196 29.5398C101.647 29.7936 101.995 30.1648 102.241 30.6534C102.491 31.142 102.616 31.7386 102.616 32.4432V38H100.56V32.7614C100.56 32.1742 100.408 31.7178 100.105 31.392C99.8059 31.0625 99.3854 30.8977 98.8438 30.8977C98.4801 30.8977 98.1544 30.9773 97.8665 31.1364C97.5824 31.2917 97.3589 31.517 97.196 31.8125C97.0369 32.108 96.9574 32.4659 96.9574 32.8864ZM108.577 38.1705C107.702 38.1705 106.946 37.9886 106.31 37.625C105.677 37.2576 105.19 36.7386 104.849 36.0682C104.509 35.3939 104.338 34.6004 104.338 33.6875C104.338 32.7898 104.509 32.0019 104.849 31.3239C105.194 30.642 105.675 30.1117 106.293 29.733C106.91 29.3504 107.635 29.1591 108.469 29.1591C109.007 29.1591 109.514 29.2462 109.991 29.4205C110.473 29.5909 110.897 29.8561 111.264 30.2159C111.635 30.5758 111.927 31.0341 112.139 31.5909C112.351 32.1439 112.457 32.803 112.457 33.5682V34.1989H105.304V32.8125H110.486C110.482 32.4186 110.397 32.0682 110.23 31.7614C110.063 31.4508 109.83 31.2064 109.531 31.0284C109.236 30.8504 108.891 30.7614 108.497 30.7614C108.077 30.7614 107.707 30.8636 107.389 31.0682C107.071 31.2689 106.823 31.5341 106.645 31.8636C106.471 32.1894 106.382 32.5473 106.378 32.9375V34.1477C106.378 34.6553 106.471 35.0909 106.656 35.4545C106.842 35.8144 107.101 36.0909 107.435 36.2841C107.768 36.4735 108.158 36.5682 108.605 36.5682C108.904 36.5682 109.175 36.5265 109.418 36.4432C109.66 36.3561 109.87 36.2292 110.048 36.0625C110.226 35.8958 110.361 35.6894 110.452 35.4432L112.372 35.6591C112.251 36.1667 112.02 36.6098 111.679 36.9886C111.342 37.3636 110.91 37.6553 110.384 37.8636C109.857 38.0682 109.255 38.1705 108.577 38.1705ZM121.962 41.4545C121.223 41.4545 120.589 41.3542 120.058 41.1534C119.528 40.9564 119.102 40.6913 118.78 40.358C118.458 40.0246 118.234 39.6553 118.109 39.25L119.962 38.8011C120.045 38.9716 120.166 39.1402 120.325 39.3068C120.484 39.4773 120.698 39.6174 120.967 39.7273C121.24 39.8409 121.583 39.8977 121.996 39.8977C122.579 39.8977 123.062 39.7557 123.445 39.4716C123.827 39.1913 124.018 38.7292 124.018 38.0852V36.4318H123.916C123.81 36.6439 123.655 36.8617 123.45 37.0852C123.25 37.3087 122.982 37.4962 122.649 37.6477C122.32 37.7992 121.905 37.875 121.405 37.875C120.734 37.875 120.126 37.7178 119.581 37.4034C119.039 37.0852 118.607 36.6117 118.286 35.983C117.967 35.3504 117.808 34.5587 117.808 33.608C117.808 32.6496 117.967 31.8409 118.286 31.1818C118.607 30.5189 119.041 30.017 119.587 29.6761C120.132 29.3314 120.74 29.1591 121.411 29.1591C121.922 29.1591 122.342 29.2462 122.672 29.4205C123.005 29.5909 123.27 29.7973 123.467 30.0398C123.664 30.2784 123.814 30.5038 123.916 30.7159H124.03V29.2727H126.058V38.142C126.058 38.8883 125.88 39.5057 125.524 39.9943C125.168 40.483 124.681 40.8485 124.064 41.0909C123.446 41.3333 122.746 41.4545 121.962 41.4545ZM121.979 36.2614C122.414 36.2614 122.786 36.1553 123.092 35.9432C123.399 35.7311 123.632 35.4261 123.791 35.0284C123.95 34.6307 124.03 34.1534 124.03 33.5966C124.03 33.0473 123.95 32.5663 123.791 32.1534C123.636 31.7405 123.405 31.4205 123.098 31.1932C122.795 30.9621 122.422 30.8466 121.979 30.8466C121.52 30.8466 121.138 30.9659 120.831 31.2045C120.524 31.4432 120.293 31.7708 120.138 32.1875C119.982 32.6004 119.905 33.0701 119.905 33.5966C119.905 34.1307 119.982 34.5985 120.138 35C120.297 35.3977 120.53 35.7083 120.837 35.9318C121.147 36.1515 121.528 36.2614 121.979 36.2614ZM130.678 38.1761C130.125 38.1761 129.626 38.0777 129.183 37.8807C128.744 37.6799 128.395 37.3845 128.138 36.9943C127.884 36.6042 127.757 36.1231 127.757 35.5511C127.757 35.0587 127.848 34.6515 128.03 34.3295C128.212 34.0076 128.46 33.75 128.774 33.5568C129.089 33.3636 129.443 33.2178 129.837 33.1193C130.234 33.017 130.645 32.9432 131.07 32.8977C131.581 32.8447 131.996 32.7973 132.314 32.7557C132.632 32.7102 132.863 32.642 133.007 32.5511C133.155 32.4564 133.229 32.3106 133.229 32.1136V32.0795C133.229 31.6515 133.102 31.3201 132.848 31.0852C132.594 30.8504 132.229 30.733 131.751 30.733C131.248 30.733 130.848 30.8428 130.553 31.0625C130.261 31.2822 130.064 31.5417 129.962 31.8409L128.041 31.5682C128.193 31.0379 128.443 30.5947 128.791 30.2386C129.14 29.8788 129.566 29.6098 130.07 29.4318C130.573 29.25 131.13 29.1591 131.74 29.1591C132.161 29.1591 132.579 29.2083 132.996 29.3068C133.412 29.4053 133.793 29.5682 134.138 29.7955C134.482 30.0189 134.759 30.3239 134.967 30.7102C135.179 31.0966 135.286 31.5795 135.286 32.1591V38H133.308V36.8011H133.24C133.115 37.0436 132.939 37.2708 132.712 37.483C132.488 37.6913 132.206 37.8598 131.865 37.9886C131.528 38.1136 131.132 38.1761 130.678 38.1761ZM131.212 36.6648C131.625 36.6648 131.982 36.5833 132.286 36.4205C132.589 36.2538 132.821 36.0341 132.984 35.7614C133.151 35.4886 133.234 35.1913 133.234 34.8693V33.8409C133.17 33.8939 133.06 33.9432 132.905 33.9886C132.753 34.0341 132.583 34.0739 132.393 34.108C132.204 34.142 132.017 34.1723 131.831 34.1989C131.645 34.2254 131.484 34.2481 131.348 34.267C131.041 34.3087 130.767 34.3769 130.524 34.4716C130.282 34.5663 130.09 34.6989 129.95 34.8693C129.81 35.036 129.74 35.2519 129.74 35.517C129.74 35.8958 129.878 36.1818 130.155 36.375C130.431 36.5682 130.784 36.6648 131.212 36.6648ZM139.411 26.3636V38H137.354V26.3636H139.411ZM143.582 26.3636V38H141.526V26.3636H143.582ZM149.561 38.1705C148.686 38.1705 147.93 37.9886 147.294 37.625C146.661 37.2576 146.175 36.7386 145.834 36.0682C145.493 35.3939 145.322 34.6004 145.322 33.6875C145.322 32.7898 145.493 32.0019 145.834 31.3239C146.179 30.642 146.66 30.1117 147.277 29.733C147.894 29.3504 148.62 29.1591 149.453 29.1591C149.991 29.1591 150.499 29.2462 150.976 29.4205C151.457 29.5909 151.881 29.8561 152.249 30.2159C152.62 30.5758 152.911 31.0341 153.124 31.5909C153.336 32.1439 153.442 32.803 153.442 33.5682V34.1989H146.288V32.8125H151.47C151.466 32.4186 151.381 32.0682 151.214 31.7614C151.048 31.4508 150.815 31.2064 150.516 31.0284C150.22 30.8504 149.875 30.7614 149.482 30.7614C149.061 30.7614 148.692 30.8636 148.374 31.0682C148.055 31.2689 147.807 31.5341 147.629 31.8636C147.455 32.1894 147.366 32.5473 147.362 32.9375V34.1477C147.362 34.6553 147.455 35.0909 147.641 35.4545C147.826 35.8144 148.086 36.0909 148.419 36.2841C148.752 36.4735 149.143 36.5682 149.589 36.5682C149.889 36.5682 150.16 36.5265 150.402 36.4432C150.644 36.3561 150.855 36.2292 151.033 36.0625C151.211 35.8958 151.345 35.6894 151.436 35.4432L153.357 35.6591C153.235 36.1667 153.004 36.6098 152.663 36.9886C152.326 37.3636 151.894 37.6553 151.368 37.8636C150.841 38.0682 150.239 38.1705 149.561 38.1705ZM155.182 38V29.2727H157.176V30.7273H157.267C157.426 30.2235 157.699 29.8352 158.085 29.5625C158.475 29.286 158.92 29.1477 159.42 29.1477C159.534 29.1477 159.661 29.1534 159.801 29.1648C159.945 29.1723 160.064 29.1856 160.159 29.2045V31.0966C160.072 31.0663 159.934 31.0398 159.744 31.017C159.559 30.9905 159.379 30.9773 159.205 30.9773C158.83 30.9773 158.492 31.0587 158.193 31.2216C157.898 31.3807 157.665 31.6023 157.494 31.8864C157.324 32.1705 157.239 32.4981 157.239 32.8693V38H155.182ZM163.07 41.2727C162.789 41.2727 162.53 41.25 162.291 41.2045C162.056 41.1629 161.869 41.1136 161.729 41.0568L162.206 39.4545C162.505 39.5417 162.772 39.5833 163.007 39.5795C163.242 39.5758 163.448 39.5019 163.626 39.358C163.808 39.2178 163.962 38.983 164.087 38.6534L164.263 38.1818L161.098 29.2727H163.28L165.291 35.8636H165.382L167.399 29.2727H169.587L166.092 39.0568C165.929 39.5189 165.714 39.9148 165.445 40.2443C165.176 40.5777 164.846 40.8314 164.456 41.0057C164.07 41.1837 163.607 41.2727 163.07 41.2727Z" fill="#EEBDA2"/>
</svg>
