<svg width="83" height="78" viewBox="0 0 83 78" fill="none" xmlns="http://www.w3.org/2000/svg">
<path d="M42.25 27.2721L45.469 21H39.0391L42.25 27.2721Z" fill="#3D1F1A"/>
<path d="M41.849 50.728L38.6299 57.0001H45.0599L41.849 50.728Z" fill="#3D1F1A"/>
<path d="M54.4302 39.1796L60.0001 42.7952V35.5547L54.4302 39.1796Z" fill="#3D1F1A"/>
<path d="M29.5699 39.004L24 42.6197V35.3792L29.5699 39.004Z" fill="#3D1F1A"/>
<path d="M33.3951 53.2367C31.8962 53.2367 30.3972 53.2367 28.9064 53.2459C28.8737 53.2459 28.6853 53.2182 28.5542 53.0245C28.415 52.8308 28.4477 52.6095 28.4559 52.5726L28.4395 46.485C28.4395 46.4296 28.4641 46.3466 28.5051 46.2636C28.5378 46.1898 28.587 46.1345 28.6198 46.0976C30.0122 45.0184 31.4047 43.9393 32.8054 42.8693C32.83 42.8509 32.9201 42.8047 32.9692 42.6756C33.002 42.5926 32.9938 42.5188 32.9938 42.4819C33.0429 39.9454 33.0921 37.3997 33.1494 34.8632C33.1494 34.8171 33.133 34.7617 33.1166 34.6972C33.0675 34.5588 32.9856 34.4758 32.9446 34.4389C31.4948 33.618 30.045 32.7971 28.5952 31.967C28.5706 31.967 28.4641 31.9209 28.3986 31.7825C28.3413 31.6718 28.3576 31.5611 28.3576 31.5242C28.3412 28.6741 28.3904 26.5158 28.4723 25.6027C28.4887 25.409 28.5296 25.0493 28.759 24.7264C29.0784 24.2745 29.5699 24.1546 29.8402 24.1177C30.8969 24.1177 31.9453 24.1177 33.002 24.1177C33.0429 24.1177 33.133 24.1361 33.2313 24.2007C33.2313 24.2007 33.3132 24.256 33.3706 24.3575C33.4688 24.5235 34.1159 26.5712 34.9596 29.3844C35.017 29.5873 35.1726 29.6519 35.1726 29.6519C35.1726 29.6519 35.2627 29.698 35.3692 29.7072C35.4511 29.7164 41.2094 29.6887 49.04 29.6426C49.081 29.6426 49.1793 29.6334 49.2776 29.5504C49.3841 29.4674 49.4332 29.3382 49.4496 29.2921C49.5315 29.0523 49.9493 27.3644 50.4899 25.0308C50.5062 24.9755 50.5636 24.8556 50.6864 24.7633C50.7684 24.6988 50.8585 24.6803 50.8994 24.6711C53.1765 24.6342 54.8475 24.6342 55.3144 24.6434C55.4455 24.6434 55.7158 24.6434 55.9123 24.8648C56.0598 25.0216 56.1089 25.2061 56.1253 25.2891C56.1089 27.2445 56.0925 29.1907 56.0762 31.1461C56.0762 31.183 56.0762 31.266 56.0434 31.349C56.0024 31.4412 55.9369 31.4966 55.9205 31.515C55.7977 31.6257 53.9793 33.1568 51.4974 35.2506C51.4564 35.2967 51.4155 35.3613 51.3745 35.4535C51.3417 35.5273 51.3253 35.5919 51.3172 35.6472C51.309 37.6949 51.2926 39.7425 51.2844 41.7901C51.2844 41.827 51.2844 41.8824 51.2926 41.9469C51.3254 42.0669 51.3991 42.1406 51.4318 42.1683C51.5547 42.279 53.2994 43.8931 55.6994 46.0976C55.724 46.116 55.7813 46.1621 55.8222 46.2544C55.8632 46.3466 55.8632 46.4389 55.855 46.4758C55.855 49.5288 55.8304 51.7701 55.8141 52.2221C55.8141 52.3235 55.7977 52.5541 55.6584 52.7109C55.5192 52.8585 55.3308 52.8769 55.2489 52.8769C54.8557 52.8954 53.3895 52.9231 51.3991 52.9323C51.3663 52.9323 51.2762 52.9323 51.1861 52.8769C51.1124 52.8308 51.0714 52.7663 51.0632 52.7478C50.9731 52.6002 49.7035 50.6541 47.9588 47.9792C47.9506 47.9515 47.9097 47.8593 47.8114 47.8132C47.7213 47.7671 47.6476 47.7855 47.623 47.7855L36.9255 47.8132C36.9255 47.8132 36.8272 47.8132 36.7535 47.8408C36.6306 47.8962 36.5814 48.0161 36.5733 48.0438C35.6477 49.6948 34.7221 51.3458 33.7965 52.9969C33.7637 53.0337 33.7228 53.0891 33.6491 53.1352C33.559 53.1906 33.477 53.2182 33.4279 53.2182L33.3951 53.2367Z" fill="#3D1F1A"/>
</svg>
