<svg width="83" height="92" viewBox="0 0 83 92" fill="none" xmlns="http://www.w3.org/2000/svg">
<path d="M40.912 38.8494C39.9227 37.6137 38.4563 37.4592 38.2108 37.4298C35.6989 37.1944 32.9415 39.482 32.268 42.0344C31.84 43.6673 32.4293 44.7707 31.5242 46.5654C31.0822 47.4481 30.5069 48.0513 30.1069 48.4043C32.289 48.2866 34.4781 48.169 36.6602 48.0513C37.0531 47.9483 40.0841 47.1245 41.2558 44.1528C41.4032 43.7703 42.5188 40.8281 40.9191 38.8421L40.912 38.8494Z" fill="#3D1F1A"/>
<path d="M40.2253 34.2519C40.4919 35.0243 41.6426 34.7668 42.7582 35.8775C43.8597 36.9735 43.6703 38.1651 44.1263 38.3858C44.9192 38.7756 47.3328 36.0614 54.0474 23.7849C54.4263 22.7404 54.3912 21.7401 53.9071 21.2767C53.3177 20.7103 52.2512 21.1443 51.5776 21.4238C49.6482 22.2329 49.0237 23.4318 46.7224 25.9989C45.1086 27.8011 43.4808 29.5885 41.8671 31.3832C40.8427 32.516 39.9657 33.5016 40.2253 34.2593V34.2519Z" fill="#3D1F1A"/>
<path d="M23.3096 30.3828L31.7221 39.2022Z" fill="#3D1F1A"/>
<path d="M23.3096 30.3828L31.7221 39.2022" stroke="#3D1F1A" stroke-miterlimit="10" stroke-linecap="round"/>
<path d="M23 33.7661C25.6241 36.5171 28.2482 39.2681 30.8723 42.0191Z" fill="#3D1F1A"/>
<path d="M23 33.7661C25.6241 36.5171 28.2482 39.2681 30.8723 42.0191" stroke="#3D1F1A" stroke-miterlimit="10" stroke-linecap="round"/>
<path d="M23 37.4663C25.1891 39.7613 27.3852 42.0636 29.5743 44.3585Z" fill="#3D1F1A"/>
<path d="M23 37.4663C25.1891 39.7613 27.3852 42.0636 29.5743 44.3585" stroke="#3D1F1A" stroke-miterlimit="10" stroke-linecap="round"/>
<path d="M51.2827 40.1066C51.6819 40.1066 52.0054 39.7674 52.0054 39.3489C52.0054 38.9305 51.6819 38.5913 51.2827 38.5913C50.8836 38.5913 50.5601 38.9305 50.5601 39.3489C50.5601 39.7674 50.8836 40.1066 51.2827 40.1066Z" fill="#3D1F1A"/>
<path d="M47.6411 41.9825C48.0403 41.9825 48.3638 41.6433 48.3638 41.2249C48.3638 40.8065 48.0403 40.4673 47.6411 40.4673C47.242 40.4673 46.9185 40.8065 46.9185 41.2249C46.9185 41.6433 47.242 41.9825 47.6411 41.9825Z" fill="#3D1F1A"/>
<path d="M44.0835 45.7413C44.4826 45.7413 44.8062 45.4021 44.8062 44.9837C44.8062 44.5653 44.4826 44.2261 44.0835 44.2261C43.6844 44.2261 43.3608 44.5653 43.3608 44.9837C43.3608 45.4021 43.6844 45.7413 44.0835 45.7413Z" fill="#3D1F1A"/>
<path d="M42.3096 49.441C42.7087 49.441 43.0323 49.1018 43.0323 48.6834C43.0323 48.265 42.7087 47.9258 42.3096 47.9258C41.9105 47.9258 41.5869 48.265 41.5869 48.6834C41.5869 49.1018 41.9105 49.441 42.3096 49.441Z" fill="#3D1F1A"/>
<path d="M49.4297 49.3307C49.8288 49.3307 50.1524 48.9915 50.1524 48.5731C50.1524 48.1546 49.8288 47.8154 49.4297 47.8154C49.0306 47.8154 48.707 48.1546 48.707 48.5731C48.707 48.9915 49.0306 49.3307 49.4297 49.3307Z" fill="#3D1F1A"/>
<path d="M49.4097 45.6896C49.8088 45.6896 50.1324 45.3504 50.1324 44.9319C50.1324 44.5135 49.8088 44.1743 49.4097 44.1743C49.0106 44.1743 48.687 44.5135 48.687 44.9319C48.687 45.3504 49.0106 45.6896 49.4097 45.6896Z" fill="#3D1F1A"/>
<path d="M52.8755 43.7775C53.2746 43.7775 53.5982 43.4383 53.5982 43.0198C53.5982 42.6014 53.2746 42.2622 52.8755 42.2622C52.4764 42.2622 52.1528 42.6014 52.1528 43.0198C52.1528 43.4383 52.4764 43.7775 52.8755 43.7775Z" fill="#3D1F1A"/>
<path d="M58.1655 39.9967C58.5647 39.9967 58.8882 39.6575 58.8882 39.2391C58.8882 38.8206 58.5647 38.4814 58.1655 38.4814C57.7664 38.4814 57.4429 38.8206 57.4429 39.2391C57.4429 39.6575 57.7664 39.9967 58.1655 39.9967Z" fill="#3D1F1A"/>
<path d="M58.2774 43.6451C58.6765 43.6451 59 43.3059 59 42.8875C59 42.4691 58.6765 42.1299 58.2774 42.1299C57.8782 42.1299 57.5547 42.4691 57.5547 42.8875C57.5547 43.3059 57.8782 43.6451 58.2774 43.6451Z" fill="#3D1F1A"/>
<path d="M54.6641 47.5582C55.0632 47.5582 55.3868 47.219 55.3868 46.8006C55.3868 46.3822 55.0632 46.043 54.6641 46.043C54.265 46.043 53.9414 46.3822 53.9414 46.8006C53.9414 47.219 54.265 47.5582 54.6641 47.5582Z" fill="#3D1F1A"/>
</svg>
