<svg width="83" height="70" viewBox="0 0 83 70" fill="none" xmlns="http://www.w3.org/2000/svg">
<path d="M24 21C24.5868 21.1265 26.1105 21.5561 27.4736 23.1978C28.9761 25.0093 29.3419 27.1638 29.4393 27.8831C29.3972 33.6906 29.3551 39.4948 29.313 45.3024H46.8808C47.4781 45.4722 48.436 45.8485 49.4333 46.7243C50.3491 47.5301 50.9333 48.4359 51.2727 49.0519" stroke="#3D1F1A" stroke-miterlimit="10"/>
<path d="M48.1621 21C47.5343 21.3914 46.4768 22.1664 45.6012 23.5323C44.2066 25.7059 44.2048 27.9197 44.2173 28.8194C44.2476 31.2309 45.109 34.145 46.0399 34.1718C46.3859 34.1814 46.5927 33.7901 47.3952 32.5776C48.3244 31.1772 49.1287 30.0703 49.6833 29.3297C49.7938 29.1916 49.9615 29.1398 50.0899 29.1955C50.2629 29.2703 50.3609 29.5465 50.2379 29.7882C47.7929 33.3124 45.3462 36.8384 42.9012 40.3625C42.7728 40.5467 42.4892 41.0014 42.5552 41.5539C42.6711 42.5246 43.7608 42.9466 44.0087 43.0426C45.2517 43.5241 46.4144 42.8143 46.6391 42.6704C49.6387 38.7204 52.6401 34.7684 55.6397 30.8184C55.8269 30.8357 56.1889 30.9009 56.4101 31.1983C56.7632 31.6702 56.6526 32.5872 55.9839 33.2893C54.789 34.3406 53.8117 35.2596 53.077 35.9694C52.1871 36.8307 51.702 37.3372 51.8304 37.6825C51.9767 38.0758 52.8452 38.0624 53.423 38.0547C54.2558 38.0432 54.9263 37.8456 55.3615 37.6825C56.0445 37.2489 56.8773 36.6255 57.7155 35.7468C58.839 34.5689 59.5559 33.3661 60 32.4702V21.1496C56.0534 21.0998 52.1086 21.0499 48.1621 21Z" fill="#3D1F1A"/>
</svg>
