<svg width="83" height="78" viewBox="0 0 83 78" fill="none" xmlns="http://www.w3.org/2000/svg">
<path d="M42 57C51.9411 57 60 48.9411 60 39C60 29.0589 51.9411 21 42 21C32.0589 21 24 29.0589 24 39C24 48.9411 32.0589 57 42 57Z" stroke="#3D1F1A" stroke-miterlimit="10"/>
<path d="M35.3424 36.0807C32.7593 38.7366 32.4227 43.2479 33.9599 46.586C36.4702 52.0524 43.1918 52.5617 43.974 52.6163C49.9043 52.971 55.5344 48.9599 57.5718 43.5754C59.118 39.4915 58.1721 35.7714 57.7355 34.3707C57.7628 35.8169 57.6627 40.4101 54.3156 44.303C53.8335 44.8578 49.404 49.8604 44.0559 48.9417C41.5546 48.5142 38.5622 46.7315 38.4348 44.7851C38.3985 44.2393 38.5713 43.4026 39.0897 43.157C39.6718 42.8841 40.2539 43.5663 41.2908 43.9756C43.5465 44.8578 45.9295 43.6208 46.1751 43.4844C48.0124 42.5021 48.7582 40.774 49.1039 39.9826C50.5591 36.6355 50.0771 31.9695 47.4758 28.8225C43.8194 24.402 36.9705 24.1838 32.4136 26.3758C26.7107 29.1226 23.4636 36.1989 25.0008 43.5572C25.2009 42.584 27.9386 30.2686 35.8335 28.495C36.352 28.3768 41.0998 27.3672 43.2464 29.9594C44.5015 31.4692 44.6835 33.9978 43.8194 34.5981C43.0554 35.1347 42.0094 33.7977 39.9902 33.7795C37.5799 33.7704 35.7699 35.6259 35.3515 36.0625L35.3424 36.0807Z" fill="#3D1F1A"/>
</svg>
