<svg width="671" height="40" viewBox="0 0 671 40" fill="none" xmlns="http://www.w3.org/2000/svg">
<rect x="1" y="1" width="669" height="38" rx="19" fill="#D3B6A1" stroke="#3D1F1A" stroke-width="2"/>
<path d="M35.2436 28H33.0277L39.4368 10.5455H41.6186L48.0277 28H45.8118L40.5959 13.3068H40.4595L35.2436 28ZM36.0618 21.1818H44.9936V23.0568H36.0618V21.1818ZM57.4964 28V10.5455H59.5078V16.9886H59.6783C59.826 16.7614 60.0305 16.4716 60.2919 16.1193C60.5589 15.7614 60.9396 15.4432 61.4339 15.1648C61.9339 14.8807 62.6101 14.7386 63.4624 14.7386C64.5646 14.7386 65.5362 15.0142 66.3771 15.5653C67.218 16.1165 67.8743 16.8977 68.3459 17.9091C68.8175 18.9205 69.0533 20.1136 69.0533 21.4886C69.0533 22.875 68.8175 24.0767 68.3459 25.0938C67.8743 26.1051 67.2209 26.8892 66.3857 27.446C65.5504 27.9972 64.5874 28.2727 63.4964 28.2727C62.6555 28.2727 61.9822 28.1335 61.4766 27.8551C60.9709 27.571 60.5817 27.25 60.3089 26.892C60.0362 26.5284 59.826 26.2273 59.6783 25.9886H59.4396V28H57.4964ZM59.4737 21.4545C59.4737 22.4432 59.6186 23.3153 59.9084 24.071C60.1982 24.821 60.6214 25.4091 61.1783 25.8352C61.7351 26.2557 62.4169 26.4659 63.2237 26.4659C64.0646 26.4659 64.7663 26.2443 65.3288 25.8011C65.897 25.3523 66.3232 24.75 66.6072 23.9943C66.897 23.233 67.0419 22.3864 67.0419 21.4545C67.0419 20.5341 66.8999 19.7045 66.6158 18.9659C66.3374 18.2216 65.9141 17.6335 65.3459 17.2017C64.7834 16.7642 64.076 16.5455 63.2237 16.5455C62.4055 16.5455 61.718 16.7528 61.1612 17.1676C60.6044 17.5767 60.1839 18.1506 59.8999 18.8892C59.6158 19.6222 59.4737 20.4773 59.4737 21.4545ZM72.13 28V14.9091H74.1413V28H72.13ZM73.1527 12.7273C72.7607 12.7273 72.4226 12.5938 72.1385 12.3267C71.8601 12.0597 71.7209 11.7386 71.7209 11.3636C71.7209 10.9886 71.8601 10.6676 72.1385 10.4006C72.4226 10.1335 72.7607 10 73.1527 10C73.5447 10 73.88 10.1335 74.1584 10.4006C74.4425 10.6676 74.5845 10.9886 74.5845 11.3636C74.5845 11.7386 74.4425 12.0597 74.1584 12.3267C73.88 12.5938 73.5447 12.7273 73.1527 12.7273ZM83.5185 14.9091V16.6136H76.7344V14.9091H83.5185ZM78.7116 11.7727H80.723V24.25C80.723 24.8182 80.8054 25.2443 80.9702 25.5284C81.1406 25.8068 81.3565 25.9943 81.6179 26.0909C81.8849 26.1818 82.1662 26.2273 82.4616 26.2273C82.6832 26.2273 82.8651 26.2159 83.0071 26.1932C83.1491 26.1648 83.2628 26.142 83.348 26.125L83.7571 27.9318C83.6207 27.983 83.4304 28.0341 83.1861 28.0852C82.9418 28.142 82.6321 28.1705 82.2571 28.1705C81.6889 28.1705 81.1321 28.0483 80.5866 27.804C80.0469 27.5597 79.598 27.1875 79.2401 26.6875C78.8878 26.1875 78.7116 25.5568 78.7116 24.7955V11.7727ZM95.3054 20.125V28H93.294V10.5455H95.3054V16.9545H95.4759C95.7827 16.2784 96.2429 15.7415 96.8565 15.3438C97.4759 14.9403 98.2997 14.7386 99.3281 14.7386C100.22 14.7386 101.001 14.9176 101.672 15.2756C102.342 15.6278 102.862 16.1705 103.232 16.9034C103.607 17.6307 103.794 18.5568 103.794 19.6818V28H101.783V19.8182C101.783 18.7784 101.513 17.9744 100.973 17.4062C100.439 16.8324 99.6974 16.5455 98.7486 16.5455C98.0895 16.5455 97.4986 16.6847 96.9759 16.9631C96.4588 17.2415 96.0497 17.6477 95.7486 18.1818C95.4531 18.7159 95.3054 19.3636 95.3054 20.125ZM112.962 28.2727C111.701 28.2727 110.613 27.9943 109.698 27.4375C108.789 26.875 108.087 26.0909 107.593 25.0852C107.104 24.0739 106.86 22.8977 106.86 21.5568C106.86 20.2159 107.104 19.0341 107.593 18.0114C108.087 16.983 108.775 16.1818 109.656 15.608C110.542 15.0284 111.576 14.7386 112.758 14.7386C113.44 14.7386 114.113 14.8523 114.778 15.0795C115.442 15.3068 116.048 15.6761 116.593 16.1875C117.138 16.6932 117.573 17.3636 117.897 18.1989C118.221 19.0341 118.383 20.0625 118.383 21.2841V22.1364H108.292V20.3977H116.337C116.337 19.6591 116.19 19 115.894 18.4205C115.604 17.8409 115.19 17.3835 114.65 17.0483C114.116 16.7131 113.485 16.5455 112.758 16.5455C111.957 16.5455 111.263 16.7443 110.678 17.142C110.099 17.5341 109.653 18.0455 109.34 18.6761C109.028 19.3068 108.871 19.983 108.871 20.7045V21.8636C108.871 22.8523 109.042 23.6903 109.383 24.3778C109.729 25.0597 110.21 25.5795 110.823 25.9375C111.437 26.2898 112.15 26.4659 112.962 26.4659C113.491 26.4659 113.968 26.392 114.394 26.2443C114.826 26.0909 115.198 25.8636 115.511 25.5625C115.823 25.2557 116.065 24.875 116.235 24.4205L118.178 24.9659C117.974 25.625 117.63 26.2045 117.147 26.7045C116.664 27.1989 116.067 27.5852 115.357 27.8636C114.647 28.1364 113.849 28.2727 112.962 28.2727ZM125.295 28.3068C124.465 28.3068 123.712 28.1506 123.036 27.8381C122.36 27.5199 121.823 27.0625 121.425 26.4659C121.028 25.8636 120.829 25.1364 120.829 24.2841C120.829 23.5341 120.977 22.9261 121.272 22.4602C121.567 21.9886 121.962 21.6193 122.457 21.3523C122.951 21.0852 123.496 20.8864 124.093 20.7557C124.695 20.6193 125.3 20.5114 125.908 20.4318C126.704 20.3295 127.349 20.2528 127.843 20.2017C128.343 20.1449 128.707 20.0511 128.934 19.9205C129.167 19.7898 129.283 19.5625 129.283 19.2386V19.1705C129.283 18.3295 129.053 17.6761 128.593 17.2102C128.138 16.7443 127.448 16.5114 126.522 16.5114C125.562 16.5114 124.809 16.7216 124.263 17.142C123.718 17.5625 123.335 18.0114 123.113 18.4886L121.204 17.8068C121.545 17.0114 121.999 16.392 122.567 15.9489C123.141 15.5 123.766 15.1875 124.442 15.0114C125.124 14.8295 125.795 14.7386 126.454 14.7386C126.874 14.7386 127.357 14.7898 127.903 14.892C128.454 14.9886 128.985 15.1903 129.496 15.4972C130.013 15.804 130.442 16.267 130.783 16.8864C131.124 17.5057 131.295 18.3352 131.295 19.375V28H129.283V26.2273H129.181C129.045 26.5114 128.817 26.8153 128.499 27.1392C128.181 27.4631 127.758 27.7386 127.229 27.9659C126.701 28.1932 126.056 28.3068 125.295 28.3068ZM125.602 26.5C126.397 26.5 127.067 26.3438 127.613 26.0312C128.164 25.7188 128.579 25.3153 128.857 24.821C129.141 24.3267 129.283 23.8068 129.283 23.2614V21.4205C129.198 21.5227 129.011 21.6165 128.721 21.7017C128.437 21.7812 128.107 21.8523 127.732 21.9148C127.363 21.9716 127.002 22.0227 126.65 22.0682C126.303 22.108 126.022 22.142 125.806 22.1705C125.283 22.2386 124.795 22.3494 124.34 22.5028C123.891 22.6506 123.528 22.875 123.249 23.1761C122.977 23.4716 122.84 23.875 122.84 24.3864C122.84 25.0852 123.099 25.6136 123.616 25.9716C124.138 26.3239 124.8 26.5 125.602 26.5ZM145.202 14.9091L140.361 28H138.315L133.474 14.9091H135.656L139.27 25.3409H139.406L143.02 14.9091H145.202ZM149.152 32.9091C148.811 32.9091 148.507 32.8807 148.24 32.8239C147.973 32.7727 147.788 32.7216 147.686 32.6705L148.197 30.8977C148.686 31.0227 149.118 31.0682 149.493 31.0341C149.868 31 150.2 30.8324 150.49 30.5312C150.786 30.2358 151.055 29.7557 151.3 29.0909L151.675 28.0682L146.834 14.9091H149.016L152.629 25.3409H152.766L156.379 14.9091H158.561L153.004 29.9091C152.754 30.5852 152.445 31.1449 152.075 31.5881C151.706 32.0369 151.277 32.3693 150.788 32.5852C150.305 32.8011 149.76 32.9091 149.152 32.9091ZM177.239 17.8409L175.432 18.3523C175.318 18.0511 175.151 17.7585 174.929 17.4744C174.713 17.1847 174.418 16.946 174.043 16.7585C173.668 16.571 173.188 16.4773 172.602 16.4773C171.801 16.4773 171.134 16.6619 170.599 17.0312C170.071 17.3949 169.807 17.858 169.807 18.4205C169.807 18.9205 169.989 19.3153 170.352 19.6051C170.716 19.8949 171.284 20.1364 172.057 20.3295L174 20.8068C175.17 21.0909 176.043 21.5256 176.616 22.1108C177.19 22.6903 177.477 23.4375 177.477 24.3523C177.477 25.1023 177.261 25.7727 176.83 26.3636C176.403 26.9545 175.807 27.4205 175.04 27.7614C174.273 28.1023 173.381 28.2727 172.364 28.2727C171.028 28.2727 169.923 27.983 169.048 27.4034C168.173 26.8239 167.619 25.9773 167.386 24.8636L169.295 24.3864C169.477 25.0909 169.821 25.6193 170.327 25.9716C170.838 26.3239 171.506 26.5 172.33 26.5C173.267 26.5 174.011 26.3011 174.562 25.9034C175.119 25.5 175.398 25.017 175.398 24.4545C175.398 24 175.239 23.6193 174.92 23.3125C174.602 23 174.114 22.767 173.455 22.6136L171.273 22.1023C170.074 21.8182 169.193 21.3778 168.631 20.7812C168.074 20.179 167.795 19.4261 167.795 18.5227C167.795 17.7841 168.003 17.1307 168.418 16.5625C168.838 15.9943 169.409 15.5483 170.131 15.2244C170.858 14.9006 171.682 14.7386 172.602 14.7386C173.898 14.7386 174.915 15.0227 175.653 15.5909C176.398 16.1591 176.926 16.9091 177.239 17.8409ZM185.823 28.2727C184.641 28.2727 183.604 27.9915 182.712 27.429C181.826 26.8665 181.133 26.0795 180.633 25.0682C180.138 24.0568 179.891 22.875 179.891 21.5227C179.891 20.1591 180.138 18.9687 180.633 17.9517C181.133 16.9347 181.826 16.1449 182.712 15.5824C183.604 15.0199 184.641 14.7386 185.823 14.7386C187.005 14.7386 188.039 15.0199 188.925 15.5824C189.817 16.1449 190.511 16.9347 191.005 17.9517C191.505 18.9687 191.755 20.1591 191.755 21.5227C191.755 22.875 191.505 24.0568 191.005 25.0682C190.511 26.0795 189.817 26.8665 188.925 27.429C188.039 27.9915 187.005 28.2727 185.823 28.2727ZM185.823 26.4659C186.721 26.4659 187.46 26.2358 188.039 25.7756C188.619 25.3153 189.048 24.7102 189.326 23.9602C189.604 23.2102 189.744 22.3977 189.744 21.5227C189.744 20.6477 189.604 19.8324 189.326 19.0767C189.048 18.321 188.619 17.7102 188.039 17.2443C187.46 16.7784 186.721 16.5455 185.823 16.5455C184.925 16.5455 184.187 16.7784 183.607 17.2443C183.028 17.7102 182.599 18.321 182.32 19.0767C182.042 19.8324 181.903 20.6477 181.903 21.5227C181.903 22.3977 182.042 23.2102 182.32 23.9602C182.599 24.7102 183.028 25.3153 183.607 25.7756C184.187 26.2358 184.925 26.4659 185.823 26.4659ZM194.825 28V14.9091H196.768V16.9545H196.939C197.212 16.2557 197.652 15.7131 198.26 15.3267C198.868 14.9347 199.598 14.7386 200.45 14.7386C201.314 14.7386 202.033 14.9347 202.607 15.3267C203.186 15.7131 203.638 16.2557 203.962 16.9545H204.098C204.433 16.2784 204.936 15.7415 205.607 15.3438C206.277 14.9403 207.081 14.7386 208.018 14.7386C209.189 14.7386 210.146 15.1051 210.891 15.8381C211.635 16.5653 212.007 17.6989 212.007 19.2386V28H209.996V19.2386C209.996 18.2727 209.732 17.5824 209.203 17.1676C208.675 16.7528 208.053 16.5455 207.337 16.5455C206.416 16.5455 205.703 16.8239 205.197 17.3807C204.692 17.9318 204.439 18.6307 204.439 19.4773V28H202.393V19.0341C202.393 18.2898 202.152 17.6903 201.669 17.2358C201.186 16.7756 200.564 16.5455 199.803 16.5455C199.28 16.5455 198.791 16.6847 198.337 16.9631C197.888 17.2415 197.524 17.6278 197.246 18.1222C196.973 18.6108 196.837 19.1761 196.837 19.8182V28H194.825ZM221.173 28.2727C219.912 28.2727 218.824 27.9943 217.909 27.4375C217 26.875 216.298 26.0909 215.804 25.0852C215.315 24.0739 215.071 22.8977 215.071 21.5568C215.071 20.2159 215.315 19.0341 215.804 18.0114C216.298 16.983 216.986 16.1818 217.866 15.608C218.753 15.0284 219.787 14.7386 220.969 14.7386C221.651 14.7386 222.324 14.8523 222.989 15.0795C223.653 15.3068 224.259 15.6761 224.804 16.1875C225.349 16.6932 225.784 17.3636 226.108 18.1989C226.432 19.0341 226.594 20.0625 226.594 21.2841V22.1364H216.503V20.3977H224.548C224.548 19.6591 224.401 19 224.105 18.4205C223.815 17.8409 223.401 17.3835 222.861 17.0483C222.327 16.7131 221.696 16.5455 220.969 16.5455C220.168 16.5455 219.474 16.7443 218.889 17.142C218.31 17.5341 217.864 18.0455 217.551 18.6761C217.239 19.3068 217.082 19.983 217.082 20.7045V21.8636C217.082 22.8523 217.253 23.6903 217.594 24.3778C217.94 25.0597 218.42 25.5795 219.034 25.9375C219.648 26.2898 220.361 26.4659 221.173 26.4659C221.702 26.4659 222.179 26.392 222.605 26.2443C223.037 26.0909 223.409 25.8636 223.722 25.5625C224.034 25.2557 224.276 24.875 224.446 24.4205L226.389 24.9659C226.185 25.625 225.841 26.2045 225.358 26.7045C224.875 27.1989 224.278 27.5852 223.568 27.8636C222.858 28.1364 222.06 28.2727 221.173 28.2727ZM235.347 14.9091V16.6136H228.562V14.9091H235.347ZM230.54 11.7727H232.551V24.25C232.551 24.8182 232.634 25.2443 232.798 25.5284C232.969 25.8068 233.185 25.9943 233.446 26.0909C233.713 26.1818 233.994 26.2273 234.29 26.2273C234.511 26.2273 234.693 26.2159 234.835 26.1932C234.977 26.1648 235.091 26.142 235.176 26.125L235.585 27.9318C235.449 27.983 235.259 28.0341 235.014 28.0852C234.77 28.142 234.46 28.1705 234.085 28.1705C233.517 28.1705 232.96 28.0483 232.415 27.804C231.875 27.5597 231.426 27.1875 231.068 26.6875C230.716 26.1875 230.54 25.5568 230.54 24.7955V11.7727ZM238.372 28V14.9091H240.384V28H238.372ZM239.395 12.7273C239.003 12.7273 238.665 12.5938 238.381 12.3267C238.102 12.0597 237.963 11.7386 237.963 11.3636C237.963 10.9886 238.102 10.6676 238.381 10.4006C238.665 10.1335 239.003 10 239.395 10C239.787 10 240.122 10.1335 240.401 10.4006C240.685 10.6676 240.827 10.9886 240.827 11.3636C240.827 11.7386 240.685 12.0597 240.401 12.3267C240.122 12.5938 239.787 12.7273 239.395 12.7273ZM244.067 28V14.9091H246.011V16.9545H246.181C246.454 16.2557 246.894 15.7131 247.502 15.3267C248.11 14.9347 248.84 14.7386 249.692 14.7386C250.556 14.7386 251.275 14.9347 251.849 15.3267C252.428 15.7131 252.88 16.2557 253.204 16.9545H253.34C253.675 16.2784 254.178 15.7415 254.849 15.3438C255.519 14.9403 256.323 14.7386 257.261 14.7386C258.431 14.7386 259.388 15.1051 260.133 15.8381C260.877 16.5653 261.249 17.6989 261.249 19.2386V28H259.238V19.2386C259.238 18.2727 258.974 17.5824 258.445 17.1676C257.917 16.7528 257.295 16.5455 256.579 16.5455C255.658 16.5455 254.945 16.8239 254.44 17.3807C253.934 17.9318 253.681 18.6307 253.681 19.4773V28H251.636V19.0341C251.636 18.2898 251.394 17.6903 250.911 17.2358C250.428 16.7756 249.806 16.5455 249.045 16.5455C248.522 16.5455 248.033 16.6847 247.579 16.9631C247.13 17.2415 246.766 17.6278 246.488 18.1222C246.215 18.6108 246.079 19.1761 246.079 19.8182V28H244.067ZM270.415 28.2727C269.154 28.2727 268.066 27.9943 267.151 27.4375C266.242 26.875 265.54 26.0909 265.046 25.0852C264.558 24.0739 264.313 22.8977 264.313 21.5568C264.313 20.2159 264.558 19.0341 265.046 18.0114C265.54 16.983 266.228 16.1818 267.109 15.608C267.995 15.0284 269.029 14.7386 270.211 14.7386C270.893 14.7386 271.566 14.8523 272.231 15.0795C272.896 15.3068 273.501 15.6761 274.046 16.1875C274.592 16.6932 275.026 17.3636 275.35 18.1989C275.674 19.0341 275.836 20.0625 275.836 21.2841V22.1364H265.745V20.3977H273.79C273.79 19.6591 273.643 19 273.347 18.4205C273.058 17.8409 272.643 17.3835 272.103 17.0483C271.569 16.7131 270.938 16.5455 270.211 16.5455C269.41 16.5455 268.717 16.7443 268.131 17.142C267.552 17.5341 267.106 18.0455 266.793 18.6761C266.481 19.3068 266.325 19.983 266.325 20.7045V21.8636C266.325 22.8523 266.495 23.6903 266.836 24.3778C267.183 25.0597 267.663 25.5795 268.276 25.9375C268.89 26.2898 269.603 26.4659 270.415 26.4659C270.944 26.4659 271.421 26.392 271.847 26.2443C272.279 26.0909 272.651 25.8636 272.964 25.5625C273.276 25.2557 273.518 24.875 273.688 24.4205L275.631 24.9659C275.427 25.625 275.083 26.2045 274.6 26.7045C274.117 27.1989 273.521 27.5852 272.81 27.8636C272.1 28.1364 271.302 28.2727 270.415 28.2727ZM288.168 17.8409L286.362 18.3523C286.248 18.0511 286.08 17.7585 285.859 17.4744C285.643 17.1847 285.347 16.946 284.972 16.7585C284.597 16.571 284.117 16.4773 283.532 16.4773C282.731 16.4773 282.063 16.6619 281.529 17.0312C281.001 17.3949 280.737 17.858 280.737 18.4205C280.737 18.9205 280.918 19.3153 281.282 19.6051C281.646 19.8949 282.214 20.1364 282.987 20.3295L284.93 20.8068C286.1 21.0909 286.972 21.5256 287.546 22.1108C288.12 22.6903 288.407 23.4375 288.407 24.3523C288.407 25.1023 288.191 25.7727 287.759 26.3636C287.333 26.9545 286.737 27.4205 285.969 27.7614C285.202 28.1023 284.31 28.2727 283.293 28.2727C281.958 28.2727 280.853 27.983 279.978 27.4034C279.103 26.8239 278.549 25.9773 278.316 24.8636L280.225 24.3864C280.407 25.0909 280.751 25.6193 281.256 25.9716C281.768 26.3239 282.435 26.5 283.259 26.5C284.197 26.5 284.941 26.3011 285.492 25.9034C286.049 25.5 286.327 25.017 286.327 24.4545C286.327 24 286.168 23.6193 285.85 23.3125C285.532 23 285.043 22.767 284.384 22.6136L282.202 22.1023C281.004 21.8182 280.123 21.3778 279.56 20.7812C279.004 20.179 278.725 19.4261 278.725 18.5227C278.725 17.7841 278.933 17.1307 279.347 16.5625C279.768 15.9943 280.339 15.5483 281.06 15.2244C281.788 14.9006 282.612 14.7386 283.532 14.7386C284.827 14.7386 285.844 15.0227 286.583 15.5909C287.327 16.1591 287.856 16.9091 288.168 17.8409ZM294.435 25.6136L294.298 26.5341C294.202 27.1818 294.054 27.875 293.855 28.6136C293.662 29.3523 293.46 30.0483 293.25 30.7017C293.04 31.3551 292.866 31.875 292.73 32.2614H291.196C291.27 31.8977 291.366 31.4176 291.486 30.821C291.605 30.2244 291.724 29.5568 291.844 28.8182C291.969 28.0852 292.071 27.3352 292.151 26.5682L292.253 25.6136H294.435ZM305.184 28V10.5455H307.195V16.9886H307.366C307.513 16.7614 307.718 16.4716 307.979 16.1193C308.246 15.7614 308.627 15.4432 309.121 15.1648C309.621 14.8807 310.298 14.7386 311.15 14.7386C312.252 14.7386 313.224 15.0142 314.065 15.5653C314.906 16.1165 315.562 16.8977 316.033 17.9091C316.505 18.9205 316.741 20.1136 316.741 21.4886C316.741 22.875 316.505 24.0767 316.033 25.0938C315.562 26.1051 314.908 26.8892 314.073 27.446C313.238 27.9972 312.275 28.2727 311.184 28.2727C310.343 28.2727 309.67 28.1335 309.164 27.8551C308.658 27.571 308.269 27.25 307.996 26.892C307.724 26.5284 307.513 26.2273 307.366 25.9886H307.127V28H305.184ZM307.161 21.4545C307.161 22.4432 307.306 23.3153 307.596 24.071C307.886 24.821 308.309 25.4091 308.866 25.8352C309.423 26.2557 310.104 26.4659 310.911 26.4659C311.752 26.4659 312.454 26.2443 313.016 25.8011C313.585 25.3523 314.011 24.75 314.295 23.9943C314.585 23.233 314.729 22.3864 314.729 21.4545C314.729 20.5341 314.587 19.7045 314.303 18.9659C314.025 18.2216 313.602 17.6335 313.033 17.2017C312.471 16.7642 311.763 16.5455 310.911 16.5455C310.093 16.5455 309.406 16.7528 308.849 17.1676C308.292 17.5767 307.871 18.1506 307.587 18.8892C307.303 19.6222 307.161 20.4773 307.161 21.4545ZM328.067 22.6477V14.9091H330.079V28H328.067V25.7841H327.931C327.624 26.4489 327.147 27.0142 326.499 27.4801C325.852 27.9403 325.033 28.1705 324.045 28.1705C323.227 28.1705 322.499 27.9915 321.863 27.6335C321.227 27.2699 320.727 26.7244 320.363 25.9972C319.999 25.2642 319.817 24.3409 319.817 23.2273V14.9091H321.829V23.0909C321.829 24.0455 322.096 24.8068 322.63 25.375C323.17 25.9432 323.857 26.2273 324.692 26.2273C325.192 26.2273 325.701 26.0994 326.218 25.8438C326.741 25.5881 327.178 25.196 327.531 24.6676C327.888 24.1392 328.067 23.4659 328.067 22.6477ZM339.456 14.9091V16.6136H332.672V14.9091H339.456ZM334.649 11.7727H336.661V24.25C336.661 24.8182 336.743 25.2443 336.908 25.5284C337.078 25.8068 337.294 25.9943 337.555 26.0909C337.822 26.1818 338.104 26.2273 338.399 26.2273C338.621 26.2273 338.803 26.2159 338.945 26.1932C339.087 26.1648 339.2 26.142 339.286 26.125L339.695 27.9318C339.558 27.983 339.368 28.0341 339.124 28.0852C338.879 28.142 338.57 28.1705 338.195 28.1705C337.626 28.1705 337.07 28.0483 336.524 27.804C335.984 27.5597 335.536 27.1875 335.178 26.6875C334.825 26.1875 334.649 25.5568 334.649 24.7955V11.7727ZM349.232 32.9091V14.9091H351.175V16.9886H351.413C351.561 16.7614 351.766 16.4716 352.027 16.1193C352.294 15.7614 352.675 15.4432 353.169 15.1648C353.669 14.8807 354.345 14.7386 355.197 14.7386C356.3 14.7386 357.271 15.0142 358.112 15.5653C358.953 16.1165 359.609 16.8977 360.081 17.9091C360.553 18.9205 360.788 20.1136 360.788 21.4886C360.788 22.875 360.553 24.0767 360.081 25.0938C359.609 26.1051 358.956 26.8892 358.121 27.446C357.286 27.9972 356.322 28.2727 355.232 28.2727C354.391 28.2727 353.717 28.1335 353.212 27.8551C352.706 27.571 352.317 27.25 352.044 26.892C351.771 26.5284 351.561 26.2273 351.413 25.9886H351.243V32.9091H349.232ZM351.209 21.4545C351.209 22.4432 351.354 23.3153 351.643 24.071C351.933 24.821 352.357 25.4091 352.913 25.8352C353.47 26.2557 354.152 26.4659 354.959 26.4659C355.8 26.4659 356.501 26.2443 357.064 25.8011C357.632 25.3523 358.058 24.75 358.342 23.9943C358.632 23.233 358.777 22.3864 358.777 21.4545C358.777 20.5341 358.635 19.7045 358.351 18.9659C358.072 18.2216 357.649 17.6335 357.081 17.2017C356.518 16.7642 355.811 16.5455 354.959 16.5455C354.141 16.5455 353.453 16.7528 352.896 17.1676C352.339 17.5767 351.919 18.1506 351.635 18.8892C351.351 19.6222 351.209 20.4773 351.209 21.4545ZM367.709 28.3068C366.879 28.3068 366.126 28.1506 365.45 27.8381C364.774 27.5199 364.237 27.0625 363.839 26.4659C363.442 25.8636 363.243 25.1364 363.243 24.2841C363.243 23.5341 363.391 22.9261 363.686 22.4602C363.982 21.9886 364.376 21.6193 364.871 21.3523C365.365 21.0852 365.911 20.8864 366.507 20.7557C367.109 20.6193 367.714 20.5114 368.322 20.4318C369.118 20.3295 369.763 20.2528 370.257 20.2017C370.757 20.1449 371.121 20.0511 371.348 19.9205C371.581 19.7898 371.697 19.5625 371.697 19.2386V19.1705C371.697 18.3295 371.467 17.6761 371.007 17.2102C370.553 16.7443 369.862 16.5114 368.936 16.5114C367.976 16.5114 367.223 16.7216 366.678 17.142C366.132 17.5625 365.749 18.0114 365.527 18.4886L363.618 17.8068C363.959 17.0114 364.413 16.392 364.982 15.9489C365.555 15.5 366.18 15.1875 366.857 15.0114C367.538 14.8295 368.209 14.7386 368.868 14.7386C369.288 14.7386 369.771 14.7898 370.317 14.892C370.868 14.9886 371.399 15.1903 371.911 15.4972C372.428 15.804 372.857 16.267 373.197 16.8864C373.538 17.5057 373.709 18.3352 373.709 19.375V28H371.697V26.2273H371.595C371.459 26.5114 371.232 26.8153 370.913 27.1392C370.595 27.4631 370.172 27.7386 369.643 27.9659C369.115 28.1932 368.47 28.3068 367.709 28.3068ZM368.016 26.5C368.811 26.5 369.482 26.3438 370.027 26.0312C370.578 25.7188 370.993 25.3153 371.271 24.821C371.555 24.3267 371.697 23.8068 371.697 23.2614V21.4205C371.612 21.5227 371.425 21.6165 371.135 21.7017C370.851 21.7812 370.521 21.8523 370.146 21.9148C369.777 21.9716 369.416 22.0227 369.064 22.0682C368.717 22.108 368.436 22.142 368.22 22.1705C367.697 22.2386 367.209 22.3494 366.754 22.5028C366.305 22.6506 365.942 22.875 365.663 23.1761C365.391 23.4716 365.254 23.875 365.254 24.3864C365.254 25.0852 365.513 25.6136 366.03 25.9716C366.553 26.3239 367.214 26.5 368.016 26.5ZM382.698 28.2727C381.471 28.2727 380.414 27.983 379.528 27.4034C378.641 26.8239 377.96 26.0256 377.482 25.0085C377.005 23.9915 376.766 22.8295 376.766 21.5227C376.766 20.1932 377.011 19.0199 377.499 18.0028C377.994 16.9801 378.681 16.1818 379.562 15.608C380.448 15.0284 381.482 14.7386 382.664 14.7386C383.585 14.7386 384.414 14.9091 385.153 15.25C385.891 15.5909 386.496 16.0682 386.968 16.6818C387.44 17.2955 387.732 18.0114 387.846 18.8295H385.835C385.681 18.233 385.34 17.7045 384.812 17.2443C384.289 16.7784 383.585 16.5455 382.698 16.5455C381.914 16.5455 381.227 16.75 380.636 17.1591C380.05 17.5625 379.593 18.1335 379.263 18.8722C378.94 19.6051 378.778 20.4659 378.778 21.4545C378.778 22.4659 378.937 23.3466 379.255 24.0966C379.579 24.8466 380.033 25.429 380.619 25.8438C381.21 26.2585 381.903 26.4659 382.698 26.4659C383.221 26.4659 383.695 26.375 384.121 26.1932C384.548 26.0114 384.908 25.75 385.204 25.4091C385.499 25.0682 385.71 24.6591 385.835 24.1818H387.846C387.732 24.9545 387.451 25.6506 387.002 26.2699C386.559 26.8835 385.971 27.3722 385.238 27.7358C384.511 28.0938 383.664 28.2727 382.698 28.2727ZM392.661 23.2273L392.627 20.7386H393.036L398.763 14.9091H401.252L395.15 21.0795H394.979L392.661 23.2273ZM390.786 28V10.5455H392.798V28H390.786ZM399.104 28L393.991 21.5227L395.423 20.125L401.661 28H399.104ZM408.79 28.2727C407.529 28.2727 406.441 27.9943 405.526 27.4375C404.617 26.875 403.915 26.0909 403.421 25.0852C402.933 24.0739 402.688 22.8977 402.688 21.5568C402.688 20.2159 402.933 19.0341 403.421 18.0114C403.915 16.983 404.603 16.1818 405.484 15.608C406.37 15.0284 407.404 14.7386 408.586 14.7386C409.268 14.7386 409.941 14.8523 410.606 15.0795C411.271 15.3068 411.876 15.6761 412.421 16.1875C412.967 16.6932 413.401 17.3636 413.725 18.1989C414.049 19.0341 414.211 20.0625 414.211 21.2841V22.1364H404.12V20.3977H412.165C412.165 19.6591 412.018 19 411.722 18.4205C411.433 17.8409 411.018 17.3835 410.478 17.0483C409.944 16.7131 409.313 16.5455 408.586 16.5455C407.785 16.5455 407.092 16.7443 406.506 17.142C405.927 17.5341 405.481 18.0455 405.168 18.6761C404.856 19.3068 404.7 19.983 404.7 20.7045V21.8636C404.7 22.8523 404.87 23.6903 405.211 24.3778C405.558 25.0597 406.038 25.5795 406.651 25.9375C407.265 26.2898 407.978 26.4659 408.79 26.4659C409.319 26.4659 409.796 26.392 410.222 26.2443C410.654 26.0909 411.026 25.8636 411.339 25.5625C411.651 25.2557 411.893 24.875 412.063 24.4205L414.006 24.9659C413.802 25.625 413.458 26.2045 412.975 26.7045C412.492 27.1989 411.896 27.5852 411.185 27.8636C410.475 28.1364 409.677 28.2727 408.79 28.2727ZM422.214 28.2727C421.123 28.2727 420.16 27.9972 419.325 27.446C418.489 26.8892 417.836 26.1051 417.364 25.0938C416.893 24.0767 416.657 22.875 416.657 21.4886C416.657 20.1136 416.893 18.9205 417.364 17.9091C417.836 16.8977 418.492 16.1165 419.333 15.5653C420.174 15.0142 421.146 14.7386 422.248 14.7386C423.1 14.7386 423.773 14.8807 424.268 15.1648C424.768 15.4432 425.148 15.7614 425.41 16.1193C425.677 16.4716 425.884 16.7614 426.032 16.9886H426.202V10.5455H428.214V28H426.271V25.9886H426.032C425.884 26.2273 425.674 26.5284 425.401 26.892C425.129 27.25 424.739 27.571 424.234 27.8551C423.728 28.1335 423.055 28.2727 422.214 28.2727ZM422.487 26.4659C423.293 26.4659 423.975 26.2557 424.532 25.8352C425.089 25.4091 425.512 24.821 425.802 24.071C426.092 23.3153 426.237 22.4432 426.237 21.4545C426.237 20.4773 426.094 19.6222 425.81 18.8892C425.526 18.1506 425.106 17.5767 424.549 17.1676C423.992 16.7528 423.305 16.5455 422.487 16.5455C421.634 16.5455 420.924 16.7642 420.356 17.2017C419.793 17.6335 419.37 18.2216 419.086 18.9659C418.808 19.7045 418.668 20.5341 418.668 21.4545C418.668 22.3864 418.81 23.233 419.094 23.9943C419.384 24.75 419.81 25.3523 420.373 25.8011C420.941 26.2443 421.646 26.4659 422.487 26.4659ZM441.893 28L437.904 14.9091H440.018L442.847 24.9318H442.984L445.779 14.9091H447.927L450.688 24.8977H450.825L453.654 14.9091H455.768L451.779 28H449.802L446.938 17.9432H446.734L443.87 28H441.893ZM458.427 28V14.9091H460.438V28H458.427ZM459.45 12.7273C459.058 12.7273 458.719 12.5938 458.435 12.3267C458.157 12.0597 458.018 11.7386 458.018 11.3636C458.018 10.9886 458.157 10.6676 458.435 10.4006C458.719 10.1335 459.058 10 459.45 10C459.842 10 460.177 10.1335 460.455 10.4006C460.739 10.6676 460.881 10.9886 460.881 11.3636C460.881 11.7386 460.739 12.0597 460.455 12.3267C460.177 12.5938 459.842 12.7273 459.45 12.7273ZM469.815 14.9091V16.6136H463.031V14.9091H469.815ZM465.009 11.7727H467.02V24.25C467.02 24.8182 467.102 25.2443 467.267 25.5284C467.438 25.8068 467.653 25.9943 467.915 26.0909C468.182 26.1818 468.463 26.2273 468.759 26.2273C468.98 26.2273 469.162 26.2159 469.304 26.1932C469.446 26.1648 469.56 26.142 469.645 26.125L470.054 27.9318C469.918 27.983 469.727 28.0341 469.483 28.0852C469.239 28.142 468.929 28.1705 468.554 28.1705C467.986 28.1705 467.429 28.0483 466.884 27.804C466.344 27.5597 465.895 27.1875 465.537 26.6875C465.185 26.1875 465.009 25.5568 465.009 24.7955V11.7727ZM475.134 20.125V28H473.122V10.5455H475.134V16.9545H475.304C475.611 16.2784 476.071 15.7415 476.685 15.3438C477.304 14.9403 478.128 14.7386 479.156 14.7386C480.048 14.7386 480.83 14.9176 481.5 15.2756C482.17 15.6278 482.69 16.1705 483.06 16.9034C483.435 17.6307 483.622 18.5568 483.622 19.6818V28H481.611V19.8182C481.611 18.7784 481.341 17.9744 480.801 17.4062C480.267 16.8324 479.526 16.5455 478.577 16.5455C477.918 16.5455 477.327 16.6847 476.804 16.9631C476.287 17.2415 475.878 17.6477 475.577 18.1818C475.281 18.7159 475.134 19.3636 475.134 20.125ZM503.325 17.8409L501.518 18.3523C501.404 18.0511 501.237 17.7585 501.015 17.4744C500.799 17.1847 500.504 16.946 500.129 16.7585C499.754 16.571 499.273 16.4773 498.688 16.4773C497.887 16.4773 497.219 16.6619 496.685 17.0312C496.157 17.3949 495.893 17.858 495.893 18.4205C495.893 18.9205 496.075 19.3153 496.438 19.6051C496.802 19.8949 497.37 20.1364 498.143 20.3295L500.086 20.8068C501.256 21.0909 502.129 21.5256 502.702 22.1108C503.276 22.6903 503.563 23.4375 503.563 24.3523C503.563 25.1023 503.347 25.7727 502.915 26.3636C502.489 26.9545 501.893 27.4205 501.126 27.7614C500.359 28.1023 499.467 28.2727 498.45 28.2727C497.114 28.2727 496.009 27.983 495.134 27.4034C494.259 26.8239 493.705 25.9773 493.472 24.8636L495.381 24.3864C495.563 25.0909 495.907 25.6193 496.413 25.9716C496.924 26.3239 497.592 26.5 498.415 26.5C499.353 26.5 500.097 26.3011 500.648 25.9034C501.205 25.5 501.484 25.017 501.484 24.4545C501.484 24 501.325 23.6193 501.006 23.3125C500.688 23 500.2 22.767 499.54 22.6136L497.359 22.1023C496.16 21.8182 495.279 21.3778 494.717 20.7812C494.16 20.179 493.881 19.4261 493.881 18.5227C493.881 17.7841 494.089 17.1307 494.504 16.5625C494.924 15.9943 495.495 15.5483 496.217 15.2244C496.944 14.9006 497.768 14.7386 498.688 14.7386C499.984 14.7386 501.001 15.0227 501.739 15.5909C502.484 16.1591 503.012 16.9091 503.325 17.8409ZM512.284 14.9091V16.6136H505.5V14.9091H512.284ZM507.477 11.7727H509.489V24.25C509.489 24.8182 509.571 25.2443 509.736 25.5284C509.906 25.8068 510.122 25.9943 510.384 26.0909C510.651 26.1818 510.932 26.2273 511.227 26.2273C511.449 26.2273 511.631 26.2159 511.773 26.1932C511.915 26.1648 512.028 26.142 512.114 26.125L512.523 27.9318C512.386 27.983 512.196 28.0341 511.952 28.0852C511.707 28.142 511.398 28.1705 511.023 28.1705C510.455 28.1705 509.898 28.0483 509.352 27.804C508.813 27.5597 508.364 27.1875 508.006 26.6875C507.653 26.1875 507.477 25.5568 507.477 24.7955V11.7727ZM523.56 22.6477V14.9091H525.571V28H523.56V25.7841H523.423C523.116 26.4489 522.639 27.0142 521.991 27.4801C521.344 27.9403 520.526 28.1705 519.537 28.1705C518.719 28.1705 517.991 27.9915 517.355 27.6335C516.719 27.2699 516.219 26.7244 515.855 25.9972C515.491 25.2642 515.31 24.3409 515.31 23.2273V14.9091H517.321V23.0909C517.321 24.0455 517.588 24.8068 518.122 25.375C518.662 25.9432 519.349 26.2273 520.185 26.2273C520.685 26.2273 521.193 26.0994 521.71 25.8438C522.233 25.5881 522.67 25.196 523.023 24.6676C523.381 24.1392 523.56 23.4659 523.56 22.6477ZM535.085 14.9091V16.6136H528.028V14.9091H535.085ZM530.141 28V13.1023C530.141 12.3523 530.317 11.7273 530.67 11.2273C531.022 10.7273 531.479 10.3523 532.042 10.1023C532.604 9.85227 533.198 9.72727 533.823 9.72727C534.317 9.72727 534.721 9.76704 535.033 9.84659C535.346 9.92614 535.579 10 535.732 10.0682L535.153 11.8068C535.05 11.7727 534.908 11.7301 534.727 11.679C534.55 11.6278 534.317 11.6023 534.028 11.6023C533.363 11.6023 532.883 11.7699 532.587 12.1051C532.298 12.4403 532.153 12.9318 532.153 13.5795V28H530.141ZM543.733 14.9091V16.6136H536.676V14.9091H543.733ZM538.79 28V13.1023C538.79 12.3523 538.966 11.7273 539.318 11.2273C539.67 10.7273 540.128 10.3523 540.69 10.1023C541.253 9.85227 541.847 9.72727 542.472 9.72727C542.966 9.72727 543.369 9.76704 543.682 9.84659C543.994 9.92614 544.227 10 544.381 10.0682L543.801 11.8068C543.699 11.7727 543.557 11.7301 543.375 11.679C543.199 11.6278 542.966 11.6023 542.676 11.6023C542.011 11.6023 541.531 11.7699 541.236 12.1051C540.946 12.4403 540.801 12.9318 540.801 13.5795V28H538.79ZM555.688 10.5455V28H553.575V10.5455H555.688ZM571.722 28.2727C570.494 28.2727 569.438 27.983 568.551 27.4034C567.665 26.8239 566.983 26.0256 566.506 25.0085C566.028 23.9915 565.79 22.8295 565.79 21.5227C565.79 20.1932 566.034 19.0199 566.523 18.0028C567.017 16.9801 567.705 16.1818 568.585 15.608C569.472 15.0284 570.506 14.7386 571.688 14.7386C572.608 14.7386 573.438 14.9091 574.176 15.25C574.915 15.5909 575.52 16.0682 575.991 16.6818C576.463 17.2955 576.756 18.0114 576.869 18.8295H574.858C574.705 18.233 574.364 17.7045 573.835 17.2443C573.313 16.7784 572.608 16.5455 571.722 16.5455C570.938 16.5455 570.25 16.75 569.659 17.1591C569.074 17.5625 568.616 18.1335 568.287 18.8722C567.963 19.6051 567.801 20.4659 567.801 21.4545C567.801 22.4659 567.96 23.3466 568.278 24.0966C568.602 24.8466 569.057 25.429 569.642 25.8438C570.233 26.2585 570.926 26.4659 571.722 26.4659C572.244 26.4659 572.719 26.375 573.145 26.1932C573.571 26.0114 573.932 25.75 574.227 25.4091C574.523 25.0682 574.733 24.6591 574.858 24.1818H576.869C576.756 24.9545 576.474 25.6506 576.026 26.2699C575.582 26.8835 574.994 27.3722 574.261 27.7358C573.534 28.0938 572.688 28.2727 571.722 28.2727ZM581.821 20.125V28H579.81V10.5455H581.821V16.9545H581.991C582.298 16.2784 582.759 15.7415 583.372 15.3438C583.991 14.9403 584.815 14.7386 585.844 14.7386C586.736 14.7386 587.517 14.9176 588.188 15.2756C588.858 15.6278 589.378 16.1705 589.747 16.9034C590.122 17.6307 590.31 18.5568 590.31 19.6818V28H588.298V19.8182C588.298 18.7784 588.028 17.9744 587.489 17.4062C586.955 16.8324 586.213 16.5455 585.264 16.5455C584.605 16.5455 584.014 16.6847 583.491 16.9631C582.974 17.2415 582.565 17.6477 582.264 18.1818C581.969 18.7159 581.821 19.3636 581.821 20.125ZM599.308 28.2727C598.126 28.2727 597.089 27.9915 596.197 27.429C595.31 26.8665 594.617 26.0795 594.117 25.0682C593.623 24.0568 593.376 22.875 593.376 21.5227C593.376 20.1591 593.623 18.9687 594.117 17.9517C594.617 16.9347 595.31 16.1449 596.197 15.5824C597.089 15.0199 598.126 14.7386 599.308 14.7386C600.489 14.7386 601.523 15.0199 602.41 15.5824C603.302 16.1449 603.995 16.9347 604.489 17.9517C604.989 18.9687 605.239 20.1591 605.239 21.5227C605.239 22.875 604.989 24.0568 604.489 25.0682C603.995 26.0795 603.302 26.8665 602.41 27.429C601.523 27.9915 600.489 28.2727 599.308 28.2727ZM599.308 26.4659C600.205 26.4659 600.944 26.2358 601.523 25.7756C602.103 25.3153 602.532 24.7102 602.81 23.9602C603.089 23.2102 603.228 22.3977 603.228 21.5227C603.228 20.6477 603.089 19.8324 602.81 19.0767C602.532 18.321 602.103 17.7102 601.523 17.2443C600.944 16.7784 600.205 16.5455 599.308 16.5455C598.41 16.5455 597.671 16.7784 597.092 17.2443C596.512 17.7102 596.083 18.321 595.805 19.0767C595.526 19.8324 595.387 20.6477 595.387 21.5227C595.387 22.3977 595.526 23.2102 595.805 23.9602C596.083 24.7102 596.512 25.3153 597.092 25.7756C597.671 26.2358 598.41 26.4659 599.308 26.4659ZM617.582 17.8409L615.776 18.3523C615.662 18.0511 615.494 17.7585 615.273 17.4744C615.057 17.1847 614.761 16.946 614.386 16.7585C614.011 16.571 613.531 16.4773 612.946 16.4773C612.145 16.4773 611.477 16.6619 610.943 17.0312C610.415 17.3949 610.151 17.858 610.151 18.4205C610.151 18.9205 610.332 19.3153 610.696 19.6051C611.06 19.8949 611.628 20.1364 612.401 20.3295L614.344 20.8068C615.514 21.0909 616.386 21.5256 616.96 22.1108C617.534 22.6903 617.821 23.4375 617.821 24.3523C617.821 25.1023 617.605 25.7727 617.173 26.3636C616.747 26.9545 616.151 27.4205 615.384 27.7614C614.616 28.1023 613.724 28.2727 612.707 28.2727C611.372 28.2727 610.267 27.983 609.392 27.4034C608.517 26.8239 607.963 25.9773 607.73 24.8636L609.639 24.3864C609.821 25.0909 610.165 25.6193 610.67 25.9716C611.182 26.3239 611.849 26.5 612.673 26.5C613.611 26.5 614.355 26.3011 614.906 25.9034C615.463 25.5 615.741 25.017 615.741 24.4545C615.741 24 615.582 23.6193 615.264 23.3125C614.946 23 614.457 22.767 613.798 22.6136L611.616 22.1023C610.418 21.8182 609.537 21.3778 608.974 20.7812C608.418 20.179 608.139 19.4261 608.139 18.5227C608.139 17.7841 608.347 17.1307 608.761 16.5625C609.182 15.9943 609.753 15.5483 610.474 15.2244C611.202 14.9006 612.026 14.7386 612.946 14.7386C614.241 14.7386 615.259 15.0227 615.997 15.5909C616.741 16.1591 617.27 16.9091 617.582 17.8409ZM626.337 28.2727C625.076 28.2727 623.988 27.9943 623.073 27.4375C622.164 26.875 621.462 26.0909 620.968 25.0852C620.479 24.0739 620.235 22.8977 620.235 21.5568C620.235 20.2159 620.479 19.0341 620.968 18.0114C621.462 16.983 622.15 16.1818 623.031 15.608C623.917 15.0284 624.951 14.7386 626.133 14.7386C626.815 14.7386 627.488 14.8523 628.153 15.0795C628.817 15.3068 629.423 15.6761 629.968 16.1875C630.513 16.6932 630.948 17.3636 631.272 18.1989C631.596 19.0341 631.758 20.0625 631.758 21.2841V22.1364H621.667V20.3977H629.712C629.712 19.6591 629.565 19 629.269 18.4205C628.979 17.8409 628.565 17.3835 628.025 17.0483C627.491 16.7131 626.86 16.5455 626.133 16.5455C625.332 16.5455 624.638 16.7443 624.053 17.142C623.474 17.5341 623.028 18.0455 622.715 18.6761C622.403 19.3068 622.246 19.983 622.246 20.7045V21.8636C622.246 22.8523 622.417 23.6903 622.758 24.3778C623.104 25.0597 623.585 25.5795 624.198 25.9375C624.812 26.2898 625.525 26.4659 626.337 26.4659C626.866 26.4659 627.343 26.392 627.769 26.2443C628.201 26.0909 628.573 25.8636 628.886 25.5625C629.198 25.2557 629.44 24.875 629.61 24.4205L631.553 24.9659C631.349 25.625 631.005 26.2045 630.522 26.7045C630.039 27.1989 629.442 27.5852 628.732 27.8636C628.022 28.1364 627.224 28.2727 626.337 28.2727ZM636.283 28.1364C635.863 28.1364 635.502 27.9858 635.201 27.6847C634.9 27.3835 634.749 27.0227 634.749 26.6023C634.749 26.1818 634.9 25.821 635.201 25.5199C635.502 25.2187 635.863 25.0682 636.283 25.0682C636.704 25.0682 637.065 25.2187 637.366 25.5199C637.667 25.821 637.817 26.1818 637.817 26.6023C637.817 26.8807 637.746 27.1364 637.604 27.3693C637.468 27.6023 637.283 27.7898 637.05 27.9318C636.823 28.0682 636.567 28.1364 636.283 28.1364Z" fill="#3D1F1A"/>
</svg>
