<svg width="671" height="40" viewBox="0 0 671 40" fill="none" xmlns="http://www.w3.org/2000/svg">
<rect x="1" y="1" width="669" height="38" rx="19" fill="#D3B6A1" stroke="#3D1F1A" stroke-width="2"/>
<path d="M53.2425 30V12.5455H63.7085V14.4205H55.3562V20.3182H62.9244V22.1932H55.3562V30H53.2425ZM67.0558 30V16.9091H69.0671V30H67.0558ZM68.0785 14.7273C67.6864 14.7273 67.3484 14.5938 67.0643 14.3267C66.7859 14.0597 66.6467 13.7386 66.6467 13.3636C66.6467 12.9886 66.7859 12.6676 67.0643 12.4006C67.3484 12.1335 67.6864 12 68.0785 12C68.4705 12 68.8058 12.1335 69.0842 12.4006C69.3683 12.6676 69.5103 12.9886 69.5103 13.3636C69.5103 13.7386 69.3683 14.0597 69.0842 14.3267C68.8058 14.5938 68.4705 14.7273 68.0785 14.7273ZM74.7624 12.5455V30H72.7511V12.5455H74.7624ZM80.4577 12.5455V30H78.4464V12.5455H80.4577ZM89.6303 30.2727C88.369 30.2727 87.2809 29.9943 86.3661 29.4375C85.457 28.875 84.7553 28.0909 84.261 27.0852C83.7724 26.0739 83.5281 24.8977 83.5281 23.5568C83.5281 22.2159 83.7724 21.0341 84.261 20.0114C84.7553 18.983 85.4428 18.1818 86.3235 17.608C87.2099 17.0284 88.244 16.7386 89.4258 16.7386C90.1076 16.7386 90.7809 16.8523 91.4457 17.0795C92.1104 17.3068 92.7156 17.6761 93.261 18.1875C93.8065 18.6932 94.2411 19.3636 94.565 20.1989C94.8888 21.0341 95.0508 22.0625 95.0508 23.2841V24.1364H84.9599V22.3977H93.0053C93.0053 21.6591 92.8576 21 92.5621 20.4205C92.2724 19.8409 91.8576 19.3835 91.3178 19.0483C90.7837 18.7131 90.1531 18.5455 89.4258 18.5455C88.6246 18.5455 87.9315 18.7443 87.3462 19.142C86.7667 19.5341 86.3207 20.0455 86.0082 20.6761C85.6957 21.3068 85.5394 21.983 85.5394 22.7045V23.8636C85.5394 24.8523 85.7099 25.6903 86.0508 26.3778C86.3974 27.0597 86.8775 27.5795 87.4911 27.9375C88.1048 28.2898 88.8178 28.4659 89.6303 28.4659C90.1587 28.4659 90.636 28.392 91.0621 28.2443C91.494 28.0909 91.8661 27.8636 92.1786 27.5625C92.4911 27.2557 92.7326 26.875 92.9031 26.4205L94.8462 26.9659C94.6417 27.625 94.2979 28.2045 93.815 28.7045C93.332 29.1989 92.7354 29.5852 92.0252 29.8636C91.315 30.1364 90.5167 30.2727 89.6303 30.2727ZM103.054 30.2727C101.963 30.2727 101 29.9972 100.164 29.446C99.3292 28.8892 98.6758 28.1051 98.2042 27.0938C97.7326 26.0767 97.4968 24.875 97.4968 23.4886C97.4968 22.1136 97.7326 20.9205 98.2042 19.9091C98.6758 18.8977 99.332 18.1165 100.173 17.5653C101.014 17.0142 101.985 16.7386 103.088 16.7386C103.94 16.7386 104.613 16.8807 105.108 17.1648C105.608 17.4432 105.988 17.7614 106.25 18.1193C106.517 18.4716 106.724 18.7614 106.872 18.9886H107.042V12.5455H109.054V30H107.11V27.9886H106.872C106.724 28.2273 106.514 28.5284 106.241 28.892C105.968 29.25 105.579 29.571 105.074 29.8551C104.568 30.1335 103.895 30.2727 103.054 30.2727ZM103.326 28.4659C104.133 28.4659 104.815 28.2557 105.372 27.8352C105.929 27.4091 106.352 26.821 106.642 26.071C106.931 25.3153 107.076 24.4432 107.076 23.4545C107.076 22.4773 106.934 21.6222 106.65 20.8892C106.366 20.1506 105.946 19.5767 105.389 19.1676C104.832 18.7528 104.145 18.5455 103.326 18.5455C102.474 18.5455 101.764 18.7642 101.196 19.2017C100.633 19.6335 100.21 20.2216 99.9258 20.9659C99.6474 21.7045 99.5082 22.5341 99.5082 23.4545C99.5082 24.3864 99.6502 25.233 99.9343 25.9943C100.224 26.75 100.65 27.3523 101.213 27.8011C101.781 28.2443 102.485 28.4659 103.326 28.4659ZM122.733 30L118.744 16.9091H120.858L123.687 26.9318H123.824L126.619 16.9091H128.767L131.528 26.8977H131.664L134.494 16.9091H136.608L132.619 30H130.642L127.778 19.9432H127.574L124.71 30H122.733ZM139.267 30V16.9091H141.278V30H139.267ZM140.289 14.7273C139.897 14.7273 139.559 14.5938 139.275 14.3267C138.997 14.0597 138.858 13.7386 138.858 13.3636C138.858 12.9886 138.997 12.6676 139.275 12.4006C139.559 12.1335 139.897 12 140.289 12C140.681 12 141.017 12.1335 141.295 12.4006C141.579 12.6676 141.721 12.9886 141.721 13.3636C141.721 13.7386 141.579 14.0597 141.295 14.3267C141.017 14.5938 140.681 14.7273 140.289 14.7273ZM150.655 16.9091V18.6136H143.871V16.9091H150.655ZM145.848 13.7727H147.86V26.25C147.86 26.8182 147.942 27.2443 148.107 27.5284C148.277 27.8068 148.493 27.9943 148.755 28.0909C149.022 28.1818 149.303 28.2273 149.598 28.2273C149.82 28.2273 150.002 28.2159 150.144 28.1932C150.286 28.1648 150.4 28.142 150.485 28.125L150.894 29.9318C150.757 29.983 150.567 30.0341 150.323 30.0852C150.078 30.142 149.769 30.1705 149.394 30.1705C148.826 30.1705 148.269 30.0483 147.723 29.804C147.184 29.5597 146.735 29.1875 146.377 28.6875C146.025 28.1875 145.848 27.5568 145.848 26.7955V13.7727ZM155.973 22.125V30H153.962V12.5455H155.973V18.9545H156.144C156.451 18.2784 156.911 17.7415 157.525 17.3438C158.144 16.9403 158.968 16.7386 159.996 16.7386C160.888 16.7386 161.669 16.9176 162.34 17.2756C163.01 17.6278 163.53 18.1705 163.9 18.9034C164.275 19.6307 164.462 20.5568 164.462 21.6818V30H162.451V21.8182C162.451 20.7784 162.181 19.9744 161.641 19.4062C161.107 18.8324 160.365 18.5455 159.417 18.5455C158.757 18.5455 158.167 18.6847 157.644 18.9631C157.127 19.2415 156.718 19.6477 156.417 20.1818C156.121 20.7159 155.973 21.3636 155.973 22.125ZM180.585 16.9091V18.6136H173.801V16.9091H180.585ZM175.778 13.7727H177.789V26.25C177.789 26.8182 177.872 27.2443 178.037 27.5284C178.207 27.8068 178.423 27.9943 178.684 28.0909C178.951 28.1818 179.233 28.2273 179.528 28.2273C179.75 28.2273 179.931 28.2159 180.074 28.1932C180.216 28.1648 180.329 28.142 180.414 28.125L180.824 29.9318C180.687 29.983 180.497 30.0341 180.252 30.0852C180.008 30.142 179.699 30.1705 179.324 30.1705C178.755 30.1705 178.199 30.0483 177.653 29.804C177.113 29.5597 176.664 29.1875 176.306 28.6875C175.954 28.1875 175.778 27.5568 175.778 26.7955V13.7727ZM185.903 22.125V30H183.892V12.5455H185.903V18.9545H186.074C186.38 18.2784 186.841 17.7415 187.454 17.3438C188.074 16.9403 188.897 16.7386 189.926 16.7386C190.818 16.7386 191.599 16.9176 192.27 17.2756C192.94 17.6278 193.46 18.1705 193.829 18.9034C194.204 19.6307 194.392 20.5568 194.392 21.6818V30H192.38V21.8182C192.38 20.7784 192.11 19.9744 191.571 19.4062C191.037 18.8324 190.295 18.5455 189.346 18.5455C188.687 18.5455 188.096 18.6847 187.574 18.9631C187.056 19.2415 186.647 19.6477 186.346 20.1818C186.051 20.7159 185.903 21.3636 185.903 22.125ZM198.071 30V16.9091H200.083V30H198.071ZM199.094 14.7273C198.702 14.7273 198.364 14.5938 198.08 14.3267C197.801 14.0597 197.662 13.7386 197.662 13.3636C197.662 12.9886 197.801 12.6676 198.08 12.4006C198.364 12.1335 198.702 12 199.094 12C199.486 12 199.821 12.1335 200.1 12.4006C200.384 12.6676 200.526 12.9886 200.526 13.3636C200.526 13.7386 200.384 14.0597 200.1 14.3267C199.821 14.5938 199.486 14.7273 199.094 14.7273ZM205.778 22.125V30H203.767V16.9091H205.71V18.9545H205.88C206.187 18.2898 206.653 17.7557 207.278 17.3523C207.903 16.9432 208.71 16.7386 209.699 16.7386C210.585 16.7386 211.36 16.9205 212.025 17.2841C212.69 17.642 213.207 18.1875 213.576 18.9205C213.946 19.6477 214.13 20.5682 214.13 21.6818V30H212.119V21.8182C212.119 20.7898 211.852 19.9886 211.318 19.4148C210.784 18.8352 210.051 18.5455 209.119 18.5455C208.477 18.5455 207.903 18.6847 207.397 18.9631C206.897 19.2415 206.502 19.6477 206.213 20.1818C205.923 20.7159 205.778 21.3636 205.778 22.125ZM223.09 35.1818C222.118 35.1818 221.283 35.0568 220.584 34.8068C219.885 34.5625 219.303 34.2386 218.837 33.8352C218.377 33.4375 218.01 33.0114 217.738 32.5568L219.34 31.4318C219.522 31.6705 219.752 31.9432 220.03 32.25C220.309 32.5625 220.689 32.8324 221.172 33.0597C221.661 33.2926 222.3 33.4091 223.09 33.4091C224.147 33.4091 225.019 33.1534 225.706 32.642C226.394 32.1307 226.738 31.3295 226.738 30.2386V27.5795H226.567C226.419 27.8182 226.209 28.1136 225.936 28.4659C225.669 28.8125 225.283 29.1222 224.777 29.3949C224.277 29.6619 223.601 29.7955 222.749 29.7955C221.692 29.7955 220.743 29.5455 219.902 29.0455C219.067 28.5455 218.405 27.8182 217.917 26.8636C217.434 25.9091 217.192 24.75 217.192 23.3864C217.192 22.0455 217.428 20.8778 217.9 19.8835C218.371 18.8835 219.027 18.1108 219.868 17.5653C220.709 17.0142 221.681 16.7386 222.783 16.7386C223.635 16.7386 224.311 16.8807 224.811 17.1648C225.317 17.4432 225.703 17.7614 225.971 18.1193C226.243 18.4716 226.453 18.7614 226.601 18.9886H226.806V16.9091H228.749V30.375C228.749 31.5 228.493 32.4148 227.982 33.1193C227.476 33.8295 226.794 34.3494 225.936 34.679C225.084 35.0142 224.135 35.1818 223.09 35.1818ZM223.022 27.9886C223.828 27.9886 224.51 27.804 225.067 27.4347C225.624 27.0653 226.047 26.5341 226.337 25.8409C226.627 25.1477 226.772 24.3182 226.772 23.3523C226.772 22.4091 226.63 21.5767 226.346 20.8551C226.061 20.1335 225.641 19.5682 225.084 19.1591C224.527 18.75 223.84 18.5455 223.022 18.5455C222.169 18.5455 221.459 18.7614 220.891 19.1932C220.328 19.625 219.905 20.2045 219.621 20.9318C219.343 21.6591 219.203 22.4659 219.203 23.3523C219.203 24.2614 219.346 25.0653 219.63 25.7642C219.919 26.4574 220.346 27.0028 220.908 27.4006C221.476 27.7926 222.181 27.9886 223.022 27.9886ZM241.703 19.8409L239.897 20.3523C239.783 20.0511 239.615 19.7585 239.394 19.4744C239.178 19.1847 238.882 18.946 238.507 18.7585C238.132 18.571 237.652 18.4773 237.067 18.4773C236.266 18.4773 235.598 18.6619 235.064 19.0312C234.536 19.3949 234.272 19.858 234.272 20.4205C234.272 20.9205 234.453 21.3153 234.817 21.6051C235.181 21.8949 235.749 22.1364 236.522 22.3295L238.465 22.8068C239.635 23.0909 240.507 23.5256 241.081 24.1108C241.655 24.6903 241.942 25.4375 241.942 26.3523C241.942 27.1023 241.726 27.7727 241.294 28.3636C240.868 28.9545 240.272 29.4205 239.505 29.7614C238.738 30.1023 237.846 30.2727 236.828 30.2727C235.493 30.2727 234.388 29.983 233.513 29.4034C232.638 28.8239 232.084 27.9773 231.851 26.8636L233.76 26.3864C233.942 27.0909 234.286 27.6193 234.792 27.9716C235.303 28.3239 235.971 28.5 236.794 28.5C237.732 28.5 238.476 28.3011 239.027 27.9034C239.584 27.5 239.863 27.017 239.863 26.4545C239.863 26 239.703 25.6193 239.385 25.3125C239.067 25 238.578 24.767 237.919 24.6136L235.738 24.1023C234.539 23.8182 233.658 23.3778 233.096 22.7812C232.539 22.179 232.26 21.4261 232.26 20.5227C232.26 19.7841 232.468 19.1307 232.882 18.5625C233.303 17.9943 233.874 17.5483 234.596 17.2244C235.323 16.9006 236.147 16.7386 237.067 16.7386C238.363 16.7386 239.38 17.0227 240.118 17.5909C240.863 18.1591 241.391 18.9091 241.703 19.8409ZM254.106 12.5455V30H251.993V12.5455H254.106ZM269.765 30.2727C268.674 30.2727 267.711 29.9972 266.875 29.446C266.04 28.8892 265.387 28.1051 264.915 27.0938C264.444 26.0767 264.208 24.875 264.208 23.4886C264.208 22.1136 264.444 20.9205 264.915 19.9091C265.387 18.8977 266.043 18.1165 266.884 17.5653C267.725 17.0142 268.696 16.7386 269.799 16.7386C270.651 16.7386 271.324 16.8807 271.819 17.1648C272.319 17.4432 272.699 17.7614 272.961 18.1193C273.228 18.4716 273.435 18.7614 273.583 18.9886H273.753V12.5455H275.765V30H273.821V27.9886H273.583C273.435 28.2273 273.225 28.5284 272.952 28.892C272.679 29.25 272.29 29.571 271.784 29.8551C271.279 30.1335 270.605 30.2727 269.765 30.2727ZM270.037 28.4659C270.844 28.4659 271.526 28.2557 272.083 27.8352C272.64 27.4091 273.063 26.821 273.353 26.071C273.642 25.3153 273.787 24.4432 273.787 23.4545C273.787 22.4773 273.645 21.6222 273.361 20.8892C273.077 20.1506 272.657 19.5767 272.1 19.1676C271.543 18.7528 270.855 18.5455 270.037 18.5455C269.185 18.5455 268.475 18.7642 267.907 19.2017C267.344 19.6335 266.921 20.2216 266.637 20.9659C266.358 21.7045 266.219 22.5341 266.219 23.4545C266.219 24.3864 266.361 25.233 266.645 25.9943C266.935 26.75 267.361 27.3523 267.924 27.8011C268.492 28.2443 269.196 28.4659 270.037 28.4659ZM279.728 30V16.9091H281.739V30H279.728ZM280.75 14.7273C280.358 14.7273 280.02 14.5938 279.736 14.3267C279.458 14.0597 279.319 13.7386 279.319 13.3636C279.319 12.9886 279.458 12.6676 279.736 12.4006C280.02 12.1335 280.358 12 280.75 12C281.142 12 281.478 12.1335 281.756 12.4006C282.04 12.6676 282.182 12.9886 282.182 13.3636C282.182 13.7386 282.04 14.0597 281.756 14.3267C281.478 14.5938 281.142 14.7273 280.75 14.7273ZM290.366 30.2727C289.275 30.2727 288.312 29.9972 287.477 29.446C286.642 28.8892 285.988 28.1051 285.517 27.0938C285.045 26.0767 284.809 24.875 284.809 23.4886C284.809 22.1136 285.045 20.9205 285.517 19.9091C285.988 18.8977 286.645 18.1165 287.485 17.5653C288.326 17.0142 289.298 16.7386 290.4 16.7386C291.252 16.7386 291.926 16.8807 292.42 17.1648C292.92 17.4432 293.301 17.7614 293.562 18.1193C293.829 18.4716 294.037 18.7614 294.184 18.9886H294.355V12.5455H296.366V30H294.423V27.9886H294.184C294.037 28.2273 293.826 28.5284 293.554 28.892C293.281 29.25 292.892 29.571 292.386 29.8551C291.88 30.1335 291.207 30.2727 290.366 30.2727ZM290.639 28.4659C291.446 28.4659 292.127 28.2557 292.684 27.8352C293.241 27.4091 293.664 26.821 293.954 26.071C294.244 25.3153 294.389 24.4432 294.389 23.4545C294.389 22.4773 294.247 21.6222 293.963 20.8892C293.679 20.1506 293.258 19.5767 292.701 19.1676C292.145 18.7528 291.457 18.5455 290.639 18.5455C289.787 18.5455 289.076 18.7642 288.508 19.2017C287.946 19.6335 287.522 20.2216 287.238 20.9659C286.96 21.7045 286.821 22.5341 286.821 23.4545C286.821 24.3864 286.963 25.233 287.247 25.9943C287.537 26.75 287.963 27.3523 288.525 27.8011C289.093 28.2443 289.798 28.4659 290.639 28.4659ZM302.341 22.125V30H300.329V16.9091H302.272V18.9545H302.443C302.75 18.2898 303.216 17.7557 303.841 17.3523C304.466 16.9432 305.272 16.7386 306.261 16.7386C307.147 16.7386 307.923 16.9205 308.588 17.2841C309.252 17.642 309.77 18.1875 310.139 18.9205C310.508 19.6477 310.693 20.5682 310.693 21.6818V30H308.681V21.8182C308.681 20.7898 308.414 19.9886 307.88 19.4148C307.346 18.8352 306.613 18.5455 305.681 18.5455C305.039 18.5455 304.466 18.6847 303.96 18.9631C303.46 19.2415 303.065 19.6477 302.775 20.1818C302.485 20.7159 302.341 21.3636 302.341 22.125ZM316.141 12.5455V14.0795C316.141 14.5455 316.056 15.0426 315.885 15.571C315.721 16.0938 315.476 16.6023 315.152 17.0966C314.834 17.5852 314.448 18.0114 313.993 18.375L312.902 17.4886C313.26 16.9773 313.57 16.446 313.831 15.8949C314.098 15.3381 314.232 14.7443 314.232 14.1136V12.5455H316.141ZM324.843 16.9091V18.6136H318.059V16.9091H324.843ZM320.036 13.7727H322.047V26.25C322.047 26.8182 322.13 27.2443 322.294 27.5284C322.465 27.8068 322.681 27.9943 322.942 28.0909C323.209 28.1818 323.49 28.2273 323.786 28.2273C324.007 28.2273 324.189 28.2159 324.331 28.1932C324.473 28.1648 324.587 28.142 324.672 28.125L325.081 29.9318C324.945 29.983 324.755 30.0341 324.51 30.0852C324.266 30.142 323.956 30.1705 323.581 30.1705C323.013 30.1705 322.456 30.0483 321.911 29.804C321.371 29.5597 320.922 29.1875 320.564 28.6875C320.212 28.1875 320.036 27.5568 320.036 26.7955V13.7727ZM338.471 30.3068C337.641 30.3068 336.888 30.1506 336.212 29.8381C335.536 29.5199 334.999 29.0625 334.601 28.4659C334.203 27.8636 334.005 27.1364 334.005 26.2841C334.005 25.5341 334.152 24.9261 334.448 24.4602C334.743 23.9886 335.138 23.6193 335.632 23.3523C336.127 23.0852 336.672 22.8864 337.269 22.7557C337.871 22.6193 338.476 22.5114 339.084 22.4318C339.88 22.3295 340.525 22.2528 341.019 22.2017C341.519 22.1449 341.882 22.0511 342.11 21.9205C342.343 21.7898 342.459 21.5625 342.459 21.2386V21.1705C342.459 20.3295 342.229 19.6761 341.769 19.2102C341.314 18.7443 340.624 18.5114 339.698 18.5114C338.738 18.5114 337.985 18.7216 337.439 19.142C336.894 19.5625 336.51 20.0114 336.289 20.4886L334.38 19.8068C334.721 19.0114 335.175 18.392 335.743 17.9489C336.317 17.5 336.942 17.1875 337.618 17.0114C338.3 16.8295 338.971 16.7386 339.63 16.7386C340.05 16.7386 340.533 16.7898 341.078 16.892C341.63 16.9886 342.161 17.1903 342.672 17.4972C343.189 17.804 343.618 18.267 343.959 18.8864C344.3 19.5057 344.471 20.3352 344.471 21.375V30H342.459V28.2273H342.357C342.221 28.5114 341.993 28.8153 341.675 29.1392C341.357 29.4631 340.934 29.7386 340.405 29.9659C339.877 30.1932 339.232 30.3068 338.471 30.3068ZM338.777 28.5C339.573 28.5 340.243 28.3438 340.789 28.0312C341.34 27.7188 341.755 27.3153 342.033 26.821C342.317 26.3267 342.459 25.8068 342.459 25.2614V23.4205C342.374 23.5227 342.186 23.6165 341.897 23.7017C341.613 23.7812 341.283 23.8523 340.908 23.9148C340.539 23.9716 340.178 24.0227 339.826 24.0682C339.479 24.108 339.198 24.142 338.982 24.1705C338.459 24.2386 337.971 24.3494 337.516 24.5028C337.067 24.6506 336.703 24.875 336.425 25.1761C336.152 25.4716 336.016 25.875 336.016 26.3864C336.016 27.0852 336.275 27.6136 336.792 27.9716C337.314 28.3239 337.976 28.5 338.777 28.5ZM357.414 19.8409L355.608 20.3523C355.494 20.0511 355.326 19.7585 355.105 19.4744C354.889 19.1847 354.593 18.946 354.218 18.7585C353.843 18.571 353.363 18.4773 352.778 18.4773C351.977 18.4773 351.309 18.6619 350.775 19.0312C350.247 19.3949 349.983 19.858 349.983 20.4205C349.983 20.9205 350.164 21.3153 350.528 21.6051C350.892 21.8949 351.46 22.1364 352.233 22.3295L354.176 22.8068C355.346 23.0909 356.218 23.5256 356.792 24.1108C357.366 24.6903 357.653 25.4375 357.653 26.3523C357.653 27.1023 357.437 27.7727 357.005 28.3636C356.579 28.9545 355.983 29.4205 355.216 29.7614C354.449 30.1023 353.556 30.2727 352.539 30.2727C351.204 30.2727 350.099 29.983 349.224 29.4034C348.349 28.8239 347.795 27.9773 347.562 26.8636L349.471 26.3864C349.653 27.0909 349.997 27.6193 350.502 27.9716C351.014 28.3239 351.681 28.5 352.505 28.5C353.443 28.5 354.187 28.3011 354.738 27.9034C355.295 27.5 355.574 27.017 355.574 26.4545C355.574 26 355.414 25.6193 355.096 25.3125C354.778 25 354.289 24.767 353.63 24.6136L351.449 24.1023C350.25 23.8182 349.369 23.3778 348.806 22.7812C348.25 22.179 347.971 21.4261 347.971 20.5227C347.971 19.7841 348.179 19.1307 348.593 18.5625C349.014 17.9943 349.585 17.5483 350.306 17.2244C351.034 16.9006 351.858 16.7386 352.778 16.7386C354.074 16.7386 355.091 17.0227 355.829 17.5909C356.574 18.1591 357.102 18.9091 357.414 19.8409ZM362.556 25.2273L362.522 22.7386H362.931L368.658 16.9091H371.147L365.044 23.0795H364.874L362.556 25.2273ZM360.681 30V12.5455H362.692V30H360.681ZM368.999 30L363.885 23.5227L365.317 22.125L371.556 30H368.999ZM386.315 16.9091V18.6136H379.258V16.9091H386.315ZM381.372 30V15.1023C381.372 14.3523 381.548 13.7273 381.9 13.2273C382.252 12.7273 382.71 12.3523 383.272 12.1023C383.835 11.8523 384.429 11.7273 385.054 11.7273C385.548 11.7273 385.951 11.767 386.264 11.8466C386.576 11.9261 386.809 12 386.963 12.0682L386.383 13.8068C386.281 13.7727 386.139 13.7301 385.957 13.679C385.781 13.6278 385.548 13.6023 385.258 13.6023C384.593 13.6023 384.113 13.7699 383.818 14.1051C383.528 14.4403 383.383 14.9318 383.383 15.5795V30H381.372ZM393.913 30.2727C392.731 30.2727 391.694 29.9915 390.802 29.429C389.916 28.8665 389.223 28.0795 388.723 27.0682C388.228 26.0568 387.981 24.875 387.981 23.5227C387.981 22.1591 388.228 20.9687 388.723 19.9517C389.223 18.9347 389.916 18.1449 390.802 17.5824C391.694 17.0199 392.731 16.7386 393.913 16.7386C395.095 16.7386 396.129 17.0199 397.015 17.5824C397.907 18.1449 398.6 18.9347 399.095 19.9517C399.595 20.9687 399.845 22.1591 399.845 23.5227C399.845 24.875 399.595 26.0568 399.095 27.0682C398.6 28.0795 397.907 28.8665 397.015 29.429C396.129 29.9915 395.095 30.2727 393.913 30.2727ZM393.913 28.4659C394.811 28.4659 395.549 28.2358 396.129 27.7756C396.708 27.3153 397.137 26.7102 397.416 25.9602C397.694 25.2102 397.833 24.3977 397.833 23.5227C397.833 22.6477 397.694 21.8324 397.416 21.0767C397.137 20.321 396.708 19.7102 396.129 19.2443C395.549 18.7784 394.811 18.5455 393.913 18.5455C393.015 18.5455 392.277 18.7784 391.697 19.2443C391.118 19.7102 390.689 20.321 390.41 21.0767C390.132 21.8324 389.993 22.6477 389.993 23.5227C389.993 24.3977 390.132 25.2102 390.41 25.9602C390.689 26.7102 391.118 27.3153 391.697 27.7756C392.277 28.2358 393.015 28.4659 393.913 28.4659ZM402.915 30V16.9091H404.858V18.8864H404.995C405.233 18.2386 405.665 17.7131 406.29 17.3097C406.915 16.9062 407.62 16.7045 408.404 16.7045C408.551 16.7045 408.736 16.7074 408.958 16.7131C409.179 16.7187 409.347 16.7273 409.461 16.7386V18.7841C409.392 18.767 409.236 18.7415 408.992 18.7074C408.753 18.6676 408.5 18.6477 408.233 18.6477C407.597 18.6477 407.029 18.7812 406.529 19.0483C406.034 19.3097 405.642 19.6733 405.353 20.1392C405.069 20.5994 404.926 21.125 404.926 21.7159V30H402.915ZM413.345 27.6136L413.208 28.5341C413.112 29.1818 412.964 29.875 412.765 30.6136C412.572 31.3523 412.37 32.0483 412.16 32.7017C411.95 33.3551 411.777 33.875 411.64 34.2614H410.106C410.18 33.8977 410.277 33.4176 410.396 32.821C410.515 32.2244 410.635 31.5568 410.754 30.8182C410.879 30.0852 410.981 29.3352 411.061 28.5682L411.163 27.6136H413.345ZM424.094 30V12.5455H426.105V18.9886H426.276C426.424 18.7614 426.628 18.4716 426.89 18.1193C427.157 17.7614 427.537 17.4432 428.032 17.1648C428.532 16.8807 429.208 16.7386 430.06 16.7386C431.162 16.7386 432.134 17.0142 432.975 17.5653C433.816 18.1165 434.472 18.8977 434.944 19.9091C435.415 20.9205 435.651 22.1136 435.651 23.4886C435.651 24.875 435.415 26.0767 434.944 27.0938C434.472 28.1051 433.819 28.8892 432.983 29.446C432.148 29.9972 431.185 30.2727 430.094 30.2727C429.253 30.2727 428.58 30.1335 428.074 29.8551C427.569 29.571 427.179 29.25 426.907 28.892C426.634 28.5284 426.424 28.2273 426.276 27.9886H426.037V30H424.094ZM426.071 23.4545C426.071 24.4432 426.216 25.3153 426.506 26.071C426.796 26.821 427.219 27.4091 427.776 27.8352C428.333 28.2557 429.015 28.4659 429.821 28.4659C430.662 28.4659 431.364 28.2443 431.926 27.8011C432.495 27.3523 432.921 26.75 433.205 25.9943C433.495 25.233 433.64 24.3864 433.64 23.4545C433.64 22.5341 433.498 21.7045 433.213 20.9659C432.935 20.2216 432.512 19.6335 431.944 19.2017C431.381 18.7642 430.674 18.5455 429.821 18.5455C429.003 18.5455 428.316 18.7528 427.759 19.1676C427.202 19.5767 426.782 20.1506 426.498 20.8892C426.213 21.6222 426.071 22.4773 426.071 23.4545ZM446.978 24.6477V16.9091H448.989V30H446.978V27.7841H446.841C446.534 28.4489 446.057 29.0142 445.409 29.4801C444.762 29.9403 443.944 30.1705 442.955 30.1705C442.137 30.1705 441.409 29.9915 440.773 29.6335C440.137 29.2699 439.637 28.7244 439.273 27.9972C438.909 27.2642 438.728 26.3409 438.728 25.2273V16.9091H440.739V25.0909C440.739 26.0455 441.006 26.8068 441.54 27.375C442.08 27.9432 442.767 28.2273 443.603 28.2273C444.103 28.2273 444.611 28.0994 445.128 27.8438C445.651 27.5881 446.088 27.196 446.441 26.6676C446.799 26.1392 446.978 25.4659 446.978 24.6477ZM458.366 16.9091V18.6136H451.582V16.9091H458.366ZM453.559 13.7727H455.571V26.25C455.571 26.8182 455.653 27.2443 455.818 27.5284C455.988 27.8068 456.204 27.9943 456.466 28.0909C456.733 28.1818 457.014 28.2273 457.309 28.2273C457.531 28.2273 457.713 28.2159 457.855 28.1932C457.997 28.1648 458.11 28.142 458.196 28.125L458.605 29.9318C458.468 29.983 458.278 30.0341 458.034 30.0852C457.789 30.142 457.48 30.1705 457.105 30.1705C456.537 30.1705 455.98 30.0483 455.434 29.804C454.895 29.5597 454.446 29.1875 454.088 28.6875C453.735 28.1875 453.559 27.5568 453.559 26.7955V13.7727ZM477.414 19.8409L475.608 20.3523C475.494 20.0511 475.326 19.7585 475.105 19.4744C474.889 19.1847 474.593 18.946 474.218 18.7585C473.843 18.571 473.363 18.4773 472.778 18.4773C471.977 18.4773 471.309 18.6619 470.775 19.0312C470.247 19.3949 469.983 19.858 469.983 20.4205C469.983 20.9205 470.164 21.3153 470.528 21.6051C470.892 21.8949 471.46 22.1364 472.233 22.3295L474.176 22.8068C475.346 23.0909 476.218 23.5256 476.792 24.1108C477.366 24.6903 477.653 25.4375 477.653 26.3523C477.653 27.1023 477.437 27.7727 477.005 28.3636C476.579 28.9545 475.983 29.4205 475.216 29.7614C474.449 30.1023 473.556 30.2727 472.539 30.2727C471.204 30.2727 470.099 29.983 469.224 29.4034C468.349 28.8239 467.795 27.9773 467.562 26.8636L469.471 26.3864C469.653 27.0909 469.997 27.6193 470.502 27.9716C471.014 28.3239 471.681 28.5 472.505 28.5C473.443 28.5 474.187 28.3011 474.738 27.9034C475.295 27.5 475.574 27.017 475.574 26.4545C475.574 26 475.414 25.6193 475.096 25.3125C474.778 25 474.289 24.767 473.63 24.6136L471.449 24.1023C470.25 23.8182 469.369 23.3778 468.806 22.7812C468.25 22.179 467.971 21.4261 467.971 20.5227C467.971 19.7841 468.179 19.1307 468.593 18.5625C469.014 17.9943 469.585 17.5483 470.306 17.2244C471.034 16.9006 471.858 16.7386 472.778 16.7386C474.074 16.7386 475.091 17.0227 475.829 17.5909C476.574 18.1591 477.102 18.9091 477.414 19.8409ZM486.374 16.9091V18.6136H479.59V16.9091H486.374ZM481.567 13.7727H483.578V26.25C483.578 26.8182 483.661 27.2443 483.826 27.5284C483.996 27.8068 484.212 27.9943 484.473 28.0909C484.74 28.1818 485.022 28.2273 485.317 28.2273C485.539 28.2273 485.721 28.2159 485.863 28.1932C486.005 28.1648 486.118 28.142 486.203 28.125L486.613 29.9318C486.476 29.983 486.286 30.0341 486.042 30.0852C485.797 30.142 485.488 30.1705 485.113 30.1705C484.544 30.1705 483.988 30.0483 483.442 29.804C482.902 29.5597 482.453 29.1875 482.096 28.6875C481.743 28.1875 481.567 27.5568 481.567 26.7955V13.7727ZM489.4 30V16.9091H491.411V30H489.4ZM490.422 14.7273C490.03 14.7273 489.692 14.5938 489.408 14.3267C489.13 14.0597 488.99 13.7386 488.99 13.3636C488.99 12.9886 489.13 12.6676 489.408 12.4006C489.692 12.1335 490.03 12 490.422 12C490.814 12 491.15 12.1335 491.428 12.4006C491.712 12.6676 491.854 12.9886 491.854 13.3636C491.854 13.7386 491.712 14.0597 491.428 14.3267C491.15 14.5938 490.814 14.7273 490.422 14.7273ZM497.106 12.5455V30H495.095V12.5455H497.106ZM502.801 12.5455V30H500.79V12.5455H502.801ZM515.247 22.125V30H513.235V12.5455H515.247V18.9545H515.417C515.724 18.2784 516.184 17.7415 516.798 17.3438C517.417 16.9403 518.241 16.7386 519.27 16.7386C520.162 16.7386 520.943 16.9176 521.613 17.2756C522.284 17.6278 522.804 18.1705 523.173 18.9034C523.548 19.6307 523.735 20.5568 523.735 21.6818V30H521.724V21.8182C521.724 20.7784 521.454 19.9744 520.914 19.4062C520.38 18.8324 519.639 18.5455 518.69 18.5455C518.031 18.5455 517.44 18.6847 516.917 18.9631C516.4 19.2415 515.991 19.6477 515.69 20.1818C515.395 20.7159 515.247 21.3636 515.247 22.125ZM531.267 30.3068C530.438 30.3068 529.685 30.1506 529.009 29.8381C528.333 29.5199 527.796 29.0625 527.398 28.4659C527 27.8636 526.801 27.1364 526.801 26.2841C526.801 25.5341 526.949 24.9261 527.245 24.4602C527.54 23.9886 527.935 23.6193 528.429 23.3523C528.924 23.0852 529.469 22.8864 530.066 22.7557C530.668 22.6193 531.273 22.5114 531.881 22.4318C532.676 22.3295 533.321 22.2528 533.816 22.2017C534.316 22.1449 534.679 22.0511 534.907 21.9205C535.14 21.7898 535.256 21.5625 535.256 21.2386V21.1705C535.256 20.3295 535.026 19.6761 534.566 19.2102C534.111 18.7443 533.421 18.5114 532.495 18.5114C531.534 18.5114 530.782 18.7216 530.236 19.142C529.691 19.5625 529.307 20.0114 529.086 20.4886L527.176 19.8068C527.517 19.0114 527.972 18.392 528.54 17.9489C529.114 17.5 529.739 17.1875 530.415 17.0114C531.097 16.8295 531.767 16.7386 532.426 16.7386C532.847 16.7386 533.33 16.7898 533.875 16.892C534.426 16.9886 534.958 17.1903 535.469 17.4972C535.986 17.804 536.415 18.267 536.756 18.8864C537.097 19.5057 537.267 20.3352 537.267 21.375V30H535.256V28.2273H535.154C535.017 28.5114 534.79 28.8153 534.472 29.1392C534.154 29.4631 533.73 29.7386 533.202 29.9659C532.674 30.1932 532.029 30.3068 531.267 30.3068ZM531.574 28.5C532.37 28.5 533.04 28.3438 533.586 28.0312C534.137 27.7188 534.551 27.3153 534.83 26.821C535.114 26.3267 535.256 25.8068 535.256 25.2614V23.4205C535.171 23.5227 534.983 23.6165 534.694 23.7017C534.409 23.7812 534.08 23.8523 533.705 23.9148C533.336 23.9716 532.975 24.0227 532.623 24.0682C532.276 24.108 531.995 24.142 531.779 24.1705C531.256 24.2386 530.767 24.3494 530.313 24.5028C529.864 24.6506 529.5 24.875 529.222 25.1761C528.949 25.4716 528.813 25.875 528.813 26.3864C528.813 27.0852 529.071 27.6136 529.588 27.9716C530.111 28.3239 530.773 28.5 531.574 28.5ZM549.189 24.6477V16.9091H551.2V30H549.189V27.7841H549.052C548.745 28.4489 548.268 29.0142 547.62 29.4801C546.973 29.9403 546.154 30.1705 545.166 30.1705C544.348 30.1705 543.62 29.9915 542.984 29.6335C542.348 29.2699 541.848 28.7244 541.484 27.9972C541.12 27.2642 540.939 26.3409 540.939 25.2273V16.9091H542.95V25.0909C542.95 26.0455 543.217 26.8068 543.751 27.375C544.291 27.9432 544.978 28.2273 545.814 28.2273C546.314 28.2273 546.822 28.0994 547.339 27.8438C547.862 27.5881 548.299 27.196 548.652 26.6676C549.01 26.1392 549.189 25.4659 549.189 24.6477ZM556.895 12.5455V30H554.884V12.5455H556.895ZM560.579 30V16.9091H562.591V30H560.579ZM561.602 14.7273C561.21 14.7273 560.872 14.5938 560.588 14.3267C560.309 14.0597 560.17 13.7386 560.17 13.3636C560.17 12.9886 560.309 12.6676 560.588 12.4006C560.872 12.1335 561.21 12 561.602 12C561.994 12 562.329 12.1335 562.608 12.4006C562.892 12.6676 563.034 12.9886 563.034 13.3636C563.034 13.7386 562.892 14.0597 562.608 14.3267C562.329 14.5938 561.994 14.7273 561.602 14.7273ZM568.286 22.125V30H566.275V16.9091H568.218V18.9545H568.388C568.695 18.2898 569.161 17.7557 569.786 17.3523C570.411 16.9432 571.218 16.7386 572.206 16.7386C573.093 16.7386 573.868 16.9205 574.533 17.2841C575.198 17.642 575.715 18.1875 576.084 18.9205C576.453 19.6477 576.638 20.5682 576.638 21.6818V30H574.627V21.8182C574.627 20.7898 574.36 19.9886 573.826 19.4148C573.292 18.8352 572.559 18.5455 571.627 18.5455C570.985 18.5455 570.411 18.6847 569.905 18.9631C569.405 19.2415 569.01 19.6477 568.721 20.1818C568.431 20.7159 568.286 21.3636 568.286 22.125ZM585.598 35.1818C584.626 35.1818 583.791 35.0568 583.092 34.8068C582.393 34.5625 581.811 34.2386 581.345 33.8352C580.885 33.4375 580.518 33.0114 580.245 32.5568L581.848 31.4318C582.029 31.6705 582.26 31.9432 582.538 32.25C582.816 32.5625 583.197 32.8324 583.68 33.0597C584.169 33.2926 584.808 33.4091 585.598 33.4091C586.654 33.4091 587.527 33.1534 588.214 32.642C588.902 32.1307 589.245 31.3295 589.245 30.2386V27.5795H589.075C588.927 27.8182 588.717 28.1136 588.444 28.4659C588.177 28.8125 587.791 29.1222 587.285 29.3949C586.785 29.6619 586.109 29.7955 585.257 29.7955C584.2 29.7955 583.251 29.5455 582.41 29.0455C581.575 28.5455 580.913 27.8182 580.424 26.8636C579.941 25.9091 579.7 24.75 579.7 23.3864C579.7 22.0455 579.936 20.8778 580.407 19.8835C580.879 18.8835 581.535 18.1108 582.376 17.5653C583.217 17.0142 584.189 16.7386 585.291 16.7386C586.143 16.7386 586.819 16.8807 587.319 17.1648C587.825 17.4432 588.211 17.7614 588.478 18.1193C588.751 18.4716 588.961 18.7614 589.109 18.9886H589.314V16.9091H591.257V30.375C591.257 31.5 591.001 32.4148 590.49 33.1193C589.984 33.8295 589.302 34.3494 588.444 34.679C587.592 35.0142 586.643 35.1818 585.598 35.1818ZM585.529 27.9886C586.336 27.9886 587.018 27.804 587.575 27.4347C588.132 27.0653 588.555 26.5341 588.845 25.8409C589.135 25.1477 589.279 24.3182 589.279 23.3523C589.279 22.4091 589.137 21.5767 588.853 20.8551C588.569 20.1335 588.149 19.5682 587.592 19.1591C587.035 18.75 586.348 18.5455 585.529 18.5455C584.677 18.5455 583.967 18.7614 583.399 19.1932C582.836 19.625 582.413 20.2045 582.129 20.9318C581.85 21.6591 581.711 22.4659 581.711 23.3523C581.711 24.2614 581.853 25.0653 582.137 25.7642C582.427 26.4574 582.853 27.0028 583.416 27.4006C583.984 27.7926 584.689 27.9886 585.529 27.9886ZM601.689 30V16.9091H603.7V30H601.689ZM602.711 14.7273C602.319 14.7273 601.981 14.5938 601.697 14.3267C601.419 14.0597 601.279 13.7386 601.279 13.3636C601.279 12.9886 601.419 12.6676 601.697 12.4006C601.981 12.1335 602.319 12 602.711 12C603.103 12 603.439 12.1335 603.717 12.4006C604.001 12.6676 604.143 12.9886 604.143 13.3636C604.143 13.7386 604.001 14.0597 603.717 14.3267C603.439 14.5938 603.103 14.7273 602.711 14.7273ZM613.077 16.9091V18.6136H606.293V16.9091H613.077ZM608.27 13.7727H610.282V26.25C610.282 26.8182 610.364 27.2443 610.529 27.5284C610.699 27.8068 610.915 27.9943 611.176 28.0909C611.444 28.1818 611.725 28.2273 612.02 28.2273C612.242 28.2273 612.424 28.2159 612.566 28.1932C612.708 28.1648 612.821 28.142 612.907 28.125L613.316 29.9318C613.179 29.983 612.989 30.0341 612.745 30.0852C612.5 30.142 612.191 30.1705 611.816 30.1705C611.248 30.1705 610.691 30.0483 610.145 29.804C609.605 29.5597 609.157 29.1875 608.799 28.6875C608.446 28.1875 608.27 27.5568 608.27 26.7955V13.7727ZM617.569 30.1364C617.148 30.1364 616.787 29.9858 616.486 29.6847C616.185 29.3835 616.034 29.0227 616.034 28.6023C616.034 28.1818 616.185 27.821 616.486 27.5199C616.787 27.2187 617.148 27.0682 617.569 27.0682C617.989 27.0682 618.35 27.2187 618.651 27.5199C618.952 27.821 619.103 28.1818 619.103 28.6023C619.103 28.8807 619.032 29.1364 618.89 29.3693C618.753 29.6023 618.569 29.7898 618.336 29.9318C618.108 30.0682 617.853 30.1364 617.569 30.1364Z" fill="#3E2522"/>
</svg>
