<svg width="22" height="15" viewBox="0 0 22 15" fill="none" xmlns="http://www.w3.org/2000/svg">
<path d="M4.63139 1.36364V13H3.2223V2.84091H3.15412L0.31321 4.72727V3.29545L3.2223 1.36364H4.63139ZM12.1143 0.818181L8.36435 14.75H7.13707L10.8871 0.818181H12.1143ZM17.6129 13.1591C16.8629 13.1591 16.1944 13.0303 15.6072 12.7727C15.0239 12.5152 14.5599 12.1572 14.2152 11.6989C13.8743 11.2367 13.6887 10.7008 13.6584 10.0909H15.0902C15.1205 10.4659 15.2493 10.7898 15.4766 11.0625C15.7038 11.3314 16.0012 11.5398 16.3686 11.6875C16.736 11.8352 17.1432 11.9091 17.5902 11.9091C18.0902 11.9091 18.5334 11.822 18.9197 11.6477C19.3061 11.4735 19.6091 11.2311 19.8288 10.9205C20.0485 10.6098 20.1584 10.25 20.1584 9.84091C20.1584 9.41288 20.0523 9.03598 19.8402 8.71023C19.6281 8.38068 19.3175 8.12311 18.9084 7.9375C18.4993 7.75189 17.9993 7.65909 17.4084 7.65909H16.4766V6.40909H17.4084C17.8705 6.40909 18.2758 6.32576 18.6243 6.15909C18.9766 5.99242 19.2512 5.75758 19.4482 5.45455C19.6489 5.15152 19.7493 4.79545 19.7493 4.38636C19.7493 3.99242 19.6622 3.64962 19.4879 3.35795C19.3137 3.06629 19.0675 2.83901 18.7493 2.67614C18.4349 2.51326 18.0637 2.43182 17.6357 2.43182C17.2341 2.43182 16.8554 2.50568 16.4993 2.65341C16.147 2.79735 15.8591 3.00758 15.6357 3.28409C15.4122 3.55682 15.291 3.88636 15.272 4.27273H13.9084C13.9311 3.66288 14.1148 3.12879 14.4595 2.67045C14.8042 2.20833 15.255 1.84848 15.8118 1.59091C16.3724 1.33333 16.9879 1.20455 17.6584 1.20455C18.3781 1.20455 18.9955 1.35038 19.5107 1.64205C20.0258 1.92992 20.4216 2.31061 20.6982 2.78409C20.9747 3.25758 21.1129 3.76894 21.1129 4.31818C21.1129 4.97348 20.9406 5.5322 20.5959 5.99432C20.255 6.45644 19.791 6.77652 19.2038 6.95455V7.04545C19.9387 7.16667 20.5125 7.47917 20.9254 7.98295C21.3383 8.48295 21.5447 9.10227 21.5447 9.84091C21.5447 10.4735 21.3724 11.0417 21.0277 11.5455C20.6868 12.0455 20.2209 12.4394 19.63 12.7273C19.0391 13.0152 18.3667 13.1591 17.6129 13.1591Z" fill="#3E2522" fill-opacity="0.75"/>
</svg>
