<svg width="259" height="18" viewBox="0 0 259 18" fill="none" xmlns="http://www.w3.org/2000/svg">
<path d="M0.585227 14V0.909091H5.00852C6.03551 0.909091 6.875 1.09446 7.52699 1.4652C8.18324 1.83168 8.66903 2.32812 8.98438 2.95455C9.29972 3.58097 9.45739 4.27983 9.45739 5.05114C9.45739 5.82244 9.29972 6.52344 8.98438 7.15412C8.6733 7.7848 8.19176 8.28764 7.53977 8.66264C6.88778 9.03338 6.05256 9.21875 5.03409 9.21875H1.86364V7.8125H4.98295C5.68608 7.8125 6.25071 7.69105 6.67685 7.44815C7.10298 7.20526 7.41193 6.87713 7.60369 6.46378C7.79972 6.04616 7.89773 5.57528 7.89773 5.05114C7.89773 4.52699 7.79972 4.05824 7.60369 3.64489C7.41193 3.23153 7.10085 2.90767 6.67045 2.6733C6.24006 2.43466 5.66903 2.31534 4.95739 2.31534H2.17045V14H0.585227ZM13.315 0.909091V14H11.8065V0.909091H13.315ZM20.1944 14.2045C19.2484 14.2045 18.4324 13.9957 17.7463 13.5781C17.0645 13.1562 16.5382 12.5682 16.1674 11.8139C15.801 11.0554 15.6177 10.1733 15.6177 9.16761C15.6177 8.16193 15.801 7.27557 16.1674 6.50852C16.5382 5.73722 17.0538 5.13636 17.7143 4.70597C18.3791 4.27131 19.1547 4.05398 20.041 4.05398C20.5524 4.05398 21.0574 4.1392 21.5559 4.30966C22.0545 4.48011 22.5083 4.7571 22.9174 5.14062C23.3265 5.51989 23.6525 6.02273 23.8954 6.64915C24.1383 7.27557 24.2598 8.04687 24.2598 8.96307V9.60227H16.6916V8.2983H22.7257C22.7257 7.74432 22.6149 7.25 22.3933 6.81534C22.176 6.38068 21.8649 6.03764 21.4601 5.78622C21.0595 5.5348 20.5865 5.40909 20.041 5.40909C19.4402 5.40909 18.9203 5.55824 18.4814 5.85653C18.0467 6.15057 17.7122 6.53409 17.4778 7.0071C17.2434 7.48011 17.1262 7.98722 17.1262 8.52841V9.39773C17.1262 10.1392 17.2541 10.7678 17.5098 11.2834C17.7697 11.7947 18.1298 12.1847 18.59 12.4531C19.0502 12.7173 19.5851 12.8494 20.1944 12.8494C20.5907 12.8494 20.9487 12.794 21.2683 12.6832C21.5922 12.5682 21.8713 12.3977 22.1056 12.1719C22.34 11.9418 22.5211 11.6562 22.649 11.3153L24.1064 11.7244C23.9529 12.2188 23.6951 12.6534 23.3329 13.0284C22.9707 13.3991 22.5233 13.6889 21.9906 13.8977C21.4579 14.1023 20.8592 14.2045 20.1944 14.2045ZM29.4437 14.2301C28.8216 14.2301 28.2569 14.1129 27.7498 13.8786C27.2427 13.6399 26.84 13.2969 26.5417 12.8494C26.2434 12.3977 26.0943 11.8523 26.0943 11.2131C26.0943 10.6506 26.2051 10.1946 26.4267 9.84517C26.6483 9.49148 26.9444 9.21449 27.3152 9.0142C27.6859 8.81392 28.095 8.66477 28.5424 8.56676C28.9941 8.46449 29.448 8.38352 29.9039 8.32386C30.5005 8.24716 30.9842 8.18963 31.3549 8.15128C31.7299 8.10866 32.0027 8.03835 32.1731 7.94034C32.3478 7.84233 32.4352 7.67187 32.4352 7.42898V7.37784C32.4352 6.74716 32.2626 6.2571 31.9174 5.90767C31.5765 5.55824 31.0588 5.38352 30.3642 5.38352C29.644 5.38352 29.0794 5.54119 28.6703 5.85653C28.2612 6.17187 27.9735 6.50852 27.8074 6.86648L26.3755 6.35511C26.6312 5.75852 26.9721 5.29403 27.3983 4.96165C27.8287 4.625 28.2974 4.39062 28.8045 4.25852C29.3159 4.12216 29.8187 4.05398 30.313 4.05398C30.6284 4.05398 30.9906 4.09233 31.3997 4.16903C31.813 4.24148 32.2115 4.39276 32.595 4.62287C32.9828 4.85298 33.3045 5.20028 33.5602 5.66477C33.8159 6.12926 33.9437 6.75142 33.9437 7.53125V14H32.4352V12.6705H32.3585C32.2562 12.8835 32.0858 13.1115 31.8471 13.3544C31.6085 13.5973 31.291 13.804 30.8947 13.9744C30.4984 14.1449 30.0147 14.2301 29.4437 14.2301ZM29.6738 12.875C30.2704 12.875 30.7733 12.7578 31.1824 12.5234C31.5957 12.2891 31.9068 11.9865 32.1156 11.6158C32.3287 11.245 32.4352 10.8551 32.4352 10.446V9.06534C32.3713 9.14205 32.2306 9.21236 32.0133 9.27628C31.8002 9.33594 31.5531 9.3892 31.2718 9.43608C30.9949 9.47869 30.7243 9.51705 30.4601 9.55114C30.2001 9.58097 29.9892 9.60653 29.8272 9.62784C29.4352 9.67898 29.0687 9.76207 28.7278 9.87713C28.3912 9.98793 28.1184 10.1562 27.9096 10.3821C27.7051 10.6037 27.6028 10.9062 27.6028 11.2898C27.6028 11.8139 27.7967 12.2102 28.1845 12.4787C28.5765 12.7429 29.073 12.875 29.6738 12.875ZM43.6516 6.38068L42.2965 6.7642C42.2113 6.53835 42.0856 6.31889 41.9194 6.10582C41.7575 5.88849 41.5359 5.70952 41.2546 5.56889C40.9734 5.42827 40.6133 5.35795 40.1744 5.35795C39.5735 5.35795 39.0728 5.49645 38.6722 5.77344C38.2759 6.04616 38.0778 6.39347 38.0778 6.81534C38.0778 7.19034 38.2141 7.48651 38.4869 7.70384C38.7596 7.92116 39.1857 8.10227 39.7653 8.24716L41.2227 8.60511C42.1005 8.81818 42.7546 9.14418 43.185 9.5831C43.6154 10.0178 43.8306 10.5781 43.8306 11.2642C43.8306 11.8267 43.6687 12.3295 43.3448 12.7727C43.0252 13.2159 42.5778 13.5653 42.0025 13.821C41.4272 14.0767 40.7582 14.2045 39.9954 14.2045C38.994 14.2045 38.1651 13.9872 37.5089 13.5526C36.8526 13.1179 36.4371 12.483 36.2624 11.6477L37.6942 11.2898C37.8306 11.8182 38.0884 12.2145 38.4677 12.4787C38.8512 12.7429 39.3519 12.875 39.9698 12.875C40.6729 12.875 41.2312 12.7259 41.6445 12.4276C42.0621 12.125 42.271 11.7628 42.271 11.3409C42.271 11 42.1516 10.7145 41.913 10.4844C41.6744 10.25 41.3079 10.0753 40.8136 9.96023L39.1772 9.5767C38.2781 9.36364 37.6175 9.03338 37.1957 8.58594C36.7781 8.13423 36.5692 7.5696 36.5692 6.89205C36.5692 6.33807 36.7248 5.84801 37.0359 5.42188C37.3512 4.99574 37.7795 4.66122 38.3207 4.41832C38.8661 4.17543 39.484 4.05398 40.1744 4.05398C41.146 4.05398 41.9087 4.26705 42.4627 4.69318C43.021 5.11932 43.4173 5.68182 43.6516 6.38068ZM50.2179 14.2045C49.2718 14.2045 48.4558 13.9957 47.7697 13.5781C47.0879 13.1562 46.5616 12.5682 46.1909 11.8139C45.8244 11.0554 45.6412 10.1733 45.6412 9.16761C45.6412 8.16193 45.8244 7.27557 46.1909 6.50852C46.5616 5.73722 47.0772 5.13636 47.7377 4.70597C48.4025 4.27131 49.1781 4.05398 50.0645 4.05398C50.5758 4.05398 51.0808 4.1392 51.5794 4.30966C52.0779 4.48011 52.5318 4.7571 52.9409 5.14062C53.35 5.51989 53.676 6.02273 53.9189 6.64915C54.1618 7.27557 54.2832 8.04687 54.2832 8.96307V9.60227H46.715V8.2983H52.7491C52.7491 7.74432 52.6383 7.25 52.4167 6.81534C52.1994 6.38068 51.8883 6.03764 51.4835 5.78622C51.0829 5.5348 50.6099 5.40909 50.0645 5.40909C49.4636 5.40909 48.9437 5.55824 48.5048 5.85653C48.0701 6.15057 47.7356 6.53409 47.5012 7.0071C47.2669 7.48011 47.1497 7.98722 47.1497 8.52841V9.39773C47.1497 10.1392 47.2775 10.7678 47.5332 11.2834C47.7931 11.7947 48.1532 12.1847 48.6135 12.4531C49.0737 12.7173 49.6085 12.8494 50.2179 12.8494C50.6142 12.8494 50.9721 12.794 51.2917 12.6832C51.6156 12.5682 51.8947 12.3977 52.1291 12.1719C52.3635 11.9418 52.5446 11.6562 52.6724 11.3153L54.1298 11.7244C53.9764 12.2188 53.7186 12.6534 53.3564 13.0284C52.9941 13.3991 52.5467 13.6889 52.014 13.8977C51.4814 14.1023 50.8826 14.2045 50.2179 14.2045ZM68.595 6.38068L67.2399 6.7642C67.1547 6.53835 67.0289 6.31889 66.8627 6.10582C66.7008 5.88849 66.4792 5.70952 66.198 5.56889C65.9167 5.42827 65.5566 5.35795 65.1177 5.35795C64.5169 5.35795 64.0162 5.49645 63.6156 5.77344C63.2193 6.04616 63.0211 6.39347 63.0211 6.81534C63.0211 7.19034 63.1575 7.48651 63.4302 7.70384C63.7029 7.92116 64.1291 8.10227 64.7086 8.24716L66.166 8.60511C67.0439 8.81818 67.698 9.14418 68.1284 9.5831C68.5588 10.0178 68.774 10.5781 68.774 11.2642C68.774 11.8267 68.612 12.3295 68.2882 12.7727C67.9686 13.2159 67.5211 13.5653 66.9458 13.821C66.3706 14.0767 65.7015 14.2045 64.9387 14.2045C63.9373 14.2045 63.1085 13.9872 62.4522 13.5526C61.796 13.1179 61.3805 12.483 61.2058 11.6477L62.6376 11.2898C62.774 11.8182 63.0318 12.2145 63.411 12.4787C63.7946 12.7429 64.2953 12.875 64.9132 12.875C65.6163 12.875 66.1745 12.7259 66.5879 12.4276C67.0055 12.125 67.2143 11.7628 67.2143 11.3409C67.2143 11 67.095 10.7145 66.8564 10.4844C66.6177 10.25 66.2512 10.0753 65.7569 9.96023L64.1206 9.5767C63.2214 9.36364 62.5609 9.03338 62.139 8.58594C61.7214 8.13423 61.5126 7.5696 61.5126 6.89205C61.5126 6.33807 61.6681 5.84801 61.9792 5.42188C62.2946 4.99574 62.7228 4.66122 63.264 4.41832C63.8095 4.17543 64.4274 4.05398 65.1177 4.05398C66.0893 4.05398 66.8521 4.26705 67.4061 4.69318C67.9643 5.11932 68.3606 5.68182 68.595 6.38068ZM75.1612 14.2045C74.2152 14.2045 73.3991 13.9957 72.7131 13.5781C72.0312 13.1562 71.505 12.5682 71.1342 11.8139C70.7678 11.0554 70.5845 10.1733 70.5845 9.16761C70.5845 8.16193 70.7678 7.27557 71.1342 6.50852C71.505 5.73722 72.0206 5.13636 72.6811 4.70597C73.3459 4.27131 74.1214 4.05398 75.0078 4.05398C75.5192 4.05398 76.0241 4.1392 76.5227 4.30966C77.0213 4.48011 77.4751 4.7571 77.8842 5.14062C78.2933 5.51989 78.6193 6.02273 78.8622 6.64915C79.1051 7.27557 79.2266 8.04687 79.2266 8.96307V9.60227H71.6584V8.2983H77.6925C77.6925 7.74432 77.5817 7.25 77.3601 6.81534C77.1428 6.38068 76.8317 6.03764 76.4268 5.78622C76.0263 5.5348 75.5533 5.40909 75.0078 5.40909C74.407 5.40909 73.8871 5.55824 73.4482 5.85653C73.0135 6.15057 72.679 6.53409 72.4446 7.0071C72.2102 7.48011 72.093 7.98722 72.093 8.52841V9.39773C72.093 10.1392 72.2209 10.7678 72.4766 11.2834C72.7365 11.7947 73.0966 12.1847 73.5568 12.4531C74.017 12.7173 74.5518 12.8494 75.1612 12.8494C75.5575 12.8494 75.9155 12.794 76.2351 12.6832C76.5589 12.5682 76.8381 12.3977 77.0724 12.1719C77.3068 11.9418 77.4879 11.6562 77.6158 11.3153L79.0732 11.7244C78.9197 12.2188 78.6619 12.6534 78.2997 13.0284C77.9375 13.3991 77.4901 13.6889 76.9574 13.8977C76.4247 14.1023 75.826 14.2045 75.1612 14.2045ZM83.0298 0.909091V14H81.5213V0.909091H83.0298ZM89.9093 14.2045C88.9632 14.2045 88.1472 13.9957 87.4611 13.5781C86.7793 13.1562 86.253 12.5682 85.8823 11.8139C85.5158 11.0554 85.3326 10.1733 85.3326 9.16761C85.3326 8.16193 85.5158 7.27557 85.8823 6.50852C86.253 5.73722 86.7686 5.13636 87.4292 4.70597C88.0939 4.27131 88.8695 4.05398 89.7559 4.05398C90.2672 4.05398 90.7722 4.1392 91.2708 4.30966C91.7694 4.48011 92.2232 4.7571 92.6323 5.14062C93.0414 5.51989 93.3674 6.02273 93.6103 6.64915C93.8532 7.27557 93.9746 8.04687 93.9746 8.96307V9.60227H86.4064V8.2983H92.4405C92.4405 7.74432 92.3297 7.25 92.1081 6.81534C91.8908 6.38068 91.5797 6.03764 91.1749 5.78622C90.7743 5.5348 90.3013 5.40909 89.7559 5.40909C89.155 5.40909 88.6351 5.55824 88.1962 5.85653C87.7615 6.15057 87.427 6.53409 87.1926 7.0071C86.9583 7.48011 86.8411 7.98722 86.8411 8.52841V9.39773C86.8411 10.1392 86.9689 10.7678 87.2246 11.2834C87.4846 11.7947 87.8446 12.1847 88.3049 12.4531C88.7651 12.7173 89.2999 12.8494 89.9093 12.8494C90.3056 12.8494 90.6635 12.794 90.9831 12.6832C91.307 12.5682 91.5861 12.3977 91.8205 12.1719C92.0549 11.9418 92.236 11.6562 92.3638 11.3153L93.8212 11.7244C93.6678 12.2188 93.41 12.6534 93.0478 13.0284C92.6855 13.3991 92.2381 13.6889 91.7054 13.8977C91.1728 14.1023 90.574 14.2045 89.9093 14.2045ZM100.258 14.2045C99.3375 14.2045 98.5449 13.9872 97.8801 13.5526C97.2154 13.1179 96.704 12.5192 96.3461 11.7564C95.9881 10.9936 95.8091 10.1222 95.8091 9.14205C95.8091 8.14489 95.9924 7.26491 96.3588 6.50213C96.7296 5.73509 97.2452 5.13636 97.9057 4.70597C98.5705 4.27131 99.3461 4.05398 100.232 4.05398C100.923 4.05398 101.545 4.18182 102.099 4.4375C102.653 4.69318 103.107 5.05114 103.46 5.51136C103.814 5.97159 104.034 6.50852 104.119 7.12216H102.61C102.495 6.67472 102.24 6.27841 101.843 5.93324C101.451 5.58381 100.923 5.40909 100.258 5.40909C99.6699 5.40909 99.1543 5.5625 98.7111 5.86932C98.2722 6.17187 97.9292 6.60014 97.682 7.15412C97.4391 7.70383 97.3176 8.34943 97.3176 9.09091C97.3176 9.84943 97.437 10.5099 97.6756 11.0724C97.9185 11.6349 98.2594 12.0717 98.6983 12.3828C99.1415 12.6939 99.6614 12.8494 100.258 12.8494C100.65 12.8494 101.006 12.7812 101.325 12.6449C101.645 12.5085 101.916 12.3125 102.137 12.0568C102.359 11.8011 102.517 11.4943 102.61 11.1364H104.119C104.034 11.7159 103.823 12.2379 103.486 12.7024C103.154 13.1626 102.713 13.5291 102.163 13.8018C101.617 14.0703 100.982 14.2045 100.258 14.2045ZM110.594 4.18182V5.46023H105.506V4.18182H110.594ZM106.989 1.82955H108.497V11.1875C108.497 11.6136 108.559 11.9332 108.683 12.1463C108.811 12.3551 108.972 12.4957 109.169 12.5682C109.369 12.6364 109.58 12.6705 109.801 12.6705C109.968 12.6705 110.104 12.6619 110.21 12.6449C110.317 12.6236 110.402 12.6065 110.466 12.5938L110.773 13.9489C110.671 13.9872 110.528 14.0256 110.345 14.0639C110.161 14.1065 109.929 14.1278 109.648 14.1278C109.222 14.1278 108.804 14.0362 108.395 13.853C107.99 13.6697 107.654 13.3906 107.385 13.0156C107.121 12.6406 106.989 12.1676 106.989 11.5966V1.82955ZM121.914 14.2045C121.028 14.2045 120.25 13.9936 119.581 13.5717C118.916 13.1499 118.396 12.5597 118.021 11.8011C117.651 11.0426 117.465 10.1562 117.465 9.14205C117.465 8.11932 117.651 7.22656 118.021 6.46378C118.396 5.70099 118.916 5.10866 119.581 4.68679C120.25 4.26491 121.028 4.05398 121.914 4.05398C122.801 4.05398 123.576 4.26491 124.241 4.68679C124.91 5.10866 125.43 5.70099 125.801 6.46378C126.176 7.22656 126.363 8.11932 126.363 9.14205C126.363 10.1562 126.176 11.0426 125.801 11.8011C125.43 12.5597 124.91 13.1499 124.241 13.5717C123.576 13.9936 122.801 14.2045 121.914 14.2045ZM121.914 12.8494C122.588 12.8494 123.142 12.6768 123.576 12.3317C124.011 11.9865 124.333 11.5327 124.541 10.9702C124.75 10.4077 124.855 9.7983 124.855 9.14205C124.855 8.4858 124.75 7.87429 124.541 7.30753C124.333 6.74077 124.011 6.28267 123.576 5.93324C123.142 5.58381 122.588 5.40909 121.914 5.40909C121.241 5.40909 120.687 5.58381 120.252 5.93324C119.818 6.28267 119.496 6.74077 119.287 7.30753C119.078 7.87429 118.974 8.4858 118.974 9.14205C118.974 9.7983 119.078 10.4077 119.287 10.9702C119.496 11.5327 119.818 11.9865 120.252 12.3317C120.687 12.6768 121.241 12.8494 121.914 12.8494ZM130.174 8.09375V14H128.666V4.18182H130.123V5.71591H130.251C130.481 5.21733 130.831 4.81676 131.299 4.5142C131.768 4.20739 132.373 4.05398 133.115 4.05398C133.779 4.05398 134.361 4.19034 134.86 4.46307C135.358 4.73153 135.746 5.14062 136.023 5.69034C136.3 6.2358 136.439 6.92614 136.439 7.76136V14H134.93V7.86364C134.93 7.09233 134.73 6.49148 134.329 6.06108C133.929 5.62642 133.379 5.40909 132.68 5.40909C132.199 5.40909 131.768 5.51349 131.389 5.7223C131.014 5.93111 130.718 6.2358 130.5 6.63636C130.283 7.03693 130.174 7.52273 130.174 8.09375ZM143.312 14.2045C142.366 14.2045 141.55 13.9957 140.863 13.5781C140.182 13.1562 139.655 12.5682 139.285 11.8139C138.918 11.0554 138.735 10.1733 138.735 9.16761C138.735 8.16193 138.918 7.27557 139.285 6.50852C139.655 5.73722 140.171 5.13636 140.831 4.70597C141.496 4.27131 142.272 4.05398 143.158 4.05398C143.67 4.05398 144.175 4.1392 144.673 4.30966C145.172 4.48011 145.626 4.7571 146.035 5.14062C146.444 5.51989 146.77 6.02273 147.013 6.64915C147.256 7.27557 147.377 8.04687 147.377 8.96307V9.60227H139.809V8.2983H145.843C145.843 7.74432 145.732 7.25 145.51 6.81534C145.293 6.38068 144.982 6.03764 144.577 5.78622C144.177 5.5348 143.704 5.40909 143.158 5.40909C142.557 5.40909 142.037 5.55824 141.599 5.85653C141.164 6.15057 140.829 6.53409 140.595 7.0071C140.361 7.48011 140.243 7.98722 140.243 8.52841V9.39773C140.243 10.1392 140.371 10.7678 140.627 11.2834C140.887 11.7947 141.247 12.1847 141.707 12.4531C142.167 12.7173 142.702 12.8494 143.312 12.8494C143.708 12.8494 144.066 12.794 144.385 12.6832C144.709 12.5682 144.988 12.3977 145.223 12.1719C145.457 11.9418 145.638 11.6562 145.766 11.3153L147.224 11.7244C147.07 12.2188 146.812 12.6534 146.45 13.0284C146.088 13.3991 145.64 13.6889 145.108 13.8977C144.575 14.1023 143.976 14.2045 143.312 14.2045ZM157.623 14.2301C157.001 14.2301 156.437 14.1129 155.93 13.8786C155.422 13.6399 155.02 13.2969 154.721 12.8494C154.423 12.3977 154.274 11.8523 154.274 11.2131C154.274 10.6506 154.385 10.1946 154.606 9.84517C154.828 9.49148 155.124 9.21449 155.495 9.0142C155.866 8.81392 156.275 8.66477 156.722 8.56676C157.174 8.46449 157.628 8.38352 158.084 8.32386C158.68 8.24716 159.164 8.18963 159.535 8.15128C159.91 8.10866 160.182 8.03835 160.353 7.94034C160.528 7.84233 160.615 7.67187 160.615 7.42898V7.37784C160.615 6.74716 160.442 6.2571 160.097 5.90767C159.756 5.55824 159.238 5.38352 158.544 5.38352C157.824 5.38352 157.259 5.54119 156.85 5.85653C156.441 6.17187 156.153 6.50852 155.987 6.86648L154.555 6.35511C154.811 5.75852 155.152 5.29403 155.578 4.96165C156.008 4.625 156.477 4.39062 156.984 4.25852C157.496 4.12216 157.998 4.05398 158.493 4.05398C158.808 4.05398 159.17 4.09233 159.579 4.16903C159.993 4.24148 160.391 4.39276 160.775 4.62287C161.162 4.85298 161.484 5.20028 161.74 5.66477C161.996 6.12926 162.123 6.75142 162.123 7.53125V14H160.615V12.6705H160.538C160.436 12.8835 160.265 13.1115 160.027 13.3544C159.788 13.5973 159.471 13.804 159.074 13.9744C158.678 14.1449 158.194 14.2301 157.623 14.2301ZM157.854 12.875C158.45 12.875 158.953 12.7578 159.362 12.5234C159.775 12.2891 160.086 11.9865 160.295 11.6158C160.508 11.245 160.615 10.8551 160.615 10.446V9.06534C160.551 9.14205 160.41 9.21236 160.193 9.27628C159.98 9.33594 159.733 9.3892 159.452 9.43608C159.175 9.47869 158.904 9.51705 158.64 9.55114C158.38 9.58097 158.169 9.60653 158.007 9.62784C157.615 9.67898 157.248 9.76207 156.907 9.87713C156.571 9.98793 156.298 10.1562 156.089 10.3821C155.885 10.6037 155.782 10.9062 155.782 11.2898C155.782 11.8139 155.976 12.2102 156.364 12.4787C156.756 12.7429 157.253 12.875 157.854 12.875ZM166.385 8.09375V14H164.877V4.18182H166.334V5.71591H166.462C166.692 5.21733 167.042 4.81676 167.51 4.5142C167.979 4.20739 168.584 4.05398 169.326 4.05398C169.99 4.05398 170.572 4.19034 171.071 4.46307C171.569 4.73153 171.957 5.14062 172.234 5.69034C172.511 6.2358 172.65 6.92614 172.65 7.76136V14H171.141V7.86364C171.141 7.09233 170.941 6.49148 170.54 6.06108C170.14 5.62642 169.59 5.40909 168.891 5.40909C168.409 5.40909 167.979 5.51349 167.6 5.7223C167.225 5.93111 166.929 6.2358 166.711 6.63636C166.494 7.03693 166.385 7.52273 166.385 8.09375ZM182.361 6.38068L181.006 6.7642C180.92 6.53835 180.795 6.31889 180.628 6.10582C180.466 5.88849 180.245 5.70952 179.964 5.56889C179.682 5.42827 179.322 5.35795 178.883 5.35795C178.282 5.35795 177.782 5.49645 177.381 5.77344C176.985 6.04616 176.787 6.39347 176.787 6.81534C176.787 7.19034 176.923 7.48651 177.196 7.70384C177.469 7.92116 177.895 8.10227 178.474 8.24716L179.932 8.60511C180.809 8.81818 181.464 9.14418 181.894 9.5831C182.324 10.0178 182.54 10.5781 182.54 11.2642C182.54 11.8267 182.378 12.3295 182.054 12.7727C181.734 13.2159 181.287 13.5653 180.711 13.821C180.136 14.0767 179.467 14.2045 178.704 14.2045C177.703 14.2045 176.874 13.9872 176.218 13.5526C175.562 13.1179 175.146 12.483 174.971 11.6477L176.403 11.2898C176.54 11.8182 176.797 12.2145 177.177 12.4787C177.56 12.7429 178.061 12.875 178.679 12.875C179.382 12.875 179.94 12.7259 180.354 12.4276C180.771 12.125 180.98 11.7628 180.98 11.3409C180.98 11 180.861 10.7145 180.622 10.4844C180.383 10.25 180.017 10.0753 179.523 9.96023L177.886 9.5767C176.987 9.36364 176.327 9.03338 175.905 8.58594C175.487 8.13423 175.278 7.5696 175.278 6.89205C175.278 6.33807 175.434 5.84801 175.745 5.42188C176.06 4.99574 176.488 4.66122 177.03 4.41832C177.575 4.17543 178.193 4.05398 178.883 4.05398C179.855 4.05398 180.618 4.26705 181.172 4.69318C181.73 5.11932 182.126 5.68182 182.361 6.38068ZM187.035 14L184.043 4.18182H185.629L187.751 11.6989H187.853L189.95 4.18182H191.56L193.631 11.6733H193.734L195.856 4.18182H197.441L194.45 14H192.967L190.819 6.45739H190.665L188.518 14H187.035ZM203.218 14.2045C202.272 14.2045 201.456 13.9957 200.77 13.5781C200.088 13.1562 199.562 12.5682 199.191 11.8139C198.824 11.0554 198.641 10.1733 198.641 9.16761C198.641 8.16193 198.824 7.27557 199.191 6.50852C199.562 5.73722 200.077 5.13636 200.738 4.70597C201.403 4.27131 202.178 4.05398 203.064 4.05398C203.576 4.05398 204.081 4.1392 204.579 4.30966C205.078 4.48011 205.532 4.7571 205.941 5.14062C206.35 5.51989 206.676 6.02273 206.919 6.64915C207.162 7.27557 207.283 8.04687 207.283 8.96307V9.60227H199.715V8.2983H205.749C205.749 7.74432 205.638 7.25 205.417 6.81534C205.199 6.38068 204.888 6.03764 204.483 5.78622C204.083 5.5348 203.61 5.40909 203.064 5.40909C202.464 5.40909 201.944 5.55824 201.505 5.85653C201.07 6.15057 200.736 6.53409 200.501 7.0071C200.267 7.48011 200.15 7.98722 200.15 8.52841V9.39773C200.15 10.1392 200.278 10.7678 200.533 11.2834C200.793 11.7947 201.153 12.1847 201.613 12.4531C202.074 12.7173 202.608 12.8494 203.218 12.8494C203.614 12.8494 203.972 12.794 204.292 12.6832C204.616 12.5682 204.895 12.3977 205.129 12.1719C205.363 11.9418 205.545 11.6562 205.672 11.3153L207.13 11.7244C206.976 12.2188 206.719 12.6534 206.356 13.0284C205.994 13.3991 205.547 13.6889 205.014 13.8977C204.481 14.1023 203.883 14.2045 203.218 14.2045ZM209.578 14V4.18182H211.035V5.66477H211.138C211.317 5.17898 211.64 4.7848 212.109 4.48224C212.578 4.17969 213.106 4.02841 213.694 4.02841C213.805 4.02841 213.944 4.03054 214.11 4.0348C214.276 4.03906 214.402 4.04545 214.487 4.05398V5.58807C214.436 5.57528 214.319 5.55611 214.135 5.53054C213.956 5.50071 213.767 5.4858 213.567 5.4858C213.089 5.4858 212.663 5.58594 212.288 5.78622C211.917 5.98224 211.623 6.25497 211.406 6.6044C211.193 6.94957 211.086 7.34375 211.086 7.78693V14H209.578ZM225.326 14.2045C224.44 14.2045 223.662 13.9936 222.993 13.5717C222.328 13.1499 221.809 12.5597 221.434 11.8011C221.063 11.0426 220.877 10.1562 220.877 9.14205C220.877 8.11932 221.063 7.22656 221.434 6.46378C221.809 5.70099 222.328 5.10866 222.993 4.68679C223.662 4.26491 224.44 4.05398 225.326 4.05398C226.213 4.05398 226.988 4.26491 227.653 4.68679C228.322 5.10866 228.842 5.70099 229.213 6.46378C229.588 7.22656 229.775 8.11932 229.775 9.14205C229.775 10.1562 229.588 11.0426 229.213 11.8011C228.842 12.5597 228.322 13.1499 227.653 13.5717C226.988 13.9936 226.213 14.2045 225.326 14.2045ZM225.326 12.8494C226 12.8494 226.554 12.6768 226.988 12.3317C227.423 11.9865 227.745 11.5327 227.953 10.9702C228.162 10.4077 228.267 9.7983 228.267 9.14205C228.267 8.4858 228.162 7.87429 227.953 7.30753C227.745 6.74077 227.423 6.28267 226.988 5.93324C226.554 5.58381 226 5.40909 225.326 5.40909C224.653 5.40909 224.099 5.58381 223.664 5.93324C223.23 6.28267 222.908 6.74077 222.699 7.30753C222.49 7.87429 222.386 8.4858 222.386 9.14205C222.386 9.7983 222.49 10.4077 222.699 10.9702C222.908 11.5327 223.23 11.9865 223.664 12.3317C224.099 12.6768 224.653 12.8494 225.326 12.8494ZM233.586 8.09375V14H232.078V4.18182H233.535V5.71591H233.663C233.893 5.21733 234.243 4.81676 234.711 4.5142C235.18 4.20739 235.785 4.05398 236.527 4.05398C237.192 4.05398 237.773 4.19034 238.272 4.46307C238.77 4.73153 239.158 5.14062 239.435 5.69034C239.712 6.2358 239.851 6.92614 239.851 7.76136V14H238.342V7.86364C238.342 7.09233 238.142 6.49148 237.741 6.06108C237.341 5.62642 236.791 5.40909 236.092 5.40909C235.611 5.40909 235.18 5.51349 234.801 5.7223C234.426 5.93111 234.13 6.2358 233.912 6.63636C233.695 7.03693 233.586 7.52273 233.586 8.09375ZM244.116 0.909091V14H242.607V0.909091H244.116ZM247.85 17.6818C247.595 17.6818 247.367 17.6605 247.166 17.6179C246.966 17.5795 246.828 17.5412 246.751 17.5028L247.134 16.1733C247.501 16.267 247.825 16.3011 248.106 16.2756C248.387 16.25 248.637 16.1243 248.854 15.8984C249.075 15.6768 249.278 15.3168 249.461 14.8182L249.742 14.0511L246.112 4.18182H247.748L250.458 12.0057H250.561L253.271 4.18182H254.907L250.74 15.4318C250.552 15.9389 250.32 16.3587 250.043 16.6911C249.766 17.0277 249.444 17.277 249.078 17.4389C248.715 17.6009 248.306 17.6818 247.85 17.6818ZM257.382 14.1023C257.067 14.1023 256.797 13.9893 256.571 13.7635C256.345 13.5376 256.232 13.267 256.232 12.9517C256.232 12.6364 256.345 12.3658 256.571 12.1399C256.797 11.9141 257.067 11.8011 257.382 11.8011C257.698 11.8011 257.968 11.9141 258.194 12.1399C258.42 12.3658 258.533 12.6364 258.533 12.9517C258.533 13.1605 258.48 13.3523 258.373 13.527C258.271 13.7017 258.132 13.8423 257.958 13.9489C257.787 14.0511 257.596 14.1023 257.382 14.1023Z" fill="#3D1F1A" fill-opacity="0.75"/>
</svg>
