<svg width="657" height="144" viewBox="0 0 657 144" fill="none" xmlns="http://www.w3.org/2000/svg">
<path d="M7.97727 2.09091V37H0.596591V2.09091H7.97727ZM27.9929 10.8182V16.2727H11.8338V10.8182H27.9929ZM15.5327 37V8.92614C15.5327 7.02841 15.902 5.45454 16.6406 4.20454C17.3906 2.95454 18.4134 2.01704 19.7088 1.39204C21.0043 0.767043 22.4759 0.454543 24.1236 0.454543C25.2372 0.454543 26.2543 0.539771 27.1747 0.710227C28.1065 0.880681 28.7997 1.03409 29.2543 1.17045L27.9588 6.625C27.6747 6.53409 27.3224 6.44886 26.902 6.36932C26.4929 6.28977 26.0724 6.25 25.6406 6.25C24.5724 6.25 23.8281 6.5 23.4077 7C22.9872 7.48864 22.777 8.17614 22.777 9.0625V37H15.5327ZM43.6747 37V2.09091H50.9361V15.2159H51.1577C51.4759 14.5114 51.9361 13.7955 52.5384 13.0682C53.152 12.3295 53.9474 11.7159 54.9247 11.2273C55.9134 10.7273 57.1406 10.4773 58.6065 10.4773C60.5156 10.4773 62.277 10.9773 63.8906 11.9773C65.5043 12.9659 66.794 14.4602 67.7599 16.4602C68.7259 18.4489 69.2088 20.9432 69.2088 23.9432C69.2088 26.8636 68.7372 29.3295 67.794 31.3409C66.8622 33.3409 65.5895 34.858 63.9759 35.892C62.3736 36.9148 60.5781 37.4261 58.5895 37.4261C57.1804 37.4261 55.9815 37.1932 54.9929 36.7273C54.0156 36.2614 53.2145 35.6761 52.5895 34.9716C51.9645 34.2557 51.4872 33.5341 51.1577 32.8068H50.8338V37H43.6747ZM50.7827 23.9091C50.7827 25.4659 50.9986 26.8239 51.4304 27.983C51.8622 29.142 52.4872 30.0455 53.3054 30.6932C54.1236 31.3295 55.1179 31.6477 56.2884 31.6477C57.4702 31.6477 58.4702 31.3239 59.2884 30.6761C60.1065 30.017 60.7259 29.108 61.1463 27.9489C61.5781 26.7784 61.794 25.4318 61.794 23.9091C61.794 22.3977 61.5838 21.0682 61.1634 19.9205C60.7429 18.7727 60.1236 17.875 59.3054 17.2273C58.4872 16.5795 57.4815 16.2557 56.2884 16.2557C55.1065 16.2557 54.1065 16.5682 53.2884 17.1932C52.4815 17.8182 51.8622 18.7045 51.4304 19.8523C50.9986 21 50.7827 22.3523 50.7827 23.9091ZM85.9858 37.5114C83.2926 37.5114 80.9744 36.9659 79.0312 35.875C77.0994 34.7727 75.6108 33.2159 74.5653 31.2045C73.5199 29.1818 72.9972 26.7898 72.9972 24.0284C72.9972 21.3352 73.5199 18.9716 74.5653 16.9375C75.6108 14.9034 77.0824 13.3182 78.9801 12.1818C80.8892 11.0455 83.1278 10.4773 85.696 10.4773C87.4233 10.4773 89.0313 10.7557 90.5199 11.3125C92.0199 11.858 93.3267 12.6818 94.4403 13.7841C95.5653 14.8864 96.4403 16.2727 97.0653 17.9432C97.6903 19.6023 98.0028 21.5455 98.0028 23.7727V25.767H75.8949V21.267H91.1676C91.1676 20.2216 90.9403 19.2955 90.4858 18.4886C90.0313 17.6818 89.4006 17.0511 88.5938 16.5966C87.7983 16.1307 86.8722 15.8977 85.8153 15.8977C84.7131 15.8977 83.7358 16.1534 82.8835 16.6648C82.0426 17.1648 81.3835 17.8409 80.9062 18.6932C80.429 19.5341 80.1847 20.4716 80.1733 21.5057V25.7841C80.1733 27.0795 80.4119 28.1989 80.8892 29.142C81.3778 30.0852 82.0653 30.8125 82.9517 31.3239C83.8381 31.8352 84.8892 32.0909 86.1051 32.0909C86.9119 32.0909 87.6506 31.9773 88.321 31.75C88.9915 31.5227 89.5653 31.1818 90.0426 30.7273C90.5199 30.2727 90.8835 29.7159 91.1335 29.0568L97.8494 29.5C97.5085 31.1136 96.8097 32.5227 95.7528 33.7273C94.7074 34.9205 93.3551 35.8523 91.696 36.5227C90.0483 37.1818 88.1449 37.5114 85.9858 37.5114ZM102.741 37V10.8182H110.003V37H102.741ZM106.389 7.44318C105.31 7.44318 104.384 7.08523 103.611 6.36932C102.849 5.64204 102.469 4.77273 102.469 3.76136C102.469 2.76136 102.849 1.90341 103.611 1.1875C104.384 0.460226 105.31 0.0965891 106.389 0.0965891C107.469 0.0965891 108.389 0.460226 109.151 1.1875C109.923 1.90341 110.31 2.76136 110.31 3.76136C110.31 4.77273 109.923 5.64204 109.151 6.36932C108.389 7.08523 107.469 7.44318 106.389 7.44318ZM123.081 21.8636V37H115.82V10.8182H122.74V15.4375H123.047C123.626 13.9148 124.598 12.7102 125.962 11.8239C127.325 10.9261 128.979 10.4773 130.922 10.4773C132.74 10.4773 134.325 10.875 135.678 11.6705C137.03 12.4659 138.081 13.6023 138.831 15.0795C139.581 16.5455 139.956 18.2955 139.956 20.3295V37H132.695V21.625C132.706 20.0227 132.297 18.7727 131.467 17.875C130.638 16.9659 129.496 16.5114 128.041 16.5114C127.064 16.5114 126.2 16.7216 125.45 17.142C124.712 17.5625 124.132 18.1761 123.712 18.983C123.303 19.7784 123.092 20.7386 123.081 21.8636ZM157.474 47.3636C155.122 47.3636 153.105 47.0398 151.423 46.392C149.753 45.7557 148.423 44.8864 147.435 43.7841C146.446 42.6818 145.804 41.4432 145.509 40.0682L152.224 39.1648C152.429 39.6875 152.753 40.1761 153.196 40.6307C153.639 41.0852 154.224 41.4489 154.952 41.7216C155.69 42.0057 156.588 42.1477 157.645 42.1477C159.224 42.1477 160.526 41.7614 161.548 40.9886C162.582 40.2273 163.099 38.9489 163.099 37.1534V32.3636H162.793C162.474 33.0909 161.997 33.7784 161.361 34.4261C160.724 35.0739 159.906 35.6023 158.906 36.0114C157.906 36.4205 156.713 36.625 155.327 36.625C153.361 36.625 151.571 36.1705 149.957 35.2614C148.355 34.3409 147.077 32.9375 146.122 31.0511C145.179 29.1534 144.707 26.7557 144.707 23.858C144.707 20.892 145.19 18.4148 146.156 16.4261C147.122 14.4375 148.406 12.9489 150.009 11.9602C151.622 10.9716 153.389 10.4773 155.31 10.4773C156.776 10.4773 158.003 10.7273 158.991 11.2273C159.98 11.7159 160.776 12.3295 161.378 13.0682C161.991 13.7955 162.463 14.5114 162.793 15.2159H163.065V10.8182H170.276V37.2557C170.276 39.483 169.73 41.3466 168.639 42.8466C167.548 44.3466 166.037 45.4716 164.105 46.2216C162.185 46.983 159.974 47.3636 157.474 47.3636ZM157.628 31.1705C158.798 31.1705 159.787 30.8807 160.594 30.3011C161.412 29.7102 162.037 28.8693 162.469 27.7784C162.912 26.6761 163.134 25.358 163.134 23.8239C163.134 22.2898 162.918 20.9602 162.486 19.8352C162.054 18.6989 161.429 17.8182 160.611 17.1932C159.793 16.5682 158.798 16.2557 157.628 16.2557C156.435 16.2557 155.429 16.5795 154.611 17.2273C153.793 17.8636 153.173 18.75 152.753 19.8864C152.332 21.0227 152.122 22.3352 152.122 23.8239C152.122 25.3352 152.332 26.642 152.753 27.7443C153.185 28.8352 153.804 29.6818 154.611 30.2841C155.429 30.875 156.435 31.1705 157.628 31.1705ZM191.646 46.8182C190.726 46.8182 189.862 46.7443 189.055 46.5966C188.26 46.4602 187.601 46.2841 187.078 46.0682L188.714 40.6477C189.567 40.9091 190.334 41.0511 191.016 41.0739C191.709 41.0966 192.305 40.9375 192.805 40.5966C193.317 40.2557 193.732 39.6761 194.05 38.858L194.476 37.75L185.084 10.8182H192.72L198.141 30.0455H198.413L203.885 10.8182H211.572L201.396 39.8295C200.908 41.2386 200.243 42.4659 199.402 43.5114C198.572 44.5682 197.521 45.3807 196.249 45.9489C194.976 46.5284 193.442 46.8182 191.646 46.8182ZM226.274 37.5114C223.626 37.5114 221.337 36.9489 219.405 35.8239C217.484 34.6875 216.001 33.108 214.956 31.0852C213.911 29.0511 213.388 26.6932 213.388 24.0114C213.388 21.3068 213.911 18.9432 214.956 16.9205C216.001 14.8864 217.484 13.3068 219.405 12.1818C221.337 11.0455 223.626 10.4773 226.274 10.4773C228.922 10.4773 231.206 11.0455 233.126 12.1818C235.058 13.3068 236.547 14.8864 237.592 16.9205C238.638 18.9432 239.161 21.3068 239.161 24.0114C239.161 26.6932 238.638 29.0511 237.592 31.0852C236.547 33.108 235.058 34.6875 233.126 35.8239C231.206 36.9489 228.922 37.5114 226.274 37.5114ZM226.308 31.8864C227.513 31.8864 228.518 31.5455 229.325 30.8636C230.132 30.1705 230.74 29.2273 231.149 28.0341C231.57 26.8409 231.78 25.483 231.78 23.9602C231.78 22.4375 231.57 21.0795 231.149 19.8864C230.74 18.6932 230.132 17.75 229.325 17.0568C228.518 16.3636 227.513 16.017 226.308 16.017C225.092 16.017 224.07 16.3636 223.24 17.0568C222.422 17.75 221.803 18.6932 221.382 19.8864C220.973 21.0795 220.768 22.4375 220.768 23.9602C220.768 25.483 220.973 26.8409 221.382 28.0341C221.803 29.2273 222.422 30.1705 223.24 30.8636C224.07 31.5455 225.092 31.8864 226.308 31.8864ZM260.672 25.8523V10.8182H267.933V37H260.962V32.2443H260.689C260.098 33.7784 259.115 35.0114 257.74 35.9432C256.376 36.875 254.712 37.3409 252.746 37.3409C250.996 37.3409 249.456 36.9432 248.126 36.1477C246.797 35.3523 245.757 34.2216 245.007 32.7557C244.268 31.2898 243.893 29.5341 243.882 27.4886V10.8182H251.143V26.1932C251.155 27.7386 251.57 28.9602 252.388 29.858C253.206 30.7557 254.303 31.2045 255.678 31.2045C256.553 31.2045 257.371 31.0057 258.132 30.608C258.893 30.1989 259.507 29.5966 259.973 28.8011C260.45 28.0057 260.683 27.0227 260.672 25.8523ZM290.016 37L282.891 10.8182H290.237L294.294 28.4091H294.533L298.76 10.8182H305.97L310.266 28.3068H310.487L314.476 10.8182H321.805L314.697 37H307.01L302.51 20.5341H302.186L297.686 37H290.016ZM333.145 37.4943C331.474 37.4943 329.986 37.2045 328.679 36.625C327.372 36.0341 326.338 35.1648 325.577 34.017C324.827 32.858 324.452 31.4148 324.452 29.6875C324.452 28.233 324.719 27.0114 325.253 26.0227C325.787 25.0341 326.514 24.2386 327.435 23.6364C328.355 23.0341 329.401 22.5795 330.571 22.2727C331.753 21.9659 332.991 21.75 334.287 21.625C335.81 21.4659 337.037 21.3182 337.969 21.1818C338.901 21.0341 339.577 20.8182 339.997 20.5341C340.418 20.25 340.628 19.8295 340.628 19.2727V19.1705C340.628 18.0909 340.287 17.2557 339.605 16.6648C338.935 16.0739 337.98 15.7784 336.741 15.7784C335.435 15.7784 334.395 16.0682 333.622 16.6477C332.849 17.2159 332.338 17.9318 332.088 18.7955L325.372 18.25C325.713 16.6591 326.384 15.2841 327.384 14.125C328.384 12.9545 329.673 12.0568 331.253 11.4318C332.844 10.7955 334.685 10.4773 336.776 10.4773C338.23 10.4773 339.622 10.6477 340.952 10.9886C342.293 11.3295 343.48 11.858 344.514 12.5739C345.56 13.2898 346.384 14.2102 346.986 15.3352C347.588 16.4489 347.889 17.7841 347.889 19.3409V37H341.003V33.3693H340.798C340.378 34.1875 339.815 34.9091 339.111 35.5341C338.406 36.1477 337.56 36.6307 336.571 36.983C335.582 37.3239 334.44 37.4943 333.145 37.4943ZM335.224 32.483C336.293 32.483 337.236 32.2727 338.054 31.8523C338.872 31.4205 339.514 30.8409 339.98 30.1136C340.446 29.3864 340.679 28.5625 340.679 27.642V24.8636C340.452 25.0114 340.139 25.1477 339.741 25.2727C339.355 25.3864 338.918 25.4943 338.429 25.5966C337.94 25.6875 337.452 25.7727 336.963 25.8523C336.474 25.9205 336.031 25.983 335.634 26.0398C334.781 26.1648 334.037 26.3636 333.401 26.6364C332.764 26.9091 332.27 27.2784 331.918 27.7443C331.565 28.1989 331.389 28.767 331.389 29.4489C331.389 30.4375 331.747 31.1932 332.463 31.7159C333.19 32.2273 334.111 32.483 335.224 32.483ZM375.307 18.2841L368.659 18.6932C368.545 18.125 368.301 17.6136 367.926 17.1591C367.551 16.6932 367.057 16.3239 366.443 16.0511C365.841 15.767 365.119 15.625 364.278 15.625C363.153 15.625 362.205 15.8636 361.432 16.3409C360.659 16.8068 360.273 17.4318 360.273 18.2159C360.273 18.8409 360.523 19.3693 361.023 19.8011C361.523 20.233 362.381 20.5795 363.597 20.8409L368.335 21.7955C370.881 22.3182 372.778 23.1591 374.028 24.3182C375.278 25.4773 375.903 27 375.903 28.8864C375.903 30.6023 375.398 32.108 374.386 33.4034C373.386 34.6989 372.011 35.7102 370.261 36.4375C368.523 37.1534 366.517 37.5114 364.244 37.5114C360.778 37.5114 358.017 36.7898 355.96 35.3466C353.915 33.892 352.716 31.9148 352.364 29.4148L359.506 29.0398C359.722 30.0966 360.244 30.9034 361.074 31.4602C361.903 32.0057 362.966 32.2784 364.261 32.2784C365.534 32.2784 366.557 32.0341 367.33 31.5455C368.114 31.0455 368.511 30.4034 368.523 29.6193C368.511 28.9602 368.233 28.4205 367.688 28C367.142 27.5682 366.301 27.2386 365.165 27.0114L360.631 26.108C358.074 25.5966 356.17 24.7102 354.92 23.4489C353.682 22.1875 353.062 20.5795 353.062 18.625C353.062 16.9432 353.517 15.4943 354.426 14.2784C355.347 13.0625 356.636 12.125 358.295 11.4659C359.966 10.8068 361.92 10.4773 364.159 10.4773C367.466 10.4773 370.068 11.1761 371.966 12.5739C373.875 13.9716 374.989 15.875 375.307 18.2841ZM399.051 37.4943C397.381 37.4943 395.892 37.2045 394.585 36.625C393.278 36.0341 392.244 35.1648 391.483 34.017C390.733 32.858 390.358 31.4148 390.358 29.6875C390.358 28.233 390.625 27.0114 391.159 26.0227C391.693 25.0341 392.42 24.2386 393.341 23.6364C394.261 23.0341 395.307 22.5795 396.477 22.2727C397.659 21.9659 398.898 21.75 400.193 21.625C401.716 21.4659 402.943 21.3182 403.875 21.1818C404.807 21.0341 405.483 20.8182 405.903 20.5341C406.324 20.25 406.534 19.8295 406.534 19.2727V19.1705C406.534 18.0909 406.193 17.2557 405.511 16.6648C404.841 16.0739 403.886 15.7784 402.648 15.7784C401.341 15.7784 400.301 16.0682 399.528 16.6477C398.756 17.2159 398.244 17.9318 397.994 18.7955L391.278 18.25C391.619 16.6591 392.29 15.2841 393.29 14.125C394.29 12.9545 395.58 12.0568 397.159 11.4318C398.75 10.7955 400.591 10.4773 402.682 10.4773C404.136 10.4773 405.528 10.6477 406.858 10.9886C408.199 11.3295 409.386 11.858 410.42 12.5739C411.466 13.2898 412.29 14.2102 412.892 15.3352C413.494 16.4489 413.795 17.7841 413.795 19.3409V37H406.909V33.3693H406.705C406.284 34.1875 405.722 34.9091 405.017 35.5341C404.312 36.1477 403.466 36.6307 402.477 36.983C401.489 37.3239 400.347 37.4943 399.051 37.4943ZM401.131 32.483C402.199 32.483 403.142 32.2727 403.96 31.8523C404.778 31.4205 405.42 30.8409 405.886 30.1136C406.352 29.3864 406.585 28.5625 406.585 27.642V24.8636C406.358 25.0114 406.045 25.1477 405.648 25.2727C405.261 25.3864 404.824 25.4943 404.335 25.5966C403.847 25.6875 403.358 25.7727 402.869 25.8523C402.381 25.9205 401.938 25.983 401.54 26.0398C400.688 26.1648 399.943 26.3636 399.307 26.6364C398.67 26.9091 398.176 27.2784 397.824 27.7443C397.472 28.1989 397.295 28.767 397.295 29.4489C397.295 30.4375 397.653 31.1932 398.369 31.7159C399.097 32.2273 400.017 32.483 401.131 32.483ZM430.675 37V2.09091H437.936V15.2159H438.158C438.476 14.5114 438.936 13.7955 439.538 13.0682C440.152 12.3295 440.947 11.7159 441.925 11.2273C442.913 10.7273 444.141 10.4773 445.607 10.4773C447.516 10.4773 449.277 10.9773 450.891 11.9773C452.504 12.9659 453.794 14.4602 454.76 16.4602C455.726 18.4489 456.209 20.9432 456.209 23.9432C456.209 26.8636 455.737 29.3295 454.794 31.3409C453.862 33.3409 452.589 34.858 450.976 35.892C449.374 36.9148 447.578 37.4261 445.589 37.4261C444.18 37.4261 442.982 37.1932 441.993 36.7273C441.016 36.2614 440.214 35.6761 439.589 34.9716C438.964 34.2557 438.487 33.5341 438.158 32.8068H437.834V37H430.675ZM437.783 23.9091C437.783 25.4659 437.999 26.8239 438.43 27.983C438.862 29.142 439.487 30.0455 440.305 30.6932C441.124 31.3295 442.118 31.6477 443.288 31.6477C444.47 31.6477 445.47 31.3239 446.288 30.6761C447.107 30.017 447.726 29.108 448.146 27.9489C448.578 26.7784 448.794 25.4318 448.794 23.9091C448.794 22.3977 448.584 21.0682 448.163 19.9205C447.743 18.7727 447.124 17.875 446.305 17.2273C445.487 16.5795 444.482 16.2557 443.288 16.2557C442.107 16.2557 441.107 16.5682 440.288 17.1932C439.482 17.8182 438.862 18.7045 438.43 19.8523C437.999 21 437.783 22.3523 437.783 23.9091ZM468.52 37.4943C466.849 37.4943 465.361 37.2045 464.054 36.625C462.747 36.0341 461.713 35.1648 460.952 34.017C460.202 32.858 459.827 31.4148 459.827 29.6875C459.827 28.233 460.094 27.0114 460.628 26.0227C461.162 25.0341 461.889 24.2386 462.81 23.6364C463.73 23.0341 464.776 22.5795 465.946 22.2727C467.128 21.9659 468.366 21.75 469.662 21.625C471.185 21.4659 472.412 21.3182 473.344 21.1818C474.276 21.0341 474.952 20.8182 475.372 20.5341C475.793 20.25 476.003 19.8295 476.003 19.2727V19.1705C476.003 18.0909 475.662 17.2557 474.98 16.6648C474.31 16.0739 473.355 15.7784 472.116 15.7784C470.81 15.7784 469.77 16.0682 468.997 16.6477C468.224 17.2159 467.713 17.9318 467.463 18.7955L460.747 18.25C461.088 16.6591 461.759 15.2841 462.759 14.125C463.759 12.9545 465.048 12.0568 466.628 11.4318C468.219 10.7955 470.06 10.4773 472.151 10.4773C473.605 10.4773 474.997 10.6477 476.327 10.9886C477.668 11.3295 478.855 11.858 479.889 12.5739C480.935 13.2898 481.759 14.2102 482.361 15.3352C482.963 16.4489 483.264 17.7841 483.264 19.3409V37H476.378V33.3693H476.173C475.753 34.1875 475.19 34.9091 474.486 35.5341C473.781 36.1477 472.935 36.6307 471.946 36.983C470.957 37.3239 469.815 37.4943 468.52 37.4943ZM470.599 32.483C471.668 32.483 472.611 32.2727 473.429 31.8523C474.247 31.4205 474.889 30.8409 475.355 30.1136C475.821 29.3864 476.054 28.5625 476.054 27.642V24.8636C475.827 25.0114 475.514 25.1477 475.116 25.2727C474.73 25.3864 474.293 25.4943 473.804 25.5966C473.315 25.6875 472.827 25.7727 472.338 25.8523C471.849 25.9205 471.406 25.983 471.009 26.0398C470.156 26.1648 469.412 26.3636 468.776 26.6364C468.139 26.9091 467.645 27.2784 467.293 27.7443C466.94 28.1989 466.764 28.767 466.764 29.4489C466.764 30.4375 467.122 31.1932 467.838 31.7159C468.565 32.2273 469.486 32.483 470.599 32.483ZM500.727 37.5114C498.045 37.5114 495.739 36.9432 493.807 35.8068C491.886 34.6591 490.409 33.0682 489.375 31.0341C488.352 29 487.841 26.6591 487.841 24.0114C487.841 21.3295 488.358 18.9773 489.392 16.9545C490.438 14.9205 491.92 13.3352 493.841 12.1989C495.761 11.0511 498.045 10.4773 500.693 10.4773C502.977 10.4773 504.977 10.892 506.693 11.7216C508.409 12.5511 509.767 13.7159 510.767 15.2159C511.767 16.7159 512.318 18.4773 512.42 20.5H505.568C505.375 19.1932 504.864 18.142 504.034 17.3466C503.216 16.5398 502.142 16.1364 500.812 16.1364C499.688 16.1364 498.705 16.4432 497.864 17.0568C497.034 17.6591 496.386 18.5398 495.92 19.6989C495.455 20.858 495.222 22.2614 495.222 23.9091C495.222 25.5795 495.449 27 495.903 28.1705C496.369 29.3409 497.023 30.233 497.864 30.8466C498.705 31.4602 499.688 31.767 500.812 31.767C501.642 31.767 502.386 31.5966 503.045 31.2557C503.716 30.9148 504.267 30.4205 504.699 29.7727C505.142 29.1136 505.432 28.3239 505.568 27.4034H512.42C512.307 29.4034 511.761 31.1648 510.784 32.6875C509.818 34.1989 508.483 35.3807 506.778 36.233C505.074 37.0852 503.057 37.5114 500.727 37.5114ZM523.649 29.4659L523.666 20.7557H524.723L533.109 10.8182H541.445L530.178 23.9773H528.456L523.649 29.4659ZM517.07 37V2.09091H524.331V37H517.07ZM533.433 37L525.729 25.5966L530.57 20.4659L541.939 37H533.433ZM545.007 46.8182V10.8182H552.166V15.2159H552.49C552.808 14.5114 553.268 13.7955 553.871 13.0682C554.484 12.3295 555.28 11.7159 556.257 11.2273C557.246 10.7273 558.473 10.4773 559.939 10.4773C561.848 10.4773 563.609 10.9773 565.223 11.9773C566.837 12.9659 568.126 14.4602 569.092 16.4602C570.058 18.4489 570.541 20.9432 570.541 23.9432C570.541 26.8636 570.07 29.3295 569.126 31.3409C568.195 33.3409 566.922 34.858 565.308 35.892C563.706 36.9148 561.911 37.4261 559.922 37.4261C558.513 37.4261 557.314 37.1932 556.325 36.7273C555.348 36.2614 554.547 35.6761 553.922 34.9716C553.297 34.2557 552.82 33.5341 552.49 32.8068H552.268V46.8182H545.007ZM552.115 23.9091C552.115 25.4659 552.331 26.8239 552.763 27.983C553.195 29.142 553.82 30.0455 554.638 30.6932C555.456 31.3295 556.45 31.6477 557.621 31.6477C558.803 31.6477 559.803 31.3239 560.621 30.6761C561.439 30.017 562.058 29.108 562.479 27.9489C562.911 26.7784 563.126 25.4318 563.126 23.9091C563.126 22.3977 562.916 21.0682 562.496 19.9205C562.075 18.7727 561.456 17.875 560.638 17.2273C559.82 16.5795 558.814 16.2557 557.621 16.2557C556.439 16.2557 555.439 16.5682 554.621 17.1932C553.814 17.8182 553.195 18.7045 552.763 19.8523C552.331 21 552.115 22.3523 552.115 23.9091ZM582.848 37.4943C581.178 37.4943 579.689 37.2045 578.382 36.625C577.075 36.0341 576.041 35.1648 575.28 34.017C574.53 32.858 574.155 31.4148 574.155 29.6875C574.155 28.233 574.422 27.0114 574.956 26.0227C575.49 25.0341 576.217 24.2386 577.138 23.6364C578.058 23.0341 579.104 22.5795 580.274 22.2727C581.456 21.9659 582.695 21.75 583.99 21.625C585.513 21.4659 586.74 21.3182 587.672 21.1818C588.604 21.0341 589.28 20.8182 589.7 20.5341C590.121 20.25 590.331 19.8295 590.331 19.2727V19.1705C590.331 18.0909 589.99 17.2557 589.308 16.6648C588.638 16.0739 587.683 15.7784 586.445 15.7784C585.138 15.7784 584.098 16.0682 583.325 16.6477C582.553 17.2159 582.041 17.9318 581.791 18.7955L575.075 18.25C575.416 16.6591 576.087 15.2841 577.087 14.125C578.087 12.9545 579.376 12.0568 580.956 11.4318C582.547 10.7955 584.388 10.4773 586.479 10.4773C587.933 10.4773 589.325 10.6477 590.655 10.9886C591.996 11.3295 593.183 11.858 594.217 12.5739C595.263 13.2898 596.087 14.2102 596.689 15.3352C597.291 16.4489 597.592 17.7841 597.592 19.3409V37H590.706V33.3693H590.501C590.081 34.1875 589.518 34.9091 588.814 35.5341C588.109 36.1477 587.263 36.6307 586.274 36.983C585.286 37.3239 584.143 37.4943 582.848 37.4943ZM584.928 32.483C585.996 32.483 586.939 32.2727 587.757 31.8523C588.575 31.4205 589.217 30.8409 589.683 30.1136C590.149 29.3864 590.382 28.5625 590.382 27.642V24.8636C590.155 25.0114 589.842 25.1477 589.445 25.2727C589.058 25.3864 588.621 25.4943 588.132 25.5966C587.643 25.6875 587.155 25.7727 586.666 25.8523C586.178 25.9205 585.734 25.983 585.337 26.0398C584.484 26.1648 583.74 26.3636 583.104 26.6364C582.467 26.9091 581.973 27.2784 581.621 27.7443C581.268 28.1989 581.092 28.767 581.092 29.4489C581.092 30.4375 581.45 31.1932 582.166 31.7159C582.893 32.2273 583.814 32.483 584.928 32.483ZM615.055 37.5114C612.374 37.5114 610.067 36.9432 608.135 35.8068C606.214 34.6591 604.737 33.0682 603.703 31.0341C602.68 29 602.169 26.6591 602.169 24.0114C602.169 21.3295 602.686 18.9773 603.72 16.9545C604.766 14.9205 606.249 13.3352 608.169 12.1989C610.089 11.0511 612.374 10.4773 615.021 10.4773C617.305 10.4773 619.305 10.892 621.021 11.7216C622.737 12.5511 624.095 13.7159 625.095 15.2159C626.095 16.7159 626.646 18.4773 626.749 20.5H619.896C619.703 19.1932 619.192 18.142 618.362 17.3466C617.544 16.5398 616.47 16.1364 615.141 16.1364C614.016 16.1364 613.033 16.4432 612.192 17.0568C611.362 17.6591 610.714 18.5398 610.249 19.6989C609.783 20.858 609.55 22.2614 609.55 23.9091C609.55 25.5795 609.777 27 610.232 28.1705C610.697 29.3409 611.351 30.233 612.192 30.8466C613.033 31.4602 614.016 31.767 615.141 31.767C615.97 31.767 616.714 31.5966 617.374 31.2557C618.044 30.9148 618.595 30.4205 619.027 29.7727C619.47 29.1136 619.76 28.3239 619.896 27.4034H626.749C626.635 29.4034 626.089 31.1648 625.112 32.6875C624.146 34.1989 622.811 35.3807 621.107 36.233C619.402 37.0852 617.385 37.5114 615.055 37.5114ZM637.977 29.4659L637.994 20.7557H639.051L647.438 10.8182H655.773L644.506 23.9773H642.784L637.977 29.4659ZM631.398 37V2.09091H638.659V37H631.398ZM647.761 37L640.057 25.5966L644.898 20.4659L656.267 37H647.761ZM64.2635 99.8182C63.343 99.8182 62.4794 99.7443 61.6726 99.5966C60.8771 99.4602 60.218 99.2841 59.6953 99.0682L61.3317 93.6477C62.1839 93.9091 62.951 94.0511 63.6328 94.0739C64.326 94.0966 64.9226 93.9375 65.4226 93.5966C65.9339 93.2557 66.3487 92.6761 66.6669 91.858L67.093 90.75L57.701 63.8182H65.3374L70.7578 83.0455H71.0305L76.5021 63.8182H84.1896L74.0135 92.8295C73.5249 94.2386 72.8601 95.4659 72.0192 96.5114C71.1896 97.5682 70.1385 98.3807 68.8658 98.9489C67.593 99.5284 66.0589 99.8182 64.2635 99.8182ZM98.8913 90.5114C96.2436 90.5114 93.9538 89.9489 92.022 88.8239C90.1016 87.6875 88.6186 86.108 87.5732 84.0852C86.5277 82.0511 86.005 79.6932 86.005 77.0114C86.005 74.3068 86.5277 71.9432 87.5732 69.9205C88.6186 67.8864 90.1016 66.3068 92.022 65.1818C93.9538 64.0455 96.2436 63.4773 98.8913 63.4773C101.539 63.4773 103.823 64.0455 105.744 65.1818C107.675 66.3068 109.164 67.8864 110.21 69.9205C111.255 71.9432 111.778 74.3068 111.778 77.0114C111.778 79.6932 111.255 82.0511 110.21 84.0852C109.164 86.108 107.675 87.6875 105.744 88.8239C103.823 89.9489 101.539 90.5114 98.8913 90.5114ZM98.9254 84.8864C100.13 84.8864 101.136 84.5455 101.942 83.8636C102.749 83.1705 103.357 82.2273 103.766 81.0341C104.187 79.8409 104.397 78.483 104.397 76.9602C104.397 75.4375 104.187 74.0795 103.766 72.8864C103.357 71.6932 102.749 70.75 101.942 70.0568C101.136 69.3636 100.13 69.017 98.9254 69.017C97.7095 69.017 96.6868 69.3636 95.8572 70.0568C95.0391 70.75 94.4197 71.6932 93.9993 72.8864C93.5902 74.0795 93.3857 75.4375 93.3857 76.9602C93.3857 78.483 93.5902 79.8409 93.9993 81.0341C94.4197 82.2273 95.0391 83.1705 95.8572 83.8636C96.6868 84.5455 97.7095 84.8864 98.9254 84.8864ZM133.289 78.8523V63.8182H140.55V90H133.579V85.2443H133.306C132.715 86.7784 131.732 88.0114 130.357 88.9432C128.994 89.875 127.329 90.3409 125.363 90.3409C123.613 90.3409 122.073 89.9432 120.744 89.1477C119.414 88.3523 118.374 87.2216 117.624 85.7557C116.886 84.2898 116.511 82.5341 116.499 80.4886V63.8182H123.761V79.1932C123.772 80.7386 124.187 81.9602 125.005 82.858C125.823 83.7557 126.92 84.2045 128.295 84.2045C129.17 84.2045 129.988 84.0057 130.749 83.608C131.511 83.1989 132.124 82.5966 132.59 81.8011C133.067 81.0057 133.3 80.0227 133.289 78.8523ZM169.298 90.5114C166.616 90.5114 164.309 89.9432 162.377 88.8068C160.457 87.6591 158.979 86.0682 157.945 84.0341C156.923 82 156.411 79.6591 156.411 77.0114C156.411 74.3295 156.928 71.9773 157.962 69.9545C159.008 67.9205 160.491 66.3352 162.411 65.1989C164.332 64.0511 166.616 63.4773 169.263 63.4773C171.548 63.4773 173.548 63.892 175.263 64.7216C176.979 65.5511 178.337 66.7159 179.337 68.2159C180.337 69.7159 180.888 71.4773 180.991 73.5H174.138C173.945 72.1932 173.434 71.142 172.604 70.3466C171.786 69.5398 170.712 69.1364 169.383 69.1364C168.258 69.1364 167.275 69.4432 166.434 70.0568C165.604 70.6591 164.957 71.5398 164.491 72.6989C164.025 73.858 163.792 75.2614 163.792 76.9091C163.792 78.5795 164.019 80 164.474 81.1705C164.94 82.3409 165.593 83.233 166.434 83.8466C167.275 84.4602 168.258 84.767 169.383 84.767C170.212 84.767 170.957 84.5966 171.616 84.2557C172.286 83.9148 172.837 83.4205 173.269 82.7727C173.712 82.1136 174.002 81.3239 174.138 80.4034H180.991C180.877 82.4034 180.332 84.1648 179.354 85.6875C178.388 87.1989 177.053 88.3807 175.349 89.233C173.644 90.0852 171.627 90.5114 169.298 90.5114ZM193.106 90.4943C191.435 90.4943 189.947 90.2045 188.64 89.625C187.333 89.0341 186.299 88.1648 185.538 87.017C184.788 85.858 184.413 84.4148 184.413 82.6875C184.413 81.233 184.68 80.0114 185.214 79.0227C185.748 78.0341 186.475 77.2386 187.396 76.6364C188.316 76.0341 189.362 75.5795 190.532 75.2727C191.714 74.9659 192.952 74.75 194.248 74.625C195.771 74.4659 196.998 74.3182 197.93 74.1818C198.862 74.0341 199.538 73.8182 199.958 73.5341C200.379 73.25 200.589 72.8295 200.589 72.2727V72.1705C200.589 71.0909 200.248 70.2557 199.566 69.6648C198.896 69.0739 197.941 68.7784 196.702 68.7784C195.396 68.7784 194.356 69.0682 193.583 69.6477C192.81 70.2159 192.299 70.9318 192.049 71.7955L185.333 71.25C185.674 69.6591 186.344 68.2841 187.344 67.125C188.344 65.9545 189.634 65.0568 191.214 64.4318C192.805 63.7955 194.646 63.4773 196.737 63.4773C198.191 63.4773 199.583 63.6477 200.913 63.9886C202.254 64.3295 203.441 64.858 204.475 65.5739C205.521 66.2898 206.344 67.2102 206.947 68.3352C207.549 69.4489 207.85 70.7841 207.85 72.3409V90H200.964V86.3693H200.759C200.339 87.1875 199.776 87.9091 199.072 88.5341C198.367 89.1477 197.521 89.6307 196.532 89.983C195.543 90.3239 194.401 90.4943 193.106 90.4943ZM195.185 85.483C196.254 85.483 197.197 85.2727 198.015 84.8523C198.833 84.4205 199.475 83.8409 199.941 83.1136C200.407 82.3864 200.64 81.5625 200.64 80.642V77.8636C200.413 78.0114 200.1 78.1477 199.702 78.2727C199.316 78.3864 198.879 78.4943 198.39 78.5966C197.901 78.6875 197.413 78.7727 196.924 78.8523C196.435 78.9205 195.992 78.983 195.594 79.0398C194.742 79.1648 193.998 79.3636 193.362 79.6364C192.725 79.9091 192.231 80.2784 191.879 80.7443C191.526 81.1989 191.35 81.767 191.35 82.4489C191.35 83.4375 191.708 84.1932 192.424 84.7159C193.151 85.2273 194.072 85.483 195.185 85.483ZM213.484 90V63.8182H220.523V68.3864H220.796C221.273 66.7614 222.075 65.5341 223.2 64.7045C224.325 63.8636 225.62 63.4432 227.086 63.4432C227.45 63.4432 227.842 63.4659 228.262 63.5114C228.683 63.5568 229.052 63.6193 229.37 63.6989V70.142C229.029 70.0398 228.558 69.9489 227.955 69.8693C227.353 69.7898 226.802 69.75 226.302 69.75C225.234 69.75 224.279 69.983 223.438 70.4489C222.609 70.9034 221.95 71.5398 221.461 72.358C220.984 73.1761 220.745 74.1193 220.745 75.1875V90H213.484ZM233.124 90V63.8182H240.164V68.3864H240.437C240.914 66.7614 241.715 65.5341 242.84 64.7045C243.965 63.8636 245.261 63.4432 246.727 63.4432C247.09 63.4432 247.482 63.4659 247.903 63.5114C248.323 63.5568 248.692 63.6193 249.011 63.6989V70.142C248.67 70.0398 248.198 69.9489 247.596 69.8693C246.994 69.7898 246.442 69.75 245.942 69.75C244.874 69.75 243.92 69.983 243.079 70.4489C242.249 70.9034 241.59 71.5398 241.102 72.358C240.624 73.1761 240.386 74.1193 240.386 75.1875V90H233.124ZM258.045 99.8182C257.124 99.8182 256.261 99.7443 255.454 99.5966C254.658 99.4602 253.999 99.2841 253.477 99.0682L255.113 93.6477C255.965 93.9091 256.732 94.0511 257.414 94.0739C258.107 94.0966 258.704 93.9375 259.204 93.5966C259.715 93.2557 260.13 92.6761 260.448 91.858L260.874 90.75L251.482 63.8182H259.119L264.539 83.0455H264.812L270.283 63.8182H277.971L267.795 92.8295C267.306 94.2386 266.641 95.4659 265.8 96.5114C264.971 97.5682 263.92 98.3807 262.647 98.9489C261.374 99.5284 259.84 99.8182 258.045 99.8182ZM300.262 90.4943C298.592 90.4943 297.103 90.2045 295.796 89.625C294.489 89.0341 293.455 88.1648 292.694 87.017C291.944 85.858 291.569 84.4148 291.569 82.6875C291.569 81.233 291.836 80.0114 292.37 79.0227C292.904 78.0341 293.631 77.2386 294.552 76.6364C295.472 76.0341 296.518 75.5795 297.688 75.2727C298.87 74.9659 300.109 74.75 301.404 74.625C302.927 74.4659 304.154 74.3182 305.086 74.1818C306.018 74.0341 306.694 73.8182 307.114 73.5341C307.535 73.25 307.745 72.8295 307.745 72.2727V72.1705C307.745 71.0909 307.404 70.2557 306.722 69.6648C306.052 69.0739 305.097 68.7784 303.859 68.7784C302.552 68.7784 301.512 69.0682 300.739 69.6477C299.967 70.2159 299.455 70.9318 299.205 71.7955L292.489 71.25C292.83 69.6591 293.501 68.2841 294.501 67.125C295.501 65.9545 296.79 65.0568 298.37 64.4318C299.961 63.7955 301.802 63.4773 303.893 63.4773C305.347 63.4773 306.739 63.6477 308.069 63.9886C309.41 64.3295 310.597 64.858 311.631 65.5739C312.677 66.2898 313.501 67.2102 314.103 68.3352C314.705 69.4489 315.006 70.7841 315.006 72.3409V90H308.12V86.3693H307.915C307.495 87.1875 306.933 87.9091 306.228 88.5341C305.523 89.1477 304.677 89.6307 303.688 89.983C302.7 90.3239 301.558 90.4943 300.262 90.4943ZM302.342 85.483C303.41 85.483 304.353 85.2727 305.171 84.8523C305.989 84.4205 306.631 83.8409 307.097 83.1136C307.563 82.3864 307.796 81.5625 307.796 80.642V77.8636C307.569 78.0114 307.256 78.1477 306.859 78.2727C306.472 78.3864 306.035 78.4943 305.546 78.5966C305.058 78.6875 304.569 78.7727 304.08 78.8523C303.592 78.9205 303.148 78.983 302.751 79.0398C301.898 79.1648 301.154 79.3636 300.518 79.6364C299.881 79.9091 299.387 80.2784 299.035 80.7443C298.683 81.1989 298.506 81.767 298.506 82.4489C298.506 83.4375 298.864 84.1932 299.58 84.7159C300.308 85.2273 301.228 85.483 302.342 85.483ZM320.64 90V63.8182H327.68V68.3864H327.952C328.43 66.7614 329.231 65.5341 330.356 64.7045C331.481 63.8636 332.776 63.4432 334.242 63.4432C334.606 63.4432 334.998 63.4659 335.418 63.5114C335.839 63.5568 336.208 63.6193 336.526 63.6989V70.142C336.185 70.0398 335.714 69.9489 335.112 69.8693C334.509 69.7898 333.958 69.75 333.458 69.75C332.39 69.75 331.435 69.983 330.594 70.4489C329.765 70.9034 329.106 71.5398 328.617 72.358C328.14 73.1761 327.901 74.1193 327.901 75.1875V90H320.64ZM350.891 90.5114C348.244 90.5114 345.954 89.9489 344.022 88.8239C342.102 87.6875 340.619 86.108 339.573 84.0852C338.528 82.0511 338.005 79.6932 338.005 77.0114C338.005 74.3068 338.528 71.9432 339.573 69.9205C340.619 67.8864 342.102 66.3068 344.022 65.1818C345.954 64.0455 348.244 63.4773 350.891 63.4773C353.539 63.4773 355.823 64.0455 357.744 65.1818C359.675 66.3068 361.164 67.8864 362.21 69.9205C363.255 71.9432 363.778 74.3068 363.778 77.0114C363.778 79.6932 363.255 82.0511 362.21 84.0852C361.164 86.108 359.675 87.6875 357.744 88.8239C355.823 89.9489 353.539 90.5114 350.891 90.5114ZM350.925 84.8864C352.13 84.8864 353.136 84.5455 353.942 83.8636C354.749 83.1705 355.357 82.2273 355.766 81.0341C356.187 79.8409 356.397 78.483 356.397 76.9602C356.397 75.4375 356.187 74.0795 355.766 72.8864C355.357 71.6932 354.749 70.75 353.942 70.0568C353.136 69.3636 352.13 69.017 350.925 69.017C349.71 69.017 348.687 69.3636 347.857 70.0568C347.039 70.75 346.42 71.6932 345.999 72.8864C345.59 74.0795 345.386 75.4375 345.386 76.9602C345.386 78.483 345.59 79.8409 345.999 81.0341C346.42 82.2273 347.039 83.1705 347.857 83.8636C348.687 84.5455 349.71 84.8864 350.925 84.8864ZM385.289 78.8523V63.8182H392.55V90H385.579V85.2443H385.306C384.715 86.7784 383.732 88.0114 382.357 88.9432C380.994 89.875 379.329 90.3409 377.363 90.3409C375.613 90.3409 374.073 89.9432 372.744 89.1477C371.414 88.3523 370.374 87.2216 369.624 85.7557C368.886 84.2898 368.511 82.5341 368.499 80.4886V63.8182H375.761V79.1932C375.772 80.7386 376.187 81.9602 377.005 82.858C377.823 83.7557 378.92 84.2045 380.295 84.2045C381.17 84.2045 381.988 84.0057 382.749 83.608C383.511 83.1989 384.124 82.5966 384.59 81.8011C385.067 81.0057 385.3 80.0227 385.289 78.8523ZM405.62 74.8636V90H398.359V63.8182H405.279V68.4375H405.586C406.165 66.9148 407.137 65.7102 408.501 64.8239C409.864 63.9261 411.518 63.4773 413.461 63.4773C415.279 63.4773 416.864 63.875 418.217 64.6705C419.569 65.4659 420.62 66.6023 421.37 68.0795C422.12 69.5455 422.495 71.2955 422.495 73.3295V90H415.234V74.625C415.245 73.0227 414.836 71.7727 414.006 70.875C413.177 69.9659 412.035 69.5114 410.58 69.5114C409.603 69.5114 408.739 69.7216 407.989 70.142C407.251 70.5625 406.671 71.1761 406.251 71.983C405.842 72.7784 405.631 73.7386 405.62 74.8636ZM437.866 90.4261C435.877 90.4261 434.076 89.9148 432.462 88.892C430.86 87.858 429.587 86.3409 428.644 84.3409C427.712 82.3295 427.246 79.8636 427.246 76.9432C427.246 73.9432 427.729 71.4489 428.695 69.4602C429.661 67.4602 430.945 65.9659 432.548 64.9773C434.161 63.9773 435.928 63.4773 437.849 63.4773C439.315 63.4773 440.536 63.7273 441.513 64.2273C442.502 64.7159 443.298 65.3295 443.9 66.0682C444.513 66.7955 444.979 67.5114 445.298 68.2159H445.519V55.0909H452.763V90H445.604V85.8068H445.298C444.957 86.5341 444.474 87.2557 443.849 87.9716C443.235 88.6761 442.434 89.2614 441.445 89.7273C440.468 90.1932 439.275 90.4261 437.866 90.4261ZM440.167 84.6477C441.337 84.6477 442.326 84.3295 443.133 83.6932C443.951 83.0455 444.576 82.142 445.008 80.983C445.451 79.8239 445.673 78.4659 445.673 76.9091C445.673 75.3523 445.457 74 445.025 72.8523C444.593 71.7045 443.968 70.8182 443.15 70.1932C442.332 69.5682 441.337 69.2557 440.167 69.2557C438.974 69.2557 437.968 69.5795 437.15 70.2273C436.332 70.875 435.712 71.7727 435.292 72.9205C434.871 74.0682 434.661 75.3977 434.661 76.9091C434.661 78.4318 434.871 79.7784 435.292 80.9489C435.724 82.108 436.343 83.017 437.15 83.6761C437.968 84.3239 438.974 84.6477 440.167 84.6477ZM466.626 85.2273L466.438 87.1023C466.29 88.6023 466.006 90.0966 465.586 91.5852C465.177 93.0852 464.745 94.4432 464.29 95.6591C463.847 96.875 463.489 97.8295 463.217 98.5227H458.512C458.683 97.8523 458.915 96.9148 459.211 95.7102C459.506 94.517 459.785 93.1761 460.046 91.6875C460.308 90.1989 460.472 88.6818 460.54 87.1364L460.626 85.2273H466.626ZM487.898 90L480.773 63.8182H488.12L492.177 81.4091H492.415L496.643 63.8182H503.853L508.148 81.3068H508.37L512.359 63.8182H519.688L512.58 90H504.893L500.393 73.5341H500.069L495.569 90H487.898ZM530.823 74.8636V90H523.562V55.0909H530.619V68.4375H530.925C531.516 66.892 532.471 65.6818 533.789 64.8068C535.107 63.9205 536.761 63.4773 538.749 63.4773C540.567 63.4773 542.153 63.875 543.505 64.6705C544.869 65.4545 545.925 66.5852 546.675 68.0625C547.437 69.5284 547.812 71.2841 547.8 73.3295V90H540.539V74.625C540.55 73.0114 540.141 71.7557 539.312 70.858C538.494 69.9602 537.346 69.5114 535.869 69.5114C534.88 69.5114 534.005 69.7216 533.244 70.142C532.494 70.5625 531.903 71.1761 531.471 71.983C531.05 72.7784 530.835 73.7386 530.823 74.8636ZM560.981 90.4943C559.31 90.4943 557.822 90.2045 556.515 89.625C555.208 89.0341 554.174 88.1648 553.413 87.017C552.663 85.858 552.288 84.4148 552.288 82.6875C552.288 81.233 552.555 80.0114 553.089 79.0227C553.623 78.0341 554.35 77.2386 555.271 76.6364C556.191 76.0341 557.237 75.5795 558.407 75.2727C559.589 74.9659 560.827 74.75 562.123 74.625C563.646 74.4659 564.873 74.3182 565.805 74.1818C566.737 74.0341 567.413 73.8182 567.833 73.5341C568.254 73.25 568.464 72.8295 568.464 72.2727V72.1705C568.464 71.0909 568.123 70.2557 567.441 69.6648C566.771 69.0739 565.816 68.7784 564.577 68.7784C563.271 68.7784 562.231 69.0682 561.458 69.6477C560.685 70.2159 560.174 70.9318 559.924 71.7955L553.208 71.25C553.549 69.6591 554.219 68.2841 555.219 67.125C556.219 65.9545 557.509 65.0568 559.089 64.4318C560.68 63.7955 562.521 63.4773 564.612 63.4773C566.066 63.4773 567.458 63.6477 568.788 63.9886C570.129 64.3295 571.316 64.858 572.35 65.5739C573.396 66.2898 574.219 67.2102 574.822 68.3352C575.424 69.4489 575.725 70.7841 575.725 72.3409V90H568.839V86.3693H568.634C568.214 87.1875 567.651 87.9091 566.947 88.5341C566.242 89.1477 565.396 89.6307 564.407 89.983C563.418 90.3239 562.276 90.4943 560.981 90.4943ZM563.06 85.483C564.129 85.483 565.072 85.2727 565.89 84.8523C566.708 84.4205 567.35 83.8409 567.816 83.1136C568.282 82.3864 568.515 81.5625 568.515 80.642V77.8636C568.288 78.0114 567.975 78.1477 567.577 78.2727C567.191 78.3864 566.754 78.4943 566.265 78.5966C565.776 78.6875 565.288 78.7727 564.799 78.8523C564.31 78.9205 563.867 78.983 563.469 79.0398C562.617 79.1648 561.873 79.3636 561.237 79.6364C560.6 79.9091 560.106 80.2784 559.754 80.7443C559.401 81.1989 559.225 81.767 559.225 82.4489C559.225 83.4375 559.583 84.1932 560.299 84.7159C561.026 85.2273 561.947 85.483 563.06 85.483ZM595.285 63.8182V69.2727H579.518V63.8182H595.285ZM583.097 57.5455H590.359V81.9545C590.359 82.625 590.461 83.1477 590.665 83.5227C590.87 83.8864 591.154 84.142 591.518 84.2898C591.893 84.4375 592.325 84.5114 592.813 84.5114C593.154 84.5114 593.495 84.483 593.836 84.4261C594.177 84.358 594.438 84.3068 594.62 84.2727L595.762 89.6761C595.398 89.7898 594.887 89.9205 594.228 90.0682C593.569 90.2273 592.768 90.3239 591.825 90.358C590.075 90.4261 588.54 90.1932 587.222 89.6591C585.915 89.125 584.898 88.2955 584.171 87.1705C583.444 86.0455 583.086 84.625 583.097 82.9091V57.5455ZM147.047 143L139.922 116.818H147.268L151.325 134.409H151.564L155.791 116.818H163.001L167.297 134.307H167.518L171.507 116.818H178.837L171.729 143H164.041L159.541 126.534H159.217L154.717 143H147.047ZM193.884 143.511C191.236 143.511 188.946 142.949 187.014 141.824C185.094 140.687 183.611 139.108 182.565 137.085C181.52 135.051 180.997 132.693 180.997 130.011C180.997 127.307 181.52 124.943 182.565 122.92C183.611 120.886 185.094 119.307 187.014 118.182C188.946 117.045 191.236 116.477 193.884 116.477C196.531 116.477 198.815 117.045 200.736 118.182C202.668 119.307 204.156 120.886 205.202 122.92C206.247 124.943 206.77 127.307 206.77 130.011C206.77 132.693 206.247 135.051 205.202 137.085C204.156 139.108 202.668 140.687 200.736 141.824C198.815 142.949 196.531 143.511 193.884 143.511ZM193.918 137.886C195.122 137.886 196.128 137.545 196.935 136.864C197.741 136.17 198.349 135.227 198.759 134.034C199.179 132.841 199.389 131.483 199.389 129.96C199.389 128.438 199.179 127.08 198.759 125.886C198.349 124.693 197.741 123.75 196.935 123.057C196.128 122.364 195.122 122.017 193.918 122.017C192.702 122.017 191.679 122.364 190.849 123.057C190.031 123.75 189.412 124.693 188.991 125.886C188.582 127.08 188.378 128.438 188.378 129.96C188.378 131.483 188.582 132.841 188.991 134.034C189.412 135.227 190.031 136.17 190.849 136.864C191.679 137.545 192.702 137.886 193.918 137.886ZM228.281 131.852V116.818H235.543V143H228.571V138.244H228.298C227.707 139.778 226.724 141.011 225.349 141.943C223.986 142.875 222.321 143.341 220.355 143.341C218.605 143.341 217.065 142.943 215.736 142.148C214.406 141.352 213.366 140.222 212.616 138.756C211.878 137.29 211.503 135.534 211.491 133.489V116.818H218.753V132.193C218.764 133.739 219.179 134.96 219.997 135.858C220.815 136.756 221.912 137.205 223.287 137.205C224.162 137.205 224.98 137.006 225.741 136.608C226.503 136.199 227.116 135.597 227.582 134.801C228.06 134.006 228.293 133.023 228.281 131.852ZM248.612 108.091V143H241.351V108.091H248.612ZM264.077 143.426C262.088 143.426 260.287 142.915 258.673 141.892C257.071 140.858 255.798 139.341 254.855 137.341C253.923 135.33 253.457 132.864 253.457 129.943C253.457 126.943 253.94 124.449 254.906 122.46C255.872 120.46 257.156 118.966 258.759 117.977C260.372 116.977 262.139 116.477 264.06 116.477C265.526 116.477 266.747 116.727 267.724 117.227C268.713 117.716 269.509 118.33 270.111 119.068C270.724 119.795 271.19 120.511 271.509 121.216H271.73V108.091H278.974V143H271.815V138.807H271.509C271.168 139.534 270.685 140.256 270.06 140.972C269.446 141.676 268.645 142.261 267.656 142.727C266.679 143.193 265.486 143.426 264.077 143.426ZM266.378 137.648C267.548 137.648 268.537 137.33 269.344 136.693C270.162 136.045 270.787 135.142 271.219 133.983C271.662 132.824 271.884 131.466 271.884 129.909C271.884 128.352 271.668 127 271.236 125.852C270.804 124.705 270.179 123.818 269.361 123.193C268.543 122.568 267.548 122.256 266.378 122.256C265.185 122.256 264.179 122.58 263.361 123.227C262.543 123.875 261.923 124.773 261.503 125.92C261.082 127.068 260.872 128.398 260.872 129.909C260.872 131.432 261.082 132.778 261.503 133.949C261.935 135.108 262.554 136.017 263.361 136.676C264.179 137.324 265.185 137.648 266.378 137.648ZM296.054 143V116.818H303.315V143H296.054ZM299.702 113.443C298.622 113.443 297.696 113.085 296.923 112.369C296.162 111.642 295.781 110.773 295.781 109.761C295.781 108.761 296.162 107.903 296.923 107.188C297.696 106.46 298.622 106.097 299.702 106.097C300.781 106.097 301.702 106.46 302.463 107.188C303.236 107.903 303.622 108.761 303.622 109.761C303.622 110.773 303.236 111.642 302.463 112.369C301.702 113.085 300.781 113.443 299.702 113.443ZM323.058 116.818V122.273H307.291V116.818H323.058ZM310.871 110.545H318.132V134.955C318.132 135.625 318.234 136.148 318.439 136.523C318.643 136.886 318.928 137.142 319.291 137.29C319.666 137.437 320.098 137.511 320.587 137.511C320.928 137.511 321.268 137.483 321.609 137.426C321.95 137.358 322.212 137.307 322.393 137.273L323.536 142.676C323.172 142.79 322.661 142.92 322.001 143.068C321.342 143.227 320.541 143.324 319.598 143.358C317.848 143.426 316.314 143.193 314.996 142.659C313.689 142.125 312.672 141.295 311.945 140.17C311.217 139.045 310.859 137.625 310.871 135.909V110.545ZM339.034 143V108.091H346.295V121.216H346.517C346.835 120.511 347.295 119.795 347.898 119.068C348.511 118.33 349.307 117.716 350.284 117.227C351.273 116.727 352.5 116.477 353.966 116.477C355.875 116.477 357.636 116.977 359.25 117.977C360.864 118.966 362.153 120.46 363.119 122.46C364.085 124.449 364.568 126.943 364.568 129.943C364.568 132.864 364.097 135.33 363.153 137.341C362.222 139.341 360.949 140.858 359.335 141.892C357.733 142.915 355.938 143.426 353.949 143.426C352.54 143.426 351.341 143.193 350.352 142.727C349.375 142.261 348.574 141.676 347.949 140.972C347.324 140.256 346.847 139.534 346.517 138.807H346.193V143H339.034ZM346.142 129.909C346.142 131.466 346.358 132.824 346.79 133.983C347.222 135.142 347.847 136.045 348.665 136.693C349.483 137.33 350.477 137.648 351.648 137.648C352.83 137.648 353.83 137.324 354.648 136.676C355.466 136.017 356.085 135.108 356.506 133.949C356.938 132.778 357.153 131.432 357.153 129.909C357.153 128.398 356.943 127.068 356.523 125.92C356.102 124.773 355.483 123.875 354.665 123.227C353.847 122.58 352.841 122.256 351.648 122.256C350.466 122.256 349.466 122.568 348.648 123.193C347.841 123.818 347.222 124.705 346.79 125.852C346.358 127 346.142 128.352 346.142 129.909ZM381.345 143.511C378.652 143.511 376.334 142.966 374.391 141.875C372.459 140.773 370.97 139.216 369.925 137.205C368.879 135.182 368.357 132.79 368.357 130.028C368.357 127.335 368.879 124.972 369.925 122.938C370.97 120.903 372.442 119.318 374.339 118.182C376.249 117.045 378.487 116.477 381.055 116.477C382.783 116.477 384.391 116.756 385.879 117.312C387.379 117.858 388.686 118.682 389.8 119.784C390.925 120.886 391.8 122.273 392.425 123.943C393.05 125.602 393.362 127.545 393.362 129.773V131.767H371.254V127.267H386.527C386.527 126.222 386.3 125.295 385.845 124.489C385.391 123.682 384.76 123.051 383.953 122.597C383.158 122.131 382.232 121.898 381.175 121.898C380.072 121.898 379.095 122.153 378.243 122.665C377.402 123.165 376.743 123.841 376.266 124.693C375.788 125.534 375.544 126.472 375.533 127.506V131.784C375.533 133.08 375.771 134.199 376.249 135.142C376.737 136.085 377.425 136.812 378.311 137.324C379.197 137.835 380.249 138.091 381.464 138.091C382.271 138.091 383.01 137.977 383.68 137.75C384.351 137.523 384.925 137.182 385.402 136.727C385.879 136.273 386.243 135.716 386.493 135.057L393.209 135.5C392.868 137.114 392.169 138.523 391.112 139.727C390.067 140.92 388.714 141.852 387.055 142.523C385.408 143.182 383.504 143.511 381.345 143.511ZM416.472 108.091V143H409.21V108.091H416.472ZM422.288 143V116.818H429.55V143H422.288ZM425.936 113.443C424.857 113.443 423.93 113.085 423.158 112.369C422.396 111.642 422.016 110.773 422.016 109.761C422.016 108.761 422.396 107.903 423.158 107.188C423.93 106.46 424.857 106.097 425.936 106.097C427.016 106.097 427.936 106.46 428.697 107.188C429.47 107.903 429.857 108.761 429.857 109.761C429.857 110.773 429.47 111.642 428.697 112.369C427.936 113.085 427.016 113.443 425.936 113.443ZM441.946 135.466L441.963 126.756H443.02L451.406 116.818H459.741L448.474 129.977H446.753L441.946 135.466ZM435.366 143V108.091H442.628V143H435.366ZM451.73 143L444.026 131.597L448.866 126.466L460.236 143H451.73ZM474.158 143.511C471.464 143.511 469.146 142.966 467.203 141.875C465.271 140.773 463.783 139.216 462.737 137.205C461.692 135.182 461.169 132.79 461.169 130.028C461.169 127.335 461.692 124.972 462.737 122.938C463.783 120.903 465.254 119.318 467.152 118.182C469.061 117.045 471.3 116.477 473.868 116.477C475.595 116.477 477.203 116.756 478.692 117.312C480.192 117.858 481.499 118.682 482.612 119.784C483.737 120.886 484.612 122.273 485.237 123.943C485.862 125.602 486.175 127.545 486.175 129.773V131.767H464.067V127.267H479.339C479.339 126.222 479.112 125.295 478.658 124.489C478.203 123.682 477.572 123.051 476.766 122.597C475.97 122.131 475.044 121.898 473.987 121.898C472.885 121.898 471.908 122.153 471.055 122.665C470.214 123.165 469.555 123.841 469.078 124.693C468.601 125.534 468.357 126.472 468.345 127.506V131.784C468.345 133.08 468.584 134.199 469.061 135.142C469.55 136.085 470.237 136.812 471.124 137.324C472.01 137.835 473.061 138.091 474.277 138.091C475.084 138.091 475.822 137.977 476.493 137.75C477.163 137.523 477.737 137.182 478.214 136.727C478.692 136.273 479.055 135.716 479.305 135.057L486.021 135.5C485.68 137.114 484.982 138.523 483.925 139.727C482.879 140.92 481.527 141.852 479.868 142.523C478.22 143.182 476.317 143.511 474.158 143.511ZM497.152 132.534V131.955C497.163 129.966 497.339 128.381 497.68 127.199C498.033 126.017 498.544 125.062 499.214 124.335C499.885 123.608 500.692 122.949 501.635 122.358C502.339 121.903 502.97 121.432 503.527 120.943C504.084 120.455 504.527 119.915 504.857 119.324C505.186 118.722 505.351 118.051 505.351 117.312C505.351 116.528 505.163 115.841 504.788 115.25C504.413 114.659 503.908 114.205 503.271 113.886C502.646 113.568 501.953 113.409 501.192 113.409C500.453 113.409 499.754 113.574 499.095 113.903C498.436 114.222 497.896 114.699 497.476 115.335C497.055 115.96 496.828 116.739 496.794 117.67H489.839C489.896 115.398 490.442 113.523 491.476 112.045C492.51 110.557 493.879 109.449 495.584 108.722C497.288 107.983 499.169 107.614 501.226 107.614C503.487 107.614 505.487 107.989 507.226 108.739C508.964 109.477 510.328 110.551 511.317 111.96C512.305 113.369 512.8 115.068 512.8 117.057C512.8 118.386 512.578 119.568 512.135 120.602C511.703 121.625 511.095 122.534 510.311 123.33C509.527 124.114 508.601 124.824 507.533 125.46C506.635 125.994 505.896 126.551 505.317 127.131C504.749 127.71 504.322 128.381 504.038 129.142C503.766 129.903 503.624 130.841 503.612 131.955V132.534H497.152ZM500.527 143.443C499.391 143.443 498.419 143.045 497.612 142.25C496.817 141.443 496.425 140.477 496.436 139.352C496.425 138.239 496.817 137.284 497.612 136.489C498.419 135.693 499.391 135.295 500.527 135.295C501.607 135.295 502.555 135.693 503.374 136.489C504.192 137.284 504.607 138.239 504.618 139.352C504.607 140.102 504.408 140.79 504.021 141.415C503.646 142.028 503.152 142.523 502.538 142.898C501.925 143.261 501.254 143.443 500.527 143.443Z" fill="#3E2522"/>
</svg>
