<svg width="225" height="53" viewBox="0 0 225 53" fill="none" xmlns="http://www.w3.org/2000/svg">
<rect x="1" y="1" width="223" height="50.2" rx="25.1" stroke="#3D1F1A" stroke-width="2"/>
<path d="M57.9858 22.5653C57.9176 21.8778 57.625 21.3437 57.108 20.9631C56.5909 20.5824 55.8892 20.392 55.0028 20.392C54.4006 20.392 53.892 20.4773 53.4773 20.6477C53.0625 20.8125 52.7443 21.0426 52.5227 21.3381C52.3068 21.6335 52.1989 21.9688 52.1989 22.3438C52.1875 22.6562 52.2528 22.929 52.3949 23.1619C52.5426 23.3949 52.7443 23.5966 53 23.767C53.2557 23.9318 53.5511 24.0767 53.8864 24.2017C54.2216 24.321 54.5795 24.4233 54.9602 24.5085L56.5284 24.8835C57.2898 25.054 57.9886 25.2812 58.625 25.5653C59.2614 25.8494 59.8125 26.1989 60.2784 26.6136C60.7443 27.0284 61.1051 27.517 61.3608 28.0795C61.6222 28.642 61.7557 29.2869 61.7614 30.0142C61.7557 31.0824 61.483 32.0085 60.9432 32.7926C60.4091 33.571 59.6364 34.1761 58.625 34.608C57.6193 35.0341 56.4063 35.2472 54.9858 35.2472C53.5767 35.2472 52.3494 35.0312 51.304 34.5994C50.2642 34.1676 49.4517 33.5284 48.8665 32.6818C48.2869 31.8295 47.983 30.7756 47.9545 29.5199H51.5256C51.5653 30.1051 51.733 30.5937 52.0284 30.9858C52.3295 31.3722 52.7301 31.6648 53.2301 31.8636C53.7358 32.0568 54.3068 32.1534 54.9432 32.1534C55.5682 32.1534 56.1108 32.0625 56.571 31.8807C57.0369 31.6989 57.3977 31.446 57.6534 31.1222C57.9091 30.7983 58.0369 30.4261 58.0369 30.0057C58.0369 29.6136 57.9205 29.2841 57.6875 29.017C57.4602 28.75 57.125 28.5227 56.6818 28.3352C56.2443 28.1477 55.7074 27.9773 55.071 27.8239L53.1705 27.3466C51.6989 26.9886 50.5369 26.429 49.6847 25.6676C48.8324 24.9062 48.4091 23.8807 48.4148 22.5909C48.4091 21.5341 48.6903 20.6108 49.2585 19.821C49.8324 19.0312 50.6193 18.4148 51.6193 17.9716C52.6193 17.5284 53.7557 17.3068 55.0284 17.3068C56.3239 17.3068 57.4545 17.5284 58.4205 17.9716C59.392 18.4148 60.1477 19.0312 60.6875 19.821C61.2273 20.6108 61.5057 21.5256 61.5227 22.5653H57.9858ZM71.1385 21.9091V24.6364H63.255V21.9091H71.1385ZM65.0447 18.7727H68.6754V30.9773C68.6754 31.3125 68.7266 31.5739 68.8288 31.7614C68.9311 31.9432 69.0732 32.071 69.255 32.1449C69.4425 32.2187 69.6584 32.2557 69.9027 32.2557C70.0732 32.2557 70.2436 32.2415 70.4141 32.2131C70.5845 32.179 70.7152 32.1534 70.8061 32.1364L71.3771 34.8381C71.1953 34.8949 70.9396 34.9602 70.6101 35.0341C70.2805 35.1136 69.88 35.1619 69.4084 35.179C68.5334 35.2131 67.7663 35.0966 67.1072 34.8295C66.4538 34.5625 65.9453 34.1477 65.5817 33.5852C65.218 33.0227 65.0391 32.3125 65.0447 31.4545V18.7727ZM79.3288 35.2557C77.9822 35.2557 76.8232 34.983 75.8516 34.4375C74.8857 33.8864 74.1413 33.108 73.6186 32.1023C73.0959 31.0909 72.8345 29.8949 72.8345 28.5142C72.8345 27.1676 73.0959 25.9858 73.6186 24.9688C74.1413 23.9517 74.8771 23.1591 75.826 22.5909C76.7805 22.0227 77.8999 21.7386 79.1839 21.7386C80.0476 21.7386 80.8516 21.8778 81.5959 22.1562C82.3459 22.429 82.9993 22.8409 83.5561 23.392C84.1186 23.9432 84.5561 24.6364 84.8686 25.4716C85.1811 26.3011 85.3374 27.2727 85.3374 28.3864V29.3835H74.2834V27.1335H81.9197C81.9197 26.6108 81.8061 26.1477 81.5788 25.7443C81.3516 25.3409 81.0362 25.0256 80.6328 24.7983C80.2351 24.5653 79.772 24.4489 79.2436 24.4489C78.6925 24.4489 78.2038 24.5767 77.7777 24.8324C77.3572 25.0824 77.0277 25.4205 76.7891 25.8466C76.5504 26.267 76.4283 26.7358 76.4226 27.2528V29.392C76.4226 30.0398 76.5419 30.5994 76.7805 31.071C77.0249 31.5426 77.3686 31.9062 77.8118 32.1619C78.255 32.4176 78.7805 32.5455 79.3885 32.5455C79.7919 32.5455 80.1612 32.4886 80.4964 32.375C80.8317 32.2614 81.1186 32.0909 81.3572 31.8636C81.5959 31.6364 81.7777 31.358 81.9027 31.0284L85.2607 31.25C85.0902 32.0568 84.7408 32.7614 84.2124 33.3636C83.6896 33.9602 83.0135 34.4261 82.1839 34.7614C81.3601 35.0909 80.4084 35.2557 79.3288 35.2557ZM87.7067 39.9091V21.9091H91.2862V24.108H91.4482C91.6072 23.7557 91.8374 23.3977 92.1385 23.0341C92.4453 22.6648 92.843 22.358 93.3317 22.1136C93.826 21.8636 94.4396 21.7386 95.1726 21.7386C96.1271 21.7386 97.0078 21.9886 97.8146 22.4886C98.6214 22.983 99.2663 23.7301 99.7493 24.7301C100.232 25.7244 100.474 26.9716 100.474 28.4716C100.474 29.9318 100.238 31.1648 99.7663 32.1705C99.3004 33.1705 98.6641 33.929 97.8572 34.446C97.0561 34.9574 96.1584 35.2131 95.1641 35.2131C94.4595 35.2131 93.8601 35.0966 93.3658 34.8636C92.8771 34.6307 92.4766 34.3381 92.1641 33.9858C91.8516 33.6278 91.6129 33.267 91.4482 32.9034H91.3374V39.9091H87.7067ZM91.2607 28.4545C91.2607 29.233 91.3686 29.9119 91.5845 30.4915C91.8004 31.071 92.1129 31.5227 92.522 31.8466C92.9311 32.1648 93.4283 32.3239 94.0135 32.3239C94.6044 32.3239 95.1044 32.1619 95.5135 31.8381C95.9226 31.5085 96.2322 31.054 96.4425 30.4744C96.6584 29.8892 96.7663 29.2159 96.7663 28.4545C96.7663 27.6989 96.6612 27.0341 96.451 26.4602C96.2408 25.8864 95.9311 25.4375 95.522 25.1136C95.1129 24.7898 94.6101 24.6278 94.0135 24.6278C93.4226 24.6278 92.9226 24.7841 92.5135 25.0966C92.1101 25.4091 91.8004 25.8523 91.5845 26.4261C91.3686 27 91.2607 27.6761 91.2607 28.4545ZM112.207 17.5455V35H108.517V17.5455H112.207ZM118.806 27.4318V35H115.175V21.9091H118.636V24.2188H118.789C119.079 23.4574 119.565 22.8551 120.246 22.4119C120.928 21.9631 121.755 21.7386 122.727 21.7386C123.636 21.7386 124.428 21.9375 125.104 22.3352C125.781 22.733 126.306 23.3011 126.681 24.0398C127.056 24.7727 127.244 25.6477 127.244 26.6648V35H123.613V27.3125C123.619 26.5114 123.414 25.8864 122.999 25.4375C122.585 24.983 122.013 24.7557 121.286 24.7557C120.798 24.7557 120.366 24.8608 119.991 25.071C119.621 25.2812 119.332 25.5881 119.121 25.9915C118.917 26.3892 118.812 26.8693 118.806 27.4318ZM140.997 25.642L137.673 25.8466C137.616 25.5625 137.494 25.3068 137.307 25.0795C137.119 24.8466 136.872 24.6619 136.565 24.5256C136.264 24.3835 135.903 24.3125 135.483 24.3125C134.92 24.3125 134.446 24.4318 134.06 24.6705C133.673 24.9034 133.48 25.2159 133.48 25.608C133.48 25.9205 133.605 26.1847 133.855 26.4006C134.105 26.6165 134.534 26.7898 135.142 26.9205L137.511 27.3977C138.784 27.6591 139.733 28.0795 140.358 28.6591C140.983 29.2386 141.295 30 141.295 30.9432C141.295 31.8011 141.043 32.554 140.537 33.2017C140.037 33.8494 139.349 34.3551 138.474 34.7188C137.605 35.0767 136.602 35.2557 135.466 35.2557C133.733 35.2557 132.352 34.8949 131.324 34.1733C130.301 33.446 129.702 32.4574 129.526 31.2074L133.097 31.0199C133.205 31.5483 133.466 31.9517 133.881 32.2301C134.295 32.5028 134.827 32.6392 135.474 32.6392C136.111 32.6392 136.622 32.517 137.009 32.2727C137.401 32.0227 137.599 31.7017 137.605 31.3097C137.599 30.9801 137.46 30.7102 137.188 30.5C136.915 30.2841 136.494 30.1193 135.926 30.0057L133.659 29.554C132.381 29.2983 131.429 28.8551 130.804 28.2244C130.185 27.5937 129.875 26.7898 129.875 25.8125C129.875 24.9716 130.102 24.2472 130.557 23.6392C131.017 23.0312 131.662 22.5625 132.491 22.233C133.327 21.9034 134.304 21.7386 135.423 21.7386C137.077 21.7386 138.378 22.0881 139.327 22.7869C140.281 23.4858 140.838 24.4375 140.997 25.642ZM143.582 35V21.9091H147.212V35H143.582ZM145.406 20.2216C144.866 20.2216 144.403 20.0426 144.016 19.6847C143.636 19.321 143.445 18.8864 143.445 18.3807C143.445 17.8807 143.636 17.4517 144.016 17.0938C144.403 16.7301 144.866 16.5483 145.406 16.5483C145.945 16.5483 146.406 16.7301 146.786 17.0938C147.173 17.4517 147.366 17.8807 147.366 18.3807C147.366 18.8864 147.173 19.321 146.786 19.6847C146.406 20.0426 145.945 20.2216 145.406 20.2216ZM154.945 35.2131C153.95 35.2131 153.05 34.9574 152.243 34.446C151.442 33.929 150.805 33.1705 150.334 32.1705C149.868 31.1648 149.635 29.9318 149.635 28.4716C149.635 26.9716 149.876 25.7244 150.359 24.7301C150.842 23.7301 151.484 22.983 152.286 22.4886C153.092 21.9886 153.976 21.7386 154.936 21.7386C155.669 21.7386 156.28 21.8636 156.768 22.1136C157.263 22.358 157.661 22.6648 157.962 23.0341C158.268 23.3977 158.501 23.7557 158.661 24.108H158.771V17.5455H162.393V35H158.814V32.9034H158.661C158.49 33.267 158.249 33.6278 157.936 33.9858C157.629 34.3381 157.229 34.6307 156.734 34.8636C156.246 35.0966 155.649 35.2131 154.945 35.2131ZM156.095 32.3239C156.68 32.3239 157.175 32.1648 157.578 31.8466C157.987 31.5227 158.3 31.071 158.516 30.4915C158.737 29.9119 158.848 29.233 158.848 28.4545C158.848 27.6761 158.74 27 158.524 26.4261C158.308 25.8523 157.996 25.4091 157.587 25.0966C157.178 24.7841 156.68 24.6278 156.095 24.6278C155.499 24.6278 154.996 24.7898 154.587 25.1136C154.178 25.4375 153.868 25.8864 153.658 26.4602C153.447 27.0341 153.342 27.6989 153.342 28.4545C153.342 29.2159 153.447 29.8892 153.658 30.4744C153.874 31.054 154.183 31.5085 154.587 31.8381C154.996 32.1619 155.499 32.3239 156.095 32.3239ZM171.344 35.2557C169.998 35.2557 168.839 34.983 167.867 34.4375C166.901 33.8864 166.157 33.108 165.634 32.1023C165.112 31.0909 164.85 29.8949 164.85 28.5142C164.85 27.1676 165.112 25.9858 165.634 24.9688C166.157 23.9517 166.893 23.1591 167.842 22.5909C168.796 22.0227 169.915 21.7386 171.2 21.7386C172.063 21.7386 172.867 21.8778 173.612 22.1562C174.362 22.429 175.015 22.8409 175.572 23.392C176.134 23.9432 176.572 24.6364 176.884 25.4716C177.197 26.3011 177.353 27.2727 177.353 28.3864V29.3835H166.299V27.1335H173.935C173.935 26.6108 173.822 26.1477 173.594 25.7443C173.367 25.3409 173.052 25.0256 172.648 24.7983C172.251 24.5653 171.788 24.4489 171.259 24.4489C170.708 24.4489 170.219 24.5767 169.793 24.8324C169.373 25.0824 169.043 25.4205 168.805 25.8466C168.566 26.267 168.444 26.7358 168.438 27.2528V29.392C168.438 30.0398 168.558 30.5994 168.796 31.071C169.04 31.5426 169.384 31.9062 169.827 32.1619C170.271 32.4176 170.796 32.5455 171.404 32.5455C171.808 32.5455 172.177 32.4886 172.512 32.375C172.847 32.2614 173.134 32.0909 173.373 31.8636C173.612 31.6364 173.793 31.358 173.918 31.0284L177.276 31.25C177.106 32.0568 176.756 32.7614 176.228 33.3636C175.705 33.9602 175.029 34.4261 174.2 34.7614C173.376 35.0909 172.424 35.2557 171.344 35.2557Z" fill="#3E2522"/>
</svg>
