<svg width="606" height="32" viewBox="0 0 606 32" fill="none" xmlns="http://www.w3.org/2000/svg">
<path d="M0.818182 1.72727H4.04545L10.5 12.5909H10.7727L17.2273 1.72727H20.4545L12.0455 15.4091V25H9.22727V15.4091L0.818182 1.72727ZM30.598 25.3636C29.0222 25.3636 27.6396 24.9886 26.4502 24.2386C25.2684 23.4886 24.3442 22.4394 23.6775 21.0909C23.0184 19.7424 22.6889 18.1667 22.6889 16.3636C22.6889 14.5455 23.0184 12.9583 23.6775 11.6023C24.3442 10.2462 25.2684 9.19318 26.4502 8.44318C27.6396 7.69318 29.0222 7.31818 30.598 7.31818C32.1737 7.31818 33.5525 7.69318 34.7343 8.44318C35.9237 9.19318 36.848 10.2462 37.507 11.6023C38.1737 12.9583 38.507 14.5455 38.507 16.3636C38.507 18.1667 38.1737 19.7424 37.507 21.0909C36.848 22.4394 35.9237 23.4886 34.7343 24.2386C33.5525 24.9886 32.1737 25.3636 30.598 25.3636ZM30.598 22.9545C31.7949 22.9545 32.7798 22.6477 33.5525 22.0341C34.3252 21.4205 34.8972 20.6136 35.2684 19.6136C35.6396 18.6136 35.8252 17.5303 35.8252 16.3636C35.8252 15.197 35.6396 14.1098 35.2684 13.1023C34.8972 12.0947 34.3252 11.2803 33.5525 10.6591C32.7798 10.0379 31.7949 9.72727 30.598 9.72727C29.401 9.72727 28.4161 10.0379 27.6434 10.6591C26.8707 11.2803 26.2987 12.0947 25.9275 13.1023C25.5563 14.1098 25.3707 15.197 25.3707 16.3636C25.3707 17.5303 25.5563 18.6136 25.9275 19.6136C26.2987 20.6136 26.8707 21.4205 27.6434 22.0341C28.4161 22.6477 29.401 22.9545 30.598 22.9545ZM55.8408 17.8636V7.54545H58.5226V25H55.8408V22.0455H55.659C55.2499 22.9318 54.6135 23.6856 53.7499 24.3068C52.8862 24.9205 51.7953 25.2273 50.4772 25.2273C49.3862 25.2273 48.4166 24.9886 47.5681 24.5114C46.7196 24.0265 46.0529 23.2992 45.5681 22.3295C45.0832 21.3523 44.8408 20.1212 44.8408 18.6364V7.54545H47.5226V18.4545C47.5226 19.7273 47.8787 20.7424 48.5908 21.5C49.3105 22.2576 50.2272 22.6364 51.3408 22.6364C52.0075 22.6364 52.6855 22.4659 53.3749 22.125C54.0719 21.7841 54.6552 21.2614 55.1249 20.5568C55.6022 19.8523 55.8408 18.9545 55.8408 17.8636ZM68.5069 1.72727V3.77273C68.5069 4.39394 68.3933 5.05682 68.166 5.76136C67.9463 6.45833 67.6206 7.13636 67.1888 7.79545C66.7645 8.44697 66.2494 9.01515 65.6433 9.5L64.1888 8.31818C64.666 7.63636 65.0789 6.92803 65.4274 6.19318C65.7834 5.45076 65.9615 4.65909 65.9615 3.81818V1.72727H68.5069ZM89.031 7.54545L82.5765 25H79.8492L73.3947 7.54545H76.3037L81.1219 21.4545H81.3037L86.1219 7.54545H89.031ZM101.504 25.3636C99.8222 25.3636 98.3714 24.9924 97.1517 24.25C95.9396 23.5 95.004 22.4545 94.3449 21.1136C93.6934 19.7652 93.3676 18.197 93.3676 16.4091C93.3676 14.6212 93.6934 13.0455 94.3449 11.6818C95.004 10.3106 95.9206 9.24242 97.0949 8.47727C98.2767 7.70455 99.6555 7.31818 101.231 7.31818C102.14 7.31818 103.038 7.4697 103.924 7.77273C104.811 8.07576 105.618 8.56818 106.345 9.25C107.072 9.92424 107.652 10.8182 108.084 11.9318C108.515 13.0455 108.731 14.4167 108.731 16.0455V17.1818H95.2767V14.8636H106.004C106.004 13.8788 105.807 13 105.413 12.2273C105.027 11.4545 104.474 10.8447 103.754 10.3977C103.042 9.95076 102.201 9.72727 101.231 9.72727C100.163 9.72727 99.2388 9.99242 98.4585 10.5227C97.6858 11.0455 97.0911 11.7273 96.6744 12.5682C96.2578 13.4091 96.0494 14.3106 96.0494 15.2727V16.8182C96.0494 18.1364 96.2767 19.2538 96.7312 20.1705C97.1934 21.0795 97.8335 21.7727 98.6517 22.25C99.4699 22.7197 100.421 22.9545 101.504 22.9545C102.209 22.9545 102.845 22.8561 103.413 22.6591C103.989 22.4545 104.485 22.1515 104.902 21.75C105.318 21.3409 105.64 20.8333 105.868 20.2273L108.459 20.9545C108.186 21.8333 107.727 22.6061 107.084 23.2727C106.44 23.9318 105.644 24.447 104.697 24.8182C103.75 25.1818 102.686 25.3636 101.504 25.3636ZM128.973 14.5V25H126.291V7.54545H128.882V10.2727H129.109C129.518 9.38636 130.139 8.67424 130.973 8.13636C131.806 7.59091 132.882 7.31818 134.2 7.31818C135.382 7.31818 136.416 7.56061 137.302 8.04545C138.189 8.52273 138.878 9.25 139.37 10.2273C139.863 11.197 140.109 12.4242 140.109 13.9091V25H137.427V14.0909C137.427 12.7197 137.071 11.6515 136.359 10.8864C135.647 10.1136 134.67 9.72727 133.427 9.72727C132.571 9.72727 131.806 9.91288 131.132 10.2841C130.465 10.6553 129.939 11.197 129.552 11.9091C129.166 12.6212 128.973 13.4848 128.973 14.5ZM154.568 25.3636C152.886 25.3636 151.435 24.9924 150.215 24.25C149.003 23.5 148.068 22.4545 147.409 21.1136C146.757 19.7652 146.431 18.197 146.431 16.4091C146.431 14.6212 146.757 13.0455 147.409 11.6818C148.068 10.3106 148.984 9.24242 150.159 8.47727C151.34 7.70455 152.719 7.31818 154.295 7.31818C155.204 7.31818 156.102 7.4697 156.988 7.77273C157.875 8.07576 158.681 8.56818 159.409 9.25C160.136 9.92424 160.715 10.8182 161.147 11.9318C161.579 13.0455 161.795 14.4167 161.795 16.0455V17.1818H148.34V14.8636H159.068C159.068 13.8788 158.871 13 158.477 12.2273C158.09 11.4545 157.537 10.8447 156.818 10.3977C156.106 9.95076 155.265 9.72727 154.295 9.72727C153.227 9.72727 152.303 9.99242 151.522 10.5227C150.75 11.0455 150.155 11.7273 149.738 12.5682C149.322 13.4091 149.113 14.3106 149.113 15.2727V16.8182C149.113 18.1364 149.34 19.2538 149.795 20.1705C150.257 21.0795 150.897 21.7727 151.715 22.25C152.534 22.7197 153.484 22.9545 154.568 22.9545C155.272 22.9545 155.909 22.8561 156.477 22.6591C157.053 22.4545 157.549 22.1515 157.965 21.75C158.382 21.3409 158.704 20.8333 158.931 20.2273L161.522 20.9545C161.25 21.8333 160.791 22.6061 160.147 23.2727C159.503 23.9318 158.708 24.447 157.761 24.8182C156.814 25.1818 155.75 25.3636 154.568 25.3636ZM181.856 7.54545L175.401 25H172.674L166.22 7.54545H169.129L173.947 21.4545H174.129L178.947 7.54545H181.856ZM194.329 25.3636C192.647 25.3636 191.196 24.9924 189.977 24.25C188.765 23.5 187.829 22.4545 187.17 21.1136C186.518 19.7652 186.193 18.197 186.193 16.4091C186.193 14.6212 186.518 13.0455 187.17 11.6818C187.829 10.3106 188.746 9.24242 189.92 8.47727C191.102 7.70455 192.48 7.31818 194.056 7.31818C194.965 7.31818 195.863 7.4697 196.749 7.77273C197.636 8.07576 198.443 8.56818 199.17 9.25C199.897 9.92424 200.477 10.8182 200.909 11.9318C201.34 13.0455 201.556 14.4167 201.556 16.0455V17.1818H188.102V14.8636H198.829C198.829 13.8788 198.632 13 198.238 12.2273C197.852 11.4545 197.299 10.8447 196.579 10.3977C195.867 9.95076 195.026 9.72727 194.056 9.72727C192.988 9.72727 192.064 9.99242 191.284 10.5227C190.511 11.0455 189.916 11.7273 189.499 12.5682C189.083 13.4091 188.874 14.3106 188.874 15.2727V16.8182C188.874 18.1364 189.102 19.2538 189.556 20.1705C190.018 21.0795 190.659 21.7727 191.477 22.25C192.295 22.7197 193.246 22.9545 194.329 22.9545C195.034 22.9545 195.67 22.8561 196.238 22.6591C196.814 22.4545 197.31 22.1515 197.727 21.75C198.143 21.3409 198.465 20.8333 198.693 20.2273L201.284 20.9545C201.011 21.8333 200.552 22.6061 199.909 23.2727C199.265 23.9318 198.469 24.447 197.522 24.8182C196.575 25.1818 195.511 25.3636 194.329 25.3636ZM207.876 25V7.54545H210.467V10.1818H210.649C210.967 9.31818 211.542 8.61742 212.376 8.07954C213.209 7.54167 214.149 7.27273 215.194 7.27273C215.391 7.27273 215.637 7.27651 215.933 7.28409C216.228 7.29167 216.452 7.30303 216.603 7.31818V10.0455C216.512 10.0227 216.304 9.98864 215.978 9.94318C215.66 9.89015 215.323 9.86364 214.967 9.86364C214.118 9.86364 213.361 10.0417 212.694 10.3977C212.035 10.7462 211.512 11.2311 211.126 11.8523C210.747 12.4659 210.558 13.1667 210.558 13.9545V25H207.876ZM245.626 11.4545L243.217 12.1364C243.065 11.7348 242.842 11.3447 242.546 10.9659C242.258 10.5795 241.864 10.2614 241.364 10.0114C240.864 9.76136 240.224 9.63636 239.444 9.63636C238.376 9.63636 237.486 9.88258 236.773 10.375C236.069 10.8598 235.717 11.4773 235.717 12.2273C235.717 12.8939 235.959 13.4205 236.444 13.8068C236.929 14.1932 237.686 14.5152 238.717 14.7727L241.307 15.4091C242.868 15.7879 244.031 16.3674 244.796 17.1477C245.561 17.9205 245.944 18.9167 245.944 20.1364C245.944 21.1364 245.656 22.0303 245.08 22.8182C244.512 23.6061 243.717 24.2273 242.694 24.6818C241.671 25.1364 240.482 25.3636 239.126 25.3636C237.345 25.3636 235.872 24.9773 234.705 24.2045C233.539 23.4318 232.8 22.303 232.489 20.8182L235.035 20.1818C235.277 21.1212 235.736 21.8258 236.41 22.2955C237.092 22.7652 237.982 23 239.08 23C240.33 23 241.323 22.7348 242.057 22.2045C242.8 21.6667 243.171 21.0227 243.171 20.2727C243.171 19.6667 242.959 19.1591 242.535 18.75C242.111 18.3333 241.459 18.0227 240.58 17.8182L237.671 17.1364C236.073 16.7576 234.898 16.1705 234.148 15.375C233.406 14.572 233.035 13.5682 233.035 12.3636C233.035 11.3788 233.311 10.5076 233.864 9.75C234.425 8.99242 235.186 8.39773 236.148 7.96591C237.118 7.53409 238.217 7.31818 239.444 7.31818C241.171 7.31818 242.527 7.69697 243.512 8.45454C244.504 9.21212 245.209 10.2121 245.626 11.4545ZM259.539 25.3636C257.857 25.3636 256.406 24.9924 255.187 24.25C253.975 23.5 253.039 22.4545 252.38 21.1136C251.728 19.7652 251.403 18.197 251.403 16.4091C251.403 14.6212 251.728 13.0455 252.38 11.6818C253.039 10.3106 253.956 9.24242 255.13 8.47727C256.312 7.70455 257.69 7.31818 259.266 7.31818C260.175 7.31818 261.073 7.4697 261.959 7.77273C262.846 8.07576 263.653 8.56818 264.38 9.25C265.107 9.92424 265.687 10.8182 266.119 11.9318C266.55 13.0455 266.766 14.4167 266.766 16.0455V17.1818H253.312V14.8636H264.039C264.039 13.8788 263.842 13 263.448 12.2273C263.062 11.4545 262.509 10.8447 261.789 10.3977C261.077 9.95076 260.236 9.72727 259.266 9.72727C258.198 9.72727 257.274 9.99242 256.494 10.5227C255.721 11.0455 255.126 11.7273 254.709 12.5682C254.293 13.4091 254.084 14.3106 254.084 15.2727V16.8182C254.084 18.1364 254.312 19.2538 254.766 20.1705C255.228 21.0795 255.869 21.7727 256.687 22.25C257.505 22.7197 258.456 22.9545 259.539 22.9545C260.244 22.9545 260.88 22.8561 261.448 22.6591C262.024 22.4545 262.52 22.1515 262.937 21.75C263.353 21.3409 263.675 20.8333 263.903 20.2273L266.494 20.9545C266.221 21.8333 265.762 22.6061 265.119 23.2727C264.475 23.9318 263.679 24.447 262.732 24.8182C261.785 25.1818 260.721 25.3636 259.539 25.3636ZM280.404 25.3636C278.722 25.3636 277.271 24.9924 276.052 24.25C274.84 23.5 273.904 22.4545 273.245 21.1136C272.593 19.7652 272.268 18.197 272.268 16.4091C272.268 14.6212 272.593 13.0455 273.245 11.6818C273.904 10.3106 274.821 9.24242 275.995 8.47727C277.177 7.70455 278.555 7.31818 280.131 7.31818C281.04 7.31818 281.938 7.4697 282.824 7.77273C283.711 8.07576 284.518 8.56818 285.245 9.25C285.972 9.92424 286.552 10.8182 286.984 11.9318C287.415 13.0455 287.631 14.4167 287.631 16.0455V17.1818H274.177V14.8636H284.904C284.904 13.8788 284.707 13 284.313 12.2273C283.927 11.4545 283.374 10.8447 282.654 10.3977C281.942 9.95076 281.101 9.72727 280.131 9.72727C279.063 9.72727 278.139 9.99242 277.359 10.5227C276.586 11.0455 275.991 11.7273 275.574 12.5682C275.158 13.4091 274.949 14.3106 274.949 15.2727V16.8182C274.949 18.1364 275.177 19.2538 275.631 20.1705C276.093 21.0795 276.734 21.7727 277.552 22.25C278.37 22.7197 279.321 22.9545 280.404 22.9545C281.109 22.9545 281.745 22.8561 282.313 22.6591C282.889 22.4545 283.385 22.1515 283.802 21.75C284.218 21.3409 284.54 20.8333 284.768 20.2273L287.359 20.9545C287.086 21.8333 286.627 22.6061 285.984 23.2727C285.34 23.9318 284.544 24.447 283.597 24.8182C282.65 25.1818 281.586 25.3636 280.404 25.3636ZM296.633 14.5V25H293.951V7.54545H296.542V10.2727H296.769C297.178 9.38636 297.799 8.67424 298.633 8.13636C299.466 7.59091 300.542 7.31818 301.86 7.31818C303.042 7.31818 304.076 7.56061 304.962 8.04545C305.849 8.52273 306.538 9.25 307.03 10.2273C307.523 11.197 307.769 12.4242 307.769 13.9091V25H305.087V14.0909C305.087 12.7197 304.731 11.6515 304.019 10.8864C303.307 10.1136 302.33 9.72727 301.087 9.72727C300.231 9.72727 299.466 9.91288 298.792 10.2841C298.125 10.6553 297.599 11.197 297.212 11.9091C296.826 12.6212 296.633 13.4848 296.633 14.5ZM327.877 31.5455C327.422 31.5455 327.017 31.5076 326.661 31.4318C326.305 31.3636 326.059 31.2955 325.922 31.2273L326.604 28.8636C327.256 29.0303 327.831 29.0909 328.331 29.0455C328.831 29 329.275 28.7765 329.661 28.375C330.055 27.9811 330.415 27.3409 330.74 26.4545L331.24 25.0909L324.786 7.54545H327.695L332.513 21.4545H332.695L337.513 7.54545H340.422L333.013 27.5455C332.68 28.447 332.267 29.1932 331.775 29.7841C331.282 30.3826 330.71 30.8258 330.059 31.1136C329.415 31.4015 328.687 31.5455 327.877 31.5455ZM352.668 25.3636C351.092 25.3636 349.71 24.9886 348.52 24.2386C347.338 23.4886 346.414 22.4394 345.747 21.0909C345.088 19.7424 344.759 18.1667 344.759 16.3636C344.759 14.5455 345.088 12.9583 345.747 11.6023C346.414 10.2462 347.338 9.19318 348.52 8.44318C349.71 7.69318 351.092 7.31818 352.668 7.31818C354.244 7.31818 355.622 7.69318 356.804 8.44318C357.994 9.19318 358.918 10.2462 359.577 11.6023C360.244 12.9583 360.577 14.5455 360.577 16.3636C360.577 18.1667 360.244 19.7424 359.577 21.0909C358.918 22.4394 357.994 23.4886 356.804 24.2386C355.622 24.9886 354.244 25.3636 352.668 25.3636ZM352.668 22.9545C353.865 22.9545 354.85 22.6477 355.622 22.0341C356.395 21.4205 356.967 20.6136 357.338 19.6136C357.71 18.6136 357.895 17.5303 357.895 16.3636C357.895 15.197 357.71 14.1098 357.338 13.1023C356.967 12.0947 356.395 11.2803 355.622 10.6591C354.85 10.0379 353.865 9.72727 352.668 9.72727C351.471 9.72727 350.486 10.0379 349.713 10.6591C348.941 11.2803 348.369 12.0947 347.997 13.1023C347.626 14.1098 347.441 15.197 347.441 16.3636C347.441 17.5303 347.626 18.6136 347.997 19.6136C348.369 20.6136 348.941 21.4205 349.713 22.0341C350.486 22.6477 351.471 22.9545 352.668 22.9545ZM377.911 17.8636V7.54545H380.593V25H377.911V22.0455H377.729C377.32 22.9318 376.684 23.6856 375.82 24.3068C374.956 24.9205 373.865 25.2273 372.547 25.2273C371.456 25.2273 370.487 24.9886 369.638 24.5114C368.79 24.0265 368.123 23.2992 367.638 22.3295C367.153 21.3523 366.911 20.1212 366.911 18.6364V7.54545H369.593V18.4545C369.593 19.7273 369.949 20.7424 370.661 21.5C371.38 22.2576 372.297 22.6364 373.411 22.6364C374.077 22.6364 374.755 22.4659 375.445 22.125C376.142 21.7841 376.725 21.2614 377.195 20.5568C377.672 19.8523 377.911 18.9545 377.911 17.8636ZM387.745 25V7.54545H390.335V10.1818H390.517C390.835 9.31818 391.411 8.61742 392.245 8.07954C393.078 7.54167 394.017 7.27273 395.063 7.27273C395.26 7.27273 395.506 7.27651 395.801 7.28409C396.097 7.29167 396.32 7.30303 396.472 7.31818V10.0455C396.381 10.0227 396.173 9.98864 395.847 9.94318C395.529 9.89015 395.192 9.86364 394.835 9.86364C393.987 9.86364 393.229 10.0417 392.563 10.3977C391.904 10.7462 391.381 11.2311 390.995 11.8523C390.616 12.4659 390.426 13.1667 390.426 13.9545V25H387.745ZM414.254 11.4545L411.845 12.1364C411.694 11.7348 411.47 11.3447 411.175 10.9659C410.887 10.5795 410.493 10.2614 409.993 10.0114C409.493 9.76136 408.853 9.63636 408.073 9.63636C407.004 9.63636 406.114 9.88258 405.402 10.375C404.698 10.8598 404.345 11.4773 404.345 12.2273C404.345 12.8939 404.588 13.4205 405.073 13.8068C405.557 14.1932 406.315 14.5152 407.345 14.7727L409.936 15.4091C411.497 15.7879 412.66 16.3674 413.425 17.1477C414.19 17.9205 414.573 18.9167 414.573 20.1364C414.573 21.1364 414.285 22.0303 413.709 22.8182C413.141 23.6061 412.345 24.2273 411.323 24.6818C410.3 25.1364 409.11 25.3636 407.754 25.3636C405.974 25.3636 404.501 24.9773 403.334 24.2045C402.167 23.4318 401.429 22.303 401.118 20.8182L403.664 20.1818C403.906 21.1212 404.364 21.8258 405.039 22.2955C405.72 22.7652 406.61 23 407.709 23C408.959 23 409.951 22.7348 410.686 22.2045C411.429 21.6667 411.8 21.0227 411.8 20.2727C411.8 19.6667 411.588 19.1591 411.164 18.75C410.739 18.3333 410.088 18.0227 409.209 17.8182L406.3 17.1364C404.701 16.7576 403.527 16.1705 402.777 15.375C402.035 14.572 401.664 13.5682 401.664 12.3636C401.664 11.3788 401.94 10.5076 402.493 9.75C403.054 8.99242 403.815 8.39773 404.777 7.96591C405.747 7.53409 406.845 7.31818 408.073 7.31818C409.8 7.31818 411.156 7.69697 412.141 8.45454C413.133 9.21212 413.838 10.2121 414.254 11.4545ZM428.168 25.3636C426.486 25.3636 425.035 24.9924 423.815 24.25C422.603 23.5 421.668 22.4545 421.009 21.1136C420.357 19.7652 420.031 18.197 420.031 16.4091C420.031 14.6212 420.357 13.0455 421.009 11.6818C421.668 10.3106 422.584 9.24242 423.759 8.47727C424.94 7.70455 426.319 7.31818 427.895 7.31818C428.804 7.31818 429.702 7.4697 430.588 7.77273C431.475 8.07576 432.281 8.56818 433.009 9.25C433.736 9.92424 434.315 10.8182 434.747 11.9318C435.179 13.0455 435.395 14.4167 435.395 16.0455V17.1818H421.94V14.8636H432.668C432.668 13.8788 432.471 13 432.077 12.2273C431.69 11.4545 431.137 10.8447 430.418 10.3977C429.706 9.95076 428.865 9.72727 427.895 9.72727C426.827 9.72727 425.903 9.99242 425.122 10.5227C424.35 11.0455 423.755 11.7273 423.338 12.5682C422.922 13.4091 422.713 14.3106 422.713 15.2727V16.8182C422.713 18.1364 422.94 19.2538 423.395 20.1705C423.857 21.0795 424.497 21.7727 425.315 22.25C426.134 22.7197 427.084 22.9545 428.168 22.9545C428.872 22.9545 429.509 22.8561 430.077 22.6591C430.653 22.4545 431.149 22.1515 431.565 21.75C431.982 21.3409 432.304 20.8333 432.531 20.2273L435.122 20.9545C434.85 21.8333 434.391 22.6061 433.747 23.2727C433.103 23.9318 432.308 24.447 431.361 24.8182C430.414 25.1818 429.35 25.3636 428.168 25.3636ZM444.396 1.72727V25H441.715V1.72727H444.396ZM459.321 7.54545V9.81818H449.912V7.54545H459.321ZM452.73 25V5.13636C452.73 4.13636 452.965 3.30303 453.435 2.63636C453.904 1.9697 454.514 1.4697 455.264 1.13636C456.014 0.803029 456.806 0.636362 457.639 0.636362C458.298 0.636362 458.836 0.689393 459.253 0.795454C459.67 0.901514 459.98 0.999999 460.185 1.09091L459.412 3.40909C459.276 3.36364 459.086 3.30682 458.844 3.23864C458.609 3.17045 458.298 3.13636 457.912 3.13636C457.026 3.13636 456.385 3.35985 455.991 3.80682C455.605 4.25379 455.412 4.90909 455.412 5.77273V25H452.73ZM479.241 1.72727V25H476.56V1.72727H479.241ZM486.393 25V7.54545H489.075V25H486.393ZM487.757 4.63636C487.234 4.63636 486.783 4.45833 486.405 4.10227C486.033 3.74621 485.848 3.31818 485.848 2.81818C485.848 2.31818 486.033 1.89015 486.405 1.53409C486.783 1.17803 487.234 1 487.757 1C488.28 1 488.727 1.17803 489.098 1.53409C489.477 1.89015 489.666 2.31818 489.666 2.81818C489.666 3.31818 489.477 3.74621 489.098 4.10227C488.727 4.45833 488.28 4.63636 487.757 4.63636ZM498.727 18.6364L498.682 15.3182H499.227L506.863 7.54545H510.182L502.045 15.7727H501.818L498.727 18.6364ZM496.227 25V1.72727H498.909V25H496.227ZM507.318 25L500.5 16.3636L502.409 14.5L510.727 25H507.318ZM522.473 25.3636C520.791 25.3636 519.34 24.9924 518.12 24.25C516.908 23.5 515.973 22.4545 515.314 21.1136C514.662 19.7652 514.336 18.197 514.336 16.4091C514.336 14.6212 514.662 13.0455 515.314 11.6818C515.973 10.3106 516.889 9.24242 518.064 8.47727C519.245 7.70455 520.624 7.31818 522.2 7.31818C523.109 7.31818 524.007 7.4697 524.893 7.77273C525.78 8.07576 526.586 8.56818 527.314 9.25C528.041 9.92424 528.62 10.8182 529.052 11.9318C529.484 13.0455 529.7 14.4167 529.7 16.0455V17.1818H516.245V14.8636H526.973C526.973 13.8788 526.776 13 526.382 12.2273C525.995 11.4545 525.442 10.8447 524.723 10.3977C524.011 9.95076 523.17 9.72727 522.2 9.72727C521.132 9.72727 520.208 9.99242 519.427 10.5227C518.655 11.0455 518.06 11.7273 517.643 12.5682C517.227 13.4091 517.018 14.3106 517.018 15.2727V16.8182C517.018 18.1364 517.245 19.2538 517.7 20.1705C518.162 21.0795 518.802 21.7727 519.62 22.25C520.439 22.7197 521.389 22.9545 522.473 22.9545C523.177 22.9545 523.814 22.8561 524.382 22.6591C524.958 22.4545 525.454 22.1515 525.87 21.75C526.287 21.3409 526.609 20.8333 526.836 20.2273L529.427 20.9545C529.155 21.8333 528.696 22.6061 528.052 23.2727C527.408 23.9318 526.613 24.447 525.666 24.8182C524.719 25.1818 523.655 25.3636 522.473 25.3636ZM554.85 7.54545V9.81818H545.805V7.54545H554.85ZM548.441 3.36364H551.123V20C551.123 20.7576 551.233 21.3258 551.453 21.7045C551.68 22.0758 551.968 22.3258 552.316 22.4545C552.672 22.5758 553.047 22.6364 553.441 22.6364C553.737 22.6364 553.979 22.6212 554.169 22.5909C554.358 22.553 554.51 22.5227 554.623 22.5L555.169 24.9091C554.987 24.9773 554.733 25.0455 554.407 25.1136C554.082 25.1894 553.669 25.2273 553.169 25.2273C552.411 25.2273 551.669 25.0644 550.941 24.7386C550.222 24.4129 549.623 23.9167 549.146 23.25C548.676 22.5833 548.441 21.7424 548.441 20.7273V3.36364ZM564.181 14.5V25H561.5V1.72727H564.181V10.2727H564.409C564.818 9.37121 565.431 8.6553 566.25 8.125C567.075 7.58712 568.174 7.31818 569.545 7.31818C570.734 7.31818 571.776 7.55682 572.67 8.03409C573.564 8.50379 574.257 9.22727 574.75 10.2045C575.25 11.1742 575.5 12.4091 575.5 13.9091V25H572.818V14.0909C572.818 12.7045 572.458 11.6326 571.738 10.875C571.026 10.1098 570.037 9.72727 568.772 9.72727C567.893 9.72727 567.106 9.91288 566.409 10.2841C565.719 10.6553 565.174 11.197 564.772 11.9091C564.378 12.6212 564.181 13.4848 564.181 14.5ZM582.646 25V7.54545H585.328V25H582.646ZM584.009 4.63636C583.487 4.63636 583.036 4.45833 582.657 4.10227C582.286 3.74621 582.1 3.31818 582.1 2.81818C582.1 2.31818 582.286 1.89015 582.657 1.53409C583.036 1.17803 583.487 1 584.009 1C584.532 1 584.979 1.17803 585.35 1.53409C585.729 1.89015 585.918 2.31818 585.918 2.81818C585.918 3.31818 585.729 3.74621 585.35 4.10227C584.979 4.45833 584.532 4.63636 584.009 4.63636ZM604.843 11.4545L602.434 12.1364C602.283 11.7348 602.059 11.3447 601.764 10.9659C601.476 10.5795 601.082 10.2614 600.582 10.0114C600.082 9.76136 599.442 9.63636 598.661 9.63636C597.593 9.63636 596.703 9.88258 595.991 10.375C595.286 10.8598 594.934 11.4773 594.934 12.2273C594.934 12.8939 595.177 13.4205 595.661 13.8068C596.146 14.1932 596.904 14.5152 597.934 14.7727L600.525 15.4091C602.086 15.7879 603.249 16.3674 604.014 17.1477C604.779 17.9205 605.161 18.9167 605.161 20.1364C605.161 21.1364 604.874 22.0303 604.298 22.8182C603.73 23.6061 602.934 24.2273 601.911 24.6818C600.889 25.1364 599.699 25.3636 598.343 25.3636C596.563 25.3636 595.089 24.9773 593.923 24.2045C592.756 23.4318 592.017 22.303 591.707 20.8182L594.252 20.1818C594.495 21.1212 594.953 21.8258 595.627 22.2955C596.309 22.7652 597.199 23 598.298 23C599.548 23 600.54 22.7348 601.275 22.2045C602.017 21.6667 602.389 21.0227 602.389 20.2727C602.389 19.6667 602.177 19.1591 601.752 18.75C601.328 18.3333 600.677 18.0227 599.798 17.8182L596.889 17.1364C595.29 16.7576 594.116 16.1705 593.366 15.375C592.624 14.572 592.252 13.5682 592.252 12.3636C592.252 11.3788 592.529 10.5076 593.082 9.75C593.642 8.99242 594.404 8.39773 595.366 7.96591C596.336 7.53409 597.434 7.31818 598.661 7.31818C600.389 7.31818 601.745 7.69697 602.73 8.45454C603.722 9.21212 604.427 10.2121 604.843 11.4545Z" fill="#3D1F1A"/>
</svg>
