<svg width="653" height="280" viewBox="0 0 653 280" fill="none" xmlns="http://www.w3.org/2000/svg">
<path d="M0.857955 28.7273V0.0909052H114.636V28.7273H75.2614V131H40.233V28.7273H0.857955ZM120.812 131V0.0909052H156.351V51.2273H203.397V0.0909052H238.937V131H203.397V79.8636H156.351V131H120.812ZM248.612 131V0.0909052H342.958V28.7273H284.151V51.2273H338.1V79.8636H284.151V102.364H342.703V131H248.612ZM75.0057 187C74.6648 182.739 73.0668 179.415 70.2116 177.028C67.3991 174.642 63.1165 173.449 57.3636 173.449C53.6989 173.449 50.6946 173.896 48.3509 174.791C46.0497 175.643 44.3452 176.815 43.2372 178.307C42.1293 179.798 41.554 181.503 41.5114 183.42C41.4261 184.997 41.7031 186.425 42.3423 187.703C43.0242 188.939 44.0895 190.068 45.5384 191.091C46.9872 192.071 48.8409 192.966 51.0994 193.776C53.358 194.585 56.0426 195.31 59.1534 195.949L69.892 198.25C77.1364 199.784 83.3366 201.808 88.4929 204.322C93.6491 206.837 97.8679 209.798 101.149 213.207C104.43 216.574 106.838 220.366 108.372 224.585C109.949 228.804 110.759 233.406 110.801 238.392C110.759 247 108.607 254.287 104.345 260.253C100.084 266.219 93.9901 270.757 86.0639 273.868C78.1804 276.979 68.6989 278.534 57.6193 278.534C46.2415 278.534 36.3125 276.851 27.8324 273.484C19.3949 270.118 12.8324 264.94 8.14489 257.952C3.5 250.92 1.15625 241.929 1.11364 230.977H34.8636C35.0767 234.983 36.0781 238.349 37.8679 241.077C39.6577 243.804 42.1719 245.871 45.4105 247.277C48.6918 248.683 52.5909 249.386 57.108 249.386C60.9006 249.386 64.0753 248.918 66.6321 247.98C69.1889 247.043 71.1278 245.743 72.4489 244.081C73.7699 242.419 74.4517 240.523 74.4943 238.392C74.4517 236.389 73.7912 234.642 72.5128 233.151C71.277 231.616 69.2315 230.253 66.3764 229.06C63.5213 227.824 59.6648 226.673 54.8068 225.608L41.767 222.795C30.1761 220.281 21.0355 216.084 14.3452 210.203C7.69744 204.28 4.39489 196.205 4.4375 185.977C4.39489 177.668 6.6108 170.402 11.0852 164.18C15.6023 157.916 21.8452 153.037 29.8139 149.543C37.8253 146.048 47.0085 144.301 57.3636 144.301C67.9318 144.301 77.0724 146.07 84.7855 149.607C92.4986 153.143 98.4432 158.129 102.619 164.564C106.838 170.956 108.969 178.435 109.011 187H75.0057ZM120.72 277V146.091H156.26V197.227H203.306V146.091H238.845V277H203.306V225.864H156.26V277H120.72ZM286.126 277H247.774L290.984 146.091H339.564L382.774 277H344.421L315.785 182.142H314.762L286.126 277ZM278.967 225.352H351.069V251.943H278.967V225.352ZM391.782 277V146.091H448.288C458.004 146.091 466.505 148.009 473.792 151.844C481.079 155.679 486.747 161.07 490.795 168.016C494.843 174.962 496.867 183.08 496.867 192.369C496.867 201.744 494.779 209.862 490.603 216.723C486.47 223.584 480.653 228.868 473.153 232.575C465.695 236.283 456.981 238.136 447.009 238.136H413.259V210.523H439.85C444.026 210.523 447.585 209.798 450.525 208.349C453.508 206.858 455.788 204.749 457.364 202.021C458.984 199.294 459.793 196.077 459.793 192.369C459.793 188.619 458.984 185.423 457.364 182.781C455.788 180.097 453.508 178.051 450.525 176.645C447.585 175.196 444.026 174.472 439.85 174.472H427.322V277H391.782ZM506.307 277V146.091H600.654V174.727H541.847V197.227H595.796V225.864H541.847V248.364H600.398V277H506.307ZM634.367 279.045C629.424 279.045 625.184 277.32 621.647 273.868C618.153 270.374 616.427 266.134 616.469 261.148C616.427 256.29 618.153 252.135 621.647 248.683C625.184 245.232 629.424 243.506 634.367 243.506C639.055 243.506 643.188 245.232 646.768 248.683C650.39 252.135 652.222 256.29 652.265 261.148C652.222 264.472 651.349 267.497 649.644 270.224C647.982 272.909 645.809 275.061 643.124 276.68C640.44 278.257 637.521 279.045 634.367 279.045Z" fill="#3D1F1A"/>
</svg>
