<svg width="773" height="40" viewBox="0 0 773 40" fill="none" xmlns="http://www.w3.org/2000/svg">
<rect x="1" y="1" width="771" height="38" rx="19" stroke="#3D1F1A" stroke-width="2"/>
<path d="M43.1136 30V12.5455H45.2273V28.125H53.3409V30H43.1136ZM61.6591 30.2727C60.4773 30.2727 59.4403 29.9915 58.5483 29.429C57.6619 28.8665 56.9688 28.0795 56.4688 27.0682C55.9744 26.0568 55.7273 24.875 55.7273 23.5227C55.7273 22.1591 55.9744 20.9687 56.4688 19.9517C56.9688 18.9347 57.6619 18.1449 58.5483 17.5824C59.4403 17.0199 60.4773 16.7386 61.6591 16.7386C62.8409 16.7386 63.875 17.0199 64.7614 17.5824C65.6534 18.1449 66.3466 18.9347 66.8409 19.9517C67.3409 20.9687 67.5909 22.1591 67.5909 23.5227C67.5909 24.875 67.3409 26.0568 66.8409 27.0682C66.3466 28.0795 65.6534 28.8665 64.7614 29.429C63.875 29.9915 62.8409 30.2727 61.6591 30.2727ZM61.6591 28.4659C62.5568 28.4659 63.2955 28.2358 63.875 27.7756C64.4545 27.3153 64.8835 26.7102 65.1619 25.9602C65.4403 25.2102 65.5795 24.3977 65.5795 23.5227C65.5795 22.6477 65.4403 21.8324 65.1619 21.0767C64.8835 20.321 64.4545 19.7102 63.875 19.2443C63.2955 18.7784 62.5568 18.5455 61.6591 18.5455C60.7614 18.5455 60.0227 18.7784 59.4432 19.2443C58.8636 19.7102 58.4347 20.321 58.1562 21.0767C57.8778 21.8324 57.7386 22.6477 57.7386 23.5227C57.7386 24.3977 57.8778 25.2102 58.1562 25.9602C58.4347 26.7102 58.8636 27.3153 59.4432 27.7756C60.0227 28.2358 60.7614 28.4659 61.6591 28.4659ZM72.6726 22.125V30H70.6612V16.9091H72.6044V18.9545H72.7749C73.0817 18.2898 73.5476 17.7557 74.1726 17.3523C74.7976 16.9432 75.6044 16.7386 76.593 16.7386C77.4794 16.7386 78.255 16.9205 78.9197 17.2841C79.5845 17.642 80.1016 18.1875 80.4709 18.9205C80.8402 19.6477 81.0249 20.5682 81.0249 21.6818V30H79.0135V21.8182C79.0135 20.7898 78.7464 19.9886 78.2124 19.4148C77.6783 18.8352 76.9453 18.5455 76.0135 18.5455C75.3714 18.5455 74.7976 18.6847 74.2919 18.9631C73.7919 19.2415 73.397 19.6477 73.1072 20.1818C72.8175 20.7159 72.6726 21.3636 72.6726 22.125ZM90.1889 30.2727C88.9276 30.2727 87.8395 29.9943 86.9247 29.4375C86.0156 28.875 85.3139 28.0909 84.8196 27.0852C84.331 26.0739 84.0866 24.8977 84.0866 23.5568C84.0866 22.2159 84.331 21.0341 84.8196 20.0114C85.3139 18.983 86.0014 18.1818 86.8821 17.608C87.7685 17.0284 88.8026 16.7386 89.9844 16.7386C90.6662 16.7386 91.3395 16.8523 92.0043 17.0795C92.669 17.3068 93.2741 17.6761 93.8196 18.1875C94.3651 18.6932 94.7997 19.3636 95.1236 20.1989C95.4474 21.0341 95.6094 22.0625 95.6094 23.2841V24.1364H85.5185V22.3977H93.5639C93.5639 21.6591 93.4162 21 93.1207 20.4205C92.831 19.8409 92.4162 19.3835 91.8764 19.0483C91.3423 18.7131 90.7116 18.5455 89.9844 18.5455C89.1832 18.5455 88.4901 18.7443 87.9048 19.142C87.3253 19.5341 86.8793 20.0455 86.5668 20.6761C86.2543 21.3068 86.098 21.983 86.098 22.7045V23.8636C86.098 24.8523 86.2685 25.6903 86.6094 26.3778C86.956 27.0597 87.4361 27.5795 88.0497 27.9375C88.6634 28.2898 89.3764 28.4659 90.1889 28.4659C90.7173 28.4659 91.1946 28.392 91.6207 28.2443C92.0526 28.0909 92.4247 27.8636 92.7372 27.5625C93.0497 27.2557 93.2912 26.875 93.4616 26.4205L95.4048 26.9659C95.2003 27.625 94.8565 28.2045 94.3736 28.7045C93.8906 29.1989 93.294 29.5852 92.5838 29.8636C91.8736 30.1364 91.0753 30.2727 90.1889 30.2727ZM114.692 19.8409L112.885 20.3523C112.771 20.0511 112.604 19.7585 112.382 19.4744C112.166 19.1847 111.871 18.946 111.496 18.7585C111.121 18.571 110.641 18.4773 110.055 18.4773C109.254 18.4773 108.587 18.6619 108.053 19.0312C107.524 19.3949 107.26 19.858 107.26 20.4205C107.26 20.9205 107.442 21.3153 107.805 21.6051C108.169 21.8949 108.737 22.1364 109.51 22.3295L111.453 22.8068C112.624 23.0909 113.496 23.5256 114.07 24.1108C114.643 24.6903 114.93 25.4375 114.93 26.3523C114.93 27.1023 114.714 27.7727 114.283 28.3636C113.857 28.9545 113.26 29.4205 112.493 29.7614C111.726 30.1023 110.834 30.2727 109.817 30.2727C108.482 30.2727 107.376 29.983 106.501 29.4034C105.626 28.8239 105.072 27.9773 104.839 26.8636L106.749 26.3864C106.93 27.0909 107.274 27.6193 107.78 27.9716C108.291 28.3239 108.959 28.5 109.783 28.5C110.72 28.5 111.464 28.3011 112.016 27.9034C112.572 27.5 112.851 27.017 112.851 26.4545C112.851 26 112.692 25.6193 112.374 25.3125C112.055 25 111.567 24.767 110.908 24.6136L108.726 24.1023C107.527 23.8182 106.646 23.3778 106.084 22.7812C105.527 22.179 105.249 21.4261 105.249 20.5227C105.249 19.7841 105.456 19.1307 105.871 18.5625C106.291 17.9943 106.862 17.5483 107.584 17.2244C108.311 16.9006 109.135 16.7386 110.055 16.7386C111.351 16.7386 112.368 17.0227 113.107 17.5909C113.851 18.1591 114.379 18.9091 114.692 19.8409ZM119.969 12.5455V30H117.958V12.5455H119.969ZM123.653 30V16.9091H125.665V30H123.653ZM124.676 14.7273C124.284 14.7273 123.946 14.5938 123.662 14.3267C123.384 14.0597 123.244 13.7386 123.244 13.3636C123.244 12.9886 123.384 12.6676 123.662 12.4006C123.946 12.1335 124.284 12 124.676 12C125.068 12 125.403 12.1335 125.682 12.4006C125.966 12.6676 126.108 12.9886 126.108 13.3636C126.108 13.7386 125.966 14.0597 125.682 14.3267C125.403 14.5938 125.068 14.7273 124.676 14.7273ZM134.667 30.2727C133.44 30.2727 132.383 29.983 131.496 29.4034C130.61 28.8239 129.928 28.0256 129.451 27.0085C128.974 25.9915 128.735 24.8295 128.735 23.5227C128.735 22.1932 128.979 21.0199 129.468 20.0028C129.962 18.9801 130.65 18.1818 131.531 17.608C132.417 17.0284 133.451 16.7386 134.633 16.7386C135.553 16.7386 136.383 16.9091 137.121 17.25C137.86 17.5909 138.465 18.0682 138.937 18.6818C139.408 19.2955 139.701 20.0114 139.815 20.8295H137.803C137.65 20.233 137.309 19.7045 136.781 19.2443C136.258 18.7784 135.553 18.5455 134.667 18.5455C133.883 18.5455 133.195 18.75 132.604 19.1591C132.019 19.5625 131.562 20.1335 131.232 20.8722C130.908 21.6051 130.746 22.4659 130.746 23.4545C130.746 24.4659 130.906 25.3466 131.224 26.0966C131.548 26.8466 132.002 27.429 132.587 27.8438C133.178 28.2585 133.871 28.4659 134.667 28.4659C135.19 28.4659 135.664 28.375 136.09 28.1932C136.516 28.0114 136.877 27.75 137.173 27.4091C137.468 27.0682 137.678 26.6591 137.803 26.1818H139.815C139.701 26.9545 139.42 27.6506 138.971 28.2699C138.528 28.8835 137.94 29.3722 137.207 29.7358C136.479 30.0938 135.633 30.2727 134.667 30.2727ZM148.244 30.2727C146.982 30.2727 145.894 29.9943 144.979 29.4375C144.07 28.875 143.369 28.0909 142.874 27.0852C142.386 26.0739 142.141 24.8977 142.141 23.5568C142.141 22.2159 142.386 21.0341 142.874 20.0114C143.369 18.983 144.056 18.1818 144.937 17.608C145.823 17.0284 146.857 16.7386 148.039 16.7386C148.721 16.7386 149.394 16.8523 150.059 17.0795C150.724 17.3068 151.329 17.6761 151.874 18.1875C152.42 18.6932 152.854 19.3636 153.178 20.1989C153.502 21.0341 153.664 22.0625 153.664 23.2841V24.1364H143.573V22.3977H151.619C151.619 21.6591 151.471 21 151.175 20.4205C150.886 19.8409 150.471 19.3835 149.931 19.0483C149.397 18.7131 148.766 18.5455 148.039 18.5455C147.238 18.5455 146.545 18.7443 145.96 19.142C145.38 19.5341 144.934 20.0455 144.621 20.6761C144.309 21.3068 144.153 21.983 144.153 22.7045V23.8636C144.153 24.8523 144.323 25.6903 144.664 26.3778C145.011 27.0597 145.491 27.5795 146.104 27.9375C146.718 28.2898 147.431 28.4659 148.244 28.4659C148.772 28.4659 149.249 28.392 149.675 28.2443C150.107 28.0909 150.479 27.8636 150.792 27.5625C151.104 27.2557 151.346 26.875 151.516 26.4205L153.46 26.9659C153.255 27.625 152.911 28.2045 152.428 28.7045C151.945 29.1989 151.349 29.5852 150.638 29.8636C149.928 30.1364 149.13 30.2727 148.244 30.2727ZM168.792 30.2727C167.61 30.2727 166.573 29.9915 165.681 29.429C164.795 28.8665 164.102 28.0795 163.602 27.0682C163.107 26.0568 162.86 24.875 162.86 23.5227C162.86 22.1591 163.107 20.9687 163.602 19.9517C164.102 18.9347 164.795 18.1449 165.681 17.5824C166.573 17.0199 167.61 16.7386 168.792 16.7386C169.974 16.7386 171.008 17.0199 171.894 17.5824C172.786 18.1449 173.479 18.9347 173.974 19.9517C174.474 20.9687 174.724 22.1591 174.724 23.5227C174.724 24.875 174.474 26.0568 173.974 27.0682C173.479 28.0795 172.786 28.8665 171.894 29.429C171.008 29.9915 169.974 30.2727 168.792 30.2727ZM168.792 28.4659C169.69 28.4659 170.428 28.2358 171.008 27.7756C171.587 27.3153 172.016 26.7102 172.295 25.9602C172.573 25.2102 172.712 24.3977 172.712 23.5227C172.712 22.6477 172.573 21.8324 172.295 21.0767C172.016 20.321 171.587 19.7102 171.008 19.2443C170.428 18.7784 169.69 18.5455 168.792 18.5455C167.894 18.5455 167.156 18.7784 166.576 19.2443C165.996 19.7102 165.567 20.321 165.289 21.0767C165.011 21.8324 164.871 22.6477 164.871 23.5227C164.871 24.3977 165.011 25.2102 165.289 25.9602C165.567 26.7102 165.996 27.3153 166.576 27.7756C167.156 28.2358 167.894 28.4659 168.792 28.4659ZM183.624 16.9091V18.6136H176.567V16.9091H183.624ZM178.68 30V15.1023C178.68 14.3523 178.857 13.7273 179.209 13.2273C179.561 12.7273 180.018 12.3523 180.581 12.1023C181.143 11.8523 181.737 11.7273 182.362 11.7273C182.857 11.7273 183.26 11.767 183.572 11.8466C183.885 11.9261 184.118 12 184.271 12.0682L183.692 13.8068C183.589 13.7727 183.447 13.7301 183.266 13.679C183.089 13.6278 182.857 13.6023 182.567 13.6023C181.902 13.6023 181.422 13.7699 181.126 14.1051C180.837 14.4403 180.692 14.9318 180.692 15.5795V30H178.68ZM193.192 34.9091V16.9091H195.136V18.9886H195.374C195.522 18.7614 195.727 18.4716 195.988 18.1193C196.255 17.7614 196.636 17.4432 197.13 17.1648C197.63 16.8807 198.306 16.7386 199.158 16.7386C200.261 16.7386 201.232 17.0142 202.073 17.5653C202.914 18.1165 203.57 18.8977 204.042 19.9091C204.513 20.9205 204.749 22.1136 204.749 23.4886C204.749 24.875 204.513 26.0767 204.042 27.0938C203.57 28.1051 202.917 28.8892 202.082 29.446C201.246 29.9972 200.283 30.2727 199.192 30.2727C198.352 30.2727 197.678 30.1335 197.173 29.8551C196.667 29.571 196.278 29.25 196.005 28.892C195.732 28.5284 195.522 28.2273 195.374 27.9886H195.204V34.9091H193.192ZM195.17 23.4545C195.17 24.4432 195.315 25.3153 195.604 26.071C195.894 26.821 196.317 27.4091 196.874 27.8352C197.431 28.2557 198.113 28.4659 198.92 28.4659C199.761 28.4659 200.462 28.2443 201.025 27.8011C201.593 27.3523 202.019 26.75 202.303 25.9943C202.593 25.233 202.738 24.3864 202.738 23.4545C202.738 22.5341 202.596 21.7045 202.312 20.9659C202.033 20.2216 201.61 19.6335 201.042 19.2017C200.479 18.7642 199.772 18.5455 198.92 18.5455C198.102 18.5455 197.414 18.7528 196.857 19.1676C196.3 19.5767 195.88 20.1506 195.596 20.8892C195.312 21.6222 195.17 22.4773 195.17 23.4545ZM207.817 30V16.9091H209.829V30H207.817ZM208.84 14.7273C208.448 14.7273 208.11 14.5938 207.826 14.3267C207.548 14.0597 207.408 13.7386 207.408 13.3636C207.408 12.9886 207.548 12.6676 207.826 12.4006C208.11 12.1335 208.448 12 208.84 12C209.232 12 209.567 12.1335 209.846 12.4006C210.13 12.6676 210.272 12.9886 210.272 13.3636C210.272 13.7386 210.13 14.0597 209.846 14.3267C209.567 14.5938 209.232 14.7273 208.84 14.7273ZM213.138 30V28.4659L220.57 18.9205V18.7841H213.376V16.9091H223.161V18.5114L215.933 27.9886V28.125H223.399V30H213.138ZM226.122 30V28.4659L233.554 18.9205V18.7841H226.361V16.9091H236.145V18.5114L228.918 27.9886V28.125H236.384V30H226.122ZM243.334 30.3068C242.504 30.3068 241.751 30.1506 241.075 29.8381C240.399 29.5199 239.862 29.0625 239.464 28.4659C239.067 27.8636 238.868 27.1364 238.868 26.2841C238.868 25.5341 239.016 24.9261 239.311 24.4602C239.607 23.9886 240.001 23.6193 240.496 23.3523C240.99 23.0852 241.536 22.8864 242.132 22.7557C242.734 22.6193 243.339 22.5114 243.947 22.4318C244.743 22.3295 245.388 22.2528 245.882 22.2017C246.382 22.1449 246.746 22.0511 246.973 21.9205C247.206 21.7898 247.322 21.5625 247.322 21.2386V21.1705C247.322 20.3295 247.092 19.6761 246.632 19.2102C246.178 18.7443 245.487 18.5114 244.561 18.5114C243.601 18.5114 242.848 18.7216 242.303 19.142C241.757 19.5625 241.374 20.0114 241.152 20.4886L239.243 19.8068C239.584 19.0114 240.038 18.392 240.607 17.9489C241.18 17.5 241.805 17.1875 242.482 17.0114C243.163 16.8295 243.834 16.7386 244.493 16.7386C244.913 16.7386 245.396 16.7898 245.942 16.892C246.493 16.9886 247.024 17.1903 247.536 17.4972C248.053 17.804 248.482 18.267 248.822 18.8864C249.163 19.5057 249.334 20.3352 249.334 21.375V30H247.322V28.2273H247.22C247.084 28.5114 246.857 28.8153 246.538 29.1392C246.22 29.4631 245.797 29.7386 245.268 29.9659C244.74 30.1932 244.095 30.3068 243.334 30.3068ZM243.641 28.5C244.436 28.5 245.107 28.3438 245.652 28.0312C246.203 27.7188 246.618 27.3153 246.896 26.821C247.18 26.3267 247.322 25.8068 247.322 25.2614V23.4205C247.237 23.5227 247.05 23.6165 246.76 23.7017C246.476 23.7812 246.146 23.8523 245.771 23.9148C245.402 23.9716 245.041 24.0227 244.689 24.0682C244.342 24.108 244.061 24.142 243.845 24.1705C243.322 24.2386 242.834 24.3494 242.379 24.5028C241.93 24.6506 241.567 24.875 241.288 25.1761C241.016 25.4716 240.879 25.875 240.879 26.3864C240.879 27.0852 241.138 27.6136 241.655 27.9716C242.178 28.3239 242.839 28.5 243.641 28.5ZM256.005 27.6136L255.869 28.5341C255.772 29.1818 255.624 29.875 255.425 30.6136C255.232 31.3523 255.031 32.0483 254.82 32.7017C254.61 33.3551 254.437 33.875 254.3 34.2614H252.766C252.84 33.8977 252.937 33.4176 253.056 32.821C253.175 32.2244 253.295 31.5568 253.414 30.8182C253.539 30.0852 253.641 29.3352 253.721 28.5682L253.823 27.6136H256.005ZM275.754 19.8409L273.947 20.3523C273.834 20.0511 273.666 19.7585 273.445 19.4744C273.229 19.1847 272.933 18.946 272.558 18.7585C272.183 18.571 271.703 18.4773 271.118 18.4773C270.317 18.4773 269.649 18.6619 269.115 19.0312C268.587 19.3949 268.322 19.858 268.322 20.4205C268.322 20.9205 268.504 21.3153 268.868 21.6051C269.232 21.8949 269.8 22.1364 270.572 22.3295L272.516 22.8068C273.686 23.0909 274.558 23.5256 275.132 24.1108C275.706 24.6903 275.993 25.4375 275.993 26.3523C275.993 27.1023 275.777 27.7727 275.345 28.3636C274.919 28.9545 274.322 29.4205 273.555 29.7614C272.788 30.1023 271.896 30.2727 270.879 30.2727C269.544 30.2727 268.439 29.983 267.564 29.4034C266.689 28.8239 266.135 27.9773 265.902 26.8636L267.811 26.3864C267.993 27.0909 268.337 27.6193 268.842 27.9716C269.354 28.3239 270.021 28.5 270.845 28.5C271.783 28.5 272.527 28.3011 273.078 27.9034C273.635 27.5 273.913 27.017 273.913 26.4545C273.913 26 273.754 25.6193 273.436 25.3125C273.118 25 272.629 24.767 271.97 24.6136L269.788 24.1023C268.589 23.8182 267.709 23.3778 267.146 22.7812C266.589 22.179 266.311 21.4261 266.311 20.5227C266.311 19.7841 266.518 19.1307 266.933 18.5625C267.354 17.9943 267.925 17.5483 268.646 17.2244C269.374 16.9006 270.197 16.7386 271.118 16.7386C272.413 16.7386 273.43 17.0227 274.169 17.5909C274.913 18.1591 275.442 18.9091 275.754 19.8409ZM281.032 12.5455V30H279.021V12.5455H281.032ZM284.716 30V16.9091H286.727V30H284.716ZM285.739 14.7273C285.347 14.7273 285.009 14.5938 284.724 14.3267C284.446 14.0597 284.307 13.7386 284.307 13.3636C284.307 12.9886 284.446 12.6676 284.724 12.4006C285.009 12.1335 285.347 12 285.739 12C286.131 12 286.466 12.1335 286.744 12.4006C287.028 12.6676 287.17 12.9886 287.17 13.3636C287.17 13.7386 287.028 14.0597 286.744 14.3267C286.466 14.5938 286.131 14.7273 285.739 14.7273ZM295.695 35.1818C294.724 35.1818 293.888 35.0568 293.19 34.8068C292.491 34.5625 291.908 34.2386 291.442 33.8352C290.982 33.4375 290.616 33.0114 290.343 32.5568L291.945 31.4318C292.127 31.6705 292.357 31.9432 292.636 32.25C292.914 32.5625 293.295 32.8324 293.778 33.0597C294.266 33.2926 294.906 33.4091 295.695 33.4091C296.752 33.4091 297.624 33.1534 298.312 32.642C298.999 32.1307 299.343 31.3295 299.343 30.2386V27.5795H299.173C299.025 27.8182 298.815 28.1136 298.542 28.4659C298.275 28.8125 297.888 29.1222 297.383 29.3949C296.883 29.6619 296.207 29.7955 295.354 29.7955C294.298 29.7955 293.349 29.5455 292.508 29.0455C291.673 28.5455 291.011 27.8182 290.522 26.8636C290.039 25.9091 289.798 24.75 289.798 23.3864C289.798 22.0455 290.033 20.8778 290.505 19.8835C290.977 18.8835 291.633 18.1108 292.474 17.5653C293.315 17.0142 294.286 16.7386 295.388 16.7386C296.241 16.7386 296.917 16.8807 297.417 17.1648C297.923 17.4432 298.309 17.7614 298.576 18.1193C298.849 18.4716 299.059 18.7614 299.207 18.9886H299.411V16.9091H301.354V30.375C301.354 31.5 301.099 32.4148 300.587 33.1193C300.082 33.8295 299.4 34.3494 298.542 34.679C297.69 35.0142 296.741 35.1818 295.695 35.1818ZM295.627 27.9886C296.434 27.9886 297.116 27.804 297.673 27.4347C298.229 27.0653 298.653 26.5341 298.942 25.8409C299.232 25.1477 299.377 24.3182 299.377 23.3523C299.377 22.4091 299.235 21.5767 298.951 20.8551C298.667 20.1335 298.246 19.5682 297.69 19.1591C297.133 18.75 296.445 18.5455 295.627 18.5455C294.775 18.5455 294.065 18.7614 293.496 19.1932C292.934 19.625 292.511 20.2045 292.227 20.9318C291.948 21.6591 291.809 22.4659 291.809 23.3523C291.809 24.2614 291.951 25.0653 292.235 25.7642C292.525 26.4574 292.951 27.0028 293.513 27.4006C294.082 27.7926 294.786 27.9886 295.627 27.9886ZM307.048 22.125V30H305.036V12.5455H307.048V18.9545H307.218C307.525 18.2784 307.985 17.7415 308.599 17.3438C309.218 16.9403 310.042 16.7386 311.07 16.7386C311.962 16.7386 312.744 16.9176 313.414 17.2756C314.085 17.6278 314.604 18.1705 314.974 18.9034C315.349 19.6307 315.536 20.5568 315.536 21.6818V30H313.525V21.8182C313.525 20.7784 313.255 19.9744 312.715 19.4062C312.181 18.8324 311.44 18.5455 310.491 18.5455C309.832 18.5455 309.241 18.6847 308.718 18.9631C308.201 19.2415 307.792 19.6477 307.491 20.1818C307.195 20.7159 307.048 21.3636 307.048 22.125ZM324.909 16.9091V18.6136H318.125V16.9091H324.909ZM320.102 13.7727H322.114V26.25C322.114 26.8182 322.196 27.2443 322.361 27.5284C322.531 27.8068 322.747 27.9943 323.009 28.0909C323.276 28.1818 323.557 28.2273 323.852 28.2273C324.074 28.2273 324.256 28.2159 324.398 28.1932C324.54 28.1648 324.653 28.142 324.739 28.125L325.148 29.9318C325.011 29.983 324.821 30.0341 324.577 30.0852C324.332 30.142 324.023 30.1705 323.648 30.1705C323.08 30.1705 322.523 30.0483 321.977 29.804C321.438 29.5597 320.989 29.1875 320.631 28.6875C320.278 28.1875 320.102 27.5568 320.102 26.7955V13.7727ZM330.227 12.5455V30H328.216V12.5455H330.227ZM335.207 34.9091C334.866 34.9091 334.562 34.8807 334.295 34.8239C334.028 34.7727 333.843 34.7216 333.741 34.6705L334.252 32.8977C334.741 33.0227 335.173 33.0682 335.548 33.0341C335.923 33 336.255 32.8324 336.545 32.5312C336.84 32.2358 337.11 31.7557 337.354 31.0909L337.729 30.0682L332.888 16.9091H335.07L338.684 27.3409H338.82L342.434 16.9091H344.616L339.059 31.9091C338.809 32.5852 338.499 33.1449 338.13 33.5881C337.761 34.0369 337.332 34.3693 336.843 34.5852C336.36 34.8011 335.815 34.9091 335.207 34.9091ZM363.293 19.8409L361.487 20.3523C361.373 20.0511 361.205 19.7585 360.984 19.4744C360.768 19.1847 360.472 18.946 360.097 18.7585C359.722 18.571 359.242 18.4773 358.657 18.4773C357.856 18.4773 357.188 18.6619 356.654 19.0312C356.126 19.3949 355.862 19.858 355.862 20.4205C355.862 20.9205 356.043 21.3153 356.407 21.6051C356.771 21.8949 357.339 22.1364 358.112 22.3295L360.055 22.8068C361.225 23.0909 362.097 23.5256 362.671 24.1108C363.245 24.6903 363.532 25.4375 363.532 26.3523C363.532 27.1023 363.316 27.7727 362.884 28.3636C362.458 28.9545 361.862 29.4205 361.094 29.7614C360.327 30.1023 359.435 30.2727 358.418 30.2727C357.083 30.2727 355.978 29.983 355.103 29.4034C354.228 28.8239 353.674 27.9773 353.441 26.8636L355.35 26.3864C355.532 27.0909 355.876 27.6193 356.381 27.9716C356.893 28.3239 357.56 28.5 358.384 28.5C359.322 28.5 360.066 28.3011 360.617 27.9034C361.174 27.5 361.452 27.017 361.452 26.4545C361.452 26 361.293 25.6193 360.975 25.3125C360.657 25 360.168 24.767 359.509 24.6136L357.327 24.1023C356.129 23.8182 355.248 23.3778 354.685 22.7812C354.129 22.179 353.85 21.4261 353.85 20.5227C353.85 19.7841 354.058 19.1307 354.472 18.5625C354.893 17.9943 355.464 17.5483 356.185 17.2244C356.913 16.9006 357.737 16.7386 358.657 16.7386C359.952 16.7386 360.969 17.0227 361.708 17.5909C362.452 18.1591 362.981 18.9091 363.293 19.8409ZM375.491 34.9091V27.9886H375.321C375.173 28.2273 374.963 28.5284 374.69 28.892C374.418 29.25 374.028 29.571 373.523 29.8551C373.017 30.1335 372.344 30.2727 371.503 30.2727C370.412 30.2727 369.449 29.9972 368.614 29.446C367.778 28.8892 367.125 28.1051 366.653 27.0938C366.182 26.0767 365.946 24.875 365.946 23.4886C365.946 22.1136 366.182 20.9205 366.653 19.9091C367.125 18.8977 367.781 18.1165 368.622 17.5653C369.463 17.0142 370.435 16.7386 371.537 16.7386C372.389 16.7386 373.063 16.8807 373.557 17.1648C374.057 17.4432 374.438 17.7614 374.699 18.1193C374.966 18.4716 375.173 18.7614 375.321 18.9886H375.56V16.9091H377.503V34.9091H375.491ZM371.776 28.4659C372.582 28.4659 373.264 28.2557 373.821 27.8352C374.378 27.4091 374.801 26.821 375.091 26.071C375.381 25.3153 375.526 24.4432 375.526 23.4545C375.526 22.4773 375.384 21.6222 375.099 20.8892C374.815 20.1506 374.395 19.5767 373.838 19.1676C373.281 18.7528 372.594 18.5455 371.776 18.5455C370.923 18.5455 370.213 18.7642 369.645 19.2017C369.082 19.6335 368.659 20.2216 368.375 20.9659C368.097 21.7045 367.957 22.5341 367.957 23.4545C367.957 24.3864 368.099 25.233 368.384 25.9943C368.673 26.75 369.099 27.3523 369.662 27.8011C370.23 28.2443 370.935 28.4659 371.776 28.4659ZM389.435 24.6477V16.9091H391.446V30H389.435V27.7841H389.298C388.991 28.4489 388.514 29.0142 387.866 29.4801C387.219 29.9403 386.401 30.1705 385.412 30.1705C384.594 30.1705 383.866 29.9915 383.23 29.6335C382.594 29.2699 382.094 28.7244 381.73 27.9972C381.366 27.2642 381.185 26.3409 381.185 25.2273V16.9091H383.196V25.0909C383.196 26.0455 383.463 26.8068 383.997 27.375C384.537 27.9432 385.224 28.2273 386.06 28.2273C386.56 28.2273 387.068 28.0994 387.585 27.8438C388.108 27.5881 388.545 27.196 388.898 26.6676C389.256 26.1392 389.435 25.4659 389.435 24.6477ZM395.13 30V16.9091H397.141V30H395.13ZM396.153 14.7273C395.761 14.7273 395.423 14.5938 395.138 14.3267C394.86 14.0597 394.721 13.7386 394.721 13.3636C394.721 12.9886 394.86 12.6676 395.138 12.4006C395.423 12.1335 395.761 12 396.153 12C396.545 12 396.88 12.1335 397.158 12.4006C397.442 12.6676 397.585 12.9886 397.585 13.3636C397.585 13.7386 397.442 14.0597 397.158 14.3267C396.88 14.5938 396.545 14.7273 396.153 14.7273ZM410.098 19.8409L408.291 20.3523C408.178 20.0511 408.01 19.7585 407.788 19.4744C407.572 19.1847 407.277 18.946 406.902 18.7585C406.527 18.571 406.047 18.4773 405.462 18.4773C404.661 18.4773 403.993 18.6619 403.459 19.0312C402.93 19.3949 402.666 19.858 402.666 20.4205C402.666 20.9205 402.848 21.3153 403.212 21.6051C403.575 21.8949 404.143 22.1364 404.916 22.3295L406.859 22.8068C408.03 23.0909 408.902 23.5256 409.476 24.1108C410.05 24.6903 410.337 25.4375 410.337 26.3523C410.337 27.1023 410.121 27.7727 409.689 28.3636C409.263 28.9545 408.666 29.4205 407.899 29.7614C407.132 30.1023 406.24 30.2727 405.223 30.2727C403.888 30.2727 402.783 29.983 401.908 29.4034C401.033 28.8239 400.479 27.9773 400.246 26.8636L402.155 26.3864C402.337 27.0909 402.68 27.6193 403.186 27.9716C403.697 28.3239 404.365 28.5 405.189 28.5C406.126 28.5 406.871 28.3011 407.422 27.9034C407.979 27.5 408.257 27.017 408.257 26.4545C408.257 26 408.098 25.6193 407.78 25.3125C407.462 25 406.973 24.767 406.314 24.6136L404.132 24.1023C402.933 23.8182 402.053 23.3778 401.49 22.7812C400.933 22.179 400.655 21.4261 400.655 20.5227C400.655 19.7841 400.862 19.1307 401.277 18.5625C401.697 17.9943 402.268 17.5483 402.99 17.2244C403.717 16.9006 404.541 16.7386 405.462 16.7386C406.757 16.7386 407.774 17.0227 408.513 17.5909C409.257 18.1591 409.786 18.9091 410.098 19.8409ZM415.376 22.125V30H413.364V12.5455H415.376V18.9545H415.546C415.853 18.2784 416.313 17.7415 416.927 17.3438C417.546 16.9403 418.37 16.7386 419.398 16.7386C420.29 16.7386 421.072 16.9176 421.742 17.2756C422.413 17.6278 422.933 18.1705 423.302 18.9034C423.677 19.6307 423.864 20.5568 423.864 21.6818V30H421.853V21.8182C421.853 20.7784 421.583 19.9744 421.043 19.4062C420.509 18.8324 419.768 18.5455 418.819 18.5455C418.16 18.5455 417.569 18.6847 417.046 18.9631C416.529 19.2415 416.12 19.6477 415.819 20.1818C415.523 20.7159 415.376 21.3636 415.376 22.125ZM433.033 30.2727C431.771 30.2727 430.683 29.9943 429.768 29.4375C428.859 28.875 428.158 28.0909 427.663 27.0852C427.175 26.0739 426.93 24.8977 426.93 23.5568C426.93 22.2159 427.175 21.0341 427.663 20.0114C428.158 18.983 428.845 18.1818 429.726 17.608C430.612 17.0284 431.646 16.7386 432.828 16.7386C433.51 16.7386 434.183 16.8523 434.848 17.0795C435.513 17.3068 436.118 17.6761 436.663 18.1875C437.209 18.6932 437.643 19.3636 437.967 20.1989C438.291 21.0341 438.453 22.0625 438.453 23.2841V24.1364H428.362V22.3977H436.408C436.408 21.6591 436.26 21 435.964 20.4205C435.675 19.8409 435.26 19.3835 434.72 19.0483C434.186 18.7131 433.555 18.5455 432.828 18.5455C432.027 18.5455 431.334 18.7443 430.749 19.142C430.169 19.5341 429.723 20.0455 429.411 20.6761C429.098 21.3068 428.942 21.983 428.942 22.7045V23.8636C428.942 24.8523 429.112 25.6903 429.453 26.3778C429.8 27.0597 430.28 27.5795 430.893 27.9375C431.507 28.2898 432.22 28.4659 433.033 28.4659C433.561 28.4659 434.038 28.392 434.464 28.2443C434.896 28.0909 435.268 27.8636 435.581 27.5625C435.893 27.2557 436.135 26.875 436.305 26.4205L438.249 26.9659C438.044 27.625 437.7 28.2045 437.217 28.7045C436.734 29.1989 436.138 29.5852 435.428 29.8636C434.717 30.1364 433.919 30.2727 433.033 30.2727ZM446.456 30.2727C445.365 30.2727 444.402 29.9972 443.567 29.446C442.732 28.8892 442.078 28.1051 441.607 27.0938C441.135 26.0767 440.899 24.875 440.899 23.4886C440.899 22.1136 441.135 20.9205 441.607 19.9091C442.078 18.8977 442.734 18.1165 443.575 17.5653C444.416 17.0142 445.388 16.7386 446.49 16.7386C447.342 16.7386 448.016 16.8807 448.51 17.1648C449.01 17.4432 449.391 17.7614 449.652 18.1193C449.919 18.4716 450.126 18.7614 450.274 18.9886H450.445V12.5455H452.456V30H450.513V27.9886H450.274C450.126 28.2273 449.916 28.5284 449.643 28.892C449.371 29.25 448.982 29.571 448.476 29.8551C447.97 30.1335 447.297 30.2727 446.456 30.2727ZM446.729 28.4659C447.536 28.4659 448.217 28.2557 448.774 27.8352C449.331 27.4091 449.754 26.821 450.044 26.071C450.334 25.3153 450.479 24.4432 450.479 23.4545C450.479 22.4773 450.337 21.6222 450.053 20.8892C449.768 20.1506 449.348 19.5767 448.791 19.1676C448.234 18.7528 447.547 18.5455 446.729 18.5455C445.876 18.5455 445.166 18.7642 444.598 19.2017C444.036 19.6335 443.612 20.2216 443.328 20.9659C443.05 21.7045 442.911 22.5341 442.911 23.4545C442.911 24.3864 443.053 25.233 443.337 25.9943C443.626 26.75 444.053 27.3523 444.615 27.8011C445.183 28.2443 445.888 28.4659 446.729 28.4659ZM459.419 27.6136L459.283 28.5341C459.186 29.1818 459.038 29.875 458.839 30.6136C458.646 31.3523 458.445 32.0483 458.234 32.7017C458.024 33.3551 457.851 33.875 457.714 34.2614H456.18C456.254 33.8977 456.351 33.4176 456.47 32.821C456.589 32.2244 456.709 31.5568 456.828 30.8182C456.953 30.0852 457.055 29.3352 457.135 28.5682L457.237 27.6136H459.419ZM479.168 19.8409L477.362 20.3523C477.248 20.0511 477.08 19.7585 476.859 19.4744C476.643 19.1847 476.347 18.946 475.972 18.7585C475.597 18.571 475.117 18.4773 474.532 18.4773C473.731 18.4773 473.063 18.6619 472.529 19.0312C472.001 19.3949 471.737 19.858 471.737 20.4205C471.737 20.9205 471.918 21.3153 472.282 21.6051C472.646 21.8949 473.214 22.1364 473.987 22.3295L475.93 22.8068C477.1 23.0909 477.972 23.5256 478.546 24.1108C479.12 24.6903 479.407 25.4375 479.407 26.3523C479.407 27.1023 479.191 27.7727 478.759 28.3636C478.333 28.9545 477.737 29.4205 476.969 29.7614C476.202 30.1023 475.31 30.2727 474.293 30.2727C472.958 30.2727 471.853 29.983 470.978 29.4034C470.103 28.8239 469.549 27.9773 469.316 26.8636L471.225 26.3864C471.407 27.0909 471.751 27.6193 472.256 27.9716C472.768 28.3239 473.435 28.5 474.259 28.5C475.197 28.5 475.941 28.3011 476.492 27.9034C477.049 27.5 477.327 27.017 477.327 26.4545C477.327 26 477.168 25.6193 476.85 25.3125C476.532 25 476.043 24.767 475.384 24.6136L473.202 24.1023C472.004 23.8182 471.123 23.3778 470.56 22.7812C470.004 22.179 469.725 21.4261 469.725 20.5227C469.725 19.7841 469.933 19.1307 470.347 18.5625C470.768 17.9943 471.339 17.5483 472.06 17.2244C472.788 16.9006 473.612 16.7386 474.532 16.7386C475.827 16.7386 476.844 17.0227 477.583 17.5909C478.327 18.1591 478.856 18.9091 479.168 19.8409ZM488.128 16.9091V18.6136H481.344V16.9091H488.128ZM483.321 13.7727H485.332V26.25C485.332 26.8182 485.415 27.2443 485.58 27.5284C485.75 27.8068 485.966 27.9943 486.227 28.0909C486.494 28.1818 486.776 28.2273 487.071 28.2273C487.293 28.2273 487.474 28.2159 487.616 28.1932C487.759 28.1648 487.872 28.142 487.957 28.125L488.366 29.9318C488.23 29.983 488.04 30.0341 487.795 30.0852C487.551 30.142 487.241 30.1705 486.866 30.1705C486.298 30.1705 485.741 30.0483 485.196 29.804C484.656 29.5597 484.207 29.1875 483.849 28.6875C483.497 28.1875 483.321 27.5568 483.321 26.7955V13.7727ZM491.153 30V16.9091H493.165V30H491.153ZM492.176 14.7273C491.784 14.7273 491.446 14.5938 491.162 14.3267C490.884 14.0597 490.744 13.7386 490.744 13.3636C490.744 12.9886 490.884 12.6676 491.162 12.4006C491.446 12.1335 491.784 12 492.176 12C492.568 12 492.903 12.1335 493.182 12.4006C493.466 12.6676 493.608 12.9886 493.608 13.3636C493.608 13.7386 493.466 14.0597 493.182 14.3267C492.903 14.5938 492.568 14.7273 492.176 14.7273ZM498.86 12.5455V30H496.849V12.5455H498.86ZM504.555 12.5455V30H502.544V12.5455H504.555ZM520.478 30.2727C519.217 30.2727 518.129 29.9943 517.214 29.4375C516.305 28.875 515.603 28.0909 515.109 27.0852C514.62 26.0739 514.376 24.8977 514.376 23.5568C514.376 22.2159 514.62 21.0341 515.109 20.0114C515.603 18.983 516.29 18.1818 517.171 17.608C518.058 17.0284 519.092 16.7386 520.273 16.7386C520.955 16.7386 521.629 16.8523 522.293 17.0795C522.958 17.3068 523.563 17.6761 524.109 18.1875C524.654 18.6932 525.089 19.3636 525.413 20.1989C525.737 21.0341 525.898 22.0625 525.898 23.2841V24.1364H515.808V22.3977H523.853C523.853 21.6591 523.705 21 523.41 20.4205C523.12 19.8409 522.705 19.3835 522.165 19.0483C521.631 18.7131 521.001 18.5455 520.273 18.5455C519.472 18.5455 518.779 18.7443 518.194 19.142C517.614 19.5341 517.168 20.0455 516.856 20.6761C516.543 21.3068 516.387 21.983 516.387 22.7045V23.8636C516.387 24.8523 516.558 25.6903 516.898 26.3778C517.245 27.0597 517.725 27.5795 518.339 27.9375C518.952 28.2898 519.665 28.4659 520.478 28.4659C521.006 28.4659 521.484 28.392 521.91 28.2443C522.342 28.0909 522.714 27.8636 523.026 27.5625C523.339 27.2557 523.58 26.875 523.751 26.4205L525.694 26.9659C525.489 27.625 525.146 28.2045 524.663 28.7045C524.18 29.1989 523.583 29.5852 522.873 29.8636C522.163 30.1364 521.364 30.2727 520.478 30.2727ZM539.264 16.9091L534.423 30H532.378L527.537 16.9091H529.719L533.332 27.3409H533.469L537.082 16.9091H539.264ZM546.939 30.2727C545.678 30.2727 544.589 29.9943 543.675 29.4375C542.766 28.875 542.064 28.0909 541.57 27.0852C541.081 26.0739 540.837 24.8977 540.837 23.5568C540.837 22.2159 541.081 21.0341 541.57 20.0114C542.064 18.983 542.751 18.1818 543.632 17.608C544.518 17.0284 545.553 16.7386 546.734 16.7386C547.416 16.7386 548.089 16.8523 548.754 17.0795C549.419 17.3068 550.024 17.6761 550.57 18.1875C551.115 18.6932 551.55 19.3636 551.874 20.1989C552.197 21.0341 552.359 22.0625 552.359 23.2841V24.1364H542.268V22.3977H550.314C550.314 21.6591 550.166 21 549.871 20.4205C549.581 19.8409 549.166 19.3835 548.626 19.0483C548.092 18.7131 547.462 18.5455 546.734 18.5455C545.933 18.5455 545.24 18.7443 544.655 19.142C544.075 19.5341 543.629 20.0455 543.317 20.6761C543.004 21.3068 542.848 21.983 542.848 22.7045V23.8636C542.848 24.8523 543.018 25.6903 543.359 26.3778C543.706 27.0597 544.186 27.5795 544.8 27.9375C545.413 28.2898 546.126 28.4659 546.939 28.4659C547.467 28.4659 547.945 28.392 548.371 28.2443C548.803 28.0909 549.175 27.8636 549.487 27.5625C549.8 27.2557 550.041 26.875 550.212 26.4205L552.155 26.9659C551.95 27.625 551.607 28.2045 551.124 28.7045C550.641 29.1989 550.044 29.5852 549.334 29.8636C548.624 30.1364 547.825 30.2727 546.939 30.2727ZM555.419 30V16.9091H557.362V18.8864H557.499C557.737 18.2386 558.169 17.7131 558.794 17.3097C559.419 16.9062 560.124 16.7045 560.908 16.7045C561.055 16.7045 561.24 16.7074 561.462 16.7131C561.683 16.7187 561.851 16.7273 561.964 16.7386V18.7841C561.896 18.767 561.74 18.7415 561.496 18.7074C561.257 18.6676 561.004 18.6477 560.737 18.6477C560.101 18.6477 559.533 18.7812 559.033 19.0483C558.538 19.3097 558.146 19.6733 557.857 20.1392C557.572 20.5994 557.43 21.125 557.43 21.7159V30H555.419ZM566.043 34.9091C565.702 34.9091 565.398 34.8807 565.131 34.8239C564.864 34.7727 564.679 34.7216 564.577 34.6705L565.088 32.8977C565.577 33.0227 566.009 33.0682 566.384 33.0341C566.759 33 567.091 32.8324 567.381 32.5312C567.676 32.2358 567.946 31.7557 568.19 31.0909L568.565 30.0682L563.724 16.9091H565.906L569.52 27.3409H569.656L573.27 16.9091H575.452L569.895 31.9091C569.645 32.5852 569.335 33.1449 568.966 33.5881C568.597 34.0369 568.168 34.3693 567.679 34.5852C567.196 34.8011 566.651 34.9091 566.043 34.9091ZM582.956 30.2727C581.774 30.2727 580.737 29.9915 579.845 29.429C578.959 28.8665 578.266 28.0795 577.766 27.0682C577.271 26.0568 577.024 24.875 577.024 23.5227C577.024 22.1591 577.271 20.9687 577.766 19.9517C578.266 18.9347 578.959 18.1449 579.845 17.5824C580.737 17.0199 581.774 16.7386 582.956 16.7386C584.138 16.7386 585.172 17.0199 586.058 17.5824C586.95 18.1449 587.643 18.9347 588.138 19.9517C588.638 20.9687 588.888 22.1591 588.888 23.5227C588.888 24.875 588.638 26.0568 588.138 27.0682C587.643 28.0795 586.95 28.8665 586.058 29.429C585.172 29.9915 584.138 30.2727 582.956 30.2727ZM582.956 28.4659C583.854 28.4659 584.592 28.2358 585.172 27.7756C585.751 27.3153 586.18 26.7102 586.459 25.9602C586.737 25.2102 586.876 24.3977 586.876 23.5227C586.876 22.6477 586.737 21.8324 586.459 21.0767C586.18 20.321 585.751 19.7102 585.172 19.2443C584.592 18.7784 583.854 18.5455 582.956 18.5455C582.058 18.5455 581.32 18.7784 580.74 19.2443C580.161 19.7102 579.732 20.321 579.453 21.0767C579.175 21.8324 579.036 22.6477 579.036 23.5227C579.036 24.3977 579.175 25.2102 579.453 25.9602C579.732 26.7102 580.161 27.3153 580.74 27.7756C581.32 28.2358 582.058 28.4659 582.956 28.4659ZM593.969 22.125V30H591.958V16.9091H593.901V18.9545H594.072C594.379 18.2898 594.844 17.7557 595.469 17.3523C596.094 16.9432 596.901 16.7386 597.89 16.7386C598.776 16.7386 599.552 16.9205 600.217 17.2841C600.881 17.642 601.398 18.1875 601.768 18.9205C602.137 19.6477 602.322 20.5682 602.322 21.6818V30H600.31V21.8182C600.31 20.7898 600.043 19.9886 599.509 19.4148C598.975 18.8352 598.242 18.5455 597.31 18.5455C596.668 18.5455 596.094 18.6847 595.589 18.9631C595.089 19.2415 594.694 19.6477 594.404 20.1818C594.114 20.7159 593.969 21.3636 593.969 22.125ZM611.486 30.2727C610.224 30.2727 609.136 29.9943 608.222 29.4375C607.312 28.875 606.611 28.0909 606.116 27.0852C605.628 26.0739 605.384 24.8977 605.384 23.5568C605.384 22.2159 605.628 21.0341 606.116 20.0114C606.611 18.983 607.298 18.1818 608.179 17.608C609.065 17.0284 610.099 16.7386 611.281 16.7386C611.963 16.7386 612.636 16.8523 613.301 17.0795C613.966 17.3068 614.571 17.6761 615.116 18.1875C615.662 18.6932 616.097 19.3636 616.42 20.1989C616.744 21.0341 616.906 22.0625 616.906 23.2841V24.1364H606.815V22.3977H614.861C614.861 21.6591 614.713 21 614.418 20.4205C614.128 19.8409 613.713 19.3835 613.173 19.0483C612.639 18.7131 612.009 18.5455 611.281 18.5455C610.48 18.5455 609.787 18.7443 609.202 19.142C608.622 19.5341 608.176 20.0455 607.864 20.6761C607.551 21.3068 607.395 21.983 607.395 22.7045V23.8636C607.395 24.8523 607.565 25.6903 607.906 26.3778C608.253 27.0597 608.733 27.5795 609.347 27.9375C609.96 28.2898 610.673 28.4659 611.486 28.4659C612.014 28.4659 612.491 28.392 612.918 28.2443C613.349 28.0909 613.722 27.8636 614.034 27.5625C614.347 27.2557 614.588 26.875 614.759 26.4205L616.702 26.9659C616.497 27.625 616.153 28.2045 615.67 28.7045C615.188 29.1989 614.591 29.5852 613.881 29.8636C613.17 30.1364 612.372 30.2727 611.486 30.2727ZM621.739 12.5455V14.0795C621.739 14.5455 621.653 15.0426 621.483 15.571C621.318 16.0938 621.074 16.6023 620.75 17.0966C620.432 17.5852 620.045 18.0114 619.591 18.375L618.5 17.4886C618.858 16.9773 619.168 16.446 619.429 15.8949C619.696 15.3381 619.83 14.7443 619.83 14.1136V12.5455H621.739ZM631.817 19.8409L630.01 20.3523C629.896 20.0511 629.729 19.7585 629.507 19.4744C629.291 19.1847 628.996 18.946 628.621 18.7585C628.246 18.571 627.766 18.4773 627.18 18.4773C626.379 18.4773 625.712 18.6619 625.178 19.0312C624.649 19.3949 624.385 19.858 624.385 20.4205C624.385 20.9205 624.567 21.3153 624.93 21.6051C625.294 21.8949 625.862 22.1364 626.635 22.3295L628.578 22.8068C629.749 23.0909 630.621 23.5256 631.195 24.1108C631.768 24.6903 632.055 25.4375 632.055 26.3523C632.055 27.1023 631.839 27.7727 631.408 28.3636C630.982 28.9545 630.385 29.4205 629.618 29.7614C628.851 30.1023 627.959 30.2727 626.942 30.2727C625.607 30.2727 624.501 29.983 623.626 29.4034C622.751 28.8239 622.197 27.9773 621.964 26.8636L623.874 26.3864C624.055 27.0909 624.399 27.6193 624.905 27.9716C625.416 28.3239 626.084 28.5 626.908 28.5C627.845 28.5 628.589 28.3011 629.141 27.9034C629.697 27.5 629.976 27.017 629.976 26.4545C629.976 26 629.817 25.6193 629.499 25.3125C629.18 25 628.692 24.767 628.033 24.6136L625.851 24.1023C624.652 23.8182 623.771 23.3778 623.209 22.7812C622.652 22.179 622.374 21.4261 622.374 20.5227C622.374 19.7841 622.581 19.1307 622.996 18.5625C623.416 17.9943 623.987 17.5483 624.709 17.2244C625.436 16.9006 626.26 16.7386 627.18 16.7386C628.476 16.7386 629.493 17.0227 630.232 17.5909C630.976 18.1591 631.504 18.9091 631.817 19.8409ZM647.663 16.9091V18.6136H640.606V16.9091H647.663ZM642.719 30V15.1023C642.719 14.3523 642.896 13.7273 643.248 13.2273C643.6 12.7273 644.058 12.3523 644.62 12.1023C645.183 11.8523 645.776 11.7273 646.401 11.7273C646.896 11.7273 647.299 11.767 647.612 11.8466C647.924 11.9261 648.157 12 648.31 12.0682L647.731 13.8068C647.629 13.7727 647.487 13.7301 647.305 13.679C647.129 13.6278 646.896 13.6023 646.606 13.6023C645.941 13.6023 645.461 13.7699 645.165 14.1051C644.876 14.4403 644.731 14.9318 644.731 15.5795V30H642.719ZM653.959 30.3068C653.129 30.3068 652.376 30.1506 651.7 29.8381C651.024 29.5199 650.487 29.0625 650.089 28.4659C649.692 27.8636 649.493 27.1364 649.493 26.2841C649.493 25.5341 649.641 24.9261 649.936 24.4602C650.232 23.9886 650.626 23.6193 651.121 23.3523C651.615 23.0852 652.161 22.8864 652.757 22.7557C653.359 22.6193 653.964 22.5114 654.572 22.4318C655.368 22.3295 656.013 22.2528 656.507 22.2017C657.007 22.1449 657.371 22.0511 657.598 21.9205C657.831 21.7898 657.947 21.5625 657.947 21.2386V21.1705C657.947 20.3295 657.717 19.6761 657.257 19.2102C656.803 18.7443 656.112 18.5114 655.186 18.5114C654.226 18.5114 653.473 18.7216 652.928 19.142C652.382 19.5625 651.999 20.0114 651.777 20.4886L649.868 19.8068C650.209 19.0114 650.663 18.392 651.232 17.9489C651.805 17.5 652.43 17.1875 653.107 17.0114C653.788 16.8295 654.459 16.7386 655.118 16.7386C655.538 16.7386 656.021 16.7898 656.567 16.892C657.118 16.9886 657.649 17.1903 658.161 17.4972C658.678 17.804 659.107 18.267 659.447 18.8864C659.788 19.5057 659.959 20.3352 659.959 21.375V30H657.947V28.2273H657.845C657.709 28.5114 657.482 28.8153 657.163 29.1392C656.845 29.4631 656.422 29.7386 655.893 29.9659C655.365 30.1932 654.72 30.3068 653.959 30.3068ZM654.266 28.5C655.061 28.5 655.732 28.3438 656.277 28.0312C656.828 27.7188 657.243 27.3153 657.521 26.821C657.805 26.3267 657.947 25.8068 657.947 25.2614V23.4205C657.862 23.5227 657.675 23.6165 657.385 23.7017C657.101 23.7812 656.771 23.8523 656.396 23.9148C656.027 23.9716 655.666 24.0227 655.314 24.0682C654.967 24.108 654.686 24.142 654.47 24.1705C653.947 24.2386 653.459 24.3494 653.004 24.5028C652.555 24.6506 652.192 24.875 651.913 25.1761C651.641 25.4716 651.504 25.875 651.504 26.3864C651.504 27.0852 651.763 27.6136 652.28 27.9716C652.803 28.3239 653.464 28.5 654.266 28.5ZM673.866 16.9091L669.025 30H666.979L662.138 16.9091H664.32L667.934 27.3409H668.07L671.684 16.9091H673.866ZM681.37 30.2727C680.188 30.2727 679.151 29.9915 678.259 29.429C677.373 28.8665 676.68 28.0795 676.18 27.0682C675.685 26.0568 675.438 24.875 675.438 23.5227C675.438 22.1591 675.685 20.9687 676.18 19.9517C676.68 18.9347 677.373 18.1449 678.259 17.5824C679.151 17.0199 680.188 16.7386 681.37 16.7386C682.552 16.7386 683.586 17.0199 684.472 17.5824C685.364 18.1449 686.058 18.9347 686.552 19.9517C687.052 20.9687 687.302 22.1591 687.302 23.5227C687.302 24.875 687.052 26.0568 686.552 27.0682C686.058 28.0795 685.364 28.8665 684.472 29.429C683.586 29.9915 682.552 30.2727 681.37 30.2727ZM681.37 28.4659C682.268 28.4659 683.006 28.2358 683.586 27.7756C684.165 27.3153 684.594 26.7102 684.873 25.9602C685.151 25.2102 685.29 24.3977 685.29 23.5227C685.29 22.6477 685.151 21.8324 684.873 21.0767C684.594 20.321 684.165 19.7102 683.586 19.2443C683.006 18.7784 682.268 18.5455 681.37 18.5455C680.472 18.5455 679.734 18.7784 679.154 19.2443C678.575 19.7102 678.146 20.321 677.867 21.0767C677.589 21.8324 677.45 22.6477 677.45 23.5227C677.45 24.3977 677.589 25.2102 677.867 25.9602C678.146 26.7102 678.575 27.3153 679.154 27.7756C679.734 28.2358 680.472 28.4659 681.37 28.4659ZM690.372 30V16.9091H692.315V18.8864H692.452C692.69 18.2386 693.122 17.7131 693.747 17.3097C694.372 16.9062 695.077 16.7045 695.861 16.7045C696.009 16.7045 696.193 16.7074 696.415 16.7131C696.636 16.7187 696.804 16.7273 696.918 16.7386V18.7841C696.849 18.767 696.693 18.7415 696.449 18.7074C696.21 18.6676 695.957 18.6477 695.69 18.6477C695.054 18.6477 694.486 18.7812 693.986 19.0483C693.491 19.3097 693.099 19.6733 692.81 20.1392C692.526 20.5994 692.384 21.125 692.384 21.7159V30H690.372ZM699.302 30V16.9091H701.313V30H699.302ZM700.325 14.7273C699.933 14.7273 699.594 14.5938 699.31 14.3267C699.032 14.0597 698.893 13.7386 698.893 13.3636C698.893 12.9886 699.032 12.6676 699.31 12.4006C699.594 12.1335 699.933 12 700.325 12C700.717 12 701.052 12.1335 701.33 12.4006C701.614 12.6676 701.756 12.9886 701.756 13.3636C701.756 13.7386 701.614 14.0597 701.33 14.3267C701.052 14.5938 700.717 14.7273 700.325 14.7273ZM710.69 16.9091V18.6136H703.906V16.9091H710.69ZM705.884 13.7727H707.895V26.25C707.895 26.8182 707.977 27.2443 708.142 27.5284C708.313 27.8068 708.528 27.9943 708.79 28.0909C709.057 28.1818 709.338 28.2273 709.634 28.2273C709.855 28.2273 710.037 28.2159 710.179 28.1932C710.321 28.1648 710.435 28.142 710.52 28.125L710.929 29.9318C710.793 29.983 710.602 30.0341 710.358 30.0852C710.114 30.142 709.804 30.1705 709.429 30.1705C708.861 30.1705 708.304 30.0483 707.759 29.804C707.219 29.5597 706.77 29.1875 706.412 28.6875C706.06 28.1875 705.884 27.5568 705.884 26.7955V13.7727ZM719.064 30.2727C717.803 30.2727 716.714 29.9943 715.8 29.4375C714.891 28.875 714.189 28.0909 713.695 27.0852C713.206 26.0739 712.962 24.8977 712.962 23.5568C712.962 22.2159 713.206 21.0341 713.695 20.0114C714.189 18.983 714.876 18.1818 715.757 17.608C716.643 17.0284 717.678 16.7386 718.859 16.7386C719.541 16.7386 720.214 16.8523 720.879 17.0795C721.544 17.3068 722.149 17.6761 722.695 18.1875C723.24 18.6932 723.675 19.3636 723.999 20.1989C724.322 21.0341 724.484 22.0625 724.484 23.2841V24.1364H714.393V22.3977H722.439C722.439 21.6591 722.291 21 721.996 20.4205C721.706 19.8409 721.291 19.3835 720.751 19.0483C720.217 18.7131 719.587 18.5455 718.859 18.5455C718.058 18.5455 717.365 18.7443 716.78 19.142C716.2 19.5341 715.754 20.0455 715.442 20.6761C715.129 21.3068 714.973 21.983 714.973 22.7045V23.8636C714.973 24.8523 715.143 25.6903 715.484 26.3778C715.831 27.0597 716.311 27.5795 716.925 27.9375C717.538 28.2898 718.251 28.4659 719.064 28.4659C719.592 28.4659 720.07 28.392 720.496 28.2443C720.928 28.0909 721.3 27.8636 721.612 27.5625C721.925 27.2557 722.166 26.875 722.337 26.4205L724.28 26.9659C724.075 27.625 723.732 28.2045 723.249 28.7045C722.766 29.1989 722.169 29.5852 721.459 29.8636C720.749 30.1364 719.95 30.2727 719.064 30.2727ZM729.01 30.1364C728.589 30.1364 728.229 29.9858 727.928 29.6847C727.626 29.3835 727.476 29.0227 727.476 28.6023C727.476 28.1818 727.626 27.821 727.928 27.5199C728.229 27.2187 728.589 27.0682 729.01 27.0682C729.43 27.0682 729.791 27.2187 730.092 27.5199C730.393 27.821 730.544 28.1818 730.544 28.6023C730.544 28.8807 730.473 29.1364 730.331 29.3693C730.195 29.6023 730.01 29.7898 729.777 29.9318C729.55 30.0682 729.294 30.1364 729.01 30.1364Z" fill="#3E2522"/>
</svg>
