<svg width="773" height="40" viewBox="0 0 773 40" fill="none" xmlns="http://www.w3.org/2000/svg">
<rect x="1" y="1" width="771" height="38" rx="19" fill="#3D1F1A" stroke="#3D1F1A" stroke-width="2"/>
<path d="M66.1136 30V12.5455H68.2273V20.3182H77.5341V12.5455H79.6477V30H77.5341V22.1932H68.2273V30H66.1136ZM87.4588 30.3068C86.6293 30.3068 85.8764 30.1506 85.2003 29.8381C84.5241 29.5199 83.9872 29.0625 83.5895 28.4659C83.1918 27.8636 82.9929 27.1364 82.9929 26.2841C82.9929 25.5341 83.1406 24.9261 83.4361 24.4602C83.7315 23.9886 84.1264 23.6193 84.6207 23.3523C85.1151 23.0852 85.6605 22.8864 86.2571 22.7557C86.8594 22.6193 87.4645 22.5114 88.0724 22.4318C88.8679 22.3295 89.5128 22.2528 90.0071 22.2017C90.5071 22.1449 90.8707 22.0511 91.098 21.9205C91.331 21.7898 91.4474 21.5625 91.4474 21.2386V21.1705C91.4474 20.3295 91.2173 19.6761 90.7571 19.2102C90.3026 18.7443 89.6122 18.5114 88.6861 18.5114C87.7259 18.5114 86.973 18.7216 86.4276 19.142C85.8821 19.5625 85.4986 20.0114 85.277 20.4886L83.3679 19.8068C83.7088 19.0114 84.1634 18.392 84.7315 17.9489C85.3054 17.5 85.9304 17.1875 86.6065 17.0114C87.2884 16.8295 87.9588 16.7386 88.6179 16.7386C89.0384 16.7386 89.5213 16.7898 90.0668 16.892C90.6179 16.9886 91.1491 17.1903 91.6605 17.4972C92.1776 17.804 92.6065 18.267 92.9474 18.8864C93.2884 19.5057 93.4588 20.3352 93.4588 21.375V30H91.4474V28.2273H91.3452C91.2088 28.5114 90.9815 28.8153 90.6634 29.1392C90.3452 29.4631 89.9219 29.7386 89.3935 29.9659C88.8651 30.1932 88.2202 30.3068 87.4588 30.3068ZM87.7656 28.5C88.5611 28.5 89.2315 28.3438 89.777 28.0312C90.3281 27.7188 90.7429 27.3153 91.0213 26.821C91.3054 26.3267 91.4474 25.8068 91.4474 25.2614V23.4205C91.3622 23.5227 91.1747 23.6165 90.8849 23.7017C90.6009 23.7812 90.2713 23.8523 89.8963 23.9148C89.527 23.9716 89.1662 24.0227 88.8139 24.0682C88.4673 24.108 88.1861 24.142 87.9702 24.1705C87.4474 24.2386 86.9588 24.3494 86.5043 24.5028C86.0554 24.6506 85.6918 24.875 85.4134 25.1761C85.1406 25.4716 85.0043 25.875 85.0043 26.3864C85.0043 27.0852 85.2628 27.6136 85.7798 27.9716C86.3026 28.3239 86.9645 28.5 87.7656 28.5ZM99.1413 12.5455V30H97.13V12.5455H99.1413ZM108.655 16.9091V18.6136H101.598V16.9091H108.655ZM103.712 30V15.1023C103.712 14.3523 103.888 13.7273 104.24 13.2273C104.592 12.7273 105.05 12.3523 105.612 12.1023C106.175 11.8523 106.768 11.7273 107.393 11.7273C107.888 11.7273 108.291 11.767 108.604 11.8466C108.916 11.9261 109.149 12 109.303 12.0682L108.723 13.8068C108.621 13.7727 108.479 13.7301 108.297 13.679C108.121 13.6278 107.888 13.6023 107.598 13.6023C106.933 13.6023 106.453 13.7699 106.158 14.1051C105.868 14.4403 105.723 14.9318 105.723 15.5795V30H103.712ZM118.294 21.5795V23.4545H110.658V21.5795H118.294ZM124.799 30L120.81 16.9091H122.924L125.754 26.9318H125.89L128.685 16.9091H130.833L133.594 26.8977H133.731L136.56 16.9091H138.674L134.685 30H132.708L129.844 19.9432H129.64L126.776 30H124.799ZM141.333 30V16.9091H143.276V18.8864H143.413C143.651 18.2386 144.083 17.7131 144.708 17.3097C145.333 16.9062 146.038 16.7045 146.822 16.7045C146.969 16.7045 147.154 16.7074 147.376 16.7131C147.597 16.7187 147.765 16.7273 147.879 16.7386V18.7841C147.81 18.767 147.654 18.7415 147.41 18.7074C147.171 18.6676 146.918 18.6477 146.651 18.6477C146.015 18.6477 145.447 18.7812 144.947 19.0483C144.452 19.3097 144.06 19.6733 143.771 20.1392C143.487 20.5994 143.344 21.125 143.344 21.7159V30H141.333ZM154.115 30.3068C153.286 30.3068 152.533 30.1506 151.857 29.8381C151.18 29.5199 150.643 29.0625 150.246 28.4659C149.848 27.8636 149.649 27.1364 149.649 26.2841C149.649 25.5341 149.797 24.9261 150.092 24.4602C150.388 23.9886 150.783 23.6193 151.277 23.3523C151.771 23.0852 152.317 22.8864 152.913 22.7557C153.516 22.6193 154.121 22.5114 154.729 22.4318C155.524 22.3295 156.169 22.2528 156.663 22.2017C157.163 22.1449 157.527 22.0511 157.754 21.9205C157.987 21.7898 158.104 21.5625 158.104 21.2386V21.1705C158.104 20.3295 157.874 19.6761 157.413 19.2102C156.959 18.7443 156.268 18.5114 155.342 18.5114C154.382 18.5114 153.629 18.7216 153.084 19.142C152.538 19.5625 152.155 20.0114 151.933 20.4886L150.024 19.8068C150.365 19.0114 150.82 18.392 151.388 17.9489C151.962 17.5 152.587 17.1875 153.263 17.0114C153.945 16.8295 154.615 16.7386 155.274 16.7386C155.695 16.7386 156.178 16.7898 156.723 16.892C157.274 16.9886 157.805 17.1903 158.317 17.4972C158.834 17.804 159.263 18.267 159.604 18.8864C159.945 19.5057 160.115 20.3352 160.115 21.375V30H158.104V28.2273H158.001C157.865 28.5114 157.638 28.8153 157.32 29.1392C157.001 29.4631 156.578 29.7386 156.05 29.9659C155.521 30.1932 154.876 30.3068 154.115 30.3068ZM154.422 28.5C155.217 28.5 155.888 28.3438 156.433 28.0312C156.984 27.7188 157.399 27.3153 157.678 26.821C157.962 26.3267 158.104 25.8068 158.104 25.2614V23.4205C158.018 23.5227 157.831 23.6165 157.541 23.7017C157.257 23.7812 156.928 23.8523 156.553 23.9148C156.183 23.9716 155.822 24.0227 155.47 24.0682C155.124 24.108 154.842 24.142 154.626 24.1705C154.104 24.2386 153.615 24.3494 153.161 24.5028C152.712 24.6506 152.348 24.875 152.07 25.1761C151.797 25.4716 151.661 25.875 151.661 26.3864C151.661 27.0852 151.919 27.6136 152.436 27.9716C152.959 28.3239 153.621 28.5 154.422 28.5ZM163.786 34.9091V16.9091H165.729V18.9886H165.968C166.116 18.7614 166.32 18.4716 166.582 18.1193C166.849 17.7614 167.229 17.4432 167.724 17.1648C168.224 16.8807 168.9 16.7386 169.752 16.7386C170.854 16.7386 171.826 17.0142 172.667 17.5653C173.508 18.1165 174.164 18.8977 174.636 19.9091C175.107 20.9205 175.343 22.1136 175.343 23.4886C175.343 24.875 175.107 26.0767 174.636 27.0938C174.164 28.1051 173.511 28.8892 172.675 29.446C171.84 29.9972 170.877 30.2727 169.786 30.2727C168.945 30.2727 168.272 30.1335 167.766 29.8551C167.261 29.571 166.871 29.25 166.599 28.892C166.326 28.5284 166.116 28.2273 165.968 27.9886H165.798V34.9091H163.786ZM165.763 23.4545C165.763 24.4432 165.908 25.3153 166.198 26.071C166.488 26.821 166.911 27.4091 167.468 27.8352C168.025 28.2557 168.707 28.4659 169.513 28.4659C170.354 28.4659 171.056 28.2443 171.619 27.8011C172.187 27.3523 172.613 26.75 172.897 25.9943C173.187 25.233 173.332 24.3864 173.332 23.4545C173.332 22.5341 173.19 21.7045 172.906 20.9659C172.627 20.2216 172.204 19.6335 171.636 19.2017C171.073 18.7642 170.366 18.5455 169.513 18.5455C168.695 18.5455 168.008 18.7528 167.451 19.1676C166.894 19.5767 166.474 20.1506 166.19 20.8892C165.906 21.6222 165.763 22.4773 165.763 23.4545ZM178.411 34.9091V16.9091H180.354V18.9886H180.593C180.741 18.7614 180.945 18.4716 181.207 18.1193C181.474 17.7614 181.854 17.4432 182.349 17.1648C182.849 16.8807 183.525 16.7386 184.377 16.7386C185.479 16.7386 186.451 17.0142 187.292 17.5653C188.133 18.1165 188.789 18.8977 189.261 19.9091C189.732 20.9205 189.968 22.1136 189.968 23.4886C189.968 24.875 189.732 26.0767 189.261 27.0938C188.789 28.1051 188.136 28.8892 187.3 29.446C186.465 29.9972 185.502 30.2727 184.411 30.2727C183.57 30.2727 182.897 30.1335 182.391 29.8551C181.886 29.571 181.496 29.25 181.224 28.892C180.951 28.5284 180.741 28.2273 180.593 27.9886H180.423V34.9091H178.411ZM180.388 23.4545C180.388 24.4432 180.533 25.3153 180.823 26.071C181.113 26.821 181.536 27.4091 182.093 27.8352C182.65 28.2557 183.332 28.4659 184.138 28.4659C184.979 28.4659 185.681 28.2443 186.244 27.8011C186.812 27.3523 187.238 26.75 187.522 25.9943C187.812 25.233 187.957 24.3864 187.957 23.4545C187.957 22.5341 187.815 21.7045 187.531 20.9659C187.252 20.2216 186.829 19.6335 186.261 19.2017C185.698 18.7642 184.991 18.5455 184.138 18.5455C183.32 18.5455 182.633 18.7528 182.076 19.1676C181.519 19.5767 181.099 20.1506 180.815 20.8892C180.531 21.6222 180.388 22.4773 180.388 23.4545ZM198.525 30.2727C197.263 30.2727 196.175 29.9943 195.261 29.4375C194.352 28.875 193.65 28.0909 193.156 27.0852C192.667 26.0739 192.423 24.8977 192.423 23.5568C192.423 22.2159 192.667 21.0341 193.156 20.0114C193.65 18.983 194.337 18.1818 195.218 17.608C196.104 17.0284 197.138 16.7386 198.32 16.7386C199.002 16.7386 199.675 16.8523 200.34 17.0795C201.005 17.3068 201.61 17.6761 202.156 18.1875C202.701 18.6932 203.136 19.3636 203.46 20.1989C203.783 21.0341 203.945 22.0625 203.945 23.2841V24.1364H193.854V22.3977H201.9C201.9 21.6591 201.752 21 201.457 20.4205C201.167 19.8409 200.752 19.3835 200.212 19.0483C199.678 18.7131 199.048 18.5455 198.32 18.5455C197.519 18.5455 196.826 18.7443 196.241 19.142C195.661 19.5341 195.215 20.0455 194.903 20.6761C194.59 21.3068 194.434 21.983 194.434 22.7045V23.8636C194.434 24.8523 194.604 25.6903 194.945 26.3778C195.292 27.0597 195.772 27.5795 196.386 27.9375C196.999 28.2898 197.712 28.4659 198.525 28.4659C199.053 28.4659 199.531 28.392 199.957 28.2443C200.388 28.0909 200.761 27.8636 201.073 27.5625C201.386 27.2557 201.627 26.875 201.798 26.4205L203.741 26.9659C203.536 27.625 203.192 28.2045 202.71 28.7045C202.227 29.1989 201.63 29.5852 200.92 29.8636C200.21 30.1364 199.411 30.2727 198.525 30.2727ZM211.948 30.2727C210.857 30.2727 209.894 29.9972 209.059 29.446C208.224 28.8892 207.57 28.1051 207.099 27.0938C206.627 26.0767 206.391 24.875 206.391 23.4886C206.391 22.1136 206.627 20.9205 207.099 19.9091C207.57 18.8977 208.227 18.1165 209.067 17.5653C209.908 17.0142 210.88 16.7386 211.982 16.7386C212.835 16.7386 213.508 16.8807 214.002 17.1648C214.502 17.4432 214.883 17.7614 215.144 18.1193C215.411 18.4716 215.619 18.7614 215.766 18.9886H215.937V12.5455H217.948V30H216.005V27.9886H215.766C215.619 28.2273 215.408 28.5284 215.136 28.892C214.863 29.25 214.474 29.571 213.968 29.8551C213.462 30.1335 212.789 30.2727 211.948 30.2727ZM212.221 28.4659C213.028 28.4659 213.71 28.2557 214.266 27.8352C214.823 27.4091 215.246 26.821 215.536 26.071C215.826 25.3153 215.971 24.4432 215.971 23.4545C215.971 22.4773 215.829 21.6222 215.545 20.8892C215.261 20.1506 214.84 19.5767 214.283 19.1676C213.727 18.7528 213.039 18.5455 212.221 18.5455C211.369 18.5455 210.658 18.7642 210.09 19.2017C209.528 19.6335 209.104 20.2216 208.82 20.9659C208.542 21.7045 208.403 22.5341 208.403 23.4545C208.403 24.3864 208.545 25.233 208.829 25.9943C209.119 26.75 209.545 27.3523 210.107 27.8011C210.675 28.2443 211.38 28.4659 212.221 28.4659ZM233.979 30.2727C232.752 30.2727 231.695 29.983 230.809 29.4034C229.923 28.8239 229.241 28.0256 228.763 27.0085C228.286 25.9915 228.048 24.8295 228.048 23.5227C228.048 22.1932 228.292 21.0199 228.781 20.0028C229.275 18.9801 229.962 18.1818 230.843 17.608C231.729 17.0284 232.763 16.7386 233.945 16.7386C234.866 16.7386 235.695 16.9091 236.434 17.25C237.173 17.5909 237.778 18.0682 238.249 18.6818C238.721 19.2955 239.013 20.0114 239.127 20.8295H237.116C236.962 20.233 236.621 19.7045 236.093 19.2443C235.57 18.7784 234.866 18.5455 233.979 18.5455C233.195 18.5455 232.508 18.75 231.917 19.1591C231.332 19.5625 230.874 20.1335 230.545 20.8722C230.221 21.6051 230.059 22.4659 230.059 23.4545C230.059 24.4659 230.218 25.3466 230.536 26.0966C230.86 26.8466 231.315 27.429 231.9 27.8438C232.491 28.2585 233.184 28.4659 233.979 28.4659C234.502 28.4659 234.977 28.375 235.403 28.1932C235.829 28.0114 236.19 27.75 236.485 27.4091C236.781 27.0682 236.991 26.6591 237.116 26.1818H239.127C239.013 26.9545 238.732 27.6506 238.283 28.2699C237.84 28.8835 237.252 29.3722 236.519 29.7358C235.792 30.0938 234.945 30.2727 233.979 30.2727ZM244.079 22.125V30H242.067V12.5455H244.079V18.9545H244.249C244.556 18.2784 245.016 17.7415 245.63 17.3438C246.249 16.9403 247.073 16.7386 248.102 16.7386C248.994 16.7386 249.775 16.9176 250.445 17.2756C251.116 17.6278 251.636 18.1705 252.005 18.9034C252.38 19.6307 252.567 20.5568 252.567 21.6818V30H250.556V21.8182C250.556 20.7784 250.286 19.9744 249.746 19.4062C249.212 18.8324 248.471 18.5455 247.522 18.5455C246.863 18.5455 246.272 18.6847 245.749 18.9631C245.232 19.2415 244.823 19.6477 244.522 20.1818C244.227 20.7159 244.079 21.3636 244.079 22.125ZM261.565 30.2727C260.384 30.2727 259.347 29.9915 258.455 29.429C257.568 28.8665 256.875 28.0795 256.375 27.0682C255.881 26.0568 255.634 24.875 255.634 23.5227C255.634 22.1591 255.881 20.9687 256.375 19.9517C256.875 18.9347 257.568 18.1449 258.455 17.5824C259.347 17.0199 260.384 16.7386 261.565 16.7386C262.747 16.7386 263.781 17.0199 264.668 17.5824C265.56 18.1449 266.253 18.9347 266.747 19.9517C267.247 20.9687 267.497 22.1591 267.497 23.5227C267.497 24.875 267.247 26.0568 266.747 27.0682C266.253 28.0795 265.56 28.8665 264.668 29.429C263.781 29.9915 262.747 30.2727 261.565 30.2727ZM261.565 28.4659C262.463 28.4659 263.202 28.2358 263.781 27.7756C264.361 27.3153 264.79 26.7102 265.068 25.9602C265.347 25.2102 265.486 24.3977 265.486 23.5227C265.486 22.6477 265.347 21.8324 265.068 21.0767C264.79 20.321 264.361 19.7102 263.781 19.2443C263.202 18.7784 262.463 18.5455 261.565 18.5455C260.668 18.5455 259.929 18.7784 259.349 19.2443C258.77 19.7102 258.341 20.321 258.062 21.0767C257.784 21.8324 257.645 22.6477 257.645 23.5227C257.645 24.3977 257.784 25.2102 258.062 25.9602C258.341 26.7102 258.77 27.3153 259.349 27.7756C259.929 28.2358 260.668 28.4659 261.565 28.4659ZM275.886 30.2727C274.658 30.2727 273.602 29.983 272.715 29.4034C271.829 28.8239 271.147 28.0256 270.67 27.0085C270.192 25.9915 269.954 24.8295 269.954 23.5227C269.954 22.1932 270.198 21.0199 270.687 20.0028C271.181 18.9801 271.869 18.1818 272.749 17.608C273.636 17.0284 274.67 16.7386 275.852 16.7386C276.772 16.7386 277.602 16.9091 278.34 17.25C279.079 17.5909 279.684 18.0682 280.156 18.6818C280.627 19.2955 280.92 20.0114 281.033 20.8295H279.022C278.869 20.233 278.528 19.7045 277.999 19.2443C277.477 18.7784 276.772 18.5455 275.886 18.5455C275.102 18.5455 274.414 18.75 273.823 19.1591C273.238 19.5625 272.781 20.1335 272.451 20.8722C272.127 21.6051 271.965 22.4659 271.965 23.4545C271.965 24.4659 272.124 25.3466 272.442 26.0966C272.766 26.8466 273.221 27.429 273.806 27.8438C274.397 28.2585 275.09 28.4659 275.886 28.4659C276.408 28.4659 276.883 28.375 277.309 28.1932C277.735 28.0114 278.096 27.75 278.391 27.4091C278.687 27.0682 278.897 26.6591 279.022 26.1818H281.033C280.92 26.9545 280.638 27.6506 280.19 28.2699C279.746 28.8835 279.158 29.3722 278.425 29.7358C277.698 30.0938 276.852 30.2727 275.886 30.2727ZM289.292 30.2727C288.11 30.2727 287.073 29.9915 286.181 29.429C285.295 28.8665 284.602 28.0795 284.102 27.0682C283.607 26.0568 283.36 24.875 283.36 23.5227C283.36 22.1591 283.607 20.9687 284.102 19.9517C284.602 18.9347 285.295 18.1449 286.181 17.5824C287.073 17.0199 288.11 16.7386 289.292 16.7386C290.474 16.7386 291.508 17.0199 292.394 17.5824C293.286 18.1449 293.979 18.9347 294.474 19.9517C294.974 20.9687 295.224 22.1591 295.224 23.5227C295.224 24.875 294.974 26.0568 294.474 27.0682C293.979 28.0795 293.286 28.8665 292.394 29.429C291.508 29.9915 290.474 30.2727 289.292 30.2727ZM289.292 28.4659C290.19 28.4659 290.928 28.2358 291.508 27.7756C292.087 27.3153 292.516 26.7102 292.795 25.9602C293.073 25.2102 293.212 24.3977 293.212 23.5227C293.212 22.6477 293.073 21.8324 292.795 21.0767C292.516 20.321 292.087 19.7102 291.508 19.2443C290.928 18.7784 290.19 18.5455 289.292 18.5455C288.394 18.5455 287.656 18.7784 287.076 19.2443C286.496 19.7102 286.067 20.321 285.789 21.0767C285.511 21.8324 285.371 22.6477 285.371 23.5227C285.371 24.3977 285.511 25.2102 285.789 25.9602C286.067 26.7102 286.496 27.3153 287.076 27.7756C287.656 28.2358 288.394 28.4659 289.292 28.4659ZM300.305 12.5455V30H298.294V12.5455H300.305ZM307.842 30.3068C307.012 30.3068 306.259 30.1506 305.583 29.8381C304.907 29.5199 304.37 29.0625 303.972 28.4659C303.575 27.8636 303.376 27.1364 303.376 26.2841C303.376 25.5341 303.523 24.9261 303.819 24.4602C304.114 23.9886 304.509 23.6193 305.004 23.3523C305.498 23.0852 306.043 22.8864 306.64 22.7557C307.242 22.6193 307.847 22.5114 308.455 22.4318C309.251 22.3295 309.896 22.2528 310.39 22.2017C310.89 22.1449 311.254 22.0511 311.481 21.9205C311.714 21.7898 311.83 21.5625 311.83 21.2386V21.1705C311.83 20.3295 311.6 19.6761 311.14 19.2102C310.685 18.7443 309.995 18.5114 309.069 18.5114C308.109 18.5114 307.356 18.7216 306.81 19.142C306.265 19.5625 305.881 20.0114 305.66 20.4886L303.751 19.8068C304.092 19.0114 304.546 18.392 305.114 17.9489C305.688 17.5 306.313 17.1875 306.989 17.0114C307.671 16.8295 308.342 16.7386 309.001 16.7386C309.421 16.7386 309.904 16.7898 310.45 16.892C311.001 16.9886 311.532 17.1903 312.043 17.4972C312.56 17.804 312.989 18.267 313.33 18.8864C313.671 19.5057 313.842 20.3352 313.842 21.375V30H311.83V28.2273H311.728C311.592 28.5114 311.364 28.8153 311.046 29.1392C310.728 29.4631 310.305 29.7386 309.776 29.9659C309.248 30.1932 308.603 30.3068 307.842 30.3068ZM308.148 28.5C308.944 28.5 309.614 28.3438 310.16 28.0312C310.711 27.7188 311.126 27.3153 311.404 26.821C311.688 26.3267 311.83 25.8068 311.83 25.2614V23.4205C311.745 23.5227 311.558 23.6165 311.268 23.7017C310.984 23.7812 310.654 23.8523 310.279 23.9148C309.91 23.9716 309.549 24.0227 309.197 24.0682C308.85 24.108 308.569 24.142 308.353 24.1705C307.83 24.2386 307.342 24.3494 306.887 24.5028C306.438 24.6506 306.075 24.875 305.796 25.1761C305.523 25.4716 305.387 25.875 305.387 26.3864C305.387 27.0852 305.646 27.6136 306.163 27.9716C306.685 28.3239 307.347 28.5 308.148 28.5ZM323.206 16.9091V18.6136H316.422V16.9091H323.206ZM318.399 13.7727H320.411V26.25C320.411 26.8182 320.493 27.2443 320.658 27.5284C320.828 27.8068 321.044 27.9943 321.305 28.0909C321.572 28.1818 321.854 28.2273 322.149 28.2273C322.371 28.2273 322.553 28.2159 322.695 28.1932C322.837 28.1648 322.95 28.142 323.036 28.125L323.445 29.9318C323.308 29.983 323.118 30.0341 322.874 30.0852C322.629 30.142 322.32 30.1705 321.945 30.1705C321.376 30.1705 320.82 30.0483 320.274 29.804C319.734 29.5597 319.286 29.1875 318.928 28.6875C318.575 28.1875 318.399 27.5568 318.399 26.7955V13.7727ZM331.58 30.2727C330.318 30.2727 329.23 29.9943 328.315 29.4375C327.406 28.875 326.705 28.0909 326.21 27.0852C325.722 26.0739 325.477 24.8977 325.477 23.5568C325.477 22.2159 325.722 21.0341 326.21 20.0114C326.705 18.983 327.392 18.1818 328.273 17.608C329.159 17.0284 330.193 16.7386 331.375 16.7386C332.057 16.7386 332.73 16.8523 333.395 17.0795C334.06 17.3068 334.665 17.6761 335.21 18.1875C335.756 18.6932 336.19 19.3636 336.514 20.1989C336.838 21.0341 337 22.0625 337 23.2841V24.1364H326.909V22.3977H334.955C334.955 21.6591 334.807 21 334.511 20.4205C334.222 19.8409 333.807 19.3835 333.267 19.0483C332.733 18.7131 332.102 18.5455 331.375 18.5455C330.574 18.5455 329.881 18.7443 329.295 19.142C328.716 19.5341 328.27 20.0455 327.957 20.6761C327.645 21.3068 327.489 21.983 327.489 22.7045V23.8636C327.489 24.8523 327.659 25.6903 328 26.3778C328.347 27.0597 328.827 27.5795 329.44 27.9375C330.054 28.2898 330.767 28.4659 331.58 28.4659C332.108 28.4659 332.585 28.392 333.011 28.2443C333.443 28.0909 333.815 27.8636 334.128 27.5625C334.44 27.2557 334.682 26.875 334.852 26.4205L336.795 26.9659C336.591 27.625 336.247 28.2045 335.764 28.7045C335.281 29.1989 334.685 29.5852 333.974 29.8636C333.264 30.1364 332.466 30.2727 331.58 30.2727ZM343.06 27.6136L342.923 28.5341C342.827 29.1818 342.679 29.875 342.48 30.6136C342.287 31.3523 342.085 32.0483 341.875 32.7017C341.665 33.3551 341.491 33.875 341.355 34.2614H339.821C339.895 33.8977 339.991 33.4176 340.111 32.821C340.23 32.2244 340.349 31.5568 340.469 30.8182C340.594 30.0852 340.696 29.3352 340.776 28.5682L340.878 27.6136H343.06ZM356.502 30L352.513 16.9091H354.627L357.457 26.9318H357.593L360.388 16.9091H362.536L365.298 26.8977H365.434L368.263 16.9091H370.377L366.388 30H364.411L361.548 19.9432H361.343L358.479 30H356.502ZM376.888 30.3068C376.059 30.3068 375.306 30.1506 374.63 29.8381C373.954 29.5199 373.417 29.0625 373.019 28.4659C372.621 27.8636 372.423 27.1364 372.423 26.2841C372.423 25.5341 372.57 24.9261 372.866 24.4602C373.161 23.9886 373.556 23.6193 374.05 23.3523C374.545 23.0852 375.09 22.8864 375.687 22.7557C376.289 22.6193 376.894 22.5114 377.502 22.4318C378.298 22.3295 378.942 22.2528 379.437 22.2017C379.937 22.1449 380.3 22.0511 380.528 21.9205C380.761 21.7898 380.877 21.5625 380.877 21.2386V21.1705C380.877 20.3295 380.647 19.6761 380.187 19.2102C379.732 18.7443 379.042 18.5114 378.116 18.5114C377.156 18.5114 376.403 18.7216 375.857 19.142C375.312 19.5625 374.928 20.0114 374.707 20.4886L372.798 19.8068C373.138 19.0114 373.593 18.392 374.161 17.9489C374.735 17.5 375.36 17.1875 376.036 17.0114C376.718 16.8295 377.388 16.7386 378.048 16.7386C378.468 16.7386 378.951 16.7898 379.496 16.892C380.048 16.9886 380.579 17.1903 381.09 17.4972C381.607 17.804 382.036 18.267 382.377 18.8864C382.718 19.5057 382.888 20.3352 382.888 21.375V30H380.877V28.2273H380.775C380.638 28.5114 380.411 28.8153 380.093 29.1392C379.775 29.4631 379.352 29.7386 378.823 29.9659C378.295 30.1932 377.65 30.3068 376.888 30.3068ZM377.195 28.5C377.991 28.5 378.661 28.3438 379.207 28.0312C379.758 27.7188 380.173 27.3153 380.451 26.821C380.735 26.3267 380.877 25.8068 380.877 25.2614V23.4205C380.792 23.5227 380.604 23.6165 380.315 23.7017C380.031 23.7812 379.701 23.8523 379.326 23.9148C378.957 23.9716 378.596 24.0227 378.244 24.0682C377.897 24.108 377.616 24.142 377.4 24.1705C376.877 24.2386 376.388 24.3494 375.934 24.5028C375.485 24.6506 375.121 24.875 374.843 25.1761C374.57 25.4716 374.434 25.875 374.434 26.3864C374.434 27.0852 374.692 27.6136 375.21 27.9716C375.732 28.3239 376.394 28.5 377.195 28.5ZM386.56 30V16.9091H388.571V30H386.56ZM387.582 14.7273C387.19 14.7273 386.852 14.5938 386.568 14.3267C386.29 14.0597 386.151 13.7386 386.151 13.3636C386.151 12.9886 386.29 12.6676 386.568 12.4006C386.852 12.1335 387.19 12 387.582 12C387.974 12 388.31 12.1335 388.588 12.4006C388.872 12.6676 389.014 12.9886 389.014 13.3636C389.014 13.7386 388.872 14.0597 388.588 14.3267C388.31 14.5938 387.974 14.7273 387.582 14.7273ZM397.948 16.9091V18.6136H391.164V16.9091H397.948ZM393.141 13.7727H395.153V26.25C395.153 26.8182 395.235 27.2443 395.4 27.5284C395.57 27.8068 395.786 27.9943 396.048 28.0909C396.315 28.1818 396.596 28.2273 396.891 28.2273C397.113 28.2273 397.295 28.2159 397.437 28.1932C397.579 28.1648 397.692 28.142 397.778 28.125L398.187 29.9318C398.05 29.983 397.86 30.0341 397.616 30.0852C397.371 30.142 397.062 30.1705 396.687 30.1705C396.119 30.1705 395.562 30.0483 395.016 29.804C394.477 29.5597 394.028 29.1875 393.67 28.6875C393.317 28.1875 393.141 27.5568 393.141 26.7955V13.7727ZM400.974 30V16.9091H402.985V30H400.974ZM401.996 14.7273C401.604 14.7273 401.266 14.5938 400.982 14.3267C400.704 14.0597 400.565 13.7386 400.565 13.3636C400.565 12.9886 400.704 12.6676 400.982 12.4006C401.266 12.1335 401.604 12 401.996 12C402.388 12 402.724 12.1335 403.002 12.4006C403.286 12.6676 403.428 12.9886 403.428 13.3636C403.428 13.7386 403.286 14.0597 403.002 14.3267C402.724 14.5938 402.388 14.7273 401.996 14.7273ZM408.68 22.125V30H406.669V16.9091H408.612V18.9545H408.783C409.089 18.2898 409.555 17.7557 410.18 17.3523C410.805 16.9432 411.612 16.7386 412.601 16.7386C413.487 16.7386 414.263 16.9205 414.928 17.2841C415.592 17.642 416.109 18.1875 416.479 18.9205C416.848 19.6477 417.033 20.5682 417.033 21.6818V30H415.021V21.8182C415.021 20.7898 414.754 19.9886 414.22 19.4148C413.686 18.8352 412.953 18.5455 412.021 18.5455C411.379 18.5455 410.805 18.6847 410.3 18.9631C409.8 19.2415 409.405 19.6477 409.115 20.1818C408.825 20.7159 408.68 21.3636 408.68 22.125ZM425.992 35.1818C425.021 35.1818 424.185 35.0568 423.487 34.8068C422.788 34.5625 422.205 34.2386 421.739 33.8352C421.279 33.4375 420.913 33.0114 420.64 32.5568L422.242 31.4318C422.424 31.6705 422.654 31.9432 422.933 32.25C423.211 32.5625 423.592 32.8324 424.075 33.0597C424.563 33.2926 425.202 33.4091 425.992 33.4091C427.049 33.4091 427.921 33.1534 428.609 32.642C429.296 32.1307 429.64 31.3295 429.64 30.2386V27.5795H429.469C429.322 27.8182 429.112 28.1136 428.839 28.4659C428.572 28.8125 428.185 29.1222 427.68 29.3949C427.18 29.6619 426.504 29.7955 425.651 29.7955C424.594 29.7955 423.646 29.5455 422.805 29.0455C421.969 28.5455 421.308 27.8182 420.819 26.8636C420.336 25.9091 420.094 24.75 420.094 23.3864C420.094 22.0455 420.33 20.8778 420.802 19.8835C421.273 18.8835 421.93 18.1108 422.771 17.5653C423.612 17.0142 424.583 16.7386 425.685 16.7386C426.538 16.7386 427.214 16.8807 427.714 17.1648C428.219 17.4432 428.606 17.7614 428.873 18.1193C429.146 18.4716 429.356 18.7614 429.504 18.9886H429.708V16.9091H431.651V30.375C431.651 31.5 431.396 32.4148 430.884 33.1193C430.379 33.8295 429.697 34.3494 428.839 34.679C427.987 35.0142 427.038 35.1818 425.992 35.1818ZM425.924 27.9886C426.731 27.9886 427.413 27.804 427.969 27.4347C428.526 27.0653 428.95 26.5341 429.239 25.8409C429.529 25.1477 429.674 24.3182 429.674 23.3523C429.674 22.4091 429.532 21.5767 429.248 20.8551C428.964 20.1335 428.543 19.5682 427.987 19.1591C427.43 18.75 426.742 18.5455 425.924 18.5455C425.072 18.5455 424.362 18.7614 423.793 19.1932C423.231 19.625 422.808 20.2045 422.523 20.9318C422.245 21.6591 422.106 22.4659 422.106 23.3523C422.106 24.2614 422.248 25.0653 422.532 25.7642C422.822 26.4574 423.248 27.0028 423.81 27.4006C424.379 27.7926 425.083 27.9886 425.924 27.9886ZM447.913 16.9091V18.6136H440.856V16.9091H447.913ZM442.969 30V15.1023C442.969 14.3523 443.146 13.7273 443.498 13.2273C443.85 12.7273 444.308 12.3523 444.87 12.1023C445.433 11.8523 446.026 11.7273 446.651 11.7273C447.146 11.7273 447.549 11.767 447.862 11.8466C448.174 11.9261 448.407 12 448.56 12.0682L447.981 13.8068C447.879 13.7727 447.737 13.7301 447.555 13.679C447.379 13.6278 447.146 13.6023 446.856 13.6023C446.191 13.6023 445.711 13.7699 445.415 14.1051C445.126 14.4403 444.981 14.9318 444.981 15.5795V30H442.969ZM455.511 30.2727C454.329 30.2727 453.292 29.9915 452.4 29.429C451.513 28.8665 450.82 28.0795 450.32 27.0682C449.826 26.0568 449.579 24.875 449.579 23.5227C449.579 22.1591 449.826 20.9687 450.32 19.9517C450.82 18.9347 451.513 18.1449 452.4 17.5824C453.292 17.0199 454.329 16.7386 455.511 16.7386C456.692 16.7386 457.727 17.0199 458.613 17.5824C459.505 18.1449 460.198 18.9347 460.692 19.9517C461.192 20.9687 461.442 22.1591 461.442 23.5227C461.442 24.875 461.192 26.0568 460.692 27.0682C460.198 28.0795 459.505 28.8665 458.613 29.429C457.727 29.9915 456.692 30.2727 455.511 30.2727ZM455.511 28.4659C456.408 28.4659 457.147 28.2358 457.727 27.7756C458.306 27.3153 458.735 26.7102 459.013 25.9602C459.292 25.2102 459.431 24.3977 459.431 23.5227C459.431 22.6477 459.292 21.8324 459.013 21.0767C458.735 20.321 458.306 19.7102 457.727 19.2443C457.147 18.7784 456.408 18.5455 455.511 18.5455C454.613 18.5455 453.874 18.7784 453.295 19.2443C452.715 19.7102 452.286 20.321 452.008 21.0767C451.729 21.8324 451.59 22.6477 451.59 23.5227C451.59 24.3977 451.729 25.2102 452.008 25.9602C452.286 26.7102 452.715 27.3153 453.295 27.7756C453.874 28.2358 454.613 28.4659 455.511 28.4659ZM464.513 30V16.9091H466.456V18.8864H466.592C466.831 18.2386 467.263 17.7131 467.888 17.3097C468.513 16.9062 469.217 16.7045 470.001 16.7045C470.149 16.7045 470.334 16.7074 470.555 16.7131C470.777 16.7187 470.945 16.7273 471.058 16.7386V18.7841C470.99 18.767 470.834 18.7415 470.589 18.7074C470.351 18.6676 470.098 18.6477 469.831 18.6477C469.195 18.6477 468.626 18.7812 468.126 19.0483C467.632 19.3097 467.24 19.6733 466.95 20.1392C466.666 20.5994 466.524 21.125 466.524 21.7159V30H464.513ZM489.465 19.8409L487.658 20.3523C487.545 20.0511 487.377 19.7585 487.156 19.4744C486.94 19.1847 486.644 18.946 486.269 18.7585C485.894 18.571 485.414 18.4773 484.829 18.4773C484.028 18.4773 483.36 18.6619 482.826 19.0312C482.298 19.3949 482.033 19.858 482.033 20.4205C482.033 20.9205 482.215 21.3153 482.579 21.6051C482.942 21.8949 483.511 22.1364 484.283 22.3295L486.227 22.8068C487.397 23.0909 488.269 23.5256 488.843 24.1108C489.417 24.6903 489.704 25.4375 489.704 26.3523C489.704 27.1023 489.488 27.7727 489.056 28.3636C488.63 28.9545 488.033 29.4205 487.266 29.7614C486.499 30.1023 485.607 30.2727 484.59 30.2727C483.255 30.2727 482.15 29.983 481.275 29.4034C480.4 28.8239 479.846 27.9773 479.613 26.8636L481.522 26.3864C481.704 27.0909 482.048 27.6193 482.553 27.9716C483.065 28.3239 483.732 28.5 484.556 28.5C485.494 28.5 486.238 28.3011 486.789 27.9034C487.346 27.5 487.624 27.017 487.624 26.4545C487.624 26 487.465 25.6193 487.147 25.3125C486.829 25 486.34 24.767 485.681 24.6136L483.499 24.1023C482.3 23.8182 481.42 23.3778 480.857 22.7812C480.3 22.179 480.022 21.4261 480.022 20.5227C480.022 19.7841 480.229 19.1307 480.644 18.5625C481.065 17.9943 481.636 17.5483 482.357 17.2244C483.085 16.9006 483.908 16.7386 484.829 16.7386C486.124 16.7386 487.141 17.0227 487.88 17.5909C488.624 18.1591 489.153 18.9091 489.465 19.8409ZM498.05 30.2727C496.868 30.2727 495.831 29.9915 494.939 29.429C494.053 28.8665 493.359 28.0795 492.859 27.0682C492.365 26.0568 492.118 24.875 492.118 23.5227C492.118 22.1591 492.365 20.9687 492.859 19.9517C493.359 18.9347 494.053 18.1449 494.939 17.5824C495.831 17.0199 496.868 16.7386 498.05 16.7386C499.232 16.7386 500.266 17.0199 501.152 17.5824C502.044 18.1449 502.737 18.9347 503.232 19.9517C503.732 20.9687 503.982 22.1591 503.982 23.5227C503.982 24.875 503.732 26.0568 503.232 27.0682C502.737 28.0795 502.044 28.8665 501.152 29.429C500.266 29.9915 499.232 30.2727 498.05 30.2727ZM498.05 28.4659C498.947 28.4659 499.686 28.2358 500.266 27.7756C500.845 27.3153 501.274 26.7102 501.553 25.9602C501.831 25.2102 501.97 24.3977 501.97 23.5227C501.97 22.6477 501.831 21.8324 501.553 21.0767C501.274 20.321 500.845 19.7102 500.266 19.2443C499.686 18.7784 498.947 18.5455 498.05 18.5455C497.152 18.5455 496.413 18.7784 495.834 19.2443C495.254 19.7102 494.825 20.321 494.547 21.0767C494.268 21.8324 494.129 22.6477 494.129 23.5227C494.129 24.3977 494.268 25.2102 494.547 25.9602C494.825 26.7102 495.254 27.3153 495.834 27.7756C496.413 28.2358 497.152 28.4659 498.05 28.4659ZM507.052 30V16.9091H508.995V18.9545H509.165C509.438 18.2557 509.879 17.7131 510.487 17.3267C511.094 16.9347 511.825 16.7386 512.677 16.7386C513.54 16.7386 514.259 16.9347 514.833 17.3267C515.413 17.7131 515.864 18.2557 516.188 18.9545H516.325C516.66 18.2784 517.163 17.7415 517.833 17.3438C518.504 16.9403 519.308 16.7386 520.245 16.7386C521.415 16.7386 522.373 17.1051 523.117 17.8381C523.862 18.5653 524.234 19.6989 524.234 21.2386V30H522.222V21.2386C522.222 20.2727 521.958 19.5824 521.43 19.1676C520.901 18.7528 520.279 18.5455 519.563 18.5455C518.643 18.5455 517.93 18.8239 517.424 19.3807C516.918 19.9318 516.665 20.6307 516.665 21.4773V30H514.62V21.0341C514.62 20.2898 514.379 19.6903 513.896 19.2358C513.413 18.7756 512.79 18.5455 512.029 18.5455C511.506 18.5455 511.018 18.6847 510.563 18.9631C510.114 19.2415 509.751 19.6278 509.472 20.1222C509.2 20.6108 509.063 21.1761 509.063 21.8182V30H507.052ZM533.4 30.2727C532.138 30.2727 531.05 29.9943 530.136 29.4375C529.227 28.875 528.525 28.0909 528.031 27.0852C527.542 26.0739 527.298 24.8977 527.298 23.5568C527.298 22.2159 527.542 21.0341 528.031 20.0114C528.525 18.983 529.212 18.1818 530.093 17.608C530.979 17.0284 532.013 16.7386 533.195 16.7386C533.877 16.7386 534.55 16.8523 535.215 17.0795C535.88 17.3068 536.485 17.6761 537.031 18.1875C537.576 18.6932 538.011 19.3636 538.335 20.1989C538.658 21.0341 538.82 22.0625 538.82 23.2841V24.1364H528.729V22.3977H536.775C536.775 21.6591 536.627 21 536.332 20.4205C536.042 19.8409 535.627 19.3835 535.087 19.0483C534.553 18.7131 533.923 18.5455 533.195 18.5455C532.394 18.5455 531.701 18.7443 531.116 19.142C530.536 19.5341 530.09 20.0455 529.778 20.6761C529.465 21.3068 529.309 21.983 529.309 22.7045V23.8636C529.309 24.8523 529.479 25.6903 529.82 26.3778C530.167 27.0597 530.647 27.5795 531.261 27.9375C531.874 28.2898 532.587 28.4659 533.4 28.4659C533.928 28.4659 534.406 28.392 534.832 28.2443C535.263 28.0909 535.636 27.8636 535.948 27.5625C536.261 27.2557 536.502 26.875 536.673 26.4205L538.616 26.9659C538.411 27.625 538.067 28.2045 537.585 28.7045C537.102 29.1989 536.505 29.5852 535.795 29.8636C535.085 30.1364 534.286 30.2727 533.4 30.2727ZM547.198 30.2727C546.016 30.2727 544.979 29.9915 544.087 29.429C543.201 28.8665 542.508 28.0795 542.008 27.0682C541.513 26.0568 541.266 24.875 541.266 23.5227C541.266 22.1591 541.513 20.9687 542.008 19.9517C542.508 18.9347 543.201 18.1449 544.087 17.5824C544.979 17.0199 546.016 16.7386 547.198 16.7386C548.38 16.7386 549.414 17.0199 550.3 17.5824C551.192 18.1449 551.886 18.9347 552.38 19.9517C552.88 20.9687 553.13 22.1591 553.13 23.5227C553.13 24.875 552.88 26.0568 552.38 27.0682C551.886 28.0795 551.192 28.8665 550.3 29.429C549.414 29.9915 548.38 30.2727 547.198 30.2727ZM547.198 28.4659C548.096 28.4659 548.835 28.2358 549.414 27.7756C549.994 27.3153 550.423 26.7102 550.701 25.9602C550.979 25.2102 551.119 24.3977 551.119 23.5227C551.119 22.6477 550.979 21.8324 550.701 21.0767C550.423 20.321 549.994 19.7102 549.414 19.2443C548.835 18.7784 548.096 18.5455 547.198 18.5455C546.3 18.5455 545.562 18.7784 544.982 19.2443C544.403 19.7102 543.974 20.321 543.695 21.0767C543.417 21.8324 543.278 22.6477 543.278 23.5227C543.278 24.3977 543.417 25.2102 543.695 25.9602C543.974 26.7102 544.403 27.3153 544.982 27.7756C545.562 28.2358 546.3 28.4659 547.198 28.4659ZM558.212 22.125V30H556.2V16.9091H558.143V18.9545H558.314C558.621 18.2898 559.087 17.7557 559.712 17.3523C560.337 16.9432 561.143 16.7386 562.132 16.7386C563.018 16.7386 563.794 16.9205 564.459 17.2841C565.124 17.642 565.641 18.1875 566.01 18.9205C566.379 19.6477 566.564 20.5682 566.564 21.6818V30H564.553V21.8182C564.553 20.7898 564.286 19.9886 563.751 19.4148C563.217 18.8352 562.484 18.5455 561.553 18.5455C560.911 18.5455 560.337 18.6847 559.831 18.9631C559.331 19.2415 558.936 19.6477 558.646 20.1818C558.357 20.7159 558.212 21.3636 558.212 22.125ZM575.728 30.2727C574.467 30.2727 573.379 29.9943 572.464 29.4375C571.555 28.875 570.853 28.0909 570.359 27.0852C569.87 26.0739 569.626 24.8977 569.626 23.5568C569.626 22.2159 569.87 21.0341 570.359 20.0114C570.853 18.983 571.54 18.1818 572.421 17.608C573.308 17.0284 574.342 16.7386 575.523 16.7386C576.205 16.7386 576.879 16.8523 577.543 17.0795C578.208 17.3068 578.813 17.6761 579.359 18.1875C579.904 18.6932 580.339 19.3636 580.663 20.1989C580.987 21.0341 581.148 22.0625 581.148 23.2841V24.1364H571.058V22.3977H579.103C579.103 21.6591 578.955 21 578.66 20.4205C578.37 19.8409 577.955 19.3835 577.415 19.0483C576.881 18.7131 576.251 18.5455 575.523 18.5455C574.722 18.5455 574.029 18.7443 573.444 19.142C572.864 19.5341 572.418 20.0455 572.106 20.6761C571.793 21.3068 571.637 21.983 571.637 22.7045V23.8636C571.637 24.8523 571.808 25.6903 572.148 26.3778C572.495 27.0597 572.975 27.5795 573.589 27.9375C574.202 28.2898 574.915 28.4659 575.728 28.4659C576.256 28.4659 576.734 28.392 577.16 28.2443C577.592 28.0909 577.964 27.8636 578.276 27.5625C578.589 27.2557 578.83 26.875 579.001 26.4205L580.944 26.9659C580.739 27.625 580.396 28.2045 579.913 28.7045C579.43 29.1989 578.833 29.5852 578.123 29.8636C577.413 30.1364 576.614 30.2727 575.728 30.2727ZM596.651 16.9091V18.6136H589.867V16.9091H596.651ZM591.844 13.7727H593.856V26.25C593.856 26.8182 593.938 27.2443 594.103 27.5284C594.273 27.8068 594.489 27.9943 594.751 28.0909C595.018 28.1818 595.299 28.2273 595.594 28.2273C595.816 28.2273 595.998 28.2159 596.14 28.1932C596.282 28.1648 596.396 28.142 596.481 28.125L596.89 29.9318C596.754 29.983 596.563 30.0341 596.319 30.0852C596.075 30.142 595.765 30.1705 595.39 30.1705C594.822 30.1705 594.265 30.0483 593.719 29.804C593.18 29.5597 592.731 29.1875 592.373 28.6875C592.021 28.1875 591.844 27.5568 591.844 26.7955V13.7727ZM604.854 30.2727C603.673 30.2727 602.636 29.9915 601.744 29.429C600.857 28.8665 600.164 28.0795 599.664 27.0682C599.17 26.0568 598.923 24.875 598.923 23.5227C598.923 22.1591 599.17 20.9687 599.664 19.9517C600.164 18.9347 600.857 18.1449 601.744 17.5824C602.636 17.0199 603.673 16.7386 604.854 16.7386C606.036 16.7386 607.07 17.0199 607.957 17.5824C608.849 18.1449 609.542 18.9347 610.036 19.9517C610.536 20.9687 610.786 22.1591 610.786 23.5227C610.786 24.875 610.536 26.0568 610.036 27.0682C609.542 28.0795 608.849 28.8665 607.957 29.429C607.07 29.9915 606.036 30.2727 604.854 30.2727ZM604.854 28.4659C605.752 28.4659 606.491 28.2358 607.07 27.7756C607.65 27.3153 608.079 26.7102 608.357 25.9602C608.636 25.2102 608.775 24.3977 608.775 23.5227C608.775 22.6477 608.636 21.8324 608.357 21.0767C608.079 20.321 607.65 19.7102 607.07 19.2443C606.491 18.7784 605.752 18.5455 604.854 18.5455C603.957 18.5455 603.218 18.7784 602.638 19.2443C602.059 19.7102 601.63 20.321 601.352 21.0767C601.073 21.8324 600.934 22.6477 600.934 23.5227C600.934 24.3977 601.073 25.2102 601.352 25.9602C601.63 26.7102 602.059 27.3153 602.638 27.7756C603.218 28.2358 603.957 28.4659 604.854 28.4659ZM625.925 30.2727C624.697 30.2727 623.641 29.983 622.754 29.4034C621.868 28.8239 621.186 28.0256 620.709 27.0085C620.232 25.9915 619.993 24.8295 619.993 23.5227C619.993 22.1932 620.237 21.0199 620.726 20.0028C621.22 18.9801 621.908 18.1818 622.788 17.608C623.675 17.0284 624.709 16.7386 625.891 16.7386C626.811 16.7386 627.641 16.9091 628.379 17.25C629.118 17.5909 629.723 18.0682 630.195 18.6818C630.666 19.2955 630.959 20.0114 631.072 20.8295H629.061C628.908 20.233 628.567 19.7045 628.038 19.2443C627.516 18.7784 626.811 18.5455 625.925 18.5455C625.141 18.5455 624.453 18.75 623.862 19.1591C623.277 19.5625 622.82 20.1335 622.49 20.8722C622.166 21.6051 622.004 22.4659 622.004 23.4545C622.004 24.4659 622.163 25.3466 622.482 26.0966C622.805 26.8466 623.26 27.429 623.845 27.8438C624.436 28.2585 625.129 28.4659 625.925 28.4659C626.447 28.4659 626.922 28.375 627.348 28.1932C627.774 28.0114 628.135 27.75 628.43 27.4091C628.726 27.0682 628.936 26.6591 629.061 26.1818H631.072C630.959 26.9545 630.678 27.6506 630.229 28.2699C629.786 28.8835 629.197 29.3722 628.464 29.7358C627.737 30.0938 626.891 30.2727 625.925 30.2727ZM639.331 30.2727C638.149 30.2727 637.112 29.9915 636.22 29.429C635.334 28.8665 634.641 28.0795 634.141 27.0682C633.646 26.0568 633.399 24.875 633.399 23.5227C633.399 22.1591 633.646 20.9687 634.141 19.9517C634.641 18.9347 635.334 18.1449 636.22 17.5824C637.112 17.0199 638.149 16.7386 639.331 16.7386C640.513 16.7386 641.547 17.0199 642.433 17.5824C643.325 18.1449 644.018 18.9347 644.513 19.9517C645.013 20.9687 645.263 22.1591 645.263 23.5227C645.263 24.875 645.013 26.0568 644.513 27.0682C644.018 28.0795 643.325 28.8665 642.433 29.429C641.547 29.9915 640.513 30.2727 639.331 30.2727ZM639.331 28.4659C640.229 28.4659 640.967 28.2358 641.547 27.7756C642.126 27.3153 642.555 26.7102 642.834 25.9602C643.112 25.2102 643.251 24.3977 643.251 23.5227C643.251 22.6477 643.112 21.8324 642.834 21.0767C642.555 20.321 642.126 19.7102 641.547 19.2443C640.967 18.7784 640.229 18.5455 639.331 18.5455C638.433 18.5455 637.695 18.7784 637.115 19.2443C636.536 19.7102 636.107 20.321 635.828 21.0767C635.55 21.8324 635.411 22.6477 635.411 23.5227C635.411 24.3977 635.55 25.2102 635.828 25.9602C636.107 26.7102 636.536 27.3153 637.115 27.7756C637.695 28.2358 638.433 28.4659 639.331 28.4659ZM648.333 30V16.9091H650.276V18.9545H650.447C650.719 18.2557 651.16 17.7131 651.768 17.3267C652.376 16.9347 653.106 16.7386 653.958 16.7386C654.822 16.7386 655.54 16.9347 656.114 17.3267C656.694 17.7131 657.146 18.2557 657.469 18.9545H657.606C657.941 18.2784 658.444 17.7415 659.114 17.3438C659.785 16.9403 660.589 16.7386 661.526 16.7386C662.697 16.7386 663.654 17.1051 664.398 17.8381C665.143 18.5653 665.515 19.6989 665.515 21.2386V30H663.504V21.2386C663.504 20.2727 663.239 19.5824 662.711 19.1676C662.183 18.7528 661.56 18.5455 660.844 18.5455C659.924 18.5455 659.211 18.8239 658.705 19.3807C658.2 19.9318 657.947 20.6307 657.947 21.4773V30H655.901V21.0341C655.901 20.2898 655.66 19.6903 655.177 19.2358C654.694 18.7756 654.072 18.5455 653.31 18.5455C652.788 18.5455 652.299 18.6847 651.844 18.9631C651.396 19.2415 651.032 19.6278 650.754 20.1222C650.481 20.6108 650.344 21.1761 650.344 21.8182V30H648.333ZM669.192 30V16.9091H671.136V18.9545H671.306C671.579 18.2557 672.019 17.7131 672.627 17.3267C673.235 16.9347 673.965 16.7386 674.817 16.7386C675.681 16.7386 676.4 16.9347 676.974 17.3267C677.553 17.7131 678.005 18.2557 678.329 18.9545H678.465C678.8 18.2784 679.303 17.7415 679.974 17.3438C680.644 16.9403 681.448 16.7386 682.386 16.7386C683.556 16.7386 684.513 17.1051 685.258 17.8381C686.002 18.5653 686.374 19.6989 686.374 21.2386V30H684.363V21.2386C684.363 20.2727 684.099 19.5824 683.57 19.1676C683.042 18.7528 682.42 18.5455 681.704 18.5455C680.783 18.5455 680.07 18.8239 679.565 19.3807C679.059 19.9318 678.806 20.6307 678.806 21.4773V30H676.761V21.0341C676.761 20.2898 676.519 19.6903 676.036 19.2358C675.553 18.7756 674.931 18.5455 674.17 18.5455C673.647 18.5455 673.158 18.6847 672.704 18.9631C672.255 19.2415 671.891 19.6278 671.613 20.1222C671.34 20.6108 671.204 21.1761 671.204 21.8182V30H669.192ZM690.052 30V16.9091H692.063V30H690.052ZM691.075 14.7273C690.683 14.7273 690.344 14.5938 690.06 14.3267C689.782 14.0597 689.643 13.7386 689.643 13.3636C689.643 12.9886 689.782 12.6676 690.06 12.4006C690.344 12.1335 690.683 12 691.075 12C691.467 12 691.802 12.1335 692.08 12.4006C692.364 12.6676 692.506 12.9886 692.506 13.3636C692.506 13.7386 692.364 14.0597 692.08 14.3267C691.802 14.5938 691.467 14.7273 691.075 14.7273ZM701.44 16.9091V18.6136H694.656V16.9091H701.44ZM696.634 13.7727H698.645V26.25C698.645 26.8182 698.727 27.2443 698.892 27.5284C699.063 27.8068 699.278 27.9943 699.54 28.0909C699.807 28.1818 700.088 28.2273 700.384 28.2273C700.605 28.2273 700.787 28.2159 700.929 28.1932C701.071 28.1648 701.185 28.142 701.27 28.125L701.679 29.9318C701.543 29.983 701.352 30.0341 701.108 30.0852C700.864 30.142 700.554 30.1705 700.179 30.1705C699.611 30.1705 699.054 30.0483 698.509 29.804C697.969 29.5597 697.52 29.1875 697.162 28.6875C696.81 28.1875 696.634 27.5568 696.634 26.7955V13.7727ZM705.932 30.1364C705.511 30.1364 705.151 29.9858 704.849 29.6847C704.548 29.3835 704.398 29.0227 704.398 28.6023C704.398 28.1818 704.548 27.821 704.849 27.5199C705.151 27.2187 705.511 27.0682 705.932 27.0682C706.352 27.0682 706.713 27.2187 707.014 27.5199C707.315 27.821 707.466 28.1818 707.466 28.6023C707.466 28.8807 707.395 29.1364 707.253 29.3693C707.116 29.6023 706.932 29.7898 706.699 29.9318C706.472 30.0682 706.216 30.1364 705.932 30.1364Z" fill="#D3B6A1"/>
</svg>
