<svg width="773" height="40" viewBox="0 0 773 40" fill="none" xmlns="http://www.w3.org/2000/svg">
<rect x="1" y="1" width="771" height="38" rx="19" stroke="#3D1F1A" stroke-width="2"/>
<path d="M62.1591 13.4205V11.5455H75.25V13.4205H69.7614V29H67.6477V13.4205H62.1591ZM80.2507 21.125V29H78.2393V11.5455H80.2507V17.9545H80.4212C80.728 17.2784 81.1882 16.7415 81.8018 16.3438C82.4212 15.9403 83.245 15.7386 84.2734 15.7386C85.1655 15.7386 85.9467 15.9176 86.6172 16.2756C87.2876 16.6278 87.8075 17.1705 88.1768 17.9034C88.5518 18.6307 88.7393 19.5568 88.7393 20.6818V29H86.728V20.8182C86.728 19.7784 86.4581 18.9744 85.9183 18.4062C85.3842 17.8324 84.6428 17.5455 83.6939 17.5455C83.0348 17.5455 82.4439 17.6847 81.9212 17.9631C81.4041 18.2415 80.995 18.6477 80.6939 19.1818C80.3984 19.7159 80.2507 20.3636 80.2507 21.125ZM96.2713 29.3068C95.4418 29.3068 94.6889 29.1506 94.0128 28.8381C93.3366 28.5199 92.7997 28.0625 92.402 27.4659C92.0043 26.8636 91.8054 26.1364 91.8054 25.2841C91.8054 24.5341 91.9531 23.9261 92.2486 23.4602C92.544 22.9886 92.9389 22.6193 93.4332 22.3523C93.9276 22.0852 94.473 21.8864 95.0696 21.7557C95.6719 21.6193 96.277 21.5114 96.8849 21.4318C97.6804 21.3295 98.3253 21.2528 98.8196 21.2017C99.3196 21.1449 99.6832 21.0511 99.9105 20.9205C100.143 20.7898 100.26 20.5625 100.26 20.2386V20.1705C100.26 19.3295 100.03 18.6761 99.5696 18.2102C99.1151 17.7443 98.4247 17.5114 97.4986 17.5114C96.5384 17.5114 95.7855 17.7216 95.2401 18.142C94.6946 18.5625 94.3111 19.0114 94.0895 19.4886L92.1804 18.8068C92.5213 18.0114 92.9759 17.392 93.544 16.9489C94.1179 16.5 94.7429 16.1875 95.419 16.0114C96.1009 15.8295 96.7713 15.7386 97.4304 15.7386C97.8509 15.7386 98.3338 15.7898 98.8793 15.892C99.4304 15.9886 99.9616 16.1903 100.473 16.4972C100.99 16.804 101.419 17.267 101.76 17.8864C102.101 18.5057 102.271 19.3352 102.271 20.375V29H100.26V27.2273H100.158C100.021 27.5114 99.794 27.8153 99.4759 28.1392C99.1577 28.4631 98.7344 28.7386 98.206 28.9659C97.6776 29.1932 97.0327 29.3068 96.2713 29.3068ZM96.5781 27.5C97.3736 27.5 98.044 27.3438 98.5895 27.0312C99.1406 26.7188 99.5554 26.3153 99.8338 25.821C100.118 25.3267 100.26 24.8068 100.26 24.2614V22.4205C100.175 22.5227 99.9872 22.6165 99.6974 22.7017C99.4134 22.7812 99.0838 22.8523 98.7088 22.9148C98.3395 22.9716 97.9787 23.0227 97.6264 23.0682C97.2798 23.108 96.9986 23.142 96.7827 23.1705C96.2599 23.2386 95.7713 23.3494 95.3168 23.5028C94.8679 23.6506 94.5043 23.875 94.2259 24.1761C93.9531 24.4716 93.8168 24.875 93.8168 25.3864C93.8168 26.0852 94.0753 26.6136 94.5923 26.9716C95.1151 27.3239 95.777 27.5 96.5781 27.5ZM111.636 15.9091V17.6136H104.852V15.9091H111.636ZM106.829 12.7727H108.84V25.25C108.84 25.8182 108.923 26.2443 109.087 26.5284C109.258 26.8068 109.474 26.9943 109.735 27.0909C110.002 27.1818 110.283 27.2273 110.579 27.2273C110.8 27.2273 110.982 27.2159 111.124 27.1932C111.266 27.1648 111.38 27.142 111.465 27.125L111.874 28.9318C111.738 28.983 111.548 29.0341 111.303 29.0852C111.059 29.142 110.749 29.1705 110.374 29.1705C109.806 29.1705 109.249 29.0483 108.704 28.804C108.164 28.5597 107.715 28.1875 107.357 27.6875C107.005 27.1875 106.829 26.5568 106.829 25.7955V12.7727ZM126.729 29.2727C125.548 29.2727 124.511 28.9915 123.619 28.429C122.732 27.8665 122.039 27.0795 121.539 26.0682C121.045 25.0568 120.798 23.875 120.798 22.5227C120.798 21.1591 121.045 19.9687 121.539 18.9517C122.039 17.9347 122.732 17.1449 123.619 16.5824C124.511 16.0199 125.548 15.7386 126.729 15.7386C127.911 15.7386 128.945 16.0199 129.832 16.5824C130.724 17.1449 131.417 17.9347 131.911 18.9517C132.411 19.9687 132.661 21.1591 132.661 22.5227C132.661 23.875 132.411 25.0568 131.911 26.0682C131.417 27.0795 130.724 27.8665 129.832 28.429C128.945 28.9915 127.911 29.2727 126.729 29.2727ZM126.729 27.4659C127.627 27.4659 128.366 27.2358 128.945 26.7756C129.525 26.3153 129.954 25.7102 130.232 24.9602C130.511 24.2102 130.65 23.3977 130.65 22.5227C130.65 21.6477 130.511 20.8324 130.232 20.0767C129.954 19.321 129.525 18.7102 128.945 18.2443C128.366 17.7784 127.627 17.5455 126.729 17.5455C125.832 17.5455 125.093 17.7784 124.513 18.2443C123.934 18.7102 123.505 19.321 123.227 20.0767C122.948 20.8324 122.809 21.6477 122.809 22.5227C122.809 23.3977 122.948 24.2102 123.227 24.9602C123.505 25.7102 123.934 26.3153 124.513 26.7756C125.093 27.2358 125.832 27.4659 126.729 27.4659ZM137.743 21.125V29H135.732V15.9091H137.675V17.9545H137.845C138.152 17.2898 138.618 16.7557 139.243 16.3523C139.868 15.9432 140.675 15.7386 141.663 15.7386C142.55 15.7386 143.325 15.9205 143.99 16.2841C144.655 16.642 145.172 17.1875 145.541 17.9205C145.911 18.6477 146.095 19.5682 146.095 20.6818V29H144.084V20.8182C144.084 19.7898 143.817 18.9886 143.283 18.4148C142.749 17.8352 142.016 17.5455 141.084 17.5455C140.442 17.5455 139.868 17.6847 139.362 17.9631C138.862 18.2415 138.467 18.6477 138.178 19.1818C137.888 19.7159 137.743 20.3636 137.743 21.125ZM155.259 29.2727C153.998 29.2727 152.91 28.9943 151.995 28.4375C151.086 27.875 150.384 27.0909 149.89 26.0852C149.401 25.0739 149.157 23.8977 149.157 22.5568C149.157 21.2159 149.401 20.0341 149.89 19.0114C150.384 17.983 151.072 17.1818 151.952 16.608C152.839 16.0284 153.873 15.7386 155.055 15.7386C155.737 15.7386 156.41 15.8523 157.075 16.0795C157.739 16.3068 158.344 16.6761 158.89 17.1875C159.435 17.6932 159.87 18.3636 160.194 19.1989C160.518 20.0341 160.68 21.0625 160.68 22.2841V23.1364H150.589V21.3977H158.634C158.634 20.6591 158.487 20 158.191 19.4205C157.901 18.8409 157.487 18.3835 156.947 18.0483C156.413 17.7131 155.782 17.5455 155.055 17.5455C154.254 17.5455 153.56 17.7443 152.975 18.142C152.396 18.5341 151.95 19.0455 151.637 19.6761C151.325 20.3068 151.168 20.983 151.168 21.7045V22.8636C151.168 23.8523 151.339 24.6903 151.68 25.3778C152.026 26.0597 152.506 26.5795 153.12 26.9375C153.734 27.2898 154.447 27.4659 155.259 27.4659C155.788 27.4659 156.265 27.392 156.691 27.2443C157.123 27.0909 157.495 26.8636 157.808 26.5625C158.12 26.2557 158.362 25.875 158.532 25.4205L160.475 25.9659C160.271 26.625 159.927 27.2045 159.444 27.7045C158.961 28.1989 158.364 28.5852 157.654 28.8636C156.944 29.1364 156.146 29.2727 155.259 29.2727ZM175.808 29.2727C174.58 29.2727 173.523 28.983 172.637 28.4034C171.751 27.8239 171.069 27.0256 170.592 26.0085C170.114 24.9915 169.876 23.8295 169.876 22.5227C169.876 21.1932 170.12 20.0199 170.609 19.0028C171.103 17.9801 171.79 17.1818 172.671 16.608C173.558 16.0284 174.592 15.7386 175.773 15.7386C176.694 15.7386 177.523 15.9091 178.262 16.25C179.001 16.5909 179.606 17.0682 180.077 17.6818C180.549 18.2955 180.842 19.0114 180.955 19.8295H178.944C178.79 19.233 178.45 18.7045 177.921 18.2443C177.398 17.7784 176.694 17.5455 175.808 17.5455C175.023 17.5455 174.336 17.75 173.745 18.1591C173.16 18.5625 172.702 19.1335 172.373 19.8722C172.049 20.6051 171.887 21.4659 171.887 22.4545C171.887 23.4659 172.046 24.3466 172.364 25.0966C172.688 25.8466 173.143 26.429 173.728 26.8438C174.319 27.2585 175.012 27.4659 175.808 27.4659C176.33 27.4659 176.805 27.375 177.231 27.1932C177.657 27.0114 178.018 26.75 178.313 26.4091C178.609 26.0682 178.819 25.6591 178.944 25.1818H180.955C180.842 25.9545 180.56 26.6506 180.112 27.2699C179.668 27.8835 179.08 28.3722 178.347 28.7358C177.62 29.0938 176.773 29.2727 175.808 29.2727ZM192.146 23.6477V15.9091H194.157V29H192.146V26.7841H192.009C191.702 27.4489 191.225 28.0142 190.577 28.4801C189.93 28.9403 189.112 29.1705 188.123 29.1705C187.305 29.1705 186.577 28.9915 185.941 28.6335C185.305 28.2699 184.805 27.7244 184.441 26.9972C184.077 26.2642 183.896 25.3409 183.896 24.2273V15.9091H185.907V24.0909C185.907 25.0455 186.174 25.8068 186.708 26.375C187.248 26.9432 187.935 27.2273 188.771 27.2273C189.271 27.2273 189.779 27.0994 190.296 26.8438C190.819 26.5881 191.256 26.196 191.609 25.6676C191.967 25.1392 192.146 24.4659 192.146 23.6477ZM203.159 29.2727C201.932 29.2727 200.875 28.983 199.989 28.4034C199.102 27.8239 198.42 27.0256 197.943 26.0085C197.466 24.9915 197.227 23.8295 197.227 22.5227C197.227 21.1932 197.472 20.0199 197.96 19.0028C198.455 17.9801 199.142 17.1818 200.023 16.608C200.909 16.0284 201.943 15.7386 203.125 15.7386C204.045 15.7386 204.875 15.9091 205.614 16.25C206.352 16.5909 206.957 17.0682 207.429 17.6818C207.901 18.2955 208.193 19.0114 208.307 19.8295H206.295C206.142 19.233 205.801 18.7045 205.273 18.2443C204.75 17.7784 204.045 17.5455 203.159 17.5455C202.375 17.5455 201.688 17.75 201.097 18.1591C200.511 18.5625 200.054 19.1335 199.724 19.8722C199.401 20.6051 199.239 21.4659 199.239 22.4545C199.239 23.4659 199.398 24.3466 199.716 25.0966C200.04 25.8466 200.494 26.429 201.08 26.8438C201.67 27.2585 202.364 27.4659 203.159 27.4659C203.682 27.4659 204.156 27.375 204.582 27.1932C205.009 27.0114 205.369 26.75 205.665 26.4091C205.96 26.0682 206.17 25.6591 206.295 25.1818H208.307C208.193 25.9545 207.912 26.6506 207.463 27.2699C207.02 27.8835 206.432 28.3722 205.699 28.7358C204.972 29.0938 204.125 29.2727 203.159 29.2727ZM219.497 23.6477V15.9091H221.509V29H219.497V26.7841H219.361C219.054 27.4489 218.577 28.0142 217.929 28.4801C217.281 28.9403 216.463 29.1705 215.474 29.1705C214.656 29.1705 213.929 28.9915 213.293 28.6335C212.656 28.2699 212.156 27.7244 211.793 26.9972C211.429 26.2642 211.247 25.3409 211.247 24.2273V15.9091H213.259V24.0909C213.259 25.0455 213.526 25.8068 214.06 26.375C214.599 26.9432 215.287 27.2273 216.122 27.2273C216.622 27.2273 217.131 27.0994 217.648 26.8438C218.17 26.5881 218.608 26.196 218.96 25.6676C219.318 25.1392 219.497 24.4659 219.497 23.6477ZM225.192 29V15.9091H227.136V17.9545H227.306C227.579 17.2557 228.019 16.7131 228.627 16.3267C229.235 15.9347 229.965 15.7386 230.817 15.7386C231.681 15.7386 232.4 15.9347 232.974 16.3267C233.553 16.7131 234.005 17.2557 234.329 17.9545H234.465C234.8 17.2784 235.303 16.7415 235.974 16.3438C236.644 15.9403 237.448 15.7386 238.386 15.7386C239.556 15.7386 240.513 16.1051 241.258 16.8381C242.002 17.5653 242.374 18.6989 242.374 20.2386V29H240.363V20.2386C240.363 19.2727 240.099 18.5824 239.57 18.1676C239.042 17.7528 238.42 17.5455 237.704 17.5455C236.783 17.5455 236.07 17.8239 235.565 18.3807C235.059 18.9318 234.806 19.6307 234.806 20.4773V29H232.761V20.0341C232.761 19.2898 232.519 18.6903 232.036 18.2358C231.553 17.7756 230.931 17.5455 230.17 17.5455C229.647 17.5455 229.158 17.6847 228.704 17.9631C228.255 18.2415 227.891 18.6278 227.613 19.1222C227.34 19.6108 227.204 20.1761 227.204 20.8182V29H225.192ZM246.325 29V11.5455H248.336V17.9886H248.506C248.654 17.7614 248.859 17.4716 249.12 17.1193C249.387 16.7614 249.768 16.4432 250.262 16.1648C250.762 15.8807 251.438 15.7386 252.29 15.7386C253.393 15.7386 254.364 16.0142 255.205 16.5653C256.046 17.1165 256.702 17.8977 257.174 18.9091C257.646 19.9205 257.881 21.1136 257.881 22.4886C257.881 23.875 257.646 25.0767 257.174 26.0938C256.702 27.1051 256.049 27.8892 255.214 28.446C254.379 28.9972 253.415 29.2727 252.325 29.2727C251.484 29.2727 250.81 29.1335 250.305 28.8551C249.799 28.571 249.41 28.25 249.137 27.892C248.864 27.5284 248.654 27.2273 248.506 26.9886H248.268V29H246.325ZM248.302 22.4545C248.302 23.4432 248.447 24.3153 248.737 25.071C249.026 25.821 249.45 26.4091 250.006 26.8352C250.563 27.2557 251.245 27.4659 252.052 27.4659C252.893 27.4659 253.594 27.2443 254.157 26.8011C254.725 26.3523 255.151 25.75 255.435 24.9943C255.725 24.233 255.87 23.3864 255.87 22.4545C255.87 21.5341 255.728 20.7045 255.444 19.9659C255.165 19.2216 254.742 18.6335 254.174 18.2017C253.612 17.7642 252.904 17.5455 252.052 17.5455C251.234 17.5455 250.546 17.7528 249.989 18.1676C249.433 18.5767 249.012 19.1506 248.728 19.8892C248.444 20.6222 248.302 21.4773 248.302 22.4545ZM266.447 29.2727C265.185 29.2727 264.097 28.9943 263.183 28.4375C262.273 27.875 261.572 27.0909 261.077 26.0852C260.589 25.0739 260.344 23.8977 260.344 22.5568C260.344 21.2159 260.589 20.0341 261.077 19.0114C261.572 17.983 262.259 17.1818 263.14 16.608C264.026 16.0284 265.06 15.7386 266.242 15.7386C266.924 15.7386 267.597 15.8523 268.262 16.0795C268.927 16.3068 269.532 16.6761 270.077 17.1875C270.623 17.6932 271.058 18.3636 271.381 19.1989C271.705 20.0341 271.867 21.0625 271.867 22.2841V23.1364H261.776V21.3977H269.822C269.822 20.6591 269.674 20 269.379 19.4205C269.089 18.8409 268.674 18.3835 268.134 18.0483C267.6 17.7131 266.969 17.5455 266.242 17.5455C265.441 17.5455 264.748 17.7443 264.163 18.142C263.583 18.5341 263.137 19.0455 262.825 19.6761C262.512 20.3068 262.356 20.983 262.356 21.7045V22.8636C262.356 23.8523 262.526 24.6903 262.867 25.3778C263.214 26.0597 263.694 26.5795 264.308 26.9375C264.921 27.2898 265.634 27.4659 266.447 27.4659C266.975 27.4659 267.452 27.392 267.879 27.2443C268.31 27.0909 268.683 26.8636 268.995 26.5625C269.308 26.2557 269.549 25.875 269.719 25.4205L271.663 25.9659C271.458 26.625 271.114 27.2045 270.631 27.7045C270.148 28.1989 269.552 28.5852 268.842 28.8636C268.131 29.1364 267.333 29.2727 266.447 29.2727ZM274.927 29V15.9091H276.87V17.8864H277.006C277.245 17.2386 277.677 16.7131 278.302 16.3097C278.927 15.9062 279.631 15.7045 280.415 15.7045C280.563 15.7045 280.748 15.7074 280.969 15.7131C281.191 15.7187 281.359 15.7273 281.472 15.7386V17.7841C281.404 17.767 281.248 17.7415 281.004 17.7074C280.765 17.6676 280.512 17.6477 280.245 17.6477C279.609 17.6477 279.04 17.7812 278.54 18.0483C278.046 18.3097 277.654 18.6733 277.364 19.1392C277.08 19.5994 276.938 20.125 276.938 20.7159V29H274.927ZM285.357 26.6136L285.22 27.5341C285.124 28.1818 284.976 28.875 284.777 29.6136C284.584 30.3523 284.382 31.0483 284.172 31.7017C283.962 32.3551 283.788 32.875 283.652 33.2614H282.118C282.192 32.8977 282.288 32.4176 282.408 31.821C282.527 31.2244 282.646 30.5568 282.766 29.8182C282.891 29.0852 282.993 28.3352 283.072 27.5682L283.175 26.6136H285.357ZM296.106 29V11.5455H298.117V17.9886H298.288C298.435 17.7614 298.64 17.4716 298.901 17.1193C299.168 16.7614 299.549 16.4432 300.043 16.1648C300.543 15.8807 301.219 15.7386 302.072 15.7386C303.174 15.7386 304.146 16.0142 304.987 16.5653C305.827 17.1165 306.484 17.8977 306.955 18.9091C307.427 19.9205 307.663 21.1136 307.663 22.4886C307.663 23.875 307.427 25.0767 306.955 26.0938C306.484 27.1051 305.83 27.8892 304.995 28.446C304.16 28.9972 303.197 29.2727 302.106 29.2727C301.265 29.2727 300.592 29.1335 300.086 28.8551C299.58 28.571 299.191 28.25 298.918 27.892C298.646 27.5284 298.435 27.2273 298.288 26.9886H298.049V29H296.106ZM298.083 22.4545C298.083 23.4432 298.228 24.3153 298.518 25.071C298.808 25.821 299.231 26.4091 299.788 26.8352C300.344 27.2557 301.026 27.4659 301.833 27.4659C302.674 27.4659 303.376 27.2443 303.938 26.8011C304.506 26.3523 304.933 25.75 305.217 24.9943C305.506 24.233 305.651 23.3864 305.651 22.4545C305.651 21.5341 305.509 20.7045 305.225 19.9659C304.947 19.2216 304.523 18.6335 303.955 18.2017C303.393 17.7642 302.685 17.5455 301.833 17.5455C301.015 17.5455 300.327 17.7528 299.771 18.1676C299.214 18.5767 298.793 19.1506 298.509 19.8892C298.225 20.6222 298.083 21.4773 298.083 22.4545ZM316.228 29.2727C314.967 29.2727 313.879 28.9943 312.964 28.4375C312.055 27.875 311.353 27.0909 310.859 26.0852C310.37 25.0739 310.126 23.8977 310.126 22.5568C310.126 21.2159 310.37 20.0341 310.859 19.0114C311.353 17.983 312.04 17.1818 312.921 16.608C313.808 16.0284 314.842 15.7386 316.023 15.7386C316.705 15.7386 317.379 15.8523 318.043 16.0795C318.708 16.3068 319.313 16.6761 319.859 17.1875C320.404 17.6932 320.839 18.3636 321.163 19.1989C321.487 20.0341 321.648 21.0625 321.648 22.2841V23.1364H311.558V21.3977H319.603C319.603 20.6591 319.455 20 319.16 19.4205C318.87 18.8409 318.455 18.3835 317.915 18.0483C317.381 17.7131 316.751 17.5455 316.023 17.5455C315.222 17.5455 314.529 17.7443 313.944 18.142C313.364 18.5341 312.918 19.0455 312.606 19.6761C312.293 20.3068 312.137 20.983 312.137 21.7045V22.8636C312.137 23.8523 312.308 24.6903 312.648 25.3778C312.995 26.0597 313.475 26.5795 314.089 26.9375C314.702 27.2898 315.415 27.4659 316.228 27.4659C316.756 27.4659 317.234 27.392 317.66 27.2443C318.092 27.0909 318.464 26.8636 318.776 26.5625C319.089 26.2557 319.33 25.875 319.501 25.4205L321.444 25.9659C321.239 26.625 320.896 27.2045 320.413 27.7045C319.93 28.1989 319.333 28.5852 318.623 28.8636C317.913 29.1364 317.114 29.2727 316.228 29.2727ZM330.197 29.2727C328.935 29.2727 327.847 28.9943 326.933 28.4375C326.023 27.875 325.322 27.0909 324.827 26.0852C324.339 25.0739 324.094 23.8977 324.094 22.5568C324.094 21.2159 324.339 20.0341 324.827 19.0114C325.322 17.983 326.009 17.1818 326.89 16.608C327.776 16.0284 328.81 15.7386 329.992 15.7386C330.674 15.7386 331.347 15.8523 332.012 16.0795C332.677 16.3068 333.282 16.6761 333.827 17.1875C334.373 17.6932 334.808 18.3636 335.131 19.1989C335.455 20.0341 335.617 21.0625 335.617 22.2841V23.1364H325.526V21.3977H333.572C333.572 20.6591 333.424 20 333.129 19.4205C332.839 18.8409 332.424 18.3835 331.884 18.0483C331.35 17.7131 330.719 17.5455 329.992 17.5455C329.191 17.5455 328.498 17.7443 327.913 18.142C327.333 18.5341 326.887 19.0455 326.575 19.6761C326.262 20.3068 326.106 20.983 326.106 21.7045V22.8636C326.106 23.8523 326.276 24.6903 326.617 25.3778C326.964 26.0597 327.444 26.5795 328.058 26.9375C328.671 27.2898 329.384 27.4659 330.197 27.4659C330.725 27.4659 331.202 27.392 331.629 27.2443C332.06 27.0909 332.433 26.8636 332.745 26.5625C333.058 26.2557 333.299 25.875 333.469 25.4205L335.413 25.9659C335.208 26.625 334.864 27.2045 334.381 27.7045C333.898 28.1989 333.302 28.5852 332.592 28.8636C331.881 29.1364 331.083 29.2727 330.197 29.2727ZM340.688 21.125V29H338.677V15.9091H340.62V17.9545H340.79C341.097 17.2898 341.563 16.7557 342.188 16.3523C342.813 15.9432 343.62 15.7386 344.609 15.7386C345.495 15.7386 346.271 15.9205 346.935 16.2841C347.6 16.642 348.117 17.1875 348.487 17.9205C348.856 18.6477 349.04 19.5682 349.04 20.6818V29H347.029V20.8182C347.029 19.7898 346.762 18.9886 346.228 18.4148C345.694 17.8352 344.961 17.5455 344.029 17.5455C343.387 17.5455 342.813 17.6847 342.308 17.9631C341.808 18.2415 341.413 18.6477 341.123 19.1818C340.833 19.7159 340.688 20.3636 340.688 21.125ZM365.159 15.9091V17.6136H358.375V15.9091H365.159ZM360.352 12.7727H362.364V25.25C362.364 25.8182 362.446 26.2443 362.611 26.5284C362.781 26.8068 362.997 26.9943 363.259 27.0909C363.526 27.1818 363.807 27.2273 364.102 27.2273C364.324 27.2273 364.506 27.2159 364.648 27.1932C364.79 27.1648 364.903 27.142 364.989 27.125L365.398 28.9318C365.261 28.983 365.071 29.0341 364.827 29.0852C364.582 29.142 364.273 29.1705 363.898 29.1705C363.33 29.1705 362.773 29.0483 362.227 28.804C361.688 28.5597 361.239 28.1875 360.881 27.6875C360.528 27.1875 360.352 26.5568 360.352 25.7955V12.7727ZM370.477 21.125V29H368.466V11.5455H370.477V17.9545H370.648C370.955 17.2784 371.415 16.7415 372.028 16.3438C372.648 15.9403 373.472 15.7386 374.5 15.7386C375.392 15.7386 376.173 15.9176 376.844 16.2756C377.514 16.6278 378.034 17.1705 378.403 17.9034C378.778 18.6307 378.966 19.5568 378.966 20.6818V29H376.955V20.8182C376.955 19.7784 376.685 18.9744 376.145 18.4062C375.611 17.8324 374.869 17.5455 373.92 17.5455C373.261 17.5455 372.67 17.6847 372.148 17.9631C371.631 18.2415 371.222 18.6477 370.92 19.1818C370.625 19.7159 370.477 20.3636 370.477 21.125ZM382.646 29V15.9091H384.589V17.8864H384.725C384.964 17.2386 385.396 16.7131 386.021 16.3097C386.646 15.9062 387.35 15.7045 388.134 15.7045C388.282 15.7045 388.467 15.7074 388.688 15.7131C388.91 15.7187 389.077 15.7273 389.191 15.7386V17.7841C389.123 17.767 388.967 17.7415 388.722 17.7074C388.484 17.6676 388.231 17.6477 387.964 17.6477C387.327 17.6477 386.759 17.7812 386.259 18.0483C385.765 18.3097 385.373 18.6733 385.083 19.1392C384.799 19.5994 384.657 20.125 384.657 20.7159V29H382.646ZM396.495 29.2727C395.313 29.2727 394.276 28.9915 393.384 28.429C392.498 27.8665 391.805 27.0795 391.305 26.0682C390.81 25.0568 390.563 23.875 390.563 22.5227C390.563 21.1591 390.81 19.9687 391.305 18.9517C391.805 17.9347 392.498 17.1449 393.384 16.5824C394.276 16.0199 395.313 15.7386 396.495 15.7386C397.677 15.7386 398.711 16.0199 399.597 16.5824C400.489 17.1449 401.183 17.9347 401.677 18.9517C402.177 19.9687 402.427 21.1591 402.427 22.5227C402.427 23.875 402.177 25.0568 401.677 26.0682C401.183 27.0795 400.489 27.8665 399.597 28.429C398.711 28.9915 397.677 29.2727 396.495 29.2727ZM396.495 27.4659C397.393 27.4659 398.131 27.2358 398.711 26.7756C399.29 26.3153 399.719 25.7102 399.998 24.9602C400.276 24.2102 400.415 23.3977 400.415 22.5227C400.415 21.6477 400.276 20.8324 399.998 20.0767C399.719 19.321 399.29 18.7102 398.711 18.2443C398.131 17.7784 397.393 17.5455 396.495 17.5455C395.597 17.5455 394.859 17.7784 394.279 18.2443C393.7 18.7102 393.271 19.321 392.992 20.0767C392.714 20.8324 392.575 21.6477 392.575 22.5227C392.575 23.3977 392.714 24.2102 392.992 24.9602C393.271 25.7102 393.7 26.3153 394.279 26.7756C394.859 27.2358 395.597 27.4659 396.495 27.4659ZM413.747 23.6477V15.9091H415.759V29H413.747V26.7841H413.611C413.304 27.4489 412.827 28.0142 412.179 28.4801C411.531 28.9403 410.713 29.1705 409.724 29.1705C408.906 29.1705 408.179 28.9915 407.543 28.6335C406.906 28.2699 406.406 27.7244 406.043 26.9972C405.679 26.2642 405.497 25.3409 405.497 24.2273V15.9091H407.509V24.0909C407.509 25.0455 407.776 25.8068 408.31 26.375C408.849 26.9432 409.537 27.2273 410.372 27.2273C410.872 27.2273 411.381 27.0994 411.898 26.8438C412.42 26.5881 412.858 26.196 413.21 25.6676C413.568 25.1392 413.747 24.4659 413.747 23.6477ZM424.727 34.1818C423.755 34.1818 422.92 34.0568 422.221 33.8068C421.522 33.5625 420.94 33.2386 420.474 32.8352C420.013 32.4375 419.647 32.0114 419.374 31.5568L420.977 30.4318C421.158 30.6705 421.388 30.9432 421.667 31.25C421.945 31.5625 422.326 31.8324 422.809 32.0597C423.298 32.2926 423.937 32.4091 424.727 32.4091C425.783 32.4091 426.656 32.1534 427.343 31.642C428.031 31.1307 428.374 30.3295 428.374 29.2386V26.5795H428.204C428.056 26.8182 427.846 27.1136 427.573 27.4659C427.306 27.8125 426.92 28.1222 426.414 28.3949C425.914 28.6619 425.238 28.7955 424.386 28.7955C423.329 28.7955 422.38 28.5455 421.539 28.0455C420.704 27.5455 420.042 26.8182 419.553 25.8636C419.07 24.9091 418.829 23.75 418.829 22.3864C418.829 21.0455 419.065 19.8778 419.536 18.8835C420.008 17.8835 420.664 17.1108 421.505 16.5653C422.346 16.0142 423.317 15.7386 424.42 15.7386C425.272 15.7386 425.948 15.8807 426.448 16.1648C426.954 16.4432 427.34 16.7614 427.607 17.1193C427.88 17.4716 428.09 17.7614 428.238 17.9886H428.442V15.9091H430.386V29.375C430.386 30.5 430.13 31.4148 429.619 32.1193C429.113 32.8295 428.431 33.3494 427.573 33.679C426.721 34.0142 425.772 34.1818 424.727 34.1818ZM424.658 26.9886C425.465 26.9886 426.147 26.804 426.704 26.4347C427.261 26.0653 427.684 25.5341 427.974 24.8409C428.263 24.1477 428.408 23.3182 428.408 22.3523C428.408 21.4091 428.266 20.5767 427.982 19.8551C427.698 19.1335 427.278 18.5682 426.721 18.1591C426.164 17.75 425.477 17.5455 424.658 17.5455C423.806 17.5455 423.096 17.7614 422.528 18.1932C421.965 18.625 421.542 19.2045 421.258 19.9318C420.979 20.6591 420.84 21.4659 420.84 22.3523C420.84 23.2614 420.982 24.0653 421.266 24.7642C421.556 25.4574 421.982 26.0028 422.545 26.4006C423.113 26.7926 423.817 26.9886 424.658 26.9886ZM436.079 21.125V29H434.067V11.5455H436.079V17.9545H436.249C436.556 17.2784 437.016 16.7415 437.63 16.3438C438.249 15.9403 439.073 15.7386 440.102 15.7386C440.994 15.7386 441.775 15.9176 442.445 16.2756C443.116 16.6278 443.636 17.1705 444.005 17.9034C444.38 18.6307 444.567 19.5568 444.567 20.6818V29H442.556V20.8182C442.556 19.7784 442.286 18.9744 441.746 18.4062C441.212 17.8324 440.471 17.5455 439.522 17.5455C438.863 17.5455 438.272 17.6847 437.749 17.9631C437.232 18.2415 436.823 18.6477 436.522 19.1818C436.227 19.7159 436.079 20.3636 436.079 21.125ZM464.27 18.8409L462.463 19.3523C462.349 19.0511 462.182 18.7585 461.96 18.4744C461.744 18.1847 461.449 17.946 461.074 17.7585C460.699 17.571 460.219 17.4773 459.634 17.4773C458.832 17.4773 458.165 17.6619 457.631 18.0312C457.102 18.3949 456.838 18.858 456.838 19.4205C456.838 19.9205 457.02 20.3153 457.384 20.6051C457.747 20.8949 458.315 21.1364 459.088 21.3295L461.031 21.8068C462.202 22.0909 463.074 22.5256 463.648 23.1108C464.222 23.6903 464.509 24.4375 464.509 25.3523C464.509 26.1023 464.293 26.7727 463.861 27.3636C463.435 27.9545 462.838 28.4205 462.071 28.7614C461.304 29.1023 460.412 29.2727 459.395 29.2727C458.06 29.2727 456.955 28.983 456.08 28.4034C455.205 27.8239 454.651 26.9773 454.418 25.8636L456.327 25.3864C456.509 26.0909 456.852 26.6193 457.358 26.9716C457.869 27.3239 458.537 27.5 459.361 27.5C460.298 27.5 461.043 27.3011 461.594 26.9034C462.151 26.5 462.429 26.017 462.429 25.4545C462.429 25 462.27 24.6193 461.952 24.3125C461.634 24 461.145 23.767 460.486 23.6136L458.304 23.1023C457.105 22.8182 456.224 22.3778 455.662 21.7812C455.105 21.179 454.827 20.4261 454.827 19.5227C454.827 18.7841 455.034 18.1307 455.449 17.5625C455.869 16.9943 456.44 16.5483 457.162 16.2244C457.889 15.9006 458.713 15.7386 459.634 15.7386C460.929 15.7386 461.946 16.0227 462.685 16.5909C463.429 17.1591 463.957 17.9091 464.27 18.8409ZM473.229 15.9091V17.6136H466.445V15.9091H473.229ZM468.423 12.7727H470.434V25.25C470.434 25.8182 470.516 26.2443 470.681 26.5284C470.852 26.8068 471.067 26.9943 471.329 27.0909C471.596 27.1818 471.877 27.2273 472.173 27.2273C472.394 27.2273 472.576 27.2159 472.718 27.1932C472.86 27.1648 472.974 27.142 473.059 27.125L473.468 28.9318C473.332 28.983 473.141 29.0341 472.897 29.0852C472.653 29.142 472.343 29.1705 471.968 29.1705C471.4 29.1705 470.843 29.0483 470.298 28.804C469.758 28.5597 469.309 28.1875 468.951 27.6875C468.599 27.1875 468.423 26.5568 468.423 25.7955V12.7727ZM484.505 23.6477V15.9091H486.516V29H484.505V26.7841H484.369C484.062 27.4489 483.585 28.0142 482.937 28.4801C482.289 28.9403 481.471 29.1705 480.482 29.1705C479.664 29.1705 478.937 28.9915 478.3 28.6335C477.664 28.2699 477.164 27.7244 476.8 26.9972C476.437 26.2642 476.255 25.3409 476.255 24.2273V15.9091H478.266V24.0909C478.266 25.0455 478.533 25.8068 479.067 26.375C479.607 26.9432 480.295 27.2273 481.13 27.2273C481.63 27.2273 482.138 27.0994 482.656 26.8438C483.178 26.5881 483.616 26.196 483.968 25.6676C484.326 25.1392 484.505 24.4659 484.505 23.6477ZM496.03 15.9091V17.6136H488.973V15.9091H496.03ZM491.087 29V14.1023C491.087 13.3523 491.263 12.7273 491.615 12.2273C491.967 11.7273 492.425 11.3523 492.987 11.1023C493.55 10.8523 494.143 10.7273 494.768 10.7273C495.263 10.7273 495.666 10.767 495.979 10.8466C496.291 10.9261 496.524 11 496.678 11.0682L496.098 12.8068C495.996 12.7727 495.854 12.7301 495.672 12.679C495.496 12.6278 495.263 12.6023 494.973 12.6023C494.308 12.6023 493.828 12.7699 493.533 13.1051C493.243 13.4403 493.098 13.9318 493.098 14.5795V29H491.087ZM504.678 15.9091V17.6136H497.621V15.9091H504.678ZM499.735 29V14.1023C499.735 13.3523 499.911 12.7273 500.263 12.2273C500.616 11.7273 501.073 11.3523 501.636 11.1023C502.198 10.8523 502.792 10.7273 503.417 10.7273C503.911 10.7273 504.315 10.767 504.627 10.8466C504.94 10.9261 505.173 11 505.326 11.0682L504.746 12.8068C504.644 12.7727 504.502 12.7301 504.32 12.679C504.144 12.6278 503.911 12.6023 503.621 12.6023C502.957 12.6023 502.477 12.7699 502.181 13.1051C501.891 13.4403 501.746 13.9318 501.746 14.5795V29H499.735ZM509.138 26.6136L509.001 27.5341C508.905 28.1818 508.757 28.875 508.558 29.6136C508.365 30.3523 508.163 31.0483 507.953 31.7017C507.743 32.3551 507.57 32.875 507.433 33.2614H505.899C505.973 32.8977 506.07 32.4176 506.189 31.821C506.308 31.2244 506.428 30.5568 506.547 29.8182C506.672 29.0852 506.774 28.3352 506.854 27.5682L506.956 26.6136H509.138ZM519.887 29V11.5455H521.898V17.9886H522.069C522.217 17.7614 522.421 17.4716 522.683 17.1193C522.95 16.7614 523.33 16.4432 523.825 16.1648C524.325 15.8807 525.001 15.7386 525.853 15.7386C526.955 15.7386 527.927 16.0142 528.768 16.5653C529.609 17.1165 530.265 17.8977 530.737 18.9091C531.208 19.9205 531.444 21.1136 531.444 22.4886C531.444 23.875 531.208 25.0767 530.737 26.0938C530.265 27.1051 529.612 27.8892 528.776 28.446C527.941 28.9972 526.978 29.2727 525.887 29.2727C525.046 29.2727 524.373 29.1335 523.867 28.8551C523.362 28.571 522.972 28.25 522.7 27.892C522.427 27.5284 522.217 27.2273 522.069 26.9886H521.83V29H519.887ZM521.864 22.4545C521.864 23.4432 522.009 24.3153 522.299 25.071C522.589 25.821 523.012 26.4091 523.569 26.8352C524.126 27.2557 524.808 27.4659 525.614 27.4659C526.455 27.4659 527.157 27.2443 527.719 26.8011C528.288 26.3523 528.714 25.75 528.998 24.9943C529.288 24.233 529.433 23.3864 529.433 22.4545C529.433 21.5341 529.29 20.7045 529.006 19.9659C528.728 19.2216 528.305 18.6335 527.737 18.2017C527.174 17.7642 526.467 17.5455 525.614 17.5455C524.796 17.5455 524.109 17.7528 523.552 18.1676C522.995 18.5767 522.575 19.1506 522.29 19.8892C522.006 20.6222 521.864 21.4773 521.864 22.4545ZM542.771 23.6477V15.9091H544.782V29H542.771V26.7841H542.634C542.327 27.4489 541.85 28.0142 541.202 28.4801C540.555 28.9403 539.737 29.1705 538.748 29.1705C537.93 29.1705 537.202 28.9915 536.566 28.6335C535.93 28.2699 535.43 27.7244 535.066 26.9972C534.702 26.2642 534.521 25.3409 534.521 24.2273V15.9091H536.532V24.0909C536.532 25.0455 536.799 25.8068 537.333 26.375C537.873 26.9432 538.56 27.2273 539.396 27.2273C539.896 27.2273 540.404 27.0994 540.921 26.8438C541.444 26.5881 541.881 26.196 542.234 25.6676C542.592 25.1392 542.771 24.4659 542.771 23.6477ZM554.159 15.9091V17.6136H547.375V15.9091H554.159ZM549.352 12.7727H551.364V25.25C551.364 25.8182 551.446 26.2443 551.611 26.5284C551.781 26.8068 551.997 26.9943 552.259 27.0909C552.526 27.1818 552.807 27.2273 553.102 27.2273C553.324 27.2273 553.506 27.2159 553.648 27.1932C553.79 27.1648 553.903 27.142 553.989 27.125L554.398 28.9318C554.261 28.983 554.071 29.0341 553.827 29.0852C553.582 29.142 553.273 29.1705 552.898 29.1705C552.33 29.1705 551.773 29.0483 551.227 28.804C550.688 28.5597 550.239 28.1875 549.881 27.6875C549.528 27.1875 549.352 26.5568 549.352 25.7955V12.7727ZM573.207 18.8409L571.401 19.3523C571.287 19.0511 571.119 18.7585 570.898 18.4744C570.682 18.1847 570.386 17.946 570.011 17.7585C569.636 17.571 569.156 17.4773 568.571 17.4773C567.77 17.4773 567.102 17.6619 566.568 18.0312C566.04 18.3949 565.776 18.858 565.776 19.4205C565.776 19.9205 565.957 20.3153 566.321 20.6051C566.685 20.8949 567.253 21.1364 568.026 21.3295L569.969 21.8068C571.139 22.0909 572.011 22.5256 572.585 23.1108C573.159 23.6903 573.446 24.4375 573.446 25.3523C573.446 26.1023 573.23 26.7727 572.798 27.3636C572.372 27.9545 571.776 28.4205 571.009 28.7614C570.241 29.1023 569.349 29.2727 568.332 29.2727C566.997 29.2727 565.892 28.983 565.017 28.4034C564.142 27.8239 563.588 26.9773 563.355 25.8636L565.264 25.3864C565.446 26.0909 565.79 26.6193 566.295 26.9716C566.807 27.3239 567.474 27.5 568.298 27.5C569.236 27.5 569.98 27.3011 570.531 26.9034C571.088 26.5 571.366 26.017 571.366 25.4545C571.366 25 571.207 24.6193 570.889 24.3125C570.571 24 570.082 23.767 569.423 23.6136L567.241 23.1023C566.043 22.8182 565.162 22.3778 564.599 21.7812C564.043 21.179 563.764 20.4261 563.764 19.5227C563.764 18.7841 563.972 18.1307 564.386 17.5625C564.807 16.9943 565.378 16.5483 566.099 16.2244C566.827 15.9006 567.651 15.7386 568.571 15.7386C569.866 15.7386 570.884 16.0227 571.622 16.5909C572.366 17.1591 572.895 17.9091 573.207 18.8409ZM582.167 15.9091V17.6136H575.383V15.9091H582.167ZM577.36 12.7727H579.371V25.25C579.371 25.8182 579.454 26.2443 579.619 26.5284C579.789 26.8068 580.005 26.9943 580.266 27.0909C580.533 27.1818 580.815 27.2273 581.11 27.2273C581.332 27.2273 581.513 27.2159 581.656 27.1932C581.798 27.1648 581.911 27.142 581.996 27.125L582.406 28.9318C582.269 28.983 582.079 29.0341 581.835 29.0852C581.59 29.142 581.281 29.1705 580.906 29.1705C580.337 29.1705 579.781 29.0483 579.235 28.804C578.695 28.5597 578.246 28.1875 577.888 27.6875C577.536 27.1875 577.36 26.5568 577.36 25.7955V12.7727ZM585.192 29V15.9091H587.204V29H585.192ZM586.215 13.7273C585.823 13.7273 585.485 13.5938 585.201 13.3267C584.923 13.0597 584.783 12.7386 584.783 12.3636C584.783 11.9886 584.923 11.6676 585.201 11.4006C585.485 11.1335 585.823 11 586.215 11C586.607 11 586.942 11.1335 587.221 11.4006C587.505 11.6676 587.647 11.9886 587.647 12.3636C587.647 12.7386 587.505 13.0597 587.221 13.3267C586.942 13.5938 586.607 13.7273 586.215 13.7273ZM592.899 11.5455V29H590.888V11.5455H592.899ZM598.594 11.5455V29H596.583V11.5455H598.594ZM618.301 18.8409L616.494 19.3523C616.381 19.0511 616.213 18.7585 615.991 18.4744C615.776 18.1847 615.48 17.946 615.105 17.7585C614.73 17.571 614.25 17.4773 613.665 17.4773C612.864 17.4773 612.196 17.6619 611.662 18.0312C611.134 18.3949 610.869 18.858 610.869 19.4205C610.869 19.9205 611.051 20.3153 611.415 20.6051C611.778 20.8949 612.347 21.1364 613.119 21.3295L615.062 21.8068C616.233 22.0909 617.105 22.5256 617.679 23.1108C618.253 23.6903 618.54 24.4375 618.54 25.3523C618.54 26.1023 618.324 26.7727 617.892 27.3636C617.466 27.9545 616.869 28.4205 616.102 28.7614C615.335 29.1023 614.443 29.2727 613.426 29.2727C612.091 29.2727 610.986 28.983 610.111 28.4034C609.236 27.8239 608.682 26.9773 608.449 25.8636L610.358 25.3864C610.54 26.0909 610.884 26.6193 611.389 26.9716C611.901 27.3239 612.568 27.5 613.392 27.5C614.33 27.5 615.074 27.3011 615.625 26.9034C616.182 26.5 616.46 26.017 616.46 25.4545C616.46 25 616.301 24.6193 615.983 24.3125C615.665 24 615.176 23.767 614.517 23.6136L612.335 23.1023C611.136 22.8182 610.256 22.3778 609.693 21.7812C609.136 21.179 608.858 20.4261 608.858 19.5227C608.858 18.7841 609.065 18.1307 609.48 17.5625C609.901 16.9943 610.472 16.5483 611.193 16.2244C611.92 15.9006 612.744 15.7386 613.665 15.7386C614.96 15.7386 615.977 16.0227 616.716 16.5909C617.46 17.1591 617.989 17.9091 618.301 18.8409ZM627.261 15.9091V17.6136H620.477V15.9091H627.261ZM622.454 12.7727H624.465V25.25C624.465 25.8182 624.548 26.2443 624.712 26.5284C624.883 26.8068 625.099 26.9943 625.36 27.0909C625.627 27.1818 625.908 27.2273 626.204 27.2273C626.425 27.2273 626.607 27.2159 626.749 27.1932C626.891 27.1648 627.005 27.142 627.09 27.125L627.499 28.9318C627.363 28.983 627.173 29.0341 626.928 29.0852C626.684 29.142 626.374 29.1705 625.999 29.1705C625.431 29.1705 624.874 29.0483 624.329 28.804C623.789 28.5597 623.34 28.1875 622.982 27.6875C622.63 27.1875 622.454 26.5568 622.454 25.7955V12.7727ZM634.138 29.3068C633.309 29.3068 632.556 29.1506 631.88 28.8381C631.204 28.5199 630.667 28.0625 630.269 27.4659C629.871 26.8636 629.673 26.1364 629.673 25.2841C629.673 24.5341 629.82 23.9261 630.116 23.4602C630.411 22.9886 630.806 22.6193 631.3 22.3523C631.795 22.0852 632.34 21.8864 632.937 21.7557C633.539 21.6193 634.144 21.5114 634.752 21.4318C635.548 21.3295 636.192 21.2528 636.687 21.2017C637.187 21.1449 637.55 21.0511 637.778 20.9205C638.011 20.7898 638.127 20.5625 638.127 20.2386V20.1705C638.127 19.3295 637.897 18.6761 637.437 18.2102C636.982 17.7443 636.292 17.5114 635.366 17.5114C634.406 17.5114 633.653 17.7216 633.107 18.142C632.562 18.5625 632.178 19.0114 631.957 19.4886L630.048 18.8068C630.388 18.0114 630.843 17.392 631.411 16.9489C631.985 16.5 632.61 16.1875 633.286 16.0114C633.968 15.8295 634.638 15.7386 635.298 15.7386C635.718 15.7386 636.201 15.7898 636.746 15.892C637.298 15.9886 637.829 16.1903 638.34 16.4972C638.857 16.804 639.286 17.267 639.627 17.8864C639.968 18.5057 640.138 19.3352 640.138 20.375V29H638.127V27.2273H638.025C637.888 27.5114 637.661 27.8153 637.343 28.1392C637.025 28.4631 636.602 28.7386 636.073 28.9659C635.545 29.1932 634.9 29.3068 634.138 29.3068ZM634.445 27.5C635.241 27.5 635.911 27.3438 636.457 27.0312C637.008 26.7188 637.423 26.3153 637.701 25.821C637.985 25.3267 638.127 24.8068 638.127 24.2614V22.4205C638.042 22.5227 637.854 22.6165 637.565 22.7017C637.281 22.7812 636.951 22.8523 636.576 22.9148C636.207 22.9716 635.846 23.0227 635.494 23.0682C635.147 23.108 634.866 23.142 634.65 23.1705C634.127 23.2386 633.638 23.3494 633.184 23.5028C632.735 23.6506 632.371 23.875 632.093 24.1761C631.82 24.4716 631.684 24.875 631.684 25.3864C631.684 26.0852 631.942 26.6136 632.46 26.9716C632.982 27.3239 633.644 27.5 634.445 27.5ZM645.821 21.125V29H643.81V15.9091H645.753V17.9545H645.923C646.23 17.2898 646.696 16.7557 647.321 16.3523C647.946 15.9432 648.753 15.7386 649.741 15.7386C650.628 15.7386 651.403 15.9205 652.068 16.2841C652.733 16.642 653.25 17.1875 653.619 17.9205C653.989 18.6477 654.173 19.5682 654.173 20.6818V29H652.162V20.8182C652.162 19.7898 651.895 18.9886 651.361 18.4148C650.827 17.8352 650.094 17.5455 649.162 17.5455C648.52 17.5455 647.946 17.6847 647.44 17.9631C646.94 18.2415 646.545 18.6477 646.256 19.1818C645.966 19.7159 645.821 20.3636 645.821 21.125ZM662.792 29.2727C661.701 29.2727 660.738 28.9972 659.903 28.446C659.067 27.8892 658.414 27.1051 657.942 26.0938C657.471 25.0767 657.235 23.875 657.235 22.4886C657.235 21.1136 657.471 19.9205 657.942 18.9091C658.414 17.8977 659.07 17.1165 659.911 16.5653C660.752 16.0142 661.724 15.7386 662.826 15.7386C663.678 15.7386 664.352 15.8807 664.846 16.1648C665.346 16.4432 665.727 16.7614 665.988 17.1193C666.255 17.4716 666.462 17.7614 666.61 17.9886H666.781V11.5455H668.792V29H666.849V26.9886H666.61C666.462 27.2273 666.252 27.5284 665.979 27.892C665.707 28.25 665.317 28.571 664.812 28.8551C664.306 29.1335 663.633 29.2727 662.792 29.2727ZM663.065 27.4659C663.871 27.4659 664.553 27.2557 665.11 26.8352C665.667 26.4091 666.09 25.821 666.38 25.071C666.67 24.3153 666.815 23.4432 666.815 22.4545C666.815 21.4773 666.673 20.6222 666.388 19.8892C666.104 19.1506 665.684 18.5767 665.127 18.1676C664.57 17.7528 663.883 17.5455 663.065 17.5455C662.212 17.5455 661.502 17.7642 660.934 18.2017C660.371 18.6335 659.948 19.2216 659.664 19.9659C659.386 20.7045 659.246 21.5341 659.246 22.4545C659.246 23.3864 659.388 24.233 659.673 24.9943C659.962 25.75 660.388 26.3523 660.951 26.8011C661.519 27.2443 662.224 27.4659 663.065 27.4659ZM672.755 29V15.9091H674.766V29H672.755ZM673.778 13.7273C673.386 13.7273 673.048 13.5938 672.763 13.3267C672.485 13.0597 672.346 12.7386 672.346 12.3636C672.346 11.9886 672.485 11.6676 672.763 11.4006C673.048 11.1335 673.386 11 673.778 11C674.17 11 674.505 11.1335 674.783 11.4006C675.067 11.6676 675.21 11.9886 675.21 12.3636C675.21 12.7386 675.067 13.0597 674.783 13.3267C674.505 13.5938 674.17 13.7273 673.778 13.7273ZM680.462 21.125V29H678.45V15.9091H680.393V17.9545H680.564C680.871 17.2898 681.337 16.7557 681.962 16.3523C682.587 15.9432 683.393 15.7386 684.382 15.7386C685.268 15.7386 686.044 15.9205 686.709 16.2841C687.374 16.642 687.891 17.1875 688.26 17.9205C688.629 18.6477 688.814 19.5682 688.814 20.6818V29H686.803V20.8182C686.803 19.7898 686.536 18.9886 686.001 18.4148C685.467 17.8352 684.734 17.5455 683.803 17.5455C683.161 17.5455 682.587 17.6847 682.081 17.9631C681.581 18.2415 681.186 18.6477 680.896 19.1818C680.607 19.7159 680.462 20.3636 680.462 21.125ZM697.773 34.1818C696.802 34.1818 695.967 34.0568 695.268 33.8068C694.569 33.5625 693.987 33.2386 693.521 32.8352C693.06 32.4375 692.694 32.0114 692.421 31.5568L694.023 30.4318C694.205 30.6705 694.435 30.9432 694.714 31.25C694.992 31.5625 695.373 31.8324 695.856 32.0597C696.344 32.2926 696.984 32.4091 697.773 32.4091C698.83 32.4091 699.702 32.1534 700.39 31.642C701.077 31.1307 701.421 30.3295 701.421 29.2386V26.5795H701.251C701.103 26.8182 700.893 27.1136 700.62 27.4659C700.353 27.8125 699.967 28.1222 699.461 28.3949C698.961 28.6619 698.285 28.7955 697.433 28.7955C696.376 28.7955 695.427 28.5455 694.586 28.0455C693.751 27.5455 693.089 26.8182 692.6 25.8636C692.117 24.9091 691.876 23.75 691.876 22.3864C691.876 21.0455 692.112 19.8778 692.583 18.8835C693.055 17.8835 693.711 17.1108 694.552 16.5653C695.393 16.0142 696.364 15.7386 697.467 15.7386C698.319 15.7386 698.995 15.8807 699.495 16.1648C700.001 16.4432 700.387 16.7614 700.654 17.1193C700.927 17.4716 701.137 17.7614 701.285 17.9886H701.489V15.9091H703.433V29.375C703.433 30.5 703.177 31.4148 702.665 32.1193C702.16 32.8295 701.478 33.3494 700.62 33.679C699.768 34.0142 698.819 34.1818 697.773 34.1818ZM697.705 26.9886C698.512 26.9886 699.194 26.804 699.751 26.4347C700.308 26.0653 700.731 25.5341 701.021 24.8409C701.31 24.1477 701.455 23.3182 701.455 22.3523C701.455 21.4091 701.313 20.5767 701.029 19.8551C700.745 19.1335 700.325 18.5682 699.768 18.1591C699.211 17.75 698.523 17.5455 697.705 17.5455C696.853 17.5455 696.143 17.7614 695.575 18.1932C695.012 18.625 694.589 19.2045 694.305 19.9318C694.026 20.6591 693.887 21.4659 693.887 22.3523C693.887 23.2614 694.029 24.0653 694.313 24.7642C694.603 25.4574 695.029 26.0028 695.592 26.4006C696.16 26.7926 696.864 26.9886 697.705 26.9886ZM708.58 29.1364C708.16 29.1364 707.799 28.9858 707.498 28.6847C707.197 28.3835 707.046 28.0227 707.046 27.6023C707.046 27.1818 707.197 26.821 707.498 26.5199C707.799 26.2187 708.16 26.0682 708.58 26.0682C709.001 26.0682 709.362 26.2187 709.663 26.5199C709.964 26.821 710.114 27.1818 710.114 27.6023C710.114 27.8807 710.043 28.1364 709.901 28.3693C709.765 28.6023 709.58 28.7898 709.347 28.9318C709.12 29.0682 708.864 29.1364 708.58 29.1364Z" fill="#3E2522"/>
</svg>
