<svg width="773" height="40" viewBox="0 0 773 40" fill="none" xmlns="http://www.w3.org/2000/svg">
<rect x="1" y="1" width="771" height="38" rx="19" stroke="#3D1F1A" stroke-width="2"/>
<path d="M89.8295 30H87.6136L94.0227 12.5455H96.2045L102.614 30H100.398L95.1818 15.3068H95.0455L89.8295 30ZM90.6477 23.1818H99.5795V25.0568H90.6477V23.1818ZM111.81 30V16.9091H113.753V18.9545H113.923C114.196 18.2557 114.636 17.7131 115.244 17.3267C115.852 16.9347 116.582 16.7386 117.435 16.7386C118.298 16.7386 119.017 16.9347 119.591 17.3267C120.17 17.7131 120.622 18.2557 120.946 18.9545H121.082C121.418 18.2784 121.92 17.7415 122.591 17.3438C123.261 16.9403 124.065 16.7386 125.003 16.7386C126.173 16.7386 127.131 17.1051 127.875 17.8381C128.619 18.5653 128.991 19.6989 128.991 21.2386V30H126.98V21.2386C126.98 20.2727 126.716 19.5824 126.188 19.1676C125.659 18.7528 125.037 18.5455 124.321 18.5455C123.401 18.5455 122.688 18.8239 122.182 19.3807C121.676 19.9318 121.423 20.6307 121.423 21.4773V30H119.378V21.0341C119.378 20.2898 119.136 19.6903 118.653 19.2358C118.17 18.7756 117.548 18.5455 116.787 18.5455C116.264 18.5455 115.776 18.6847 115.321 18.9631C114.872 19.2415 114.509 19.6278 114.23 20.1222C113.957 20.6108 113.821 21.1761 113.821 21.8182V30H111.81ZM133.496 34.9091C133.155 34.9091 132.851 34.8807 132.584 34.8239C132.317 34.7727 132.132 34.7216 132.03 34.6705L132.541 32.8977C133.03 33.0227 133.462 33.0682 133.837 33.0341C134.212 33 134.544 32.8324 134.834 32.5312C135.129 32.2358 135.399 31.7557 135.643 31.0909L136.018 30.0682L131.178 16.9091H133.359L136.973 27.3409H137.109L140.723 16.9091H142.905L137.348 31.9091C137.098 32.5852 136.788 33.1449 136.419 33.5881C136.05 34.0369 135.621 34.3693 135.132 34.5852C134.649 34.8011 134.104 34.9091 133.496 34.9091ZM154.832 19.8409L153.026 20.3523C152.912 20.0511 152.744 19.7585 152.523 19.4744C152.307 19.1847 152.011 18.946 151.636 18.7585C151.261 18.571 150.781 18.4773 150.196 18.4773C149.395 18.4773 148.727 18.6619 148.193 19.0312C147.665 19.3949 147.401 19.858 147.401 20.4205C147.401 20.9205 147.582 21.3153 147.946 21.6051C148.31 21.8949 148.878 22.1364 149.651 22.3295L151.594 22.8068C152.764 23.0909 153.636 23.5256 154.21 24.1108C154.784 24.6903 155.071 25.4375 155.071 26.3523C155.071 27.1023 154.855 27.7727 154.423 28.3636C153.997 28.9545 153.401 29.4205 152.634 29.7614C151.866 30.1023 150.974 30.2727 149.957 30.2727C148.622 30.2727 147.517 29.983 146.642 29.4034C145.767 28.8239 145.213 27.9773 144.98 26.8636L146.889 26.3864C147.071 27.0909 147.415 27.6193 147.92 27.9716C148.432 28.3239 149.099 28.5 149.923 28.5C150.861 28.5 151.605 28.3011 152.156 27.9034C152.713 27.5 152.991 27.017 152.991 26.4545C152.991 26 152.832 25.6193 152.514 25.3125C152.196 25 151.707 24.767 151.048 24.6136L148.866 24.1023C147.668 23.8182 146.787 23.3778 146.224 22.7812C145.668 22.179 145.389 21.4261 145.389 20.5227C145.389 19.7841 145.597 19.1307 146.011 18.5625C146.432 17.9943 147.003 17.5483 147.724 17.2244C148.452 16.9006 149.276 16.7386 150.196 16.7386C151.491 16.7386 152.509 17.0227 153.247 17.5909C153.991 18.1591 154.52 18.9091 154.832 19.8409ZM163.792 16.9091V18.6136H157.008V16.9091H163.792ZM158.985 13.7727H160.996V26.25C160.996 26.8182 161.079 27.2443 161.244 27.5284C161.414 27.8068 161.63 27.9943 161.891 28.0909C162.158 28.1818 162.44 28.2273 162.735 28.2273C162.957 28.2273 163.138 28.2159 163.281 28.1932C163.423 28.1648 163.536 28.142 163.621 28.125L164.031 29.9318C163.894 29.983 163.704 30.0341 163.46 30.0852C163.215 30.142 162.906 30.1705 162.531 30.1705C161.962 30.1705 161.406 30.0483 160.86 29.804C160.32 29.5597 159.871 29.1875 159.513 28.6875C159.161 28.1875 158.985 27.5568 158.985 26.7955V13.7727ZM172.165 30.2727C170.904 30.2727 169.816 29.9943 168.901 29.4375C167.992 28.875 167.29 28.0909 166.796 27.0852C166.308 26.0739 166.063 24.8977 166.063 23.5568C166.063 22.2159 166.308 21.0341 166.796 20.0114C167.29 18.983 167.978 18.1818 168.859 17.608C169.745 17.0284 170.779 16.7386 171.961 16.7386C172.643 16.7386 173.316 16.8523 173.981 17.0795C174.646 17.3068 175.251 17.6761 175.796 18.1875C176.342 18.6932 176.776 19.3636 177.1 20.1989C177.424 21.0341 177.586 22.0625 177.586 23.2841V24.1364H167.495V22.3977H175.54C175.54 21.6591 175.393 21 175.097 20.4205C174.808 19.8409 174.393 19.3835 173.853 19.0483C173.319 18.7131 172.688 18.5455 171.961 18.5455C171.16 18.5455 170.467 18.7443 169.881 19.142C169.302 19.5341 168.856 20.0455 168.543 20.6761C168.231 21.3068 168.075 21.983 168.075 22.7045V23.8636C168.075 24.8523 168.245 25.6903 168.586 26.3778C168.933 27.0597 169.413 27.5795 170.026 27.9375C170.64 28.2898 171.353 28.4659 172.165 28.4659C172.694 28.4659 173.171 28.392 173.597 28.2443C174.029 28.0909 174.401 27.8636 174.714 27.5625C175.026 27.2557 175.268 26.875 175.438 26.4205L177.381 26.9659C177.177 27.625 176.833 28.2045 176.35 28.7045C175.867 29.1989 175.271 29.5852 174.56 29.8636C173.85 30.1364 173.052 30.2727 172.165 30.2727ZM180.646 30V16.9091H182.589V18.8864H182.725C182.964 18.2386 183.396 17.7131 184.021 17.3097C184.646 16.9062 185.35 16.7045 186.134 16.7045C186.282 16.7045 186.467 16.7074 186.688 16.7131C186.91 16.7187 187.077 16.7273 187.191 16.7386V18.7841C187.123 18.767 186.967 18.7415 186.722 18.7074C186.484 18.6676 186.231 18.6477 185.964 18.6477C185.327 18.6477 184.759 18.7812 184.259 19.0483C183.765 19.3097 183.373 19.6733 183.083 20.1392C182.799 20.5994 182.657 21.125 182.657 21.7159V30H180.646ZM191.269 34.9091C190.928 34.9091 190.624 34.8807 190.357 34.8239C190.09 34.7727 189.906 34.7216 189.803 34.6705L190.315 32.8977C190.803 33.0227 191.235 33.0682 191.61 33.0341C191.985 33 192.317 32.8324 192.607 32.5312C192.903 32.2358 193.173 31.7557 193.417 31.0909L193.792 30.0682L188.951 16.9091H191.133L194.746 27.3409H194.883L198.496 16.9091H200.678L195.121 31.9091C194.871 32.5852 194.562 33.1449 194.192 33.5881C193.823 34.0369 193.394 34.3693 192.906 34.5852C192.423 34.8011 191.877 34.9091 191.269 34.9091ZM215.776 16.9091V18.6136H208.992V16.9091H215.776ZM210.969 13.7727H212.981V26.25C212.981 26.8182 213.063 27.2443 213.228 27.5284C213.398 27.8068 213.614 27.9943 213.876 28.0909C214.143 28.1818 214.424 28.2273 214.719 28.2273C214.941 28.2273 215.123 28.2159 215.265 28.1932C215.407 28.1648 215.521 28.142 215.606 28.125L216.015 29.9318C215.879 29.983 215.688 30.0341 215.444 30.0852C215.2 30.142 214.89 30.1705 214.515 30.1705C213.947 30.1705 213.39 30.0483 212.844 29.804C212.305 29.5597 211.856 29.1875 211.498 28.6875C211.146 28.1875 210.969 27.5568 210.969 26.7955V13.7727ZM222.654 30.3068C221.825 30.3068 221.072 30.1506 220.396 29.8381C219.719 29.5199 219.183 29.0625 218.785 28.4659C218.387 27.8636 218.188 27.1364 218.188 26.2841C218.188 25.5341 218.336 24.9261 218.631 24.4602C218.927 23.9886 219.322 23.6193 219.816 23.3523C220.31 23.0852 220.856 22.8864 221.452 22.7557C222.055 22.6193 222.66 22.5114 223.268 22.4318C224.063 22.3295 224.708 22.2528 225.202 22.2017C225.702 22.1449 226.066 22.0511 226.293 21.9205C226.526 21.7898 226.643 21.5625 226.643 21.2386V21.1705C226.643 20.3295 226.413 19.6761 225.952 19.2102C225.498 18.7443 224.808 18.5114 223.881 18.5114C222.921 18.5114 222.168 18.7216 221.623 19.142C221.077 19.5625 220.694 20.0114 220.472 20.4886L218.563 19.8068C218.904 19.0114 219.359 18.392 219.927 17.9489C220.501 17.5 221.126 17.1875 221.802 17.0114C222.484 16.8295 223.154 16.7386 223.813 16.7386C224.234 16.7386 224.717 16.7898 225.262 16.892C225.813 16.9886 226.344 17.1903 226.856 17.4972C227.373 17.804 227.802 18.267 228.143 18.8864C228.484 19.5057 228.654 20.3352 228.654 21.375V30H226.643V28.2273H226.54C226.404 28.5114 226.177 28.8153 225.859 29.1392C225.54 29.4631 225.117 29.7386 224.589 29.9659C224.06 30.1932 223.415 30.3068 222.654 30.3068ZM222.961 28.5C223.756 28.5 224.427 28.3438 224.972 28.0312C225.523 27.7188 225.938 27.3153 226.217 26.821C226.501 26.3267 226.643 25.8068 226.643 25.2614V23.4205C226.558 23.5227 226.37 23.6165 226.08 23.7017C225.796 23.7812 225.467 23.8523 225.092 23.9148C224.722 23.9716 224.362 24.0227 224.009 24.0682C223.663 24.108 223.381 24.142 223.165 24.1705C222.643 24.2386 222.154 24.3494 221.7 24.5028C221.251 24.6506 220.887 24.875 220.609 25.1761C220.336 25.4716 220.2 25.875 220.2 26.3864C220.2 27.0852 220.458 27.6136 220.975 27.9716C221.498 28.3239 222.16 28.5 222.961 28.5ZM234.2 25.2273L234.166 22.7386H234.575L240.303 16.9091H242.791L236.689 23.0795H236.518L234.2 25.2273ZM232.325 30V12.5455H234.337V30H232.325ZM240.643 30L235.53 23.5227L236.962 22.125L243.2 30H240.643ZM250.33 30.2727C249.068 30.2727 247.98 29.9943 247.065 29.4375C246.156 28.875 245.455 28.0909 244.96 27.0852C244.472 26.0739 244.227 24.8977 244.227 23.5568C244.227 22.2159 244.472 21.0341 244.96 20.0114C245.455 18.983 246.142 18.1818 247.023 17.608C247.909 17.0284 248.943 16.7386 250.125 16.7386C250.807 16.7386 251.48 16.8523 252.145 17.0795C252.81 17.3068 253.415 17.6761 253.96 18.1875C254.506 18.6932 254.94 19.3636 255.264 20.1989C255.588 21.0341 255.75 22.0625 255.75 23.2841V24.1364H245.659V22.3977H253.705C253.705 21.6591 253.557 21 253.261 20.4205C252.972 19.8409 252.557 19.3835 252.017 19.0483C251.483 18.7131 250.852 18.5455 250.125 18.5455C249.324 18.5455 248.631 18.7443 248.045 19.142C247.466 19.5341 247.02 20.0455 246.707 20.6761C246.395 21.3068 246.239 21.983 246.239 22.7045V23.8636C246.239 24.8523 246.409 25.6903 246.75 26.3778C247.097 27.0597 247.577 27.5795 248.19 27.9375C248.804 28.2898 249.517 28.4659 250.33 28.4659C250.858 28.4659 251.335 28.392 251.761 28.2443C252.193 28.0909 252.565 27.8636 252.878 27.5625C253.19 27.2557 253.432 26.875 253.602 26.4205L255.545 26.9659C255.341 27.625 254.997 28.2045 254.514 28.7045C254.031 29.1989 253.435 29.5852 252.724 29.8636C252.014 30.1364 251.216 30.2727 250.33 30.2727ZM264.128 30.2727C262.946 30.2727 261.909 29.9915 261.017 29.429C260.131 28.8665 259.438 28.0795 258.938 27.0682C258.443 26.0568 258.196 24.875 258.196 23.5227C258.196 22.1591 258.443 20.9687 258.938 19.9517C259.438 18.9347 260.131 18.1449 261.017 17.5824C261.909 17.0199 262.946 16.7386 264.128 16.7386C265.31 16.7386 266.344 17.0199 267.23 17.5824C268.122 18.1449 268.815 18.9347 269.31 19.9517C269.81 20.9687 270.06 22.1591 270.06 23.5227C270.06 24.875 269.81 26.0568 269.31 27.0682C268.815 28.0795 268.122 28.8665 267.23 29.429C266.344 29.9915 265.31 30.2727 264.128 30.2727ZM264.128 28.4659C265.026 28.4659 265.764 28.2358 266.344 27.7756C266.923 27.3153 267.352 26.7102 267.631 25.9602C267.909 25.2102 268.048 24.3977 268.048 23.5227C268.048 22.6477 267.909 21.8324 267.631 21.0767C267.352 20.321 266.923 19.7102 266.344 19.2443C265.764 18.7784 265.026 18.5455 264.128 18.5455C263.23 18.5455 262.491 18.7784 261.912 19.2443C261.332 19.7102 260.903 20.321 260.625 21.0767C260.347 21.8324 260.207 22.6477 260.207 23.5227C260.207 24.3977 260.347 25.2102 260.625 25.9602C260.903 26.7102 261.332 27.3153 261.912 27.7756C262.491 28.2358 263.23 28.4659 264.128 28.4659ZM281.38 24.6477V16.9091H283.391V30H281.38V27.7841H281.244C280.937 28.4489 280.46 29.0142 279.812 29.4801C279.164 29.9403 278.346 30.1705 277.357 30.1705C276.539 30.1705 275.812 29.9915 275.175 29.6335C274.539 29.2699 274.039 28.7244 273.675 27.9972C273.312 27.2642 273.13 26.3409 273.13 25.2273V16.9091H275.141V25.0909C275.141 26.0455 275.408 26.8068 275.942 27.375C276.482 27.9432 277.17 28.2273 278.005 28.2273C278.505 28.2273 279.013 28.0994 279.531 27.8438C280.053 27.5881 280.491 27.196 280.843 26.6676C281.201 26.1392 281.38 25.4659 281.38 24.6477ZM292.768 16.9091V18.6136H285.984V16.9091H292.768ZM287.962 13.7727H289.973V26.25C289.973 26.8182 290.055 27.2443 290.22 27.5284C290.391 27.8068 290.607 27.9943 290.868 28.0909C291.135 28.1818 291.416 28.2273 291.712 28.2273C291.933 28.2273 292.115 28.2159 292.257 28.1932C292.399 28.1648 292.513 28.142 292.598 28.125L293.007 29.9318C292.871 29.983 292.68 30.0341 292.436 30.0852C292.192 30.142 291.882 30.1705 291.507 30.1705C290.939 30.1705 290.382 30.0483 289.837 29.804C289.297 29.5597 288.848 29.1875 288.49 28.6875C288.138 28.1875 287.962 27.5568 287.962 26.7955V13.7727ZM302.817 30V12.5455H304.828V18.9886H304.999C305.146 18.7614 305.351 18.4716 305.612 18.1193C305.879 17.7614 306.26 17.4432 306.754 17.1648C307.254 16.8807 307.93 16.7386 308.783 16.7386C309.885 16.7386 310.857 17.0142 311.697 17.5653C312.538 18.1165 313.195 18.8977 313.666 19.9091C314.138 20.9205 314.374 22.1136 314.374 23.4886C314.374 24.875 314.138 26.0767 313.666 27.0938C313.195 28.1051 312.541 28.8892 311.706 29.446C310.871 29.9972 309.908 30.2727 308.817 30.2727C307.976 30.2727 307.303 30.1335 306.797 29.8551C306.291 29.571 305.902 29.25 305.629 28.892C305.357 28.5284 305.146 28.2273 304.999 27.9886H304.76V30H302.817ZM304.794 23.4545C304.794 24.4432 304.939 25.3153 305.229 26.071C305.518 26.821 305.942 27.4091 306.499 27.8352C307.055 28.2557 307.737 28.4659 308.544 28.4659C309.385 28.4659 310.087 28.2443 310.649 27.8011C311.217 27.3523 311.643 26.75 311.928 25.9943C312.217 25.233 312.362 24.3864 312.362 23.4545C312.362 22.5341 312.22 21.7045 311.936 20.9659C311.658 20.2216 311.234 19.6335 310.666 19.2017C310.104 18.7642 309.396 18.5455 308.544 18.5455C307.726 18.5455 307.038 18.7528 306.482 19.1676C305.925 19.5767 305.504 20.1506 305.22 20.8892C304.936 21.6222 304.794 22.4773 304.794 23.4545ZM322.768 30.2727C321.587 30.2727 320.55 29.9915 319.658 29.429C318.771 28.8665 318.078 28.0795 317.578 27.0682C317.084 26.0568 316.837 24.875 316.837 23.5227C316.837 22.1591 317.084 20.9687 317.578 19.9517C318.078 18.9347 318.771 18.1449 319.658 17.5824C320.55 17.0199 321.587 16.7386 322.768 16.7386C323.95 16.7386 324.984 17.0199 325.871 17.5824C326.763 18.1449 327.456 18.9347 327.95 19.9517C328.45 20.9687 328.7 22.1591 328.7 23.5227C328.7 24.875 328.45 26.0568 327.95 27.0682C327.456 28.0795 326.763 28.8665 325.871 29.429C324.984 29.9915 323.95 30.2727 322.768 30.2727ZM322.768 28.4659C323.666 28.4659 324.405 28.2358 324.984 27.7756C325.564 27.3153 325.993 26.7102 326.271 25.9602C326.55 25.2102 326.689 24.3977 326.689 23.5227C326.689 22.6477 326.55 21.8324 326.271 21.0767C325.993 20.321 325.564 19.7102 324.984 19.2443C324.405 18.7784 323.666 18.5455 322.768 18.5455C321.871 18.5455 321.132 18.7784 320.553 19.2443C319.973 19.7102 319.544 20.321 319.266 21.0767C318.987 21.8324 318.848 22.6477 318.848 23.5227C318.848 24.3977 318.987 25.2102 319.266 25.9602C319.544 26.7102 319.973 27.3153 320.553 27.7756C321.132 28.2358 321.871 28.4659 322.768 28.4659ZM332.732 16.9091L335.868 22.2614L339.004 16.9091H341.322L337.095 23.4545L341.322 30H339.004L335.868 24.9205L332.732 30H330.413L334.572 23.4545L330.413 16.9091H332.732ZM347.192 27.6136L347.056 28.5341C346.96 29.1818 346.812 29.875 346.613 30.6136C346.42 31.3523 346.218 32.0483 346.008 32.7017C345.798 33.3551 345.624 33.875 345.488 34.2614H343.954C344.028 33.8977 344.124 33.4176 344.244 32.821C344.363 32.2244 344.482 31.5568 344.602 30.8182C344.727 30.0852 344.829 29.3352 344.908 28.5682L345.011 27.6136H347.192ZM357.942 30V12.5455H359.953V18.9886H360.124C360.271 18.7614 360.476 18.4716 360.737 18.1193C361.004 17.7614 361.385 17.4432 361.879 17.1648C362.379 16.8807 363.055 16.7386 363.908 16.7386C365.01 16.7386 365.982 17.0142 366.822 17.5653C367.663 18.1165 368.32 18.8977 368.791 19.9091C369.263 20.9205 369.499 22.1136 369.499 23.4886C369.499 24.875 369.263 26.0767 368.791 27.0938C368.32 28.1051 367.666 28.8892 366.831 29.446C365.996 29.9972 365.033 30.2727 363.942 30.2727C363.101 30.2727 362.428 30.1335 361.922 29.8551C361.416 29.571 361.027 29.25 360.754 28.892C360.482 28.5284 360.271 28.2273 360.124 27.9886H359.885V30H357.942ZM359.919 23.4545C359.919 24.4432 360.064 25.3153 360.354 26.071C360.643 26.821 361.067 27.4091 361.624 27.8352C362.18 28.2557 362.862 28.4659 363.669 28.4659C364.51 28.4659 365.212 28.2443 365.774 27.8011C366.342 27.3523 366.768 26.75 367.053 25.9943C367.342 25.233 367.487 24.3864 367.487 23.4545C367.487 22.5341 367.345 21.7045 367.061 20.9659C366.783 20.2216 366.359 19.6335 365.791 19.2017C365.229 18.7642 364.521 18.5455 363.669 18.5455C362.851 18.5455 362.163 18.7528 361.607 19.1676C361.05 19.5767 360.629 20.1506 360.345 20.8892C360.061 21.6222 359.919 22.4773 359.919 23.4545ZM380.825 24.6477V16.9091H382.837V30H380.825V27.7841H380.689C380.382 28.4489 379.905 29.0142 379.257 29.4801C378.609 29.9403 377.791 30.1705 376.803 30.1705C375.984 30.1705 375.257 29.9915 374.621 29.6335C373.984 29.2699 373.484 28.7244 373.121 27.9972C372.757 27.2642 372.575 26.3409 372.575 25.2273V16.9091H374.587V25.0909C374.587 26.0455 374.854 26.8068 375.388 27.375C375.928 27.9432 376.615 28.2273 377.45 28.2273C377.95 28.2273 378.459 28.0994 378.976 27.8438C379.499 27.5881 379.936 27.196 380.288 26.6676C380.646 26.1392 380.825 25.4659 380.825 24.6477ZM392.214 16.9091V18.6136H385.43V16.9091H392.214ZM387.407 13.7727H389.418V26.25C389.418 26.8182 389.501 27.2443 389.665 27.5284C389.836 27.8068 390.052 27.9943 390.313 28.0909C390.58 28.1818 390.862 28.2273 391.157 28.2273C391.379 28.2273 391.56 28.2159 391.702 28.1932C391.844 28.1648 391.958 28.142 392.043 28.125L392.452 29.9318C392.316 29.983 392.126 30.0341 391.881 30.0852C391.637 30.142 391.327 30.1705 390.952 30.1705C390.384 30.1705 389.827 30.0483 389.282 29.804C388.742 29.5597 388.293 29.1875 387.935 28.6875C387.583 28.1875 387.407 27.5568 387.407 26.7955V13.7727ZM401.989 30V16.9091H404.001V30H401.989ZM403.012 14.7273C402.62 14.7273 402.282 14.5938 401.998 14.3267C401.719 14.0597 401.58 13.7386 401.58 13.3636C401.58 12.9886 401.719 12.6676 401.998 12.4006C402.282 12.1335 402.62 12 403.012 12C403.404 12 403.739 12.1335 404.018 12.4006C404.302 12.6676 404.444 12.9886 404.444 13.3636C404.444 13.7386 404.302 14.0597 404.018 14.3267C403.739 14.5938 403.404 14.7273 403.012 14.7273ZM413.378 16.9091V18.6136H406.594V16.9091H413.378ZM408.571 13.7727H410.582V26.25C410.582 26.8182 410.665 27.2443 410.83 27.5284C411 27.8068 411.216 27.9943 411.477 28.0909C411.744 28.1818 412.026 28.2273 412.321 28.2273C412.543 28.2273 412.724 28.2159 412.866 28.1932C413.009 28.1648 413.122 28.142 413.207 28.125L413.616 29.9318C413.48 29.983 413.29 30.0341 413.045 30.0852C412.801 30.142 412.491 30.1705 412.116 30.1705C411.548 30.1705 410.991 30.0483 410.446 29.804C409.906 29.5597 409.457 29.1875 409.099 28.6875C408.747 28.1875 408.571 27.5568 408.571 26.7955V13.7727ZM432.426 19.8409L430.619 20.3523C430.506 20.0511 430.338 19.7585 430.116 19.4744C429.901 19.1847 429.605 18.946 429.23 18.7585C428.855 18.571 428.375 18.4773 427.79 18.4773C426.989 18.4773 426.321 18.6619 425.787 19.0312C425.259 19.3949 424.994 19.858 424.994 20.4205C424.994 20.9205 425.176 21.3153 425.54 21.6051C425.903 21.8949 426.472 22.1364 427.244 22.3295L429.188 22.8068C430.358 23.0909 431.23 23.5256 431.804 24.1108C432.378 24.6903 432.665 25.4375 432.665 26.3523C432.665 27.1023 432.449 27.7727 432.017 28.3636C431.591 28.9545 430.994 29.4205 430.227 29.7614C429.46 30.1023 428.568 30.2727 427.551 30.2727C426.216 30.2727 425.111 29.983 424.236 29.4034C423.361 28.8239 422.807 27.9773 422.574 26.8636L424.483 26.3864C424.665 27.0909 425.009 27.6193 425.514 27.9716C426.026 28.3239 426.693 28.5 427.517 28.5C428.455 28.5 429.199 28.3011 429.75 27.9034C430.307 27.5 430.585 27.017 430.585 26.4545C430.585 26 430.426 25.6193 430.108 25.3125C429.79 25 429.301 24.767 428.642 24.6136L426.46 24.1023C425.261 23.8182 424.381 23.3778 423.818 22.7812C423.261 22.179 422.983 21.4261 422.983 20.5227C422.983 19.7841 423.19 19.1307 423.605 18.5625C424.026 17.9943 424.597 17.5483 425.318 17.2244C426.045 16.9006 426.869 16.7386 427.79 16.7386C429.085 16.7386 430.102 17.0227 430.841 17.5909C431.585 18.1591 432.114 18.9091 432.426 19.8409ZM435.692 30V16.9091H437.636V18.9545H437.806C438.079 18.2557 438.519 17.7131 439.127 17.3267C439.735 16.9347 440.465 16.7386 441.317 16.7386C442.181 16.7386 442.9 16.9347 443.474 17.3267C444.053 17.7131 444.505 18.2557 444.829 18.9545H444.965C445.3 18.2784 445.803 17.7415 446.474 17.3438C447.144 16.9403 447.948 16.7386 448.886 16.7386C450.056 16.7386 451.013 17.1051 451.758 17.8381C452.502 18.5653 452.874 19.6989 452.874 21.2386V30H450.863V21.2386C450.863 20.2727 450.599 19.5824 450.07 19.1676C449.542 18.7528 448.92 18.5455 448.204 18.5455C447.283 18.5455 446.57 18.8239 446.065 19.3807C445.559 19.9318 445.306 20.6307 445.306 21.4773V30H443.261V21.0341C443.261 20.2898 443.019 19.6903 442.536 19.2358C442.053 18.7756 441.431 18.5455 440.67 18.5455C440.147 18.5455 439.658 18.6847 439.204 18.9631C438.755 19.2415 438.391 19.6278 438.113 20.1222C437.84 20.6108 437.704 21.1761 437.704 21.8182V30H435.692ZM462.04 30.2727C460.779 30.2727 459.691 29.9943 458.776 29.4375C457.867 28.875 457.165 28.0909 456.671 27.0852C456.183 26.0739 455.938 24.8977 455.938 23.5568C455.938 22.2159 456.183 21.0341 456.671 20.0114C457.165 18.983 457.853 18.1818 458.734 17.608C459.62 17.0284 460.654 16.7386 461.836 16.7386C462.518 16.7386 463.191 16.8523 463.856 17.0795C464.521 17.3068 465.126 17.6761 465.671 18.1875C466.217 18.6932 466.651 19.3636 466.975 20.1989C467.299 21.0341 467.461 22.0625 467.461 23.2841V24.1364H457.37V22.3977H465.415C465.415 21.6591 465.268 21 464.972 20.4205C464.683 19.8409 464.268 19.3835 463.728 19.0483C463.194 18.7131 462.563 18.5455 461.836 18.5455C461.035 18.5455 460.342 18.7443 459.756 19.142C459.177 19.5341 458.731 20.0455 458.418 20.6761C458.106 21.3068 457.95 21.983 457.95 22.7045V23.8636C457.95 24.8523 458.12 25.6903 458.461 26.3778C458.808 27.0597 459.288 27.5795 459.901 27.9375C460.515 28.2898 461.228 28.4659 462.04 28.4659C462.569 28.4659 463.046 28.392 463.472 28.2443C463.904 28.0909 464.276 27.8636 464.589 27.5625C464.901 27.2557 465.143 26.875 465.313 26.4205L467.256 26.9659C467.052 27.625 466.708 28.2045 466.225 28.7045C465.742 29.1989 465.146 29.5852 464.435 29.8636C463.725 30.1364 462.927 30.2727 462.04 30.2727ZM472.532 12.5455V30H470.521V12.5455H472.532ZM478.227 12.5455V30H476.216V12.5455H478.227ZM491.184 19.8409L489.377 20.3523C489.263 20.0511 489.096 19.7585 488.874 19.4744C488.658 19.1847 488.363 18.946 487.988 18.7585C487.613 18.571 487.133 18.4773 486.548 18.4773C485.746 18.4773 485.079 18.6619 484.545 19.0312C484.016 19.3949 483.752 19.858 483.752 20.4205C483.752 20.9205 483.934 21.3153 484.298 21.6051C484.661 21.8949 485.229 22.1364 486.002 22.3295L487.945 22.8068C489.116 23.0909 489.988 23.5256 490.562 24.1108C491.136 24.6903 491.423 25.4375 491.423 26.3523C491.423 27.1023 491.207 27.7727 490.775 28.3636C490.349 28.9545 489.752 29.4205 488.985 29.7614C488.218 30.1023 487.326 30.2727 486.309 30.2727C484.974 30.2727 483.869 29.983 482.994 29.4034C482.119 28.8239 481.565 27.9773 481.332 26.8636L483.241 26.3864C483.423 27.0909 483.766 27.6193 484.272 27.9716C484.783 28.3239 485.451 28.5 486.275 28.5C487.212 28.5 487.957 28.3011 488.508 27.9034C489.065 27.5 489.343 27.017 489.343 26.4545C489.343 26 489.184 25.6193 488.866 25.3125C488.548 25 488.059 24.767 487.4 24.6136L485.218 24.1023C484.019 23.8182 483.138 23.3778 482.576 22.7812C482.019 22.179 481.741 21.4261 481.741 20.5227C481.741 19.7841 481.948 19.1307 482.363 18.5625C482.783 17.9943 483.354 17.5483 484.076 17.2244C484.803 16.9006 485.627 16.7386 486.548 16.7386C487.843 16.7386 488.86 17.0227 489.599 17.5909C490.343 18.1591 490.871 18.9091 491.184 19.8409ZM503.075 25.2273L503.041 22.7386H503.45L509.178 16.9091H511.666L505.564 23.0795H505.393L503.075 25.2273ZM501.2 30V12.5455H503.212V30H501.2ZM509.518 30L504.405 23.5227L505.837 22.125L512.075 30H509.518ZM514.255 30V16.9091H516.266V30H514.255ZM515.278 14.7273C514.886 14.7273 514.548 14.5938 514.263 14.3267C513.985 14.0597 513.846 13.7386 513.846 13.3636C513.846 12.9886 513.985 12.6676 514.263 12.4006C514.548 12.1335 514.886 12 515.278 12C515.67 12 516.005 12.1335 516.283 12.4006C516.567 12.6676 516.71 12.9886 516.71 13.3636C516.71 13.7386 516.567 14.0597 516.283 14.3267C516.005 14.5938 515.67 14.7273 515.278 14.7273ZM521.962 22.125V30H519.95V16.9091H521.893V18.9545H522.064C522.371 18.2898 522.837 17.7557 523.462 17.3523C524.087 16.9432 524.893 16.7386 525.882 16.7386C526.768 16.7386 527.544 16.9205 528.209 17.2841C528.874 17.642 529.391 18.1875 529.76 18.9205C530.129 19.6477 530.314 20.5682 530.314 21.6818V30H528.303V21.8182C528.303 20.7898 528.036 19.9886 527.501 19.4148C526.967 18.8352 526.234 18.5455 525.303 18.5455C524.661 18.5455 524.087 18.6847 523.581 18.9631C523.081 19.2415 522.686 19.6477 522.396 20.1818C522.107 20.7159 521.962 21.3636 521.962 22.125ZM538.933 30.2727C537.842 30.2727 536.879 29.9972 536.043 29.446C535.208 28.8892 534.555 28.1051 534.083 27.0938C533.612 26.0767 533.376 24.875 533.376 23.4886C533.376 22.1136 533.612 20.9205 534.083 19.9091C534.555 18.8977 535.211 18.1165 536.052 17.5653C536.893 17.0142 537.864 16.7386 538.967 16.7386C539.819 16.7386 540.492 16.8807 540.987 17.1648C541.487 17.4432 541.867 17.7614 542.129 18.1193C542.396 18.4716 542.603 18.7614 542.751 18.9886H542.921V12.5455H544.933V30H542.989V27.9886H542.751C542.603 28.2273 542.393 28.5284 542.12 28.892C541.847 29.25 541.458 29.571 540.952 29.8551C540.447 30.1335 539.773 30.2727 538.933 30.2727ZM539.205 28.4659C540.012 28.4659 540.694 28.2557 541.251 27.8352C541.808 27.4091 542.231 26.821 542.521 26.071C542.81 25.3153 542.955 24.4432 542.955 23.4545C542.955 22.4773 542.813 21.6222 542.529 20.8892C542.245 20.1506 541.825 19.5767 541.268 19.1676C540.711 18.7528 540.023 18.5455 539.205 18.5455C538.353 18.5455 537.643 18.7642 537.075 19.2017C536.512 19.6335 536.089 20.2216 535.805 20.9659C535.526 21.7045 535.387 22.5341 535.387 23.4545C535.387 24.3864 535.529 25.233 535.813 25.9943C536.103 26.75 536.529 27.3523 537.092 27.8011C537.66 28.2443 538.364 28.4659 539.205 28.4659ZM560.964 30.2727C559.782 30.2727 558.745 29.9915 557.853 29.429C556.967 28.8665 556.273 28.0795 555.773 27.0682C555.279 26.0568 555.032 24.875 555.032 23.5227C555.032 22.1591 555.279 20.9687 555.773 19.9517C556.273 18.9347 556.967 18.1449 557.853 17.5824C558.745 17.0199 559.782 16.7386 560.964 16.7386C562.146 16.7386 563.18 17.0199 564.066 17.5824C564.958 18.1449 565.651 18.9347 566.146 19.9517C566.646 20.9687 566.896 22.1591 566.896 23.5227C566.896 24.875 566.646 26.0568 566.146 27.0682C565.651 28.0795 564.958 28.8665 564.066 29.429C563.18 29.9915 562.146 30.2727 560.964 30.2727ZM560.964 28.4659C561.862 28.4659 562.6 28.2358 563.18 27.7756C563.759 27.3153 564.188 26.7102 564.467 25.9602C564.745 25.2102 564.884 24.3977 564.884 23.5227C564.884 22.6477 564.745 21.8324 564.467 21.0767C564.188 20.321 563.759 19.7102 563.18 19.2443C562.6 18.7784 561.862 18.5455 560.964 18.5455C560.066 18.5455 559.327 18.7784 558.748 19.2443C558.168 19.7102 557.739 20.321 557.461 21.0767C557.183 21.8324 557.043 22.6477 557.043 23.5227C557.043 24.3977 557.183 25.2102 557.461 25.9602C557.739 26.7102 558.168 27.3153 558.748 27.7756C559.327 28.2358 560.066 28.4659 560.964 28.4659ZM575.795 16.9091V18.6136H568.739V16.9091H575.795ZM570.852 30V15.1023C570.852 14.3523 571.028 13.7273 571.381 13.2273C571.733 12.7273 572.19 12.3523 572.753 12.1023C573.315 11.8523 573.909 11.7273 574.534 11.7273C575.028 11.7273 575.432 11.767 575.744 11.8466C576.057 11.9261 576.29 12 576.443 12.0682L575.864 13.8068C575.761 13.7727 575.619 13.7301 575.438 13.679C575.261 13.6278 575.028 13.6023 574.739 13.6023C574.074 13.6023 573.594 13.7699 573.298 14.1051C573.009 14.4403 572.864 14.9318 572.864 15.5795V30H570.852ZM589.217 30.3068C588.387 30.3068 587.634 30.1506 586.958 29.8381C586.282 29.5199 585.745 29.0625 585.347 28.4659C584.95 27.8636 584.751 27.1364 584.751 26.2841C584.751 25.5341 584.898 24.9261 585.194 24.4602C585.489 23.9886 585.884 23.6193 586.379 23.3523C586.873 23.0852 587.418 22.8864 588.015 22.7557C588.617 22.6193 589.222 22.5114 589.83 22.4318C590.626 22.3295 591.271 22.2528 591.765 22.2017C592.265 22.1449 592.629 22.0511 592.856 21.9205C593.089 21.7898 593.205 21.5625 593.205 21.2386V21.1705C593.205 20.3295 592.975 19.6761 592.515 19.2102C592.06 18.7443 591.37 18.5114 590.444 18.5114C589.484 18.5114 588.731 18.7216 588.185 19.142C587.64 19.5625 587.256 20.0114 587.035 20.4886L585.126 19.8068C585.467 19.0114 585.921 18.392 586.489 17.9489C587.063 17.5 587.688 17.1875 588.364 17.0114C589.046 16.8295 589.717 16.7386 590.376 16.7386C590.796 16.7386 591.279 16.7898 591.825 16.892C592.376 16.9886 592.907 17.1903 593.418 17.4972C593.935 17.804 594.364 18.267 594.705 18.8864C595.046 19.5057 595.217 20.3352 595.217 21.375V30H593.205V28.2273H593.103C592.967 28.5114 592.739 28.8153 592.421 29.1392C592.103 29.4631 591.68 29.7386 591.151 29.9659C590.623 30.1932 589.978 30.3068 589.217 30.3068ZM589.523 28.5C590.319 28.5 590.989 28.3438 591.535 28.0312C592.086 27.7188 592.501 27.3153 592.779 26.821C593.063 26.3267 593.205 25.8068 593.205 25.2614V23.4205C593.12 23.5227 592.933 23.6165 592.643 23.7017C592.359 23.7812 592.029 23.8523 591.654 23.9148C591.285 23.9716 590.924 24.0227 590.572 24.0682C590.225 24.108 589.944 24.142 589.728 24.1705C589.205 24.2386 588.717 24.3494 588.262 24.5028C587.813 24.6506 587.45 24.875 587.171 25.1761C586.898 25.4716 586.762 25.875 586.762 26.3864C586.762 27.0852 587.021 27.6136 587.538 27.9716C588.06 28.3239 588.722 28.5 589.523 28.5ZM598.888 30V16.9091H600.831V18.9545H601.001C601.274 18.2557 601.714 17.7131 602.322 17.3267C602.93 16.9347 603.661 16.7386 604.513 16.7386C605.376 16.7386 606.095 16.9347 606.669 17.3267C607.249 17.7131 607.7 18.2557 608.024 18.9545H608.161C608.496 18.2784 608.999 17.7415 609.669 17.3438C610.339 16.9403 611.143 16.7386 612.081 16.7386C613.251 16.7386 614.209 17.1051 614.953 17.8381C615.697 18.5653 616.07 19.6989 616.07 21.2386V30H614.058V21.2386C614.058 20.2727 613.794 19.5824 613.266 19.1676C612.737 18.7528 612.115 18.5455 611.399 18.5455C610.479 18.5455 609.766 18.8239 609.26 19.3807C608.754 19.9318 608.501 20.6307 608.501 21.4773V30H606.456V21.0341C606.456 20.2898 606.214 19.6903 605.732 19.2358C605.249 18.7756 604.626 18.5455 603.865 18.5455C603.342 18.5455 602.854 18.6847 602.399 18.9631C601.95 19.2415 601.587 19.6278 601.308 20.1222C601.036 20.6108 600.899 21.1761 600.899 21.8182V30H598.888ZM623.599 30.3068C622.77 30.3068 622.017 30.1506 621.341 29.8381C620.665 29.5199 620.128 29.0625 619.73 28.4659C619.332 27.8636 619.134 27.1364 619.134 26.2841C619.134 25.5341 619.281 24.9261 619.577 24.4602C619.872 23.9886 620.267 23.6193 620.761 23.3523C621.256 23.0852 621.801 22.8864 622.398 22.7557C623 22.6193 623.605 22.5114 624.213 22.4318C625.009 22.3295 625.653 22.2528 626.148 22.2017C626.648 22.1449 627.011 22.0511 627.239 21.9205C627.472 21.7898 627.588 21.5625 627.588 21.2386V21.1705C627.588 20.3295 627.358 19.6761 626.898 19.2102C626.443 18.7443 625.753 18.5114 624.827 18.5114C623.866 18.5114 623.114 18.7216 622.568 19.142C622.023 19.5625 621.639 20.0114 621.418 20.4886L619.509 19.8068C619.849 19.0114 620.304 18.392 620.872 17.9489C621.446 17.5 622.071 17.1875 622.747 17.0114C623.429 16.8295 624.099 16.7386 624.759 16.7386C625.179 16.7386 625.662 16.7898 626.207 16.892C626.759 16.9886 627.29 17.1903 627.801 17.4972C628.318 17.804 628.747 18.267 629.088 18.8864C629.429 19.5057 629.599 20.3352 629.599 21.375V30H627.588V28.2273H627.486C627.349 28.5114 627.122 28.8153 626.804 29.1392C626.486 29.4631 626.063 29.7386 625.534 29.9659C625.006 30.1932 624.361 30.3068 623.599 30.3068ZM623.906 28.5C624.702 28.5 625.372 28.3438 625.918 28.0312C626.469 27.7188 626.884 27.3153 627.162 26.821C627.446 26.3267 627.588 25.8068 627.588 25.2614V23.4205C627.503 23.5227 627.315 23.6165 627.026 23.7017C626.741 23.7812 626.412 23.8523 626.037 23.9148C625.668 23.9716 625.307 24.0227 624.955 24.0682C624.608 24.108 624.327 24.142 624.111 24.1705C623.588 24.2386 623.099 24.3494 622.645 24.5028C622.196 24.6506 621.832 24.875 621.554 25.1761C621.281 25.4716 621.145 25.875 621.145 26.3864C621.145 27.0852 621.403 27.6136 621.92 27.9716C622.443 28.3239 623.105 28.5 623.906 28.5ZM632.896 30V28.4659L640.327 18.9205V18.7841H633.134V16.9091H642.918V18.5114L635.691 27.9886V28.125H643.157V30H632.896ZM646.255 30V16.9091H648.266V30H646.255ZM647.278 14.7273C646.886 14.7273 646.548 14.5938 646.263 14.3267C645.985 14.0597 645.846 13.7386 645.846 13.3636C645.846 12.9886 645.985 12.6676 646.263 12.4006C646.548 12.1335 646.886 12 647.278 12C647.67 12 648.005 12.1335 648.283 12.4006C648.567 12.6676 648.71 12.9886 648.71 13.3636C648.71 13.7386 648.567 14.0597 648.283 14.3267C648.005 14.5938 647.67 14.7273 647.278 14.7273ZM653.962 22.125V30H651.95V16.9091H653.893V18.9545H654.064C654.371 18.2898 654.837 17.7557 655.462 17.3523C656.087 16.9432 656.893 16.7386 657.882 16.7386C658.768 16.7386 659.544 16.9205 660.209 17.2841C660.874 17.642 661.391 18.1875 661.76 18.9205C662.129 19.6477 662.314 20.5682 662.314 21.6818V30H660.303V21.8182C660.303 20.7898 660.036 19.9886 659.501 19.4148C658.967 18.8352 658.234 18.5455 657.303 18.5455C656.661 18.5455 656.087 18.6847 655.581 18.9631C655.081 19.2415 654.686 19.6477 654.396 20.1818C654.107 20.7159 653.962 21.3636 653.962 22.125ZM671.273 35.1818C670.302 35.1818 669.467 35.0568 668.768 34.8068C668.069 34.5625 667.487 34.2386 667.021 33.8352C666.56 33.4375 666.194 33.0114 665.921 32.5568L667.523 31.4318C667.705 31.6705 667.935 31.9432 668.214 32.25C668.492 32.5625 668.873 32.8324 669.356 33.0597C669.844 33.2926 670.484 33.4091 671.273 33.4091C672.33 33.4091 673.202 33.1534 673.89 32.642C674.577 32.1307 674.921 31.3295 674.921 30.2386V27.5795H674.751C674.603 27.8182 674.393 28.1136 674.12 28.4659C673.853 28.8125 673.467 29.1222 672.961 29.3949C672.461 29.6619 671.785 29.7955 670.933 29.7955C669.876 29.7955 668.927 29.5455 668.086 29.0455C667.251 28.5455 666.589 27.8182 666.1 26.8636C665.617 25.9091 665.376 24.75 665.376 23.3864C665.376 22.0455 665.612 20.8778 666.083 19.8835C666.555 18.8835 667.211 18.1108 668.052 17.5653C668.893 17.0142 669.864 16.7386 670.967 16.7386C671.819 16.7386 672.495 16.8807 672.995 17.1648C673.501 17.4432 673.887 17.7614 674.154 18.1193C674.427 18.4716 674.637 18.7614 674.785 18.9886H674.989V16.9091H676.933V30.375C676.933 31.5 676.677 32.4148 676.165 33.1193C675.66 33.8295 674.978 34.3494 674.12 34.679C673.268 35.0142 672.319 35.1818 671.273 35.1818ZM671.205 27.9886C672.012 27.9886 672.694 27.804 673.251 27.4347C673.808 27.0653 674.231 26.5341 674.521 25.8409C674.81 25.1477 674.955 24.3182 674.955 23.3523C674.955 22.4091 674.813 21.5767 674.529 20.8551C674.245 20.1335 673.825 19.5682 673.268 19.1591C672.711 18.75 672.023 18.5455 671.205 18.5455C670.353 18.5455 669.643 18.7614 669.075 19.1932C668.512 19.625 668.089 20.2045 667.805 20.9318C667.526 21.6591 667.387 22.4659 667.387 23.3523C667.387 24.2614 667.529 25.0653 667.813 25.7642C668.103 26.4574 668.529 27.0028 669.092 27.4006C669.66 27.7926 670.364 27.9886 671.205 27.9886ZM682.08 30.1364C681.66 30.1364 681.299 29.9858 680.998 29.6847C680.697 29.3835 680.546 29.0227 680.546 28.6023C680.546 28.1818 680.697 27.821 680.998 27.5199C681.299 27.2187 681.66 27.0682 682.08 27.0682C682.501 27.0682 682.862 27.2187 683.163 27.5199C683.464 27.821 683.614 28.1818 683.614 28.6023C683.614 28.8807 683.543 29.1364 683.401 29.3693C683.265 29.6023 683.08 29.7898 682.847 29.9318C682.62 30.0682 682.364 30.1364 682.08 30.1364Z" fill="#3E2522"/>
</svg>
