<svg width="25" height="15" viewBox="0 0 25 15" fill="none" xmlns="http://www.w3.org/2000/svg">
<path d="M4.5973 13.1591C3.8473 13.1591 3.17874 13.0303 2.59162 12.7727C2.00829 12.5152 1.54427 12.1572 1.19957 11.6989C0.858665 11.2367 0.673059 10.7008 0.642756 10.0909H2.07457C2.10488 10.4659 2.23366 10.7898 2.46094 11.0625C2.68821 11.3314 2.98556 11.5398 3.35298 11.6875C3.72041 11.8352 4.1276 11.9091 4.57457 11.9091C5.07457 11.9091 5.51776 11.822 5.90412 11.6477C6.29048 11.4735 6.59351 11.2311 6.81321 10.9205C7.03291 10.6098 7.14276 10.25 7.14276 9.84091C7.14276 9.41288 7.0367 9.03598 6.82457 8.71023C6.61245 8.38068 6.30185 8.12311 5.89276 7.9375C5.48366 7.75189 4.98366 7.65909 4.39276 7.65909H3.46094V6.40909H4.39276C4.85488 6.40909 5.26018 6.32576 5.60866 6.15909C5.96094 5.99242 6.23556 5.75758 6.43253 5.45455C6.63329 5.15152 6.73366 4.79545 6.73366 4.38636C6.73366 3.99242 6.64654 3.64962 6.4723 3.35795C6.29806 3.06629 6.05185 2.83901 5.73366 2.67614C5.41927 2.51326 5.04806 2.43182 4.62003 2.43182C4.21851 2.43182 3.83973 2.50568 3.48366 2.65341C3.13139 2.79735 2.84351 3.00758 2.62003 3.28409C2.39654 3.55682 2.27533 3.88636 2.25639 4.27273H0.892756C0.915483 3.66288 1.0992 3.12879 1.44389 2.67045C1.78859 2.20833 2.23935 1.84848 2.79616 1.59091C3.35677 1.33333 3.9723 1.20455 4.64276 1.20455C5.36245 1.20455 5.97988 1.35038 6.49503 1.64205C7.01018 1.92992 7.40601 2.31061 7.68253 2.78409C7.95904 3.25758 8.0973 3.76894 8.0973 4.31818C8.0973 4.97348 7.92495 5.5322 7.58026 5.99432C7.23935 6.45644 6.77533 6.77652 6.18821 6.95455V7.04545C6.92306 7.16667 7.49692 7.47917 7.9098 7.98295C8.32268 8.48295 8.52912 9.10227 8.52912 9.84091C8.52912 10.4735 8.35677 11.0417 8.01207 11.5455C7.67117 12.0455 7.20526 12.4394 6.61435 12.7273C6.02344 13.0152 5.35109 13.1591 4.5973 13.1591ZM14.9893 0.818181L11.2393 14.75H10.0121L13.7621 0.818181H14.9893ZM20.4879 13.1591C19.7379 13.1591 19.0694 13.0303 18.4822 12.7727C17.8989 12.5152 17.4349 12.1572 17.0902 11.6989C16.7493 11.2367 16.5637 10.7008 16.5334 10.0909H17.9652C17.9955 10.4659 18.1243 10.7898 18.3516 11.0625C18.5788 11.3314 18.8762 11.5398 19.2436 11.6875C19.611 11.8352 20.0182 11.9091 20.4652 11.9091C20.9652 11.9091 21.4084 11.822 21.7947 11.6477C22.1811 11.4735 22.4841 11.2311 22.7038 10.9205C22.9235 10.6098 23.0334 10.25 23.0334 9.84091C23.0334 9.41288 22.9273 9.03598 22.7152 8.71023C22.5031 8.38068 22.1925 8.12311 21.7834 7.9375C21.3743 7.75189 20.8743 7.65909 20.2834 7.65909H19.3516V6.40909H20.2834C20.7455 6.40909 21.1508 6.32576 21.4993 6.15909C21.8516 5.99242 22.1262 5.75758 22.3232 5.45455C22.5239 5.15152 22.6243 4.79545 22.6243 4.38636C22.6243 3.99242 22.5372 3.64962 22.3629 3.35795C22.1887 3.06629 21.9425 2.83901 21.6243 2.67614C21.3099 2.51326 20.9387 2.43182 20.5107 2.43182C20.1091 2.43182 19.7304 2.50568 19.3743 2.65341C19.022 2.79735 18.7341 3.00758 18.5107 3.28409C18.2872 3.55682 18.166 3.88636 18.147 4.27273H16.7834C16.8061 3.66288 16.9898 3.12879 17.3345 2.67045C17.6792 2.20833 18.13 1.84848 18.6868 1.59091C19.2474 1.33333 19.8629 1.20455 20.5334 1.20455C21.2531 1.20455 21.8705 1.35038 22.3857 1.64205C22.9008 1.92992 23.2966 2.31061 23.5732 2.78409C23.8497 3.25758 23.9879 3.76894 23.9879 4.31818C23.9879 4.97348 23.8156 5.5322 23.4709 5.99432C23.13 6.45644 22.666 6.77652 22.0788 6.95455V7.04545C22.8137 7.16667 23.3875 7.47917 23.8004 7.98295C24.2133 8.48295 24.4197 9.10227 24.4197 9.84091C24.4197 10.4735 24.2474 11.0417 23.9027 11.5455C23.5618 12.0455 23.0959 12.4394 22.505 12.7273C21.9141 13.0152 21.2417 13.1591 20.4879 13.1591Z" fill="#3E2522" fill-opacity="0.75"/>
</svg>
