<svg width="790" height="101" viewBox="0 0 790 101" fill="none" xmlns="http://www.w3.org/2000/svg">
<path d="M7.78977 2.09091V37H0.409091V2.09091H7.78977ZM27.8054 10.8182V16.2727H11.6463V10.8182H27.8054ZM15.3452 37V8.92614C15.3452 7.02841 15.7145 5.45454 16.4531 4.20454C17.2031 2.95454 18.2259 2.01704 19.5213 1.39204C20.8168 0.767043 22.2884 0.454543 23.9361 0.454543C25.0497 0.454543 26.0668 0.539771 26.9872 0.710227C27.919 0.880681 28.6122 1.03409 29.0668 1.17045L27.7713 6.625C27.4872 6.53409 27.1349 6.44886 26.7145 6.36932C26.3054 6.28977 25.8849 6.25 25.4531 6.25C24.3849 6.25 23.6406 6.5 23.2202 7C22.7997 7.48864 22.5895 8.17614 22.5895 9.0625V37H15.3452ZM47.8338 46.8182C46.9134 46.8182 46.0497 46.7443 45.2429 46.5966C44.4474 46.4602 43.7884 46.2841 43.2656 46.0682L44.902 40.6477C45.7543 40.9091 46.5213 41.0511 47.2031 41.0739C47.8963 41.0966 48.4929 40.9375 48.9929 40.5966C49.5043 40.2557 49.919 39.6761 50.2372 38.858L50.6634 37.75L41.2713 10.8182H48.9077L54.3281 30.0455H54.6009L60.0724 10.8182H67.7599L57.5838 39.8295C57.0952 41.2386 56.4304 42.4659 55.5895 43.5114C54.7599 44.5682 53.7088 45.3807 52.4361 45.9489C51.1634 46.5284 49.6293 46.8182 47.8338 46.8182ZM82.4616 37.5114C79.8139 37.5114 77.5241 36.9489 75.5923 35.8239C73.6719 34.6875 72.1889 33.108 71.1435 31.0852C70.098 29.0511 69.5753 26.6932 69.5753 24.0114C69.5753 21.3068 70.098 18.9432 71.1435 16.9205C72.1889 14.8864 73.6719 13.3068 75.5923 12.1818C77.5241 11.0455 79.8139 10.4773 82.4616 10.4773C85.1094 10.4773 87.3935 11.0455 89.3139 12.1818C91.2457 13.3068 92.7344 14.8864 93.7798 16.9205C94.8253 18.9432 95.348 21.3068 95.348 24.0114C95.348 26.6932 94.8253 29.0511 93.7798 31.0852C92.7344 33.108 91.2457 34.6875 89.3139 35.8239C87.3935 36.9489 85.1094 37.5114 82.4616 37.5114ZM82.4957 31.8864C83.7003 31.8864 84.706 31.5455 85.5128 30.8636C86.3196 30.1705 86.9276 29.2273 87.3366 28.0341C87.7571 26.8409 87.9673 25.483 87.9673 23.9602C87.9673 22.4375 87.7571 21.0795 87.3366 19.8864C86.9276 18.6932 86.3196 17.75 85.5128 17.0568C84.706 16.3636 83.7003 16.017 82.4957 16.017C81.2798 16.017 80.2571 16.3636 79.4276 17.0568C78.6094 17.75 77.9901 18.6932 77.5696 19.8864C77.1605 21.0795 76.956 22.4375 76.956 23.9602C76.956 25.483 77.1605 26.8409 77.5696 28.0341C77.9901 29.2273 78.6094 30.1705 79.4276 30.8636C80.2571 31.5455 81.2798 31.8864 82.4957 31.8864ZM116.859 25.8523V10.8182H124.121V37H117.149V32.2443H116.876C116.286 33.7784 115.303 35.0114 113.928 35.9432C112.564 36.875 110.899 37.3409 108.933 37.3409C107.183 37.3409 105.643 36.9432 104.314 36.1477C102.984 35.3523 101.945 34.2216 101.195 32.7557C100.456 31.2898 100.081 29.5341 100.07 27.4886V10.8182H107.331V26.1932C107.342 27.7386 107.757 28.9602 108.575 29.858C109.393 30.7557 110.49 31.2045 111.865 31.2045C112.74 31.2045 113.558 31.0057 114.32 30.608C115.081 30.1989 115.695 29.5966 116.161 28.8011C116.638 28.0057 116.871 27.0227 116.859 25.8523ZM146.203 37L139.078 10.8182H146.425L150.482 28.4091H150.72L154.947 10.8182H162.158L166.453 28.3068H166.675L170.663 10.8182H177.993L170.885 37H163.197L158.697 20.5341H158.374L153.874 37H146.203ZM193.142 37.5114C190.449 37.5114 188.131 36.9659 186.188 35.875C184.256 34.7727 182.767 33.2159 181.722 31.2045C180.676 29.1818 180.153 26.7898 180.153 24.0284C180.153 21.3352 180.676 18.9716 181.722 16.9375C182.767 14.9034 184.239 13.3182 186.136 12.1818C188.045 11.0455 190.284 10.4773 192.852 10.4773C194.58 10.4773 196.188 10.7557 197.676 11.3125C199.176 11.858 200.483 12.6818 201.597 13.7841C202.722 14.8864 203.597 16.2727 204.222 17.9432C204.847 19.6023 205.159 21.5455 205.159 23.7727V25.767H183.051V21.267H198.324C198.324 20.2216 198.097 19.2955 197.642 18.4886C197.188 17.6818 196.557 17.0511 195.75 16.5966C194.955 16.1307 194.028 15.8977 192.972 15.8977C191.869 15.8977 190.892 16.1534 190.04 16.6648C189.199 17.1648 188.54 17.8409 188.062 18.6932C187.585 19.5341 187.341 20.4716 187.33 21.5057V25.7841C187.33 27.0795 187.568 28.1989 188.045 29.142C188.534 30.0852 189.222 30.8125 190.108 31.3239C190.994 31.8352 192.045 32.0909 193.261 32.0909C194.068 32.0909 194.807 31.9773 195.477 31.75C196.148 31.5227 196.722 31.1818 197.199 30.7273C197.676 30.2727 198.04 29.7159 198.29 29.0568L205.006 29.5C204.665 31.1136 203.966 32.5227 202.909 33.7273C201.864 34.9205 200.511 35.8523 198.852 36.5227C197.205 37.1818 195.301 37.5114 193.142 37.5114ZM209.898 37V10.8182H216.938V15.3864H217.21C217.688 13.7614 218.489 12.5341 219.614 11.7045C220.739 10.8636 222.034 10.4432 223.5 10.4432C223.864 10.4432 224.256 10.4659 224.676 10.5114C225.097 10.5568 225.466 10.6193 225.784 10.6989V17.142C225.443 17.0398 224.972 16.9489 224.369 16.8693C223.767 16.7898 223.216 16.75 222.716 16.75C221.648 16.75 220.693 16.983 219.852 17.4489C219.023 17.9034 218.364 18.5398 217.875 19.358C217.398 20.1761 217.159 21.1193 217.159 22.1875V37H209.898ZM240.251 37.5114C237.558 37.5114 235.24 36.9659 233.297 35.875C231.365 34.7727 229.876 33.2159 228.831 31.2045C227.786 29.1818 227.263 26.7898 227.263 24.0284C227.263 21.3352 227.786 18.9716 228.831 16.9375C229.876 14.9034 231.348 13.3182 233.246 12.1818C235.155 11.0455 237.393 10.4773 239.962 10.4773C241.689 10.4773 243.297 10.7557 244.786 11.3125C246.286 11.858 247.592 12.6818 248.706 13.7841C249.831 14.8864 250.706 16.2727 251.331 17.9432C251.956 19.6023 252.268 21.5455 252.268 23.7727V25.767H230.161V21.267H245.433C245.433 20.2216 245.206 19.2955 244.751 18.4886C244.297 17.6818 243.666 17.0511 242.859 16.5966C242.064 16.1307 241.138 15.8977 240.081 15.8977C238.979 15.8977 238.001 16.1534 237.149 16.6648C236.308 17.1648 235.649 17.8409 235.172 18.6932C234.695 19.5341 234.45 20.4716 234.439 21.5057V25.7841C234.439 27.0795 234.678 28.1989 235.155 29.142C235.643 30.0852 236.331 30.8125 237.217 31.3239C238.104 31.8352 239.155 32.0909 240.371 32.0909C241.178 32.0909 241.916 31.9773 242.587 31.75C243.257 31.5227 243.831 31.1818 244.308 30.7273C244.786 30.2727 245.149 29.7159 245.399 29.0568L252.115 29.5C251.774 31.1136 251.075 32.5227 250.018 33.7273C248.973 34.9205 247.621 35.8523 245.962 36.5227C244.314 37.1818 242.411 37.5114 240.251 37.5114ZM275.378 2.09091V37H268.116V2.09091H275.378ZM293.126 37.5114C290.433 37.5114 288.115 36.9659 286.172 35.875C284.24 34.7727 282.751 33.2159 281.706 31.2045C280.661 29.1818 280.138 26.7898 280.138 24.0284C280.138 21.3352 280.661 18.9716 281.706 16.9375C282.751 14.9034 284.223 13.3182 286.121 12.1818C288.03 11.0455 290.268 10.4773 292.837 10.4773C294.564 10.4773 296.172 10.7557 297.661 11.3125C299.161 11.858 300.467 12.6818 301.581 13.7841C302.706 14.8864 303.581 16.2727 304.206 17.9432C304.831 19.6023 305.143 21.5455 305.143 23.7727V25.767H283.036V21.267H298.308C298.308 20.2216 298.081 19.2955 297.626 18.4886C297.172 17.6818 296.541 17.0511 295.734 16.5966C294.939 16.1307 294.013 15.8977 292.956 15.8977C291.854 15.8977 290.876 16.1534 290.024 16.6648C289.183 17.1648 288.524 17.8409 288.047 18.6932C287.57 19.5341 287.325 20.4716 287.314 21.5057V25.7841C287.314 27.0795 287.553 28.1989 288.03 29.142C288.518 30.0852 289.206 30.8125 290.092 31.3239C290.979 31.8352 292.03 32.0909 293.246 32.0909C294.053 32.0909 294.791 31.9773 295.462 31.75C296.132 31.5227 296.706 31.1818 297.183 30.7273C297.661 30.2727 298.024 29.7159 298.274 29.0568L304.99 29.5C304.649 31.1136 303.95 32.5227 302.893 33.7273C301.848 34.9205 300.496 35.8523 298.837 36.5227C297.189 37.1818 295.286 37.5114 293.126 37.5114ZM323.962 10.8182V16.2727H307.803V10.8182H323.962ZM311.501 37V8.92614C311.501 7.02841 311.871 5.45454 312.609 4.20454C313.359 2.95454 314.382 2.01704 315.678 1.39204C316.973 0.767043 318.445 0.454543 320.092 0.454543C321.206 0.454543 322.223 0.539771 323.143 0.710227C324.075 0.880681 324.768 1.03409 325.223 1.17045L323.928 6.625C323.643 6.53409 323.291 6.44886 322.871 6.36932C322.462 6.28977 322.041 6.25 321.609 6.25C320.541 6.25 319.797 6.5 319.376 7C318.956 7.48864 318.746 8.17614 318.746 9.0625V37H311.501ZM342.324 10.8182V16.2727H326.557V10.8182H342.324ZM330.136 4.54545H337.398V28.9545C337.398 29.625 337.5 30.1477 337.705 30.5227C337.909 30.8864 338.193 31.142 338.557 31.2898C338.932 31.4375 339.364 31.5114 339.852 31.5114C340.193 31.5114 340.534 31.483 340.875 31.4261C341.216 31.358 341.477 31.3068 341.659 31.2727L342.801 36.6761C342.438 36.7898 341.926 36.9205 341.267 37.0682C340.608 37.2273 339.807 37.3239 338.864 37.358C337.114 37.4261 335.58 37.1932 334.261 36.6591C332.955 36.125 331.938 35.2955 331.21 34.1705C330.483 33.0455 330.125 31.625 330.136 29.9091V4.54545ZM358.602 37.5114C355.955 37.5114 353.665 36.9489 351.733 35.8239C349.813 34.6875 348.33 33.108 347.284 31.0852C346.239 29.0511 345.716 26.6932 345.716 24.0114C345.716 21.3068 346.239 18.9432 347.284 16.9205C348.33 14.8864 349.813 13.3068 351.733 12.1818C353.665 11.0455 355.955 10.4773 358.602 10.4773C361.25 10.4773 363.534 11.0455 365.455 12.1818C367.386 13.3068 368.875 14.8864 369.92 16.9205C370.966 18.9432 371.489 21.3068 371.489 24.0114C371.489 26.6932 370.966 29.0511 369.92 31.0852C368.875 33.108 367.386 34.6875 365.455 35.8239C363.534 36.9489 361.25 37.5114 358.602 37.5114ZM358.636 31.8864C359.841 31.8864 360.847 31.5455 361.653 30.8636C362.46 30.1705 363.068 29.2273 363.477 28.0341C363.898 26.8409 364.108 25.483 364.108 23.9602C364.108 22.4375 363.898 21.0795 363.477 19.8864C363.068 18.6932 362.46 17.75 361.653 17.0568C360.847 16.3636 359.841 16.017 358.636 16.017C357.42 16.017 356.398 16.3636 355.568 17.0568C354.75 17.75 354.131 18.6932 353.71 19.8864C353.301 21.0795 353.097 22.4375 353.097 23.9602C353.097 25.483 353.301 26.8409 353.71 28.0341C354.131 29.2273 354.75 30.1705 355.568 30.8636C356.398 31.5455 357.42 31.8864 358.636 31.8864ZM399.776 10.8182L390.622 37H382.44L373.287 10.8182H380.957L386.395 29.5511H386.668L392.088 10.8182H399.776ZM414.58 37.5114C411.886 37.5114 409.568 36.9659 407.625 35.875C405.693 34.7727 404.205 33.2159 403.159 31.2045C402.114 29.1818 401.591 26.7898 401.591 24.0284C401.591 21.3352 402.114 18.9716 403.159 16.9375C404.205 14.9034 405.676 13.3182 407.574 12.1818C409.483 11.0455 411.722 10.4773 414.29 10.4773C416.017 10.4773 417.625 10.7557 419.114 11.3125C420.614 11.858 421.92 12.6818 423.034 13.7841C424.159 14.8864 425.034 16.2727 425.659 17.9432C426.284 19.6023 426.597 21.5455 426.597 23.7727V25.767H404.489V21.267H419.761C419.761 20.2216 419.534 19.2955 419.08 18.4886C418.625 17.6818 417.994 17.0511 417.188 16.5966C416.392 16.1307 415.466 15.8977 414.409 15.8977C413.307 15.8977 412.33 16.1534 411.477 16.6648C410.636 17.1648 409.977 17.8409 409.5 18.6932C409.023 19.5341 408.778 20.4716 408.767 21.5057V25.7841C408.767 27.0795 409.006 28.1989 409.483 29.142C409.972 30.0852 410.659 30.8125 411.545 31.3239C412.432 31.8352 413.483 32.0909 414.699 32.0909C415.506 32.0909 416.244 31.9773 416.915 31.75C417.585 31.5227 418.159 31.1818 418.636 30.7273C419.114 30.2727 419.477 29.7159 419.727 29.0568L426.443 29.5C426.102 31.1136 425.403 32.5227 424.347 33.7273C423.301 34.9205 421.949 35.8523 420.29 36.5227C418.642 37.1818 416.739 37.5114 414.58 37.5114ZM431.335 37V10.8182H438.375V15.3864H438.648C439.125 13.7614 439.926 12.5341 441.051 11.7045C442.176 10.8636 443.472 10.4432 444.938 10.4432C445.301 10.4432 445.693 10.4659 446.114 10.5114C446.534 10.5568 446.903 10.6193 447.222 10.6989V17.142C446.881 17.0398 446.409 16.9489 445.807 16.8693C445.205 16.7898 444.653 16.75 444.153 16.75C443.085 16.75 442.131 16.983 441.29 17.4489C440.46 17.9034 439.801 18.5398 439.312 19.358C438.835 20.1761 438.597 21.1193 438.597 22.1875V37H431.335ZM472.76 18.2841L466.112 18.6932C465.999 18.125 465.754 17.6136 465.379 17.1591C465.004 16.6932 464.51 16.3239 463.896 16.0511C463.294 15.767 462.572 15.625 461.732 15.625C460.607 15.625 459.658 15.8636 458.885 16.3409C458.112 16.8068 457.726 17.4318 457.726 18.2159C457.726 18.8409 457.976 19.3693 458.476 19.8011C458.976 20.233 459.834 20.5795 461.05 20.8409L465.788 21.7955C468.334 22.3182 470.232 23.1591 471.482 24.3182C472.732 25.4773 473.357 27 473.357 28.8864C473.357 30.6023 472.851 32.108 471.839 33.4034C470.839 34.6989 469.464 35.7102 467.714 36.4375C465.976 37.1534 463.97 37.5114 461.697 37.5114C458.232 37.5114 455.47 36.7898 453.413 35.3466C451.368 33.892 450.169 31.9148 449.817 29.4148L456.959 29.0398C457.175 30.0966 457.697 30.9034 458.527 31.4602C459.357 32.0057 460.419 32.2784 461.714 32.2784C462.987 32.2784 464.01 32.0341 464.783 31.5455C465.567 31.0455 465.964 30.4034 465.976 29.6193C465.964 28.9602 465.686 28.4205 465.141 28C464.595 27.5682 463.754 27.2386 462.618 27.0114L458.084 26.108C455.527 25.5966 453.624 24.7102 452.374 23.4489C451.135 22.1875 450.516 20.5795 450.516 18.625C450.516 16.9432 450.97 15.4943 451.879 14.2784C452.8 13.0625 454.089 12.125 455.749 11.4659C457.419 10.8068 459.374 10.4773 461.612 10.4773C464.919 10.4773 467.521 11.1761 469.419 12.5739C471.328 13.9716 472.442 15.875 472.76 18.2841ZM489.038 37V10.8182H496.3V37H489.038ZM492.686 7.44318C491.607 7.44318 490.68 7.08523 489.908 6.36932C489.146 5.64204 488.766 4.77273 488.766 3.76136C488.766 2.76136 489.146 1.90341 489.908 1.1875C490.68 0.460226 491.607 0.0965891 492.686 0.0965891C493.766 0.0965891 494.686 0.460226 495.447 1.1875C496.22 1.90341 496.607 2.76136 496.607 3.76136C496.607 4.77273 496.22 5.64204 495.447 6.36932C494.686 7.08523 493.766 7.44318 492.686 7.44318ZM509.378 21.8636V37H502.116V10.8182H509.037V15.4375H509.344C509.923 13.9148 510.895 12.7102 512.259 11.8239C513.622 10.9261 515.276 10.4773 517.219 10.4773C519.037 10.4773 520.622 10.875 521.974 11.6705C523.327 12.4659 524.378 13.6023 525.128 15.0795C525.878 16.5455 526.253 18.2955 526.253 20.3295V37H518.991V21.625C519.003 20.0227 518.594 18.7727 517.764 17.875C516.935 16.9659 515.793 16.5114 514.338 16.5114C513.361 16.5114 512.497 16.7216 511.747 17.142C511.009 17.5625 510.429 18.1761 510.009 18.983C509.599 19.7784 509.389 20.7386 509.378 21.8636ZM564.869 18.2841L558.222 18.6932C558.108 18.125 557.864 17.6136 557.489 17.1591C557.114 16.6932 556.619 16.3239 556.006 16.0511C555.403 15.767 554.682 15.625 553.841 15.625C552.716 15.625 551.767 15.8636 550.994 16.3409C550.222 16.8068 549.835 17.4318 549.835 18.2159C549.835 18.8409 550.085 19.3693 550.585 19.8011C551.085 20.233 551.943 20.5795 553.159 20.8409L557.898 21.7955C560.443 22.3182 562.341 23.1591 563.591 24.3182C564.841 25.4773 565.466 27 565.466 28.8864C565.466 30.6023 564.96 32.108 563.949 33.4034C562.949 34.6989 561.574 35.7102 559.824 36.4375C558.085 37.1534 556.08 37.5114 553.807 37.5114C550.341 37.5114 547.58 36.7898 545.523 35.3466C543.477 33.892 542.278 31.9148 541.926 29.4148L549.068 29.0398C549.284 30.0966 549.807 30.9034 550.636 31.4602C551.466 32.0057 552.528 32.2784 553.824 32.2784C555.097 32.2784 556.119 32.0341 556.892 31.5455C557.676 31.0455 558.074 30.4034 558.085 29.6193C558.074 28.9602 557.795 28.4205 557.25 28C556.705 27.5682 555.864 27.2386 554.727 27.0114L550.193 26.108C547.636 25.5966 545.733 24.7102 544.483 23.4489C543.244 22.1875 542.625 20.5795 542.625 18.625C542.625 16.9432 543.08 15.4943 543.989 14.2784C544.909 13.0625 546.199 12.125 547.858 11.4659C549.528 10.8068 551.483 10.4773 553.722 10.4773C557.028 10.4773 559.631 11.1761 561.528 12.5739C563.438 13.9716 564.551 15.875 564.869 18.2841ZM581.868 37.5114C579.22 37.5114 576.93 36.9489 574.999 35.8239C573.078 34.6875 571.595 33.108 570.55 31.0852C569.504 29.0511 568.982 26.6932 568.982 24.0114C568.982 21.3068 569.504 18.9432 570.55 16.9205C571.595 14.8864 573.078 13.3068 574.999 12.1818C576.93 11.0455 579.22 10.4773 581.868 10.4773C584.516 10.4773 586.8 11.0455 588.72 12.1818C590.652 13.3068 592.141 14.8864 593.186 16.9205C594.232 18.9432 594.754 21.3068 594.754 24.0114C594.754 26.6932 594.232 29.0511 593.186 31.0852C592.141 33.108 590.652 34.6875 588.72 35.8239C586.8 36.9489 584.516 37.5114 581.868 37.5114ZM581.902 31.8864C583.107 31.8864 584.112 31.5455 584.919 30.8636C585.726 30.1705 586.334 29.2273 586.743 28.0341C587.163 26.8409 587.374 25.483 587.374 23.9602C587.374 22.4375 587.163 21.0795 586.743 19.8864C586.334 18.6932 585.726 17.75 584.919 17.0568C584.112 16.3636 583.107 16.017 581.902 16.017C580.686 16.017 579.663 16.3636 578.834 17.0568C578.016 17.75 577.396 18.6932 576.976 19.8864C576.567 21.0795 576.362 22.4375 576.362 23.9602C576.362 25.483 576.567 26.8409 576.976 28.0341C577.396 29.2273 578.016 30.1705 578.834 30.8636C579.663 31.5455 580.686 31.8864 581.902 31.8864ZM599.476 37V10.8182H606.396V15.4375H606.703C607.249 13.9034 608.158 12.6932 609.43 11.8068C610.703 10.9205 612.226 10.4773 613.999 10.4773C615.794 10.4773 617.322 10.9261 618.584 11.8239C619.845 12.7102 620.686 13.9148 621.107 15.4375H621.379C621.913 13.9375 622.879 12.7386 624.277 11.8409C625.686 10.9318 627.351 10.4773 629.271 10.4773C631.714 10.4773 633.697 11.2557 635.22 12.8125C636.754 14.358 637.521 16.5511 637.521 19.392V37H630.277V20.8239C630.277 19.3693 629.891 18.2784 629.118 17.5511C628.345 16.8239 627.379 16.4602 626.22 16.4602C624.902 16.4602 623.874 16.8807 623.135 17.7216C622.396 18.5511 622.027 19.6477 622.027 21.0114V37H614.987V20.6705C614.987 19.3864 614.618 18.3636 613.879 17.6023C613.152 16.8409 612.192 16.4602 610.999 16.4602C610.192 16.4602 609.464 16.6648 608.817 17.0739C608.18 17.4716 607.675 18.0341 607.3 18.7614C606.925 19.4773 606.737 20.3182 606.737 21.2841V37H599.476ZM655.189 37.5114C652.496 37.5114 650.178 36.9659 648.234 35.875C646.303 34.7727 644.814 33.2159 643.768 31.2045C642.723 29.1818 642.2 26.7898 642.2 24.0284C642.2 21.3352 642.723 18.9716 643.768 16.9375C644.814 14.9034 646.286 13.3182 648.183 12.1818C650.092 11.0455 652.331 10.4773 654.899 10.4773C656.626 10.4773 658.234 10.7557 659.723 11.3125C661.223 11.858 662.53 12.6818 663.643 13.7841C664.768 14.8864 665.643 16.2727 666.268 17.9432C666.893 19.6023 667.206 21.5455 667.206 23.7727V25.767H645.098V21.267H660.371C660.371 20.2216 660.143 19.2955 659.689 18.4886C659.234 17.6818 658.604 17.0511 657.797 16.5966C657.001 16.1307 656.075 15.8977 655.018 15.8977C653.916 15.8977 652.939 16.1534 652.087 16.6648C651.246 17.1648 650.587 17.8409 650.109 18.6932C649.632 19.5341 649.388 20.4716 649.376 21.5057V25.7841C649.376 27.0795 649.615 28.1989 650.092 29.142C650.581 30.0852 651.268 30.8125 652.155 31.3239C653.041 31.8352 654.092 32.0909 655.308 32.0909C656.115 32.0909 656.854 31.9773 657.524 31.75C658.195 31.5227 658.768 31.1818 659.246 30.7273C659.723 30.2727 660.087 29.7159 660.337 29.0568L667.053 29.5C666.712 31.1136 666.013 32.5227 664.956 33.7273C663.911 34.9205 662.558 35.8523 660.899 36.5227C659.251 37.1818 657.348 37.5114 655.189 37.5114ZM683.774 37.5114C681.126 37.5114 678.837 36.9489 676.905 35.8239C674.984 34.6875 673.501 33.108 672.456 31.0852C671.411 29.0511 670.888 26.6932 670.888 24.0114C670.888 21.3068 671.411 18.9432 672.456 16.9205C673.501 14.8864 674.984 13.3068 676.905 12.1818C678.837 11.0455 681.126 10.4773 683.774 10.4773C686.422 10.4773 688.706 11.0455 690.626 12.1818C692.558 13.3068 694.047 14.8864 695.092 16.9205C696.138 18.9432 696.661 21.3068 696.661 24.0114C696.661 26.6932 696.138 29.0511 695.092 31.0852C694.047 33.108 692.558 34.6875 690.626 35.8239C688.706 36.9489 686.422 37.5114 683.774 37.5114ZM683.808 31.8864C685.013 31.8864 686.018 31.5455 686.825 30.8636C687.632 30.1705 688.24 29.2273 688.649 28.0341C689.07 26.8409 689.28 25.483 689.28 23.9602C689.28 22.4375 689.07 21.0795 688.649 19.8864C688.24 18.6932 687.632 17.75 686.825 17.0568C686.018 16.3636 685.013 16.017 683.808 16.017C682.592 16.017 681.57 16.3636 680.74 17.0568C679.922 17.75 679.303 18.6932 678.882 19.8864C678.473 21.0795 678.268 22.4375 678.268 23.9602C678.268 25.483 678.473 26.8409 678.882 28.0341C679.303 29.2273 679.922 30.1705 680.74 30.8636C681.57 31.5455 682.592 31.8864 683.808 31.8864ZM708.643 21.8636V37H701.382V10.8182H708.303V15.4375H708.609C709.189 13.9148 710.161 12.7102 711.524 11.8239C712.888 10.9261 714.541 10.4773 716.484 10.4773C718.303 10.4773 719.888 10.875 721.24 11.6705C722.592 12.4659 723.643 13.6023 724.393 15.0795C725.143 16.5455 725.518 18.2955 725.518 20.3295V37H718.257V21.625C718.268 20.0227 717.859 18.7727 717.03 17.875C716.2 16.9659 715.058 16.5114 713.604 16.5114C712.626 16.5114 711.763 16.7216 711.013 17.142C710.274 17.5625 709.695 18.1761 709.274 18.983C708.865 19.7784 708.655 20.7386 708.643 21.8636ZM743.173 37.5114C740.48 37.5114 738.162 36.9659 736.219 35.875C734.287 34.7727 732.798 33.2159 731.753 31.2045C730.707 29.1818 730.185 26.7898 730.185 24.0284C730.185 21.3352 730.707 18.9716 731.753 16.9375C732.798 14.9034 734.27 13.3182 736.168 12.1818C738.077 11.0455 740.315 10.4773 742.884 10.4773C744.611 10.4773 746.219 10.7557 747.707 11.3125C749.207 11.858 750.514 12.6818 751.628 13.7841C752.753 14.8864 753.628 16.2727 754.253 17.9432C754.878 19.6023 755.19 21.5455 755.19 23.7727V25.767H733.082V21.267H748.355C748.355 20.2216 748.128 19.2955 747.673 18.4886C747.219 17.6818 746.588 17.0511 745.781 16.5966C744.986 16.1307 744.06 15.8977 743.003 15.8977C741.901 15.8977 740.923 16.1534 740.071 16.6648C739.23 17.1648 738.571 17.8409 738.094 18.6932C737.616 19.5341 737.372 20.4716 737.361 21.5057V25.7841C737.361 27.0795 737.599 28.1989 738.077 29.142C738.565 30.0852 739.253 30.8125 740.139 31.3239C741.026 31.8352 742.077 32.0909 743.293 32.0909C744.099 32.0909 744.838 31.9773 745.509 31.75C746.179 31.5227 746.753 31.1818 747.23 30.7273C747.707 30.2727 748.071 29.7159 748.321 29.0568L755.037 29.5C754.696 31.1136 753.997 32.5227 752.94 33.7273C751.895 34.9205 750.543 35.8523 748.884 36.5227C747.236 37.1818 745.332 37.5114 743.173 37.5114ZM766.014 2.09091V5.77273C766.014 6.81818 765.81 7.88636 765.401 8.97727C765.003 10.0568 764.469 11.0795 763.798 12.0455C763.128 13 762.395 13.8125 761.599 14.483L758.395 12.5909C758.963 11.6932 759.463 10.6989 759.895 9.60795C760.338 8.51704 760.56 7.25 760.56 5.80682V2.09091H766.014ZM789.354 18.2841L782.706 18.6932C782.592 18.125 782.348 17.6136 781.973 17.1591C781.598 16.6932 781.104 16.3239 780.49 16.0511C779.888 15.767 779.166 15.625 778.325 15.625C777.2 15.625 776.251 15.8636 775.479 16.3409C774.706 16.8068 774.32 17.4318 774.32 18.2159C774.32 18.8409 774.57 19.3693 775.07 19.8011C775.57 20.233 776.428 20.5795 777.643 20.8409L782.382 21.7955C784.928 22.3182 786.825 23.1591 788.075 24.3182C789.325 25.4773 789.95 27 789.95 28.8864C789.95 30.6023 789.445 32.108 788.433 33.4034C787.433 34.6989 786.058 35.7102 784.308 36.4375C782.57 37.1534 780.564 37.5114 778.291 37.5114C774.825 37.5114 772.064 36.7898 770.007 35.3466C767.962 33.892 766.763 31.9148 766.411 29.4148L773.553 29.0398C773.768 30.0966 774.291 30.9034 775.121 31.4602C775.95 32.0057 777.013 32.2784 778.308 32.2784C779.581 32.2784 780.604 32.0341 781.376 31.5455C782.161 31.0455 782.558 30.4034 782.57 29.6193C782.558 28.9602 782.28 28.4205 781.734 28C781.189 27.5682 780.348 27.2386 779.212 27.0114L774.678 26.108C772.121 25.5966 770.217 24.7102 768.967 23.4489C767.729 22.1875 767.109 20.5795 767.109 18.625C767.109 16.9432 767.564 15.4943 768.473 14.2784C769.393 13.0625 770.683 12.125 772.342 11.4659C774.013 10.8068 775.967 10.4773 778.206 10.4773C781.513 10.4773 784.115 11.1761 786.013 12.5739C787.922 13.9716 789.036 15.875 789.354 18.2841ZM33.946 63.8182V69.2727H17.7869V63.8182H33.946ZM21.4858 90V61.9261C21.4858 60.0284 21.8551 58.4545 22.5938 57.2045C23.3438 55.9545 24.3665 55.017 25.6619 54.392C26.9574 53.767 28.429 53.4545 30.0767 53.4545C31.1903 53.4545 32.2074 53.5398 33.1278 53.7102C34.0597 53.8807 34.7528 54.0341 35.2074 54.1705L33.9119 59.625C33.6278 59.5341 33.2756 59.4489 32.8551 59.3693C32.446 59.2898 32.0256 59.25 31.5938 59.25C30.5256 59.25 29.7812 59.5 29.3608 60C28.9403 60.4886 28.7301 61.1761 28.7301 62.0625V90H21.4858ZM38.3821 90V63.8182H45.4219V68.3864H45.6946C46.1719 66.7614 46.973 65.5341 48.098 64.7045C49.223 63.8636 50.5185 63.4432 51.9844 63.4432C52.348 63.4432 52.7401 63.4659 53.1605 63.5114C53.581 63.5568 53.9503 63.6193 54.2685 63.6989V70.142C53.9276 70.0398 53.456 69.9489 52.8537 69.8693C52.2514 69.7898 51.7003 69.75 51.2003 69.75C50.1321 69.75 49.1776 69.983 48.3366 70.4489C47.5071 70.9034 46.848 71.5398 46.3594 72.358C45.8821 73.1761 45.6435 74.1193 45.6435 75.1875V90H38.3821ZM58.0227 90V63.8182H65.2841V90H58.0227ZM61.6705 60.4432C60.5909 60.4432 59.6648 60.0852 58.892 59.3693C58.1307 58.642 57.75 57.7727 57.75 56.7614C57.75 55.7614 58.1307 54.9034 58.892 54.1875C59.6648 53.4602 60.5909 53.0966 61.6705 53.0966C62.75 53.0966 63.6705 53.4602 64.4318 54.1875C65.2045 54.9034 65.5909 55.7614 65.5909 56.7614C65.5909 57.7727 65.2045 58.642 64.4318 59.3693C63.6705 60.0852 62.75 60.4432 61.6705 60.4432ZM80.7486 90.4261C78.7599 90.4261 76.9588 89.9148 75.3452 88.892C73.7429 87.858 72.4702 86.3409 71.527 84.3409C70.5952 82.3295 70.1293 79.8636 70.1293 76.9432C70.1293 73.9432 70.6122 71.4489 71.5781 69.4602C72.544 67.4602 73.8281 65.9659 75.4304 64.9773C77.044 63.9773 78.8111 63.4773 80.7315 63.4773C82.1974 63.4773 83.419 63.7273 84.3963 64.2273C85.3849 64.7159 86.1804 65.3295 86.7827 66.0682C87.3963 66.7955 87.8622 67.5114 88.1804 68.2159H88.402V55.0909H95.6463V90H88.4872V85.8068H88.1804C87.8395 86.5341 87.3565 87.2557 86.7315 87.9716C86.1179 88.6761 85.3168 89.2614 84.3281 89.7273C83.3509 90.1932 82.1577 90.4261 80.7486 90.4261ZM83.0497 84.6477C84.2202 84.6477 85.2088 84.3295 86.0156 83.6932C86.8338 83.0455 87.4588 82.142 87.8906 80.983C88.3338 79.8239 88.5554 78.4659 88.5554 76.9091C88.5554 75.3523 88.3395 74 87.9077 72.8523C87.4759 71.7045 86.8509 70.8182 86.0327 70.1932C85.2145 69.5682 84.2202 69.2557 83.0497 69.2557C81.8565 69.2557 80.8509 69.5795 80.0327 70.2273C79.2145 70.875 78.5952 71.7727 78.1747 72.9205C77.7543 74.0682 77.544 75.3977 77.544 76.9091C77.544 78.4318 77.7543 79.7784 78.1747 80.9489C78.6065 82.108 79.2259 83.017 80.0327 83.6761C80.8509 84.3239 81.8565 84.6477 83.0497 84.6477ZM113.412 100.364C111.06 100.364 109.043 100.04 107.361 99.392C105.69 98.7557 104.361 97.8864 103.372 96.7841C102.384 95.6818 101.741 94.4432 101.446 93.0682L108.162 92.1648C108.366 92.6875 108.69 93.1761 109.134 93.6307C109.577 94.0852 110.162 94.4489 110.889 94.7216C111.628 95.0057 112.526 95.1477 113.582 95.1477C115.162 95.1477 116.463 94.7614 117.486 93.9886C118.52 93.2273 119.037 91.9489 119.037 90.1534V85.3636H118.73C118.412 86.0909 117.935 86.7784 117.298 87.4261C116.662 88.0739 115.844 88.6023 114.844 89.0114C113.844 89.4205 112.651 89.625 111.264 89.625C109.298 89.625 107.509 89.1705 105.895 88.2614C104.293 87.3409 103.014 85.9375 102.06 84.0511C101.116 82.1534 100.645 79.7557 100.645 76.858C100.645 73.892 101.128 71.4148 102.094 69.4261C103.06 67.4375 104.344 65.9489 105.946 64.9602C107.56 63.9716 109.327 63.4773 111.247 63.4773C112.713 63.4773 113.94 63.7273 114.929 64.2273C115.918 64.7159 116.713 65.3295 117.315 66.0682C117.929 66.7955 118.401 67.5114 118.73 68.2159H119.003V63.8182H126.213V90.2557C126.213 92.483 125.668 94.3466 124.577 95.8466C123.486 97.3466 121.974 98.4716 120.043 99.2216C118.122 99.983 115.912 100.364 113.412 100.364ZM113.565 84.1705C114.736 84.1705 115.724 83.8807 116.531 83.3011C117.349 82.7102 117.974 81.8693 118.406 80.7784C118.849 79.6761 119.071 78.358 119.071 76.8239C119.071 75.2898 118.855 73.9602 118.423 72.8352C117.991 71.6989 117.366 70.8182 116.548 70.1932C115.73 69.5682 114.736 69.2557 113.565 69.2557C112.372 69.2557 111.366 69.5795 110.548 70.2273C109.73 70.8636 109.111 71.75 108.69 72.8864C108.27 74.0227 108.06 75.3352 108.06 76.8239C108.06 78.3352 108.27 79.642 108.69 80.7443C109.122 81.8352 109.741 82.6818 110.548 83.2841C111.366 83.875 112.372 84.1705 113.565 84.1705ZM143.923 90.5114C141.23 90.5114 138.912 89.9659 136.969 88.875C135.037 87.7727 133.548 86.2159 132.503 84.2045C131.457 82.1818 130.935 79.7898 130.935 77.0284C130.935 74.3352 131.457 71.9716 132.503 69.9375C133.548 67.9034 135.02 66.3182 136.918 65.1818C138.827 64.0455 141.065 63.4773 143.634 63.4773C145.361 63.4773 146.969 63.7557 148.457 64.3125C149.957 64.858 151.264 65.6818 152.378 66.7841C153.503 67.8864 154.378 69.2727 155.003 70.9432C155.628 72.6023 155.94 74.5455 155.94 76.7727V78.767H133.832V74.267H149.105C149.105 73.2216 148.878 72.2955 148.423 71.4886C147.969 70.6818 147.338 70.0511 146.531 69.5966C145.736 69.1307 144.81 68.8977 143.753 68.8977C142.651 68.8977 141.673 69.1534 140.821 69.6648C139.98 70.1648 139.321 70.8409 138.844 71.6932C138.366 72.5341 138.122 73.4716 138.111 74.5057V78.7841C138.111 80.0795 138.349 81.1989 138.827 82.142C139.315 83.0852 140.003 83.8125 140.889 84.3239C141.776 84.8352 142.827 85.0909 144.043 85.0909C144.849 85.0909 145.588 84.9773 146.259 84.75C146.929 84.5227 147.503 84.1818 147.98 83.7273C148.457 83.2727 148.821 82.7159 149.071 82.0568L155.787 82.5C155.446 84.1136 154.747 85.5227 153.69 86.7273C152.645 87.9205 151.293 88.8523 149.634 89.5227C147.986 90.1818 146.082 90.5114 143.923 90.5114ZM168.571 85.2273L168.384 87.1023C168.236 88.6023 167.952 90.0966 167.531 91.5852C167.122 93.0852 166.69 94.4432 166.236 95.6591C165.793 96.875 165.435 97.8295 165.162 98.5227H160.457C160.628 97.8523 160.861 96.9148 161.156 95.7102C161.452 94.517 161.73 93.1761 161.991 91.6875C162.253 90.1989 162.418 88.6818 162.486 87.1364L162.571 85.2273H168.571ZM189.844 90L182.719 63.8182H190.065L194.122 81.4091H194.361L198.588 63.8182H205.798L210.094 81.3068H210.315L214.304 63.8182H221.634L214.526 90H206.838L202.338 73.5341H202.014L197.514 90H189.844ZM232.768 74.8636V90H225.507V55.0909H232.564V68.4375H232.871C233.462 66.892 234.416 65.6818 235.734 64.8068C237.053 63.9205 238.706 63.4773 240.695 63.4773C242.513 63.4773 244.098 63.875 245.45 64.6705C246.814 65.4545 247.871 66.5852 248.621 68.0625C249.382 69.5284 249.757 71.2841 249.746 73.3295V90H242.484V74.625C242.496 73.0114 242.087 71.7557 241.257 70.858C240.439 69.9602 239.291 69.5114 237.814 69.5114C236.825 69.5114 235.95 69.7216 235.189 70.142C234.439 70.5625 233.848 71.1761 233.416 71.983C232.996 72.7784 232.78 73.7386 232.768 74.8636ZM255.46 90V63.8182H262.722V90H255.46ZM259.108 60.4432C258.028 60.4432 257.102 60.0852 256.33 59.3693C255.568 58.642 255.188 57.7727 255.188 56.7614C255.188 55.7614 255.568 54.9034 256.33 54.1875C257.102 53.4602 258.028 53.0966 259.108 53.0966C260.188 53.0966 261.108 53.4602 261.869 54.1875C262.642 54.9034 263.028 55.7614 263.028 56.7614C263.028 57.7727 262.642 58.642 261.869 59.3693C261.108 60.0852 260.188 60.4432 259.108 60.4432ZM280.368 90.5114C277.686 90.5114 275.379 89.9432 273.447 88.8068C271.527 87.6591 270.05 86.0682 269.016 84.0341C267.993 82 267.482 79.6591 267.482 77.0114C267.482 74.3295 267.999 71.9773 269.033 69.9545C270.078 67.9205 271.561 66.3352 273.482 65.1989C275.402 64.0511 277.686 63.4773 280.334 63.4773C282.618 63.4773 284.618 63.892 286.334 64.7216C288.05 65.5511 289.408 66.7159 290.408 68.2159C291.408 69.7159 291.959 71.4773 292.061 73.5H285.209C285.016 72.1932 284.504 71.142 283.675 70.3466C282.857 69.5398 281.783 69.1364 280.453 69.1364C279.328 69.1364 278.345 69.4432 277.504 70.0568C276.675 70.6591 276.027 71.5398 275.561 72.6989C275.095 73.858 274.862 75.2614 274.862 76.9091C274.862 78.5795 275.089 80 275.544 81.1705C276.01 82.3409 276.663 83.233 277.504 83.8466C278.345 84.4602 279.328 84.767 280.453 84.767C281.283 84.767 282.027 84.5966 282.686 84.2557C283.357 83.9148 283.908 83.4205 284.339 82.7727C284.783 82.1136 285.072 81.3239 285.209 80.4034H292.061C291.947 82.4034 291.402 84.1648 290.425 85.6875C289.459 87.1989 288.124 88.3807 286.419 89.233C284.714 90.0852 282.697 90.5114 280.368 90.5114ZM303.972 74.8636V90H296.71V55.0909H303.767V68.4375H304.074C304.665 66.892 305.619 65.6818 306.938 64.8068C308.256 63.9205 309.909 63.4773 311.898 63.4773C313.716 63.4773 315.301 63.875 316.653 64.6705C318.017 65.4545 319.074 66.5852 319.824 68.0625C320.585 69.5284 320.96 71.2841 320.949 73.3295V90H313.688V74.625C313.699 73.0114 313.29 71.7557 312.46 70.858C311.642 69.9602 310.494 69.5114 309.017 69.5114C308.028 69.5114 307.153 69.7216 306.392 70.142C305.642 70.5625 305.051 71.1761 304.619 71.983C304.199 72.7784 303.983 73.7386 303.972 74.8636ZM349.602 90.5114C346.955 90.5114 344.665 89.9489 342.733 88.8239C340.813 87.6875 339.33 86.108 338.284 84.0852C337.239 82.0511 336.716 79.6932 336.716 77.0114C336.716 74.3068 337.239 71.9432 338.284 69.9205C339.33 67.8864 340.813 66.3068 342.733 65.1818C344.665 64.0455 346.955 63.4773 349.602 63.4773C352.25 63.4773 354.534 64.0455 356.455 65.1818C358.386 66.3068 359.875 67.8864 360.92 69.9205C361.966 71.9432 362.489 74.3068 362.489 77.0114C362.489 79.6932 361.966 82.0511 360.92 84.0852C359.875 86.108 358.386 87.6875 356.455 88.8239C354.534 89.9489 352.25 90.5114 349.602 90.5114ZM349.636 84.8864C350.841 84.8864 351.847 84.5455 352.653 83.8636C353.46 83.1705 354.068 82.2273 354.477 81.0341C354.898 79.8409 355.108 78.483 355.108 76.9602C355.108 75.4375 354.898 74.0795 354.477 72.8864C354.068 71.6932 353.46 70.75 352.653 70.0568C351.847 69.3636 350.841 69.017 349.636 69.017C348.42 69.017 347.398 69.3636 346.568 70.0568C345.75 70.75 345.131 71.6932 344.71 72.8864C344.301 74.0795 344.097 75.4375 344.097 76.9602C344.097 78.483 344.301 79.8409 344.71 81.0341C345.131 82.2273 345.75 83.1705 346.568 83.8636C347.398 84.5455 348.42 84.8864 349.636 84.8864ZM374.472 74.8636V90H367.21V63.8182H374.131V68.4375H374.438C375.017 66.9148 375.989 65.7102 377.352 64.8239C378.716 63.9261 380.369 63.4773 382.312 63.4773C384.131 63.4773 385.716 63.875 387.068 64.6705C388.42 65.4659 389.472 66.6023 390.222 68.0795C390.972 69.5455 391.347 71.2955 391.347 73.3295V90H384.085V74.625C384.097 73.0227 383.688 71.7727 382.858 70.875C382.028 69.9659 380.886 69.5114 379.432 69.5114C378.455 69.5114 377.591 69.7216 376.841 70.142C376.102 70.5625 375.523 71.1761 375.102 71.983C374.693 72.7784 374.483 73.7386 374.472 74.8636ZM409.001 90.5114C406.308 90.5114 403.99 89.9659 402.047 88.875C400.115 87.7727 398.626 86.2159 397.581 84.2045C396.536 82.1818 396.013 79.7898 396.013 77.0284C396.013 74.3352 396.536 71.9716 397.581 69.9375C398.626 67.9034 400.098 66.3182 401.996 65.1818C403.905 64.0455 406.143 63.4773 408.712 63.4773C410.439 63.4773 412.047 63.7557 413.536 64.3125C415.036 64.858 416.342 65.6818 417.456 66.7841C418.581 67.8864 419.456 69.2727 420.081 70.9432C420.706 72.6023 421.018 74.5455 421.018 76.7727V78.767H398.911V74.267H414.183C414.183 73.2216 413.956 72.2955 413.501 71.4886C413.047 70.6818 412.416 70.0511 411.609 69.5966C410.814 69.1307 409.888 68.8977 408.831 68.8977C407.729 68.8977 406.751 69.1534 405.899 69.6648C405.058 70.1648 404.399 70.8409 403.922 71.6932C403.445 72.5341 403.2 73.4716 403.189 74.5057V78.7841C403.189 80.0795 403.428 81.1989 403.905 82.142C404.393 83.0852 405.081 83.8125 405.967 84.3239C406.854 84.8352 407.905 85.0909 409.121 85.0909C409.928 85.0909 410.666 84.9773 411.337 84.75C412.007 84.5227 412.581 84.1818 413.058 83.7273C413.536 83.2727 413.899 82.7159 414.149 82.0568L420.865 82.5C420.524 84.1136 419.825 85.5227 418.768 86.7273C417.723 87.9205 416.371 88.8523 414.712 89.5227C413.064 90.1818 411.161 90.5114 409.001 90.5114ZM442.031 90L434.906 63.8182H442.253L446.31 81.4091H446.548L450.776 63.8182H457.986L462.281 81.3068H462.503L466.491 63.8182H473.821L466.713 90H459.026L454.526 73.5341H454.202L449.702 90H442.031ZM488.868 90.5114C486.22 90.5114 483.93 89.9489 481.999 88.8239C480.078 87.6875 478.595 86.108 477.55 84.0852C476.504 82.0511 475.982 79.6932 475.982 77.0114C475.982 74.3068 476.504 71.9432 477.55 69.9205C478.595 67.8864 480.078 66.3068 481.999 65.1818C483.93 64.0455 486.22 63.4773 488.868 63.4773C491.516 63.4773 493.8 64.0455 495.72 65.1818C497.652 66.3068 499.141 67.8864 500.186 69.9205C501.232 71.9432 501.754 74.3068 501.754 77.0114C501.754 79.6932 501.232 82.0511 500.186 84.0852C499.141 86.108 497.652 87.6875 495.72 88.8239C493.8 89.9489 491.516 90.5114 488.868 90.5114ZM488.902 84.8864C490.107 84.8864 491.112 84.5455 491.919 83.8636C492.726 83.1705 493.334 82.2273 493.743 81.0341C494.163 79.8409 494.374 78.483 494.374 76.9602C494.374 75.4375 494.163 74.0795 493.743 72.8864C493.334 71.6932 492.726 70.75 491.919 70.0568C491.112 69.3636 490.107 69.017 488.902 69.017C487.686 69.017 486.663 69.3636 485.834 70.0568C485.016 70.75 484.396 71.6932 483.976 72.8864C483.567 74.0795 483.362 75.4375 483.362 76.9602C483.362 78.483 483.567 79.8409 483.976 81.0341C484.396 82.2273 485.016 83.1705 485.834 83.8636C486.663 84.5455 487.686 84.8864 488.902 84.8864ZM523.266 78.8523V63.8182H530.527V90H523.555V85.2443H523.283C522.692 86.7784 521.709 88.0114 520.334 88.9432C518.97 89.875 517.305 90.3409 515.339 90.3409C513.589 90.3409 512.05 89.9432 510.72 89.1477C509.391 88.3523 508.351 87.2216 507.601 85.7557C506.862 84.2898 506.487 82.5341 506.476 80.4886V63.8182H513.737V79.1932C513.749 80.7386 514.163 81.9602 514.982 82.858C515.8 83.7557 516.896 84.2045 518.271 84.2045C519.146 84.2045 519.964 84.0057 520.726 83.608C521.487 83.1989 522.101 82.5966 522.567 81.8011C523.044 81.0057 523.277 80.0227 523.266 78.8523ZM543.597 55.0909V90H536.335V55.0909H543.597ZM559.061 90.4261C557.072 90.4261 555.271 89.9148 553.658 88.892C552.055 87.858 550.783 86.3409 549.839 84.3409C548.908 82.3295 548.442 79.8636 548.442 76.9432C548.442 73.9432 548.925 71.4489 549.891 69.4602C550.857 67.4602 552.141 65.9659 553.743 64.9773C555.357 63.9773 557.124 63.4773 559.044 63.4773C560.51 63.4773 561.732 63.7273 562.709 64.2273C563.697 64.7159 564.493 65.3295 565.095 66.0682C565.709 66.7955 566.175 67.5114 566.493 68.2159H566.714V55.0909H573.959V90H566.8V85.8068H566.493C566.152 86.5341 565.669 87.2557 565.044 87.9716C564.43 88.6761 563.629 89.2614 562.641 89.7273C561.663 90.1932 560.47 90.4261 559.061 90.4261ZM561.362 84.6477C562.533 84.6477 563.521 84.3295 564.328 83.6932C565.146 83.0455 565.771 82.142 566.203 80.983C566.646 79.8239 566.868 78.4659 566.868 76.9091C566.868 75.3523 566.652 74 566.22 72.8523C565.788 71.7045 565.163 70.8182 564.345 70.1932C563.527 69.5682 562.533 69.2557 561.362 69.2557C560.169 69.2557 559.163 69.5795 558.345 70.2273C557.527 70.875 556.908 71.7727 556.487 72.9205C556.067 74.0682 555.857 75.3977 555.857 76.9091C555.857 78.4318 556.067 79.7784 556.487 80.9489C556.919 82.108 557.538 83.017 558.345 83.6761C559.163 84.3239 560.169 84.6477 561.362 84.6477ZM595.521 99.8182C594.601 99.8182 593.737 99.7443 592.93 99.5966C592.135 99.4602 591.476 99.2841 590.953 99.0682L592.589 93.6477C593.442 93.9091 594.209 94.0511 594.891 94.0739C595.584 94.0966 596.18 93.9375 596.68 93.5966C597.192 93.2557 597.607 92.6761 597.925 91.858L598.351 90.75L588.959 63.8182H596.595L602.016 83.0455H602.288L607.76 63.8182H615.447L605.271 92.8295C604.783 94.2386 604.118 95.4659 603.277 96.5114C602.447 97.5682 601.396 98.3807 600.124 98.9489C598.851 99.5284 597.317 99.8182 595.521 99.8182ZM630.149 90.5114C627.501 90.5114 625.212 89.9489 623.28 88.8239C621.359 87.6875 619.876 86.108 618.831 84.0852C617.786 82.0511 617.263 79.6932 617.263 77.0114C617.263 74.3068 617.786 71.9432 618.831 69.9205C619.876 67.8864 621.359 66.3068 623.28 65.1818C625.212 64.0455 627.501 63.4773 630.149 63.4773C632.797 63.4773 635.081 64.0455 637.001 65.1818C638.933 66.3068 640.422 67.8864 641.467 69.9205C642.513 71.9432 643.036 74.3068 643.036 77.0114C643.036 79.6932 642.513 82.0511 641.467 84.0852C640.422 86.108 638.933 87.6875 637.001 88.8239C635.081 89.9489 632.797 90.5114 630.149 90.5114ZM630.183 84.8864C631.388 84.8864 632.393 84.5455 633.2 83.8636C634.007 83.1705 634.615 82.2273 635.024 81.0341C635.445 79.8409 635.655 78.483 635.655 76.9602C635.655 75.4375 635.445 74.0795 635.024 72.8864C634.615 71.6932 634.007 70.75 633.2 70.0568C632.393 69.3636 631.388 69.017 630.183 69.017C628.967 69.017 627.945 69.3636 627.115 70.0568C626.297 70.75 625.678 71.6932 625.257 72.8864C624.848 74.0795 624.643 75.4375 624.643 76.9602C624.643 78.483 624.848 79.8409 625.257 81.0341C625.678 82.2273 626.297 83.1705 627.115 83.8636C627.945 84.5455 628.967 84.8864 630.183 84.8864ZM664.547 78.8523V63.8182H671.808V90H664.837V85.2443H664.564C663.973 86.7784 662.99 88.0114 661.615 88.9432C660.251 89.875 658.587 90.3409 656.621 90.3409C654.871 90.3409 653.331 89.9432 652.001 89.1477C650.672 88.3523 649.632 87.2216 648.882 85.7557C648.143 84.2898 647.768 82.5341 647.757 80.4886V63.8182H655.018V79.1932C655.03 80.7386 655.445 81.9602 656.263 82.858C657.081 83.7557 658.178 84.2045 659.553 84.2045C660.428 84.2045 661.246 84.0057 662.007 83.608C662.768 83.1989 663.382 82.5966 663.848 81.8011C664.325 81.0057 664.558 80.0227 664.547 78.8523ZM688.862 90V55.0909H696.124V68.2159H696.345C696.663 67.5114 697.124 66.7955 697.726 66.0682C698.339 65.3295 699.135 64.7159 700.112 64.2273C701.101 63.7273 702.328 63.4773 703.794 63.4773C705.703 63.4773 707.464 63.9773 709.078 64.9773C710.692 65.9659 711.982 67.4602 712.947 69.4602C713.913 71.4489 714.396 73.9432 714.396 76.9432C714.396 79.8636 713.925 82.3295 712.982 84.3409C712.05 86.3409 710.777 87.858 709.163 88.892C707.561 89.9148 705.766 90.4261 703.777 90.4261C702.368 90.4261 701.169 90.1932 700.18 89.7273C699.203 89.2614 698.402 88.6761 697.777 87.9716C697.152 87.2557 696.675 86.5341 696.345 85.8068H696.021V90H688.862ZM695.97 76.9091C695.97 78.4659 696.186 79.8239 696.618 80.983C697.05 82.142 697.675 83.0455 698.493 83.6932C699.311 84.3295 700.305 84.6477 701.476 84.6477C702.658 84.6477 703.658 84.3239 704.476 83.6761C705.294 83.017 705.913 82.108 706.334 80.9489C706.766 79.7784 706.982 78.4318 706.982 76.9091C706.982 75.3977 706.771 74.0682 706.351 72.9205C705.93 71.7727 705.311 70.875 704.493 70.2273C703.675 69.5795 702.669 69.2557 701.476 69.2557C700.294 69.2557 699.294 69.5682 698.476 70.1932C697.669 70.8182 697.05 71.7045 696.618 72.8523C696.186 74 695.97 75.3523 695.97 76.9091ZM731.173 90.5114C728.48 90.5114 726.162 89.9659 724.219 88.875C722.287 87.7727 720.798 86.2159 719.753 84.2045C718.707 82.1818 718.185 79.7898 718.185 77.0284C718.185 74.3352 718.707 71.9716 719.753 69.9375C720.798 67.9034 722.27 66.3182 724.168 65.1818C726.077 64.0455 728.315 63.4773 730.884 63.4773C732.611 63.4773 734.219 63.7557 735.707 64.3125C737.207 64.858 738.514 65.6818 739.628 66.7841C740.753 67.8864 741.628 69.2727 742.253 70.9432C742.878 72.6023 743.19 74.5455 743.19 76.7727V78.767H721.082V74.267H736.355C736.355 73.2216 736.128 72.2955 735.673 71.4886C735.219 70.6818 734.588 70.0511 733.781 69.5966C732.986 69.1307 732.06 68.8977 731.003 68.8977C729.901 68.8977 728.923 69.1534 728.071 69.6648C727.23 70.1648 726.571 70.8409 726.094 71.6932C725.616 72.5341 725.372 73.4716 725.361 74.5057V78.7841C725.361 80.0795 725.599 81.1989 726.077 82.142C726.565 83.0852 727.253 83.8125 728.139 84.3239C729.026 84.8352 730.077 85.0909 731.293 85.0909C732.099 85.0909 732.838 84.9773 733.509 84.75C734.179 84.5227 734.753 84.1818 735.23 83.7273C735.707 83.2727 736.071 82.7159 736.321 82.0568L743.037 82.5C742.696 84.1136 741.997 85.5227 740.94 86.7273C739.895 87.9205 738.543 88.8523 736.884 89.5227C735.236 90.1818 733.332 90.5114 731.173 90.5114ZM754.168 79.5341V78.9545C754.179 76.9659 754.355 75.3807 754.696 74.1989C755.048 73.017 755.56 72.0625 756.23 71.3352C756.901 70.608 757.707 69.9489 758.651 69.358C759.355 68.9034 759.986 68.4318 760.543 67.9432C761.099 67.4545 761.543 66.9148 761.872 66.3239C762.202 65.7216 762.366 65.0511 762.366 64.3125C762.366 63.5284 762.179 62.8409 761.804 62.25C761.429 61.6591 760.923 61.2045 760.287 60.8864C759.662 60.5682 758.969 60.4091 758.207 60.4091C757.469 60.4091 756.77 60.5739 756.111 60.9034C755.452 61.2216 754.912 61.6989 754.491 62.3352C754.071 62.9602 753.844 63.7386 753.81 64.6705H746.855C746.912 62.3977 747.457 60.5227 748.491 59.0455C749.526 57.5568 750.895 56.4489 752.599 55.7216C754.304 54.983 756.185 54.6136 758.241 54.6136C760.503 54.6136 762.503 54.9886 764.241 55.7386C765.98 56.4773 767.344 57.5511 768.332 58.9602C769.321 60.3693 769.815 62.0682 769.815 64.0568C769.815 65.3864 769.594 66.5682 769.151 67.6023C768.719 68.625 768.111 69.5341 767.327 70.3295C766.543 71.1136 765.616 71.8239 764.548 72.4602C763.651 72.9943 762.912 73.5511 762.332 74.1307C761.764 74.7102 761.338 75.3807 761.054 76.142C760.781 76.9034 760.639 77.8409 760.628 78.9545V79.5341H754.168ZM757.543 90.4432C756.406 90.4432 755.435 90.0455 754.628 89.25C753.832 88.4432 753.44 87.4773 753.452 86.3523C753.44 85.2386 753.832 84.2841 754.628 83.4886C755.435 82.6932 756.406 82.2955 757.543 82.2955C758.622 82.2955 759.571 82.6932 760.389 83.4886C761.207 84.2841 761.622 85.2386 761.634 86.3523C761.622 87.1023 761.423 87.7898 761.037 88.4148C760.662 89.0284 760.168 89.5227 759.554 89.8977C758.94 90.2614 758.27 90.4432 757.543 90.4432Z" fill="#3E2522"/>
</svg>
