<svg width="86" height="43" viewBox="0 0 86 43" fill="none" xmlns="http://www.w3.org/2000/svg">
<path opacity="0.75" d="M0.647727 4.36364V0.545454H15.8182V4.36364H10.5682V18H5.89773V4.36364H0.647727ZM16.6416 18V0.545454H21.3802V7.36364H27.6529V0.545454H32.3916V18H27.6529V11.1818H21.3802V18H16.6416ZM33.6816 18V0.545454H46.2611V4.36364H38.4202V7.36364H45.6134V11.1818H38.4202V14.1818H46.227V18H33.6816ZM10.5341 30C10.4886 29.4318 10.2756 28.9886 9.89489 28.6705C9.51989 28.3523 8.94886 28.1932 8.18182 28.1932C7.69318 28.1932 7.29261 28.2528 6.98011 28.3722C6.6733 28.4858 6.44602 28.642 6.2983 28.8409C6.15057 29.0398 6.07386 29.267 6.06818 29.5227C6.05682 29.733 6.09375 29.9233 6.17898 30.0938C6.26989 30.2585 6.41193 30.4091 6.60511 30.5455C6.7983 30.6761 7.04545 30.7955 7.34659 30.9034C7.64773 31.0114 8.00568 31.108 8.42045 31.1932L9.85227 31.5C10.8182 31.7045 11.6449 31.9744 12.3324 32.3097C13.0199 32.6449 13.5824 33.0398 14.0199 33.4943C14.4574 33.9432 14.7784 34.4489 14.983 35.0114C15.1932 35.5739 15.3011 36.1875 15.3068 36.8523C15.3011 38 15.0142 38.9716 14.446 39.767C13.8778 40.5625 13.0653 41.1676 12.0085 41.5824C10.9574 41.9972 9.69318 42.2045 8.21591 42.2045C6.69886 42.2045 5.375 41.9801 4.24432 41.5312C3.11932 41.0824 2.24432 40.392 1.61932 39.4602C1 38.5227 0.6875 37.3239 0.681818 35.8636H5.18182C5.21023 36.3977 5.34375 36.8466 5.58239 37.2102C5.82102 37.5739 6.15625 37.8494 6.58807 38.0369C7.02557 38.2244 7.54545 38.3182 8.14773 38.3182C8.65341 38.3182 9.0767 38.2557 9.41761 38.1307C9.75852 38.0057 10.017 37.8324 10.1932 37.6108C10.3693 37.3892 10.4602 37.1364 10.4659 36.8523C10.4602 36.5852 10.3722 36.3523 10.2017 36.1534C10.0369 35.9489 9.7642 35.767 9.38352 35.608C9.00284 35.4432 8.48864 35.2898 7.84091 35.1477L6.10227 34.7727C4.55682 34.4375 3.33807 33.8778 2.44602 33.0938C1.55966 32.304 1.11932 31.2273 1.125 29.8636C1.11932 28.7557 1.41477 27.7869 2.01136 26.9574C2.61364 26.1222 3.44602 25.4716 4.50852 25.0057C5.5767 24.5398 6.80114 24.3068 8.18182 24.3068C9.59091 24.3068 10.8097 24.5426 11.8381 25.0142C12.8665 25.4858 13.6591 26.1506 14.2159 27.0085C14.7784 27.8608 15.0625 28.858 15.0682 30H10.5341ZM16.1494 42V24.5455H20.888V31.3636H27.1607V24.5455H31.8994V42H27.1607V35.1818H20.888V42H16.1494ZM37.7235 42H32.6098L38.3712 24.5455H44.8485L50.6098 42H45.4962L41.678 29.3523H41.5416L37.7235 42ZM36.7689 35.1136H46.3826V38.6591H36.7689V35.1136ZM51.3309 42V24.5455H58.865C60.1605 24.5455 61.294 24.8011 62.2656 25.3125C63.2372 25.8239 63.9929 26.5426 64.5326 27.4688C65.0724 28.3949 65.3423 29.4773 65.3423 30.7159C65.3423 31.9659 65.0639 33.0483 64.5071 33.9631C63.9559 34.8778 63.1804 35.5824 62.1804 36.0767C61.1861 36.571 60.0241 36.8182 58.6946 36.8182H54.1946V33.1364H57.74C58.2968 33.1364 58.7713 33.0398 59.1633 32.8466C59.5611 32.6477 59.865 32.3665 60.0753 32.0028C60.2912 31.6392 60.3991 31.2102 60.3991 30.7159C60.3991 30.2159 60.2912 29.7898 60.0753 29.4375C59.865 29.0795 59.5611 28.8068 59.1633 28.6193C58.7713 28.4261 58.2968 28.3295 57.74 28.3295H56.0696V42H51.3309ZM66.1209 42V24.5455H78.7005V28.3636H70.8596V31.3636H78.0528V35.1818H70.8596V38.1818H78.6664V42H66.1209ZM82.7156 42.2727C82.0565 42.2727 81.4912 42.0426 81.0196 41.5824C80.5537 41.1165 80.3236 40.5511 80.3293 39.8864C80.3236 39.2386 80.5537 38.6847 81.0196 38.2244C81.4912 37.7642 82.0565 37.5341 82.7156 37.5341C83.3406 37.5341 83.8918 37.7642 84.369 38.2244C84.852 38.6847 85.0963 39.2386 85.102 39.8864C85.0963 40.3295 84.9798 40.733 84.7526 41.0966C84.531 41.4545 84.2412 41.7415 83.8832 41.9574C83.5253 42.1676 83.1361 42.2727 82.7156 42.2727Z" fill="#D3B6A1"/>
</svg>
