<svg width="170" height="655" viewBox="0 0 170 655" fill="none" xmlns="http://www.w3.org/2000/svg">
<path d="M85.6683 648.194C84.8497 648.194 84.147 647.987 83.5604 647.572C82.977 647.155 82.5279 646.553 82.2131 645.768C81.9015 644.979 81.7457 644.029 81.7457 642.919C81.7491 641.809 81.9065 640.864 82.218 640.085C82.5329 639.303 82.982 638.706 83.5653 638.295C84.152 637.884 84.853 637.679 85.6683 637.679C86.4837 637.679 87.1847 637.884 87.7713 638.295C88.358 638.706 88.8071 639.303 89.1186 640.085C89.4335 640.867 89.5909 641.812 89.5909 642.919C89.5909 644.033 89.4335 644.984 89.1186 645.773C88.8071 646.558 88.358 647.158 87.7713 647.572C87.188 647.987 86.487 648.194 85.6683 648.194ZM85.6683 646.638C86.3047 646.638 86.8068 646.325 87.1747 645.698C87.5459 645.068 87.7315 644.142 87.7315 642.919C87.7315 642.11 87.647 641.431 87.478 640.881C87.3089 640.33 87.0703 639.916 86.7621 639.638C86.4538 639.356 86.0893 639.215 85.6683 639.215C85.0353 639.215 84.5348 639.53 84.1669 640.16C83.799 640.786 83.6134 641.706 83.6101 642.919C83.6068 643.731 83.688 644.414 83.8537 644.967C84.0227 645.521 84.2614 645.938 84.5696 646.22C84.8778 646.499 85.2441 646.638 85.6683 646.638ZM96.6866 646.091V645.554C96.6866 645.16 96.7695 644.797 96.9352 644.465C97.1042 644.134 97.3495 643.867 97.671 643.665C97.9925 643.463 98.3819 643.362 98.8393 643.362C99.31 643.362 99.7044 643.463 100.023 643.665C100.341 643.864 100.581 644.129 100.743 644.46C100.909 644.792 100.992 645.156 100.992 645.554V646.091C100.992 646.485 100.909 646.848 100.743 647.18C100.578 647.511 100.334 647.778 100.013 647.98C99.6944 648.182 99.3033 648.283 98.8393 648.283C98.3753 648.283 97.9825 648.182 97.661 647.98C97.3395 647.778 97.0959 647.511 96.9302 647.18C96.7678 646.848 96.6866 646.485 96.6866 646.091ZM97.9842 645.554V646.091C97.9842 646.353 98.0472 646.593 98.1731 646.812C98.2991 647.031 98.5211 647.14 98.8393 647.14C99.1608 647.14 99.3812 647.032 99.5005 646.817C99.6232 646.598 99.6845 646.356 99.6845 646.091V645.554C99.6845 645.289 99.6265 645.047 99.5105 644.828C99.3945 644.606 99.1708 644.495 98.8393 644.495C98.5278 644.495 98.3074 644.606 98.1781 644.828C98.0488 645.047 97.9842 645.289 97.9842 645.554ZM91.5112 640.264V639.727C91.5112 639.33 91.5957 638.965 91.7647 638.634C91.9338 638.302 92.179 638.037 92.5005 637.838C92.822 637.636 93.2115 637.535 93.6689 637.535C94.1362 637.535 94.5289 637.636 94.8471 637.838C95.1686 638.037 95.4106 638.302 95.573 638.634C95.7354 638.965 95.8166 639.33 95.8166 639.727V640.264C95.8166 640.662 95.7337 641.027 95.568 641.358C95.4056 641.686 95.1636 641.95 94.8422 642.148C94.5207 642.347 94.1296 642.447 93.6689 642.447C93.2015 642.447 92.8071 642.347 92.4856 642.148C92.1674 641.95 91.9255 641.684 91.7598 641.353C91.594 641.022 91.5112 640.659 91.5112 640.264ZM92.8187 639.727V640.264C92.8187 640.529 92.88 640.771 93.0027 640.99C93.1286 641.205 93.3507 641.313 93.6689 641.313C93.987 641.313 94.2058 641.205 94.3251 640.99C94.4477 640.771 94.5091 640.529 94.5091 640.264V639.727C94.5091 639.462 94.4511 639.22 94.335 639.001C94.219 638.779 93.997 638.668 93.6689 638.668C93.354 638.668 93.1336 638.779 93.0076 639.001C92.8817 639.223 92.8187 639.465 92.8187 639.727ZM92.0779 648L99.0779 637.818H100.321L93.3208 648H92.0779Z" fill="#3D1F1A"/>
<path d="M86.0462 574.818V585H84.2017V576.613H84.142L81.7607 578.134V576.444L84.2912 574.818H86.0462ZM92.3949 585.194C91.5762 585.194 90.8736 584.987 90.2869 584.572C89.7036 584.155 89.2545 583.553 88.9396 582.768C88.6281 581.979 88.4723 581.029 88.4723 579.919C88.4756 578.809 88.633 577.864 88.9446 577.085C89.2595 576.303 89.7086 575.706 90.2919 575.295C90.8786 574.884 91.5795 574.679 92.3949 574.679C93.2102 574.679 93.9112 574.884 94.4979 575.295C95.0845 575.706 95.5336 576.303 95.8452 577.085C96.16 577.867 96.3175 578.812 96.3175 579.919C96.3175 581.033 96.16 581.984 95.8452 582.773C95.5336 583.558 95.0845 584.158 94.4979 584.572C93.9145 584.987 93.2135 585.194 92.3949 585.194ZM92.3949 583.638C93.0313 583.638 93.5334 583.325 93.9013 582.698C94.2725 582.068 94.4581 581.142 94.4581 579.919C94.4581 579.11 94.3736 578.431 94.2045 577.881C94.0355 577.33 93.7969 576.916 93.4886 576.638C93.1804 576.356 92.8158 576.215 92.3949 576.215C91.7618 576.215 91.2614 576.53 90.8935 577.16C90.5256 577.786 90.34 578.706 90.3366 579.919C90.3333 580.731 90.4145 581.414 90.5803 581.967C90.7493 582.521 90.9879 582.938 91.2962 583.22C91.6044 583.499 91.9706 583.638 92.3949 583.638ZM103.413 583.091V582.554C103.413 582.16 103.496 581.797 103.662 581.465C103.831 581.134 104.076 580.867 104.398 580.665C104.719 580.463 105.108 580.362 105.566 580.362C106.037 580.362 106.431 580.463 106.749 580.665C107.067 580.864 107.308 581.129 107.47 581.46C107.636 581.792 107.719 582.156 107.719 582.554V583.091C107.719 583.485 107.636 583.848 107.47 584.18C107.304 584.511 107.061 584.778 106.739 584.98C106.421 585.182 106.03 585.283 105.566 585.283C105.102 585.283 104.709 585.182 104.388 584.98C104.066 584.778 103.823 584.511 103.657 584.18C103.494 583.848 103.413 583.485 103.413 583.091ZM104.711 582.554V583.091C104.711 583.353 104.774 583.593 104.9 583.812C105.026 584.031 105.248 584.14 105.566 584.14C105.887 584.14 106.108 584.032 106.227 583.817C106.35 583.598 106.411 583.356 106.411 583.091V582.554C106.411 582.289 106.353 582.047 106.237 581.828C106.121 581.606 105.897 581.495 105.566 581.495C105.254 581.495 105.034 581.606 104.905 581.828C104.775 582.047 104.711 582.289 104.711 582.554ZM98.2377 577.264V576.727C98.2377 576.33 98.3223 575.965 98.4913 575.634C98.6603 575.302 98.9056 575.037 99.2271 574.838C99.5486 574.636 99.938 574.535 100.395 574.535C100.863 574.535 101.256 574.636 101.574 574.838C101.895 575.037 102.137 575.302 102.3 575.634C102.462 575.965 102.543 576.33 102.543 576.727V577.264C102.543 577.662 102.46 578.027 102.295 578.358C102.132 578.686 101.89 578.95 101.569 579.148C101.247 579.347 100.856 579.447 100.395 579.447C99.9281 579.447 99.5337 579.347 99.2122 579.148C98.894 578.95 98.652 578.684 98.4863 578.353C98.3206 578.022 98.2377 577.659 98.2377 577.264ZM99.5453 576.727V577.264C99.5453 577.529 99.6066 577.771 99.7292 577.99C99.8552 578.205 100.077 578.313 100.395 578.313C100.714 578.313 100.932 578.205 101.052 577.99C101.174 577.771 101.236 577.529 101.236 577.264V576.727C101.236 576.462 101.178 576.22 101.062 576.001C100.946 575.779 100.724 575.668 100.395 575.668C100.081 575.668 99.8601 575.779 99.7342 576.001C99.6083 576.223 99.5453 576.465 99.5453 576.727ZM98.8045 585L105.805 574.818H107.047L100.047 585H98.8045Z" fill="#3D1F1A"/>
<path d="M81.9048 522V520.668L85.4396 517.202C85.7777 516.861 86.0594 516.558 86.2848 516.293C86.5102 516.027 86.6792 515.771 86.7919 515.522C86.9046 515.273 86.9609 515.008 86.9609 514.727C86.9609 514.405 86.888 514.13 86.7422 513.901C86.5964 513.669 86.3958 513.49 86.1406 513.364C85.8854 513.238 85.5954 513.175 85.2706 513.175C84.9358 513.175 84.6425 513.245 84.3906 513.384C84.1387 513.52 83.9432 513.714 83.804 513.966C83.6681 514.218 83.6001 514.518 83.6001 514.866H81.8452C81.8452 514.219 81.9927 513.658 82.2876 513.18C82.5826 512.703 82.9886 512.334 83.5057 512.072C84.026 511.81 84.6226 511.679 85.2955 511.679C85.9782 511.679 86.5781 511.807 87.0952 512.062C87.6122 512.317 88.0133 512.667 88.2983 513.111C88.5866 513.555 88.7308 514.062 88.7308 514.632C88.7308 515.013 88.6579 515.388 88.5121 515.756C88.3662 516.124 88.1094 516.531 87.7415 516.979C87.3769 517.426 86.8648 517.968 86.2053 518.604L84.4503 520.389V520.459H88.8849V522H81.9048ZM94.3636 522.194C93.545 522.194 92.8423 521.987 92.2557 521.572C91.6723 521.155 91.2232 520.553 90.9084 519.768C90.5968 518.979 90.4411 518.029 90.4411 516.919C90.4444 515.809 90.6018 514.864 90.9134 514.085C91.2282 513.303 91.6773 512.706 92.2607 512.295C92.8473 511.884 93.5483 511.679 94.3636 511.679C95.179 511.679 95.88 511.884 96.4666 512.295C97.0533 512.706 97.5024 513.303 97.8139 514.085C98.1288 514.867 98.2862 515.812 98.2862 516.919C98.2862 518.033 98.1288 518.984 97.8139 519.773C97.5024 520.558 97.0533 521.158 96.4666 521.572C95.8833 521.987 95.1823 522.194 94.3636 522.194ZM94.3636 520.638C95 520.638 95.5021 520.325 95.87 519.698C96.2412 519.068 96.4268 518.142 96.4268 516.919C96.4268 516.11 96.3423 515.431 96.1733 514.881C96.0043 514.33 95.7656 513.916 95.4574 513.638C95.1491 513.356 94.7846 513.215 94.3636 513.215C93.7306 513.215 93.2301 513.53 92.8622 514.16C92.4943 514.786 92.3087 515.706 92.3054 516.919C92.3021 517.731 92.3833 518.414 92.549 518.967C92.718 519.521 92.9567 519.938 93.2649 520.22C93.5732 520.499 93.9394 520.638 94.3636 520.638ZM105.382 520.091V519.554C105.382 519.16 105.465 518.797 105.631 518.465C105.8 518.134 106.045 517.867 106.366 517.665C106.688 517.463 107.077 517.362 107.535 517.362C108.005 517.362 108.4 517.463 108.718 517.665C109.036 517.864 109.276 518.129 109.439 518.46C109.604 518.792 109.687 519.156 109.687 519.554V520.091C109.687 520.485 109.604 520.848 109.439 521.18C109.273 521.511 109.029 521.778 108.708 521.98C108.39 522.182 107.999 522.283 107.535 522.283C107.071 522.283 106.678 522.182 106.356 521.98C106.035 521.778 105.791 521.511 105.626 521.18C105.463 520.848 105.382 520.485 105.382 520.091ZM106.68 519.554V520.091C106.68 520.353 106.742 520.593 106.868 520.812C106.994 521.031 107.216 521.14 107.535 521.14C107.856 521.14 108.077 521.032 108.196 520.817C108.318 520.598 108.38 520.356 108.38 520.091V519.554C108.38 519.289 108.322 519.047 108.206 518.828C108.09 518.606 107.866 518.495 107.535 518.495C107.223 518.495 107.003 518.606 106.873 518.828C106.744 519.047 106.68 519.289 106.68 519.554ZM100.206 514.264V513.727C100.206 513.33 100.291 512.965 100.46 512.634C100.629 512.302 100.874 512.037 101.196 511.838C101.517 511.636 101.907 511.535 102.364 511.535C102.831 511.535 103.224 511.636 103.542 511.838C103.864 512.037 104.106 512.302 104.268 512.634C104.431 512.965 104.512 513.33 104.512 513.727V514.264C104.512 514.662 104.429 515.027 104.263 515.358C104.101 515.686 103.859 515.95 103.537 516.148C103.216 516.347 102.825 516.447 102.364 516.447C101.897 516.447 101.502 516.347 101.181 516.148C100.863 515.95 100.621 515.684 100.455 515.353C100.289 515.022 100.206 514.659 100.206 514.264ZM101.514 513.727V514.264C101.514 514.529 101.575 514.771 101.698 514.99C101.824 515.205 102.046 515.313 102.364 515.313C102.682 515.313 102.901 515.205 103.02 514.99C103.143 514.771 103.204 514.529 103.204 514.264V513.727C103.204 513.462 103.146 513.22 103.03 513.001C102.914 512.779 102.692 512.668 102.364 512.668C102.049 512.668 101.829 512.779 101.703 513.001C101.577 513.223 101.514 513.465 101.514 513.727ZM100.773 522L107.773 511.818H109.016L102.016 522H100.773Z" fill="#3D1F1A"/>
<path d="M85.5589 457.139C84.843 457.139 84.2067 457.017 83.6499 456.771C83.0964 456.526 82.6589 456.185 82.3374 455.747C82.0159 455.31 81.8452 454.804 81.8253 454.231H83.6946C83.7112 454.506 83.8023 454.746 83.968 454.952C84.1338 455.154 84.3542 455.311 84.6293 455.424C84.9044 455.537 85.2126 455.593 85.554 455.593C85.9186 455.593 86.2417 455.53 86.5234 455.404C86.8052 455.275 87.0256 455.096 87.1847 454.867C87.3438 454.638 87.4216 454.375 87.4183 454.077C87.4216 453.768 87.3421 453.497 87.1797 453.261C87.0173 453.026 86.782 452.842 86.4737 452.71C86.1688 452.577 85.8009 452.511 85.37 452.511H84.4702V451.089H85.37C85.7247 451.089 86.0346 451.027 86.2997 450.905C86.5682 450.782 86.7786 450.61 86.9311 450.388C87.0836 450.162 87.1581 449.902 87.1548 449.607C87.1581 449.319 87.0935 449.069 86.9609 448.857C86.8317 448.641 86.6477 448.474 86.4091 448.354C86.1738 448.235 85.897 448.175 85.5788 448.175C85.2673 448.175 84.9789 448.232 84.7138 448.344C84.4486 448.457 84.2348 448.618 84.0724 448.827C83.91 449.032 83.8239 449.277 83.8139 449.562H82.0391C82.0523 448.992 82.2164 448.492 82.5312 448.061C82.8494 447.627 83.2737 447.289 83.804 447.047C84.3343 446.802 84.9292 446.679 85.5888 446.679C86.2682 446.679 86.8582 446.807 87.3587 447.062C87.8625 447.314 88.2519 447.653 88.527 448.081C88.8021 448.509 88.9396 448.981 88.9396 449.498C88.9429 450.071 88.7739 450.552 88.4325 450.94C88.0945 451.327 87.6503 451.581 87.1001 451.7V451.78C87.8161 451.879 88.3646 452.144 88.7457 452.575C89.1302 453.003 89.3208 453.535 89.3175 454.171C89.3175 454.741 89.1551 455.252 88.8303 455.702C88.5088 456.15 88.0646 456.501 87.4979 456.756C86.9344 457.012 86.2881 457.139 85.5589 457.139ZM94.7875 457.194C93.9688 457.194 93.2662 456.987 92.6795 456.572C92.0962 456.155 91.6471 455.553 91.3322 454.768C91.0207 453.979 90.8649 453.029 90.8649 451.919C90.8682 450.809 91.0256 449.864 91.3372 449.085C91.652 448.303 92.1011 447.706 92.6845 447.295C93.2711 446.884 93.9721 446.679 94.7875 446.679C95.6028 446.679 96.3038 446.884 96.8904 447.295C97.4771 447.706 97.9262 448.303 98.2377 449.085C98.5526 449.867 98.71 450.812 98.71 451.919C98.71 453.033 98.5526 453.984 98.2377 454.773C97.9262 455.558 97.4771 456.158 96.8904 456.572C96.3071 456.987 95.6061 457.194 94.7875 457.194ZM94.7875 455.638C95.4238 455.638 95.926 455.325 96.2939 454.698C96.6651 454.068 96.8507 453.142 96.8507 451.919C96.8507 451.11 96.7662 450.431 96.5971 449.881C96.4281 449.33 96.1895 448.916 95.8812 448.638C95.573 448.356 95.2084 448.215 94.7875 448.215C94.1544 448.215 93.6539 448.53 93.286 449.16C92.9181 449.786 92.7325 450.706 92.7292 451.919C92.7259 452.731 92.8071 453.414 92.9728 453.967C93.1419 454.521 93.3805 454.938 93.6887 455.22C93.997 455.499 94.3632 455.638 94.7875 455.638ZM105.806 455.091V454.554C105.806 454.16 105.889 453.797 106.054 453.465C106.223 453.134 106.469 452.867 106.79 452.665C107.112 452.463 107.501 452.362 107.958 452.362C108.429 452.362 108.824 452.463 109.142 452.665C109.46 452.864 109.7 453.129 109.863 453.46C110.028 453.792 110.111 454.156 110.111 454.554V455.091C110.111 455.485 110.028 455.848 109.863 456.18C109.697 456.511 109.453 456.778 109.132 456.98C108.814 457.182 108.422 457.283 107.958 457.283C107.494 457.283 107.102 457.182 106.78 456.98C106.459 456.778 106.215 456.511 106.049 456.18C105.887 455.848 105.806 455.485 105.806 455.091ZM107.103 454.554V455.091C107.103 455.353 107.166 455.593 107.292 455.812C107.418 456.031 107.64 456.14 107.958 456.14C108.28 456.14 108.5 456.032 108.62 455.817C108.742 455.598 108.804 455.356 108.804 455.091V454.554C108.804 454.289 108.746 454.047 108.63 453.828C108.514 453.606 108.29 453.495 107.958 453.495C107.647 453.495 107.426 453.606 107.297 453.828C107.168 454.047 107.103 454.289 107.103 454.554ZM100.63 449.264V448.727C100.63 448.33 100.715 447.965 100.884 447.634C101.053 447.302 101.298 447.037 101.62 446.838C101.941 446.636 102.331 446.535 102.788 446.535C103.255 446.535 103.648 446.636 103.966 446.838C104.288 447.037 104.53 447.302 104.692 447.634C104.855 447.965 104.936 448.33 104.936 448.727V449.264C104.936 449.662 104.853 450.027 104.687 450.358C104.525 450.686 104.283 450.95 103.961 451.148C103.64 451.347 103.249 451.447 102.788 451.447C102.321 451.447 101.926 451.347 101.605 451.148C101.287 450.95 101.045 450.684 100.879 450.353C100.713 450.022 100.63 449.659 100.63 449.264ZM101.938 448.727V449.264C101.938 449.529 101.999 449.771 102.122 449.99C102.248 450.205 102.47 450.313 102.788 450.313C103.106 450.313 103.325 450.205 103.444 449.99C103.567 449.771 103.628 449.529 103.628 449.264V448.727C103.628 448.462 103.57 448.22 103.454 448.001C103.338 447.779 103.116 447.668 102.788 447.668C102.473 447.668 102.253 447.779 102.127 448.001C102.001 448.223 101.938 448.465 101.938 448.727ZM101.197 457L108.197 446.818H109.44L102.44 457H101.197Z" fill="#3D1F1A"/>
<path d="M81.7209 392.111V390.644L86.0412 383.818H87.2642V385.906H86.5185L83.6101 390.515V390.594H89.6406V392.111H81.7209ZM86.5781 394V391.663L86.598 391.007V383.818H88.3381V394H86.5781ZM94.9925 394.194C94.1739 394.194 93.4712 393.987 92.8846 393.572C92.3013 393.155 91.8522 392.553 91.5373 391.768C91.2257 390.979 91.07 390.029 91.07 388.919C91.0733 387.809 91.2307 386.864 91.5423 386.085C91.8571 385.303 92.3062 384.706 92.8896 384.295C93.4762 383.884 94.1772 383.679 94.9925 383.679C95.8079 383.679 96.5089 383.884 97.0955 384.295C97.6822 384.706 98.1313 385.303 98.4428 386.085C98.7577 386.867 98.9151 387.812 98.9151 388.919C98.9151 390.033 98.7577 390.984 98.4428 391.773C98.1313 392.558 97.6822 393.158 97.0955 393.572C96.5122 393.987 95.8112 394.194 94.9925 394.194ZM94.9925 392.638C95.6289 392.638 96.131 392.325 96.4989 391.698C96.8701 391.068 97.0558 390.142 97.0558 388.919C97.0558 388.11 96.9712 387.431 96.8022 386.881C96.6332 386.33 96.3945 385.916 96.0863 385.638C95.7781 385.356 95.4135 385.215 94.9925 385.215C94.3595 385.215 93.859 385.53 93.4911 386.16C93.1232 386.786 92.9376 387.706 92.9343 388.919C92.931 389.731 93.0122 390.414 93.1779 390.967C93.3469 391.521 93.5856 391.938 93.8938 392.22C94.2021 392.499 94.5683 392.638 94.9925 392.638ZM106.011 392.091V391.554C106.011 391.16 106.094 390.797 106.259 390.465C106.428 390.134 106.674 389.867 106.995 389.665C107.317 389.463 107.706 389.362 108.164 389.362C108.634 389.362 109.029 389.463 109.347 389.665C109.665 389.864 109.905 390.129 110.068 390.46C110.233 390.792 110.316 391.156 110.316 391.554V392.091C110.316 392.485 110.233 392.848 110.068 393.18C109.902 393.511 109.658 393.778 109.337 393.98C109.019 394.182 108.628 394.283 108.164 394.283C107.7 394.283 107.307 394.182 106.985 393.98C106.664 393.778 106.42 393.511 106.254 393.18C106.092 392.848 106.011 392.485 106.011 392.091ZM107.308 391.554V392.091C107.308 392.353 107.371 392.593 107.497 392.812C107.623 393.031 107.845 393.14 108.164 393.14C108.485 393.14 108.705 393.032 108.825 392.817C108.947 392.598 109.009 392.356 109.009 392.091V391.554C109.009 391.289 108.951 391.047 108.835 390.828C108.719 390.606 108.495 390.495 108.164 390.495C107.852 390.495 107.632 390.606 107.502 390.828C107.373 391.047 107.308 391.289 107.308 391.554ZM100.835 386.264V385.727C100.835 385.33 100.92 384.965 101.089 384.634C101.258 384.302 101.503 384.037 101.825 383.838C102.146 383.636 102.536 383.535 102.993 383.535C103.46 383.535 103.853 383.636 104.171 383.838C104.493 384.037 104.735 384.302 104.897 384.634C105.06 384.965 105.141 385.33 105.141 385.727V386.264C105.141 386.662 105.058 387.027 104.892 387.358C104.73 387.686 104.488 387.95 104.166 388.148C103.845 388.347 103.454 388.447 102.993 388.447C102.526 388.447 102.131 388.347 101.81 388.148C101.492 387.95 101.25 387.684 101.084 387.353C100.918 387.022 100.835 386.659 100.835 386.264ZM102.143 385.727V386.264C102.143 386.529 102.204 386.771 102.327 386.99C102.453 387.205 102.675 387.313 102.993 387.313C103.311 387.313 103.53 387.205 103.649 386.99C103.772 386.771 103.833 386.529 103.833 386.264V385.727C103.833 385.462 103.775 385.22 103.659 385.001C103.543 384.779 103.321 384.668 102.993 384.668C102.678 384.668 102.458 384.779 102.332 385.001C102.206 385.223 102.143 385.465 102.143 385.727ZM101.402 394L108.402 383.818H109.645L102.645 394H101.402Z" fill="#3D1F1A"/>
<path d="M85.4446 330.139C84.7817 330.139 84.1884 330.015 83.6648 329.766C83.1411 329.514 82.7251 329.17 82.4169 328.732C82.112 328.295 81.9496 327.794 81.9297 327.231H83.7195C83.7526 327.648 83.9332 327.99 84.2614 328.255C84.5895 328.517 84.9839 328.648 85.4446 328.648C85.8059 328.648 86.1274 328.565 86.4091 328.399C86.6908 328.233 86.9129 328.003 87.0753 327.708C87.2377 327.413 87.3172 327.077 87.3139 326.699C87.3172 326.314 87.236 325.973 87.0703 325.675C86.9046 325.376 86.6776 325.143 86.3892 324.974C86.1009 324.801 85.7694 324.715 85.3949 324.715C85.09 324.712 84.79 324.768 84.495 324.884C84.2 325 83.9664 325.153 83.794 325.342L82.1286 325.068L82.6605 319.818H88.5668V321.359H84.1868L83.8935 324.059H83.9531C84.142 323.837 84.4089 323.653 84.7536 323.507C85.0982 323.358 85.4761 323.283 85.8871 323.283C86.5036 323.283 87.0537 323.429 87.5376 323.721C88.0215 324.009 88.4027 324.407 88.6811 324.914C88.9595 325.421 89.0987 326.001 89.0987 326.654C89.0987 327.327 88.9429 327.927 88.6314 328.454C88.3232 328.978 87.8939 329.39 87.3438 329.692C86.7969 329.99 86.1638 330.139 85.4446 330.139ZM94.5277 330.194C93.709 330.194 93.0064 329.987 92.4197 329.572C91.8364 329.155 91.3873 328.553 91.0724 327.768C90.7609 326.979 90.6051 326.029 90.6051 324.919C90.6084 323.809 90.7659 322.864 91.0774 322.085C91.3923 321.303 91.8414 320.706 92.4247 320.295C93.0114 319.884 93.7124 319.679 94.5277 319.679C95.343 319.679 96.044 319.884 96.6307 320.295C97.2173 320.706 97.6664 321.303 97.978 322.085C98.2929 322.867 98.4503 323.812 98.4503 324.919C98.4503 326.033 98.2929 326.984 97.978 327.773C97.6664 328.558 97.2173 329.158 96.6307 329.572C96.0473 329.987 95.3464 330.194 94.5277 330.194ZM94.5277 328.638C95.1641 328.638 95.6662 328.325 96.0341 327.698C96.4053 327.068 96.5909 326.142 96.5909 324.919C96.5909 324.11 96.5064 323.431 96.3374 322.881C96.1683 322.33 95.9297 321.916 95.6214 321.638C95.3132 321.356 94.9486 321.215 94.5277 321.215C93.8946 321.215 93.3942 321.53 93.0263 322.16C92.6584 322.786 92.4728 323.706 92.4695 324.919C92.4661 325.731 92.5473 326.414 92.7131 326.967C92.8821 327.521 93.1207 327.938 93.429 328.22C93.7372 328.499 94.1035 328.638 94.5277 328.638ZM105.546 328.091V327.554C105.546 327.16 105.629 326.797 105.795 326.465C105.964 326.134 106.209 325.867 106.53 325.665C106.852 325.463 107.241 325.362 107.699 325.362C108.169 325.362 108.564 325.463 108.882 325.665C109.2 325.864 109.44 326.129 109.603 326.46C109.769 326.792 109.851 327.156 109.851 327.554V328.091C109.851 328.485 109.769 328.848 109.603 329.18C109.437 329.511 109.193 329.778 108.872 329.98C108.554 330.182 108.163 330.283 107.699 330.283C107.235 330.283 106.842 330.182 106.52 329.98C106.199 329.778 105.955 329.511 105.79 329.18C105.627 328.848 105.546 328.485 105.546 328.091ZM106.844 327.554V328.091C106.844 328.353 106.907 328.593 107.032 328.812C107.158 329.031 107.381 329.14 107.699 329.14C108.02 329.14 108.241 329.032 108.36 328.817C108.483 328.598 108.544 328.356 108.544 328.091V327.554C108.544 327.289 108.486 327.047 108.37 326.828C108.254 326.606 108.03 326.495 107.699 326.495C107.387 326.495 107.167 326.606 107.037 326.828C106.908 327.047 106.844 327.289 106.844 327.554ZM100.371 322.264V321.727C100.371 321.33 100.455 320.965 100.624 320.634C100.793 320.302 101.038 320.037 101.36 319.838C101.681 319.636 102.071 319.535 102.528 319.535C102.996 319.535 103.388 319.636 103.706 319.838C104.028 320.037 104.27 320.302 104.432 320.634C104.595 320.965 104.676 321.33 104.676 321.727V322.264C104.676 322.662 104.593 323.027 104.427 323.358C104.265 323.686 104.023 323.95 103.702 324.148C103.38 324.347 102.989 324.447 102.528 324.447C102.061 324.447 101.666 324.347 101.345 324.148C101.027 323.95 100.785 323.684 100.619 323.353C100.453 323.022 100.371 322.659 100.371 322.264ZM101.678 321.727V322.264C101.678 322.529 101.739 322.771 101.862 322.99C101.988 323.205 102.21 323.313 102.528 323.313C102.846 323.313 103.065 323.205 103.184 322.99C103.307 322.771 103.368 322.529 103.368 322.264V321.727C103.368 321.462 103.31 321.22 103.194 321.001C103.078 320.779 102.856 320.668 102.528 320.668C102.213 320.668 101.993 320.779 101.867 321.001C101.741 321.223 101.678 321.465 101.678 321.727ZM100.937 330L107.937 319.818H109.18L102.18 330H100.937Z" fill="#3D1F1A"/>
<path d="M85.6335 267.139C85.1463 267.136 84.6707 267.051 84.2067 266.886C83.7427 266.717 83.325 266.443 82.9538 266.065C82.5826 265.684 82.2876 265.179 82.0689 264.549C81.8501 263.916 81.7424 263.132 81.7457 262.197C81.7457 261.326 81.8385 260.549 82.0241 259.866C82.2098 259.183 82.4766 258.606 82.8246 258.136C83.1726 257.662 83.5919 257.3 84.0824 257.052C84.5762 256.803 85.1281 256.679 85.7379 256.679C86.3776 256.679 86.9444 256.805 87.4382 257.057C87.9354 257.309 88.3364 257.653 88.6413 258.091C88.9463 258.525 89.1352 259.016 89.2081 259.562H87.3935C87.3007 259.171 87.1101 258.86 86.8217 258.628C86.5367 258.393 86.1754 258.275 85.7379 258.275C85.032 258.275 84.4884 258.581 84.1072 259.195C83.7294 259.808 83.5388 260.65 83.5355 261.72H83.6051C83.7675 261.429 83.978 261.178 84.2365 260.969C84.495 260.761 84.7867 260.6 85.1115 260.487C85.4396 260.371 85.786 260.313 86.1506 260.313C86.7472 260.313 87.2824 260.456 87.7564 260.741C88.2337 261.026 88.6115 261.419 88.8899 261.919C89.1683 262.416 89.3059 262.986 89.3026 263.629C89.3059 264.299 89.1534 264.9 88.8452 265.434C88.5369 265.964 88.1077 266.382 87.5575 266.687C87.0073 266.992 86.366 267.143 85.6335 267.139ZM85.6236 265.648C85.9848 265.648 86.308 265.56 86.593 265.384C86.8781 265.209 87.1035 264.972 87.2692 264.673C87.4349 264.375 87.5161 264.04 87.5128 263.669C87.5161 263.304 87.4366 262.975 87.2741 262.68C87.1151 262.385 86.8946 262.151 86.6129 261.979C86.3312 261.806 86.0097 261.72 85.6484 261.72C85.38 261.72 85.1297 261.772 84.8977 261.874C84.6657 261.977 84.4635 262.12 84.2912 262.302C84.1188 262.481 83.983 262.69 83.8835 262.928C83.7874 263.164 83.7377 263.415 83.7344 263.684C83.7377 264.039 83.8205 264.365 83.983 264.663C84.1454 264.962 84.3691 265.2 84.6541 265.379C84.9392 265.558 85.2623 265.648 85.6236 265.648ZM94.7464 267.194C93.9278 267.194 93.2251 266.987 92.6385 266.572C92.0552 266.155 91.6061 265.553 91.2912 264.768C90.9796 263.979 90.8239 263.029 90.8239 261.919C90.8272 260.809 90.9846 259.864 91.2962 259.085C91.611 258.303 92.0601 257.706 92.6435 257.295C93.2301 256.884 93.9311 256.679 94.7464 256.679C95.5618 256.679 96.2628 256.884 96.8494 257.295C97.4361 257.706 97.8852 258.303 98.1967 259.085C98.5116 259.867 98.669 260.812 98.669 261.919C98.669 263.033 98.5116 263.984 98.1967 264.773C97.8852 265.558 97.4361 266.158 96.8494 266.572C96.2661 266.987 95.5651 267.194 94.7464 267.194ZM94.7464 265.638C95.3828 265.638 95.8849 265.325 96.2528 264.698C96.6241 264.068 96.8097 263.142 96.8097 261.919C96.8097 261.11 96.7251 260.431 96.5561 259.881C96.3871 259.33 96.1484 258.916 95.8402 258.638C95.532 258.356 95.1674 258.215 94.7464 258.215C94.1134 258.215 93.6129 258.53 93.245 259.16C92.8771 259.786 92.6915 260.706 92.6882 261.919C92.6849 262.731 92.7661 263.414 92.9318 263.967C93.1009 264.521 93.3395 264.938 93.6477 265.22C93.956 265.499 94.3222 265.638 94.7464 265.638ZM105.765 265.091V264.554C105.765 264.16 105.848 263.797 106.013 263.465C106.182 263.134 106.428 262.867 106.749 262.665C107.071 262.463 107.46 262.362 107.917 262.362C108.388 262.362 108.782 262.463 109.101 262.665C109.419 262.864 109.659 263.129 109.822 263.46C109.987 263.792 110.07 264.156 110.07 264.554V265.091C110.07 265.485 109.987 265.848 109.822 266.18C109.656 266.511 109.412 266.778 109.091 266.98C108.773 267.182 108.381 267.283 107.917 267.283C107.453 267.283 107.061 267.182 106.739 266.98C106.418 266.778 106.174 266.511 106.008 266.18C105.846 265.848 105.765 265.485 105.765 265.091ZM107.062 264.554V265.091C107.062 265.353 107.125 265.593 107.251 265.812C107.377 266.031 107.599 266.14 107.917 266.14C108.239 266.14 108.459 266.032 108.579 265.817C108.701 265.598 108.763 265.356 108.763 265.091V264.554C108.763 264.289 108.705 264.047 108.589 263.828C108.473 263.606 108.249 263.495 107.917 263.495C107.606 263.495 107.385 263.606 107.256 263.828C107.127 264.047 107.062 264.289 107.062 264.554ZM100.589 259.264V258.727C100.589 258.33 100.674 257.965 100.843 257.634C101.012 257.302 101.257 257.037 101.579 256.838C101.9 256.636 102.29 256.535 102.747 256.535C103.214 256.535 103.607 256.636 103.925 256.838C104.247 257.037 104.489 257.302 104.651 257.634C104.814 257.965 104.895 258.33 104.895 258.727V259.264C104.895 259.662 104.812 260.027 104.646 260.358C104.484 260.686 104.242 260.95 103.92 261.148C103.599 261.347 103.208 261.447 102.747 261.447C102.28 261.447 101.885 261.347 101.564 261.148C101.246 260.95 101.004 260.684 100.838 260.353C100.672 260.022 100.589 259.659 100.589 259.264ZM101.897 258.727V259.264C101.897 259.529 101.958 259.771 102.081 259.99C102.207 260.205 102.429 260.313 102.747 260.313C103.065 260.313 103.284 260.205 103.403 259.99C103.526 259.771 103.587 259.529 103.587 259.264V258.727C103.587 258.462 103.529 258.22 103.413 258.001C103.297 257.779 103.075 257.668 102.747 257.668C102.432 257.668 102.212 257.779 102.086 258.001C101.96 258.223 101.897 258.465 101.897 258.727ZM101.156 267L108.156 256.818H109.399L102.399 267H101.156Z" fill="#3D1F1A"/>
<path d="M82.2777 204L86.608 195.429V195.359H81.5817V193.818H88.517V195.394L84.1918 204H82.2777ZM93.6664 204.194C92.8477 204.194 92.1451 203.987 91.5584 203.572C90.9751 203.155 90.526 202.553 90.2111 201.768C89.8996 200.979 89.7438 200.029 89.7438 198.919C89.7471 197.809 89.9045 196.864 90.2161 196.085C90.531 195.303 90.9801 194.706 91.5634 194.295C92.15 193.884 92.851 193.679 93.6664 193.679C94.4817 193.679 95.1827 193.884 95.7694 194.295C96.356 194.706 96.8051 195.303 97.1167 196.085C97.4315 196.867 97.589 197.812 97.589 198.919C97.589 200.033 97.4315 200.984 97.1167 201.773C96.8051 202.558 96.356 203.158 95.7694 203.572C95.186 203.987 94.485 204.194 93.6664 204.194ZM93.6664 202.638C94.3027 202.638 94.8049 202.325 95.1728 201.698C95.544 201.068 95.7296 200.142 95.7296 198.919C95.7296 198.11 95.6451 197.431 95.476 196.881C95.307 196.33 95.0684 195.916 94.7601 195.638C94.4519 195.356 94.0873 195.215 93.6664 195.215C93.0333 195.215 92.5328 195.53 92.165 196.16C91.7971 196.786 91.6114 197.706 91.6081 198.919C91.6048 199.731 91.686 200.414 91.8517 200.967C92.0208 201.521 92.2594 201.938 92.5676 202.22C92.8759 202.499 93.2421 202.638 93.6664 202.638ZM104.685 202.091V201.554C104.685 201.16 104.768 200.797 104.933 200.465C105.102 200.134 105.348 199.867 105.669 199.665C105.991 199.463 106.38 199.362 106.837 199.362C107.308 199.362 107.702 199.463 108.021 199.665C108.339 199.864 108.579 200.129 108.741 200.46C108.907 200.792 108.99 201.156 108.99 201.554V202.091C108.99 202.485 108.907 202.848 108.741 203.18C108.576 203.511 108.332 203.778 108.011 203.98C107.692 204.182 107.301 204.283 106.837 204.283C106.373 204.283 105.981 204.182 105.659 203.98C105.338 203.778 105.094 203.511 104.928 203.18C104.766 202.848 104.685 202.485 104.685 202.091ZM105.982 201.554V202.091C105.982 202.353 106.045 202.593 106.171 202.812C106.297 203.031 106.519 203.14 106.837 203.14C107.159 203.14 107.379 203.032 107.499 202.817C107.621 202.598 107.683 202.356 107.683 202.091V201.554C107.683 201.289 107.625 201.047 107.509 200.828C107.393 200.606 107.169 200.495 106.837 200.495C106.526 200.495 106.305 200.606 106.176 200.828C106.047 201.047 105.982 201.289 105.982 201.554ZM99.5092 196.264V195.727C99.5092 195.33 99.5938 194.965 99.7628 194.634C99.9318 194.302 100.177 194.037 100.499 193.838C100.82 193.636 101.21 193.535 101.667 193.535C102.134 193.535 102.527 193.636 102.845 193.838C103.167 194.037 103.409 194.302 103.571 194.634C103.733 194.965 103.815 195.33 103.815 195.727V196.264C103.815 196.662 103.732 197.027 103.566 197.358C103.404 197.686 103.162 197.95 102.84 198.148C102.519 198.347 102.128 198.447 101.667 198.447C101.2 198.447 100.805 198.347 100.484 198.148C100.165 197.95 99.9235 197.684 99.7578 197.353C99.5921 197.022 99.5092 196.659 99.5092 196.264ZM100.817 195.727V196.264C100.817 196.529 100.878 196.771 101.001 196.99C101.127 197.205 101.349 197.313 101.667 197.313C101.985 197.313 102.204 197.205 102.323 196.99C102.446 196.771 102.507 196.529 102.507 196.264V195.727C102.507 195.462 102.449 195.22 102.333 195.001C102.217 194.779 101.995 194.668 101.667 194.668C101.352 194.668 101.132 194.779 101.006 195.001C100.88 195.223 100.817 195.465 100.817 195.727ZM100.076 204L107.076 193.818H108.319L101.319 204H100.076Z" fill="#3D1F1A"/>
<path d="M85.5241 138.139C84.785 138.139 84.1288 138.015 83.5554 137.766C82.9853 137.518 82.5379 137.178 82.2131 136.747C81.8916 136.313 81.7325 135.821 81.7358 135.271C81.7325 134.843 81.8253 134.45 82.0142 134.092C82.2031 133.734 82.4583 133.436 82.7798 133.197C83.1046 132.955 83.4659 132.801 83.8636 132.735V132.665C83.34 132.549 82.9157 132.283 82.5909 131.865C82.2694 131.444 82.1103 130.959 82.1136 130.408C82.1103 129.885 82.2562 129.417 82.5511 129.006C82.8461 128.595 83.2505 128.272 83.7642 128.037C84.2779 127.798 84.8646 127.679 85.5241 127.679C86.1771 127.679 86.7588 127.798 87.2692 128.037C87.7829 128.272 88.1873 128.595 88.4822 129.006C88.7805 129.417 88.9297 129.885 88.9297 130.408C88.9297 130.959 88.7656 131.444 88.4375 131.865C88.1127 132.283 87.6934 132.549 87.1797 132.665V132.735C87.5774 132.801 87.9354 132.955 88.2536 133.197C88.575 133.436 88.8303 133.734 89.0192 134.092C89.2114 134.45 89.3075 134.843 89.3075 135.271C89.3075 135.821 89.1451 136.313 88.8203 136.747C88.4955 137.178 88.0481 137.518 87.478 137.766C86.9112 138.015 86.2599 138.139 85.5241 138.139ZM85.5241 136.717C85.9053 136.717 86.2367 136.653 86.5185 136.523C86.8002 136.391 87.0189 136.205 87.1747 135.967C87.3305 135.728 87.41 135.453 87.4134 135.141C87.41 134.817 87.3255 134.53 87.1598 134.281C86.9974 134.029 86.7737 133.832 86.4886 133.69C86.2069 133.547 85.8854 133.476 85.5241 133.476C85.1596 133.476 84.8348 133.547 84.5497 133.69C84.2647 133.832 84.0393 134.029 83.8736 134.281C83.7112 134.53 83.6316 134.817 83.6349 135.141C83.6316 135.453 83.7079 135.728 83.8636 135.967C84.0194 136.202 84.2382 136.386 84.5199 136.518C84.8049 136.651 85.1397 136.717 85.5241 136.717ZM85.5241 132.079C85.8357 132.079 86.1108 132.016 86.3494 131.89C86.5914 131.764 86.782 131.588 86.9212 131.363C87.0604 131.138 87.1316 130.877 87.1349 130.582C87.1316 130.291 87.062 130.036 86.9261 129.817C86.7902 129.595 86.6013 129.424 86.3594 129.305C86.1174 129.182 85.839 129.121 85.5241 129.121C85.2027 129.121 84.9193 129.182 84.674 129.305C84.4321 129.424 84.2431 129.595 84.1072 129.817C83.9747 130.036 83.91 130.291 83.9134 130.582C83.91 130.877 83.9763 131.138 84.1122 131.363C84.2514 131.585 84.442 131.761 84.6839 131.89C84.9292 132.016 85.2093 132.079 85.5241 132.079ZM94.7054 138.194C93.8868 138.194 93.1841 137.987 92.5975 137.572C92.0141 137.155 91.565 136.553 91.2502 135.768C90.9386 134.979 90.7828 134.029 90.7828 132.919C90.7862 131.809 90.9436 130.864 91.2551 130.085C91.57 129.303 92.0191 128.706 92.6025 128.295C93.1891 127.884 93.8901 127.679 94.7054 127.679C95.5208 127.679 96.2218 127.884 96.8084 128.295C97.3951 128.706 97.8442 129.303 98.1557 130.085C98.4706 130.867 98.628 131.812 98.628 132.919C98.628 134.033 98.4706 134.984 98.1557 135.773C97.8442 136.558 97.3951 137.158 96.8084 137.572C96.2251 137.987 95.5241 138.194 94.7054 138.194ZM94.7054 136.638C95.3418 136.638 95.8439 136.325 96.2118 135.698C96.583 135.068 96.7686 134.142 96.7686 132.919C96.7686 132.11 96.6841 131.431 96.5151 130.881C96.3461 130.33 96.1074 129.916 95.7992 129.638C95.4909 129.356 95.1264 129.215 94.7054 129.215C94.0724 129.215 93.5719 129.53 93.204 130.16C92.8361 130.786 92.6505 131.706 92.6472 132.919C92.6439 133.731 92.7251 134.414 92.8908 134.967C93.0598 135.521 93.2985 135.938 93.6067 136.22C93.915 136.499 94.2812 136.638 94.7054 136.638ZM105.724 136.091V135.554C105.724 135.16 105.807 134.797 105.972 134.465C106.141 134.134 106.387 133.867 106.708 133.665C107.03 133.463 107.419 133.362 107.876 133.362C108.347 133.362 108.741 133.463 109.06 133.665C109.378 133.864 109.618 134.129 109.781 134.46C109.946 134.792 110.029 135.156 110.029 135.554V136.091C110.029 136.485 109.946 136.848 109.781 137.18C109.615 137.511 109.371 137.778 109.05 137.98C108.732 138.182 108.34 138.283 107.876 138.283C107.412 138.283 107.02 138.182 106.698 137.98C106.377 137.778 106.133 137.511 105.967 137.18C105.805 136.848 105.724 136.485 105.724 136.091ZM107.021 135.554V136.091C107.021 136.353 107.084 136.593 107.21 136.812C107.336 137.031 107.558 137.14 107.876 137.14C108.198 137.14 108.418 137.032 108.538 136.817C108.66 136.598 108.722 136.356 108.722 136.091V135.554C108.722 135.289 108.664 135.047 108.548 134.828C108.432 134.606 108.208 134.495 107.876 134.495C107.565 134.495 107.344 134.606 107.215 134.828C107.086 135.047 107.021 135.289 107.021 135.554ZM100.548 130.264V129.727C100.548 129.33 100.633 128.965 100.802 128.634C100.971 128.302 101.216 128.037 101.538 127.838C101.859 127.636 102.249 127.535 102.706 127.535C103.173 127.535 103.566 127.636 103.884 127.838C104.206 128.037 104.448 128.302 104.61 128.634C104.772 128.965 104.854 129.33 104.854 129.727V130.264C104.854 130.662 104.771 131.027 104.605 131.358C104.443 131.686 104.201 131.95 103.879 132.148C103.558 132.347 103.167 132.447 102.706 132.447C102.239 132.447 101.844 132.347 101.523 132.148C101.205 131.95 100.963 131.684 100.797 131.353C100.631 131.022 100.548 130.659 100.548 130.264ZM101.856 129.727V130.264C101.856 130.529 101.917 130.771 102.04 130.99C102.166 131.205 102.388 131.313 102.706 131.313C103.024 131.313 103.243 131.205 103.362 130.99C103.485 130.771 103.546 130.529 103.546 130.264V129.727C103.546 129.462 103.488 129.22 103.372 129.001C103.256 128.779 103.034 128.668 102.706 128.668C102.391 128.668 102.171 128.779 102.045 129.001C101.919 129.223 101.856 129.465 101.856 129.727ZM101.115 138L108.115 127.818H109.358L102.358 138H101.115Z" fill="#3D1F1A"/>
<path d="M85.4396 64.679C85.9268 64.6823 86.4008 64.7685 86.8615 64.9375C87.3255 65.1032 87.7431 65.375 88.1143 65.7528C88.4856 66.1274 88.7805 66.6295 88.9993 67.2592C89.218 67.889 89.3274 68.6679 89.3274 69.5959C89.3307 70.4709 89.2379 71.2531 89.049 71.9425C88.8634 72.6286 88.5966 73.2086 88.2486 73.6825C87.9006 74.1565 87.4813 74.5178 86.9908 74.7663C86.5002 75.0149 85.9484 75.1392 85.3352 75.1392C84.6922 75.1392 84.1222 75.0133 83.625 74.7614C83.1312 74.5095 82.7318 74.1648 82.4268 73.7273C82.1219 73.2898 81.9347 72.7893 81.8651 72.2259H83.6797C83.7725 72.6302 83.9614 72.9517 84.2464 73.1903C84.5348 73.4257 84.8977 73.5433 85.3352 73.5433C86.0412 73.5433 86.5848 73.2367 86.9659 72.6236C87.3471 72.0104 87.5376 71.1586 87.5376 70.0682H87.468C87.3056 70.3598 87.0952 70.6117 86.8366 70.8239C86.5781 71.0327 86.2848 71.1934 85.9567 71.3061C85.6319 71.4188 85.2872 71.4751 84.9226 71.4751C84.326 71.4751 83.7891 71.3326 83.3118 71.0476C82.8378 70.7625 82.4616 70.3714 82.1832 69.8743C81.9081 69.3771 81.7689 68.8087 81.7656 68.169C81.7656 67.5062 81.9181 66.9112 82.223 66.3842C82.5313 65.8539 82.9605 65.4363 83.5107 65.1314C84.0608 64.8232 84.7038 64.6723 85.4396 64.679ZM85.4446 66.1705C85.0866 66.1705 84.7635 66.2583 84.4751 66.4339C84.1901 66.6063 83.9647 66.8416 83.799 67.1399C83.6366 67.4349 83.5554 67.7647 83.5554 68.1293C83.5587 68.4905 83.6399 68.8187 83.799 69.1136C83.9614 69.4086 84.1818 69.6423 84.4602 69.8146C84.742 69.987 85.0634 70.0732 85.4247 70.0732C85.6932 70.0732 85.9434 70.0218 86.1754 69.919C86.4074 69.8163 86.6096 69.6738 86.782 69.4915C86.9576 69.3059 87.0935 69.0954 87.1896 68.8601C87.2891 68.6248 87.3371 68.3762 87.3338 68.1143C87.3338 67.7663 87.2509 67.4448 87.0852 67.1499C86.9228 66.8549 86.6991 66.6179 86.4141 66.4389C86.1323 66.2599 85.8092 66.1705 85.4446 66.1705ZM94.7464 75.1939C93.9278 75.1939 93.2251 74.9867 92.6385 74.5724C92.0552 74.1548 91.6061 73.5533 91.2912 72.7678C90.9796 71.9789 90.8239 71.0294 90.8239 69.919C90.8272 68.8087 90.9846 67.8641 91.2962 67.0852C91.611 66.303 92.0601 65.7064 92.6435 65.2955C93.2301 64.8845 93.9311 64.679 94.7464 64.679C95.5618 64.679 96.2628 64.8845 96.8494 65.2955C97.4361 65.7064 97.8852 66.303 98.1967 67.0852C98.5116 67.8674 98.669 68.812 98.669 69.919C98.669 71.0327 98.5116 71.9839 98.1967 72.7727C97.8852 73.5582 97.4361 74.1581 96.8494 74.5724C96.2661 74.9867 95.5651 75.1939 94.7464 75.1939ZM94.7464 73.6378C95.3828 73.6378 95.8849 73.3246 96.2528 72.6982C96.6241 72.0684 96.8097 71.142 96.8097 69.919C96.8097 69.1103 96.7251 68.4309 96.5561 67.8807C96.3871 67.3305 96.1484 66.9162 95.8402 66.6378C95.532 66.3561 95.1674 66.2152 94.7464 66.2152C94.1134 66.2152 93.6129 66.5301 93.245 67.1598C92.8771 67.7862 92.6915 68.706 92.6882 69.919C92.6849 70.7311 92.7661 71.4138 92.9318 71.9673C93.1009 72.5208 93.3395 72.9384 93.6477 73.2202C93.956 73.4986 94.3222 73.6378 94.7464 73.6378ZM105.765 73.0909V72.554C105.765 72.1596 105.848 71.7966 106.013 71.4652C106.182 71.1338 106.428 70.867 106.749 70.6648C107.071 70.4626 107.46 70.3615 107.917 70.3615C108.388 70.3615 108.782 70.4626 109.101 70.6648C109.419 70.8636 109.659 71.1288 109.822 71.4602C109.987 71.7917 110.07 72.1562 110.07 72.554V73.0909C110.07 73.4853 109.987 73.8482 109.822 74.1797C109.656 74.5111 109.412 74.7779 109.091 74.9801C108.773 75.1823 108.381 75.2834 107.917 75.2834C107.453 75.2834 107.061 75.1823 106.739 74.9801C106.418 74.7779 106.174 74.5111 106.008 74.1797C105.846 73.8482 105.765 73.4853 105.765 73.0909ZM107.062 72.554V73.0909C107.062 73.3527 107.125 73.593 107.251 73.8118C107.377 74.0305 107.599 74.1399 107.917 74.1399C108.239 74.1399 108.459 74.0322 108.579 73.8168C108.701 73.598 108.763 73.3561 108.763 73.0909V72.554C108.763 72.2888 108.705 72.0469 108.589 71.8281C108.473 71.6061 108.249 71.495 107.917 71.495C107.606 71.495 107.385 71.6061 107.256 71.8281C107.127 72.0469 107.062 72.2888 107.062 72.554ZM100.589 67.2642V66.7273C100.589 66.3295 100.674 65.965 100.843 65.6335C101.012 65.3021 101.257 65.0369 101.579 64.8381C101.9 64.6359 102.29 64.5348 102.747 64.5348C103.214 64.5348 103.607 64.6359 103.925 64.8381C104.247 65.0369 104.489 65.3021 104.651 65.6335C104.814 65.965 104.895 66.3295 104.895 66.7273V67.2642C104.895 67.6619 104.812 68.0265 104.646 68.358C104.484 68.6861 104.242 68.9496 103.92 69.1484C103.599 69.3473 103.208 69.4467 102.747 69.4467C102.28 69.4467 101.885 69.3473 101.564 69.1484C101.246 68.9496 101.004 68.6844 100.838 68.353C100.672 68.0215 100.589 67.6586 100.589 67.2642ZM101.897 66.7273V67.2642C101.897 67.5294 101.958 67.7713 102.081 67.9901C102.207 68.2055 102.429 68.3132 102.747 68.3132C103.065 68.3132 103.284 68.2055 103.403 67.9901C103.526 67.7713 103.587 67.5294 103.587 67.2642V66.7273C103.587 66.4621 103.529 66.2202 103.413 66.0014C103.297 65.7794 103.075 65.6683 102.747 65.6683C102.432 65.6683 102.212 65.7794 102.086 66.0014C101.96 66.2235 101.897 66.4654 101.897 66.7273ZM101.156 75L108.156 64.8182H109.399L102.399 75H101.156Z" fill="#3D1F1A"/>
<path d="M86.0462 1.81818V12H84.2017V3.61293H84.142L81.7607 5.13423V3.44389L84.2912 1.81818H86.0462ZM92.3949 12.1939C91.5762 12.1939 90.8736 11.9867 90.2869 11.5724C89.7036 11.1548 89.2545 10.5533 88.9396 9.76776C88.6281 8.97893 88.4723 8.02936 88.4723 6.91903C88.4756 5.80871 88.633 4.86411 88.9446 4.08523C89.2595 3.30303 89.7086 2.70644 90.2919 2.29545C90.8786 1.88447 91.5795 1.67898 92.3949 1.67898C93.2102 1.67898 93.9112 1.88447 94.4979 2.29545C95.0845 2.70644 95.5336 3.30303 95.8452 4.08523C96.16 4.86742 96.3175 5.81203 96.3175 6.91903C96.3175 8.03267 96.16 8.9839 95.8452 9.77273C95.5336 10.5582 95.0845 11.1581 94.4979 11.5724C93.9145 11.9867 93.2135 12.1939 92.3949 12.1939ZM92.3949 10.6378C93.0313 10.6378 93.5334 10.3246 93.9013 9.69815C94.2725 9.06842 94.4581 8.14205 94.4581 6.91903C94.4581 6.11032 94.3736 5.43087 94.2045 4.88068C94.0355 4.33049 93.7969 3.91619 93.4886 3.63778C93.1804 3.35606 92.8158 3.2152 92.3949 3.2152C91.7618 3.2152 91.2614 3.53007 90.8935 4.1598C90.5256 4.78622 90.34 5.70597 90.3366 6.91903C90.3333 7.73106 90.4145 8.41383 90.5803 8.96733C90.7493 9.52083 90.9879 9.93845 91.2962 10.2202C91.6044 10.4986 91.9706 10.6378 92.3949 10.6378ZM101.733 12.1939C100.914 12.1939 100.211 11.9867 99.6248 11.5724C99.0415 11.1548 98.5924 10.5533 98.2775 9.76776C97.966 8.97893 97.8102 8.02936 97.8102 6.91903C97.8135 5.80871 97.9709 4.86411 98.2825 4.08523C98.5974 3.30303 99.0465 2.70644 99.6298 2.29545C100.216 1.88447 100.917 1.67898 101.733 1.67898C102.548 1.67898 103.249 1.88447 103.836 2.29545C104.422 2.70644 104.872 3.30303 105.183 4.08523C105.498 4.86742 105.655 5.81203 105.655 6.91903C105.655 8.03267 105.498 8.9839 105.183 9.77273C104.872 10.5582 104.422 11.1581 103.836 11.5724C103.252 11.9867 102.551 12.1939 101.733 12.1939ZM101.733 10.6378C102.369 10.6378 102.871 10.3246 103.239 9.69815C103.61 9.06842 103.796 8.14205 103.796 6.91903C103.796 6.11032 103.711 5.43087 103.542 4.88068C103.373 4.33049 103.135 3.91619 102.827 3.63778C102.518 3.35606 102.154 3.2152 101.733 3.2152C101.1 3.2152 100.599 3.53007 100.231 4.1598C99.8635 4.78622 99.6779 5.70597 99.6745 6.91903C99.6712 7.73106 99.7524 8.41383 99.9181 8.96733C100.087 9.52083 100.326 9.93845 100.634 10.2202C100.942 10.4986 101.309 10.6378 101.733 10.6378ZM112.751 10.0909V9.55398C112.751 9.15956 112.834 8.79664 113 8.4652C113.169 8.13376 113.414 7.86695 113.735 7.66477C114.057 7.46259 114.446 7.36151 114.904 7.36151C115.374 7.36151 115.769 7.46259 116.087 7.66477C116.405 7.86364 116.645 8.12879 116.808 8.46023C116.974 8.79167 117.056 9.15625 117.056 9.55398V10.0909C117.056 10.4853 116.974 10.8482 116.808 11.1797C116.642 11.5111 116.399 11.7779 116.077 11.9801C115.759 12.1823 115.368 12.2834 114.904 12.2834C114.44 12.2834 114.047 12.1823 113.725 11.9801C113.404 11.7779 113.16 11.5111 112.995 11.1797C112.832 10.8482 112.751 10.4853 112.751 10.0909ZM114.049 9.55398V10.0909C114.049 10.3527 114.112 10.593 114.238 10.8118C114.364 11.0305 114.586 11.1399 114.904 11.1399C115.225 11.1399 115.446 11.0322 115.565 10.8168C115.688 10.598 115.749 10.3561 115.749 10.0909V9.55398C115.749 9.28883 115.691 9.04688 115.575 8.82812C115.459 8.60606 115.235 8.49503 114.904 8.49503C114.592 8.49503 114.372 8.60606 114.243 8.82812C114.113 9.04688 114.049 9.28883 114.049 9.55398ZM107.576 4.2642V3.72727C107.576 3.32955 107.66 2.96496 107.829 2.63352C107.998 2.30208 108.243 2.03693 108.565 1.83807C108.886 1.63589 109.276 1.5348 109.733 1.5348C110.201 1.5348 110.593 1.63589 110.912 1.83807C111.233 2.03693 111.475 2.30208 111.637 2.63352C111.8 2.96496 111.881 3.32955 111.881 3.72727V4.2642C111.881 4.66193 111.798 5.02651 111.632 5.35795C111.47 5.68608 111.228 5.94957 110.907 6.14844C110.585 6.3473 110.194 6.44673 109.733 6.44673C109.266 6.44673 108.872 6.3473 108.55 6.14844C108.232 5.94957 107.99 5.68442 107.824 5.35298C107.658 5.02154 107.576 4.65862 107.576 4.2642ZM108.883 3.72727V4.2642C108.883 4.52936 108.944 4.77131 109.067 4.99006C109.193 5.20549 109.415 5.31321 109.733 5.31321C110.051 5.31321 110.27 5.20549 110.39 4.99006C110.512 4.77131 110.574 4.52936 110.574 4.2642V3.72727C110.574 3.46212 110.516 3.22017 110.4 3.00142C110.283 2.77936 110.061 2.66832 109.733 2.66832C109.418 2.66832 109.198 2.77936 109.072 3.00142C108.946 3.22348 108.883 3.46544 108.883 3.72727ZM108.142 12L115.142 1.81818H116.385L109.385 12H108.142Z" fill="#3D1F1A"/>
<path d="M0 646L0 647H65V646H0Z" fill="#3D1F1A"/>
<path d="M20 391V392H65V391H20Z" fill="#3D1F1A"/>
<path d="M20 200V201H65V200H20Z" fill="#3D1F1A"/>
<path d="M20 455V456H65V455H20Z" fill="#3D1F1A"/>
<path d="M20 582V583H65V582H20Z" fill="#3D1F1A"/>
<path d="M20 328V329H65V328H20Z" fill="#3D1F1A"/>
<path d="M20 136V137H65V136H20Z" fill="#3D1F1A"/>
<path d="M20 519V520H65V519H20Z" fill="#3D1F1A"/>
<path d="M20 264V265H65V264H20Z" fill="#3D1F1A"/>
<path d="M20 73V74H65V73H20Z" fill="#3D1F1A"/>
<path d="M0 9L0 10L65 10V9L0 9Z" fill="#3D1F1A"/>
<path d="M47 442V443H65V442H47Z" fill="#3D1F1A"/>
<path d="M47 429V430H65V429H47Z" fill="#3D1F1A"/>
<path d="M47 417V418H65V417H47Z" fill="#3D1F1A"/>
<path d="M47 404V405H65V404H47Z" fill="#3D1F1A"/>
<path d="M47 633V634H65V633H47Z" fill="#3D1F1A"/>
<path d="M47 378V379H65V378H47Z" fill="#3D1F1A"/>
<path d="M47 187V188H65V187H47Z" fill="#3D1F1A"/>
<path d="M47 621V622H65V621H47Z" fill="#3D1F1A"/>
<path d="M47 366V367H65V366H47Z" fill="#3D1F1A"/>
<path d="M47 175V176H65V175H47Z" fill="#3D1F1A"/>
<path d="M47 608V609H65V608H47Z" fill="#3D1F1A"/>
<path d="M47 353V354H65V353H47Z" fill="#3D1F1A"/>
<path d="M47 162V163H65V162H47Z" fill="#3D1F1A"/>
<path d="M47 595V596H65V595H47Z" fill="#3D1F1A"/>
<path d="M47 340V341H65V340H47Z" fill="#3D1F1A"/>
<path d="M47 149V150H65V149H47Z" fill="#3D1F1A"/>
<path d="M47 570V571H65V570H47Z" fill="#3D1F1A"/>
<path d="M47 315V316H65V315H47Z" fill="#3D1F1A"/>
<path d="M47 124V125H65V124H47Z" fill="#3D1F1A"/>
<path d="M47 557V558H65V557H47Z" fill="#3D1F1A"/>
<path d="M47 302V303H65V302H47Z" fill="#3D1F1A"/>
<path d="M47 111V112H65V111H47Z" fill="#3D1F1A"/>
<path d="M47 544V545H65V544H47Z" fill="#3D1F1A"/>
<path d="M47 289V290H65V289H47Z" fill="#3D1F1A"/>
<path d="M47 98V99H65V98H47Z" fill="#3D1F1A"/>
<path d="M47 531V532H65V531H47Z" fill="#3D1F1A"/>
<path d="M47 277V278H65V277H47Z" fill="#3D1F1A"/>
<path d="M47 85V86H65V85H47Z" fill="#3D1F1A"/>
<path d="M47 506V507H65V506H47Z" fill="#3D1F1A"/>
<path d="M47 251V252H65V251H47Z" fill="#3D1F1A"/>
<path d="M47 60V61H65V60H47Z" fill="#3D1F1A"/>
<path d="M47 493V494H65V493H47Z" fill="#3D1F1A"/>
<path d="M47 238V239H65V238H47Z" fill="#3D1F1A"/>
<path d="M47 47V48H65V47H47Z" fill="#3D1F1A"/>
<path d="M47 480V481H65V480H47Z" fill="#3D1F1A"/>
<path d="M47 226V227H65V226H47Z" fill="#3D1F1A"/>
<path d="M47 34V35H65V34H47Z" fill="#3D1F1A"/>
<path d="M47 468V469H65V468H47Z" fill="#3D1F1A"/>
<path d="M47 213V214H65V213H47Z" fill="#3D1F1A"/>
<path d="M47 22V23L65 23V22L47 22Z" fill="#3D1F1A"/>
</svg>
