<svg width="389" height="90" viewBox="0 0 389 90" fill="none" xmlns="http://www.w3.org/2000/svg">
<path d="M20.9716 11.1307C20.8352 9.75568 20.25 8.6875 19.2159 7.92614C18.1818 7.16477 16.7784 6.78409 15.0057 6.78409C13.8011 6.78409 12.7841 6.95454 11.9545 7.29545C11.125 7.625 10.4886 8.08523 10.0455 8.67614C9.61364 9.26705 9.39773 9.9375 9.39773 10.6875C9.375 11.3125 9.50568 11.858 9.78977 12.3239C10.0852 12.7898 10.4886 13.1932 11 13.5341C11.5114 13.8636 12.1023 14.1534 12.7727 14.4034C13.4432 14.642 14.1591 14.8466 14.9205 15.017L18.0568 15.767C19.5795 16.108 20.9773 16.5625 22.25 17.1307C23.5227 17.6989 24.625 18.3977 25.5568 19.2273C26.4886 20.0568 27.2102 21.0341 27.7216 22.1591C28.2443 23.2841 28.5114 24.5739 28.5227 26.0284C28.5114 28.1648 27.9659 30.017 26.8864 31.5852C25.8182 33.142 24.2727 34.3523 22.25 35.2159C20.2386 36.0682 17.8125 36.4943 14.9716 36.4943C12.1534 36.4943 9.69886 36.0625 7.60795 35.1989C5.52841 34.3352 3.90341 33.0568 2.73295 31.3636C1.57386 29.6591 0.965909 27.5511 0.909091 25.0398H8.05114C8.13068 26.2102 8.46591 27.1875 9.05682 27.9716C9.65909 28.7443 10.4602 29.3295 11.4602 29.7273C12.4716 30.1136 13.6136 30.3068 14.8864 30.3068C16.1364 30.3068 17.2216 30.125 18.142 29.7614C19.0739 29.3977 19.7955 28.892 20.3068 28.2443C20.8182 27.5966 21.0739 26.8523 21.0739 26.0114C21.0739 25.2273 20.8409 24.5682 20.375 24.0341C19.9205 23.5 19.25 23.0455 18.3636 22.6705C17.4886 22.2955 16.4148 21.9545 15.142 21.6477L11.3409 20.6932C8.39773 19.9773 6.07386 18.858 4.36932 17.3352C2.66477 15.8125 1.81818 13.7614 1.82955 11.1818C1.81818 9.06818 2.38068 7.22159 3.51705 5.64205C4.66477 4.0625 6.23864 2.82955 8.23864 1.94318C10.2386 1.05682 12.5114 0.613635 15.0568 0.613635C17.6477 0.613635 19.9091 1.05682 21.8409 1.94318C23.7841 2.82955 25.2955 4.0625 26.375 5.64205C27.4545 7.22159 28.0114 9.05114 28.0455 11.1307H20.9716ZM44.4522 20.8636V36H37.1909V1.09091H44.2477V14.4375H44.5545C45.1454 12.892 46.0999 11.6818 47.4181 10.8068C48.7363 9.92045 50.3897 9.47727 52.3784 9.47727C54.1965 9.47727 55.7818 9.875 57.134 10.6705C58.4977 11.4545 59.5545 12.5852 60.3045 14.0625C61.0659 15.5284 61.4409 17.2841 61.4295 19.3295V36H54.1681V20.625C54.1795 19.0114 53.7704 17.7557 52.9409 16.858C52.1227 15.9602 50.9749 15.5114 49.4977 15.5114C48.509 15.5114 47.634 15.7216 46.8727 16.142C46.1227 16.5625 45.5318 17.1761 45.0999 17.983C44.6795 18.7784 44.4636 19.7386 44.4522 20.8636ZM78.4499 36.4943C76.7794 36.4943 75.2908 36.2045 73.984 35.625C72.6772 35.0341 71.6431 34.1648 70.8817 33.017C70.1317 31.858 69.7567 30.4148 69.7567 28.6875C69.7567 27.233 70.0238 26.0114 70.5578 25.0227C71.0919 24.0341 71.8192 23.2386 72.7397 22.6364C73.6601 22.0341 74.7056 21.5795 75.876 21.2727C77.0578 20.9659 78.2965 20.75 79.5919 20.625C81.1147 20.4659 82.3419 20.3182 83.2738 20.1818C84.2056 20.0341 84.8817 19.8182 85.3022 19.5341C85.7226 19.25 85.9328 18.8295 85.9328 18.2727V18.1705C85.9328 17.0909 85.5919 16.2557 84.9101 15.6648C84.2397 15.0739 83.2851 14.7784 82.0465 14.7784C80.7397 14.7784 79.6999 15.0682 78.9272 15.6477C78.1544 16.2159 77.6431 16.9318 77.3931 17.7955L70.6772 17.25C71.0181 15.6591 71.6885 14.2841 72.6885 13.125C73.6885 11.9545 74.9783 11.0568 76.5578 10.4318C78.1488 9.79545 79.9897 9.47727 82.0806 9.47727C83.5351 9.47727 84.9272 9.64773 86.2567 9.98864C87.5976 10.3295 88.7851 10.858 89.8192 11.5739C90.8647 12.2898 91.6885 13.2102 92.2908 14.3352C92.8931 15.4489 93.1942 16.7841 93.1942 18.3409V36H86.3078V32.3693H86.1033C85.6828 33.1875 85.1203 33.9091 84.4158 34.5341C83.7113 35.1477 82.8647 35.6307 81.876 35.983C80.8874 36.3239 79.7453 36.4943 78.4499 36.4943ZM80.5294 31.483C81.5976 31.483 82.5408 31.2727 83.359 30.8523C84.1772 30.4205 84.8192 29.8409 85.2851 29.1136C85.751 28.3864 85.984 27.5625 85.984 26.642V23.8636C85.7567 24.0114 85.4442 24.1477 85.0465 24.2727C84.6601 24.3864 84.2226 24.4943 83.734 24.5966C83.2453 24.6875 82.7567 24.7727 82.2681 24.8523C81.7794 24.9205 81.3363 24.983 80.9385 25.0398C80.0863 25.1648 79.3419 25.3636 78.7056 25.6364C78.0692 25.9091 77.5749 26.2784 77.2226 26.7443C76.8703 27.1989 76.6942 27.767 76.6942 28.4489C76.6942 29.4375 77.0522 30.1932 77.7681 30.7159C78.4953 31.2273 79.4158 31.483 80.5294 31.483ZM109.929 1.09091V36H102.668V1.09091H109.929ZM126.847 1.09091V36H119.586V1.09091H126.847ZM156.618 36L149.493 9.81818H156.84L160.897 27.4091H161.135L165.362 9.81818H172.573L176.868 27.3068H177.09L181.078 9.81818H188.408L181.3 36H173.612L169.112 19.5341H168.789L164.289 36H156.618ZM207.397 36.5114C204.704 36.5114 202.386 35.9659 200.443 34.875C198.511 33.7727 197.022 32.2159 195.977 30.2045C194.931 28.1818 194.408 25.7898 194.408 23.0284C194.408 20.3352 194.931 17.9716 195.977 15.9375C197.022 13.9034 198.494 12.3182 200.391 11.1818C202.3 10.0455 204.539 9.47727 207.107 9.47727C208.835 9.47727 210.443 9.75568 211.931 10.3125C213.431 10.858 214.738 11.6818 215.852 12.7841C216.977 13.8864 217.852 15.2727 218.477 16.9432C219.102 18.6023 219.414 20.5455 219.414 22.7727V24.767H197.306V20.267H212.579C212.579 19.2216 212.352 18.2955 211.897 17.4886C211.443 16.6818 210.812 16.0511 210.005 15.5966C209.21 15.1307 208.283 14.8977 207.227 14.8977C206.124 14.8977 205.147 15.1534 204.295 15.6648C203.454 16.1648 202.795 16.8409 202.318 17.6932C201.84 18.5341 201.596 19.4716 201.585 20.5057V24.7841C201.585 26.0795 201.823 27.1989 202.3 28.142C202.789 29.0852 203.477 29.8125 204.363 30.3239C205.249 30.8352 206.3 31.0909 207.516 31.0909C208.323 31.0909 209.062 30.9773 209.732 30.75C210.403 30.5227 210.977 30.1818 211.454 29.7273C211.931 29.2727 212.295 28.7159 212.545 28.0568L219.261 28.5C218.92 30.1136 218.221 31.5227 217.164 32.7273C216.119 33.9205 214.766 34.8523 213.107 35.5227C211.46 36.1818 209.556 36.5114 207.397 36.5114ZM243.078 36V1.09091H250.34V14.2159H250.561C250.88 13.5114 251.34 12.7955 251.942 12.0682C252.556 11.3295 253.351 10.7159 254.328 10.2273C255.317 9.72727 256.544 9.47727 258.01 9.47727C259.919 9.47727 261.681 9.97727 263.294 10.9773C264.908 11.9659 266.198 13.4602 267.164 15.4602C268.13 17.4489 268.613 19.9432 268.613 22.9432C268.613 25.8636 268.141 28.3295 267.198 30.3409C266.266 32.3409 264.993 33.858 263.38 34.892C261.777 35.9148 259.982 36.4261 257.993 36.4261C256.584 36.4261 255.385 36.1932 254.397 35.7273C253.419 35.2614 252.618 34.6761 251.993 33.9716C251.368 33.2557 250.891 32.5341 250.561 31.8068H250.238V36H243.078ZM250.186 22.9091C250.186 24.4659 250.402 25.8239 250.834 26.983C251.266 28.142 251.891 29.0455 252.709 29.6932C253.527 30.3295 254.522 30.6477 255.692 30.6477C256.874 30.6477 257.874 30.3239 258.692 29.6761C259.51 29.017 260.13 28.108 260.55 26.9489C260.982 25.7784 261.198 24.4318 261.198 22.9091C261.198 21.3977 260.988 20.0682 260.567 18.9205C260.147 17.7727 259.527 16.875 258.709 16.2273C257.891 15.5795 256.885 15.2557 255.692 15.2557C254.51 15.2557 253.51 15.5682 252.692 16.1932C251.885 16.8182 251.266 17.7045 250.834 18.8523C250.402 20 250.186 21.3523 250.186 22.9091ZM277.298 36V9.81818H284.337V14.3864H284.61C285.087 12.7614 285.889 11.5341 287.014 10.7045C288.139 9.86364 289.434 9.44318 290.9 9.44318C291.264 9.44318 291.656 9.46591 292.076 9.51136C292.497 9.55682 292.866 9.61932 293.184 9.69886V16.142C292.843 16.0398 292.372 15.9489 291.769 15.8693C291.167 15.7898 290.616 15.75 290.116 15.75C289.048 15.75 288.093 15.983 287.252 16.4489C286.423 16.9034 285.764 17.5398 285.275 18.358C284.798 19.1761 284.559 20.1193 284.559 21.1875V36H277.298ZM311.491 36.5114C308.798 36.5114 306.48 35.9659 304.537 34.875C302.605 33.7727 301.116 32.2159 300.071 30.2045C299.026 28.1818 298.503 25.7898 298.503 23.0284C298.503 20.3352 299.026 17.9716 300.071 15.9375C301.116 13.9034 302.588 12.3182 304.486 11.1818C306.395 10.0455 308.633 9.47727 311.202 9.47727C312.929 9.47727 314.537 9.75568 316.026 10.3125C317.526 10.858 318.832 11.6818 319.946 12.7841C321.071 13.8864 321.946 15.2727 322.571 16.9432C323.196 18.6023 323.508 20.5455 323.508 22.7727V24.767H301.401V20.267H316.673C316.673 19.2216 316.446 18.2955 315.991 17.4886C315.537 16.6818 314.906 16.0511 314.099 15.5966C313.304 15.1307 312.378 14.8977 311.321 14.8977C310.219 14.8977 309.241 15.1534 308.389 15.6648C307.548 16.1648 306.889 16.8409 306.412 17.6932C305.935 18.5341 305.69 19.4716 305.679 20.5057V24.7841C305.679 26.0795 305.918 27.1989 306.395 28.142C306.883 29.0852 307.571 29.8125 308.457 30.3239C309.344 30.8352 310.395 31.0909 311.611 31.0909C312.418 31.0909 313.156 30.9773 313.827 30.75C314.497 30.5227 315.071 30.1818 315.548 29.7273C316.026 29.2727 316.389 28.7159 316.639 28.0568L323.355 28.5C323.014 30.1136 322.315 31.5227 321.258 32.7273C320.213 33.9205 318.861 34.8523 317.202 35.5227C315.554 36.1818 313.651 36.5114 311.491 36.5114ZM339.553 36.4943C337.883 36.4943 336.394 36.2045 335.087 35.625C333.78 35.0341 332.746 34.1648 331.985 33.017C331.235 31.858 330.86 30.4148 330.86 28.6875C330.86 27.233 331.127 26.0114 331.661 25.0227C332.195 24.0341 332.922 23.2386 333.843 22.6364C334.763 22.0341 335.809 21.5795 336.979 21.2727C338.161 20.9659 339.4 20.75 340.695 20.625C342.218 20.4659 343.445 20.3182 344.377 20.1818C345.309 20.0341 345.985 19.8182 346.405 19.5341C346.826 19.25 347.036 18.8295 347.036 18.2727V18.1705C347.036 17.0909 346.695 16.2557 346.013 15.6648C345.343 15.0739 344.388 14.7784 343.15 14.7784C341.843 14.7784 340.803 15.0682 340.03 15.6477C339.258 16.2159 338.746 16.9318 338.496 17.7955L331.78 17.25C332.121 15.6591 332.792 14.2841 333.792 13.125C334.792 11.9545 336.081 11.0568 337.661 10.4318C339.252 9.79545 341.093 9.47727 343.184 9.47727C344.638 9.47727 346.03 9.64773 347.36 9.98864C348.701 10.3295 349.888 10.858 350.922 11.5739C351.968 12.2898 352.792 13.2102 353.394 14.3352C353.996 15.4489 354.297 16.7841 354.297 18.3409V36H347.411V32.3693H347.206C346.786 33.1875 346.223 33.9091 345.519 34.5341C344.814 35.1477 343.968 35.6307 342.979 35.983C341.99 36.3239 340.848 36.4943 339.553 36.4943ZM341.633 31.483C342.701 31.483 343.644 31.2727 344.462 30.8523C345.28 30.4205 345.922 29.8409 346.388 29.1136C346.854 28.3864 347.087 27.5625 347.087 26.642V23.8636C346.86 24.0114 346.547 24.1477 346.15 24.2727C345.763 24.3864 345.326 24.4943 344.837 24.5966C344.348 24.6875 343.86 24.7727 343.371 24.8523C342.883 24.9205 342.439 24.983 342.042 25.0398C341.189 25.1648 340.445 25.3636 339.809 25.6364C339.172 25.9091 338.678 26.2784 338.326 26.7443C337.973 27.1989 337.797 27.767 337.797 28.4489C337.797 29.4375 338.155 30.1932 338.871 30.7159C339.598 31.2273 340.519 31.483 341.633 31.483ZM370.35 28.4659L370.367 19.7557H371.424L379.811 9.81818H388.146L376.879 22.9773H375.157L370.35 28.4659ZM363.771 36V1.09091H371.032V36H363.771ZM380.135 36L372.43 24.5966L377.271 19.4659L388.64 36H380.135ZM1.89773 89V62.8182H9.15909V89H1.89773ZM5.54545 59.4432C4.46591 59.4432 3.53977 59.0852 2.76705 58.3693C2.00568 57.642 1.625 56.7727 1.625 55.7614C1.625 54.7614 2.00568 53.9034 2.76705 53.1875C3.53977 52.4602 4.46591 52.0966 5.54545 52.0966C6.625 52.0966 7.54545 52.4602 8.30682 53.1875C9.07955 53.9034 9.46591 54.7614 9.46591 55.7614C9.46591 56.7727 9.07955 57.642 8.30682 58.3693C7.54545 59.0852 6.625 59.4432 5.54545 59.4432ZM32.742 62.8182V68.2727H16.9749V62.8182H32.742ZM20.5545 56.5455H27.8159V80.9545C27.8159 81.625 27.9181 82.1477 28.1227 82.5227C28.3272 82.8864 28.6113 83.142 28.9749 83.2898C29.3499 83.4375 29.7818 83.5114 30.2704 83.5114C30.6113 83.5114 30.9522 83.483 31.2931 83.4261C31.634 83.358 31.8954 83.3068 32.0772 83.2727L33.2193 88.6761C32.8556 88.7898 32.3443 88.9205 31.6852 89.0682C31.0261 89.2273 30.2249 89.3239 29.2818 89.358C27.5318 89.4261 25.9977 89.1932 24.6795 88.6591C23.3727 88.125 22.3556 87.2955 21.6284 86.1705C20.9011 85.0455 20.5431 83.625 20.5545 81.9091V56.5455ZM65.9092 89.4261C63.9206 89.4261 62.1194 88.9148 60.5058 87.892C58.9035 86.858 57.6308 85.3409 56.6876 83.3409C55.7558 81.3295 55.2899 78.8636 55.2899 75.9432C55.2899 72.9432 55.7728 70.4489 56.7388 68.4602C57.7047 66.4602 58.9888 64.9659 60.591 63.9773C62.2047 62.9773 63.9717 62.4773 65.8922 62.4773C67.3581 62.4773 68.5797 62.7273 69.5569 63.2273C70.5456 63.7159 71.341 64.3295 71.9433 65.0682C72.5569 65.7955 73.0228 66.5114 73.341 67.2159H73.5626V54.0909H80.8069V89H73.6478V84.8068H73.341C73.0001 85.5341 72.5172 86.2557 71.8922 86.9716C71.2785 87.6761 70.4774 88.2614 69.4888 88.7273C68.5115 89.1932 67.3183 89.4261 65.9092 89.4261ZM68.2103 83.6477C69.3808 83.6477 70.3694 83.3295 71.1763 82.6932C71.9944 82.0455 72.6194 81.142 73.0513 79.983C73.4944 78.8239 73.716 77.4659 73.716 75.9091C73.716 74.3523 73.5001 73 73.0683 71.8523C72.6365 70.7045 72.0115 69.8182 71.1933 69.1932C70.3751 68.5682 69.3808 68.2557 68.2103 68.2557C67.0172 68.2557 66.0115 68.5795 65.1933 69.2273C64.3751 69.875 63.7558 70.7727 63.3353 71.9205C62.9149 73.0682 62.7047 74.3977 62.7047 75.9091C62.7047 77.4318 62.9149 78.7784 63.3353 79.9489C63.7672 81.108 64.3865 82.017 65.1933 82.6761C66.0115 83.3239 67.0172 83.6477 68.2103 83.6477ZM102.447 89.5114C99.7989 89.5114 97.5091 88.9489 95.5773 87.8239C93.6569 86.6875 92.1739 85.108 91.1285 83.0852C90.083 81.0511 89.5603 78.6932 89.5603 76.0114C89.5603 73.3068 90.083 70.9432 91.1285 68.9205C92.1739 66.8864 93.6569 65.3068 95.5773 64.1818C97.5091 63.0455 99.7989 62.4773 102.447 62.4773C105.094 62.4773 107.378 63.0455 109.299 64.1818C111.231 65.3068 112.719 66.8864 113.765 68.9205C114.81 70.9432 115.333 73.3068 115.333 76.0114C115.333 78.6932 114.81 81.0511 113.765 83.0852C112.719 85.108 111.231 86.6875 109.299 87.8239C107.378 88.9489 105.094 89.5114 102.447 89.5114ZM102.481 83.8864C103.685 83.8864 104.691 83.5455 105.498 82.8636C106.305 82.1705 106.913 81.2273 107.322 80.0341C107.742 78.8409 107.952 77.483 107.952 75.9602C107.952 74.4375 107.742 73.0795 107.322 71.8864C106.913 70.6932 106.305 69.75 105.498 69.0568C104.691 68.3636 103.685 68.017 102.481 68.017C101.265 68.017 100.242 68.3636 99.4126 69.0568C98.5944 69.75 97.9751 70.6932 97.5546 71.8864C97.1455 73.0795 96.941 74.4375 96.941 75.9602C96.941 77.483 97.1455 78.8409 97.5546 80.0341C97.9751 81.2273 98.5944 82.1705 99.4126 82.8636C100.242 83.5455 101.265 83.8864 102.481 83.8864ZM128.403 89L121.278 62.8182H128.625L132.682 80.4091H132.92L137.147 62.8182H144.358L148.653 80.3068H148.875L152.863 62.8182H160.193L153.085 89H145.397L140.897 72.5341H140.574L136.074 89H128.403ZM175.168 73.8636V89H167.906V62.8182H174.827V67.4375H175.134C175.713 65.9148 176.685 64.7102 178.049 63.8239C179.412 62.9261 181.066 62.4773 183.009 62.4773C184.827 62.4773 186.412 62.875 187.764 63.6705C189.117 64.4659 190.168 65.6023 190.918 67.0795C191.668 68.5455 192.043 70.2955 192.043 72.3295V89H184.781V73.625C184.793 72.0227 184.384 70.7727 183.554 69.875C182.725 68.9659 181.583 68.5114 180.128 68.5114C179.151 68.5114 178.287 68.7216 177.537 69.142C176.799 69.5625 176.219 70.1761 175.799 70.983C175.389 71.7784 175.179 72.7386 175.168 73.8636ZM207.844 78.5341V77.9545C207.856 75.9659 208.032 74.3807 208.373 73.1989C208.725 72.017 209.237 71.0625 209.907 70.3352C210.577 69.608 211.384 68.9489 212.327 68.358C213.032 67.9034 213.663 67.4318 214.219 66.9432C214.776 66.4545 215.219 65.9148 215.549 65.3239C215.879 64.7216 216.043 64.0511 216.043 63.3125C216.043 62.5284 215.856 61.8409 215.481 61.25C215.106 60.6591 214.6 60.2045 213.964 59.8864C213.339 59.5682 212.646 59.4091 211.884 59.4091C211.146 59.4091 210.447 59.5739 209.788 59.9034C209.129 60.2216 208.589 60.6989 208.168 61.3352C207.748 61.9602 207.521 62.7386 207.487 63.6705H200.532C200.589 61.3977 201.134 59.5227 202.168 58.0455C203.202 56.5568 204.572 55.4489 206.276 54.7216C207.981 53.983 209.862 53.6136 211.918 53.6136C214.18 53.6136 216.18 53.9886 217.918 54.7386C219.657 55.4773 221.021 56.5511 222.009 57.9602C222.998 59.3693 223.492 61.0682 223.492 63.0568C223.492 64.3864 223.271 65.5682 222.827 66.6023C222.396 67.625 221.788 68.5341 221.004 69.3295C220.219 70.1136 219.293 70.8239 218.225 71.4602C217.327 71.9943 216.589 72.5511 216.009 73.1307C215.441 73.7102 215.015 74.3807 214.731 75.142C214.458 75.9034 214.316 76.8409 214.305 77.9545V78.5341H207.844ZM211.219 89.4432C210.083 89.4432 209.112 89.0455 208.305 88.25C207.509 87.4432 207.117 86.4773 207.129 85.3523C207.117 84.2386 207.509 83.2841 208.305 82.4886C209.112 81.6932 210.083 81.2955 211.219 81.2955C212.299 81.2955 213.248 81.6932 214.066 82.4886C214.884 83.2841 215.299 84.2386 215.31 85.3523C215.299 86.1023 215.1 86.7898 214.714 87.4148C214.339 88.0284 213.844 88.5227 213.231 88.8977C212.617 89.2614 211.947 89.4432 211.219 89.4432Z" fill="#3D1F1A"/>
</svg>
