<svg width="272" height="134" viewBox="0 0 272 134" fill="none" xmlns="http://www.w3.org/2000/svg">
<path d="M0.078125 12.25V-1.66893e-06H48.75V12.25H31.9063V56H16.9219V12.25H0.078125ZM51.3917 56V-1.66893e-06H66.5948V21.875H86.7198V-1.66893e-06H101.923V56H86.7198V34.125H66.5948V56H51.3917ZM106.062 56V-1.66893e-06H146.421V12.25H121.265V21.875H144.343V34.125H121.265V43.75H146.312V56H106.062ZM31.7969 94.5C31.651 92.6771 30.9674 91.2552 29.7461 90.2344C28.543 89.2135 26.7109 88.7031 24.25 88.7031C22.6823 88.7031 21.3971 88.8945 20.3945 89.2773C19.4102 89.6419 18.681 90.1432 18.207 90.7812C17.7331 91.4193 17.487 92.1484 17.4687 92.9687C17.4323 93.6432 17.5508 94.2539 17.8242 94.8008C18.1159 95.3294 18.5716 95.8125 19.1914 96.25C19.8112 96.6693 20.6042 97.0521 21.5703 97.3984C22.5365 97.7448 23.6849 98.0547 25.0156 98.3281L29.6094 99.3125C32.7083 99.9687 35.3607 100.835 37.5664 101.91C39.7721 102.986 41.5768 104.253 42.9805 105.711C44.3841 107.151 45.4141 108.773 46.0703 110.578C46.7448 112.383 47.0911 114.352 47.1094 116.484C47.0911 120.167 46.1706 123.284 44.3477 125.836C42.5247 128.388 39.918 130.329 36.5273 131.66C33.1549 132.991 29.099 133.656 24.3594 133.656C19.4922 133.656 15.2448 132.936 11.6172 131.496C8.00781 130.056 5.20052 127.841 3.19531 124.852C1.20833 121.844 0.205729 117.997 0.1875 113.313H14.625C14.7161 115.026 15.1445 116.466 15.9102 117.633C16.6758 118.799 17.7513 119.684 19.1367 120.285C20.5404 120.887 22.2083 121.187 24.1406 121.187C25.763 121.187 27.1211 120.987 28.2148 120.586C29.3086 120.185 30.138 119.629 30.7031 118.918C31.2682 118.207 31.5599 117.396 31.5781 116.484C31.5599 115.628 31.2773 114.88 30.7305 114.242C30.2018 113.586 29.3268 113.003 28.1055 112.492C26.8841 111.964 25.2344 111.471 23.1563 111.016L17.5781 109.812C12.6198 108.737 8.70964 106.941 5.84766 104.426C3.00391 101.892 1.59115 98.4375 1.60938 94.0625C1.59115 90.5078 2.53906 87.3997 4.45313 84.7383C6.38542 82.0586 9.05599 79.9714 12.4648 78.4766C15.8919 76.9818 19.8203 76.2344 24.25 76.2344C28.7708 76.2344 32.681 76.9909 35.9805 78.5039C39.2799 80.0169 41.8229 82.1497 43.6094 84.9023C45.4141 87.6367 46.3255 90.8359 46.3438 94.5H31.7969ZM49.8126 133V77H65.0157V98.875H85.1407V77H100.344V133H85.1407V111.125H65.0157V133H49.8126ZM119.029 133H102.623L121.108 77H141.889L160.373 133H143.967L131.717 92.4219H131.279L119.029 133ZM115.967 110.906H146.811V122.281H115.967V110.906ZM162.687 133V77H186.859C191.015 77 194.652 77.8203 197.769 79.4609C200.886 81.1016 203.31 83.4076 205.042 86.3789C206.774 89.3503 207.64 92.8229 207.64 96.7969C207.64 100.807 206.747 104.28 204.96 107.215C203.192 110.15 200.704 112.41 197.495 113.996C194.305 115.582 190.577 116.375 186.312 116.375H171.874V104.562H183.249C185.036 104.562 186.558 104.253 187.816 103.633C189.092 102.995 190.067 102.092 190.741 100.926C191.434 99.7591 191.781 98.3828 191.781 96.7969C191.781 95.1927 191.434 93.8255 190.741 92.6953C190.067 91.5469 189.092 90.6719 187.816 90.0703C186.558 89.4505 185.036 89.1406 183.249 89.1406H177.89V133H162.687ZM210.138 133V77H250.497V89.25H225.341V98.875H248.419V111.125H225.341V120.75H250.388V133H210.138ZM263.379 133.875C261.265 133.875 259.451 133.137 257.938 131.66C256.443 130.165 255.705 128.352 255.723 126.219C255.705 124.141 256.443 122.363 257.938 120.887C259.451 119.41 261.265 118.672 263.379 118.672C265.385 118.672 267.153 119.41 268.684 120.887C270.233 122.363 271.017 124.141 271.036 126.219C271.017 127.641 270.644 128.935 269.914 130.102C269.204 131.25 268.274 132.171 267.125 132.863C265.977 133.538 264.728 133.875 263.379 133.875Z" fill="#3E2522"/>
</svg>
