<svg width="83" height="92" viewBox="0 0 83 92" fill="none" xmlns="http://www.w3.org/2000/svg">
<circle cx="42" cy="35" r="25" fill="#3D1F1A"/>
<path d="M39.1641 37.927C39.4314 37.9589 40.6828 38.1126 41.5225 39.1614L41.6709 39.3469C42.2296 40.163 42.3298 41.1537 42.2451 42.051C42.1549 43.0069 41.8623 43.7829 41.791 43.968C40.7507 46.6063 38.0923 47.4142 37.5771 47.554C36.505 47.6118 35.4312 47.67 34.3574 47.7278C33.6758 47.7645 32.9938 47.8005 32.3125 47.8372C32.5405 47.5395 32.7697 47.1916 32.9717 46.7883L32.9707 46.7874C33.4678 45.8011 33.5548 44.9968 33.5752 44.2522C33.5957 43.5037 33.5572 42.905 33.752 42.1614C34.057 41.0053 34.8449 39.8825 35.8613 39.0774C36.8162 38.3211 37.9244 37.8819 38.959 37.9143L39.1641 37.927Z" fill="#E8BDA5" stroke="#E8BDA5"/>
<path d="M53.8584 21.5254C54.1801 21.4703 54.3828 21.5066 54.5107 21.5957L54.5605 21.6367L54.5615 21.6377C54.6777 21.7489 54.7834 21.9714 54.8018 22.3379C54.8193 22.6884 54.752 23.1201 54.5889 23.5811C51.2445 29.6939 48.9799 33.41 47.459 35.5449C46.6945 36.618 46.1355 37.2671 45.7363 37.6201C45.5591 37.7768 45.4322 37.8558 45.3516 37.8936C45.3484 37.8861 45.3434 37.8781 45.3398 37.8691C45.2845 37.7299 45.2469 37.5769 45.1611 37.3076C45.0223 36.872 44.8061 36.3137 44.3311 35.7598L44.1113 35.5225C43.4722 34.8862 42.8168 34.643 42.3477 34.4688C41.8233 34.274 41.7404 34.2099 41.6982 34.0879H41.6963C41.6516 33.9436 41.6879 33.6889 41.9844 33.2344C42.201 32.9024 42.5054 32.5389 42.8633 32.1357L43.2383 31.7178L43.2393 31.7168C44.8485 29.927 46.4831 28.1328 48.0957 26.332L48.0947 26.3311C48.675 25.6838 49.1508 25.124 49.5625 24.6387C49.9766 24.1505 50.3212 23.7454 50.6523 23.3965C51.3015 22.7125 51.8845 22.2572 52.7695 21.8857C53.1135 21.743 53.498 21.5871 53.8584 21.5254Z" fill="#E8BDA5" stroke="#E8BDA5"/>
<path d="M24.3086 30.3823L32.721 39.2014Z" fill="#E8BDA5"/>
<path d="M24.3086 30.3823L32.721 39.2014" stroke="#E8BDA5" stroke-miterlimit="10" stroke-linecap="round"/>
<path d="M24 33.7656C26.6241 36.5165 29.2481 39.2674 31.8722 42.0183Z" fill="#E8BDA5"/>
<path d="M24 33.7656C26.6241 36.5165 29.2481 39.2674 31.8722 42.0183" stroke="#E8BDA5" stroke-miterlimit="10" stroke-linecap="round"/>
<path d="M24 37.4656C26.1891 39.7604 28.3851 42.0627 30.5742 44.3575Z" fill="#E8BDA5"/>
<path d="M24 37.4656C26.1891 39.7604 28.3851 42.0627 30.5742 44.3575" stroke="#E8BDA5" stroke-miterlimit="10" stroke-linecap="round"/>
<path d="M52.2832 39.0906C52.3842 39.0906 52.5059 39.1836 52.5059 39.3484C52.5058 39.513 52.3842 39.6062 52.2832 39.6062C52.1822 39.6062 52.0607 39.513 52.0605 39.3484C52.0605 39.1836 52.1822 39.0906 52.2832 39.0906Z" fill="#E8BDA5" stroke="#E8BDA5"/>
<path d="M48.6406 40.9666C48.7416 40.9666 48.8633 41.0596 48.8633 41.2244C48.8632 41.389 48.7416 41.4822 48.6406 41.4822C48.5397 41.4822 48.4181 41.389 48.418 41.2244C48.418 41.0596 48.5396 40.9666 48.6406 40.9666Z" fill="#E8BDA5" stroke="#E8BDA5"/>
<path d="M45.084 44.7251C45.185 44.7251 45.3066 44.8181 45.3066 44.9829C45.3065 45.1475 45.1849 45.2407 45.084 45.2407C44.983 45.2407 44.8614 45.1475 44.8613 44.9829C44.8613 44.8181 44.983 44.7251 45.084 44.7251Z" fill="#E8BDA5" stroke="#E8BDA5"/>
<path d="M43.3086 48.4248C43.4096 48.4248 43.5312 48.5178 43.5312 48.6826C43.5311 48.8473 43.4095 48.9404 43.3086 48.9404C43.2076 48.9404 43.086 48.8472 43.0859 48.6826C43.0859 48.5179 43.2076 48.4248 43.3086 48.4248Z" fill="#E8BDA5" stroke="#E8BDA5"/>
<path d="M50.4297 48.3145C50.5307 48.3145 50.6523 48.4075 50.6523 48.5723C50.6522 48.7369 50.5306 48.8301 50.4297 48.8301C50.3287 48.8301 50.2071 48.7369 50.207 48.5723C50.207 48.4075 50.3287 48.3145 50.4297 48.3145Z" fill="#E8BDA5" stroke="#E8BDA5"/>
<path d="M50.4102 44.6733C50.5112 44.6733 50.6328 44.7664 50.6328 44.9312C50.6327 45.0958 50.5111 45.189 50.4102 45.189C50.3092 45.189 50.1876 45.0958 50.1875 44.9312C50.1875 44.7664 50.3092 44.6733 50.4102 44.6733Z" fill="#E8BDA5" stroke="#E8BDA5"/>
<path d="M53.875 42.7615C53.976 42.7615 54.0977 42.8545 54.0977 43.0193C54.0976 43.1839 53.976 43.2771 53.875 43.2771C53.774 43.2771 53.6524 43.1839 53.6523 43.0193C53.6523 42.8545 53.774 42.7615 53.875 42.7615Z" fill="#E8BDA5" stroke="#E8BDA5"/>
<path d="M59.166 38.9807C59.267 38.9807 59.3887 39.0738 59.3887 39.2385C59.3886 39.4032 59.267 39.4963 59.166 39.4963C59.0651 39.4963 58.9435 39.4032 58.9434 39.2385C58.9434 39.0738 59.065 38.9807 59.166 38.9807Z" fill="#E8BDA5" stroke="#E8BDA5"/>
<path d="M59.2773 42.6289C59.3783 42.6289 59.5 42.7219 59.5 42.8867C59.4999 43.0514 59.3783 43.1445 59.2773 43.1445C59.1764 43.1445 59.0548 43.0514 59.0547 42.8867C59.0547 42.722 59.1763 42.6289 59.2773 42.6289Z" fill="#E8BDA5" stroke="#E8BDA5"/>
<path d="M55.6641 46.542C55.7651 46.542 55.8867 46.635 55.8867 46.7998C55.8866 46.9644 55.765 47.0576 55.6641 47.0576C55.5631 47.0576 55.4415 46.9644 55.4414 46.7998C55.4414 46.635 55.5631 46.542 55.6641 46.542Z" fill="#E8BDA5" stroke="#E8BDA5"/>
</svg>
