<svg width="83" height="78" viewBox="0 0 83 78" fill="none" xmlns="http://www.w3.org/2000/svg">
<circle cx="42" cy="39" r="25" fill="#3D1F1A"/>
<path d="M42 57C51.9411 57 60 48.9411 60 39C60 29.0589 51.9411 21 42 21C32.0589 21 24 29.0589 24 39C24 48.9411 32.0589 57 42 57Z" stroke="#BB7A58" stroke-miterlimit="10"/>
<path d="M32.6309 26.8262C34.8217 25.7722 37.5767 25.2935 40.2217 25.6152C42.6984 25.9166 45.0474 26.9149 46.7559 28.7607L47.0889 29.1406C49.566 32.1377 50.0257 36.6022 48.6436 39.7822C48.2982 40.573 47.6092 42.1494 45.9385 43.043L46.1709 43.4785L45.9375 43.043L45.9307 43.0469C45.8334 43.1009 45.2202 43.4228 44.3701 43.625C43.5174 43.8278 42.4708 43.9001 41.4727 43.5098H41.4736C40.991 43.3192 40.659 43.087 40.2568 42.8701C39.9288 42.6932 39.4716 42.4828 38.9766 42.6631L38.877 42.7041L38.875 42.7051C38.4371 42.9126 38.202 43.336 38.0801 43.6992C37.9856 43.9807 37.9386 44.2823 37.9307 44.5557L37.9355 44.8184C38.015 46.0267 38.9578 47.0775 40.0703 47.8447C41.2068 48.6285 42.6482 49.2076 43.9697 49.4336V49.4346C46.8207 49.9243 49.3963 48.8314 51.2832 47.5928C52.7019 46.6615 53.7667 45.625 54.3174 45.042L54.6904 44.6309L54.6924 44.6289C56.5983 42.412 57.4852 39.979 57.8945 37.9912C57.9836 39.4534 57.8634 41.1985 57.2344 43.0312L57.1016 43.3984C55.1358 48.594 49.6987 52.4557 44.0068 52.1172H44.0078C43.6348 52.0912 41.8176 51.9551 39.7959 51.165C37.8381 50.3999 35.7327 49.0396 34.5283 46.6152L34.4141 46.377L34.2812 46.0742C32.9674 42.918 33.3671 38.8278 35.7002 36.4287L35.7549 36.373L35.7627 36.3564C36.2572 35.8468 37.8888 34.2725 39.9854 34.2793C40.8816 34.2874 41.564 34.5847 42.1719 34.8535C42.4604 34.9811 42.779 35.1252 43.0781 35.1885C43.402 35.257 43.7639 35.2445 44.1025 35.0078L44.1035 35.0088C44.4595 34.7615 44.6552 34.3566 44.7549 33.9512C44.8568 33.5367 44.8748 33.0572 44.8232 32.5674C44.7269 31.6524 44.3789 30.6214 43.7578 29.8008L43.6299 29.6396C42.4186 28.1772 40.5128 27.7695 38.9473 27.7109C37.7598 27.6666 36.695 27.8197 36.1201 27.9258L35.7217 28.0068C31.5443 28.9463 28.7955 32.6504 27.084 36.1035C26.1993 37.8885 25.5729 39.6456 25.1582 41.001C24.7697 34.9898 27.5853 29.5524 32.125 27.085L32.6309 26.8262Z" fill="#BB7A58" stroke="#BB7A58"/>
</svg>
